<?xml version="1.0" encoding="utf-8" standalone="no"?>
<!DOCTYPE svg PUBLIC "-//W3C//DTD SVG 1.1//EN"
  "http://www.w3.org/Graphics/SVG/1.1/DTD/svg11.dtd">
<svg xmlns:xlink="http://www.w3.org/1999/xlink" width="314.64pt" height="151.2pt" viewBox="0 0 314.64 151.2" xmlns="http://www.w3.org/2000/svg" version="1.1">
 <metadata>
  <rdf:RDF xmlns:dc="http://purl.org/dc/elements/1.1/" xmlns:cc="http://creativecommons.org/ns#" xmlns:rdf="http://www.w3.org/1999/02/22-rdf-syntax-ns#">
   <cc:Work>
    <dc:type rdf:resource="http://purl.org/dc/dcmitype/StillImage"/>
    <dc:date>2024-02-22T00:29:34.733152</dc:date>
    <dc:format>image/svg+xml</dc:format>
    <dc:creator>
     <cc:Agent>
      <dc:title>Matplotlib v3.8.0, https://matplotlib.org/</dc:title>
     </cc:Agent>
    </dc:creator>
   </cc:Work>
  </rdf:RDF>
 </metadata>
 <defs>
  <style type="text/css">*{stroke-linejoin: round; stroke-linecap: butt}</style>
 </defs>
 <g id="figure_1">
  <g id="patch_1">
   <path d="M 0 151.2 
L 314.64 151.2 
L 314.64 0 
L 0 0 
z
" style="fill: #ffffff"/>
  </g>
  <g id="axes_1">
   <g id="patch_2">
    <path d="M 36 115.2 
L 156.96 115.2 
L 156.96 7.2 
L 36 7.2 
z
" style="fill: #ffffff"/>
   </g>
   <g id="matplotlib.axis_1">
    <g id="xtick_1">
     <g id="line2d_1">
      <path d="M 68.989091 115.2 
L 68.989091 7.2 
" clip-path="url(#p357c4b6d12)" style="fill: none; stroke-dasharray: 0.8,1.32; stroke-dashoffset: 0; stroke: #b0b0b0; stroke-width: 0.8"/>
     </g>
     <g id="line2d_2">
      <defs>
       <path id="m10198d1db1" d="M 0 0 
L 0 3.5 
" style="stroke: #000000; stroke-width: 0.8"/>
      </defs>
      <g>
       <use xlink:href="#m10198d1db1" x="68.989091" y="115.2" style="stroke: #000000; stroke-width: 0.8"/>
      </g>
     </g>
     <g id="text_1">
      <text style="font: 8px 'Carlito', sans-serif; text-anchor: middle" x="68.989091" y="127.755" transform="rotate(-0 68.989091 127.755)">5</text>
     </g>
    </g>
    <g id="xtick_2">
     <g id="line2d_3">
      <path d="M 123.970909 115.2 
L 123.970909 7.2 
" clip-path="url(#p357c4b6d12)" style="fill: none; stroke-dasharray: 0.8,1.32; stroke-dashoffset: 0; stroke: #b0b0b0; stroke-width: 0.8"/>
     </g>
     <g id="line2d_4">
      <g>
       <use xlink:href="#m10198d1db1" x="123.970909" y="115.2" style="stroke: #000000; stroke-width: 0.8"/>
      </g>
     </g>
     <g id="text_2">
      <text style="font: 8px 'Carlito', sans-serif; text-anchor: middle" x="123.970909" y="127.755" transform="rotate(-0 123.970909 127.755)">10</text>
     </g>
    </g>
    <g id="text_3">
     <text style="font: 8px 'Carlito', sans-serif; text-anchor: middle" x="96.48" y="138.59875" transform="rotate(-0 96.48 138.59875)">channel width</text>
    </g>
   </g>
   <g id="matplotlib.axis_2">
    <g id="ytick_1">
     <g id="line2d_5">
      <path d="M 36 115.2 
L 156.96 115.2 
" clip-path="url(#p357c4b6d12)" style="fill: none; stroke-dasharray: 0.8,1.32; stroke-dashoffset: 0; stroke: #b0b0b0; stroke-width: 0.8"/>
     </g>
     <g id="line2d_6">
      <defs>
       <path id="mfd79547d28" d="M 0 0 
L -3.5 0 
" style="stroke: #000000; stroke-width: 0.8"/>
      </defs>
      <g>
       <use xlink:href="#mfd79547d28" x="36" y="115.2" style="stroke: #000000; stroke-width: 0.8"/>
      </g>
     </g>
     <g id="text_4">
      <text style="font: 8px 'Carlito', sans-serif; text-anchor: end" x="29" y="117.9775" transform="rotate(-0 29 117.9775)">0.0</text>
     </g>
    </g>
    <g id="ytick_2">
     <g id="line2d_7">
      <path d="M 36 93.6 
L 156.96 93.6 
" clip-path="url(#p357c4b6d12)" style="fill: none; stroke-dasharray: 0.8,1.32; stroke-dashoffset: 0; stroke: #b0b0b0; stroke-width: 0.8"/>
     </g>
     <g id="line2d_8">
      <g>
       <use xlink:href="#mfd79547d28" x="36" y="93.6" style="stroke: #000000; stroke-width: 0.8"/>
      </g>
     </g>
     <g id="text_5">
      <text style="font: 8px 'Carlito', sans-serif; text-anchor: end" x="29" y="96.3775" transform="rotate(-0 29 96.3775)">0.2</text>
     </g>
    </g>
    <g id="ytick_3">
     <g id="line2d_9">
      <path d="M 36 72 
L 156.96 72 
" clip-path="url(#p357c4b6d12)" style="fill: none; stroke-dasharray: 0.8,1.32; stroke-dashoffset: 0; stroke: #b0b0b0; stroke-width: 0.8"/>
     </g>
     <g id="line2d_10">
      <g>
       <use xlink:href="#mfd79547d28" x="36" y="72" style="stroke: #000000; stroke-width: 0.8"/>
      </g>
     </g>
     <g id="text_6">
      <text style="font: 8px 'Carlito', sans-serif; text-anchor: end" x="29" y="74.7775" transform="rotate(-0 29 74.7775)">0.4</text>
     </g>
    </g>
    <g id="ytick_4">
     <g id="line2d_11">
      <path d="M 36 50.4 
L 156.96 50.4 
" clip-path="url(#p357c4b6d12)" style="fill: none; stroke-dasharray: 0.8,1.32; stroke-dashoffset: 0; stroke: #b0b0b0; stroke-width: 0.8"/>
     </g>
     <g id="line2d_12">
      <g>
       <use xlink:href="#mfd79547d28" x="36" y="50.4" style="stroke: #000000; stroke-width: 0.8"/>
      </g>
     </g>
     <g id="text_7">
      <text style="font: 8px 'Carlito', sans-serif; text-anchor: end" x="29" y="53.1775" transform="rotate(-0 29 53.1775)">0.6</text>
     </g>
    </g>
    <g id="ytick_5">
     <g id="line2d_13">
      <path d="M 36 28.8 
L 156.96 28.8 
" clip-path="url(#p357c4b6d12)" style="fill: none; stroke-dasharray: 0.8,1.32; stroke-dashoffset: 0; stroke: #b0b0b0; stroke-width: 0.8"/>
     </g>
     <g id="line2d_14">
      <g>
       <use xlink:href="#mfd79547d28" x="36" y="28.8" style="stroke: #000000; stroke-width: 0.8"/>
      </g>
     </g>
     <g id="text_8">
      <text style="font: 8px 'Carlito', sans-serif; text-anchor: end" x="29" y="31.5775" transform="rotate(-0 29 31.5775)">0.8</text>
     </g>
    </g>
    <g id="ytick_6">
     <g id="line2d_15">
      <path d="M 36 7.2 
L 156.96 7.2 
" clip-path="url(#p357c4b6d12)" style="fill: none; stroke-dasharray: 0.8,1.32; stroke-dashoffset: 0; stroke: #b0b0b0; stroke-width: 0.8"/>
     </g>
     <g id="line2d_16">
      <g>
       <use xlink:href="#mfd79547d28" x="36" y="7.2" style="stroke: #000000; stroke-width: 0.8"/>
      </g>
     </g>
     <g id="text_9">
      <text style="font: 8px 'Carlito', sans-serif; text-anchor: end" x="29" y="9.9775" transform="rotate(-0 29 9.9775)">1.0</text>
     </g>
    </g>
    <g id="text_10">
     <text style="font: 8px 'Carlito', sans-serif; text-anchor: middle" x="13.58125" y="61.2" transform="rotate(-90 13.58125 61.2)">max bitrate [bit/h]</text>
    </g>
   </g>
   <g id="line2d_17">
    <path d="M 46.996364 88.403691 
L 57.992727 75.872682 
L 68.989091 69.538712 
L 79.985455 69.204998 
L 90.981818 69.985266 
L 101.978182 72.050705 
L 112.974545 73.934818 
L 123.970909 74.857142 
L 134.967273 76.509709 
L 145.963636 80.940289 
" clip-path="url(#p357c4b6d12)" style="fill: none; stroke: #ff7f0e; stroke-linecap: square"/>
    <defs>
     <path id="ma24bd57902" d="M 0 3 
C 0.795609 3 1.55874 2.683901 2.12132 2.12132 
C 2.683901 1.55874 3 0.795609 3 0 
C 3 -0.795609 2.683901 -1.55874 2.12132 -2.12132 
C 1.55874 -2.683901 0.795609 -3 0 -3 
C -0.795609 -3 -1.55874 -2.683901 -2.12132 -2.12132 
C -2.683901 -1.55874 -3 -0.795609 -3 0 
C -3 0.795609 -2.683901 1.55874 -2.12132 2.12132 
C -1.55874 2.683901 -0.795609 3 0 3 
z
" style="stroke: #ff7f0e"/>
    </defs>
    <g clip-path="url(#p357c4b6d12)">
     <use xlink:href="#ma24bd57902" x="46.996364" y="88.403691" style="fill: #ff7f0e; stroke: #ff7f0e"/>
     <use xlink:href="#ma24bd57902" x="57.992727" y="75.872682" style="fill: #ff7f0e; stroke: #ff7f0e"/>
     <use xlink:href="#ma24bd57902" x="68.989091" y="69.538712" style="fill: #ff7f0e; stroke: #ff7f0e"/>
     <use xlink:href="#ma24bd57902" x="79.985455" y="69.204998" style="fill: #ff7f0e; stroke: #ff7f0e"/>
     <use xlink:href="#ma24bd57902" x="90.981818" y="69.985266" style="fill: #ff7f0e; stroke: #ff7f0e"/>
     <use xlink:href="#ma24bd57902" x="101.978182" y="72.050705" style="fill: #ff7f0e; stroke: #ff7f0e"/>
     <use xlink:href="#ma24bd57902" x="112.974545" y="73.934818" style="fill: #ff7f0e; stroke: #ff7f0e"/>
     <use xlink:href="#ma24bd57902" x="123.970909" y="74.857142" style="fill: #ff7f0e; stroke: #ff7f0e"/>
     <use xlink:href="#ma24bd57902" x="134.967273" y="76.509709" style="fill: #ff7f0e; stroke: #ff7f0e"/>
     <use xlink:href="#ma24bd57902" x="145.963636" y="80.940289" style="fill: #ff7f0e; stroke: #ff7f0e"/>
    </g>
   </g>
   <g id="line2d_18">
    <path d="M 46.996364 105.753122 
L 57.992727 88.85591 
L 68.989091 80.152802 
L 79.985455 78.975143 
L 90.981818 80.309886 
L 101.978182 84.109209 
L 112.974545 87.961539 
L 123.970909 92.003909 
L 134.967273 95.960083 
L 145.963636 102.830686 
" clip-path="url(#p357c4b6d12)" style="fill: none; stroke: #2ca02c; stroke-linecap: square"/>
    <defs>
     <path id="m6b276004b5" d="M 0 3 
C 0.795609 3 1.55874 2.683901 2.12132 2.12132 
C 2.683901 1.55874 3 0.795609 3 0 
C 3 -0.795609 2.683901 -1.55874 2.12132 -2.12132 
C 1.55874 -2.683901 0.795609 -3 0 -3 
C -0.795609 -3 -1.55874 -2.683901 -2.12132 -2.12132 
C -2.683901 -1.55874 -3 -0.795609 -3 0 
C -3 0.795609 -2.683901 1.55874 -2.12132 2.12132 
C -1.55874 2.683901 -0.795609 3 0 3 
z
" style="stroke: #2ca02c"/>
    </defs>
    <g clip-path="url(#p357c4b6d12)">
     <use xlink:href="#m6b276004b5" x="46.996364" y="105.753122" style="fill: #2ca02c; stroke: #2ca02c"/>
     <use xlink:href="#m6b276004b5" x="57.992727" y="88.85591" style="fill: #2ca02c; stroke: #2ca02c"/>
     <use xlink:href="#m6b276004b5" x="68.989091" y="80.152802" style="fill: #2ca02c; stroke: #2ca02c"/>
     <use xlink:href="#m6b276004b5" x="79.985455" y="78.975143" style="fill: #2ca02c; stroke: #2ca02c"/>
     <use xlink:href="#m6b276004b5" x="90.981818" y="80.309886" style="fill: #2ca02c; stroke: #2ca02c"/>
     <use xlink:href="#m6b276004b5" x="101.978182" y="84.109209" style="fill: #2ca02c; stroke: #2ca02c"/>
     <use xlink:href="#m6b276004b5" x="112.974545" y="87.961539" style="fill: #2ca02c; stroke: #2ca02c"/>
     <use xlink:href="#m6b276004b5" x="123.970909" y="92.003909" style="fill: #2ca02c; stroke: #2ca02c"/>
     <use xlink:href="#m6b276004b5" x="134.967273" y="95.960083" style="fill: #2ca02c; stroke: #2ca02c"/>
     <use xlink:href="#m6b276004b5" x="145.963636" y="102.830686" style="fill: #2ca02c; stroke: #2ca02c"/>
    </g>
   </g>
   <g id="patch_3">
    <path d="M 36 115.2 
L 36 7.2 
" style="fill: none; stroke: #000000; stroke-width: 0.8; stroke-linejoin: miter; stroke-linecap: square"/>
   </g>
   <g id="patch_4">
    <path d="M 156.96 115.2 
L 156.96 7.2 
" style="fill: none; stroke: #000000; stroke-width: 0.8; stroke-linejoin: miter; stroke-linecap: square"/>
   </g>
   <g id="patch_5">
    <path d="M 36 115.2 
L 156.96 115.2 
" style="fill: none; stroke: #000000; stroke-width: 0.8; stroke-linejoin: miter; stroke-linecap: square"/>
   </g>
   <g id="patch_6">
    <path d="M 36 7.2 
L 156.96 7.2 
" style="fill: none; stroke: #000000; stroke-width: 0.8; stroke-linejoin: miter; stroke-linecap: square"/>
   </g>
  </g>
  <g id="axes_2">
   <g id="patch_7">
    <path d="M 192.96 115.2 
L 313.92 115.2 
L 313.92 7.2 
L 192.96 7.2 
z
" style="fill: #ffffff"/>
   </g>
   <g id="matplotlib.axis_3">
    <g id="xtick_3">
     <g id="line2d_19">
      <path d="M 225.949091 115.2 
L 225.949091 7.2 
" clip-path="url(#p4103195e9c)" style="fill: none; stroke-dasharray: 0.8,1.32; stroke-dashoffset: 0; stroke: #b0b0b0; stroke-width: 0.8"/>
     </g>
     <g id="line2d_20">
      <g>
       <use xlink:href="#m10198d1db1" x="225.949091" y="115.2" style="stroke: #000000; stroke-width: 0.8"/>
      </g>
     </g>
     <g id="text_11">
      <text style="font: 8px 'Carlito', sans-serif; text-anchor: middle" x="225.949091" y="127.755" transform="rotate(-0 225.949091 127.755)">5</text>
     </g>
    </g>
    <g id="xtick_4">
     <g id="line2d_21">
      <path d="M 280.930909 115.2 
L 280.930909 7.2 
" clip-path="url(#p4103195e9c)" style="fill: none; stroke-dasharray: 0.8,1.32; stroke-dashoffset: 0; stroke: #b0b0b0; stroke-width: 0.8"/>
     </g>
     <g id="line2d_22">
      <g>
       <use xlink:href="#m10198d1db1" x="280.930909" y="115.2" style="stroke: #000000; stroke-width: 0.8"/>
      </g>
     </g>
     <g id="text_12">
      <text style="font: 8px 'Carlito', sans-serif; text-anchor: middle" x="280.930909" y="127.755" transform="rotate(-0 280.930909 127.755)">10</text>
     </g>
    </g>
    <g id="text_13">
     <text style="font: 8px 'Carlito', sans-serif; text-anchor: middle" x="253.44" y="138.59875" transform="rotate(-0 253.44 138.59875)">channel width</text>
    </g>
   </g>
   <g id="matplotlib.axis_4">
    <g id="ytick_7">
     <g id="line2d_23">
      <path d="M 192.96 115.2 
L 313.92 115.2 
" clip-path="url(#p4103195e9c)" style="fill: none; stroke-dasharray: 0.8,1.32; stroke-dashoffset: 0; stroke: #b0b0b0; stroke-width: 0.8"/>
     </g>
     <g id="line2d_24">
      <g>
       <use xlink:href="#mfd79547d28" x="192.96" y="115.2" style="stroke: #000000; stroke-width: 0.8"/>
      </g>
     </g>
     <g id="text_14">
      <text style="font: 8px 'Carlito', sans-serif; text-anchor: end" x="185.96" y="117.9775" transform="rotate(-0 185.96 117.9775)">0</text>
     </g>
    </g>
    <g id="ytick_8">
     <g id="line2d_25">
      <path d="M 192.96 97.2 
L 313.92 97.2 
" clip-path="url(#p4103195e9c)" style="fill: none; stroke-dasharray: 0.8,1.32; stroke-dashoffset: 0; stroke: #b0b0b0; stroke-width: 0.8"/>
     </g>
     <g id="line2d_26">
      <g>
       <use xlink:href="#mfd79547d28" x="192.96" y="97.2" style="stroke: #000000; stroke-width: 0.8"/>
      </g>
     </g>
     <g id="text_15">
      <text style="font: 8px 'Carlito', sans-serif; text-anchor: end" x="185.96" y="99.9775" transform="rotate(-0 185.96 99.9775)">50</text>
     </g>
    </g>
    <g id="ytick_9">
     <g id="line2d_27">
      <path d="M 192.96 79.2 
L 313.92 79.2 
" clip-path="url(#p4103195e9c)" style="fill: none; stroke-dasharray: 0.8,1.32; stroke-dashoffset: 0; stroke: #b0b0b0; stroke-width: 0.8"/>
     </g>
     <g id="line2d_28">
      <g>
       <use xlink:href="#mfd79547d28" x="192.96" y="79.2" style="stroke: #000000; stroke-width: 0.8"/>
      </g>
     </g>
     <g id="text_16">
      <text style="font: 8px 'Carlito', sans-serif; text-anchor: end" x="185.96" y="81.9775" transform="rotate(-0 185.96 81.9775)">100</text>
     </g>
    </g>
    <g id="ytick_10">
     <g id="line2d_29">
      <path d="M 192.96 61.2 
L 313.92 61.2 
" clip-path="url(#p4103195e9c)" style="fill: none; stroke-dasharray: 0.8,1.32; stroke-dashoffset: 0; stroke: #b0b0b0; stroke-width: 0.8"/>
     </g>
     <g id="line2d_30">
      <g>
       <use xlink:href="#mfd79547d28" x="192.96" y="61.2" style="stroke: #000000; stroke-width: 0.8"/>
      </g>
     </g>
     <g id="text_17">
      <text style="font: 8px 'Carlito', sans-serif; text-anchor: end" x="185.96" y="63.9775" transform="rotate(-0 185.96 63.9775)">150</text>
     </g>
    </g>
    <g id="ytick_11">
     <g id="line2d_31">
      <path d="M 192.96 43.2 
L 313.92 43.2 
" clip-path="url(#p4103195e9c)" style="fill: none; stroke-dasharray: 0.8,1.32; stroke-dashoffset: 0; stroke: #b0b0b0; stroke-width: 0.8"/>
     </g>
     <g id="line2d_32">
      <g>
       <use xlink:href="#mfd79547d28" x="192.96" y="43.2" style="stroke: #000000; stroke-width: 0.8"/>
      </g>
     </g>
     <g id="text_18">
      <text style="font: 8px 'Carlito', sans-serif; text-anchor: end" x="185.96" y="45.9775" transform="rotate(-0 185.96 45.9775)">200</text>
     </g>
    </g>
    <g id="ytick_12">
     <g id="line2d_33">
      <path d="M 192.96 25.2 
L 313.92 25.2 
" clip-path="url(#p4103195e9c)" style="fill: none; stroke-dasharray: 0.8,1.32; stroke-dashoffset: 0; stroke: #b0b0b0; stroke-width: 0.8"/>
     </g>
     <g id="line2d_34">
      <g>
       <use xlink:href="#mfd79547d28" x="192.96" y="25.2" style="stroke: #000000; stroke-width: 0.8"/>
      </g>
     </g>
     <g id="text_19">
      <text style="font: 8px 'Carlito', sans-serif; text-anchor: end" x="185.96" y="27.9775" transform="rotate(-0 185.96 27.9775)">250</text>
     </g>
    </g>
    <g id="ytick_13">
     <g id="line2d_35">
      <path d="M 192.96 7.2 
L 313.92 7.2 
" clip-path="url(#p4103195e9c)" style="fill: none; stroke-dasharray: 0.8,1.32; stroke-dashoffset: 0; stroke: #b0b0b0; stroke-width: 0.8"/>
     </g>
     <g id="line2d_36">
      <g>
       <use xlink:href="#mfd79547d28" x="192.96" y="7.2" style="stroke: #000000; stroke-width: 0.8"/>
      </g>
     </g>
     <g id="text_20">
      <text style="font: 8px 'Carlito', sans-serif; text-anchor: end" x="185.96" y="9.9775" transform="rotate(-0 185.96 9.9775)">300</text>
     </g>
    </g>
    <g id="text_21">
     <text style="font: 8px 'Carlito', sans-serif; text-anchor: middle" x="168.50625" y="61.2" transform="rotate(-90 168.50625 61.2)">optimal interval [min]</text>
    </g>
   </g>
   <g id="line2d_37">
    <path d="M 203.956364 90.72 
L 214.952727 73.8 
L 225.949091 76.68 
L 236.945455 73.8 
L 247.941818 69.84 
L 258.938182 68.4 
L 269.934545 68.76 
L 280.930909 66.24 
L 291.927273 65.52 
L 302.923636 63.72 
" clip-path="url(#p4103195e9c)" style="fill: none; stroke: #ff7f0e; stroke-linecap: square"/>
    <g clip-path="url(#p4103195e9c)">
     <use xlink:href="#ma24bd57902" x="203.956364" y="90.72" style="fill: #ff7f0e; stroke: #ff7f0e"/>
     <use xlink:href="#ma24bd57902" x="214.952727" y="73.8" style="fill: #ff7f0e; stroke: #ff7f0e"/>
     <use xlink:href="#ma24bd57902" x="225.949091" y="76.68" style="fill: #ff7f0e; stroke: #ff7f0e"/>
     <use xlink:href="#ma24bd57902" x="236.945455" y="73.8" style="fill: #ff7f0e; stroke: #ff7f0e"/>
     <use xlink:href="#ma24bd57902" x="247.941818" y="69.84" style="fill: #ff7f0e; stroke: #ff7f0e"/>
     <use xlink:href="#ma24bd57902" x="258.938182" y="68.4" style="fill: #ff7f0e; stroke: #ff7f0e"/>
     <use xlink:href="#ma24bd57902" x="269.934545" y="68.76" style="fill: #ff7f0e; stroke: #ff7f0e"/>
     <use xlink:href="#ma24bd57902" x="280.930909" y="66.24" style="fill: #ff7f0e; stroke: #ff7f0e"/>
     <use xlink:href="#ma24bd57902" x="291.927273" y="65.52" style="fill: #ff7f0e; stroke: #ff7f0e"/>
     <use xlink:href="#ma24bd57902" x="302.923636" y="63.72" style="fill: #ff7f0e; stroke: #ff7f0e"/>
    </g>
   </g>
   <g id="line2d_38">
    <path d="M 203.956364 70.56 
L 214.952727 63.72 
L 225.949091 68.04 
L 236.945455 68.76 
L 247.941818 64.08 
L 258.938182 60.84 
L 269.934545 55.8 
L 280.930909 52.2 
L 291.927273 50.04 
L 302.923636 36.72 
" clip-path="url(#p4103195e9c)" style="fill: none; stroke: #2ca02c; stroke-linecap: square"/>
    <g clip-path="url(#p4103195e9c)">
     <use xlink:href="#m6b276004b5" x="203.956364" y="70.56" style="fill: #2ca02c; stroke: #2ca02c"/>
     <use xlink:href="#m6b276004b5" x="214.952727" y="63.72" style="fill: #2ca02c; stroke: #2ca02c"/>
     <use xlink:href="#m6b276004b5" x="225.949091" y="68.04" style="fill: #2ca02c; stroke: #2ca02c"/>
     <use xlink:href="#m6b276004b5" x="236.945455" y="68.76" style="fill: #2ca02c; stroke: #2ca02c"/>
     <use xlink:href="#m6b276004b5" x="247.941818" y="64.08" style="fill: #2ca02c; stroke: #2ca02c"/>
     <use xlink:href="#m6b276004b5" x="258.938182" y="60.84" style="fill: #2ca02c; stroke: #2ca02c"/>
     <use xlink:href="#m6b276004b5" x="269.934545" y="55.8" style="fill: #2ca02c; stroke: #2ca02c"/>
     <use xlink:href="#m6b276004b5" x="280.930909" y="52.2" style="fill: #2ca02c; stroke: #2ca02c"/>
     <use xlink:href="#m6b276004b5" x="291.927273" y="50.04" style="fill: #2ca02c; stroke: #2ca02c"/>
     <use xlink:href="#m6b276004b5" x="302.923636" y="36.72" style="fill: #2ca02c; stroke: #2ca02c"/>
    </g>
   </g>
   <g id="patch_8">
    <path d="M 192.96 115.2 
L 192.96 7.2 
" style="fill: none; stroke: #000000; stroke-width: 0.8; stroke-linejoin: miter; stroke-linecap: square"/>
   </g>
   <g id="patch_9">
    <path d="M 313.92 115.2 
L 313.92 7.2 
" style="fill: none; stroke: #000000; stroke-width: 0.8; stroke-linejoin: miter; stroke-linecap: square"/>
   </g>
   <g id="patch_10">
    <path d="M 192.96 115.2 
L 313.92 115.2 
" style="fill: none; stroke: #000000; stroke-width: 0.8; stroke-linejoin: miter; stroke-linecap: square"/>
   </g>
   <g id="patch_11">
    <path d="M 192.96 7.2 
L 313.92 7.2 
" style="fill: none; stroke: #000000; stroke-width: 0.8; stroke-linejoin: miter; stroke-linecap: square"/>
   </g>
   <g id="legend_1">
    <g id="patch_12">
     <path d="M 198.56 46.3075 
L 249.88125 46.3075 
Q 251.48125 46.3075 251.48125 44.7075 
L 251.48125 12.8 
Q 251.48125 11.2 249.88125 11.2 
L 198.56 11.2 
Q 196.96 11.2 196.96 12.8 
L 196.96 44.7075 
Q 196.96 46.3075 198.56 46.3075 
z
" style="fill: #ffffff; opacity: 0.8; stroke: #cccccc; stroke-linejoin: miter"/>
    </g>
    <g id="text_22">
     <text style="font: 8px 'Carlito', sans-serif; text-anchor: start" x="200.16" y="19.955" transform="rotate(-0 200.16 19.955)">channel length</text>
    </g>
    <g id="line2d_39">
     <path d="M 206.938125 28.13 
L 214.938125 28.13 
L 222.938125 28.13 
" style="fill: none; stroke: #ff7f0e; stroke-linecap: square"/>
     <g>
      <use xlink:href="#ma24bd57902" x="214.938125" y="28.13" style="fill: #ff7f0e; stroke: #ff7f0e"/>
     </g>
    </g>
    <g id="text_23">
     <text style="font: 8px 'Carlito', sans-serif; text-anchor: start" x="229.338125" y="30.93" transform="rotate(-0 229.338125 30.93)">100</text>
    </g>
    <g id="line2d_40">
     <path d="M 206.938125 39.01875 
L 214.938125 39.01875 
L 222.938125 39.01875 
" style="fill: none; stroke: #2ca02c; stroke-linecap: square"/>
     <g>
      <use xlink:href="#m6b276004b5" x="214.938125" y="39.01875" style="fill: #2ca02c; stroke: #2ca02c"/>
     </g>
    </g>
    <g id="text_24">
     <text style="font: 8px 'Carlito', sans-serif; text-anchor: start" x="229.338125" y="41.81875" transform="rotate(-0 229.338125 41.81875)">300</text>
    </g>
   </g>
  </g>
 </g>
 <defs>
  <clipPath id="p357c4b6d12">
   <rect x="36" y="7.2" width="120.96" height="108"/>
  </clipPath>
  <clipPath id="p4103195e9c">
   <rect x="192.96" y="7.2" width="120.96" height="108"/>
  </clipPath>
 </defs>
</svg>
