<?xml version="1.0" encoding="utf-8" standalone="no"?>
<!DOCTYPE svg PUBLIC "-//W3C//DTD SVG 1.1//EN"
  "http://www.w3.org/Graphics/SVG/1.1/DTD/svg11.dtd">
<svg xmlns:xlink="http://www.w3.org/1999/xlink" width="482.4pt" height="151.2pt" viewBox="0 0 482.4 151.2" xmlns="http://www.w3.org/2000/svg" version="1.1">
 <metadata>
  <rdf:RDF xmlns:dc="http://purl.org/dc/elements/1.1/" xmlns:cc="http://creativecommons.org/ns#" xmlns:rdf="http://www.w3.org/1999/02/22-rdf-syntax-ns#">
   <cc:Work>
    <dc:type rdf:resource="http://purl.org/dc/dcmitype/StillImage"/>
    <dc:date>2023-12-15T08:37:08.410257</dc:date>
    <dc:format>image/svg+xml</dc:format>
    <dc:creator>
     <cc:Agent>
      <dc:title>Matplotlib v3.8.0, https://matplotlib.org/</dc:title>
     </cc:Agent>
    </dc:creator>
   </cc:Work>
  </rdf:RDF>
 </metadata>
 <defs>
  <style type="text/css">*{stroke-linejoin: round; stroke-linecap: butt}</style>
 </defs>
 <g id="figure_1">
  <g id="patch_1">
   <path d="M 0 151.2 
L 482.4 151.2 
L 482.4 0 
L 0 0 
z
" style="fill: #ffffff"/>
  </g>
  <g id="axes_1">
   <g id="patch_2">
    <path d="M 36 115.2 
L 234 115.2 
L 234 7.2 
L 36 7.2 
z
" style="fill: #ffffff"/>
   </g>
   <g id="matplotlib.axis_1">
    <g id="xtick_1">
     <g id="line2d_1">
      <path d="M 36 115.2 
L 36 7.2 
" clip-path="url(#p39a57d0ac5)" style="fill: none; stroke-dasharray: 0.8,1.32; stroke-dashoffset: 0; stroke: #b0b0b0; stroke-width: 0.8"/>
     </g>
     <g id="line2d_2">
      <defs>
       <path id="mc1d2cc4621" d="M 0 0 
L 0 3.5 
" style="stroke: #000000; stroke-width: 0.8"/>
      </defs>
      <g>
       <use xlink:href="#mc1d2cc4621" x="36" y="115.2" style="stroke: #000000; stroke-width: 0.8"/>
      </g>
     </g>
     <g id="text_1">
      <text style="font: 8px 'Carlito', sans-serif; text-anchor: middle" x="36" y="127.755" transform="rotate(-0 36 127.755)">0</text>
     </g>
    </g>
    <g id="xtick_2">
     <g id="line2d_3">
      <path d="M 67.807229 115.2 
L 67.807229 7.2 
" clip-path="url(#p39a57d0ac5)" style="fill: none; stroke-dasharray: 0.8,1.32; stroke-dashoffset: 0; stroke: #b0b0b0; stroke-width: 0.8"/>
     </g>
     <g id="line2d_4">
      <g>
       <use xlink:href="#mc1d2cc4621" x="67.807229" y="115.2" style="stroke: #000000; stroke-width: 0.8"/>
      </g>
     </g>
     <g id="text_2">
      <text style="font: 8px 'Carlito', sans-serif; text-anchor: middle" x="67.807229" y="127.755" transform="rotate(-0 67.807229 127.755)">2</text>
     </g>
    </g>
    <g id="xtick_3">
     <g id="line2d_5">
      <path d="M 99.614458 115.2 
L 99.614458 7.2 
" clip-path="url(#p39a57d0ac5)" style="fill: none; stroke-dasharray: 0.8,1.32; stroke-dashoffset: 0; stroke: #b0b0b0; stroke-width: 0.8"/>
     </g>
     <g id="line2d_6">
      <g>
       <use xlink:href="#mc1d2cc4621" x="99.614458" y="115.2" style="stroke: #000000; stroke-width: 0.8"/>
      </g>
     </g>
     <g id="text_3">
      <text style="font: 8px 'Carlito', sans-serif; text-anchor: middle" x="99.614458" y="127.755" transform="rotate(-0 99.614458 127.755)">4</text>
     </g>
    </g>
    <g id="xtick_4">
     <g id="line2d_7">
      <path d="M 131.421687 115.2 
L 131.421687 7.2 
" clip-path="url(#p39a57d0ac5)" style="fill: none; stroke-dasharray: 0.8,1.32; stroke-dashoffset: 0; stroke: #b0b0b0; stroke-width: 0.8"/>
     </g>
     <g id="line2d_8">
      <g>
       <use xlink:href="#mc1d2cc4621" x="131.421687" y="115.2" style="stroke: #000000; stroke-width: 0.8"/>
      </g>
     </g>
     <g id="text_4">
      <text style="font: 8px 'Carlito', sans-serif; text-anchor: middle" x="131.421687" y="127.755" transform="rotate(-0 131.421687 127.755)">6</text>
     </g>
    </g>
    <g id="xtick_5">
     <g id="line2d_9">
      <path d="M 163.228916 115.2 
L 163.228916 7.2 
" clip-path="url(#p39a57d0ac5)" style="fill: none; stroke-dasharray: 0.8,1.32; stroke-dashoffset: 0; stroke: #b0b0b0; stroke-width: 0.8"/>
     </g>
     <g id="line2d_10">
      <g>
       <use xlink:href="#mc1d2cc4621" x="163.228916" y="115.2" style="stroke: #000000; stroke-width: 0.8"/>
      </g>
     </g>
     <g id="text_5">
      <text style="font: 8px 'Carlito', sans-serif; text-anchor: middle" x="163.228916" y="127.755" transform="rotate(-0 163.228916 127.755)">8</text>
     </g>
    </g>
    <g id="xtick_6">
     <g id="line2d_11">
      <path d="M 195.036145 115.2 
L 195.036145 7.2 
" clip-path="url(#p39a57d0ac5)" style="fill: none; stroke-dasharray: 0.8,1.32; stroke-dashoffset: 0; stroke: #b0b0b0; stroke-width: 0.8"/>
     </g>
     <g id="line2d_12">
      <g>
       <use xlink:href="#mc1d2cc4621" x="195.036145" y="115.2" style="stroke: #000000; stroke-width: 0.8"/>
      </g>
     </g>
     <g id="text_6">
      <text style="font: 8px 'Carlito', sans-serif; text-anchor: middle" x="195.036145" y="127.755" transform="rotate(-0 195.036145 127.755)">10</text>
     </g>
    </g>
    <g id="xtick_7">
     <g id="line2d_13">
      <path d="M 226.843373 115.2 
L 226.843373 7.2 
" clip-path="url(#p39a57d0ac5)" style="fill: none; stroke-dasharray: 0.8,1.32; stroke-dashoffset: 0; stroke: #b0b0b0; stroke-width: 0.8"/>
     </g>
     <g id="line2d_14">
      <g>
       <use xlink:href="#mc1d2cc4621" x="226.843373" y="115.2" style="stroke: #000000; stroke-width: 0.8"/>
      </g>
     </g>
     <g id="text_7">
      <text style="font: 8px 'Carlito', sans-serif; text-anchor: middle" x="226.843373" y="127.755" transform="rotate(-0 226.843373 127.755)">12</text>
     </g>
    </g>
    <g id="text_8">
     <text style="font: 8px 'Carlito', sans-serif; text-anchor: middle" x="135" y="138.59875" transform="rotate(-0 135 138.59875)">channel width</text>
    </g>
   </g>
   <g id="matplotlib.axis_2">
    <g id="ytick_1">
     <g id="line2d_15">
      <path d="M 36 115.2 
L 234 115.2 
" clip-path="url(#p39a57d0ac5)" style="fill: none; stroke-dasharray: 0.8,1.32; stroke-dashoffset: 0; stroke: #b0b0b0; stroke-width: 0.8"/>
     </g>
     <g id="line2d_16">
      <defs>
       <path id="m0696bff526" d="M 0 0 
L -3.5 0 
" style="stroke: #000000; stroke-width: 0.8"/>
      </defs>
      <g>
       <use xlink:href="#m0696bff526" x="36" y="115.2" style="stroke: #000000; stroke-width: 0.8"/>
      </g>
     </g>
     <g id="text_9">
      <text style="font: 8px 'Carlito', sans-serif; text-anchor: end" x="29" y="117.9775" transform="rotate(-0 29 117.9775)">0.0</text>
     </g>
    </g>
    <g id="ytick_2">
     <g id="line2d_17">
      <path d="M 36 93.6 
L 234 93.6 
" clip-path="url(#p39a57d0ac5)" style="fill: none; stroke-dasharray: 0.8,1.32; stroke-dashoffset: 0; stroke: #b0b0b0; stroke-width: 0.8"/>
     </g>
     <g id="line2d_18">
      <g>
       <use xlink:href="#m0696bff526" x="36" y="93.6" style="stroke: #000000; stroke-width: 0.8"/>
      </g>
     </g>
     <g id="text_10">
      <text style="font: 8px 'Carlito', sans-serif; text-anchor: end" x="29" y="96.3775" transform="rotate(-0 29 96.3775)">0.2</text>
     </g>
    </g>
    <g id="ytick_3">
     <g id="line2d_19">
      <path d="M 36 72 
L 234 72 
" clip-path="url(#p39a57d0ac5)" style="fill: none; stroke-dasharray: 0.8,1.32; stroke-dashoffset: 0; stroke: #b0b0b0; stroke-width: 0.8"/>
     </g>
     <g id="line2d_20">
      <g>
       <use xlink:href="#m0696bff526" x="36" y="72" style="stroke: #000000; stroke-width: 0.8"/>
      </g>
     </g>
     <g id="text_11">
      <text style="font: 8px 'Carlito', sans-serif; text-anchor: end" x="29" y="74.7775" transform="rotate(-0 29 74.7775)">0.4</text>
     </g>
    </g>
    <g id="ytick_4">
     <g id="line2d_21">
      <path d="M 36 50.4 
L 234 50.4 
" clip-path="url(#p39a57d0ac5)" style="fill: none; stroke-dasharray: 0.8,1.32; stroke-dashoffset: 0; stroke: #b0b0b0; stroke-width: 0.8"/>
     </g>
     <g id="line2d_22">
      <g>
       <use xlink:href="#m0696bff526" x="36" y="50.4" style="stroke: #000000; stroke-width: 0.8"/>
      </g>
     </g>
     <g id="text_12">
      <text style="font: 8px 'Carlito', sans-serif; text-anchor: end" x="29" y="53.1775" transform="rotate(-0 29 53.1775)">0.6</text>
     </g>
    </g>
    <g id="ytick_5">
     <g id="line2d_23">
      <path d="M 36 28.8 
L 234 28.8 
" clip-path="url(#p39a57d0ac5)" style="fill: none; stroke-dasharray: 0.8,1.32; stroke-dashoffset: 0; stroke: #b0b0b0; stroke-width: 0.8"/>
     </g>
     <g id="line2d_24">
      <g>
       <use xlink:href="#m0696bff526" x="36" y="28.8" style="stroke: #000000; stroke-width: 0.8"/>
      </g>
     </g>
     <g id="text_13">
      <text style="font: 8px 'Carlito', sans-serif; text-anchor: end" x="29" y="31.5775" transform="rotate(-0 29 31.5775)">0.8</text>
     </g>
    </g>
    <g id="ytick_6">
     <g id="line2d_25">
      <path d="M 36 7.2 
L 234 7.2 
" clip-path="url(#p39a57d0ac5)" style="fill: none; stroke-dasharray: 0.8,1.32; stroke-dashoffset: 0; stroke: #b0b0b0; stroke-width: 0.8"/>
     </g>
     <g id="line2d_26">
      <g>
       <use xlink:href="#m0696bff526" x="36" y="7.2" style="stroke: #000000; stroke-width: 0.8"/>
      </g>
     </g>
     <g id="text_14">
      <text style="font: 8px 'Carlito', sans-serif; text-anchor: end" x="29" y="9.9775" transform="rotate(-0 29 9.9775)">1.0</text>
     </g>
    </g>
    <g id="text_15">
     <text style="font: 8px 'Carlito', sans-serif; text-anchor: middle" x="13.58125" y="61.2" transform="rotate(-90 13.58125 61.2)">max bitrate [bit/h]</text>
    </g>
   </g>
   <g id="line2d_27">
    <path d="M 83.710843 68.694728 
L 99.614458 60.797723 
L 115.518072 58.35049 
L 131.421687 58.675395 
L 147.325301 58.688943 
L 163.228916 60.14057 
L 179.13253 61.060538 
L 195.036145 62.244439 
L 210.939759 62.862289 
L 226.843373 64.826988 
" clip-path="url(#p39a57d0ac5)" style="fill: none; stroke: #1f77b4; stroke-linecap: square"/>
    <defs>
     <path id="m49709fd7dd" d="M 0 3 
C 0.795609 3 1.55874 2.683901 2.12132 2.12132 
C 2.683901 1.55874 3 0.795609 3 0 
C 3 -0.795609 2.683901 -1.55874 2.12132 -2.12132 
C 1.55874 -2.683901 0.795609 -3 0 -3 
C -0.795609 -3 -1.55874 -2.683901 -2.12132 -2.12132 
C -2.683901 -1.55874 -3 -0.795609 -3 0 
C -3 0.795609 -2.683901 1.55874 -2.12132 2.12132 
C -1.55874 2.683901 -0.795609 3 0 3 
z
" style="stroke: #1f77b4"/>
    </defs>
    <g clip-path="url(#p39a57d0ac5)">
     <use xlink:href="#m49709fd7dd" x="83.710843" y="68.694728" style="fill: #1f77b4; stroke: #1f77b4"/>
     <use xlink:href="#m49709fd7dd" x="99.614458" y="60.797723" style="fill: #1f77b4; stroke: #1f77b4"/>
     <use xlink:href="#m49709fd7dd" x="115.518072" y="58.35049" style="fill: #1f77b4; stroke: #1f77b4"/>
     <use xlink:href="#m49709fd7dd" x="131.421687" y="58.675395" style="fill: #1f77b4; stroke: #1f77b4"/>
     <use xlink:href="#m49709fd7dd" x="147.325301" y="58.688943" style="fill: #1f77b4; stroke: #1f77b4"/>
     <use xlink:href="#m49709fd7dd" x="163.228916" y="60.14057" style="fill: #1f77b4; stroke: #1f77b4"/>
     <use xlink:href="#m49709fd7dd" x="179.13253" y="61.060538" style="fill: #1f77b4; stroke: #1f77b4"/>
     <use xlink:href="#m49709fd7dd" x="195.036145" y="62.244439" style="fill: #1f77b4; stroke: #1f77b4"/>
     <use xlink:href="#m49709fd7dd" x="210.939759" y="62.862289" style="fill: #1f77b4; stroke: #1f77b4"/>
     <use xlink:href="#m49709fd7dd" x="226.843373" y="64.826988" style="fill: #1f77b4; stroke: #1f77b4"/>
    </g>
   </g>
   <g id="line2d_28">
    <path d="M 83.710843 105.663506 
L 99.614458 89.168205 
L 115.518072 80.219574 
L 131.421687 79.534261 
L 147.325301 81.485667 
L 163.228916 84.746887 
L 179.13253 88.186453 
L 195.036145 92.133752 
L 210.939759 96.893314 
L 226.843373 102.443379 
" clip-path="url(#p39a57d0ac5)" style="fill: none; stroke: #2ca02c; stroke-linecap: square"/>
    <defs>
     <path id="m4648bf3846" d="M 0 3 
C 0.795609 3 1.55874 2.683901 2.12132 2.12132 
C 2.683901 1.55874 3 0.795609 3 0 
C 3 -0.795609 2.683901 -1.55874 2.12132 -2.12132 
C 1.55874 -2.683901 0.795609 -3 0 -3 
C -0.795609 -3 -1.55874 -2.683901 -2.12132 -2.12132 
C -2.683901 -1.55874 -3 -0.795609 -3 0 
C -3 0.795609 -2.683901 1.55874 -2.12132 2.12132 
C -1.55874 2.683901 -0.795609 3 0 3 
z
" style="stroke: #2ca02c"/>
    </defs>
    <g clip-path="url(#p39a57d0ac5)">
     <use xlink:href="#m4648bf3846" x="83.710843" y="105.663506" style="fill: #2ca02c; stroke: #2ca02c"/>
     <use xlink:href="#m4648bf3846" x="99.614458" y="89.168205" style="fill: #2ca02c; stroke: #2ca02c"/>
     <use xlink:href="#m4648bf3846" x="115.518072" y="80.219574" style="fill: #2ca02c; stroke: #2ca02c"/>
     <use xlink:href="#m4648bf3846" x="131.421687" y="79.534261" style="fill: #2ca02c; stroke: #2ca02c"/>
     <use xlink:href="#m4648bf3846" x="147.325301" y="81.485667" style="fill: #2ca02c; stroke: #2ca02c"/>
     <use xlink:href="#m4648bf3846" x="163.228916" y="84.746887" style="fill: #2ca02c; stroke: #2ca02c"/>
     <use xlink:href="#m4648bf3846" x="179.13253" y="88.186453" style="fill: #2ca02c; stroke: #2ca02c"/>
     <use xlink:href="#m4648bf3846" x="195.036145" y="92.133752" style="fill: #2ca02c; stroke: #2ca02c"/>
     <use xlink:href="#m4648bf3846" x="210.939759" y="96.893314" style="fill: #2ca02c; stroke: #2ca02c"/>
     <use xlink:href="#m4648bf3846" x="226.843373" y="102.443379" style="fill: #2ca02c; stroke: #2ca02c"/>
    </g>
   </g>
   <g id="patch_3">
    <path d="M 36 115.2 
L 36 7.2 
" style="fill: none; stroke: #000000; stroke-width: 0.8; stroke-linejoin: miter; stroke-linecap: square"/>
   </g>
   <g id="patch_4">
    <path d="M 234 115.2 
L 234 7.2 
" style="fill: none; stroke: #000000; stroke-width: 0.8; stroke-linejoin: miter; stroke-linecap: square"/>
   </g>
   <g id="patch_5">
    <path d="M 36 115.2 
L 234 115.2 
" style="fill: none; stroke: #000000; stroke-width: 0.8; stroke-linejoin: miter; stroke-linecap: square"/>
   </g>
   <g id="patch_6">
    <path d="M 36 7.2 
L 234 7.2 
" style="fill: none; stroke: #000000; stroke-width: 0.8; stroke-linejoin: miter; stroke-linecap: square"/>
   </g>
  </g>
  <g id="axes_2">
   <g id="patch_7">
    <path d="M 270 115.2 
L 468 115.2 
L 468 7.2 
L 270 7.2 
z
" style="fill: #ffffff"/>
   </g>
   <g id="matplotlib.axis_3">
    <g id="xtick_8">
     <g id="line2d_29">
      <path d="M 270 115.2 
L 270 7.2 
" clip-path="url(#p84260fb00f)" style="fill: none; stroke-dasharray: 0.8,1.32; stroke-dashoffset: 0; stroke: #b0b0b0; stroke-width: 0.8"/>
     </g>
     <g id="line2d_30">
      <g>
       <use xlink:href="#mc1d2cc4621" x="270" y="115.2" style="stroke: #000000; stroke-width: 0.8"/>
      </g>
     </g>
     <g id="text_16">
      <text style="font: 8px 'Carlito', sans-serif; text-anchor: middle" x="270" y="127.755" transform="rotate(-0 270 127.755)">0</text>
     </g>
    </g>
    <g id="xtick_9">
     <g id="line2d_31">
      <path d="M 301.807229 115.2 
L 301.807229 7.2 
" clip-path="url(#p84260fb00f)" style="fill: none; stroke-dasharray: 0.8,1.32; stroke-dashoffset: 0; stroke: #b0b0b0; stroke-width: 0.8"/>
     </g>
     <g id="line2d_32">
      <g>
       <use xlink:href="#mc1d2cc4621" x="301.807229" y="115.2" style="stroke: #000000; stroke-width: 0.8"/>
      </g>
     </g>
     <g id="text_17">
      <text style="font: 8px 'Carlito', sans-serif; text-anchor: middle" x="301.807229" y="127.755" transform="rotate(-0 301.807229 127.755)">2</text>
     </g>
    </g>
    <g id="xtick_10">
     <g id="line2d_33">
      <path d="M 333.614458 115.2 
L 333.614458 7.2 
" clip-path="url(#p84260fb00f)" style="fill: none; stroke-dasharray: 0.8,1.32; stroke-dashoffset: 0; stroke: #b0b0b0; stroke-width: 0.8"/>
     </g>
     <g id="line2d_34">
      <g>
       <use xlink:href="#mc1d2cc4621" x="333.614458" y="115.2" style="stroke: #000000; stroke-width: 0.8"/>
      </g>
     </g>
     <g id="text_18">
      <text style="font: 8px 'Carlito', sans-serif; text-anchor: middle" x="333.614458" y="127.755" transform="rotate(-0 333.614458 127.755)">4</text>
     </g>
    </g>
    <g id="xtick_11">
     <g id="line2d_35">
      <path d="M 365.421687 115.2 
L 365.421687 7.2 
" clip-path="url(#p84260fb00f)" style="fill: none; stroke-dasharray: 0.8,1.32; stroke-dashoffset: 0; stroke: #b0b0b0; stroke-width: 0.8"/>
     </g>
     <g id="line2d_36">
      <g>
       <use xlink:href="#mc1d2cc4621" x="365.421687" y="115.2" style="stroke: #000000; stroke-width: 0.8"/>
      </g>
     </g>
     <g id="text_19">
      <text style="font: 8px 'Carlito', sans-serif; text-anchor: middle" x="365.421687" y="127.755" transform="rotate(-0 365.421687 127.755)">6</text>
     </g>
    </g>
    <g id="xtick_12">
     <g id="line2d_37">
      <path d="M 397.228916 115.2 
L 397.228916 7.2 
" clip-path="url(#p84260fb00f)" style="fill: none; stroke-dasharray: 0.8,1.32; stroke-dashoffset: 0; stroke: #b0b0b0; stroke-width: 0.8"/>
     </g>
     <g id="line2d_38">
      <g>
       <use xlink:href="#mc1d2cc4621" x="397.228916" y="115.2" style="stroke: #000000; stroke-width: 0.8"/>
      </g>
     </g>
     <g id="text_20">
      <text style="font: 8px 'Carlito', sans-serif; text-anchor: middle" x="397.228916" y="127.755" transform="rotate(-0 397.228916 127.755)">8</text>
     </g>
    </g>
    <g id="xtick_13">
     <g id="line2d_39">
      <path d="M 429.036145 115.2 
L 429.036145 7.2 
" clip-path="url(#p84260fb00f)" style="fill: none; stroke-dasharray: 0.8,1.32; stroke-dashoffset: 0; stroke: #b0b0b0; stroke-width: 0.8"/>
     </g>
     <g id="line2d_40">
      <g>
       <use xlink:href="#mc1d2cc4621" x="429.036145" y="115.2" style="stroke: #000000; stroke-width: 0.8"/>
      </g>
     </g>
     <g id="text_21">
      <text style="font: 8px 'Carlito', sans-serif; text-anchor: middle" x="429.036145" y="127.755" transform="rotate(-0 429.036145 127.755)">10</text>
     </g>
    </g>
    <g id="xtick_14">
     <g id="line2d_41">
      <path d="M 460.843373 115.2 
L 460.843373 7.2 
" clip-path="url(#p84260fb00f)" style="fill: none; stroke-dasharray: 0.8,1.32; stroke-dashoffset: 0; stroke: #b0b0b0; stroke-width: 0.8"/>
     </g>
     <g id="line2d_42">
      <g>
       <use xlink:href="#mc1d2cc4621" x="460.843373" y="115.2" style="stroke: #000000; stroke-width: 0.8"/>
      </g>
     </g>
     <g id="text_22">
      <text style="font: 8px 'Carlito', sans-serif; text-anchor: middle" x="460.843373" y="127.755" transform="rotate(-0 460.843373 127.755)">12</text>
     </g>
    </g>
    <g id="text_23">
     <text style="font: 8px 'Carlito', sans-serif; text-anchor: middle" x="369" y="138.59875" transform="rotate(-0 369 138.59875)">channel width</text>
    </g>
   </g>
   <g id="matplotlib.axis_4">
    <g id="ytick_7">
     <g id="line2d_43">
      <path d="M 270 115.2 
L 468 115.2 
" clip-path="url(#p84260fb00f)" style="fill: none; stroke-dasharray: 0.8,1.32; stroke-dashoffset: 0; stroke: #b0b0b0; stroke-width: 0.8"/>
     </g>
     <g id="line2d_44">
      <g>
       <use xlink:href="#m0696bff526" x="270" y="115.2" style="stroke: #000000; stroke-width: 0.8"/>
      </g>
     </g>
     <g id="text_24">
      <text style="font: 8px 'Carlito', sans-serif; text-anchor: end" x="263" y="117.9775" transform="rotate(-0 263 117.9775)">0</text>
     </g>
    </g>
    <g id="ytick_8">
     <g id="line2d_45">
      <path d="M 270 97.2 
L 468 97.2 
" clip-path="url(#p84260fb00f)" style="fill: none; stroke-dasharray: 0.8,1.32; stroke-dashoffset: 0; stroke: #b0b0b0; stroke-width: 0.8"/>
     </g>
     <g id="line2d_46">
      <g>
       <use xlink:href="#m0696bff526" x="270" y="97.2" style="stroke: #000000; stroke-width: 0.8"/>
      </g>
     </g>
     <g id="text_25">
      <text style="font: 8px 'Carlito', sans-serif; text-anchor: end" x="263" y="99.9775" transform="rotate(-0 263 99.9775)">50</text>
     </g>
    </g>
    <g id="ytick_9">
     <g id="line2d_47">
      <path d="M 270 79.2 
L 468 79.2 
" clip-path="url(#p84260fb00f)" style="fill: none; stroke-dasharray: 0.8,1.32; stroke-dashoffset: 0; stroke: #b0b0b0; stroke-width: 0.8"/>
     </g>
     <g id="line2d_48">
      <g>
       <use xlink:href="#m0696bff526" x="270" y="79.2" style="stroke: #000000; stroke-width: 0.8"/>
      </g>
     </g>
     <g id="text_26">
      <text style="font: 8px 'Carlito', sans-serif; text-anchor: end" x="263" y="81.9775" transform="rotate(-0 263 81.9775)">100</text>
     </g>
    </g>
    <g id="ytick_10">
     <g id="line2d_49">
      <path d="M 270 61.2 
L 468 61.2 
" clip-path="url(#p84260fb00f)" style="fill: none; stroke-dasharray: 0.8,1.32; stroke-dashoffset: 0; stroke: #b0b0b0; stroke-width: 0.8"/>
     </g>
     <g id="line2d_50">
      <g>
       <use xlink:href="#m0696bff526" x="270" y="61.2" style="stroke: #000000; stroke-width: 0.8"/>
      </g>
     </g>
     <g id="text_27">
      <text style="font: 8px 'Carlito', sans-serif; text-anchor: end" x="263" y="63.9775" transform="rotate(-0 263 63.9775)">150</text>
     </g>
    </g>
    <g id="ytick_11">
     <g id="line2d_51">
      <path d="M 270 43.2 
L 468 43.2 
" clip-path="url(#p84260fb00f)" style="fill: none; stroke-dasharray: 0.8,1.32; stroke-dashoffset: 0; stroke: #b0b0b0; stroke-width: 0.8"/>
     </g>
     <g id="line2d_52">
      <g>
       <use xlink:href="#m0696bff526" x="270" y="43.2" style="stroke: #000000; stroke-width: 0.8"/>
      </g>
     </g>
     <g id="text_28">
      <text style="font: 8px 'Carlito', sans-serif; text-anchor: end" x="263" y="45.9775" transform="rotate(-0 263 45.9775)">200</text>
     </g>
    </g>
    <g id="ytick_12">
     <g id="line2d_53">
      <path d="M 270 25.2 
L 468 25.2 
" clip-path="url(#p84260fb00f)" style="fill: none; stroke-dasharray: 0.8,1.32; stroke-dashoffset: 0; stroke: #b0b0b0; stroke-width: 0.8"/>
     </g>
     <g id="line2d_54">
      <g>
       <use xlink:href="#m0696bff526" x="270" y="25.2" style="stroke: #000000; stroke-width: 0.8"/>
      </g>
     </g>
     <g id="text_29">
      <text style="font: 8px 'Carlito', sans-serif; text-anchor: end" x="263" y="27.9775" transform="rotate(-0 263 27.9775)">250</text>
     </g>
    </g>
    <g id="ytick_13">
     <g id="line2d_55">
      <path d="M 270 7.2 
L 468 7.2 
" clip-path="url(#p84260fb00f)" style="fill: none; stroke-dasharray: 0.8,1.32; stroke-dashoffset: 0; stroke: #b0b0b0; stroke-width: 0.8"/>
     </g>
     <g id="line2d_56">
      <g>
       <use xlink:href="#m0696bff526" x="270" y="7.2" style="stroke: #000000; stroke-width: 0.8"/>
      </g>
     </g>
     <g id="text_30">
      <text style="font: 8px 'Carlito', sans-serif; text-anchor: end" x="263" y="9.9775" transform="rotate(-0 263 9.9775)">300</text>
     </g>
    </g>
    <g id="text_31">
     <text style="font: 8px 'Carlito', sans-serif; text-anchor: middle" x="245.54625" y="61.2" transform="rotate(-90 245.54625 61.2)">optimal interval [min]</text>
    </g>
   </g>
   <g id="line2d_57">
    <path d="M 317.710843 97.2 
L 333.614458 97.92 
L 349.518072 98.64 
L 365.421687 79.56 
L 381.325301 78.84 
L 397.228916 78.48 
L 413.13253 76.32 
L 429.036145 75.6 
L 444.939759 75.6 
L 460.843373 73.8 
" clip-path="url(#p84260fb00f)" style="fill: none; stroke: #1f77b4; stroke-linecap: square"/>
    <g clip-path="url(#p84260fb00f)">
     <use xlink:href="#m49709fd7dd" x="317.710843" y="97.2" style="fill: #1f77b4; stroke: #1f77b4"/>
     <use xlink:href="#m49709fd7dd" x="333.614458" y="97.92" style="fill: #1f77b4; stroke: #1f77b4"/>
     <use xlink:href="#m49709fd7dd" x="349.518072" y="98.64" style="fill: #1f77b4; stroke: #1f77b4"/>
     <use xlink:href="#m49709fd7dd" x="365.421687" y="79.56" style="fill: #1f77b4; stroke: #1f77b4"/>
     <use xlink:href="#m49709fd7dd" x="381.325301" y="78.84" style="fill: #1f77b4; stroke: #1f77b4"/>
     <use xlink:href="#m49709fd7dd" x="397.228916" y="78.48" style="fill: #1f77b4; stroke: #1f77b4"/>
     <use xlink:href="#m49709fd7dd" x="413.13253" y="76.32" style="fill: #1f77b4; stroke: #1f77b4"/>
     <use xlink:href="#m49709fd7dd" x="429.036145" y="75.6" style="fill: #1f77b4; stroke: #1f77b4"/>
     <use xlink:href="#m49709fd7dd" x="444.939759" y="75.6" style="fill: #1f77b4; stroke: #1f77b4"/>
     <use xlink:href="#m49709fd7dd" x="460.843373" y="73.8" style="fill: #1f77b4; stroke: #1f77b4"/>
    </g>
   </g>
   <g id="line2d_58">
    <path d="M 317.710843 70.2 
L 333.614458 63.72 
L 349.518072 65.88 
L 365.421687 66.6 
L 381.325301 65.88 
L 397.228916 58.68 
L 413.13253 60.48 
L 429.036145 55.8 
L 444.939759 50.04 
L 460.843373 42.84 
" clip-path="url(#p84260fb00f)" style="fill: none; stroke: #2ca02c; stroke-linecap: square"/>
    <g clip-path="url(#p84260fb00f)">
     <use xlink:href="#m4648bf3846" x="317.710843" y="70.2" style="fill: #2ca02c; stroke: #2ca02c"/>
     <use xlink:href="#m4648bf3846" x="333.614458" y="63.72" style="fill: #2ca02c; stroke: #2ca02c"/>
     <use xlink:href="#m4648bf3846" x="349.518072" y="65.88" style="fill: #2ca02c; stroke: #2ca02c"/>
     <use xlink:href="#m4648bf3846" x="365.421687" y="66.6" style="fill: #2ca02c; stroke: #2ca02c"/>
     <use xlink:href="#m4648bf3846" x="381.325301" y="65.88" style="fill: #2ca02c; stroke: #2ca02c"/>
     <use xlink:href="#m4648bf3846" x="397.228916" y="58.68" style="fill: #2ca02c; stroke: #2ca02c"/>
     <use xlink:href="#m4648bf3846" x="413.13253" y="60.48" style="fill: #2ca02c; stroke: #2ca02c"/>
     <use xlink:href="#m4648bf3846" x="429.036145" y="55.8" style="fill: #2ca02c; stroke: #2ca02c"/>
     <use xlink:href="#m4648bf3846" x="444.939759" y="50.04" style="fill: #2ca02c; stroke: #2ca02c"/>
     <use xlink:href="#m4648bf3846" x="460.843373" y="42.84" style="fill: #2ca02c; stroke: #2ca02c"/>
    </g>
   </g>
   <g id="patch_8">
    <path d="M 270 115.2 
L 270 7.2 
" style="fill: none; stroke: #000000; stroke-width: 0.8; stroke-linejoin: miter; stroke-linecap: square"/>
   </g>
   <g id="patch_9">
    <path d="M 468 115.2 
L 468 7.2 
" style="fill: none; stroke: #000000; stroke-width: 0.8; stroke-linejoin: miter; stroke-linecap: square"/>
   </g>
   <g id="patch_10">
    <path d="M 270 115.2 
L 468 115.2 
" style="fill: none; stroke: #000000; stroke-width: 0.8; stroke-linejoin: miter; stroke-linecap: square"/>
   </g>
   <g id="patch_11">
    <path d="M 270 7.2 
L 468 7.2 
" style="fill: none; stroke: #000000; stroke-width: 0.8; stroke-linejoin: miter; stroke-linecap: square"/>
   </g>
   <g id="legend_1">
    <g id="patch_12">
     <path d="M 275.6 46.3075 
L 326.92125 46.3075 
Q 328.52125 46.3075 328.52125 44.7075 
L 328.52125 12.8 
Q 328.52125 11.2 326.92125 11.2 
L 275.6 11.2 
Q 274 11.2 274 12.8 
L 274 44.7075 
Q 274 46.3075 275.6 46.3075 
z
" style="fill: #ffffff; opacity: 0.8; stroke: #cccccc; stroke-linejoin: miter"/>
    </g>
    <g id="text_32">
     <text style="font: 8px 'Carlito', sans-serif; text-anchor: start" x="277.2" y="19.955" transform="rotate(-0 277.2 19.955)">channel length</text>
    </g>
    <g id="line2d_59">
     <path d="M 283.978125 28.13 
L 291.978125 28.13 
L 299.978125 28.13 
" style="fill: none; stroke: #1f77b4; stroke-linecap: square"/>
     <g>
      <use xlink:href="#m49709fd7dd" x="291.978125" y="28.13" style="fill: #1f77b4; stroke: #1f77b4"/>
     </g>
    </g>
    <g id="text_33">
     <text style="font: 8px 'Carlito', sans-serif; text-anchor: start" x="306.378125" y="30.93" transform="rotate(-0 306.378125 30.93)">30</text>
    </g>
    <g id="line2d_60">
     <path d="M 283.978125 39.01875 
L 291.978125 39.01875 
L 299.978125 39.01875 
" style="fill: none; stroke: #2ca02c; stroke-linecap: square"/>
     <g>
      <use xlink:href="#m4648bf3846" x="291.978125" y="39.01875" style="fill: #2ca02c; stroke: #2ca02c"/>
     </g>
    </g>
    <g id="text_34">
     <text style="font: 8px 'Carlito', sans-serif; text-anchor: start" x="306.378125" y="41.81875" transform="rotate(-0 306.378125 41.81875)">300</text>
    </g>
   </g>
  </g>
 </g>
 <defs>
  <clipPath id="p39a57d0ac5">
   <rect x="36" y="7.2" width="198" height="108"/>
  </clipPath>
  <clipPath id="p84260fb00f">
   <rect x="270" y="7.2" width="198" height="108"/>
  </clipPath>
 </defs>
</svg>
