<?xml version="1.0" encoding="utf-8" standalone="no"?>
<!DOCTYPE svg PUBLIC "-//W3C//DTD SVG 1.1//EN"
  "http://www.w3.org/Graphics/SVG/1.1/DTD/svg11.dtd">
<svg xmlns:xlink="http://www.w3.org/1999/xlink" width="321.12pt" height="151.2pt" viewBox="0 0 321.12 151.2" xmlns="http://www.w3.org/2000/svg" version="1.1">
 <metadata>
  <rdf:RDF xmlns:dc="http://purl.org/dc/elements/1.1/" xmlns:cc="http://creativecommons.org/ns#" xmlns:rdf="http://www.w3.org/1999/02/22-rdf-syntax-ns#">
   <cc:Work>
    <dc:type rdf:resource="http://purl.org/dc/dcmitype/StillImage"/>
    <dc:date>2024-09-18T11:52:57.418976</dc:date>
    <dc:format>image/svg+xml</dc:format>
    <dc:creator>
     <cc:Agent>
      <dc:title>Matplotlib v3.7.1, https://matplotlib.org/</dc:title>
     </cc:Agent>
    </dc:creator>
   </cc:Work>
  </rdf:RDF>
 </metadata>
 <defs>
  <style type="text/css">*{stroke-linejoin: round; stroke-linecap: butt}</style>
 </defs>
 <g id="figure_1">
  <g id="patch_1">
   <path d="M 0 151.2 
L 321.12 151.2 
L 321.12 0 
L 0 0 
z
" style="fill: #ffffff"/>
  </g>
  <g id="axes_1">
   <g id="patch_2">
    <path d="M 36 115.2 
L 156.96 115.2 
L 156.96 7.2 
L 36 7.2 
z
" style="fill: #ffffff"/>
   </g>
   <g id="matplotlib.axis_1">
    <g id="xtick_1">
     <g id="line2d_1">
      <path d="M 41.498182 115.2 
L 41.498182 7.2 
" clip-path="url(#pfec68c4c76)" style="fill: none; stroke-dasharray: 0.8,1.32; stroke-dashoffset: 0; stroke: #b0b0b0; stroke-width: 0.8"/>
     </g>
     <g id="line2d_2">
      <defs>
       <path id="m4ff37f22ce" d="M 0 0 
L 0 3.5 
" style="stroke: #000000; stroke-width: 0.8"/>
      </defs>
      <g>
       <use xlink:href="#m4ff37f22ce" x="41.498182" y="115.2" style="stroke: #000000; stroke-width: 0.8"/>
      </g>
     </g>
     <g id="text_1">
      <!-- $\sqrt{1}$ -->
      <g transform="translate(35.258182 129.07125) scale(0.08 -0.08)">
       <defs>
        <path id="Cmex10-70" d="M 2713 -7425 
L 1269 -4063 
L 819 -4409 
L 703 -4294 
L 1619 -3584 
L 2969 -6725 
L 6291 197 
Q 6322 256 6400 256 
Q 6453 256 6490 218 
Q 6528 181 6528 128 
Q 6528 97 6522 84 
L 2950 -7366 
Q 2925 -7425 2853 -7425 
L 2713 -7425 
z
" transform="scale(0.015625)"/>
        <path id="Carlito-31" d="M 797 400 
L 1650 400 
L 1650 3172 
Q 1650 3294 1659 3425 
L 963 2813 
Q 888 2750 817 2770 
Q 747 2791 719 2831 
L 553 3059 
L 1750 4119 
L 2175 4119 
L 2175 400 
L 2956 400 
L 2956 0 
L 797 0 
L 797 400 
z
" transform="scale(0.015625)"/>
       </defs>
       <use xlink:href="#Cmex10-70" transform="translate(0 92.8125) scale(0.796641)"/>
       <use xlink:href="#Carlito-31" transform="translate(92.15625 0.390625)"/>
       <path d="M 79.65625 89.5 
L 79.65625 95.75 
L 155.339844 95.75 
L 155.339844 89.5 
L 79.65625 89.5 
z
"/>
      </g>
     </g>
    </g>
    <g id="xtick_2">
     <g id="line2d_3">
      <path d="M 57.575496 115.2 
L 57.575496 7.2 
" clip-path="url(#pfec68c4c76)" style="fill: none; stroke-dasharray: 0.8,1.32; stroke-dashoffset: 0; stroke: #b0b0b0; stroke-width: 0.8"/>
     </g>
     <g id="line2d_4">
      <g>
       <use xlink:href="#m4ff37f22ce" x="57.575496" y="115.2" style="stroke: #000000; stroke-width: 0.8"/>
      </g>
     </g>
     <g id="text_2">
      <!-- $\sqrt{30}$ -->
      <g transform="translate(49.255496 129.23125) scale(0.08 -0.08)">
       <defs>
        <path id="Carlito-33" d="M 297 0 
L 297 0 
z
M 1734 4153 
Q 1994 4153 2209 4078 
Q 2425 4003 2581 3865 
Q 2738 3728 2823 3534 
Q 2909 3341 2909 3103 
Q 2909 2906 2861 2753 
Q 2813 2600 2722 2484 
Q 2631 2369 2503 2289 
Q 2375 2209 2216 2159 
Q 2606 2053 2803 1804 
Q 3000 1556 3000 1181 
Q 3000 897 2894 670 
Q 2788 444 2605 284 
Q 2422 125 2178 40 
Q 1934 -44 1659 -44 
Q 1341 -44 1116 36 
Q 891 116 731 259 
Q 572 403 469 597 
Q 366 791 297 1022 
L 522 1119 
Q 613 1156 695 1140 
Q 778 1125 816 1047 
Q 853 966 908 855 
Q 963 744 1056 642 
Q 1150 541 1294 470 
Q 1438 400 1653 400 
Q 1859 400 2012 470 
Q 2166 541 2269 650 
Q 2372 759 2423 896 
Q 2475 1034 2475 1166 
Q 2475 1328 2434 1467 
Q 2394 1606 2281 1704 
Q 2169 1803 1970 1859 
Q 1772 1916 1459 1916 
L 1459 2294 
Q 1716 2297 1894 2351 
Q 2072 2406 2184 2500 
Q 2297 2594 2347 2725 
Q 2397 2856 2397 3013 
Q 2397 3188 2345 3317 
Q 2294 3447 2201 3534 
Q 2109 3622 1982 3664 
Q 1856 3706 1706 3706 
Q 1556 3706 1432 3661 
Q 1309 3616 1212 3536 
Q 1116 3456 1048 3345 
Q 981 3234 947 3103 
Q 922 2997 861 2964 
Q 800 2931 691 2947 
L 416 2991 
Q 456 3275 568 3492 
Q 681 3709 854 3856 
Q 1028 4003 1251 4078 
Q 1475 4153 1734 4153 
z
" transform="scale(0.015625)"/>
        <path id="Carlito-30" d="M 3078 2053 
Q 3078 1516 2965 1120 
Q 2853 725 2656 467 
Q 2459 209 2192 82 
Q 1925 -44 1619 -44 
Q 1313 -44 1047 82 
Q 781 209 586 467 
Q 391 725 278 1120 
Q 166 1516 166 2053 
Q 166 2591 278 2986 
Q 391 3381 586 3640 
Q 781 3900 1047 4026 
Q 1313 4153 1619 4153 
Q 1925 4153 2192 4026 
Q 2459 3900 2656 3640 
Q 2853 3381 2965 2986 
Q 3078 2591 3078 2053 
z
M 2534 2053 
Q 2534 2522 2459 2839 
Q 2384 3156 2257 3350 
Q 2131 3544 1965 3628 
Q 1800 3713 1619 3713 
Q 1438 3713 1273 3628 
Q 1109 3544 982 3350 
Q 856 3156 781 2839 
Q 706 2522 706 2053 
Q 706 1584 781 1267 
Q 856 950 982 756 
Q 1109 563 1273 480 
Q 1438 397 1619 397 
Q 1800 397 1965 480 
Q 2131 563 2257 756 
Q 2384 950 2459 1267 
Q 2534 1584 2534 2053 
z
" transform="scale(0.015625)"/>
       </defs>
       <use xlink:href="#Cmex10-70" transform="translate(0 93.765625) scale(0.806796)"/>
       <use xlink:href="#Carlito-33" transform="translate(93.171875 0.859375)"/>
       <use xlink:href="#Carlito-30" transform="translate(143.855469 0.859375)"/>
       <path d="M 80.671875 90.5 
L 80.671875 96.75 
L 207.039062 96.75 
L 207.039062 90.5 
L 80.671875 90.5 
z
"/>
      </g>
     </g>
    </g>
    <g id="xtick_3">
     <g id="line2d_5">
      <path d="M 73.816372 115.2 
L 73.816372 7.2 
" clip-path="url(#pfec68c4c76)" style="fill: none; stroke-dasharray: 0.8,1.32; stroke-dashoffset: 0; stroke: #b0b0b0; stroke-width: 0.8"/>
     </g>
     <g id="line2d_6">
      <g>
       <use xlink:href="#m4ff37f22ce" x="73.816372" y="115.2" style="stroke: #000000; stroke-width: 0.8"/>
      </g>
     </g>
     <g id="text_3">
      <!-- $\sqrt{100}$ -->
      <g transform="translate(63.496372 129.23125) scale(0.08 -0.08)">
       <use xlink:href="#Cmex10-70" transform="translate(0 93.765625) scale(0.806796)"/>
       <use xlink:href="#Carlito-31" transform="translate(93.171875 0.859375)"/>
       <use xlink:href="#Carlito-30" transform="translate(143.855469 0.859375)"/>
       <use xlink:href="#Carlito-30" transform="translate(194.539062 0.859375)"/>
       <path d="M 80.671875 90.5 
L 80.671875 96.75 
L 257.722656 96.75 
L 257.722656 90.5 
L 80.671875 90.5 
z
"/>
      </g>
     </g>
    </g>
    <g id="xtick_4">
     <g id="line2d_7">
      <path d="M 100.103658 115.2 
L 100.103658 7.2 
" clip-path="url(#pfec68c4c76)" style="fill: none; stroke-dasharray: 0.8,1.32; stroke-dashoffset: 0; stroke: #b0b0b0; stroke-width: 0.8"/>
     </g>
     <g id="line2d_8">
      <g>
       <use xlink:href="#m4ff37f22ce" x="100.103658" y="115.2" style="stroke: #000000; stroke-width: 0.8"/>
      </g>
     </g>
     <g id="text_4">
      <!-- $\sqrt{300}$ -->
      <g transform="translate(89.783658 129.23125) scale(0.08 -0.08)">
       <use xlink:href="#Cmex10-70" transform="translate(0 93.765625) scale(0.806796)"/>
       <use xlink:href="#Carlito-33" transform="translate(93.171875 0.859375)"/>
       <use xlink:href="#Carlito-30" transform="translate(143.855469 0.859375)"/>
       <use xlink:href="#Carlito-30" transform="translate(194.539062 0.859375)"/>
       <path d="M 80.671875 90.5 
L 80.671875 96.75 
L 257.722656 96.75 
L 257.722656 90.5 
L 80.671875 90.5 
z
"/>
      </g>
     </g>
    </g>
    <g id="xtick_5">
     <g id="line2d_9">
      <path d="M 151.461818 115.2 
L 151.461818 7.2 
" clip-path="url(#pfec68c4c76)" style="fill: none; stroke-dasharray: 0.8,1.32; stroke-dashoffset: 0; stroke: #b0b0b0; stroke-width: 0.8"/>
     </g>
     <g id="line2d_10">
      <g>
       <use xlink:href="#m4ff37f22ce" x="151.461818" y="115.2" style="stroke: #000000; stroke-width: 0.8"/>
      </g>
     </g>
     <g id="text_5">
      <!-- $\sqrt{1000}$ -->
      <g transform="translate(139.101818 129.23125) scale(0.08 -0.08)">
       <use xlink:href="#Cmex10-70" transform="translate(0 93.765625) scale(0.806796)"/>
       <use xlink:href="#Carlito-31" transform="translate(93.171875 0.859375)"/>
       <use xlink:href="#Carlito-30" transform="translate(143.855469 0.859375)"/>
       <use xlink:href="#Carlito-30" transform="translate(194.539062 0.859375)"/>
       <use xlink:href="#Carlito-30" transform="translate(245.222656 0.859375)"/>
       <path d="M 80.671875 90.5 
L 80.671875 96.75 
L 308.40625 96.75 
L 308.40625 90.5 
L 80.671875 90.5 
z
"/>
      </g>
     </g>
    </g>
    <g id="text_6">
     <!-- $\sqrt{\mathrm{channel~length}~L}$ -->
     <g transform="translate(64.6 143.08) scale(0.08 -0.08)">
      <defs>
       <path id="Carlito-63" d="M 2403 2506 
Q 2378 2472 2354 2455 
Q 2331 2438 2288 2438 
Q 2241 2438 2191 2475 
Q 2141 2513 2066 2558 
Q 1991 2603 1883 2640 
Q 1775 2678 1619 2678 
Q 1413 2678 1255 2598 
Q 1097 2519 992 2370 
Q 888 2222 833 2009 
Q 778 1797 778 1531 
Q 778 1256 836 1042 
Q 894 828 1000 681 
Q 1106 534 1256 457 
Q 1406 381 1594 381 
Q 1775 381 1890 428 
Q 2006 475 2084 531 
Q 2163 588 2214 634 
Q 2266 681 2322 681 
Q 2384 681 2422 628 
L 2581 428 
Q 2481 306 2359 217 
Q 2238 128 2097 70 
Q 1956 13 1804 -15 
Q 1653 -44 1497 -44 
Q 1228 -44 993 62 
Q 759 169 586 370 
Q 413 572 314 864 
Q 216 1156 216 1531 
Q 216 1872 306 2161 
Q 397 2450 570 2659 
Q 744 2869 998 2986 
Q 1253 3103 1584 3103 
Q 1897 3103 2131 2998 
Q 2366 2894 2547 2706 
L 2403 2506 
z
" transform="scale(0.015625)"/>
       <path id="Carlito-68" d="M 447 0 
L 447 4444 
L 997 4444 
L 997 2653 
Q 1188 2859 1420 2981 
Q 1653 3103 1959 3103 
Q 2209 3103 2398 3020 
Q 2588 2938 2716 2786 
Q 2844 2634 2908 2420 
Q 2972 2206 2972 1947 
L 2972 0 
L 2422 0 
L 2422 1947 
Q 2422 2288 2269 2478 
Q 2116 2669 1800 2669 
Q 1566 2669 1366 2556 
Q 1166 2444 997 2247 
L 997 0 
L 447 0 
z
" transform="scale(0.015625)"/>
       <path id="Carlito-61" d="M 2428 0 
Q 2347 0 2303 25 
Q 2259 50 2244 128 
L 2175 413 
Q 2056 303 1942 217 
Q 1828 131 1703 72 
Q 1578 13 1434 -17 
Q 1291 -47 1119 -47 
Q 941 -47 786 1 
Q 631 50 514 151 
Q 397 253 330 404 
Q 263 556 263 763 
Q 263 944 361 1111 
Q 459 1278 681 1409 
Q 903 1541 1259 1623 
Q 1616 1706 2134 1719 
L 2134 1953 
Q 2134 2309 1982 2489 
Q 1831 2669 1541 2669 
Q 1347 2669 1214 2619 
Q 1081 2569 984 2509 
Q 888 2450 817 2400 
Q 747 2350 675 2350 
Q 619 2350 578 2378 
Q 538 2406 513 2450 
L 413 2625 
Q 666 2869 958 2989 
Q 1250 3109 1606 3109 
Q 1863 3109 2063 3026 
Q 2263 2944 2397 2791 
Q 2531 2638 2601 2425 
Q 2672 2213 2672 1953 
L 2672 0 
L 2428 0 
z
M 1284 338 
Q 1422 338 1537 366 
Q 1653 394 1756 445 
Q 1859 497 1951 573 
Q 2044 650 2134 744 
L 2134 1375 
Q 1769 1359 1512 1314 
Q 1256 1269 1095 1194 
Q 934 1119 862 1017 
Q 791 916 791 791 
Q 791 672 830 586 
Q 869 500 934 445 
Q 1000 391 1090 364 
Q 1181 338 1284 338 
z
" transform="scale(0.015625)"/>
       <path id="Carlito-6e" d="M 438 0 
L 438 3056 
L 766 3056 
Q 825 3056 862 3029 
Q 900 3003 906 2944 
L 953 2619 
Q 1150 2838 1394 2970 
Q 1638 3103 1956 3103 
Q 2206 3103 2395 3020 
Q 2584 2938 2712 2786 
Q 2841 2634 2906 2420 
Q 2972 2206 2972 1947 
L 2972 0 
L 2422 0 
L 2422 1947 
Q 2422 2288 2267 2478 
Q 2113 2669 1797 2669 
Q 1563 2669 1359 2558 
Q 1156 2447 988 2250 
L 988 0 
L 438 0 
z
" transform="scale(0.015625)"/>
       <path id="Carlito-65" d="M 1672 3103 
Q 1947 3103 2181 3012 
Q 2416 2922 2587 2747 
Q 2759 2572 2856 2319 
Q 2953 2066 2953 1738 
Q 2953 1609 2925 1567 
Q 2897 1525 2822 1525 
L 778 1525 
Q 784 1238 856 1023 
Q 928 809 1054 668 
Q 1181 528 1356 458 
Q 1531 388 1747 388 
Q 1947 388 2094 433 
Q 2241 478 2345 534 
Q 2450 591 2522 636 
Q 2594 681 2647 681 
Q 2681 681 2706 667 
Q 2731 653 2750 628 
L 2906 428 
Q 2803 306 2664 217 
Q 2525 128 2365 70 
Q 2206 13 2036 -15 
Q 1866 -44 1700 -44 
Q 1381 -44 1112 62 
Q 844 169 648 376 
Q 453 584 343 889 
Q 234 1194 234 1591 
Q 234 1909 332 2186 
Q 431 2463 617 2667 
Q 803 2872 1070 2987 
Q 1338 3103 1672 3103 
z
M 1681 2703 
Q 1297 2703 1073 2478 
Q 850 2253 794 1863 
L 2459 1863 
Q 2459 2047 2406 2201 
Q 2353 2356 2253 2467 
Q 2153 2578 2008 2640 
Q 1863 2703 1681 2703 
z
" transform="scale(0.015625)"/>
       <path id="Carlito-6c" d="M 1009 4444 
L 1009 0 
L 459 0 
L 459 4444 
L 1009 4444 
z
" transform="scale(0.015625)"/>
       <path id="Carlito-67" d="M 1444 3106 
Q 1634 3106 1800 3062 
Q 1966 3019 2100 2938 
L 2900 2938 
L 2900 2734 
Q 2900 2625 2775 2606 
L 2450 2559 
Q 2547 2359 2547 2122 
Q 2547 1897 2464 1715 
Q 2381 1534 2234 1406 
Q 2088 1278 1886 1208 
Q 1684 1138 1444 1138 
Q 1244 1138 1075 1184 
Q 984 1125 940 1058 
Q 897 991 897 925 
Q 897 816 981 762 
Q 1066 709 1203 684 
Q 1341 659 1516 653 
Q 1691 647 1873 633 
Q 2056 619 2231 587 
Q 2406 556 2543 479 
Q 2681 403 2765 270 
Q 2850 138 2850 -75 
Q 2850 -272 2756 -456 
Q 2663 -641 2486 -784 
Q 2309 -928 2054 -1014 
Q 1800 -1100 1478 -1100 
Q 1156 -1100 915 -1034 
Q 675 -969 515 -856 
Q 356 -744 278 -597 
Q 200 -450 200 -291 
Q 200 -66 333 90 
Q 466 247 700 338 
Q 572 397 497 500 
Q 422 603 422 775 
Q 422 906 515 1053 
Q 609 1200 797 1297 
Q 581 1425 457 1634 
Q 334 1844 334 2122 
Q 334 2347 417 2528 
Q 500 2709 647 2839 
Q 794 2969 997 3037 
Q 1200 3106 1444 3106 
z
M 2344 -166 
Q 2344 -56 2286 12 
Q 2228 81 2128 120 
Q 2028 159 1897 176 
Q 1766 194 1619 203 
Q 1472 213 1320 219 
Q 1169 225 1028 247 
Q 875 166 778 51 
Q 681 -63 681 -222 
Q 681 -325 728 -412 
Q 775 -500 873 -564 
Q 972 -628 1125 -665 
Q 1278 -703 1488 -703 
Q 1694 -703 1853 -662 
Q 2013 -622 2122 -551 
Q 2231 -481 2287 -382 
Q 2344 -284 2344 -166 
z
M 1444 1500 
Q 1747 1500 1901 1669 
Q 2056 1838 2056 2109 
Q 2056 2388 1901 2552 
Q 1747 2716 1444 2716 
Q 1147 2716 992 2552 
Q 838 2388 838 2109 
Q 838 1975 877 1864 
Q 916 1753 992 1672 
Q 1069 1591 1183 1545 
Q 1297 1500 1444 1500 
z
" transform="scale(0.015625)"/>
       <path id="Carlito-74" d="M 1303 -47 
Q 950 -47 759 156 
Q 569 359 569 738 
L 569 2600 
L 219 2600 
Q 172 2600 139 2631 
Q 106 2663 106 2722 
L 106 2941 
L 588 3003 
L 716 3944 
Q 722 3991 755 4019 
Q 788 4047 838 4047 
L 1119 4047 
L 1119 3000 
L 1959 3000 
L 1959 2600 
L 1119 2600 
L 1119 775 
Q 1119 588 1205 494 
Q 1291 400 1428 400 
Q 1509 400 1567 422 
Q 1625 444 1665 472 
Q 1706 500 1736 522 
Q 1766 544 1791 544 
Q 1819 544 1836 531 
Q 1853 519 1869 491 
L 2031 228 
Q 1891 97 1700 25 
Q 1509 -47 1303 -47 
z
" transform="scale(0.015625)"/>
       <path id="Carlito-Italic-4c" d="M 878 463 
L 2475 463 
L 2419 0 
L 269 0 
L 775 4106 
L 1325 4106 
L 878 463 
z
" transform="scale(0.015625)"/>
      </defs>
      <use xlink:href="#Cmex10-70" transform="translate(0 97.0625) scale(0.982164)"/>
      <use xlink:href="#Carlito-63" transform="translate(110.703125 0.3125)"/>
      <use xlink:href="#Carlito-68" transform="translate(152.988281 0.3125)"/>
      <use xlink:href="#Carlito-61" transform="translate(205.527344 0.3125)"/>
      <use xlink:href="#Carlito-6e" transform="translate(253.427734 0.3125)"/>
      <use xlink:href="#Carlito-6e" transform="translate(305.966797 0.3125)"/>
      <use xlink:href="#Carlito-65" transform="translate(358.505859 0.3125)"/>
      <use xlink:href="#Carlito-6c" transform="translate(408.261719 0.3125)"/>
      <use xlink:href="#Carlito-6c" transform="translate(457.577861 0.3125)"/>
      <use xlink:href="#Carlito-65" transform="translate(480.52708 0.3125)"/>
      <use xlink:href="#Carlito-6e" transform="translate(530.282939 0.3125)"/>
      <use xlink:href="#Carlito-67" transform="translate(582.822002 0.3125)"/>
      <use xlink:href="#Carlito-74" transform="translate(629.892314 0.3125)"/>
      <use xlink:href="#Carlito-68" transform="translate(663.388408 0.3125)"/>
      <use xlink:href="#Carlito-Italic-4c" transform="translate(742.294395 0.3125)"/>
      <path d="M 98.203125 94.5 
L 98.203125 100.75 
L 796.83541 100.75 
L 796.83541 94.5 
L 98.203125 94.5 
z
"/>
     </g>
    </g>
   </g>
   <g id="matplotlib.axis_2">
    <g id="ytick_1">
     <g id="line2d_11">
      <path d="M 36 115.2 
L 156.96 115.2 
" clip-path="url(#pfec68c4c76)" style="fill: none; stroke-dasharray: 0.8,1.32; stroke-dashoffset: 0; stroke: #b0b0b0; stroke-width: 0.8"/>
     </g>
     <g id="line2d_12">
      <defs>
       <path id="ma847ea4748" d="M 0 0 
L -3.5 0 
" style="stroke: #000000; stroke-width: 0.8"/>
      </defs>
      <g>
       <use xlink:href="#ma847ea4748" x="36" y="115.2" style="stroke: #000000; stroke-width: 0.8"/>
      </g>
     </g>
     <g id="text_7">
      <!-- 0.0 -->
      <g transform="translate(18.87 117.9775) scale(0.08 -0.08)">
       <defs>
        <path id="Carlito-2e" d="M 419 0 
L 419 0 
z
M 1191 334 
Q 1191 256 1159 186 
Q 1128 116 1073 64 
Q 1019 13 948 -18 
Q 878 -50 800 -50 
Q 722 -50 653 -18 
Q 584 13 532 64 
Q 481 116 450 186 
Q 419 256 419 334 
Q 419 416 450 486 
Q 481 556 532 609 
Q 584 663 653 694 
Q 722 725 800 725 
Q 878 725 948 694 
Q 1019 663 1073 609 
Q 1128 556 1159 486 
Q 1191 416 1191 334 
z
" transform="scale(0.015625)"/>
       </defs>
       <use xlink:href="#Carlito-30"/>
       <use xlink:href="#Carlito-2e" x="50.683594"/>
       <use xlink:href="#Carlito-30" x="75.927734"/>
      </g>
     </g>
    </g>
    <g id="ytick_2">
     <g id="line2d_13">
      <path d="M 36 93.6 
L 156.96 93.6 
" clip-path="url(#pfec68c4c76)" style="fill: none; stroke-dasharray: 0.8,1.32; stroke-dashoffset: 0; stroke: #b0b0b0; stroke-width: 0.8"/>
     </g>
     <g id="line2d_14">
      <g>
       <use xlink:href="#ma847ea4748" x="36" y="93.6" style="stroke: #000000; stroke-width: 0.8"/>
      </g>
     </g>
     <g id="text_8">
      <!-- 0.2 -->
      <g transform="translate(18.87 96.3775) scale(0.08 -0.08)">
       <defs>
        <path id="Carlito-32" d="M 288 0 
L 288 0 
z
M 1684 4153 
Q 1944 4153 2166 4075 
Q 2388 3997 2550 3850 
Q 2713 3703 2805 3490 
Q 2897 3278 2897 3006 
Q 2897 2778 2830 2583 
Q 2763 2388 2648 2209 
Q 2534 2031 2384 1861 
Q 2234 1691 2069 1519 
L 1016 422 
Q 1134 456 1254 475 
Q 1375 494 1484 494 
L 2788 494 
Q 2872 494 2922 445 
Q 2972 397 2972 316 
L 2972 0 
L 288 0 
L 288 178 
Q 288 231 309 292 
Q 331 353 384 403 
L 1656 1716 
Q 1819 1881 1948 2034 
Q 2078 2188 2168 2342 
Q 2259 2497 2309 2656 
Q 2359 2816 2359 2994 
Q 2359 3172 2304 3306 
Q 2250 3441 2156 3530 
Q 2063 3619 1934 3662 
Q 1806 3706 1656 3706 
Q 1509 3706 1384 3661 
Q 1259 3616 1162 3536 
Q 1066 3456 997 3345 
Q 928 3234 897 3103 
Q 872 2997 811 2964 
Q 750 2931 641 2947 
L 369 2991 
Q 406 3275 520 3492 
Q 634 3709 806 3856 
Q 978 4003 1201 4078 
Q 1425 4153 1684 4153 
z
" transform="scale(0.015625)"/>
       </defs>
       <use xlink:href="#Carlito-30"/>
       <use xlink:href="#Carlito-2e" x="50.683594"/>
       <use xlink:href="#Carlito-32" x="75.927734"/>
      </g>
     </g>
    </g>
    <g id="ytick_3">
     <g id="line2d_15">
      <path d="M 36 72 
L 156.96 72 
" clip-path="url(#pfec68c4c76)" style="fill: none; stroke-dasharray: 0.8,1.32; stroke-dashoffset: 0; stroke: #b0b0b0; stroke-width: 0.8"/>
     </g>
     <g id="line2d_16">
      <g>
       <use xlink:href="#ma847ea4748" x="36" y="72" style="stroke: #000000; stroke-width: 0.8"/>
      </g>
     </g>
     <g id="text_9">
      <!-- 0.4 -->
      <g transform="translate(18.87 74.7775) scale(0.08 -0.08)">
       <defs>
        <path id="Carlito-34" d="M 109 0 
L 109 0 
z
M 2544 1484 
L 3138 1484 
L 3138 1188 
Q 3138 1141 3108 1108 
Q 3078 1075 3022 1075 
L 2544 1075 
L 2544 0 
L 2084 0 
L 2084 1075 
L 319 1075 
Q 256 1075 215 1108 
Q 175 1141 163 1194 
L 109 1456 
L 2053 4109 
L 2544 4109 
L 2544 1484 
z
M 2084 3159 
Q 2084 3309 2103 3488 
L 669 1484 
L 2084 1484 
L 2084 3159 
z
" transform="scale(0.015625)"/>
       </defs>
       <use xlink:href="#Carlito-30"/>
       <use xlink:href="#Carlito-2e" x="50.683594"/>
       <use xlink:href="#Carlito-34" x="75.927734"/>
      </g>
     </g>
    </g>
    <g id="ytick_4">
     <g id="line2d_17">
      <path d="M 36 50.4 
L 156.96 50.4 
" clip-path="url(#pfec68c4c76)" style="fill: none; stroke-dasharray: 0.8,1.32; stroke-dashoffset: 0; stroke: #b0b0b0; stroke-width: 0.8"/>
     </g>
     <g id="line2d_18">
      <g>
       <use xlink:href="#ma847ea4748" x="36" y="50.4" style="stroke: #000000; stroke-width: 0.8"/>
      </g>
     </g>
     <g id="text_10">
      <!-- 0.6 -->
      <g transform="translate(18.87 53.1775) scale(0.08 -0.08)">
       <defs>
        <path id="Carlito-36" d="M 1366 2706 
Q 1319 2641 1273 2580 
Q 1228 2519 1188 2459 
Q 1322 2550 1484 2600 
Q 1647 2650 1834 2650 
Q 2072 2650 2287 2565 
Q 2503 2481 2667 2317 
Q 2831 2153 2926 1912 
Q 3022 1672 3022 1363 
Q 3022 1066 2920 808 
Q 2819 550 2636 359 
Q 2453 169 2198 61 
Q 1944 -47 1634 -47 
Q 1325 -47 1076 58 
Q 828 163 653 355 
Q 478 547 383 820 
Q 288 1094 288 1431 
Q 288 1716 405 2034 
Q 522 2353 772 2722 
L 1778 4191 
Q 1819 4247 1895 4284 
Q 1972 4322 2072 4322 
L 2559 4322 
L 1366 2706 
z
M 819 1334 
Q 819 1128 872 958 
Q 925 788 1028 666 
Q 1131 544 1281 475 
Q 1431 406 1625 406 
Q 1816 406 1972 476 
Q 2128 547 2239 669 
Q 2350 791 2411 958 
Q 2472 1125 2472 1322 
Q 2472 1534 2412 1703 
Q 2353 1872 2245 1989 
Q 2138 2106 1986 2168 
Q 1834 2231 1650 2231 
Q 1459 2231 1304 2157 
Q 1150 2084 1042 1961 
Q 934 1838 876 1675 
Q 819 1513 819 1334 
z
" transform="scale(0.015625)"/>
       </defs>
       <use xlink:href="#Carlito-30"/>
       <use xlink:href="#Carlito-2e" x="50.683594"/>
       <use xlink:href="#Carlito-36" x="75.927734"/>
      </g>
     </g>
    </g>
    <g id="ytick_5">
     <g id="line2d_19">
      <path d="M 36 28.8 
L 156.96 28.8 
" clip-path="url(#pfec68c4c76)" style="fill: none; stroke-dasharray: 0.8,1.32; stroke-dashoffset: 0; stroke: #b0b0b0; stroke-width: 0.8"/>
     </g>
     <g id="line2d_20">
      <g>
       <use xlink:href="#ma847ea4748" x="36" y="28.8" style="stroke: #000000; stroke-width: 0.8"/>
      </g>
     </g>
     <g id="text_11">
      <!-- 0.8 -->
      <g transform="translate(18.87 31.5775) scale(0.08 -0.08)">
       <defs>
        <path id="Carlito-38" d="M 1622 -47 
Q 1319 -47 1067 39 
Q 816 125 636 286 
Q 456 447 356 675 
Q 256 903 256 1184 
Q 256 1603 454 1872 
Q 653 2141 1034 2253 
Q 716 2378 555 2631 
Q 394 2884 394 3234 
Q 394 3472 483 3680 
Q 572 3888 733 4042 
Q 894 4197 1120 4284 
Q 1347 4372 1622 4372 
Q 1897 4372 2123 4284 
Q 2350 4197 2511 4042 
Q 2672 3888 2761 3680 
Q 2850 3472 2850 3234 
Q 2850 2884 2687 2631 
Q 2525 2378 2206 2253 
Q 2591 2141 2789 1872 
Q 2988 1603 2988 1184 
Q 2988 903 2888 675 
Q 2788 447 2608 286 
Q 2428 125 2176 39 
Q 1925 -47 1622 -47 
z
M 1622 388 
Q 1809 388 1957 447 
Q 2106 506 2209 612 
Q 2313 719 2366 867 
Q 2419 1016 2419 1194 
Q 2419 1416 2355 1572 
Q 2291 1728 2183 1828 
Q 2075 1928 1929 1975 
Q 1784 2022 1622 2022 
Q 1456 2022 1311 1975 
Q 1166 1928 1058 1828 
Q 950 1728 886 1572 
Q 822 1416 822 1194 
Q 822 1016 875 867 
Q 928 719 1031 612 
Q 1134 506 1282 447 
Q 1431 388 1622 388 
z
M 1622 2459 
Q 1809 2459 1942 2523 
Q 2075 2588 2156 2694 
Q 2238 2800 2275 2939 
Q 2313 3078 2313 3225 
Q 2313 3375 2269 3506 
Q 2225 3638 2139 3736 
Q 2053 3834 1923 3892 
Q 1794 3950 1622 3950 
Q 1450 3950 1320 3892 
Q 1191 3834 1105 3736 
Q 1019 3638 975 3506 
Q 931 3375 931 3225 
Q 931 3078 968 2939 
Q 1006 2800 1087 2694 
Q 1169 2588 1301 2523 
Q 1434 2459 1622 2459 
z
" transform="scale(0.015625)"/>
       </defs>
       <use xlink:href="#Carlito-30"/>
       <use xlink:href="#Carlito-2e" x="50.683594"/>
       <use xlink:href="#Carlito-38" x="75.927734"/>
      </g>
     </g>
    </g>
    <g id="ytick_6">
     <g id="line2d_21">
      <path d="M 36 7.2 
L 156.96 7.2 
" clip-path="url(#pfec68c4c76)" style="fill: none; stroke-dasharray: 0.8,1.32; stroke-dashoffset: 0; stroke: #b0b0b0; stroke-width: 0.8"/>
     </g>
     <g id="line2d_22">
      <g>
       <use xlink:href="#ma847ea4748" x="36" y="7.2" style="stroke: #000000; stroke-width: 0.8"/>
      </g>
     </g>
     <g id="text_12">
      <!-- 1.0 -->
      <g transform="translate(18.87 9.9775) scale(0.08 -0.08)">
       <use xlink:href="#Carlito-31"/>
       <use xlink:href="#Carlito-2e" x="50.683594"/>
       <use xlink:href="#Carlito-30" x="75.927734"/>
      </g>
     </g>
    </g>
    <g id="text_13">
     <!-- max bitrate [bit/h] -->
     <g transform="translate(13.58125 91.314375) rotate(-90) scale(0.08 -0.08)">
      <defs>
       <path id="Carlito-6d" d="M 459 0 
L 459 3056 
L 784 3056 
Q 847 3056 883 3029 
Q 919 3003 925 2944 
L 972 2631 
Q 1059 2734 1154 2820 
Q 1250 2906 1359 2970 
Q 1469 3034 1594 3068 
Q 1719 3103 1859 3103 
Q 2175 3103 2373 2931 
Q 2572 2759 2656 2469 
Q 2722 2638 2830 2756 
Q 2938 2875 3069 2953 
Q 3200 3031 3350 3067 
Q 3500 3103 3656 3103 
Q 4156 3103 4429 2803 
Q 4703 2503 4703 1947 
L 4703 0 
L 4153 0 
L 4153 1947 
Q 4153 2303 3990 2486 
Q 3828 2669 3525 2669 
Q 3388 2669 3266 2623 
Q 3144 2578 3051 2486 
Q 2959 2394 2904 2259 
Q 2850 2125 2850 1947 
L 2850 0 
L 2300 0 
L 2300 1947 
Q 2300 2313 2148 2491 
Q 1997 2669 1703 2669 
Q 1503 2669 1328 2564 
Q 1153 2459 1009 2275 
L 1009 0 
L 459 0 
z
" transform="scale(0.015625)"/>
       <path id="Carlito-78" d="M 1022 1569 
L 113 3056 
L 638 3056 
Q 700 3056 729 3034 
Q 759 3013 784 2975 
L 1422 1866 
Q 1434 1900 1448 1933 
Q 1463 1966 1488 2000 
L 2022 2963 
Q 2050 3006 2081 3031 
Q 2113 3056 2156 3056 
L 2659 3056 
L 1747 1597 
L 2700 0 
L 2172 0 
Q 2109 0 2070 36 
Q 2031 72 2006 113 
L 1359 1269 
Q 1334 1197 1303 1147 
L 719 113 
Q 694 69 658 34 
Q 622 0 563 0 
L 72 0 
L 1022 1569 
z
" transform="scale(0.015625)"/>
       <path id="Carlito-20" transform="scale(0.015625)"/>
       <path id="Carlito-62" d="M 450 0 
L 450 4444 
L 1000 4444 
L 1000 2622 
Q 1188 2844 1428 2973 
Q 1669 3103 1981 3103 
Q 2247 3103 2459 3000 
Q 2672 2897 2822 2703 
Q 2972 2509 3051 2232 
Q 3131 1956 3131 1606 
Q 3131 1234 3040 931 
Q 2950 628 2781 411 
Q 2613 194 2372 75 
Q 2131 -44 1831 -44 
Q 1531 -44 1329 70 
Q 1128 184 972 388 
L 941 116 
Q 928 0 806 0 
L 450 0 
z
M 1797 2669 
Q 1544 2669 1351 2550 
Q 1159 2431 1000 2213 
L 1000 738 
Q 1144 541 1316 461 
Q 1488 381 1694 381 
Q 2116 381 2341 684 
Q 2566 988 2566 1588 
Q 2566 2144 2366 2406 
Q 2166 2669 1797 2669 
z
" transform="scale(0.015625)"/>
       <path id="Carlito-69" d="M 344 0 
L 344 0 
z
M 1009 3056 
L 1009 0 
L 459 0 
L 459 3056 
L 1009 3056 
z
M 1116 4012 
Q 1116 3934 1084 3864 
Q 1053 3794 998 3742 
Q 944 3691 873 3659 
Q 803 3628 725 3628 
Q 647 3628 578 3659 
Q 509 3691 457 3742 
Q 406 3794 375 3864 
Q 344 3934 344 4012 
Q 344 4094 375 4164 
Q 406 4234 457 4287 
Q 509 4341 578 4372 
Q 647 4403 725 4403 
Q 803 4403 873 4372 
Q 944 4341 998 4287 
Q 1053 4234 1084 4164 
Q 1116 4094 1116 4012 
z
" transform="scale(0.015625)"/>
       <path id="Carlito-72" d="M 409 0 
L 409 3056 
L 725 3056 
Q 813 3056 848 3022 
Q 884 2988 891 2906 
L 928 2456 
Q 1069 2759 1275 2934 
Q 1481 3109 1772 3109 
Q 1869 3109 1953 3089 
Q 2038 3069 2106 3022 
L 2063 2616 
Q 2053 2538 1975 2538 
Q 1931 2538 1851 2555 
Q 1772 2572 1675 2572 
Q 1534 2572 1426 2530 
Q 1319 2488 1233 2405 
Q 1147 2322 1081 2203 
Q 1016 2084 959 1931 
L 959 0 
L 409 0 
z
" transform="scale(0.015625)"/>
       <path id="Carlito-5b" d="M 500 -872 
L 500 4625 
L 1619 4625 
L 1619 4413 
Q 1619 4350 1578 4308 
Q 1538 4266 1469 4266 
L 959 4266 
L 959 -513 
L 1469 -513 
Q 1538 -513 1578 -555 
Q 1619 -597 1619 -659 
L 1619 -872 
L 500 -872 
z
" transform="scale(0.015625)"/>
       <path id="Carlito-2f" d="M 497 -63 
Q 453 -169 368 -220 
Q 284 -272 194 -272 
L -38 -272 
L 1981 4244 
Q 2059 4444 2269 4444 
L 2500 4444 
L 497 -63 
z
" transform="scale(0.015625)"/>
       <path id="Carlito-5d" d="M 344 4625 
L 1463 4625 
L 1463 -872 
L 344 -872 
L 344 -659 
Q 344 -597 386 -555 
Q 428 -513 497 -513 
L 1003 -513 
L 1003 4266 
L 497 4266 
Q 428 4266 386 4308 
Q 344 4350 344 4413 
L 344 4625 
z
" transform="scale(0.015625)"/>
      </defs>
      <use xlink:href="#Carlito-6d"/>
      <use xlink:href="#Carlito-61" x="79.882812"/>
      <use xlink:href="#Carlito-78" x="127.783203"/>
      <use xlink:href="#Carlito-20" x="171.09375"/>
      <use xlink:href="#Carlito-62" x="193.701172"/>
      <use xlink:href="#Carlito-69" x="246.240234"/>
      <use xlink:href="#Carlito-74" x="269.189453"/>
      <use xlink:href="#Carlito-72" x="302.685547"/>
      <use xlink:href="#Carlito-61" x="337.548828"/>
      <use xlink:href="#Carlito-74" x="385.449219"/>
      <use xlink:href="#Carlito-65" x="418.945312"/>
      <use xlink:href="#Carlito-20" x="468.701172"/>
      <use xlink:href="#Carlito-5b" x="491.308594"/>
      <use xlink:href="#Carlito-62" x="521.972656"/>
      <use xlink:href="#Carlito-69" x="574.511719"/>
      <use xlink:href="#Carlito-74" x="597.460938"/>
      <use xlink:href="#Carlito-2f" x="630.957031"/>
      <use xlink:href="#Carlito-68" x="669.580078"/>
      <use xlink:href="#Carlito-5d" x="722.119141"/>
     </g>
    </g>
   </g>
   <g id="line2d_23">
    <path d="M 57.575496 57.970493 
L 63.801692 63.575331 
L 73.816372 68.341204 
L 84.727011 73.753956 
L 100.103658 78.602236 
L 119.79262 84.957762 
L 151.461818 93.921596 
" clip-path="url(#pfec68c4c76)" style="fill: none; stroke: #800000; stroke-width: 1.5; stroke-linecap: square"/>
    <defs>
     <path id="m68d2a174c2" d="M 0 3 
C 0.795609 3 1.55874 2.683901 2.12132 2.12132 
C 2.683901 1.55874 3 0.795609 3 0 
C 3 -0.795609 2.683901 -1.55874 2.12132 -2.12132 
C 1.55874 -2.683901 0.795609 -3 0 -3 
C -0.795609 -3 -1.55874 -2.683901 -2.12132 -2.12132 
C -2.683901 -1.55874 -3 -0.795609 -3 0 
C -3 0.795609 -2.683901 1.55874 -2.12132 2.12132 
C -1.55874 2.683901 -0.795609 3 0 3 
z
" style="stroke: #800000"/>
    </defs>
    <g clip-path="url(#pfec68c4c76)">
     <use xlink:href="#m68d2a174c2" x="57.575496" y="57.970493" style="fill: #800000; stroke: #800000"/>
     <use xlink:href="#m68d2a174c2" x="63.801692" y="63.575331" style="fill: #800000; stroke: #800000"/>
     <use xlink:href="#m68d2a174c2" x="73.816372" y="68.341204" style="fill: #800000; stroke: #800000"/>
     <use xlink:href="#m68d2a174c2" x="84.727011" y="73.753956" style="fill: #800000; stroke: #800000"/>
     <use xlink:href="#m68d2a174c2" x="100.103658" y="78.602236" style="fill: #800000; stroke: #800000"/>
     <use xlink:href="#m68d2a174c2" x="119.79262" y="84.957762" style="fill: #800000; stroke: #800000"/>
     <use xlink:href="#m68d2a174c2" x="151.461818" y="93.921596" style="fill: #800000; stroke: #800000"/>
    </g>
   </g>
   <g id="line2d_24">
    <path d="M 41.498182 17.467379 
L 151.461818 17.467379 
" clip-path="url(#pfec68c4c76)" style="fill: none; stroke: #800080; stroke-opacity: 0.4; stroke-width: 1.5; stroke-linecap: square"/>
   </g>
   <g id="line2d_25">
    <path d="M 41.498182 47.973169 
L 151.461818 47.973169 
" clip-path="url(#pfec68c4c76)" style="fill: none; stroke-dasharray: 5.55,2.4; stroke-dashoffset: 0; stroke: #800080; stroke-opacity: 0.4; stroke-width: 1.5"/>
   </g>
   <g id="patch_3">
    <path d="M 36 115.2 
L 36 7.2 
" style="fill: none; stroke: #000000; stroke-width: 0.8; stroke-linejoin: miter; stroke-linecap: square"/>
   </g>
   <g id="patch_4">
    <path d="M 156.96 115.2 
L 156.96 7.2 
" style="fill: none; stroke: #000000; stroke-width: 0.8; stroke-linejoin: miter; stroke-linecap: square"/>
   </g>
   <g id="patch_5">
    <path d="M 36 115.2 
L 156.96 115.2 
" style="fill: none; stroke: #000000; stroke-width: 0.8; stroke-linejoin: miter; stroke-linecap: square"/>
   </g>
   <g id="patch_6">
    <path d="M 36 7.2 
L 156.96 7.2 
" style="fill: none; stroke: #000000; stroke-width: 0.8; stroke-linejoin: miter; stroke-linecap: square"/>
   </g>
   <g id="text_14">
    <!-- 1 bit / $T_{\mathrm{cycle}}$ -->
    <g style="opacity: 0.4" transform="translate(114.661818 25.067379) scale(0.08 -0.08)">
     <defs>
      <path id="Carlito-Italic-54" d="M 3375 4106 
L 3319 3647 
L 2109 3647 
L 1663 0 
L 1116 0 
L 1559 3647 
L 350 3647 
L 403 4106 
L 3375 4106 
z
" transform="scale(0.015625)"/>
      <path id="Carlito-79" d="M 1278 -900 
Q 1253 -963 1211 -997 
Q 1169 -1031 1088 -1031 
L 678 -1031 
L 1203 181 
L 34 3056 
L 509 3056 
Q 581 3056 618 3022 
Q 656 2988 675 2944 
L 1388 1031 
Q 1413 966 1436 900 
Q 1459 834 1475 769 
Q 1494 838 1517 905 
Q 1541 972 1566 1038 
L 2256 2944 
Q 2275 2991 2319 3023 
Q 2363 3056 2416 3056 
L 2853 3056 
L 1278 -900 
z
" transform="scale(0.015625)"/>
     </defs>
     <use xlink:href="#Carlito-31" transform="translate(0 0.5625)"/>
     <use xlink:href="#Carlito-20" transform="translate(50.683594 0.5625)"/>
     <use xlink:href="#Carlito-62" transform="translate(73.291016 0.5625)"/>
     <use xlink:href="#Carlito-69" transform="translate(125.830078 0.5625)"/>
     <use xlink:href="#Carlito-74" transform="translate(148.779297 0.5625)"/>
     <use xlink:href="#Carlito-20" transform="translate(182.275391 0.5625)"/>
     <use xlink:href="#Carlito-2f" transform="translate(204.882812 0.5625)"/>
     <use xlink:href="#Carlito-20" transform="translate(243.505859 0.5625)"/>
     <use xlink:href="#Carlito-Italic-54" transform="translate(266.113281 0.5625)"/>
     <use xlink:href="#Carlito-63" transform="translate(314.84375 -13.7625) scale(0.7)"/>
     <use xlink:href="#Carlito-79" transform="translate(344.443359 -13.7625) scale(0.7)"/>
     <use xlink:href="#Carlito-63" transform="translate(376.12793 -13.7625) scale(0.7)"/>
     <use xlink:href="#Carlito-6c" transform="translate(405.727539 -13.7625) scale(0.7)"/>
     <use xlink:href="#Carlito-65" transform="translate(421.791992 -13.7625) scale(0.7)"/>
    </g>
   </g>
   <g id="text_15">
    <!-- 1 bit / $T_{\mathrm{R}}$ = 1 bit / ($T_{\mathrm{cycle}} +\sigma_{\mathrm{cycle}}$) -->
    <g style="opacity: 0.4" transform="translate(51.541818 55.893169) scale(0.08 -0.08)">
     <defs>
      <path id="Carlito-52" d="M 1028 1706 
L 1028 0 
L 459 0 
L 459 4106 
L 1584 4106 
Q 1959 4106 2232 4026 
Q 2506 3947 2682 3798 
Q 2859 3650 2943 3439 
Q 3028 3228 3028 2966 
Q 3028 2750 2964 2562 
Q 2900 2375 2779 2225 
Q 2659 2075 2484 1967 
Q 2309 1859 2088 1803 
Q 2141 1769 2187 1726 
Q 2234 1684 2278 1625 
L 3381 0 
L 2875 0 
Q 2728 0 2647 116 
L 1675 1578 
Q 1628 1647 1573 1676 
Q 1519 1706 1409 1706 
L 1028 1706 
z
M 1028 2122 
L 1563 2122 
Q 1788 2122 1958 2180 
Q 2128 2238 2243 2344 
Q 2359 2450 2417 2598 
Q 2475 2747 2475 2925 
Q 2475 3659 1584 3659 
L 1028 3659 
L 1028 2122 
z
" transform="scale(0.015625)"/>
      <path id="Carlito-3d" d="M 294 1731 
L 2891 1731 
L 2891 1319 
L 294 1319 
L 294 1731 
z
M 294 2747 
L 2891 2747 
L 2891 2331 
L 294 2331 
L 294 2747 
z
" transform="scale(0.015625)"/>
      <path id="Carlito-28" d="M 947 1897 
Q 947 1250 1111 642 
Q 1275 34 1588 -516 
Q 1638 -606 1613 -657 
Q 1588 -709 1541 -738 
L 1297 -888 
Q 1072 -541 914 -198 
Q 756 144 657 486 
Q 559 828 514 1179 
Q 469 1531 469 1897 
Q 469 2263 514 2613 
Q 559 2963 657 3306 
Q 756 3650 914 3990 
Q 1072 4331 1297 4678 
L 1541 4531 
Q 1588 4500 1613 4448 
Q 1638 4397 1588 4306 
Q 1275 3756 1111 3148 
Q 947 2541 947 1897 
z
" transform="scale(0.015625)"/>
      <path id="Carlito-2b" d="M 1813 3519 
L 1813 2231 
L 3038 2231 
L 3038 1816 
L 1813 1816 
L 1813 525 
L 1363 525 
L 1363 1816 
L 144 1816 
L 144 2231 
L 1363 2231 
L 1363 3519 
L 1813 3519 
z
" transform="scale(0.015625)"/>
      <path id="Carlito-Italic-3c3" d="M 2684 2631 
Q 2853 2484 2942 2257 
Q 3031 2031 3031 1728 
Q 3031 1344 2918 1020 
Q 2806 697 2603 459 
Q 2400 222 2114 89 
Q 1828 -44 1478 -44 
Q 1206 -44 986 47 
Q 766 138 611 305 
Q 456 472 372 712 
Q 288 953 288 1253 
Q 288 1663 406 1992 
Q 525 2322 751 2555 
Q 978 2788 1306 2913 
Q 1634 3038 2053 3038 
L 3600 3038 
L 3569 2791 
Q 3563 2738 3511 2684 
Q 3459 2631 3375 2631 
L 2684 2631 
z
M 2497 1834 
Q 2497 2125 2406 2342 
Q 2316 2559 2128 2631 
L 2006 2631 
Q 1684 2631 1461 2534 
Q 1238 2438 1097 2258 
Q 956 2078 893 1820 
Q 831 1563 831 1241 
Q 831 822 1007 595 
Q 1184 369 1525 369 
Q 1772 369 1955 469 
Q 2138 569 2258 758 
Q 2378 947 2437 1219 
Q 2497 1491 2497 1834 
z
" transform="scale(0.015625)"/>
      <path id="Carlito-29" d="M 994 1897 
Q 994 2541 830 3148 
Q 666 3756 353 4306 
Q 328 4353 323 4387 
Q 319 4422 328 4450 
Q 338 4478 356 4497 
Q 375 4516 400 4531 
L 644 4681 
Q 869 4331 1026 3990 
Q 1184 3650 1282 3306 
Q 1381 2963 1426 2613 
Q 1472 2263 1472 1897 
Q 1472 1531 1426 1179 
Q 1381 828 1282 486 
Q 1184 144 1026 -198 
Q 869 -541 644 -888 
L 400 -738 
Q 375 -725 356 -704 
Q 338 -684 328 -657 
Q 319 -631 323 -597 
Q 328 -563 353 -516 
Q 666 34 830 642 
Q 994 1250 994 1897 
z
" transform="scale(0.015625)"/>
     </defs>
     <use xlink:href="#Carlito-31" transform="translate(0 0.859375)"/>
     <use xlink:href="#Carlito-20" transform="translate(50.683594 0.859375)"/>
     <use xlink:href="#Carlito-62" transform="translate(73.291016 0.859375)"/>
     <use xlink:href="#Carlito-69" transform="translate(125.830078 0.859375)"/>
     <use xlink:href="#Carlito-74" transform="translate(148.779297 0.859375)"/>
     <use xlink:href="#Carlito-20" transform="translate(182.275391 0.859375)"/>
     <use xlink:href="#Carlito-2f" transform="translate(204.882812 0.859375)"/>
     <use xlink:href="#Carlito-20" transform="translate(243.505859 0.859375)"/>
     <use xlink:href="#Carlito-Italic-54" transform="translate(266.113281 0.859375)"/>
     <use xlink:href="#Carlito-52" transform="translate(314.84375 -13.465625) scale(0.7)"/>
     <use xlink:href="#Carlito-20" transform="translate(355.239062 0.859375)"/>
     <use xlink:href="#Carlito-3d" transform="translate(377.846484 0.859375)"/>
     <use xlink:href="#Carlito-20" transform="translate(427.651172 0.859375)"/>
     <use xlink:href="#Carlito-31" transform="translate(450.258594 0.859375)"/>
     <use xlink:href="#Carlito-20" transform="translate(500.942187 0.859375)"/>
     <use xlink:href="#Carlito-62" transform="translate(523.549609 0.859375)"/>
     <use xlink:href="#Carlito-69" transform="translate(576.088672 0.859375)"/>
     <use xlink:href="#Carlito-74" transform="translate(599.037891 0.859375)"/>
     <use xlink:href="#Carlito-20" transform="translate(632.533984 0.859375)"/>
     <use xlink:href="#Carlito-2f" transform="translate(655.141406 0.859375)"/>
     <use xlink:href="#Carlito-20" transform="translate(693.764453 0.859375)"/>
     <use xlink:href="#Carlito-28" transform="translate(716.371875 0.859375)"/>
     <use xlink:href="#Carlito-Italic-54" transform="translate(746.694141 0.859375)"/>
     <use xlink:href="#Carlito-63" transform="translate(795.424609 -13.465625) scale(0.7)"/>
     <use xlink:href="#Carlito-79" transform="translate(825.024219 -13.465625) scale(0.7)"/>
     <use xlink:href="#Carlito-63" transform="translate(856.708789 -13.465625) scale(0.7)"/>
     <use xlink:href="#Carlito-6c" transform="translate(886.308398 -13.465625) scale(0.7)"/>
     <use xlink:href="#Carlito-65" transform="translate(902.372852 -13.465625) scale(0.7)"/>
     <use xlink:href="#Carlito-2b" transform="translate(955.409766 0.859375)"/>
     <use xlink:href="#Carlito-Italic-3c3" transform="translate(1021.034766 0.859375)"/>
     <use xlink:href="#Carlito-63" transform="translate(1074.208594 -13.465625) scale(0.7)"/>
     <use xlink:href="#Carlito-79" transform="translate(1103.808203 -13.465625) scale(0.7)"/>
     <use xlink:href="#Carlito-63" transform="translate(1135.492773 -13.465625) scale(0.7)"/>
     <use xlink:href="#Carlito-6c" transform="translate(1165.092383 -13.465625) scale(0.7)"/>
     <use xlink:href="#Carlito-65" transform="translate(1181.156836 -13.465625) scale(0.7)"/>
     <use xlink:href="#Carlito-29" transform="translate(1218.373437 0.859375)"/>
    </g>
   </g>
   <g id="legend_1">
    <g id="patch_7">
     <path d="M 41.6 111.2 
L 133.92 111.2 
Q 135.52 111.2 135.52 109.6 
L 135.52 99.51125 
Q 135.52 97.91125 133.92 97.91125 
L 41.6 97.91125 
Q 40 97.91125 40 99.51125 
L 40 109.6 
Q 40 111.2 41.6 111.2 
z
" style="fill: #ffffff; opacity: 0.8; stroke: #cccccc; stroke-linejoin: miter"/>
    </g>
    <g id="line2d_26">
     <path d="M 43.2 103.91125 
L 51.2 103.91125 
L 59.2 103.91125 
" style="fill: none; stroke: #800000; stroke-width: 1.5; stroke-linecap: square"/>
     <g>
      <use xlink:href="#m68d2a174c2" x="51.2" y="103.91125" style="fill: #800000; stroke: #800000"/>
     </g>
    </g>
    <g id="text_16">
     <!-- channel width $W$ = 6 -->
     <g transform="translate(65.6 106.71125) scale(0.08 -0.08)">
      <defs>
       <path id="Carlito-77" d="M 66 3056 
L 500 3056 
Q 563 3056 606 3022 
Q 650 2988 663 2941 
L 1209 991 
Q 1241 884 1262 782 
Q 1284 681 1300 581 
Q 1325 681 1356 782 
Q 1388 884 1422 994 
L 2028 2956 
Q 2044 3003 2084 3033 
Q 2125 3063 2181 3063 
L 2419 3063 
Q 2481 3063 2520 3033 
Q 2559 3003 2575 2956 
L 3169 994 
Q 3203 888 3231 784 
Q 3259 681 3284 581 
Q 3319 784 3381 994 
L 3941 2944 
Q 3956 2994 3997 3025 
Q 4038 3056 4097 3056 
L 4509 3056 
L 3550 0 
L 3113 0 
Q 3034 0 3003 103 
L 2363 2163 
Q 2338 2234 2320 2304 
Q 2303 2375 2288 2447 
Q 2272 2375 2256 2303 
Q 2241 2231 2216 2159 
L 1566 103 
Q 1531 0 1444 0 
L 1028 0 
L 66 3056 
z
" transform="scale(0.015625)"/>
       <path id="Carlito-64" d="M 2584 0 
Q 2525 0 2487 26 
Q 2450 53 2444 113 
L 2388 478 
Q 2194 244 1947 100 
Q 1700 -44 1375 -44 
Q 1116 -44 905 57 
Q 694 159 544 356 
Q 394 553 312 845 
Q 231 1138 231 1519 
Q 231 1856 320 2148 
Q 409 2441 578 2653 
Q 747 2866 989 2987 
Q 1231 3109 1538 3109 
Q 1816 3109 2012 3017 
Q 2209 2925 2363 2753 
L 2363 4444 
L 2913 4444 
L 2913 0 
L 2584 0 
z
M 1553 397 
Q 1813 397 2005 517 
Q 2197 638 2363 853 
L 2363 2331 
Q 2216 2528 2044 2608 
Q 1872 2688 1663 2688 
Q 1247 2688 1022 2384 
Q 797 2081 797 1519 
Q 797 1222 848 1009 
Q 900 797 997 661 
Q 1094 525 1234 461 
Q 1375 397 1553 397 
z
" transform="scale(0.015625)"/>
       <path id="Carlito-Italic-57" d="M 359 4106 
L 794 4106 
Q 866 4106 911 4070 
Q 956 4034 963 3978 
L 1444 1091 
Q 1456 1013 1465 923 
Q 1475 834 1484 738 
Q 1513 838 1544 927 
Q 1575 1016 1609 1094 
L 2903 3975 
Q 2925 4025 2978 4065 
Q 3031 4106 3100 4106 
L 3234 4106 
Q 3303 4106 3347 4070 
Q 3391 4034 3400 3978 
L 3975 1091 
Q 3991 1019 4000 933 
Q 4009 847 4019 756 
Q 4044 847 4073 931 
Q 4103 1016 4131 1088 
L 5334 3975 
Q 5353 4025 5412 4065 
Q 5472 4106 5544 4106 
L 5978 4106 
L 4225 0 
L 3728 0 
L 3113 3144 
Q 3103 3188 3095 3242 
Q 3088 3297 3081 3359 
Q 3038 3231 3000 3144 
L 1597 0 
L 1109 0 
L 359 4106 
z
" transform="scale(0.015625)"/>
      </defs>
      <use xlink:href="#Carlito-63" transform="translate(0 0.5625)"/>
      <use xlink:href="#Carlito-68" transform="translate(42.285156 0.5625)"/>
      <use xlink:href="#Carlito-61" transform="translate(94.824219 0.5625)"/>
      <use xlink:href="#Carlito-6e" transform="translate(142.724609 0.5625)"/>
      <use xlink:href="#Carlito-6e" transform="translate(195.263672 0.5625)"/>
      <use xlink:href="#Carlito-65" transform="translate(247.802734 0.5625)"/>
      <use xlink:href="#Carlito-6c" transform="translate(297.558594 0.5625)"/>
      <use xlink:href="#Carlito-20" transform="translate(320.507812 0.5625)"/>
      <use xlink:href="#Carlito-77" transform="translate(343.115234 0.5625)"/>
      <use xlink:href="#Carlito-69" transform="translate(414.599609 0.5625)"/>
      <use xlink:href="#Carlito-64" transform="translate(437.548828 0.5625)"/>
      <use xlink:href="#Carlito-74" transform="translate(490.087891 0.5625)"/>
      <use xlink:href="#Carlito-68" transform="translate(523.583984 0.5625)"/>
      <use xlink:href="#Carlito-20" transform="translate(576.123047 0.5625)"/>
      <use xlink:href="#Carlito-Italic-57" transform="translate(598.730469 0.5625)"/>
      <use xlink:href="#Carlito-20" transform="translate(687.744141 0.5625)"/>
      <use xlink:href="#Carlito-3d" transform="translate(710.351562 0.5625)"/>
      <use xlink:href="#Carlito-20" transform="translate(760.15625 0.5625)"/>
      <use xlink:href="#Carlito-36" transform="translate(782.763672 0.5625)"/>
     </g>
    </g>
   </g>
  </g>
  <g id="axes_2">
   <g id="patch_8">
    <path d="M 192.96 115.2 
L 313.92 115.2 
L 313.92 7.2 
L 192.96 7.2 
z
" style="fill: #ffffff"/>
   </g>
   <g id="matplotlib.axis_3">
    <g id="xtick_6">
     <g id="line2d_27">
      <path d="M 198.458182 115.2 
L 198.458182 7.2 
" clip-path="url(#p4ad6f813c9)" style="fill: none; stroke-dasharray: 0.8,1.32; stroke-dashoffset: 0; stroke: #b0b0b0; stroke-width: 0.8"/>
     </g>
     <g id="line2d_28">
      <g>
       <use xlink:href="#m4ff37f22ce" x="198.458182" y="115.2" style="stroke: #000000; stroke-width: 0.8"/>
      </g>
     </g>
     <g id="text_17">
      <!-- $\sqrt{1}$ -->
      <g transform="translate(192.218182 129.07125) scale(0.08 -0.08)">
       <use xlink:href="#Cmex10-70" transform="translate(0 92.8125) scale(0.796641)"/>
       <use xlink:href="#Carlito-31" transform="translate(92.15625 0.390625)"/>
       <path d="M 79.65625 89.5 
L 79.65625 95.75 
L 155.339844 95.75 
L 155.339844 89.5 
L 79.65625 89.5 
z
"/>
      </g>
     </g>
    </g>
    <g id="xtick_7">
     <g id="line2d_29">
      <path d="M 214.535496 115.2 
L 214.535496 7.2 
" clip-path="url(#p4ad6f813c9)" style="fill: none; stroke-dasharray: 0.8,1.32; stroke-dashoffset: 0; stroke: #b0b0b0; stroke-width: 0.8"/>
     </g>
     <g id="line2d_30">
      <g>
       <use xlink:href="#m4ff37f22ce" x="214.535496" y="115.2" style="stroke: #000000; stroke-width: 0.8"/>
      </g>
     </g>
     <g id="text_18">
      <!-- $\sqrt{30}$ -->
      <g transform="translate(206.215496 129.23125) scale(0.08 -0.08)">
       <use xlink:href="#Cmex10-70" transform="translate(0 93.765625) scale(0.806796)"/>
       <use xlink:href="#Carlito-33" transform="translate(93.171875 0.859375)"/>
       <use xlink:href="#Carlito-30" transform="translate(143.855469 0.859375)"/>
       <path d="M 80.671875 90.5 
L 80.671875 96.75 
L 207.039062 96.75 
L 207.039062 90.5 
L 80.671875 90.5 
z
"/>
      </g>
     </g>
    </g>
    <g id="xtick_8">
     <g id="line2d_31">
      <path d="M 230.776372 115.2 
L 230.776372 7.2 
" clip-path="url(#p4ad6f813c9)" style="fill: none; stroke-dasharray: 0.8,1.32; stroke-dashoffset: 0; stroke: #b0b0b0; stroke-width: 0.8"/>
     </g>
     <g id="line2d_32">
      <g>
       <use xlink:href="#m4ff37f22ce" x="230.776372" y="115.2" style="stroke: #000000; stroke-width: 0.8"/>
      </g>
     </g>
     <g id="text_19">
      <!-- $\sqrt{100}$ -->
      <g transform="translate(220.456372 129.23125) scale(0.08 -0.08)">
       <use xlink:href="#Cmex10-70" transform="translate(0 93.765625) scale(0.806796)"/>
       <use xlink:href="#Carlito-31" transform="translate(93.171875 0.859375)"/>
       <use xlink:href="#Carlito-30" transform="translate(143.855469 0.859375)"/>
       <use xlink:href="#Carlito-30" transform="translate(194.539062 0.859375)"/>
       <path d="M 80.671875 90.5 
L 80.671875 96.75 
L 257.722656 96.75 
L 257.722656 90.5 
L 80.671875 90.5 
z
"/>
      </g>
     </g>
    </g>
    <g id="xtick_9">
     <g id="line2d_33">
      <path d="M 257.063658 115.2 
L 257.063658 7.2 
" clip-path="url(#p4ad6f813c9)" style="fill: none; stroke-dasharray: 0.8,1.32; stroke-dashoffset: 0; stroke: #b0b0b0; stroke-width: 0.8"/>
     </g>
     <g id="line2d_34">
      <g>
       <use xlink:href="#m4ff37f22ce" x="257.063658" y="115.2" style="stroke: #000000; stroke-width: 0.8"/>
      </g>
     </g>
     <g id="text_20">
      <!-- $\sqrt{300}$ -->
      <g transform="translate(246.743658 129.23125) scale(0.08 -0.08)">
       <use xlink:href="#Cmex10-70" transform="translate(0 93.765625) scale(0.806796)"/>
       <use xlink:href="#Carlito-33" transform="translate(93.171875 0.859375)"/>
       <use xlink:href="#Carlito-30" transform="translate(143.855469 0.859375)"/>
       <use xlink:href="#Carlito-30" transform="translate(194.539062 0.859375)"/>
       <path d="M 80.671875 90.5 
L 80.671875 96.75 
L 257.722656 96.75 
L 257.722656 90.5 
L 80.671875 90.5 
z
"/>
      </g>
     </g>
    </g>
    <g id="xtick_10">
     <g id="line2d_35">
      <path d="M 308.421818 115.2 
L 308.421818 7.2 
" clip-path="url(#p4ad6f813c9)" style="fill: none; stroke-dasharray: 0.8,1.32; stroke-dashoffset: 0; stroke: #b0b0b0; stroke-width: 0.8"/>
     </g>
     <g id="line2d_36">
      <g>
       <use xlink:href="#m4ff37f22ce" x="308.421818" y="115.2" style="stroke: #000000; stroke-width: 0.8"/>
      </g>
     </g>
     <g id="text_21">
      <!-- $\sqrt{1000}$ -->
      <g transform="translate(296.061818 129.23125) scale(0.08 -0.08)">
       <use xlink:href="#Cmex10-70" transform="translate(0 93.765625) scale(0.806796)"/>
       <use xlink:href="#Carlito-31" transform="translate(93.171875 0.859375)"/>
       <use xlink:href="#Carlito-30" transform="translate(143.855469 0.859375)"/>
       <use xlink:href="#Carlito-30" transform="translate(194.539062 0.859375)"/>
       <use xlink:href="#Carlito-30" transform="translate(245.222656 0.859375)"/>
       <path d="M 80.671875 90.5 
L 80.671875 96.75 
L 308.40625 96.75 
L 308.40625 90.5 
L 80.671875 90.5 
z
"/>
      </g>
     </g>
    </g>
    <g id="text_22">
     <!-- $\sqrt{\mathrm{channel~length}~L}$ -->
     <g transform="translate(221.56 143.08) scale(0.08 -0.08)">
      <use xlink:href="#Cmex10-70" transform="translate(0 97.0625) scale(0.982164)"/>
      <use xlink:href="#Carlito-63" transform="translate(110.703125 0.3125)"/>
      <use xlink:href="#Carlito-68" transform="translate(152.988281 0.3125)"/>
      <use xlink:href="#Carlito-61" transform="translate(205.527344 0.3125)"/>
      <use xlink:href="#Carlito-6e" transform="translate(253.427734 0.3125)"/>
      <use xlink:href="#Carlito-6e" transform="translate(305.966797 0.3125)"/>
      <use xlink:href="#Carlito-65" transform="translate(358.505859 0.3125)"/>
      <use xlink:href="#Carlito-6c" transform="translate(408.261719 0.3125)"/>
      <use xlink:href="#Carlito-6c" transform="translate(457.577861 0.3125)"/>
      <use xlink:href="#Carlito-65" transform="translate(480.52708 0.3125)"/>
      <use xlink:href="#Carlito-6e" transform="translate(530.282939 0.3125)"/>
      <use xlink:href="#Carlito-67" transform="translate(582.822002 0.3125)"/>
      <use xlink:href="#Carlito-74" transform="translate(629.892314 0.3125)"/>
      <use xlink:href="#Carlito-68" transform="translate(663.388408 0.3125)"/>
      <use xlink:href="#Carlito-Italic-4c" transform="translate(742.294395 0.3125)"/>
      <path d="M 98.203125 94.5 
L 98.203125 100.75 
L 796.83541 100.75 
L 796.83541 94.5 
L 98.203125 94.5 
z
"/>
     </g>
    </g>
   </g>
   <g id="matplotlib.axis_4">
    <g id="ytick_7">
     <g id="line2d_37">
      <path d="M 192.96 115.2 
L 313.92 115.2 
" clip-path="url(#p4ad6f813c9)" style="fill: none; stroke-dasharray: 0.8,1.32; stroke-dashoffset: 0; stroke: #b0b0b0; stroke-width: 0.8"/>
     </g>
     <g id="line2d_38">
      <g>
       <use xlink:href="#ma847ea4748" x="192.96" y="115.2" style="stroke: #000000; stroke-width: 0.8"/>
      </g>
     </g>
     <g id="text_23">
      <!-- 0 -->
      <g transform="translate(181.905 117.9775) scale(0.08 -0.08)">
       <use xlink:href="#Carlito-30"/>
      </g>
     </g>
    </g>
    <g id="ytick_8">
     <g id="line2d_39">
      <path d="M 192.96 97.2 
L 313.92 97.2 
" clip-path="url(#p4ad6f813c9)" style="fill: none; stroke-dasharray: 0.8,1.32; stroke-dashoffset: 0; stroke: #b0b0b0; stroke-width: 0.8"/>
     </g>
     <g id="line2d_40">
      <g>
       <use xlink:href="#ma847ea4748" x="192.96" y="97.2" style="stroke: #000000; stroke-width: 0.8"/>
      </g>
     </g>
     <g id="text_24">
      <!-- 50 -->
      <g transform="translate(177.85 99.9775) scale(0.08 -0.08)">
       <defs>
        <path id="Carlito-35" d="M 291 0 
L 291 0 
z
M 2741 3878 
Q 2741 3769 2670 3697 
Q 2600 3625 2434 3625 
L 1194 3625 
L 1016 2563 
Q 1172 2597 1311 2612 
Q 1450 2628 1581 2628 
Q 1894 2628 2134 2533 
Q 2375 2438 2537 2272 
Q 2700 2106 2783 1879 
Q 2866 1653 2866 1388 
Q 2866 1059 2755 795 
Q 2644 531 2448 343 
Q 2253 156 1987 56 
Q 1722 -44 1416 -44 
Q 1238 -44 1075 -8 
Q 913 28 769 87 
Q 625 147 504 225 
Q 384 303 291 391 
L 450 613 
Q 506 688 591 688 
Q 647 688 717 644 
Q 788 600 888 545 
Q 988 491 1122 447 
Q 1256 403 1444 403 
Q 1650 403 1815 472 
Q 1981 541 2097 666 
Q 2213 791 2275 967 
Q 2338 1144 2338 1363 
Q 2338 1553 2283 1706 
Q 2228 1859 2120 1968 
Q 2013 2078 1850 2137 
Q 1688 2197 1472 2197 
Q 1169 2197 828 2084 
L 503 2184 
L 828 4106 
L 2741 4106 
L 2741 3878 
z
" transform="scale(0.015625)"/>
       </defs>
       <use xlink:href="#Carlito-35"/>
       <use xlink:href="#Carlito-30" x="50.683594"/>
      </g>
     </g>
    </g>
    <g id="ytick_9">
     <g id="line2d_41">
      <path d="M 192.96 79.2 
L 313.92 79.2 
" clip-path="url(#p4ad6f813c9)" style="fill: none; stroke-dasharray: 0.8,1.32; stroke-dashoffset: 0; stroke: #b0b0b0; stroke-width: 0.8"/>
     </g>
     <g id="line2d_42">
      <g>
       <use xlink:href="#ma847ea4748" x="192.96" y="79.2" style="stroke: #000000; stroke-width: 0.8"/>
      </g>
     </g>
     <g id="text_25">
      <!-- 100 -->
      <g transform="translate(173.795 81.9775) scale(0.08 -0.08)">
       <use xlink:href="#Carlito-31"/>
       <use xlink:href="#Carlito-30" x="50.683594"/>
       <use xlink:href="#Carlito-30" x="101.367188"/>
      </g>
     </g>
    </g>
    <g id="ytick_10">
     <g id="line2d_43">
      <path d="M 192.96 61.2 
L 313.92 61.2 
" clip-path="url(#p4ad6f813c9)" style="fill: none; stroke-dasharray: 0.8,1.32; stroke-dashoffset: 0; stroke: #b0b0b0; stroke-width: 0.8"/>
     </g>
     <g id="line2d_44">
      <g>
       <use xlink:href="#ma847ea4748" x="192.96" y="61.2" style="stroke: #000000; stroke-width: 0.8"/>
      </g>
     </g>
     <g id="text_26">
      <!-- 150 -->
      <g transform="translate(173.795 63.9775) scale(0.08 -0.08)">
       <use xlink:href="#Carlito-31"/>
       <use xlink:href="#Carlito-35" x="50.683594"/>
       <use xlink:href="#Carlito-30" x="101.367188"/>
      </g>
     </g>
    </g>
    <g id="ytick_11">
     <g id="line2d_45">
      <path d="M 192.96 43.2 
L 313.92 43.2 
" clip-path="url(#p4ad6f813c9)" style="fill: none; stroke-dasharray: 0.8,1.32; stroke-dashoffset: 0; stroke: #b0b0b0; stroke-width: 0.8"/>
     </g>
     <g id="line2d_46">
      <g>
       <use xlink:href="#ma847ea4748" x="192.96" y="43.2" style="stroke: #000000; stroke-width: 0.8"/>
      </g>
     </g>
     <g id="text_27">
      <!-- 200 -->
      <g transform="translate(173.795 45.9775) scale(0.08 -0.08)">
       <use xlink:href="#Carlito-32"/>
       <use xlink:href="#Carlito-30" x="50.683594"/>
       <use xlink:href="#Carlito-30" x="101.367188"/>
      </g>
     </g>
    </g>
    <g id="ytick_12">
     <g id="line2d_47">
      <path d="M 192.96 25.2 
L 313.92 25.2 
" clip-path="url(#p4ad6f813c9)" style="fill: none; stroke-dasharray: 0.8,1.32; stroke-dashoffset: 0; stroke: #b0b0b0; stroke-width: 0.8"/>
     </g>
     <g id="line2d_48">
      <g>
       <use xlink:href="#ma847ea4748" x="192.96" y="25.2" style="stroke: #000000; stroke-width: 0.8"/>
      </g>
     </g>
     <g id="text_28">
      <!-- 250 -->
      <g transform="translate(173.795 27.9775) scale(0.08 -0.08)">
       <use xlink:href="#Carlito-32"/>
       <use xlink:href="#Carlito-35" x="50.683594"/>
       <use xlink:href="#Carlito-30" x="101.367188"/>
      </g>
     </g>
    </g>
    <g id="ytick_13">
     <g id="line2d_49">
      <path d="M 192.96 7.2 
L 313.92 7.2 
" clip-path="url(#p4ad6f813c9)" style="fill: none; stroke-dasharray: 0.8,1.32; stroke-dashoffset: 0; stroke: #b0b0b0; stroke-width: 0.8"/>
     </g>
     <g id="line2d_50">
      <g>
       <use xlink:href="#ma847ea4748" x="192.96" y="7.2" style="stroke: #000000; stroke-width: 0.8"/>
      </g>
     </g>
     <g id="text_29">
      <!-- 300 -->
      <g transform="translate(173.795 9.9775) scale(0.08 -0.08)">
       <use xlink:href="#Carlito-33"/>
       <use xlink:href="#Carlito-30" x="50.683594"/>
       <use xlink:href="#Carlito-30" x="101.367188"/>
      </g>
     </g>
    </g>
    <g id="text_30">
     <!-- optimal interval $T_{\mathrm{slot}}$ [min] -->
     <g transform="translate(168.435 103.68) rotate(-90) scale(0.08 -0.08)">
      <defs>
       <path id="Carlito-6f" d="M 1691 3103 
Q 2025 3103 2294 2992 
Q 2563 2881 2750 2676 
Q 2938 2472 3039 2181 
Q 3141 1891 3141 1531 
Q 3141 1169 3039 878 
Q 2938 588 2750 383 
Q 2563 178 2294 67 
Q 2025 -44 1691 -44 
Q 1356 -44 1086 67 
Q 816 178 627 383 
Q 438 588 336 878 
Q 234 1169 234 1531 
Q 234 1891 336 2181 
Q 438 2472 627 2676 
Q 816 2881 1086 2992 
Q 1356 3103 1691 3103 
z
M 1691 384 
Q 1913 384 2078 461 
Q 2244 538 2355 684 
Q 2466 831 2520 1043 
Q 2575 1256 2575 1528 
Q 2575 1800 2520 2012 
Q 2466 2225 2355 2372 
Q 2244 2519 2078 2597 
Q 1913 2675 1691 2675 
Q 1466 2675 1298 2597 
Q 1131 2519 1020 2372 
Q 909 2225 854 2012 
Q 800 1800 800 1528 
Q 800 1256 854 1043 
Q 909 831 1020 684 
Q 1131 538 1298 461 
Q 1466 384 1691 384 
z
" transform="scale(0.015625)"/>
       <path id="Carlito-70" d="M 441 -1031 
L 441 3056 
L 769 3056 
Q 828 3056 865 3029 
Q 903 3003 909 2944 
L 963 2588 
Q 1156 2822 1406 2965 
Q 1656 3109 1981 3109 
Q 2244 3109 2456 3007 
Q 2669 2906 2819 2709 
Q 2969 2513 3050 2222 
Q 3131 1931 3131 1550 
Q 3131 1213 3040 920 
Q 2950 628 2779 414 
Q 2609 200 2365 78 
Q 2122 -44 1816 -44 
Q 1538 -44 1341 50 
Q 1144 144 991 313 
L 991 -1031 
L 441 -1031 
z
M 1800 2669 
Q 1544 2669 1348 2550 
Q 1153 2431 991 2213 
L 991 738 
Q 1134 541 1307 461 
Q 1481 381 1694 381 
Q 2113 381 2339 684 
Q 2566 988 2566 1550 
Q 2566 1847 2514 2059 
Q 2463 2272 2364 2408 
Q 2266 2544 2123 2606 
Q 1981 2669 1800 2669 
z
" transform="scale(0.015625)"/>
       <path id="Carlito-76" d="M 1694 0 
L 1197 0 
L 59 3056 
L 513 3056 
Q 575 3056 619 3022 
Q 663 2988 678 2944 
L 1331 988 
Q 1372 878 1400 775 
Q 1428 672 1453 566 
Q 1475 669 1504 773 
Q 1534 878 1578 988 
L 2241 2944 
Q 2259 2991 2301 3023 
Q 2344 3056 2397 3056 
L 2831 3056 
L 1694 0 
z
" transform="scale(0.015625)"/>
       <path id="Carlito-73" d="M 2122 2550 
Q 2084 2481 2009 2481 
Q 1963 2481 1908 2515 
Q 1853 2550 1776 2589 
Q 1700 2628 1595 2662 
Q 1491 2697 1347 2697 
Q 1225 2697 1128 2662 
Q 1031 2628 962 2568 
Q 894 2509 856 2429 
Q 819 2350 819 2259 
Q 819 2141 881 2062 
Q 944 1984 1047 1928 
Q 1150 1872 1283 1826 
Q 1416 1781 1553 1734 
Q 1691 1688 1823 1625 
Q 1956 1563 2059 1472 
Q 2163 1381 2225 1251 
Q 2288 1122 2288 938 
Q 2288 725 2216 545 
Q 2144 366 2005 234 
Q 1866 103 1661 28 
Q 1456 -47 1191 -47 
Q 888 -47 639 56 
Q 391 159 219 325 
L 347 531 
Q 372 572 406 594 
Q 441 616 494 616 
Q 550 616 606 573 
Q 663 531 742 479 
Q 822 428 934 386 
Q 1047 344 1216 344 
Q 1359 344 1464 384 
Q 1569 425 1637 492 
Q 1706 559 1740 650 
Q 1775 741 1775 841 
Q 1775 966 1711 1048 
Q 1647 1131 1544 1189 
Q 1441 1247 1308 1290 
Q 1175 1334 1036 1382 
Q 897 1431 764 1492 
Q 631 1553 528 1648 
Q 425 1744 361 1881 
Q 297 2019 297 2216 
Q 297 2394 365 2555 
Q 434 2716 565 2837 
Q 697 2959 890 3031 
Q 1084 3103 1334 3103 
Q 1619 3103 1850 3009 
Q 2081 2916 2244 2747 
L 2122 2550 
z
" transform="scale(0.015625)"/>
      </defs>
      <use xlink:href="#Carlito-6f" transform="translate(0 0.734375)"/>
      <use xlink:href="#Carlito-70" transform="translate(52.734375 0.734375)"/>
      <use xlink:href="#Carlito-74" transform="translate(105.273438 0.734375)"/>
      <use xlink:href="#Carlito-69" transform="translate(138.769531 0.734375)"/>
      <use xlink:href="#Carlito-6d" transform="translate(161.71875 0.734375)"/>
      <use xlink:href="#Carlito-61" transform="translate(241.601562 0.734375)"/>
      <use xlink:href="#Carlito-6c" transform="translate(289.501953 0.734375)"/>
      <use xlink:href="#Carlito-20" transform="translate(312.451172 0.734375)"/>
      <use xlink:href="#Carlito-69" transform="translate(335.058594 0.734375)"/>
      <use xlink:href="#Carlito-6e" transform="translate(358.007812 0.734375)"/>
      <use xlink:href="#Carlito-74" transform="translate(410.546875 0.734375)"/>
      <use xlink:href="#Carlito-65" transform="translate(444.042969 0.734375)"/>
      <use xlink:href="#Carlito-72" transform="translate(493.798828 0.734375)"/>
      <use xlink:href="#Carlito-76" transform="translate(528.662109 0.734375)"/>
      <use xlink:href="#Carlito-61" transform="translate(573.828125 0.734375)"/>
      <use xlink:href="#Carlito-6c" transform="translate(621.728516 0.734375)"/>
      <use xlink:href="#Carlito-20" transform="translate(644.677734 0.734375)"/>
      <use xlink:href="#Carlito-Italic-54" transform="translate(667.285156 0.734375)"/>
      <use xlink:href="#Carlito-73" transform="translate(716.015625 -13.590625) scale(0.7)"/>
      <use xlink:href="#Carlito-6c" transform="translate(743.393555 -13.590625) scale(0.7)"/>
      <use xlink:href="#Carlito-6f" transform="translate(759.458008 -13.590625) scale(0.7)"/>
      <use xlink:href="#Carlito-74" transform="translate(796.37207 -13.590625) scale(0.7)"/>
      <use xlink:href="#Carlito-20" transform="translate(822.206836 0.734375)"/>
      <use xlink:href="#Carlito-5b" transform="translate(844.814258 0.734375)"/>
      <use xlink:href="#Carlito-6d" transform="translate(875.47832 0.734375)"/>
      <use xlink:href="#Carlito-69" transform="translate(955.361133 0.734375)"/>
      <use xlink:href="#Carlito-6e" transform="translate(978.310352 0.734375)"/>
      <use xlink:href="#Carlito-5d" transform="translate(1030.849414 0.734375)"/>
     </g>
    </g>
   </g>
   <g id="line2d_51">
    <path d="M 214.535496 79.92 
L 220.761692 78.84 
L 230.776372 73.44 
L 241.687011 72.72 
L 257.063658 66.6 
L 276.75262 61.92 
L 308.421818 50.4 
" clip-path="url(#p4ad6f813c9)" style="fill: none; stroke: #800000; stroke-width: 1.5; stroke-linecap: square"/>
    <g clip-path="url(#p4ad6f813c9)">
     <use xlink:href="#m68d2a174c2" x="214.535496" y="79.92" style="fill: #800000; stroke: #800000"/>
     <use xlink:href="#m68d2a174c2" x="220.761692" y="78.84" style="fill: #800000; stroke: #800000"/>
     <use xlink:href="#m68d2a174c2" x="230.776372" y="73.44" style="fill: #800000; stroke: #800000"/>
     <use xlink:href="#m68d2a174c2" x="241.687011" y="72.72" style="fill: #800000; stroke: #800000"/>
     <use xlink:href="#m68d2a174c2" x="257.063658" y="66.6" style="fill: #800000; stroke: #800000"/>
     <use xlink:href="#m68d2a174c2" x="276.75262" y="61.92" style="fill: #800000; stroke: #800000"/>
     <use xlink:href="#m68d2a174c2" x="308.421818" y="50.4" style="fill: #800000; stroke: #800000"/>
    </g>
   </g>
   <g id="line2d_52">
    <path d="M 198.458182 91.330795 
L 308.421818 91.330795 
" clip-path="url(#p4ad6f813c9)" style="fill: none; stroke: #800080; stroke-opacity: 0.4; stroke-width: 1.5; stroke-linecap: square"/>
   </g>
   <g id="line2d_53">
    <path d="M 198.458182 80.499569 
L 308.421818 80.499569 
" clip-path="url(#p4ad6f813c9)" style="fill: none; stroke-dasharray: 5.55,2.4; stroke-dashoffset: 0; stroke: #800080; stroke-opacity: 0.4; stroke-width: 1.5"/>
   </g>
   <g id="patch_9">
    <path d="M 192.96 115.2 
L 192.96 7.2 
" style="fill: none; stroke: #000000; stroke-width: 0.8; stroke-linejoin: miter; stroke-linecap: square"/>
   </g>
   <g id="patch_10">
    <path d="M 313.92 115.2 
L 313.92 7.2 
" style="fill: none; stroke: #000000; stroke-width: 0.8; stroke-linejoin: miter; stroke-linecap: square"/>
   </g>
   <g id="patch_11">
    <path d="M 192.96 115.2 
L 313.92 115.2 
" style="fill: none; stroke: #000000; stroke-width: 0.8; stroke-linejoin: miter; stroke-linecap: square"/>
   </g>
   <g id="patch_12">
    <path d="M 192.96 7.2 
L 313.92 7.2 
" style="fill: none; stroke: #000000; stroke-width: 0.8; stroke-linejoin: miter; stroke-linecap: square"/>
   </g>
   <g id="text_31">
    <!-- $T_{\mathrm{cycle}}$ -->
    <g style="opacity: 0.4" transform="translate(292.981818 98.530795) scale(0.08 -0.08)">
     <use xlink:href="#Carlito-Italic-54" transform="translate(0 0.84375)"/>
     <use xlink:href="#Carlito-63" transform="translate(48.730469 -13.48125) scale(0.7)"/>
     <use xlink:href="#Carlito-79" transform="translate(78.330078 -13.48125) scale(0.7)"/>
     <use xlink:href="#Carlito-63" transform="translate(110.014648 -13.48125) scale(0.7)"/>
     <use xlink:href="#Carlito-6c" transform="translate(139.614258 -13.48125) scale(0.7)"/>
     <use xlink:href="#Carlito-65" transform="translate(155.678711 -13.48125) scale(0.7)"/>
    </g>
   </g>
   <g id="text_32">
    <!-- $T_{\mathrm{R}} = T_{\mathrm{cycle}} +\sigma_{\mathrm{cycle}}$ -->
    <g style="opacity: 0.4" transform="translate(256.981818 87.699569) scale(0.08 -0.08)">
     <use xlink:href="#Carlito-Italic-54" transform="translate(0 0.84375)"/>
     <use xlink:href="#Carlito-52" transform="translate(48.730469 -13.48125) scale(0.7)"/>
     <use xlink:href="#Carlito-3d" transform="translate(104.946094 0.84375)"/>
     <use xlink:href="#Carlito-Italic-54" transform="translate(170.571094 0.84375)"/>
     <use xlink:href="#Carlito-63" transform="translate(219.301562 -13.48125) scale(0.7)"/>
     <use xlink:href="#Carlito-79" transform="translate(248.901172 -13.48125) scale(0.7)"/>
     <use xlink:href="#Carlito-63" transform="translate(280.585742 -13.48125) scale(0.7)"/>
     <use xlink:href="#Carlito-6c" transform="translate(310.185352 -13.48125) scale(0.7)"/>
     <use xlink:href="#Carlito-65" transform="translate(326.249805 -13.48125) scale(0.7)"/>
     <use xlink:href="#Carlito-2b" transform="translate(379.286719 0.84375)"/>
     <use xlink:href="#Carlito-Italic-3c3" transform="translate(444.911719 0.84375)"/>
     <use xlink:href="#Carlito-63" transform="translate(498.085547 -13.48125) scale(0.7)"/>
     <use xlink:href="#Carlito-79" transform="translate(527.685156 -13.48125) scale(0.7)"/>
     <use xlink:href="#Carlito-63" transform="translate(559.369727 -13.48125) scale(0.7)"/>
     <use xlink:href="#Carlito-6c" transform="translate(588.969336 -13.48125) scale(0.7)"/>
     <use xlink:href="#Carlito-65" transform="translate(605.033789 -13.48125) scale(0.7)"/>
    </g>
   </g>
   <g id="legend_2">
    <g id="patch_13">
     <path d="M 216 24.48875 
L 308.32 24.48875 
Q 309.92 24.48875 309.92 22.88875 
L 309.92 12.8 
Q 309.92 11.2 308.32 11.2 
L 216 11.2 
Q 214.4 11.2 214.4 12.8 
L 214.4 22.88875 
Q 214.4 24.48875 216 24.48875 
z
" style="fill: #ffffff; opacity: 0.8; stroke: #cccccc; stroke-linejoin: miter"/>
    </g>
    <g id="line2d_54">
     <path d="M 217.6 17.2 
L 225.6 17.2 
L 233.6 17.2 
" style="fill: none; stroke: #800000; stroke-width: 1.5; stroke-linecap: square"/>
     <g>
      <use xlink:href="#m68d2a174c2" x="225.6" y="17.2" style="fill: #800000; stroke: #800000"/>
     </g>
    </g>
    <g id="text_33">
     <!-- channel width $W$ = 6 -->
     <g transform="translate(240 20) scale(0.08 -0.08)">
      <use xlink:href="#Carlito-63" transform="translate(0 0.5625)"/>
      <use xlink:href="#Carlito-68" transform="translate(42.285156 0.5625)"/>
      <use xlink:href="#Carlito-61" transform="translate(94.824219 0.5625)"/>
      <use xlink:href="#Carlito-6e" transform="translate(142.724609 0.5625)"/>
      <use xlink:href="#Carlito-6e" transform="translate(195.263672 0.5625)"/>
      <use xlink:href="#Carlito-65" transform="translate(247.802734 0.5625)"/>
      <use xlink:href="#Carlito-6c" transform="translate(297.558594 0.5625)"/>
      <use xlink:href="#Carlito-20" transform="translate(320.507812 0.5625)"/>
      <use xlink:href="#Carlito-77" transform="translate(343.115234 0.5625)"/>
      <use xlink:href="#Carlito-69" transform="translate(414.599609 0.5625)"/>
      <use xlink:href="#Carlito-64" transform="translate(437.548828 0.5625)"/>
      <use xlink:href="#Carlito-74" transform="translate(490.087891 0.5625)"/>
      <use xlink:href="#Carlito-68" transform="translate(523.583984 0.5625)"/>
      <use xlink:href="#Carlito-20" transform="translate(576.123047 0.5625)"/>
      <use xlink:href="#Carlito-Italic-57" transform="translate(598.730469 0.5625)"/>
      <use xlink:href="#Carlito-20" transform="translate(687.744141 0.5625)"/>
      <use xlink:href="#Carlito-3d" transform="translate(710.351562 0.5625)"/>
      <use xlink:href="#Carlito-20" transform="translate(760.15625 0.5625)"/>
      <use xlink:href="#Carlito-36" transform="translate(782.763672 0.5625)"/>
     </g>
    </g>
   </g>
  </g>
 </g>
 <defs>
  <clipPath id="pfec68c4c76">
   <rect x="36" y="7.2" width="120.96" height="108"/>
  </clipPath>
  <clipPath id="p4ad6f813c9">
   <rect x="192.96" y="7.2" width="120.96" height="108"/>
  </clipPath>
 </defs>
</svg>
