<?xml version="1.0" encoding="utf-8" standalone="no"?>
<!DOCTYPE svg PUBLIC "-//W3C//DTD SVG 1.1//EN"
  "http://www.w3.org/Graphics/SVG/1.1/DTD/svg11.dtd">
<svg xmlns:xlink="http://www.w3.org/1999/xlink" width="314.64pt" height="151.2pt" viewBox="0 0 314.64 151.2" xmlns="http://www.w3.org/2000/svg" version="1.1">
 <metadata>
  <rdf:RDF xmlns:dc="http://purl.org/dc/elements/1.1/" xmlns:cc="http://creativecommons.org/ns#" xmlns:rdf="http://www.w3.org/1999/02/22-rdf-syntax-ns#">
   <cc:Work>
    <dc:type rdf:resource="http://purl.org/dc/dcmitype/StillImage"/>
    <dc:date>2024-04-18T12:04:51.089881</dc:date>
    <dc:format>image/svg+xml</dc:format>
    <dc:creator>
     <cc:Agent>
      <dc:title>Matplotlib v3.7.1, https://matplotlib.org/</dc:title>
     </cc:Agent>
    </dc:creator>
   </cc:Work>
  </rdf:RDF>
 </metadata>
 <defs>
  <style type="text/css">*{stroke-linejoin: round; stroke-linecap: butt}</style>
 </defs>
 <g id="figure_1">
  <g id="patch_1">
   <path d="M 0 151.2 
L 314.64 151.2 
L 314.64 0 
L 0 0 
z
" style="fill: #ffffff"/>
  </g>
  <g id="axes_1">
   <g id="patch_2">
    <path d="M 36 115.2 
L 156.96 115.2 
L 156.96 7.2 
L 36 7.2 
z
" style="fill: #ffffff"/>
   </g>
   <g id="matplotlib.axis_1">
    <g id="xtick_1">
     <g id="line2d_1">
      <path d="M 68.989091 115.2 
L 68.989091 7.2 
" clip-path="url(#pb369bfec44)" style="fill: none; stroke-dasharray: 0.8,1.32; stroke-dashoffset: 0; stroke: #b0b0b0; stroke-width: 0.8"/>
     </g>
     <g id="line2d_2">
      <defs>
       <path id="m422694443f" d="M 0 0 
L 0 3.5 
" style="stroke: #000000; stroke-width: 0.8"/>
      </defs>
      <g>
       <use xlink:href="#m422694443f" x="68.989091" y="115.2" style="stroke: #000000; stroke-width: 0.8"/>
      </g>
     </g>
     <g id="text_1">
      <text style="font: 8px 'Carlito', sans-serif; text-anchor: middle" x="68.989091" y="127.755" transform="rotate(-0 68.989091 127.755)">5</text>
     </g>
    </g>
    <g id="xtick_2">
     <g id="line2d_3">
      <path d="M 123.970909 115.2 
L 123.970909 7.2 
" clip-path="url(#pb369bfec44)" style="fill: none; stroke-dasharray: 0.8,1.32; stroke-dashoffset: 0; stroke: #b0b0b0; stroke-width: 0.8"/>
     </g>
     <g id="line2d_4">
      <g>
       <use xlink:href="#m422694443f" x="123.970909" y="115.2" style="stroke: #000000; stroke-width: 0.8"/>
      </g>
     </g>
     <g id="text_2">
      <text style="font: 8px 'Carlito', sans-serif; text-anchor: middle" x="123.970909" y="127.755" transform="rotate(-0 123.970909 127.755)">10</text>
     </g>
    </g>
    <g id="text_3">
     <!-- channel width $W$ -->
     <g transform="translate(68.96 138.59875)">
      <text>
       <tspan style="font: 8px 'Carlito'" x="0 3.382812 7.585938 11.417969 15.621094 19.824219 23.804688 25.640625 27.449219 33.167969 35.003906 39.207031 41.886719 46.089844" y="-0.4375">channel width </tspan>
       <tspan style="font: italic 8px 'Carlito'" x="47.898438" y="-0.4375">W</tspan>
      </text>
     </g>
    </g>
   </g>
   <g id="matplotlib.axis_2">
    <g id="ytick_1">
     <g id="line2d_5">
      <path d="M 36 115.2 
L 156.96 115.2 
" clip-path="url(#pb369bfec44)" style="fill: none; stroke-dasharray: 0.8,1.32; stroke-dashoffset: 0; stroke: #b0b0b0; stroke-width: 0.8"/>
     </g>
     <g id="line2d_6">
      <defs>
       <path id="m5c98ae1f64" d="M 0 0 
L -3.5 0 
" style="stroke: #000000; stroke-width: 0.8"/>
      </defs>
      <g>
       <use xlink:href="#m5c98ae1f64" x="36" y="115.2" style="stroke: #000000; stroke-width: 0.8"/>
      </g>
     </g>
     <g id="text_4">
      <text style="font: 8px 'Carlito', sans-serif; text-anchor: end" x="29" y="117.9775" transform="rotate(-0 29 117.9775)">0.0</text>
     </g>
    </g>
    <g id="ytick_2">
     <g id="line2d_7">
      <path d="M 36 93.6 
L 156.96 93.6 
" clip-path="url(#pb369bfec44)" style="fill: none; stroke-dasharray: 0.8,1.32; stroke-dashoffset: 0; stroke: #b0b0b0; stroke-width: 0.8"/>
     </g>
     <g id="line2d_8">
      <g>
       <use xlink:href="#m5c98ae1f64" x="36" y="93.6" style="stroke: #000000; stroke-width: 0.8"/>
      </g>
     </g>
     <g id="text_5">
      <text style="font: 8px 'Carlito', sans-serif; text-anchor: end" x="29" y="96.3775" transform="rotate(-0 29 96.3775)">0.2</text>
     </g>
    </g>
    <g id="ytick_3">
     <g id="line2d_9">
      <path d="M 36 72 
L 156.96 72 
" clip-path="url(#pb369bfec44)" style="fill: none; stroke-dasharray: 0.8,1.32; stroke-dashoffset: 0; stroke: #b0b0b0; stroke-width: 0.8"/>
     </g>
     <g id="line2d_10">
      <g>
       <use xlink:href="#m5c98ae1f64" x="36" y="72" style="stroke: #000000; stroke-width: 0.8"/>
      </g>
     </g>
     <g id="text_6">
      <text style="font: 8px 'Carlito', sans-serif; text-anchor: end" x="29" y="74.7775" transform="rotate(-0 29 74.7775)">0.4</text>
     </g>
    </g>
    <g id="ytick_4">
     <g id="line2d_11">
      <path d="M 36 50.4 
L 156.96 50.4 
" clip-path="url(#pb369bfec44)" style="fill: none; stroke-dasharray: 0.8,1.32; stroke-dashoffset: 0; stroke: #b0b0b0; stroke-width: 0.8"/>
     </g>
     <g id="line2d_12">
      <g>
       <use xlink:href="#m5c98ae1f64" x="36" y="50.4" style="stroke: #000000; stroke-width: 0.8"/>
      </g>
     </g>
     <g id="text_7">
      <text style="font: 8px 'Carlito', sans-serif; text-anchor: end" x="29" y="53.1775" transform="rotate(-0 29 53.1775)">0.6</text>
     </g>
    </g>
    <g id="ytick_5">
     <g id="line2d_13">
      <path d="M 36 28.8 
L 156.96 28.8 
" clip-path="url(#pb369bfec44)" style="fill: none; stroke-dasharray: 0.8,1.32; stroke-dashoffset: 0; stroke: #b0b0b0; stroke-width: 0.8"/>
     </g>
     <g id="line2d_14">
      <g>
       <use xlink:href="#m5c98ae1f64" x="36" y="28.8" style="stroke: #000000; stroke-width: 0.8"/>
      </g>
     </g>
     <g id="text_8">
      <text style="font: 8px 'Carlito', sans-serif; text-anchor: end" x="29" y="31.5775" transform="rotate(-0 29 31.5775)">0.8</text>
     </g>
    </g>
    <g id="ytick_6">
     <g id="line2d_15">
      <path d="M 36 7.2 
L 156.96 7.2 
" clip-path="url(#pb369bfec44)" style="fill: none; stroke-dasharray: 0.8,1.32; stroke-dashoffset: 0; stroke: #b0b0b0; stroke-width: 0.8"/>
     </g>
     <g id="line2d_16">
      <g>
       <use xlink:href="#m5c98ae1f64" x="36" y="7.2" style="stroke: #000000; stroke-width: 0.8"/>
      </g>
     </g>
     <g id="text_9">
      <text style="font: 8px 'Carlito', sans-serif; text-anchor: end" x="29" y="9.9775" transform="rotate(-0 29 9.9775)">1.0</text>
     </g>
    </g>
    <g id="text_10">
     <text style="font: 8px 'Carlito', sans-serif; text-anchor: middle" x="13.58125" y="61.2" transform="rotate(-90 13.58125 61.2)">max bitrate [bit/h]</text>
    </g>
   </g>
   <g id="line2d_17">
    <path d="M 46.996364 90.413506 
L 57.992727 75.882648 
L 68.989091 69.425829 
L 79.985455 68.451506 
L 90.981818 69.595839 
L 101.978182 72.404075 
L 112.974545 73.142823 
L 123.970909 74.86416 
L 134.967273 76.965809 
L 145.963636 78.943063 
" clip-path="url(#pb369bfec44)" style="fill: none; stroke: #ff7f0e; stroke-linecap: square"/>
    <defs>
     <path id="m80553a78c6" d="M 0 2.5 
C 0.663008 2.5 1.29895 2.236584 1.767767 1.767767 
C 2.236584 1.29895 2.5 0.663008 2.5 0 
C 2.5 -0.663008 2.236584 -1.29895 1.767767 -1.767767 
C 1.29895 -2.236584 0.663008 -2.5 0 -2.5 
C -0.663008 -2.5 -1.29895 -2.236584 -1.767767 -1.767767 
C -2.236584 -1.29895 -2.5 -0.663008 -2.5 0 
C -2.5 0.663008 -2.236584 1.29895 -1.767767 1.767767 
C -1.29895 2.236584 -0.663008 2.5 0 2.5 
z
" style="stroke: #ff7f0e"/>
    </defs>
    <g clip-path="url(#pb369bfec44)">
     <use xlink:href="#m80553a78c6" x="46.996364" y="90.413506" style="fill: #ff7f0e; stroke: #ff7f0e"/>
     <use xlink:href="#m80553a78c6" x="57.992727" y="75.882648" style="fill: #ff7f0e; stroke: #ff7f0e"/>
     <use xlink:href="#m80553a78c6" x="68.989091" y="69.425829" style="fill: #ff7f0e; stroke: #ff7f0e"/>
     <use xlink:href="#m80553a78c6" x="79.985455" y="68.451506" style="fill: #ff7f0e; stroke: #ff7f0e"/>
     <use xlink:href="#m80553a78c6" x="90.981818" y="69.595839" style="fill: #ff7f0e; stroke: #ff7f0e"/>
     <use xlink:href="#m80553a78c6" x="101.978182" y="72.404075" style="fill: #ff7f0e; stroke: #ff7f0e"/>
     <use xlink:href="#m80553a78c6" x="112.974545" y="73.142823" style="fill: #ff7f0e; stroke: #ff7f0e"/>
     <use xlink:href="#m80553a78c6" x="123.970909" y="74.86416" style="fill: #ff7f0e; stroke: #ff7f0e"/>
     <use xlink:href="#m80553a78c6" x="134.967273" y="76.965809" style="fill: #ff7f0e; stroke: #ff7f0e"/>
     <use xlink:href="#m80553a78c6" x="145.963636" y="78.943063" style="fill: #ff7f0e; stroke: #ff7f0e"/>
    </g>
   </g>
   <g id="line2d_18">
    <path d="M 46.996364 104.808985 
L 57.992727 88.279829 
L 68.989091 79.52456 
L 79.985455 78.75828 
L 90.981818 80.886895 
L 101.978182 84.973451 
L 112.974545 87.562316 
L 123.970909 91.633461 
L 134.967273 96.26417 
L 145.963636 102.709994 
" clip-path="url(#pb369bfec44)" style="fill: none; stroke: #2ca02c; stroke-linecap: square"/>
    <defs>
     <path id="mc49edff322" d="M 0 2.5 
C 0.663008 2.5 1.29895 2.236584 1.767767 1.767767 
C 2.236584 1.29895 2.5 0.663008 2.5 0 
C 2.5 -0.663008 2.236584 -1.29895 1.767767 -1.767767 
C 1.29895 -2.236584 0.663008 -2.5 0 -2.5 
C -0.663008 -2.5 -1.29895 -2.236584 -1.767767 -1.767767 
C -2.236584 -1.29895 -2.5 -0.663008 -2.5 0 
C -2.5 0.663008 -2.236584 1.29895 -1.767767 1.767767 
C -1.29895 2.236584 -0.663008 2.5 0 2.5 
z
" style="stroke: #2ca02c"/>
    </defs>
    <g clip-path="url(#pb369bfec44)">
     <use xlink:href="#mc49edff322" x="46.996364" y="104.808985" style="fill: #2ca02c; stroke: #2ca02c"/>
     <use xlink:href="#mc49edff322" x="57.992727" y="88.279829" style="fill: #2ca02c; stroke: #2ca02c"/>
     <use xlink:href="#mc49edff322" x="68.989091" y="79.52456" style="fill: #2ca02c; stroke: #2ca02c"/>
     <use xlink:href="#mc49edff322" x="79.985455" y="78.75828" style="fill: #2ca02c; stroke: #2ca02c"/>
     <use xlink:href="#mc49edff322" x="90.981818" y="80.886895" style="fill: #2ca02c; stroke: #2ca02c"/>
     <use xlink:href="#mc49edff322" x="101.978182" y="84.973451" style="fill: #2ca02c; stroke: #2ca02c"/>
     <use xlink:href="#mc49edff322" x="112.974545" y="87.562316" style="fill: #2ca02c; stroke: #2ca02c"/>
     <use xlink:href="#mc49edff322" x="123.970909" y="91.633461" style="fill: #2ca02c; stroke: #2ca02c"/>
     <use xlink:href="#mc49edff322" x="134.967273" y="96.26417" style="fill: #2ca02c; stroke: #2ca02c"/>
     <use xlink:href="#mc49edff322" x="145.963636" y="102.709994" style="fill: #2ca02c; stroke: #2ca02c"/>
    </g>
   </g>
   <g id="line2d_19">
    <path d="M 46.996364 114.164219 
L 57.992727 103.995778 
L 68.989091 95.057757 
L 79.985455 93.891522 
L 90.981818 96.273111 
L 101.978182 100.89625 
L 112.974545 106.946662 
L 123.970909 112.362151 
L 134.967273 114.725927 
L 145.963636 115.098196 
" clip-path="url(#pb369bfec44)" style="fill: none; stroke: #d62728; stroke-linecap: square"/>
    <defs>
     <path id="m94d4971809" d="M 0 2.5 
C 0.663008 2.5 1.29895 2.236584 1.767767 1.767767 
C 2.236584 1.29895 2.5 0.663008 2.5 0 
C 2.5 -0.663008 2.236584 -1.29895 1.767767 -1.767767 
C 1.29895 -2.236584 0.663008 -2.5 0 -2.5 
C -0.663008 -2.5 -1.29895 -2.236584 -1.767767 -1.767767 
C -2.236584 -1.29895 -2.5 -0.663008 -2.5 0 
C -2.5 0.663008 -2.236584 1.29895 -1.767767 1.767767 
C -1.29895 2.236584 -0.663008 2.5 0 2.5 
z
" style="stroke: #d62728"/>
    </defs>
    <g clip-path="url(#pb369bfec44)">
     <use xlink:href="#m94d4971809" x="46.996364" y="114.164219" style="fill: #d62728; stroke: #d62728"/>
     <use xlink:href="#m94d4971809" x="57.992727" y="103.995778" style="fill: #d62728; stroke: #d62728"/>
     <use xlink:href="#m94d4971809" x="68.989091" y="95.057757" style="fill: #d62728; stroke: #d62728"/>
     <use xlink:href="#m94d4971809" x="79.985455" y="93.891522" style="fill: #d62728; stroke: #d62728"/>
     <use xlink:href="#m94d4971809" x="90.981818" y="96.273111" style="fill: #d62728; stroke: #d62728"/>
     <use xlink:href="#m94d4971809" x="101.978182" y="100.89625" style="fill: #d62728; stroke: #d62728"/>
     <use xlink:href="#m94d4971809" x="112.974545" y="106.946662" style="fill: #d62728; stroke: #d62728"/>
     <use xlink:href="#m94d4971809" x="123.970909" y="112.362151" style="fill: #d62728; stroke: #d62728"/>
     <use xlink:href="#m94d4971809" x="134.967273" y="114.725927" style="fill: #d62728; stroke: #d62728"/>
     <use xlink:href="#m94d4971809" x="145.963636" y="115.098196" style="fill: #d62728; stroke: #d62728"/>
    </g>
   </g>
   <g id="patch_3">
    <path d="M 36 115.2 
L 36 7.2 
" style="fill: none; stroke: #000000; stroke-width: 0.8; stroke-linejoin: miter; stroke-linecap: square"/>
   </g>
   <g id="patch_4">
    <path d="M 156.96 115.2 
L 156.96 7.2 
" style="fill: none; stroke: #000000; stroke-width: 0.8; stroke-linejoin: miter; stroke-linecap: square"/>
   </g>
   <g id="patch_5">
    <path d="M 36 115.2 
L 156.96 115.2 
" style="fill: none; stroke: #000000; stroke-width: 0.8; stroke-linejoin: miter; stroke-linecap: square"/>
   </g>
   <g id="patch_6">
    <path d="M 36 7.2 
L 156.96 7.2 
" style="fill: none; stroke: #000000; stroke-width: 0.8; stroke-linejoin: miter; stroke-linecap: square"/>
   </g>
   <g id="legend_1">
    <g id="patch_7">
     <path d="M 94.8 57.30625 
L 151.36 57.30625 
Q 152.96 57.30625 152.96 55.70625 
L 152.96 12.8 
Q 152.96 11.2 151.36 11.2 
L 94.8 11.2 
Q 93.2 11.2 93.2 12.8 
L 93.2 55.70625 
Q 93.2 57.30625 94.8 57.30625 
z
" style="fill: #ffffff; opacity: 0.8; stroke: #cccccc; stroke-linejoin: miter"/>
    </g>
    <g id="text_11">
     <!-- channel length $L$ -->
     <g transform="translate(96.4 20)">
      <text>
       <tspan style="font: 8px 'Carlito'" x="0 3.382812 7.585938 11.417969 15.621094 19.824219 23.804688 25.640625 27.449219 29.285156 33.265625 37.46875 41.234375 43.914062 48.117188" y="-0.4375">channel length </tspan>
       <tspan style="font: italic 8px 'Carlito'" x="49.925781" y="-0.4375">L</tspan>
      </text>
     </g>
    </g>
    <g id="line2d_20">
     <path d="M 103.77 28.24 
L 111.77 28.24 
L 119.77 28.24 
" style="fill: none; stroke: #ff7f0e; stroke-linecap: square"/>
     <g>
      <use xlink:href="#m80553a78c6" x="111.77" y="28.24" style="fill: #ff7f0e; stroke: #ff7f0e"/>
     </g>
    </g>
    <g id="text_12">
     <text style="font: 8px 'Carlito', sans-serif; text-anchor: start" x="126.17" y="31.04" transform="rotate(-0 126.17 31.04)">100</text>
    </g>
    <g id="line2d_21">
     <path d="M 103.77 39.12875 
L 111.77 39.12875 
L 119.77 39.12875 
" style="fill: none; stroke: #2ca02c; stroke-linecap: square"/>
     <g>
      <use xlink:href="#mc49edff322" x="111.77" y="39.12875" style="fill: #2ca02c; stroke: #2ca02c"/>
     </g>
    </g>
    <g id="text_13">
     <text style="font: 8px 'Carlito', sans-serif; text-anchor: start" x="126.17" y="41.92875" transform="rotate(-0 126.17 41.92875)">300</text>
    </g>
    <g id="line2d_22">
     <path d="M 103.77 50.0175 
L 111.77 50.0175 
L 119.77 50.0175 
" style="fill: none; stroke: #d62728; stroke-linecap: square"/>
     <g>
      <use xlink:href="#m94d4971809" x="111.77" y="50.0175" style="fill: #d62728; stroke: #d62728"/>
     </g>
    </g>
    <g id="text_14">
     <text style="font: 8px 'Carlito', sans-serif; text-anchor: start" x="126.17" y="52.8175" transform="rotate(-0 126.17 52.8175)">1000</text>
    </g>
   </g>
  </g>
  <g id="axes_2">
   <g id="patch_8">
    <path d="M 192.96 115.2 
L 313.92 115.2 
L 313.92 7.2 
L 192.96 7.2 
z
" style="fill: #ffffff"/>
   </g>
   <g id="matplotlib.axis_3">
    <g id="xtick_3">
     <g id="line2d_23">
      <path d="M 225.949091 115.2 
L 225.949091 7.2 
" clip-path="url(#p50e3fa8c16)" style="fill: none; stroke-dasharray: 0.8,1.32; stroke-dashoffset: 0; stroke: #b0b0b0; stroke-width: 0.8"/>
     </g>
     <g id="line2d_24">
      <g>
       <use xlink:href="#m422694443f" x="225.949091" y="115.2" style="stroke: #000000; stroke-width: 0.8"/>
      </g>
     </g>
     <g id="text_15">
      <text style="font: 8px 'Carlito', sans-serif; text-anchor: middle" x="225.949091" y="127.755" transform="rotate(-0 225.949091 127.755)">5</text>
     </g>
    </g>
    <g id="xtick_4">
     <g id="line2d_25">
      <path d="M 280.930909 115.2 
L 280.930909 7.2 
" clip-path="url(#p50e3fa8c16)" style="fill: none; stroke-dasharray: 0.8,1.32; stroke-dashoffset: 0; stroke: #b0b0b0; stroke-width: 0.8"/>
     </g>
     <g id="line2d_26">
      <g>
       <use xlink:href="#m422694443f" x="280.930909" y="115.2" style="stroke: #000000; stroke-width: 0.8"/>
      </g>
     </g>
     <g id="text_16">
      <text style="font: 8px 'Carlito', sans-serif; text-anchor: middle" x="280.930909" y="127.755" transform="rotate(-0 280.930909 127.755)">10</text>
     </g>
    </g>
    <g id="text_17">
     <!-- channel width $W$ -->
     <g transform="translate(225.92 138.59875)">
      <text>
       <tspan style="font: 8px 'Carlito'" x="0 3.382812 7.585938 11.417969 15.621094 19.824219 23.804688 25.640625 27.449219 33.167969 35.003906 39.207031 41.886719 46.089844" y="-0.4375">channel width </tspan>
       <tspan style="font: italic 8px 'Carlito'" x="47.898438" y="-0.4375">W</tspan>
      </text>
     </g>
    </g>
   </g>
   <g id="matplotlib.axis_4">
    <g id="ytick_7">
     <g id="line2d_27">
      <path d="M 192.96 115.2 
L 313.92 115.2 
" clip-path="url(#p50e3fa8c16)" style="fill: none; stroke-dasharray: 0.8,1.32; stroke-dashoffset: 0; stroke: #b0b0b0; stroke-width: 0.8"/>
     </g>
     <g id="line2d_28">
      <g>
       <use xlink:href="#m5c98ae1f64" x="192.96" y="115.2" style="stroke: #000000; stroke-width: 0.8"/>
      </g>
     </g>
     <g id="text_18">
      <text style="font: 8px 'Carlito', sans-serif; text-anchor: end" x="185.96" y="117.9775" transform="rotate(-0 185.96 117.9775)">0</text>
     </g>
    </g>
    <g id="ytick_8">
     <g id="line2d_29">
      <path d="M 192.96 97.2 
L 313.92 97.2 
" clip-path="url(#p50e3fa8c16)" style="fill: none; stroke-dasharray: 0.8,1.32; stroke-dashoffset: 0; stroke: #b0b0b0; stroke-width: 0.8"/>
     </g>
     <g id="line2d_30">
      <g>
       <use xlink:href="#m5c98ae1f64" x="192.96" y="97.2" style="stroke: #000000; stroke-width: 0.8"/>
      </g>
     </g>
     <g id="text_19">
      <text style="font: 8px 'Carlito', sans-serif; text-anchor: end" x="185.96" y="99.9775" transform="rotate(-0 185.96 99.9775)">50</text>
     </g>
    </g>
    <g id="ytick_9">
     <g id="line2d_31">
      <path d="M 192.96 79.2 
L 313.92 79.2 
" clip-path="url(#p50e3fa8c16)" style="fill: none; stroke-dasharray: 0.8,1.32; stroke-dashoffset: 0; stroke: #b0b0b0; stroke-width: 0.8"/>
     </g>
     <g id="line2d_32">
      <g>
       <use xlink:href="#m5c98ae1f64" x="192.96" y="79.2" style="stroke: #000000; stroke-width: 0.8"/>
      </g>
     </g>
     <g id="text_20">
      <text style="font: 8px 'Carlito', sans-serif; text-anchor: end" x="185.96" y="81.9775" transform="rotate(-0 185.96 81.9775)">100</text>
     </g>
    </g>
    <g id="ytick_10">
     <g id="line2d_33">
      <path d="M 192.96 61.2 
L 313.92 61.2 
" clip-path="url(#p50e3fa8c16)" style="fill: none; stroke-dasharray: 0.8,1.32; stroke-dashoffset: 0; stroke: #b0b0b0; stroke-width: 0.8"/>
     </g>
     <g id="line2d_34">
      <g>
       <use xlink:href="#m5c98ae1f64" x="192.96" y="61.2" style="stroke: #000000; stroke-width: 0.8"/>
      </g>
     </g>
     <g id="text_21">
      <text style="font: 8px 'Carlito', sans-serif; text-anchor: end" x="185.96" y="63.9775" transform="rotate(-0 185.96 63.9775)">150</text>
     </g>
    </g>
    <g id="ytick_11">
     <g id="line2d_35">
      <path d="M 192.96 43.2 
L 313.92 43.2 
" clip-path="url(#p50e3fa8c16)" style="fill: none; stroke-dasharray: 0.8,1.32; stroke-dashoffset: 0; stroke: #b0b0b0; stroke-width: 0.8"/>
     </g>
     <g id="line2d_36">
      <g>
       <use xlink:href="#m5c98ae1f64" x="192.96" y="43.2" style="stroke: #000000; stroke-width: 0.8"/>
      </g>
     </g>
     <g id="text_22">
      <text style="font: 8px 'Carlito', sans-serif; text-anchor: end" x="185.96" y="45.9775" transform="rotate(-0 185.96 45.9775)">200</text>
     </g>
    </g>
    <g id="ytick_12">
     <g id="line2d_37">
      <path d="M 192.96 25.2 
L 313.92 25.2 
" clip-path="url(#p50e3fa8c16)" style="fill: none; stroke-dasharray: 0.8,1.32; stroke-dashoffset: 0; stroke: #b0b0b0; stroke-width: 0.8"/>
     </g>
     <g id="line2d_38">
      <g>
       <use xlink:href="#m5c98ae1f64" x="192.96" y="25.2" style="stroke: #000000; stroke-width: 0.8"/>
      </g>
     </g>
     <g id="text_23">
      <text style="font: 8px 'Carlito', sans-serif; text-anchor: end" x="185.96" y="27.9775" transform="rotate(-0 185.96 27.9775)">250</text>
     </g>
    </g>
    <g id="ytick_13">
     <g id="line2d_39">
      <path d="M 192.96 7.2 
L 313.92 7.2 
" clip-path="url(#p50e3fa8c16)" style="fill: none; stroke-dasharray: 0.8,1.32; stroke-dashoffset: 0; stroke: #b0b0b0; stroke-width: 0.8"/>
     </g>
     <g id="line2d_40">
      <g>
       <use xlink:href="#m5c98ae1f64" x="192.96" y="7.2" style="stroke: #000000; stroke-width: 0.8"/>
      </g>
     </g>
     <g id="text_24">
      <text style="font: 8px 'Carlito', sans-serif; text-anchor: end" x="185.96" y="9.9775" transform="rotate(-0 185.96 9.9775)">300</text>
     </g>
    </g>
    <g id="text_25">
     <text style="font: 8px 'Carlito', sans-serif; text-anchor: middle" x="168.50625" y="61.2" transform="rotate(-90 168.50625 61.2)">optimal interval [min]</text>
    </g>
   </g>
   <g id="line2d_41">
    <path d="M 203.956364 77.4 
L 214.952727 73.8 
L 225.949091 75.96 
L 236.945455 73.44 
L 247.941818 70.92 
L 258.938182 69.84 
L 269.934545 69.84 
L 280.930909 67.32 
L 291.927273 65.88 
L 302.923636 61.56 
" clip-path="url(#p50e3fa8c16)" style="fill: none; stroke: #ff7f0e; stroke-linecap: square"/>
    <g clip-path="url(#p50e3fa8c16)">
     <use xlink:href="#m80553a78c6" x="203.956364" y="77.4" style="fill: #ff7f0e; stroke: #ff7f0e"/>
     <use xlink:href="#m80553a78c6" x="214.952727" y="73.8" style="fill: #ff7f0e; stroke: #ff7f0e"/>
     <use xlink:href="#m80553a78c6" x="225.949091" y="75.96" style="fill: #ff7f0e; stroke: #ff7f0e"/>
     <use xlink:href="#m80553a78c6" x="236.945455" y="73.44" style="fill: #ff7f0e; stroke: #ff7f0e"/>
     <use xlink:href="#m80553a78c6" x="247.941818" y="70.92" style="fill: #ff7f0e; stroke: #ff7f0e"/>
     <use xlink:href="#m80553a78c6" x="258.938182" y="69.84" style="fill: #ff7f0e; stroke: #ff7f0e"/>
     <use xlink:href="#m80553a78c6" x="269.934545" y="69.84" style="fill: #ff7f0e; stroke: #ff7f0e"/>
     <use xlink:href="#m80553a78c6" x="280.930909" y="67.32" style="fill: #ff7f0e; stroke: #ff7f0e"/>
     <use xlink:href="#m80553a78c6" x="291.927273" y="65.88" style="fill: #ff7f0e; stroke: #ff7f0e"/>
     <use xlink:href="#m80553a78c6" x="302.923636" y="61.56" style="fill: #ff7f0e; stroke: #ff7f0e"/>
    </g>
   </g>
   <g id="line2d_42">
    <path d="M 203.956364 64.08 
L 214.952727 68.4 
L 225.949091 68.04 
L 236.945455 66.6 
L 247.941818 65.16 
L 258.938182 62.28 
L 269.934545 55.8 
L 280.930909 54 
L 291.927273 52.2 
L 302.923636 46.44 
" clip-path="url(#p50e3fa8c16)" style="fill: none; stroke: #2ca02c; stroke-linecap: square"/>
    <g clip-path="url(#p50e3fa8c16)">
     <use xlink:href="#mc49edff322" x="203.956364" y="64.08" style="fill: #2ca02c; stroke: #2ca02c"/>
     <use xlink:href="#mc49edff322" x="214.952727" y="68.4" style="fill: #2ca02c; stroke: #2ca02c"/>
     <use xlink:href="#mc49edff322" x="225.949091" y="68.04" style="fill: #2ca02c; stroke: #2ca02c"/>
     <use xlink:href="#mc49edff322" x="236.945455" y="66.6" style="fill: #2ca02c; stroke: #2ca02c"/>
     <use xlink:href="#mc49edff322" x="247.941818" y="65.16" style="fill: #2ca02c; stroke: #2ca02c"/>
     <use xlink:href="#mc49edff322" x="258.938182" y="62.28" style="fill: #2ca02c; stroke: #2ca02c"/>
     <use xlink:href="#mc49edff322" x="269.934545" y="55.8" style="fill: #2ca02c; stroke: #2ca02c"/>
     <use xlink:href="#mc49edff322" x="280.930909" y="54" style="fill: #2ca02c; stroke: #2ca02c"/>
     <use xlink:href="#mc49edff322" x="291.927273" y="52.2" style="fill: #2ca02c; stroke: #2ca02c"/>
     <use xlink:href="#mc49edff322" x="302.923636" y="46.44" style="fill: #2ca02c; stroke: #2ca02c"/>
    </g>
   </g>
   <g id="line2d_43">
    <path d="M 203.956364 42.84 
L 214.952727 48.96 
L 225.949091 52.56 
L 236.945455 50.4 
L 247.941818 48.6 
L 258.938182 50.76 
L 269.934545 42.84 
L 280.930909 47.16 
L 291.927273 43.2 
L 302.923636 45.36 
" clip-path="url(#p50e3fa8c16)" style="fill: none; stroke: #d62728; stroke-linecap: square"/>
    <g clip-path="url(#p50e3fa8c16)">
     <use xlink:href="#m94d4971809" x="203.956364" y="42.84" style="fill: #d62728; stroke: #d62728"/>
     <use xlink:href="#m94d4971809" x="214.952727" y="48.96" style="fill: #d62728; stroke: #d62728"/>
     <use xlink:href="#m94d4971809" x="225.949091" y="52.56" style="fill: #d62728; stroke: #d62728"/>
     <use xlink:href="#m94d4971809" x="236.945455" y="50.4" style="fill: #d62728; stroke: #d62728"/>
     <use xlink:href="#m94d4971809" x="247.941818" y="48.6" style="fill: #d62728; stroke: #d62728"/>
     <use xlink:href="#m94d4971809" x="258.938182" y="50.76" style="fill: #d62728; stroke: #d62728"/>
     <use xlink:href="#m94d4971809" x="269.934545" y="42.84" style="fill: #d62728; stroke: #d62728"/>
     <use xlink:href="#m94d4971809" x="280.930909" y="47.16" style="fill: #d62728; stroke: #d62728"/>
     <use xlink:href="#m94d4971809" x="291.927273" y="43.2" style="fill: #d62728; stroke: #d62728"/>
     <use xlink:href="#m94d4971809" x="302.923636" y="45.36" style="fill: #d62728; stroke: #d62728"/>
    </g>
   </g>
   <g id="patch_9">
    <path d="M 192.96 115.2 
L 192.96 7.2 
" style="fill: none; stroke: #000000; stroke-width: 0.8; stroke-linejoin: miter; stroke-linecap: square"/>
   </g>
   <g id="patch_10">
    <path d="M 313.92 115.2 
L 313.92 7.2 
" style="fill: none; stroke: #000000; stroke-width: 0.8; stroke-linejoin: miter; stroke-linecap: square"/>
   </g>
   <g id="patch_11">
    <path d="M 192.96 115.2 
L 313.92 115.2 
" style="fill: none; stroke: #000000; stroke-width: 0.8; stroke-linejoin: miter; stroke-linecap: square"/>
   </g>
   <g id="patch_12">
    <path d="M 192.96 7.2 
L 313.92 7.2 
" style="fill: none; stroke: #000000; stroke-width: 0.8; stroke-linejoin: miter; stroke-linecap: square"/>
   </g>
   <g id="legend_2">
    <g id="patch_13">
     <path d="M 251.1 111.2 
L 308.32 111.2 
Q 309.92 111.2 309.92 109.6 
L 309.92 91.6015 
Q 309.92 90.0015 308.32 90.0015 
L 251.1 90.0015 
Q 249.5 90.0015 249.5 91.6015 
L 249.5 109.6 
Q 249.5 111.2 251.1 111.2 
z
" style="fill: #ffffff; opacity: 0.8; stroke: #cccccc; stroke-linejoin: miter"/>
    </g>
    <g id="line2d_44">
     <path d="M 252.7 100.57825 
L 254.3 100.57825 
L 255.9 100.57825 
" style="fill: none; stroke: #ff7f0e; stroke-linecap: square"/>
     <g>
      <use xlink:href="#m80553a78c6" x="254.3" y="100.57825" style="fill: #ff7f0e; stroke: #ff7f0e"/>
     </g>
    </g>
    <g id="line2d_45">
     <path d="M 258.033333 100.57825 
L 259.633333 100.57825 
L 261.233333 100.57825 
" style="fill: none; stroke: #2ca02c; stroke-linecap: square"/>
     <g>
      <use xlink:href="#mc49edff322" x="259.633333" y="100.57825" style="fill: #2ca02c; stroke: #2ca02c"/>
     </g>
    </g>
    <g id="line2d_46">
     <path d="M 263.366667 100.57825 
L 264.966667 100.57825 
L 266.566667 100.57825 
" style="fill: none; stroke: #d62728; stroke-linecap: square"/>
     <g>
      <use xlink:href="#m94d4971809" x="264.966667" y="100.57825" style="fill: #d62728; stroke: #d62728"/>
     </g>
    </g>
    <g id="text_26">
     <text style="font: 8px 'Carlito', sans-serif" transform="translate(275.1 98.7565)">colors as </text>
     <text style="font: 8px 'Carlito', sans-serif" transform="translate(275.1 106.71125)">in panel E</text>
    </g>
   </g>
  </g>
 </g>
 <defs>
  <clipPath id="pb369bfec44">
   <rect x="36" y="7.2" width="120.96" height="108"/>
  </clipPath>
  <clipPath id="p50e3fa8c16">
   <rect x="192.96" y="7.2" width="120.96" height="108"/>
  </clipPath>
 </defs>
</svg>
