<?xml version="1.0" encoding="utf-8" standalone="no"?>
<!DOCTYPE svg PUBLIC "-//W3C//DTD SVG 1.1//EN"
  "http://www.w3.org/Graphics/SVG/1.1/DTD/svg11.dtd">
<svg xmlns:xlink="http://www.w3.org/1999/xlink" width="482.4pt" height="151.2pt" viewBox="0 0 482.4 151.2" xmlns="http://www.w3.org/2000/svg" version="1.1">
 <metadata>
  <rdf:RDF xmlns:dc="http://purl.org/dc/elements/1.1/" xmlns:cc="http://creativecommons.org/ns#" xmlns:rdf="http://www.w3.org/1999/02/22-rdf-syntax-ns#">
   <cc:Work>
    <dc:type rdf:resource="http://purl.org/dc/dcmitype/StillImage"/>
    <dc:date>2023-12-15T08:39:05.684904</dc:date>
    <dc:format>image/svg+xml</dc:format>
    <dc:creator>
     <cc:Agent>
      <dc:title>Matplotlib v3.8.0, https://matplotlib.org/</dc:title>
     </cc:Agent>
    </dc:creator>
   </cc:Work>
  </rdf:RDF>
 </metadata>
 <defs>
  <style type="text/css">*{stroke-linejoin: round; stroke-linecap: butt}</style>
 </defs>
 <g id="figure_1">
  <g id="patch_1">
   <path d="M 0 151.2 
L 482.4 151.2 
L 482.4 0 
L 0 0 
z
" style="fill: #ffffff"/>
  </g>
  <g id="axes_1">
   <g id="patch_2">
    <path d="M 36 115.2 
L 234 115.2 
L 234 7.2 
L 36 7.2 
z
" style="fill: #ffffff"/>
   </g>
   <g id="matplotlib.axis_1">
    <g id="xtick_1">
     <g id="line2d_1">
      <path d="M 36 115.2 
L 36 7.2 
" clip-path="url(#pf7a53205cf)" style="fill: none; stroke-dasharray: 0.8,1.32; stroke-dashoffset: 0; stroke: #b0b0b0; stroke-width: 0.8"/>
     </g>
     <g id="line2d_2">
      <defs>
       <path id="m55e6f9c5b3" d="M 0 0 
L 0 3.5 
" style="stroke: #000000; stroke-width: 0.8"/>
      </defs>
      <g>
       <use xlink:href="#m55e6f9c5b3" x="36" y="115.2" style="stroke: #000000; stroke-width: 0.8"/>
      </g>
     </g>
     <g id="text_1">
      <text style="font: 8px 'Carlito', sans-serif; text-anchor: middle" x="36" y="127.755" transform="rotate(-0 36 127.755)">0</text>
     </g>
    </g>
    <g id="xtick_2">
     <g id="line2d_3">
      <path d="M 70.91076 115.2 
L 70.91076 7.2 
" clip-path="url(#pf7a53205cf)" style="fill: none; stroke-dasharray: 0.8,1.32; stroke-dashoffset: 0; stroke: #b0b0b0; stroke-width: 0.8"/>
     </g>
     <g id="line2d_4">
      <g>
       <use xlink:href="#m55e6f9c5b3" x="70.91076" y="115.2" style="stroke: #000000; stroke-width: 0.8"/>
      </g>
     </g>
     <g id="text_2">
      <text style="font: 8px 'Carlito', sans-serif; text-anchor: middle" x="70.91076" y="127.755" transform="rotate(-0 70.91076 127.755)">1</text>
     </g>
    </g>
    <g id="xtick_3">
     <g id="line2d_5">
      <path d="M 105.821519 115.2 
L 105.821519 7.2 
" clip-path="url(#pf7a53205cf)" style="fill: none; stroke-dasharray: 0.8,1.32; stroke-dashoffset: 0; stroke: #b0b0b0; stroke-width: 0.8"/>
     </g>
     <g id="line2d_6">
      <g>
       <use xlink:href="#m55e6f9c5b3" x="105.821519" y="115.2" style="stroke: #000000; stroke-width: 0.8"/>
      </g>
     </g>
     <g id="text_3">
      <text style="font: 8px 'Carlito', sans-serif; text-anchor: middle" x="105.821519" y="127.755" transform="rotate(-0 105.821519 127.755)">2</text>
     </g>
    </g>
    <g id="xtick_4">
     <g id="line2d_7">
      <path d="M 140.732279 115.2 
L 140.732279 7.2 
" clip-path="url(#pf7a53205cf)" style="fill: none; stroke-dasharray: 0.8,1.32; stroke-dashoffset: 0; stroke: #b0b0b0; stroke-width: 0.8"/>
     </g>
     <g id="line2d_8">
      <g>
       <use xlink:href="#m55e6f9c5b3" x="140.732279" y="115.2" style="stroke: #000000; stroke-width: 0.8"/>
      </g>
     </g>
     <g id="text_4">
      <text style="font: 8px 'Carlito', sans-serif; text-anchor: middle" x="140.732279" y="127.755" transform="rotate(-0 140.732279 127.755)">3</text>
     </g>
    </g>
    <g id="xtick_5">
     <g id="line2d_9">
      <path d="M 175.643038 115.2 
L 175.643038 7.2 
" clip-path="url(#pf7a53205cf)" style="fill: none; stroke-dasharray: 0.8,1.32; stroke-dashoffset: 0; stroke: #b0b0b0; stroke-width: 0.8"/>
     </g>
     <g id="line2d_10">
      <g>
       <use xlink:href="#m55e6f9c5b3" x="175.643038" y="115.2" style="stroke: #000000; stroke-width: 0.8"/>
      </g>
     </g>
     <g id="text_5">
      <text style="font: 8px 'Carlito', sans-serif; text-anchor: middle" x="175.643038" y="127.755" transform="rotate(-0 175.643038 127.755)">4</text>
     </g>
    </g>
    <g id="xtick_6">
     <g id="line2d_11">
      <path d="M 210.553798 115.2 
L 210.553798 7.2 
" clip-path="url(#pf7a53205cf)" style="fill: none; stroke-dasharray: 0.8,1.32; stroke-dashoffset: 0; stroke: #b0b0b0; stroke-width: 0.8"/>
     </g>
     <g id="line2d_12">
      <g>
       <use xlink:href="#m55e6f9c5b3" x="210.553798" y="115.2" style="stroke: #000000; stroke-width: 0.8"/>
      </g>
     </g>
     <g id="text_6">
      <text style="font: 8px 'Carlito', sans-serif; text-anchor: middle" x="210.553798" y="127.755" transform="rotate(-0 210.553798 127.755)">5</text>
     </g>
    </g>
    <g id="text_7">
     <text style="font: 8px 'Carlito', sans-serif; text-anchor: middle" x="135" y="138.59875" transform="rotate(-0 135 138.59875)">inducing time</text>
    </g>
   </g>
   <g id="matplotlib.axis_2">
    <g id="ytick_1">
     <g id="line2d_13">
      <path d="M 36 115.2 
L 234 115.2 
" clip-path="url(#pf7a53205cf)" style="fill: none; stroke-dasharray: 0.8,1.32; stroke-dashoffset: 0; stroke: #b0b0b0; stroke-width: 0.8"/>
     </g>
     <g id="line2d_14">
      <defs>
       <path id="m64e3acdb42" d="M 0 0 
L -3.5 0 
" style="stroke: #000000; stroke-width: 0.8"/>
      </defs>
      <g>
       <use xlink:href="#m64e3acdb42" x="36" y="115.2" style="stroke: #000000; stroke-width: 0.8"/>
      </g>
     </g>
     <g id="text_8">
      <text style="font: 8px 'Carlito', sans-serif; text-anchor: end" x="29" y="117.9775" transform="rotate(-0 29 117.9775)">0.0</text>
     </g>
    </g>
    <g id="ytick_2">
     <g id="line2d_15">
      <path d="M 36 93.6 
L 234 93.6 
" clip-path="url(#pf7a53205cf)" style="fill: none; stroke-dasharray: 0.8,1.32; stroke-dashoffset: 0; stroke: #b0b0b0; stroke-width: 0.8"/>
     </g>
     <g id="line2d_16">
      <g>
       <use xlink:href="#m64e3acdb42" x="36" y="93.6" style="stroke: #000000; stroke-width: 0.8"/>
      </g>
     </g>
     <g id="text_9">
      <text style="font: 8px 'Carlito', sans-serif; text-anchor: end" x="29" y="96.3775" transform="rotate(-0 29 96.3775)">0.2</text>
     </g>
    </g>
    <g id="ytick_3">
     <g id="line2d_17">
      <path d="M 36 72 
L 234 72 
" clip-path="url(#pf7a53205cf)" style="fill: none; stroke-dasharray: 0.8,1.32; stroke-dashoffset: 0; stroke: #b0b0b0; stroke-width: 0.8"/>
     </g>
     <g id="line2d_18">
      <g>
       <use xlink:href="#m64e3acdb42" x="36" y="72" style="stroke: #000000; stroke-width: 0.8"/>
      </g>
     </g>
     <g id="text_10">
      <text style="font: 8px 'Carlito', sans-serif; text-anchor: end" x="29" y="74.7775" transform="rotate(-0 29 74.7775)">0.4</text>
     </g>
    </g>
    <g id="ytick_4">
     <g id="line2d_19">
      <path d="M 36 50.4 
L 234 50.4 
" clip-path="url(#pf7a53205cf)" style="fill: none; stroke-dasharray: 0.8,1.32; stroke-dashoffset: 0; stroke: #b0b0b0; stroke-width: 0.8"/>
     </g>
     <g id="line2d_20">
      <g>
       <use xlink:href="#m64e3acdb42" x="36" y="50.4" style="stroke: #000000; stroke-width: 0.8"/>
      </g>
     </g>
     <g id="text_11">
      <text style="font: 8px 'Carlito', sans-serif; text-anchor: end" x="29" y="53.1775" transform="rotate(-0 29 53.1775)">0.6</text>
     </g>
    </g>
    <g id="ytick_5">
     <g id="line2d_21">
      <path d="M 36 28.8 
L 234 28.8 
" clip-path="url(#pf7a53205cf)" style="fill: none; stroke-dasharray: 0.8,1.32; stroke-dashoffset: 0; stroke: #b0b0b0; stroke-width: 0.8"/>
     </g>
     <g id="line2d_22">
      <g>
       <use xlink:href="#m64e3acdb42" x="36" y="28.8" style="stroke: #000000; stroke-width: 0.8"/>
      </g>
     </g>
     <g id="text_12">
      <text style="font: 8px 'Carlito', sans-serif; text-anchor: end" x="29" y="31.5775" transform="rotate(-0 29 31.5775)">0.8</text>
     </g>
    </g>
    <g id="ytick_6">
     <g id="line2d_23">
      <path d="M 36 7.2 
L 234 7.2 
" clip-path="url(#pf7a53205cf)" style="fill: none; stroke-dasharray: 0.8,1.32; stroke-dashoffset: 0; stroke: #b0b0b0; stroke-width: 0.8"/>
     </g>
     <g id="line2d_24">
      <g>
       <use xlink:href="#m64e3acdb42" x="36" y="7.2" style="stroke: #000000; stroke-width: 0.8"/>
      </g>
     </g>
     <g id="text_13">
      <text style="font: 8px 'Carlito', sans-serif; text-anchor: end" x="29" y="9.9775" transform="rotate(-0 29 9.9775)">1.0</text>
     </g>
    </g>
    <g id="text_14">
     <text style="font: 8px 'Carlito', sans-serif; text-anchor: middle" x="13.58125" y="61.2" transform="rotate(-90 13.58125 61.2)">max bitrate [bit/h]</text>
    </g>
   </g>
   <g id="line2d_25">
    <path d="M 225.794567 66.242545 
L 207.733226 63.302233 
L 191.390649 60.786106 
L 176.603273 58.547938 
L 163.223103 56.949158 
L 151.116224 55.758664 
L 140.161467 56.107163 
L 130.249193 56.643406 
L 121.280196 57.074945 
L 113.164712 56.588373 
L 105.821519 57.856187 
L 99.177123 59.769603 
L 93.165025 60.384353 
L 87.725054 64.505696 
L 82.802764 67.394131 
L 78.348892 70.408496 
L 74.318862 76.409236 
L 70.67234 81.165828 
L 67.372831 86.387479 
L 64.387311 91.094902 
L 61.685901 97.288567 
" clip-path="url(#pf7a53205cf)" style="fill: none; stroke: #1f77b4; stroke-linecap: square"/>
    <defs>
     <path id="maf13037d14" d="M 0 3 
C 0.795609 3 1.55874 2.683901 2.12132 2.12132 
C 2.683901 1.55874 3 0.795609 3 0 
C 3 -0.795609 2.683901 -1.55874 2.12132 -2.12132 
C 1.55874 -2.683901 0.795609 -3 0 -3 
C -0.795609 -3 -1.55874 -2.683901 -2.12132 -2.12132 
C -2.683901 -1.55874 -3 -0.795609 -3 0 
C -3 0.795609 -2.683901 1.55874 -2.12132 2.12132 
C -1.55874 2.683901 -0.795609 3 0 3 
z
" style="stroke: #1f77b4"/>
    </defs>
    <g clip-path="url(#pf7a53205cf)">
     <use xlink:href="#maf13037d14" x="225.794567" y="66.242545" style="fill: #1f77b4; stroke: #1f77b4"/>
     <use xlink:href="#maf13037d14" x="207.733226" y="63.302233" style="fill: #1f77b4; stroke: #1f77b4"/>
     <use xlink:href="#maf13037d14" x="191.390649" y="60.786106" style="fill: #1f77b4; stroke: #1f77b4"/>
     <use xlink:href="#maf13037d14" x="176.603273" y="58.547938" style="fill: #1f77b4; stroke: #1f77b4"/>
     <use xlink:href="#maf13037d14" x="163.223103" y="56.949158" style="fill: #1f77b4; stroke: #1f77b4"/>
     <use xlink:href="#maf13037d14" x="151.116224" y="55.758664" style="fill: #1f77b4; stroke: #1f77b4"/>
     <use xlink:href="#maf13037d14" x="140.161467" y="56.107163" style="fill: #1f77b4; stroke: #1f77b4"/>
     <use xlink:href="#maf13037d14" x="130.249193" y="56.643406" style="fill: #1f77b4; stroke: #1f77b4"/>
     <use xlink:href="#maf13037d14" x="121.280196" y="57.074945" style="fill: #1f77b4; stroke: #1f77b4"/>
     <use xlink:href="#maf13037d14" x="113.164712" y="56.588373" style="fill: #1f77b4; stroke: #1f77b4"/>
     <use xlink:href="#maf13037d14" x="105.821519" y="57.856187" style="fill: #1f77b4; stroke: #1f77b4"/>
     <use xlink:href="#maf13037d14" x="99.177123" y="59.769603" style="fill: #1f77b4; stroke: #1f77b4"/>
     <use xlink:href="#maf13037d14" x="93.165025" y="60.384353" style="fill: #1f77b4; stroke: #1f77b4"/>
     <use xlink:href="#maf13037d14" x="87.725054" y="64.505696" style="fill: #1f77b4; stroke: #1f77b4"/>
     <use xlink:href="#maf13037d14" x="82.802764" y="67.394131" style="fill: #1f77b4; stroke: #1f77b4"/>
     <use xlink:href="#maf13037d14" x="78.348892" y="70.408496" style="fill: #1f77b4; stroke: #1f77b4"/>
     <use xlink:href="#maf13037d14" x="74.318862" y="76.409236" style="fill: #1f77b4; stroke: #1f77b4"/>
     <use xlink:href="#maf13037d14" x="70.67234" y="81.165828" style="fill: #1f77b4; stroke: #1f77b4"/>
     <use xlink:href="#maf13037d14" x="67.372831" y="86.387479" style="fill: #1f77b4; stroke: #1f77b4"/>
     <use xlink:href="#maf13037d14" x="64.387311" y="91.094902" style="fill: #1f77b4; stroke: #1f77b4"/>
     <use xlink:href="#maf13037d14" x="61.685901" y="97.288567" style="fill: #1f77b4; stroke: #1f77b4"/>
    </g>
   </g>
   <g id="line2d_26">
    <path d="M 225.794567 110.483766 
L 207.733226 103.603159 
L 191.390649 97.205796 
L 176.603273 89.928826 
L 163.223103 84.682708 
L 151.116224 82.155353 
L 140.161467 78.893937 
L 130.249193 78.300669 
L 121.280196 76.733928 
L 113.164712 77.160743 
L 105.821519 80.223104 
L 99.177123 81.892258 
L 93.165025 85.389089 
L 87.725054 91.663725 
L 82.802764 98.59626 
L 78.348892 104.424487 
L 74.318862 108.319234 
L 70.67234 111.909477 
L 67.372831 113.97751 
L 64.387311 115.128835 
" clip-path="url(#pf7a53205cf)" style="fill: none; stroke: #2ca02c; stroke-linecap: square"/>
    <defs>
     <path id="m345997cb96" d="M 0 3 
C 0.795609 3 1.55874 2.683901 2.12132 2.12132 
C 2.683901 1.55874 3 0.795609 3 0 
C 3 -0.795609 2.683901 -1.55874 2.12132 -2.12132 
C 1.55874 -2.683901 0.795609 -3 0 -3 
C -0.795609 -3 -1.55874 -2.683901 -2.12132 -2.12132 
C -2.683901 -1.55874 -3 -0.795609 -3 0 
C -3 0.795609 -2.683901 1.55874 -2.12132 2.12132 
C -1.55874 2.683901 -0.795609 3 0 3 
z
" style="stroke: #2ca02c"/>
    </defs>
    <g clip-path="url(#pf7a53205cf)">
     <use xlink:href="#m345997cb96" x="225.794567" y="110.483766" style="fill: #2ca02c; stroke: #2ca02c"/>
     <use xlink:href="#m345997cb96" x="207.733226" y="103.603159" style="fill: #2ca02c; stroke: #2ca02c"/>
     <use xlink:href="#m345997cb96" x="191.390649" y="97.205796" style="fill: #2ca02c; stroke: #2ca02c"/>
     <use xlink:href="#m345997cb96" x="176.603273" y="89.928826" style="fill: #2ca02c; stroke: #2ca02c"/>
     <use xlink:href="#m345997cb96" x="163.223103" y="84.682708" style="fill: #2ca02c; stroke: #2ca02c"/>
     <use xlink:href="#m345997cb96" x="151.116224" y="82.155353" style="fill: #2ca02c; stroke: #2ca02c"/>
     <use xlink:href="#m345997cb96" x="140.161467" y="78.893937" style="fill: #2ca02c; stroke: #2ca02c"/>
     <use xlink:href="#m345997cb96" x="130.249193" y="78.300669" style="fill: #2ca02c; stroke: #2ca02c"/>
     <use xlink:href="#m345997cb96" x="121.280196" y="76.733928" style="fill: #2ca02c; stroke: #2ca02c"/>
     <use xlink:href="#m345997cb96" x="113.164712" y="77.160743" style="fill: #2ca02c; stroke: #2ca02c"/>
     <use xlink:href="#m345997cb96" x="105.821519" y="80.223104" style="fill: #2ca02c; stroke: #2ca02c"/>
     <use xlink:href="#m345997cb96" x="99.177123" y="81.892258" style="fill: #2ca02c; stroke: #2ca02c"/>
     <use xlink:href="#m345997cb96" x="93.165025" y="85.389089" style="fill: #2ca02c; stroke: #2ca02c"/>
     <use xlink:href="#m345997cb96" x="87.725054" y="91.663725" style="fill: #2ca02c; stroke: #2ca02c"/>
     <use xlink:href="#m345997cb96" x="82.802764" y="98.59626" style="fill: #2ca02c; stroke: #2ca02c"/>
     <use xlink:href="#m345997cb96" x="78.348892" y="104.424487" style="fill: #2ca02c; stroke: #2ca02c"/>
     <use xlink:href="#m345997cb96" x="74.318862" y="108.319234" style="fill: #2ca02c; stroke: #2ca02c"/>
     <use xlink:href="#m345997cb96" x="70.67234" y="111.909477" style="fill: #2ca02c; stroke: #2ca02c"/>
     <use xlink:href="#m345997cb96" x="67.372831" y="113.97751" style="fill: #2ca02c; stroke: #2ca02c"/>
     <use xlink:href="#m345997cb96" x="64.387311" y="115.128835" style="fill: #2ca02c; stroke: #2ca02c"/>
    </g>
   </g>
   <g id="patch_3">
    <path d="M 36 115.2 
L 36 7.2 
" style="fill: none; stroke: #000000; stroke-width: 0.8; stroke-linejoin: miter; stroke-linecap: square"/>
   </g>
   <g id="patch_4">
    <path d="M 234 115.2 
L 234 7.2 
" style="fill: none; stroke: #000000; stroke-width: 0.8; stroke-linejoin: miter; stroke-linecap: square"/>
   </g>
   <g id="patch_5">
    <path d="M 36 115.2 
L 234 115.2 
" style="fill: none; stroke: #000000; stroke-width: 0.8; stroke-linejoin: miter; stroke-linecap: square"/>
   </g>
   <g id="patch_6">
    <path d="M 36 7.2 
L 234 7.2 
" style="fill: none; stroke: #000000; stroke-width: 0.8; stroke-linejoin: miter; stroke-linecap: square"/>
   </g>
  </g>
  <g id="axes_2">
   <g id="patch_7">
    <path d="M 270 115.2 
L 468 115.2 
L 468 7.2 
L 270 7.2 
z
" style="fill: #ffffff"/>
   </g>
   <g id="matplotlib.axis_3">
    <g id="xtick_7">
     <g id="line2d_27">
      <path d="M 270 115.2 
L 270 7.2 
" clip-path="url(#pc2571e1c5a)" style="fill: none; stroke-dasharray: 0.8,1.32; stroke-dashoffset: 0; stroke: #b0b0b0; stroke-width: 0.8"/>
     </g>
     <g id="line2d_28">
      <g>
       <use xlink:href="#m55e6f9c5b3" x="270" y="115.2" style="stroke: #000000; stroke-width: 0.8"/>
      </g>
     </g>
     <g id="text_15">
      <text style="font: 8px 'Carlito', sans-serif; text-anchor: middle" x="270" y="127.755" transform="rotate(-0 270 127.755)">0</text>
     </g>
    </g>
    <g id="xtick_8">
     <g id="line2d_29">
      <path d="M 304.91076 115.2 
L 304.91076 7.2 
" clip-path="url(#pc2571e1c5a)" style="fill: none; stroke-dasharray: 0.8,1.32; stroke-dashoffset: 0; stroke: #b0b0b0; stroke-width: 0.8"/>
     </g>
     <g id="line2d_30">
      <g>
       <use xlink:href="#m55e6f9c5b3" x="304.91076" y="115.2" style="stroke: #000000; stroke-width: 0.8"/>
      </g>
     </g>
     <g id="text_16">
      <text style="font: 8px 'Carlito', sans-serif; text-anchor: middle" x="304.91076" y="127.755" transform="rotate(-0 304.91076 127.755)">1</text>
     </g>
    </g>
    <g id="xtick_9">
     <g id="line2d_31">
      <path d="M 339.821519 115.2 
L 339.821519 7.2 
" clip-path="url(#pc2571e1c5a)" style="fill: none; stroke-dasharray: 0.8,1.32; stroke-dashoffset: 0; stroke: #b0b0b0; stroke-width: 0.8"/>
     </g>
     <g id="line2d_32">
      <g>
       <use xlink:href="#m55e6f9c5b3" x="339.821519" y="115.2" style="stroke: #000000; stroke-width: 0.8"/>
      </g>
     </g>
     <g id="text_17">
      <text style="font: 8px 'Carlito', sans-serif; text-anchor: middle" x="339.821519" y="127.755" transform="rotate(-0 339.821519 127.755)">2</text>
     </g>
    </g>
    <g id="xtick_10">
     <g id="line2d_33">
      <path d="M 374.732279 115.2 
L 374.732279 7.2 
" clip-path="url(#pc2571e1c5a)" style="fill: none; stroke-dasharray: 0.8,1.32; stroke-dashoffset: 0; stroke: #b0b0b0; stroke-width: 0.8"/>
     </g>
     <g id="line2d_34">
      <g>
       <use xlink:href="#m55e6f9c5b3" x="374.732279" y="115.2" style="stroke: #000000; stroke-width: 0.8"/>
      </g>
     </g>
     <g id="text_18">
      <text style="font: 8px 'Carlito', sans-serif; text-anchor: middle" x="374.732279" y="127.755" transform="rotate(-0 374.732279 127.755)">3</text>
     </g>
    </g>
    <g id="xtick_11">
     <g id="line2d_35">
      <path d="M 409.643038 115.2 
L 409.643038 7.2 
" clip-path="url(#pc2571e1c5a)" style="fill: none; stroke-dasharray: 0.8,1.32; stroke-dashoffset: 0; stroke: #b0b0b0; stroke-width: 0.8"/>
     </g>
     <g id="line2d_36">
      <g>
       <use xlink:href="#m55e6f9c5b3" x="409.643038" y="115.2" style="stroke: #000000; stroke-width: 0.8"/>
      </g>
     </g>
     <g id="text_19">
      <text style="font: 8px 'Carlito', sans-serif; text-anchor: middle" x="409.643038" y="127.755" transform="rotate(-0 409.643038 127.755)">4</text>
     </g>
    </g>
    <g id="xtick_12">
     <g id="line2d_37">
      <path d="M 444.553798 115.2 
L 444.553798 7.2 
" clip-path="url(#pc2571e1c5a)" style="fill: none; stroke-dasharray: 0.8,1.32; stroke-dashoffset: 0; stroke: #b0b0b0; stroke-width: 0.8"/>
     </g>
     <g id="line2d_38">
      <g>
       <use xlink:href="#m55e6f9c5b3" x="444.553798" y="115.2" style="stroke: #000000; stroke-width: 0.8"/>
      </g>
     </g>
     <g id="text_20">
      <text style="font: 8px 'Carlito', sans-serif; text-anchor: middle" x="444.553798" y="127.755" transform="rotate(-0 444.553798 127.755)">5</text>
     </g>
    </g>
    <g id="text_21">
     <text style="font: 8px 'Carlito', sans-serif; text-anchor: middle" x="369" y="138.59875" transform="rotate(-0 369 138.59875)">inducing time</text>
    </g>
   </g>
   <g id="matplotlib.axis_4">
    <g id="ytick_7">
     <g id="line2d_39">
      <path d="M 270 115.2 
L 468 115.2 
" clip-path="url(#pc2571e1c5a)" style="fill: none; stroke-dasharray: 0.8,1.32; stroke-dashoffset: 0; stroke: #b0b0b0; stroke-width: 0.8"/>
     </g>
     <g id="line2d_40">
      <g>
       <use xlink:href="#m64e3acdb42" x="270" y="115.2" style="stroke: #000000; stroke-width: 0.8"/>
      </g>
     </g>
     <g id="text_22">
      <text style="font: 8px 'Carlito', sans-serif; text-anchor: end" x="263" y="117.9775" transform="rotate(-0 263 117.9775)">0</text>
     </g>
    </g>
    <g id="ytick_8">
     <g id="line2d_41">
      <path d="M 270 97.2 
L 468 97.2 
" clip-path="url(#pc2571e1c5a)" style="fill: none; stroke-dasharray: 0.8,1.32; stroke-dashoffset: 0; stroke: #b0b0b0; stroke-width: 0.8"/>
     </g>
     <g id="line2d_42">
      <g>
       <use xlink:href="#m64e3acdb42" x="270" y="97.2" style="stroke: #000000; stroke-width: 0.8"/>
      </g>
     </g>
     <g id="text_23">
      <text style="font: 8px 'Carlito', sans-serif; text-anchor: end" x="263" y="99.9775" transform="rotate(-0 263 99.9775)">50</text>
     </g>
    </g>
    <g id="ytick_9">
     <g id="line2d_43">
      <path d="M 270 79.2 
L 468 79.2 
" clip-path="url(#pc2571e1c5a)" style="fill: none; stroke-dasharray: 0.8,1.32; stroke-dashoffset: 0; stroke: #b0b0b0; stroke-width: 0.8"/>
     </g>
     <g id="line2d_44">
      <g>
       <use xlink:href="#m64e3acdb42" x="270" y="79.2" style="stroke: #000000; stroke-width: 0.8"/>
      </g>
     </g>
     <g id="text_24">
      <text style="font: 8px 'Carlito', sans-serif; text-anchor: end" x="263" y="81.9775" transform="rotate(-0 263 81.9775)">100</text>
     </g>
    </g>
    <g id="ytick_10">
     <g id="line2d_45">
      <path d="M 270 61.2 
L 468 61.2 
" clip-path="url(#pc2571e1c5a)" style="fill: none; stroke-dasharray: 0.8,1.32; stroke-dashoffset: 0; stroke: #b0b0b0; stroke-width: 0.8"/>
     </g>
     <g id="line2d_46">
      <g>
       <use xlink:href="#m64e3acdb42" x="270" y="61.2" style="stroke: #000000; stroke-width: 0.8"/>
      </g>
     </g>
     <g id="text_25">
      <text style="font: 8px 'Carlito', sans-serif; text-anchor: end" x="263" y="63.9775" transform="rotate(-0 263 63.9775)">150</text>
     </g>
    </g>
    <g id="ytick_11">
     <g id="line2d_47">
      <path d="M 270 43.2 
L 468 43.2 
" clip-path="url(#pc2571e1c5a)" style="fill: none; stroke-dasharray: 0.8,1.32; stroke-dashoffset: 0; stroke: #b0b0b0; stroke-width: 0.8"/>
     </g>
     <g id="line2d_48">
      <g>
       <use xlink:href="#m64e3acdb42" x="270" y="43.2" style="stroke: #000000; stroke-width: 0.8"/>
      </g>
     </g>
     <g id="text_26">
      <text style="font: 8px 'Carlito', sans-serif; text-anchor: end" x="263" y="45.9775" transform="rotate(-0 263 45.9775)">200</text>
     </g>
    </g>
    <g id="ytick_12">
     <g id="line2d_49">
      <path d="M 270 25.2 
L 468 25.2 
" clip-path="url(#pc2571e1c5a)" style="fill: none; stroke-dasharray: 0.8,1.32; stroke-dashoffset: 0; stroke: #b0b0b0; stroke-width: 0.8"/>
     </g>
     <g id="line2d_50">
      <g>
       <use xlink:href="#m64e3acdb42" x="270" y="25.2" style="stroke: #000000; stroke-width: 0.8"/>
      </g>
     </g>
     <g id="text_27">
      <text style="font: 8px 'Carlito', sans-serif; text-anchor: end" x="263" y="27.9775" transform="rotate(-0 263 27.9775)">250</text>
     </g>
    </g>
    <g id="ytick_13">
     <g id="line2d_51">
      <path d="M 270 7.2 
L 468 7.2 
" clip-path="url(#pc2571e1c5a)" style="fill: none; stroke-dasharray: 0.8,1.32; stroke-dashoffset: 0; stroke: #b0b0b0; stroke-width: 0.8"/>
     </g>
     <g id="line2d_52">
      <g>
       <use xlink:href="#m64e3acdb42" x="270" y="7.2" style="stroke: #000000; stroke-width: 0.8"/>
      </g>
     </g>
     <g id="text_28">
      <text style="font: 8px 'Carlito', sans-serif; text-anchor: end" x="263" y="9.9775" transform="rotate(-0 263 9.9775)">300</text>
     </g>
    </g>
    <g id="text_29">
     <text style="font: 8px 'Carlito', sans-serif; text-anchor: middle" x="245.54625" y="61.2" transform="rotate(-90 245.54625 61.2)">optimal interval [min]</text>
    </g>
   </g>
   <g id="line2d_53">
    <path d="M 459.794567 76.32 
L 441.733226 77.76 
L 425.390649 81.72 
L 410.603273 80.28 
L 397.223103 80.28 
L 385.116224 81.36 
L 374.161467 81.36 
L 364.249193 79.92 
L 355.280196 79.92 
L 347.164712 79.92 
L 339.821519 79.92 
L 333.177123 78.84 
L 327.165025 78.84 
L 321.725054 77.4 
L 316.802764 79.2 
L 312.348892 76.32 
L 308.318862 73.44 
L 304.67234 79.92 
L 301.372831 85.32 
L 298.387311 90 
L 295.685901 93.96 
" clip-path="url(#pc2571e1c5a)" style="fill: none; stroke: #1f77b4; stroke-linecap: square"/>
    <g clip-path="url(#pc2571e1c5a)">
     <use xlink:href="#maf13037d14" x="459.794567" y="76.32" style="fill: #1f77b4; stroke: #1f77b4"/>
     <use xlink:href="#maf13037d14" x="441.733226" y="77.76" style="fill: #1f77b4; stroke: #1f77b4"/>
     <use xlink:href="#maf13037d14" x="425.390649" y="81.72" style="fill: #1f77b4; stroke: #1f77b4"/>
     <use xlink:href="#maf13037d14" x="410.603273" y="80.28" style="fill: #1f77b4; stroke: #1f77b4"/>
     <use xlink:href="#maf13037d14" x="397.223103" y="80.28" style="fill: #1f77b4; stroke: #1f77b4"/>
     <use xlink:href="#maf13037d14" x="385.116224" y="81.36" style="fill: #1f77b4; stroke: #1f77b4"/>
     <use xlink:href="#maf13037d14" x="374.161467" y="81.36" style="fill: #1f77b4; stroke: #1f77b4"/>
     <use xlink:href="#maf13037d14" x="364.249193" y="79.92" style="fill: #1f77b4; stroke: #1f77b4"/>
     <use xlink:href="#maf13037d14" x="355.280196" y="79.92" style="fill: #1f77b4; stroke: #1f77b4"/>
     <use xlink:href="#maf13037d14" x="347.164712" y="79.92" style="fill: #1f77b4; stroke: #1f77b4"/>
     <use xlink:href="#maf13037d14" x="339.821519" y="79.92" style="fill: #1f77b4; stroke: #1f77b4"/>
     <use xlink:href="#maf13037d14" x="333.177123" y="78.84" style="fill: #1f77b4; stroke: #1f77b4"/>
     <use xlink:href="#maf13037d14" x="327.165025" y="78.84" style="fill: #1f77b4; stroke: #1f77b4"/>
     <use xlink:href="#maf13037d14" x="321.725054" y="77.4" style="fill: #1f77b4; stroke: #1f77b4"/>
     <use xlink:href="#maf13037d14" x="316.802764" y="79.2" style="fill: #1f77b4; stroke: #1f77b4"/>
     <use xlink:href="#maf13037d14" x="312.348892" y="76.32" style="fill: #1f77b4; stroke: #1f77b4"/>
     <use xlink:href="#maf13037d14" x="308.318862" y="73.44" style="fill: #1f77b4; stroke: #1f77b4"/>
     <use xlink:href="#maf13037d14" x="304.67234" y="79.92" style="fill: #1f77b4; stroke: #1f77b4"/>
     <use xlink:href="#maf13037d14" x="301.372831" y="85.32" style="fill: #1f77b4; stroke: #1f77b4"/>
     <use xlink:href="#maf13037d14" x="298.387311" y="90" style="fill: #1f77b4; stroke: #1f77b4"/>
     <use xlink:href="#maf13037d14" x="295.685901" y="93.96" style="fill: #1f77b4; stroke: #1f77b4"/>
    </g>
   </g>
   <g id="line2d_54">
    <path d="M 459.794567 44.28 
L 441.733226 52.2 
L 425.390649 54.36 
L 410.603273 56.52 
L 397.223103 60.84 
L 385.116224 66.96 
L 374.161467 64.8 
L 364.249193 66.6 
L 355.280196 66.6 
L 347.164712 66.6 
L 339.821519 68.4 
L 333.177123 64.8 
L 327.165025 58.68 
L 321.725054 54 
L 316.802764 46.44 
L 312.348892 56.88 
L 308.318862 52.2 
L 304.67234 57.24 
L 301.372831 55.08 
L 298.387311 59.76 
" clip-path="url(#pc2571e1c5a)" style="fill: none; stroke: #2ca02c; stroke-linecap: square"/>
    <g clip-path="url(#pc2571e1c5a)">
     <use xlink:href="#m345997cb96" x="459.794567" y="44.28" style="fill: #2ca02c; stroke: #2ca02c"/>
     <use xlink:href="#m345997cb96" x="441.733226" y="52.2" style="fill: #2ca02c; stroke: #2ca02c"/>
     <use xlink:href="#m345997cb96" x="425.390649" y="54.36" style="fill: #2ca02c; stroke: #2ca02c"/>
     <use xlink:href="#m345997cb96" x="410.603273" y="56.52" style="fill: #2ca02c; stroke: #2ca02c"/>
     <use xlink:href="#m345997cb96" x="397.223103" y="60.84" style="fill: #2ca02c; stroke: #2ca02c"/>
     <use xlink:href="#m345997cb96" x="385.116224" y="66.96" style="fill: #2ca02c; stroke: #2ca02c"/>
     <use xlink:href="#m345997cb96" x="374.161467" y="64.8" style="fill: #2ca02c; stroke: #2ca02c"/>
     <use xlink:href="#m345997cb96" x="364.249193" y="66.6" style="fill: #2ca02c; stroke: #2ca02c"/>
     <use xlink:href="#m345997cb96" x="355.280196" y="66.6" style="fill: #2ca02c; stroke: #2ca02c"/>
     <use xlink:href="#m345997cb96" x="347.164712" y="66.6" style="fill: #2ca02c; stroke: #2ca02c"/>
     <use xlink:href="#m345997cb96" x="339.821519" y="68.4" style="fill: #2ca02c; stroke: #2ca02c"/>
     <use xlink:href="#m345997cb96" x="333.177123" y="64.8" style="fill: #2ca02c; stroke: #2ca02c"/>
     <use xlink:href="#m345997cb96" x="327.165025" y="58.68" style="fill: #2ca02c; stroke: #2ca02c"/>
     <use xlink:href="#m345997cb96" x="321.725054" y="54" style="fill: #2ca02c; stroke: #2ca02c"/>
     <use xlink:href="#m345997cb96" x="316.802764" y="46.44" style="fill: #2ca02c; stroke: #2ca02c"/>
     <use xlink:href="#m345997cb96" x="312.348892" y="56.88" style="fill: #2ca02c; stroke: #2ca02c"/>
     <use xlink:href="#m345997cb96" x="308.318862" y="52.2" style="fill: #2ca02c; stroke: #2ca02c"/>
     <use xlink:href="#m345997cb96" x="304.67234" y="57.24" style="fill: #2ca02c; stroke: #2ca02c"/>
     <use xlink:href="#m345997cb96" x="301.372831" y="55.08" style="fill: #2ca02c; stroke: #2ca02c"/>
     <use xlink:href="#m345997cb96" x="298.387311" y="59.76" style="fill: #2ca02c; stroke: #2ca02c"/>
    </g>
   </g>
   <g id="patch_8">
    <path d="M 270 115.2 
L 270 7.2 
" style="fill: none; stroke: #000000; stroke-width: 0.8; stroke-linejoin: miter; stroke-linecap: square"/>
   </g>
   <g id="patch_9">
    <path d="M 468 115.2 
L 468 7.2 
" style="fill: none; stroke: #000000; stroke-width: 0.8; stroke-linejoin: miter; stroke-linecap: square"/>
   </g>
   <g id="patch_10">
    <path d="M 270 115.2 
L 468 115.2 
" style="fill: none; stroke: #000000; stroke-width: 0.8; stroke-linejoin: miter; stroke-linecap: square"/>
   </g>
   <g id="patch_11">
    <path d="M 270 7.2 
L 468 7.2 
" style="fill: none; stroke: #000000; stroke-width: 0.8; stroke-linejoin: miter; stroke-linecap: square"/>
   </g>
   <g id="legend_1">
    <g id="patch_12">
     <path d="M 275.6 46.3075 
L 326.92125 46.3075 
Q 328.52125 46.3075 328.52125 44.7075 
L 328.52125 12.8 
Q 328.52125 11.2 326.92125 11.2 
L 275.6 11.2 
Q 274 11.2 274 12.8 
L 274 44.7075 
Q 274 46.3075 275.6 46.3075 
z
" style="fill: #ffffff; opacity: 0.8; stroke: #cccccc; stroke-linejoin: miter"/>
    </g>
    <g id="text_30">
     <text style="font: 8px 'Carlito', sans-serif; text-anchor: start" x="277.2" y="19.955" transform="rotate(-0 277.2 19.955)">channel length</text>
    </g>
    <g id="line2d_55">
     <path d="M 283.978125 28.13 
L 291.978125 28.13 
L 299.978125 28.13 
" style="fill: none; stroke: #1f77b4; stroke-linecap: square"/>
     <g>
      <use xlink:href="#maf13037d14" x="291.978125" y="28.13" style="fill: #1f77b4; stroke: #1f77b4"/>
     </g>
    </g>
    <g id="text_31">
     <text style="font: 8px 'Carlito', sans-serif; text-anchor: start" x="306.378125" y="30.93" transform="rotate(-0 306.378125 30.93)">30</text>
    </g>
    <g id="line2d_56">
     <path d="M 283.978125 39.01875 
L 291.978125 39.01875 
L 299.978125 39.01875 
" style="fill: none; stroke: #2ca02c; stroke-linecap: square"/>
     <g>
      <use xlink:href="#m345997cb96" x="291.978125" y="39.01875" style="fill: #2ca02c; stroke: #2ca02c"/>
     </g>
    </g>
    <g id="text_32">
     <text style="font: 8px 'Carlito', sans-serif; text-anchor: start" x="306.378125" y="41.81875" transform="rotate(-0 306.378125 41.81875)">300</text>
    </g>
   </g>
  </g>
 </g>
 <defs>
  <clipPath id="pf7a53205cf">
   <rect x="36" y="7.2" width="198" height="108"/>
  </clipPath>
  <clipPath id="pc2571e1c5a">
   <rect x="270" y="7.2" width="198" height="108"/>
  </clipPath>
 </defs>
</svg>
