<?xml version="1.0" encoding="utf-8" standalone="no"?>
<!DOCTYPE svg PUBLIC "-//W3C//DTD SVG 1.1//EN"
  "http://www.w3.org/Graphics/SVG/1.1/DTD/svg11.dtd">
<svg xmlns:xlink="http://www.w3.org/1999/xlink" width="482.4pt" height="151.2pt" viewBox="0 0 482.4 151.2" xmlns="http://www.w3.org/2000/svg" version="1.1">
 <metadata>
  <rdf:RDF xmlns:dc="http://purl.org/dc/elements/1.1/" xmlns:cc="http://creativecommons.org/ns#" xmlns:rdf="http://www.w3.org/1999/02/22-rdf-syntax-ns#">
   <cc:Work>
    <dc:type rdf:resource="http://purl.org/dc/dcmitype/StillImage"/>
    <dc:date>2023-12-15T08:36:34.562173</dc:date>
    <dc:format>image/svg+xml</dc:format>
    <dc:creator>
     <cc:Agent>
      <dc:title>Matplotlib v3.8.0, https://matplotlib.org/</dc:title>
     </cc:Agent>
    </dc:creator>
   </cc:Work>
  </rdf:RDF>
 </metadata>
 <defs>
  <style type="text/css">*{stroke-linejoin: round; stroke-linecap: butt}</style>
 </defs>
 <g id="figure_1">
  <g id="patch_1">
   <path d="M 0 151.2 
L 482.4 151.2 
L 482.4 0 
L 0 0 
z
" style="fill: #ffffff"/>
  </g>
  <g id="axes_1">
   <g id="patch_2">
    <path d="M 36 115.2 
L 234 115.2 
L 234 7.2 
L 36 7.2 
z
" style="fill: #ffffff"/>
   </g>
   <g id="matplotlib.axis_1">
    <g id="xtick_1">
     <g id="line2d_1">
      <path d="M 45 115.2 
L 45 7.2 
" clip-path="url(#p25a8d755ba)" style="fill: none; stroke-dasharray: 0.8,1.32; stroke-dashoffset: 0; stroke: #b0b0b0; stroke-width: 0.8"/>
     </g>
     <g id="line2d_2">
      <defs>
       <path id="m6039c2d436" d="M 0 0 
L 0 3.5 
" style="stroke: #000000; stroke-width: 0.8"/>
      </defs>
      <g>
       <use xlink:href="#m6039c2d436" x="45" y="115.2" style="stroke: #000000; stroke-width: 0.8"/>
      </g>
     </g>
     <g id="text_1">
      <!-- $\sqrt{30}$ -->
      <g transform="translate(36.44 130.03125) scale(0.08 -0.08)">
       <defs>
        <path id="STIXSizeOneSym-Regular-221a" d="M 6970 9933 
L 3373 -1888 
L 3104 -1888 
L 1626 2918 
Q 1555 3149 1465 3251 
Q 1376 3354 1229 3354 
Q 1011 3354 794 3181 
L 717 3309 
L 1766 4115 
L 1926 4115 
L 3379 -602 
L 3405 -602 
L 6605 9933 
L 6970 9933 
z
" transform="scale(0.015625)"/>
        <path id="DejaVuSans-33" d="M 2597 2516 
Q 3050 2419 3304 2112 
Q 3559 1806 3559 1356 
Q 3559 666 3084 287 
Q 2609 -91 1734 -91 
Q 1441 -91 1130 -33 
Q 819 25 488 141 
L 488 750 
Q 750 597 1062 519 
Q 1375 441 1716 441 
Q 2309 441 2620 675 
Q 2931 909 2931 1356 
Q 2931 1769 2642 2001 
Q 2353 2234 1838 2234 
L 1294 2234 
L 1294 2753 
L 1863 2753 
Q 2328 2753 2575 2939 
Q 2822 3125 2822 3475 
Q 2822 3834 2567 4026 
Q 2313 4219 1838 4219 
Q 1578 4219 1281 4162 
Q 984 4106 628 3988 
L 628 4550 
Q 988 4650 1302 4700 
Q 1616 4750 1894 4750 
Q 2613 4750 3031 4423 
Q 3450 4097 3450 3541 
Q 3450 3153 3228 2886 
Q 3006 2619 2597 2516 
z
" transform="scale(0.015625)"/>
        <path id="DejaVuSans-30" d="M 2034 4250 
Q 1547 4250 1301 3770 
Q 1056 3291 1056 2328 
Q 1056 1369 1301 889 
Q 1547 409 2034 409 
Q 2525 409 2770 889 
Q 3016 1369 3016 2328 
Q 3016 3291 2770 3770 
Q 2525 4250 2034 4250 
z
M 2034 4750 
Q 2819 4750 3233 4129 
Q 3647 3509 3647 2328 
Q 3647 1150 3233 529 
Q 2819 -91 2034 -91 
Q 1250 -91 836 529 
Q 422 1150 422 2328 
Q 422 3509 836 4129 
Q 1250 4750 2034 4750 
z
" transform="scale(0.015625)"/>
       </defs>
       <use xlink:href="#STIXSizeOneSym-Regular-221a" transform="translate(0 15.984375) scale(0.578716)"/>
       <use xlink:href="#DejaVuSans-33" transform="translate(73.673874 0.53125)"/>
       <use xlink:href="#DejaVuSans-30" transform="translate(137.296921 0.53125)"/>
       <path d="M 61.173874 99.5 
L 61.173874 105.75 
L 213.419968 105.75 
L 213.419968 99.5 
L 61.173874 99.5 
z
"/>
      </g>
     </g>
    </g>
    <g id="xtick_2">
     <g id="line2d_3">
      <path d="M 76.137206 115.2 
L 76.137206 7.2 
" clip-path="url(#p25a8d755ba)" style="fill: none; stroke-dasharray: 0.8,1.32; stroke-dashoffset: 0; stroke: #b0b0b0; stroke-width: 0.8"/>
     </g>
     <g id="line2d_4">
      <g>
       <use xlink:href="#m6039c2d436" x="76.137206" y="115.2" style="stroke: #000000; stroke-width: 0.8"/>
      </g>
     </g>
     <g id="text_2">
      <!-- $\sqrt{100}$ -->
      <g transform="translate(65.017206 130.03125) scale(0.08 -0.08)">
       <defs>
        <path id="DejaVuSans-31" d="M 794 531 
L 1825 531 
L 1825 4091 
L 703 3866 
L 703 4441 
L 1819 4666 
L 2450 4666 
L 2450 531 
L 3481 531 
L 3481 0 
L 794 0 
L 794 531 
z
" transform="scale(0.015625)"/>
       </defs>
       <use xlink:href="#STIXSizeOneSym-Regular-221a" transform="translate(0 15.984375) scale(0.578716)"/>
       <use xlink:href="#DejaVuSans-31" transform="translate(73.673874 0.53125)"/>
       <use xlink:href="#DejaVuSans-30" transform="translate(137.296921 0.53125)"/>
       <use xlink:href="#DejaVuSans-30" transform="translate(200.919968 0.53125)"/>
       <path d="M 61.173874 99.5 
L 61.173874 105.75 
L 277.043015 105.75 
L 277.043015 99.5 
L 61.173874 99.5 
z
"/>
      </g>
     </g>
    </g>
    <g id="xtick_3">
     <g id="line2d_5">
      <path d="M 126.53551 115.2 
L 126.53551 7.2 
" clip-path="url(#p25a8d755ba)" style="fill: none; stroke-dasharray: 0.8,1.32; stroke-dashoffset: 0; stroke: #b0b0b0; stroke-width: 0.8"/>
     </g>
     <g id="line2d_6">
      <g>
       <use xlink:href="#m6039c2d436" x="126.53551" y="115.2" style="stroke: #000000; stroke-width: 0.8"/>
      </g>
     </g>
     <g id="text_3">
      <!-- $\sqrt{300}$ -->
      <g transform="translate(115.41551 130.03125) scale(0.08 -0.08)">
       <use xlink:href="#STIXSizeOneSym-Regular-221a" transform="translate(0 15.984375) scale(0.578716)"/>
       <use xlink:href="#DejaVuSans-33" transform="translate(73.673874 0.53125)"/>
       <use xlink:href="#DejaVuSans-30" transform="translate(137.296921 0.53125)"/>
       <use xlink:href="#DejaVuSans-30" transform="translate(200.919968 0.53125)"/>
       <path d="M 61.173874 99.5 
L 61.173874 105.75 
L 277.043015 105.75 
L 277.043015 99.5 
L 61.173874 99.5 
z
"/>
      </g>
     </g>
    </g>
    <g id="xtick_4">
     <g id="line2d_7">
      <path d="M 225 115.2 
L 225 7.2 
" clip-path="url(#p25a8d755ba)" style="fill: none; stroke-dasharray: 0.8,1.32; stroke-dashoffset: 0; stroke: #b0b0b0; stroke-width: 0.8"/>
     </g>
     <g id="line2d_8">
      <g>
       <use xlink:href="#m6039c2d436" x="225" y="115.2" style="stroke: #000000; stroke-width: 0.8"/>
      </g>
     </g>
     <g id="text_4">
      <!-- $\sqrt{1000}$ -->
      <g transform="translate(211.36 130.03125) scale(0.08 -0.08)">
       <use xlink:href="#STIXSizeOneSym-Regular-221a" transform="translate(0 15.984375) scale(0.578716)"/>
       <use xlink:href="#DejaVuSans-31" transform="translate(73.673874 0.53125)"/>
       <use xlink:href="#DejaVuSans-30" transform="translate(137.296921 0.53125)"/>
       <use xlink:href="#DejaVuSans-30" transform="translate(200.919968 0.53125)"/>
       <use xlink:href="#DejaVuSans-30" transform="translate(264.543015 0.53125)"/>
       <path d="M 61.173874 99.5 
L 61.173874 105.75 
L 340.666061 105.75 
L 340.666061 99.5 
L 61.173874 99.5 
z
"/>
      </g>
     </g>
    </g>
    <g id="text_5">
     <!-- $\sqrt{\mathrm{channel~length}}$ -->
     <g transform="translate(101.16 144.36) scale(0.08 -0.08)">
      <defs>
       <path id="DejaVuSans-63" d="M 3122 3366 
L 3122 2828 
Q 2878 2963 2633 3030 
Q 2388 3097 2138 3097 
Q 1578 3097 1268 2742 
Q 959 2388 959 1747 
Q 959 1106 1268 751 
Q 1578 397 2138 397 
Q 2388 397 2633 464 
Q 2878 531 3122 666 
L 3122 134 
Q 2881 22 2623 -34 
Q 2366 -91 2075 -91 
Q 1284 -91 818 406 
Q 353 903 353 1747 
Q 353 2603 823 3093 
Q 1294 3584 2113 3584 
Q 2378 3584 2631 3529 
Q 2884 3475 3122 3366 
z
" transform="scale(0.015625)"/>
       <path id="DejaVuSans-68" d="M 3513 2113 
L 3513 0 
L 2938 0 
L 2938 2094 
Q 2938 2591 2744 2837 
Q 2550 3084 2163 3084 
Q 1697 3084 1428 2787 
Q 1159 2491 1159 1978 
L 1159 0 
L 581 0 
L 581 4863 
L 1159 4863 
L 1159 2956 
Q 1366 3272 1645 3428 
Q 1925 3584 2291 3584 
Q 2894 3584 3203 3211 
Q 3513 2838 3513 2113 
z
" transform="scale(0.015625)"/>
       <path id="DejaVuSans-61" d="M 2194 1759 
Q 1497 1759 1228 1600 
Q 959 1441 959 1056 
Q 959 750 1161 570 
Q 1363 391 1709 391 
Q 2188 391 2477 730 
Q 2766 1069 2766 1631 
L 2766 1759 
L 2194 1759 
z
M 3341 1997 
L 3341 0 
L 2766 0 
L 2766 531 
Q 2569 213 2275 61 
Q 1981 -91 1556 -91 
Q 1019 -91 701 211 
Q 384 513 384 1019 
Q 384 1609 779 1909 
Q 1175 2209 1959 2209 
L 2766 2209 
L 2766 2266 
Q 2766 2663 2505 2880 
Q 2244 3097 1772 3097 
Q 1472 3097 1187 3025 
Q 903 2953 641 2809 
L 641 3341 
Q 956 3463 1253 3523 
Q 1550 3584 1831 3584 
Q 2591 3584 2966 3190 
Q 3341 2797 3341 1997 
z
" transform="scale(0.015625)"/>
       <path id="DejaVuSans-6e" d="M 3513 2113 
L 3513 0 
L 2938 0 
L 2938 2094 
Q 2938 2591 2744 2837 
Q 2550 3084 2163 3084 
Q 1697 3084 1428 2787 
Q 1159 2491 1159 1978 
L 1159 0 
L 581 0 
L 581 3500 
L 1159 3500 
L 1159 2956 
Q 1366 3272 1645 3428 
Q 1925 3584 2291 3584 
Q 2894 3584 3203 3211 
Q 3513 2838 3513 2113 
z
" transform="scale(0.015625)"/>
       <path id="DejaVuSans-65" d="M 3597 1894 
L 3597 1613 
L 953 1613 
Q 991 1019 1311 708 
Q 1631 397 2203 397 
Q 2534 397 2845 478 
Q 3156 559 3463 722 
L 3463 178 
Q 3153 47 2828 -22 
Q 2503 -91 2169 -91 
Q 1331 -91 842 396 
Q 353 884 353 1716 
Q 353 2575 817 3079 
Q 1281 3584 2069 3584 
Q 2775 3584 3186 3129 
Q 3597 2675 3597 1894 
z
M 3022 2063 
Q 3016 2534 2758 2815 
Q 2500 3097 2075 3097 
Q 1594 3097 1305 2825 
Q 1016 2553 972 2059 
L 3022 2063 
z
" transform="scale(0.015625)"/>
       <path id="DejaVuSans-6c" d="M 603 4863 
L 1178 4863 
L 1178 0 
L 603 0 
L 603 4863 
z
" transform="scale(0.015625)"/>
       <path id="DejaVuSans-67" d="M 2906 1791 
Q 2906 2416 2648 2759 
Q 2391 3103 1925 3103 
Q 1463 3103 1205 2759 
Q 947 2416 947 1791 
Q 947 1169 1205 825 
Q 1463 481 1925 481 
Q 2391 481 2648 825 
Q 2906 1169 2906 1791 
z
M 3481 434 
Q 3481 -459 3084 -895 
Q 2688 -1331 1869 -1331 
Q 1566 -1331 1297 -1286 
Q 1028 -1241 775 -1147 
L 775 -588 
Q 1028 -725 1275 -790 
Q 1522 -856 1778 -856 
Q 2344 -856 2625 -561 
Q 2906 -266 2906 331 
L 2906 616 
Q 2728 306 2450 153 
Q 2172 0 1784 0 
Q 1141 0 747 490 
Q 353 981 353 1791 
Q 353 2603 747 3093 
Q 1141 3584 1784 3584 
Q 2172 3584 2450 3431 
Q 2728 3278 2906 2969 
L 2906 3500 
L 3481 3500 
L 3481 434 
z
" transform="scale(0.015625)"/>
       <path id="DejaVuSans-74" d="M 1172 4494 
L 1172 3500 
L 2356 3500 
L 2356 3053 
L 1172 3053 
L 1172 1153 
Q 1172 725 1289 603 
Q 1406 481 1766 481 
L 2356 481 
L 2356 0 
L 1766 0 
Q 1100 0 847 248 
Q 594 497 594 1153 
L 594 3053 
L 172 3053 
L 172 3500 
L 594 3500 
L 594 4494 
L 1172 4494 
z
" transform="scale(0.015625)"/>
      </defs>
      <use xlink:href="#STIXSizeOneSym-Regular-221a" transform="translate(0 -0.09375) scale(0.693173)"/>
      <use xlink:href="#DejaVuSans-63" transform="translate(85.829376 0.765625)"/>
      <use xlink:href="#DejaVuSans-68" transform="translate(140.809845 0.765625)"/>
      <use xlink:href="#DejaVuSans-61" transform="translate(204.188751 0.765625)"/>
      <use xlink:href="#DejaVuSans-6e" transform="translate(265.468048 0.765625)"/>
      <use xlink:href="#DejaVuSans-6e" transform="translate(328.846954 0.765625)"/>
      <use xlink:href="#DejaVuSans-65" transform="translate(392.225861 0.765625)"/>
      <use xlink:href="#DejaVuSans-6c" transform="translate(453.749298 0.765625)"/>
      <use xlink:href="#DejaVuSans-6c" transform="translate(514.00288 0.765625)"/>
      <use xlink:href="#DejaVuSans-65" transform="translate(541.786083 0.765625)"/>
      <use xlink:href="#DejaVuSans-6e" transform="translate(603.30952 0.765625)"/>
      <use xlink:href="#DejaVuSans-67" transform="translate(666.688427 0.765625)"/>
      <use xlink:href="#DejaVuSans-74" transform="translate(730.164989 0.765625)"/>
      <use xlink:href="#DejaVuSans-68" transform="translate(769.373973 0.765625)"/>
      <path d="M 73.329376 100.5 
L 73.329376 106.75 
L 845.25288 106.75 
L 845.25288 100.5 
L 73.329376 100.5 
z
"/>
     </g>
    </g>
   </g>
   <g id="matplotlib.axis_2">
    <g id="ytick_1">
     <g id="line2d_9">
      <path d="M 36 115.2 
L 234 115.2 
" clip-path="url(#p25a8d755ba)" style="fill: none; stroke-dasharray: 0.8,1.32; stroke-dashoffset: 0; stroke: #b0b0b0; stroke-width: 0.8"/>
     </g>
     <g id="line2d_10">
      <defs>
       <path id="m475130f0e9" d="M 0 0 
L -3.5 0 
" style="stroke: #000000; stroke-width: 0.8"/>
      </defs>
      <g>
       <use xlink:href="#m475130f0e9" x="36" y="115.2" style="stroke: #000000; stroke-width: 0.8"/>
      </g>
     </g>
     <g id="text_6">
      <!-- 0 -->
      <g transform="translate(24.945 117.9775) scale(0.08 -0.08)">
       <defs>
        <path id="Carlito-30" d="M 3078 2053 
Q 3078 1516 2965 1120 
Q 2853 725 2656 467 
Q 2459 209 2192 82 
Q 1925 -44 1619 -44 
Q 1313 -44 1047 82 
Q 781 209 586 467 
Q 391 725 278 1120 
Q 166 1516 166 2053 
Q 166 2591 278 2986 
Q 391 3381 586 3640 
Q 781 3900 1047 4026 
Q 1313 4153 1619 4153 
Q 1925 4153 2192 4026 
Q 2459 3900 2656 3640 
Q 2853 3381 2965 2986 
Q 3078 2591 3078 2053 
z
M 2534 2053 
Q 2534 2522 2459 2839 
Q 2384 3156 2257 3350 
Q 2131 3544 1965 3628 
Q 1800 3713 1619 3713 
Q 1438 3713 1273 3628 
Q 1109 3544 982 3350 
Q 856 3156 781 2839 
Q 706 2522 706 2053 
Q 706 1584 781 1267 
Q 856 950 982 756 
Q 1109 563 1273 480 
Q 1438 397 1619 397 
Q 1800 397 1965 480 
Q 2131 563 2257 756 
Q 2384 950 2459 1267 
Q 2534 1584 2534 2053 
z
" transform="scale(0.015625)"/>
       </defs>
       <use xlink:href="#Carlito-30"/>
      </g>
     </g>
    </g>
    <g id="ytick_2">
     <g id="line2d_11">
      <path d="M 36 97.2 
L 234 97.2 
" clip-path="url(#p25a8d755ba)" style="fill: none; stroke-dasharray: 0.8,1.32; stroke-dashoffset: 0; stroke: #b0b0b0; stroke-width: 0.8"/>
     </g>
     <g id="line2d_12">
      <g>
       <use xlink:href="#m475130f0e9" x="36" y="97.2" style="stroke: #000000; stroke-width: 0.8"/>
      </g>
     </g>
     <g id="text_7">
      <!-- 100 -->
      <g transform="translate(16.835 99.9775) scale(0.08 -0.08)">
       <defs>
        <path id="Carlito-31" d="M 797 400 
L 1650 400 
L 1650 3172 
Q 1650 3294 1659 3425 
L 963 2813 
Q 888 2750 817 2770 
Q 747 2791 719 2831 
L 553 3059 
L 1750 4119 
L 2175 4119 
L 2175 400 
L 2956 400 
L 2956 0 
L 797 0 
L 797 400 
z
" transform="scale(0.015625)"/>
       </defs>
       <use xlink:href="#Carlito-31"/>
       <use xlink:href="#Carlito-30" x="50.683594"/>
       <use xlink:href="#Carlito-30" x="101.367188"/>
      </g>
     </g>
    </g>
    <g id="ytick_3">
     <g id="line2d_13">
      <path d="M 36 79.2 
L 234 79.2 
" clip-path="url(#p25a8d755ba)" style="fill: none; stroke-dasharray: 0.8,1.32; stroke-dashoffset: 0; stroke: #b0b0b0; stroke-width: 0.8"/>
     </g>
     <g id="line2d_14">
      <g>
       <use xlink:href="#m475130f0e9" x="36" y="79.2" style="stroke: #000000; stroke-width: 0.8"/>
      </g>
     </g>
     <g id="text_8">
      <!-- 200 -->
      <g transform="translate(16.835 81.9775) scale(0.08 -0.08)">
       <defs>
        <path id="Carlito-32" d="M 288 0 
L 288 0 
z
M 1684 4153 
Q 1944 4153 2166 4075 
Q 2388 3997 2550 3850 
Q 2713 3703 2805 3490 
Q 2897 3278 2897 3006 
Q 2897 2778 2830 2583 
Q 2763 2388 2648 2209 
Q 2534 2031 2384 1861 
Q 2234 1691 2069 1519 
L 1016 422 
Q 1134 456 1254 475 
Q 1375 494 1484 494 
L 2788 494 
Q 2872 494 2922 445 
Q 2972 397 2972 316 
L 2972 0 
L 288 0 
L 288 178 
Q 288 231 309 292 
Q 331 353 384 403 
L 1656 1716 
Q 1819 1881 1948 2034 
Q 2078 2188 2168 2342 
Q 2259 2497 2309 2656 
Q 2359 2816 2359 2994 
Q 2359 3172 2304 3306 
Q 2250 3441 2156 3530 
Q 2063 3619 1934 3662 
Q 1806 3706 1656 3706 
Q 1509 3706 1384 3661 
Q 1259 3616 1162 3536 
Q 1066 3456 997 3345 
Q 928 3234 897 3103 
Q 872 2997 811 2964 
Q 750 2931 641 2947 
L 369 2991 
Q 406 3275 520 3492 
Q 634 3709 806 3856 
Q 978 4003 1201 4078 
Q 1425 4153 1684 4153 
z
" transform="scale(0.015625)"/>
       </defs>
       <use xlink:href="#Carlito-32"/>
       <use xlink:href="#Carlito-30" x="50.683594"/>
       <use xlink:href="#Carlito-30" x="101.367188"/>
      </g>
     </g>
    </g>
    <g id="ytick_4">
     <g id="line2d_15">
      <path d="M 36 61.2 
L 234 61.2 
" clip-path="url(#p25a8d755ba)" style="fill: none; stroke-dasharray: 0.8,1.32; stroke-dashoffset: 0; stroke: #b0b0b0; stroke-width: 0.8"/>
     </g>
     <g id="line2d_16">
      <g>
       <use xlink:href="#m475130f0e9" x="36" y="61.2" style="stroke: #000000; stroke-width: 0.8"/>
      </g>
     </g>
     <g id="text_9">
      <!-- 300 -->
      <g transform="translate(16.835 63.9775) scale(0.08 -0.08)">
       <defs>
        <path id="Carlito-33" d="M 297 0 
L 297 0 
z
M 1734 4153 
Q 1994 4153 2209 4078 
Q 2425 4003 2581 3865 
Q 2738 3728 2823 3534 
Q 2909 3341 2909 3103 
Q 2909 2906 2861 2753 
Q 2813 2600 2722 2484 
Q 2631 2369 2503 2289 
Q 2375 2209 2216 2159 
Q 2606 2053 2803 1804 
Q 3000 1556 3000 1181 
Q 3000 897 2894 670 
Q 2788 444 2605 284 
Q 2422 125 2178 40 
Q 1934 -44 1659 -44 
Q 1341 -44 1116 36 
Q 891 116 731 259 
Q 572 403 469 597 
Q 366 791 297 1022 
L 522 1119 
Q 613 1156 695 1140 
Q 778 1125 816 1047 
Q 853 966 908 855 
Q 963 744 1056 642 
Q 1150 541 1294 470 
Q 1438 400 1653 400 
Q 1859 400 2012 470 
Q 2166 541 2269 650 
Q 2372 759 2423 896 
Q 2475 1034 2475 1166 
Q 2475 1328 2434 1467 
Q 2394 1606 2281 1704 
Q 2169 1803 1970 1859 
Q 1772 1916 1459 1916 
L 1459 2294 
Q 1716 2297 1894 2351 
Q 2072 2406 2184 2500 
Q 2297 2594 2347 2725 
Q 2397 2856 2397 3013 
Q 2397 3188 2345 3317 
Q 2294 3447 2201 3534 
Q 2109 3622 1982 3664 
Q 1856 3706 1706 3706 
Q 1556 3706 1432 3661 
Q 1309 3616 1212 3536 
Q 1116 3456 1048 3345 
Q 981 3234 947 3103 
Q 922 2997 861 2964 
Q 800 2931 691 2947 
L 416 2991 
Q 456 3275 568 3492 
Q 681 3709 854 3856 
Q 1028 4003 1251 4078 
Q 1475 4153 1734 4153 
z
" transform="scale(0.015625)"/>
       </defs>
       <use xlink:href="#Carlito-33"/>
       <use xlink:href="#Carlito-30" x="50.683594"/>
       <use xlink:href="#Carlito-30" x="101.367188"/>
      </g>
     </g>
    </g>
    <g id="ytick_5">
     <g id="line2d_17">
      <path d="M 36 43.2 
L 234 43.2 
" clip-path="url(#p25a8d755ba)" style="fill: none; stroke-dasharray: 0.8,1.32; stroke-dashoffset: 0; stroke: #b0b0b0; stroke-width: 0.8"/>
     </g>
     <g id="line2d_18">
      <g>
       <use xlink:href="#m475130f0e9" x="36" y="43.2" style="stroke: #000000; stroke-width: 0.8"/>
      </g>
     </g>
     <g id="text_10">
      <!-- 400 -->
      <g transform="translate(16.835 45.9775) scale(0.08 -0.08)">
       <defs>
        <path id="Carlito-34" d="M 109 0 
L 109 0 
z
M 2544 1484 
L 3138 1484 
L 3138 1188 
Q 3138 1141 3108 1108 
Q 3078 1075 3022 1075 
L 2544 1075 
L 2544 0 
L 2084 0 
L 2084 1075 
L 319 1075 
Q 256 1075 215 1108 
Q 175 1141 163 1194 
L 109 1456 
L 2053 4109 
L 2544 4109 
L 2544 1484 
z
M 2084 3159 
Q 2084 3309 2103 3488 
L 669 1484 
L 2084 1484 
L 2084 3159 
z
" transform="scale(0.015625)"/>
       </defs>
       <use xlink:href="#Carlito-34"/>
       <use xlink:href="#Carlito-30" x="50.683594"/>
       <use xlink:href="#Carlito-30" x="101.367188"/>
      </g>
     </g>
    </g>
    <g id="ytick_6">
     <g id="line2d_19">
      <path d="M 36 25.2 
L 234 25.2 
" clip-path="url(#p25a8d755ba)" style="fill: none; stroke-dasharray: 0.8,1.32; stroke-dashoffset: 0; stroke: #b0b0b0; stroke-width: 0.8"/>
     </g>
     <g id="line2d_20">
      <g>
       <use xlink:href="#m475130f0e9" x="36" y="25.2" style="stroke: #000000; stroke-width: 0.8"/>
      </g>
     </g>
     <g id="text_11">
      <!-- 500 -->
      <g transform="translate(16.835 27.9775) scale(0.08 -0.08)">
       <defs>
        <path id="Carlito-35" d="M 291 0 
L 291 0 
z
M 2741 3878 
Q 2741 3769 2670 3697 
Q 2600 3625 2434 3625 
L 1194 3625 
L 1016 2563 
Q 1172 2597 1311 2612 
Q 1450 2628 1581 2628 
Q 1894 2628 2134 2533 
Q 2375 2438 2537 2272 
Q 2700 2106 2783 1879 
Q 2866 1653 2866 1388 
Q 2866 1059 2755 795 
Q 2644 531 2448 343 
Q 2253 156 1987 56 
Q 1722 -44 1416 -44 
Q 1238 -44 1075 -8 
Q 913 28 769 87 
Q 625 147 504 225 
Q 384 303 291 391 
L 450 613 
Q 506 688 591 688 
Q 647 688 717 644 
Q 788 600 888 545 
Q 988 491 1122 447 
Q 1256 403 1444 403 
Q 1650 403 1815 472 
Q 1981 541 2097 666 
Q 2213 791 2275 967 
Q 2338 1144 2338 1363 
Q 2338 1553 2283 1706 
Q 2228 1859 2120 1968 
Q 2013 2078 1850 2137 
Q 1688 2197 1472 2197 
Q 1169 2197 828 2084 
L 503 2184 
L 828 4106 
L 2741 4106 
L 2741 3878 
z
" transform="scale(0.015625)"/>
       </defs>
       <use xlink:href="#Carlito-35"/>
       <use xlink:href="#Carlito-30" x="50.683594"/>
       <use xlink:href="#Carlito-30" x="101.367188"/>
      </g>
     </g>
    </g>
    <g id="text_12">
     <!-- (maximal bitrate)$^{-1}$ [min/bit] -->
     <g transform="translate(11.54625 109.08) rotate(-90) scale(0.08 -0.08)">
      <defs>
       <path id="Carlito-28" d="M 947 1897 
Q 947 1250 1111 642 
Q 1275 34 1588 -516 
Q 1638 -606 1613 -657 
Q 1588 -709 1541 -738 
L 1297 -888 
Q 1072 -541 914 -198 
Q 756 144 657 486 
Q 559 828 514 1179 
Q 469 1531 469 1897 
Q 469 2263 514 2613 
Q 559 2963 657 3306 
Q 756 3650 914 3990 
Q 1072 4331 1297 4678 
L 1541 4531 
Q 1588 4500 1613 4448 
Q 1638 4397 1588 4306 
Q 1275 3756 1111 3148 
Q 947 2541 947 1897 
z
" transform="scale(0.015625)"/>
       <path id="Carlito-6d" d="M 459 0 
L 459 3056 
L 784 3056 
Q 847 3056 883 3029 
Q 919 3003 925 2944 
L 972 2631 
Q 1059 2734 1154 2820 
Q 1250 2906 1359 2970 
Q 1469 3034 1594 3068 
Q 1719 3103 1859 3103 
Q 2175 3103 2373 2931 
Q 2572 2759 2656 2469 
Q 2722 2638 2830 2756 
Q 2938 2875 3069 2953 
Q 3200 3031 3350 3067 
Q 3500 3103 3656 3103 
Q 4156 3103 4429 2803 
Q 4703 2503 4703 1947 
L 4703 0 
L 4153 0 
L 4153 1947 
Q 4153 2303 3990 2486 
Q 3828 2669 3525 2669 
Q 3388 2669 3266 2623 
Q 3144 2578 3051 2486 
Q 2959 2394 2904 2259 
Q 2850 2125 2850 1947 
L 2850 0 
L 2300 0 
L 2300 1947 
Q 2300 2313 2148 2491 
Q 1997 2669 1703 2669 
Q 1503 2669 1328 2564 
Q 1153 2459 1009 2275 
L 1009 0 
L 459 0 
z
" transform="scale(0.015625)"/>
       <path id="Carlito-61" d="M 2428 0 
Q 2347 0 2303 25 
Q 2259 50 2244 128 
L 2175 413 
Q 2056 303 1942 217 
Q 1828 131 1703 72 
Q 1578 13 1434 -17 
Q 1291 -47 1119 -47 
Q 941 -47 786 1 
Q 631 50 514 151 
Q 397 253 330 404 
Q 263 556 263 763 
Q 263 944 361 1111 
Q 459 1278 681 1409 
Q 903 1541 1259 1623 
Q 1616 1706 2134 1719 
L 2134 1953 
Q 2134 2309 1982 2489 
Q 1831 2669 1541 2669 
Q 1347 2669 1214 2619 
Q 1081 2569 984 2509 
Q 888 2450 817 2400 
Q 747 2350 675 2350 
Q 619 2350 578 2378 
Q 538 2406 513 2450 
L 413 2625 
Q 666 2869 958 2989 
Q 1250 3109 1606 3109 
Q 1863 3109 2063 3026 
Q 2263 2944 2397 2791 
Q 2531 2638 2601 2425 
Q 2672 2213 2672 1953 
L 2672 0 
L 2428 0 
z
M 1284 338 
Q 1422 338 1537 366 
Q 1653 394 1756 445 
Q 1859 497 1951 573 
Q 2044 650 2134 744 
L 2134 1375 
Q 1769 1359 1512 1314 
Q 1256 1269 1095 1194 
Q 934 1119 862 1017 
Q 791 916 791 791 
Q 791 672 830 586 
Q 869 500 934 445 
Q 1000 391 1090 364 
Q 1181 338 1284 338 
z
" transform="scale(0.015625)"/>
       <path id="Carlito-78" d="M 1022 1569 
L 113 3056 
L 638 3056 
Q 700 3056 729 3034 
Q 759 3013 784 2975 
L 1422 1866 
Q 1434 1900 1448 1933 
Q 1463 1966 1488 2000 
L 2022 2963 
Q 2050 3006 2081 3031 
Q 2113 3056 2156 3056 
L 2659 3056 
L 1747 1597 
L 2700 0 
L 2172 0 
Q 2109 0 2070 36 
Q 2031 72 2006 113 
L 1359 1269 
Q 1334 1197 1303 1147 
L 719 113 
Q 694 69 658 34 
Q 622 0 563 0 
L 72 0 
L 1022 1569 
z
" transform="scale(0.015625)"/>
       <path id="Carlito-69" d="M 344 0 
L 344 0 
z
M 1009 3056 
L 1009 0 
L 459 0 
L 459 3056 
L 1009 3056 
z
M 1116 4012 
Q 1116 3934 1084 3864 
Q 1053 3794 998 3742 
Q 944 3691 873 3659 
Q 803 3628 725 3628 
Q 647 3628 578 3659 
Q 509 3691 457 3742 
Q 406 3794 375 3864 
Q 344 3934 344 4012 
Q 344 4094 375 4164 
Q 406 4234 457 4287 
Q 509 4341 578 4372 
Q 647 4403 725 4403 
Q 803 4403 873 4372 
Q 944 4341 998 4287 
Q 1053 4234 1084 4164 
Q 1116 4094 1116 4012 
z
" transform="scale(0.015625)"/>
       <path id="Carlito-6c" d="M 1009 4444 
L 1009 0 
L 459 0 
L 459 4444 
L 1009 4444 
z
" transform="scale(0.015625)"/>
       <path id="Carlito-20" transform="scale(0.015625)"/>
       <path id="Carlito-62" d="M 450 0 
L 450 4444 
L 1000 4444 
L 1000 2622 
Q 1188 2844 1428 2973 
Q 1669 3103 1981 3103 
Q 2247 3103 2459 3000 
Q 2672 2897 2822 2703 
Q 2972 2509 3051 2232 
Q 3131 1956 3131 1606 
Q 3131 1234 3040 931 
Q 2950 628 2781 411 
Q 2613 194 2372 75 
Q 2131 -44 1831 -44 
Q 1531 -44 1329 70 
Q 1128 184 972 388 
L 941 116 
Q 928 0 806 0 
L 450 0 
z
M 1797 2669 
Q 1544 2669 1351 2550 
Q 1159 2431 1000 2213 
L 1000 738 
Q 1144 541 1316 461 
Q 1488 381 1694 381 
Q 2116 381 2341 684 
Q 2566 988 2566 1588 
Q 2566 2144 2366 2406 
Q 2166 2669 1797 2669 
z
" transform="scale(0.015625)"/>
       <path id="Carlito-74" d="M 1303 -47 
Q 950 -47 759 156 
Q 569 359 569 738 
L 569 2600 
L 219 2600 
Q 172 2600 139 2631 
Q 106 2663 106 2722 
L 106 2941 
L 588 3003 
L 716 3944 
Q 722 3991 755 4019 
Q 788 4047 838 4047 
L 1119 4047 
L 1119 3000 
L 1959 3000 
L 1959 2600 
L 1119 2600 
L 1119 775 
Q 1119 588 1205 494 
Q 1291 400 1428 400 
Q 1509 400 1567 422 
Q 1625 444 1665 472 
Q 1706 500 1736 522 
Q 1766 544 1791 544 
Q 1819 544 1836 531 
Q 1853 519 1869 491 
L 2031 228 
Q 1891 97 1700 25 
Q 1509 -47 1303 -47 
z
" transform="scale(0.015625)"/>
       <path id="Carlito-72" d="M 409 0 
L 409 3056 
L 725 3056 
Q 813 3056 848 3022 
Q 884 2988 891 2906 
L 928 2456 
Q 1069 2759 1275 2934 
Q 1481 3109 1772 3109 
Q 1869 3109 1953 3089 
Q 2038 3069 2106 3022 
L 2063 2616 
Q 2053 2538 1975 2538 
Q 1931 2538 1851 2555 
Q 1772 2572 1675 2572 
Q 1534 2572 1426 2530 
Q 1319 2488 1233 2405 
Q 1147 2322 1081 2203 
Q 1016 2084 959 1931 
L 959 0 
L 409 0 
z
" transform="scale(0.015625)"/>
       <path id="Carlito-65" d="M 1672 3103 
Q 1947 3103 2181 3012 
Q 2416 2922 2587 2747 
Q 2759 2572 2856 2319 
Q 2953 2066 2953 1738 
Q 2953 1609 2925 1567 
Q 2897 1525 2822 1525 
L 778 1525 
Q 784 1238 856 1023 
Q 928 809 1054 668 
Q 1181 528 1356 458 
Q 1531 388 1747 388 
Q 1947 388 2094 433 
Q 2241 478 2345 534 
Q 2450 591 2522 636 
Q 2594 681 2647 681 
Q 2681 681 2706 667 
Q 2731 653 2750 628 
L 2906 428 
Q 2803 306 2664 217 
Q 2525 128 2365 70 
Q 2206 13 2036 -15 
Q 1866 -44 1700 -44 
Q 1381 -44 1112 62 
Q 844 169 648 376 
Q 453 584 343 889 
Q 234 1194 234 1591 
Q 234 1909 332 2186 
Q 431 2463 617 2667 
Q 803 2872 1070 2987 
Q 1338 3103 1672 3103 
z
M 1681 2703 
Q 1297 2703 1073 2478 
Q 850 2253 794 1863 
L 2459 1863 
Q 2459 2047 2406 2201 
Q 2353 2356 2253 2467 
Q 2153 2578 2008 2640 
Q 1863 2703 1681 2703 
z
" transform="scale(0.015625)"/>
       <path id="Carlito-29" d="M 994 1897 
Q 994 2541 830 3148 
Q 666 3756 353 4306 
Q 328 4353 323 4387 
Q 319 4422 328 4450 
Q 338 4478 356 4497 
Q 375 4516 400 4531 
L 644 4681 
Q 869 4331 1026 3990 
Q 1184 3650 1282 3306 
Q 1381 2963 1426 2613 
Q 1472 2263 1472 1897 
Q 1472 1531 1426 1179 
Q 1381 828 1282 486 
Q 1184 144 1026 -198 
Q 869 -541 644 -888 
L 400 -738 
Q 375 -725 356 -704 
Q 338 -684 328 -657 
Q 319 -631 323 -597 
Q 328 -563 353 -516 
Q 666 34 830 642 
Q 994 1250 994 1897 
z
" transform="scale(0.015625)"/>
       <path id="DejaVuSans-2212" d="M 678 2272 
L 4684 2272 
L 4684 1741 
L 678 1741 
L 678 2272 
z
" transform="scale(0.015625)"/>
       <path id="Carlito-5b" d="M 500 -872 
L 500 4625 
L 1619 4625 
L 1619 4413 
Q 1619 4350 1578 4308 
Q 1538 4266 1469 4266 
L 959 4266 
L 959 -513 
L 1469 -513 
Q 1538 -513 1578 -555 
Q 1619 -597 1619 -659 
L 1619 -872 
L 500 -872 
z
" transform="scale(0.015625)"/>
       <path id="Carlito-6e" d="M 438 0 
L 438 3056 
L 766 3056 
Q 825 3056 862 3029 
Q 900 3003 906 2944 
L 953 2619 
Q 1150 2838 1394 2970 
Q 1638 3103 1956 3103 
Q 2206 3103 2395 3020 
Q 2584 2938 2712 2786 
Q 2841 2634 2906 2420 
Q 2972 2206 2972 1947 
L 2972 0 
L 2422 0 
L 2422 1947 
Q 2422 2288 2267 2478 
Q 2113 2669 1797 2669 
Q 1563 2669 1359 2558 
Q 1156 2447 988 2250 
L 988 0 
L 438 0 
z
" transform="scale(0.015625)"/>
       <path id="Carlito-2f" d="M 497 -63 
Q 453 -169 368 -220 
Q 284 -272 194 -272 
L -38 -272 
L 1981 4244 
Q 2059 4444 2269 4444 
L 2500 4444 
L 497 -63 
z
" transform="scale(0.015625)"/>
       <path id="Carlito-5d" d="M 344 4625 
L 1463 4625 
L 1463 -872 
L 344 -872 
L 344 -659 
Q 344 -597 386 -555 
Q 428 -513 497 -513 
L 1003 -513 
L 1003 4266 
L 497 4266 
Q 428 4266 386 4308 
Q 344 4350 344 4413 
L 344 4625 
z
" transform="scale(0.015625)"/>
      </defs>
      <use xlink:href="#Carlito-28" transform="translate(0 0.684375)"/>
      <use xlink:href="#Carlito-6d" transform="translate(30.322266 0.684375)"/>
      <use xlink:href="#Carlito-61" transform="translate(110.205078 0.684375)"/>
      <use xlink:href="#Carlito-78" transform="translate(158.105469 0.684375)"/>
      <use xlink:href="#Carlito-69" transform="translate(201.416016 0.684375)"/>
      <use xlink:href="#Carlito-6d" transform="translate(224.365234 0.684375)"/>
      <use xlink:href="#Carlito-61" transform="translate(304.248047 0.684375)"/>
      <use xlink:href="#Carlito-6c" transform="translate(352.148438 0.684375)"/>
      <use xlink:href="#Carlito-20" transform="translate(375.097656 0.684375)"/>
      <use xlink:href="#Carlito-62" transform="translate(397.705078 0.684375)"/>
      <use xlink:href="#Carlito-69" transform="translate(450.244141 0.684375)"/>
      <use xlink:href="#Carlito-74" transform="translate(473.193359 0.684375)"/>
      <use xlink:href="#Carlito-72" transform="translate(506.689453 0.684375)"/>
      <use xlink:href="#Carlito-61" transform="translate(541.552734 0.684375)"/>
      <use xlink:href="#Carlito-74" transform="translate(589.453125 0.684375)"/>
      <use xlink:href="#Carlito-65" transform="translate(622.949219 0.684375)"/>
      <use xlink:href="#Carlito-29" transform="translate(672.705078 0.684375)"/>
      <use xlink:href="#DejaVuSans-2212" transform="translate(703.984375 38.965625) scale(0.7)"/>
      <use xlink:href="#DejaVuSans-31" transform="translate(762.636719 38.965625) scale(0.7)"/>
      <use xlink:href="#Carlito-20" transform="translate(809.907227 0.684375)"/>
      <use xlink:href="#Carlito-5b" transform="translate(832.514648 0.684375)"/>
      <use xlink:href="#Carlito-6d" transform="translate(863.178711 0.684375)"/>
      <use xlink:href="#Carlito-69" transform="translate(943.061523 0.684375)"/>
      <use xlink:href="#Carlito-6e" transform="translate(966.010742 0.684375)"/>
      <use xlink:href="#Carlito-2f" transform="translate(1018.549805 0.684375)"/>
      <use xlink:href="#Carlito-62" transform="translate(1057.172852 0.684375)"/>
      <use xlink:href="#Carlito-69" transform="translate(1109.711914 0.684375)"/>
      <use xlink:href="#Carlito-74" transform="translate(1132.661133 0.684375)"/>
      <use xlink:href="#Carlito-5d" transform="translate(1166.157227 0.684375)"/>
     </g>
    </g>
   </g>
   <g id="line2d_21">
    <defs>
     <path id="m7881b9e627" d="M 0 3 
C 0.795609 3 1.55874 2.683901 2.12132 2.12132 
C 2.683901 1.55874 3 0.795609 3 0 
C 3 -0.795609 2.683901 -1.55874 2.12132 -2.12132 
C 1.55874 -2.683901 0.795609 -3 0 -3 
C -0.795609 -3 -1.55874 -2.683901 -2.12132 -2.12132 
C -2.683901 -1.55874 -3 -0.795609 -3 0 
C -3 0.795609 -2.683901 1.55874 -2.12132 2.12132 
C -1.55874 2.683901 -0.795609 3 0 3 
z
" style="stroke: #000000"/>
    </defs>
    <g clip-path="url(#p25a8d755ba)">
     <use xlink:href="#m7881b9e627" x="45" y="94.751586" style="stroke: #000000"/>
     <use xlink:href="#m7881b9e627" x="56.936939" y="92.700302" style="stroke: #000000"/>
     <use xlink:href="#m7881b9e627" x="76.137206" y="90.100036" style="stroke: #000000"/>
     <use xlink:href="#m7881b9e627" x="97.055214" y="87.333725" style="stroke: #000000"/>
     <use xlink:href="#m7881b9e627" x="126.53551" y="82.770927" style="stroke: #000000"/>
     <use xlink:href="#m7881b9e627" x="164.283427" y="76.548132" style="stroke: #000000"/>
     <use xlink:href="#m7881b9e627" x="225" y="59.623696" style="stroke: #000000"/>
    </g>
   </g>
   <g id="line2d_22">
    <path d="M 45 96.11861 
L 56.936939 93.886414 
L 76.137206 90.295983 
L 97.055214 86.384336 
L 126.53551 80.871549 
L 164.283427 73.812726 
L 225 62.458786 
" clip-path="url(#p25a8d755ba)" style="fill: none; stroke: #000000; stroke-opacity: 0.4; stroke-width: 1.5; stroke-linecap: square"/>
   </g>
   <g id="patch_3">
    <path d="M 36 115.2 
L 36 7.2 
" style="fill: none; stroke: #000000; stroke-width: 0.8; stroke-linejoin: miter; stroke-linecap: square"/>
   </g>
   <g id="patch_4">
    <path d="M 234 115.2 
L 234 7.2 
" style="fill: none; stroke: #000000; stroke-width: 0.8; stroke-linejoin: miter; stroke-linecap: square"/>
   </g>
   <g id="patch_5">
    <path d="M 36 115.2 
L 234 115.2 
" style="fill: none; stroke: #000000; stroke-width: 0.8; stroke-linejoin: miter; stroke-linecap: square"/>
   </g>
   <g id="patch_6">
    <path d="M 36 7.2 
L 234 7.2 
" style="fill: none; stroke: #000000; stroke-width: 0.8; stroke-linejoin: miter; stroke-linecap: square"/>
   </g>
   <g id="legend_1">
    <g id="patch_7">
     <path d="M 41.6 37.44875 
L 117.44 37.44875 
Q 119.04 37.44875 119.04 35.84875 
L 119.04 12.8 
Q 119.04 11.2 117.44 11.2 
L 41.6 11.2 
Q 40 11.2 40 12.8 
L 40 35.84875 
Q 40 37.44875 41.6 37.44875 
z
" style="fill: #ffffff; opacity: 0.8; stroke: #cccccc; stroke-linejoin: miter"/>
    </g>
    <g id="line2d_23">
     <g>
      <use xlink:href="#m7881b9e627" x="51.2" y="17.2" style="stroke: #000000"/>
     </g>
    </g>
    <g id="text_13">
     <!-- simulations -->
     <g transform="translate(65.6 20) scale(0.08 -0.08)">
      <defs>
       <path id="Carlito-73" d="M 2122 2550 
Q 2084 2481 2009 2481 
Q 1963 2481 1908 2515 
Q 1853 2550 1776 2589 
Q 1700 2628 1595 2662 
Q 1491 2697 1347 2697 
Q 1225 2697 1128 2662 
Q 1031 2628 962 2568 
Q 894 2509 856 2429 
Q 819 2350 819 2259 
Q 819 2141 881 2062 
Q 944 1984 1047 1928 
Q 1150 1872 1283 1826 
Q 1416 1781 1553 1734 
Q 1691 1688 1823 1625 
Q 1956 1563 2059 1472 
Q 2163 1381 2225 1251 
Q 2288 1122 2288 938 
Q 2288 725 2216 545 
Q 2144 366 2005 234 
Q 1866 103 1661 28 
Q 1456 -47 1191 -47 
Q 888 -47 639 56 
Q 391 159 219 325 
L 347 531 
Q 372 572 406 594 
Q 441 616 494 616 
Q 550 616 606 573 
Q 663 531 742 479 
Q 822 428 934 386 
Q 1047 344 1216 344 
Q 1359 344 1464 384 
Q 1569 425 1637 492 
Q 1706 559 1740 650 
Q 1775 741 1775 841 
Q 1775 966 1711 1048 
Q 1647 1131 1544 1189 
Q 1441 1247 1308 1290 
Q 1175 1334 1036 1382 
Q 897 1431 764 1492 
Q 631 1553 528 1648 
Q 425 1744 361 1881 
Q 297 2019 297 2216 
Q 297 2394 365 2555 
Q 434 2716 565 2837 
Q 697 2959 890 3031 
Q 1084 3103 1334 3103 
Q 1619 3103 1850 3009 
Q 2081 2916 2244 2747 
L 2122 2550 
z
" transform="scale(0.015625)"/>
       <path id="Carlito-75" d="M 941 3056 
L 941 1109 
Q 941 766 1095 577 
Q 1250 388 1566 388 
Q 1800 388 2001 498 
Q 2203 609 2375 803 
L 2375 3056 
L 2925 3056 
L 2925 0 
L 2594 0 
Q 2538 0 2500 26 
Q 2463 53 2456 113 
L 2406 438 
Q 2209 219 1967 86 
Q 1725 -47 1406 -47 
Q 1156 -47 967 36 
Q 778 119 650 270 
Q 522 422 456 636 
Q 391 850 391 1109 
L 391 3056 
L 941 3056 
z
" transform="scale(0.015625)"/>
       <path id="Carlito-6f" d="M 1691 3103 
Q 2025 3103 2294 2992 
Q 2563 2881 2750 2676 
Q 2938 2472 3039 2181 
Q 3141 1891 3141 1531 
Q 3141 1169 3039 878 
Q 2938 588 2750 383 
Q 2563 178 2294 67 
Q 2025 -44 1691 -44 
Q 1356 -44 1086 67 
Q 816 178 627 383 
Q 438 588 336 878 
Q 234 1169 234 1531 
Q 234 1891 336 2181 
Q 438 2472 627 2676 
Q 816 2881 1086 2992 
Q 1356 3103 1691 3103 
z
M 1691 384 
Q 1913 384 2078 461 
Q 2244 538 2355 684 
Q 2466 831 2520 1043 
Q 2575 1256 2575 1528 
Q 2575 1800 2520 2012 
Q 2466 2225 2355 2372 
Q 2244 2519 2078 2597 
Q 1913 2675 1691 2675 
Q 1466 2675 1298 2597 
Q 1131 2519 1020 2372 
Q 909 2225 854 2012 
Q 800 1800 800 1528 
Q 800 1256 854 1043 
Q 909 831 1020 684 
Q 1131 538 1298 461 
Q 1466 384 1691 384 
z
" transform="scale(0.015625)"/>
      </defs>
      <use xlink:href="#Carlito-73"/>
      <use xlink:href="#Carlito-69" x="39.111328"/>
      <use xlink:href="#Carlito-6d" x="62.060547"/>
      <use xlink:href="#Carlito-75" x="141.943359"/>
      <use xlink:href="#Carlito-6c" x="194.482422"/>
      <use xlink:href="#Carlito-61" x="217.431641"/>
      <use xlink:href="#Carlito-74" x="265.332031"/>
      <use xlink:href="#Carlito-69" x="298.828125"/>
      <use xlink:href="#Carlito-6f" x="321.777344"/>
      <use xlink:href="#Carlito-6e" x="374.511719"/>
      <use xlink:href="#Carlito-73" x="427.050781"/>
     </g>
    </g>
    <g id="line2d_24">
     <path d="M 43.2 30.16 
L 51.2 30.16 
L 59.2 30.16 
" style="fill: none; stroke: #000000; stroke-opacity: 0.4; stroke-width: 1.5; stroke-linecap: square"/>
    </g>
    <g id="text_14">
     <!-- $7.2 × \sqrt{L} + 67$ -->
     <g transform="translate(65.6 32.96) scale(0.08 -0.08)">
      <defs>
       <path id="DejaVuSans-37" d="M 525 4666 
L 3525 4666 
L 3525 4397 
L 1831 0 
L 1172 0 
L 2766 4134 
L 525 4134 
L 525 4666 
z
" transform="scale(0.015625)"/>
       <path id="DejaVuSans-2e" d="M 684 794 
L 1344 794 
L 1344 0 
L 684 0 
L 684 794 
z
" transform="scale(0.015625)"/>
       <path id="DejaVuSans-32" d="M 1228 531 
L 3431 531 
L 3431 0 
L 469 0 
L 469 531 
Q 828 903 1448 1529 
Q 2069 2156 2228 2338 
Q 2531 2678 2651 2914 
Q 2772 3150 2772 3378 
Q 2772 3750 2511 3984 
Q 2250 4219 1831 4219 
Q 1534 4219 1204 4116 
Q 875 4013 500 3803 
L 500 4441 
Q 881 4594 1212 4672 
Q 1544 4750 1819 4750 
Q 2544 4750 2975 4387 
Q 3406 4025 3406 3419 
Q 3406 3131 3298 2873 
Q 3191 2616 2906 2266 
Q 2828 2175 2409 1742 
Q 1991 1309 1228 531 
z
" transform="scale(0.015625)"/>
       <path id="DejaVuSans-d7" d="M 4488 3438 
L 3059 2003 
L 4488 575 
L 4116 197 
L 2681 1631 
L 1247 197 
L 878 575 
L 2303 2003 
L 878 3438 
L 1247 3816 
L 2681 2381 
L 4116 3816 
L 4488 3438 
z
" transform="scale(0.015625)"/>
       <path id="DejaVuSans-Oblique-4c" d="M 1075 4666 
L 1709 4666 
L 909 525 
L 3181 525 
L 3078 0 
L 172 0 
L 1075 4666 
z
" transform="scale(0.015625)"/>
       <path id="DejaVuSans-2b" d="M 2944 4013 
L 2944 2272 
L 4684 2272 
L 4684 1741 
L 2944 1741 
L 2944 0 
L 2419 0 
L 2419 1741 
L 678 1741 
L 678 2272 
L 2419 2272 
L 2419 4013 
L 2944 4013 
z
" transform="scale(0.015625)"/>
       <path id="DejaVuSans-36" d="M 2113 2584 
Q 1688 2584 1439 2293 
Q 1191 2003 1191 1497 
Q 1191 994 1439 701 
Q 1688 409 2113 409 
Q 2538 409 2786 701 
Q 3034 994 3034 1497 
Q 3034 2003 2786 2293 
Q 2538 2584 2113 2584 
z
M 3366 4563 
L 3366 3988 
Q 3128 4100 2886 4159 
Q 2644 4219 2406 4219 
Q 1781 4219 1451 3797 
Q 1122 3375 1075 2522 
Q 1259 2794 1537 2939 
Q 1816 3084 2150 3084 
Q 2853 3084 3261 2657 
Q 3669 2231 3669 1497 
Q 3669 778 3244 343 
Q 2819 -91 2113 -91 
Q 1303 -91 875 529 
Q 447 1150 447 2328 
Q 447 3434 972 4092 
Q 1497 4750 2381 4750 
Q 2619 4750 2861 4703 
Q 3103 4656 3366 4563 
z
" transform="scale(0.015625)"/>
      </defs>
      <use xlink:href="#DejaVuSans-37" transform="translate(0 0.578125)"/>
      <use xlink:href="#DejaVuSans-2e" transform="translate(63.623047 0.578125)"/>
      <use xlink:href="#DejaVuSans-32" transform="translate(89.910156 0.578125)"/>
      <use xlink:href="#DejaVuSans-d7" transform="translate(153.533203 0.578125)"/>
      <use xlink:href="#STIXSizeOneSym-Regular-221a" transform="translate(237.322266 17.09375) scale(0.563912)"/>
      <use xlink:href="#DejaVuSans-Oblique-4c" transform="translate(309.410629 0.84375)"/>
      <use xlink:href="#DejaVuSans-2b" transform="translate(397.105942 0.578125)"/>
      <use xlink:href="#DejaVuSans-36" transform="translate(500.377426 0.578125)"/>
      <use xlink:href="#DejaVuSans-37" transform="translate(564.000473 0.578125)"/>
      <path d="M 296.910629 97.5 
L 296.910629 103.75 
L 377.62352 103.75 
L 377.62352 97.5 
L 296.910629 97.5 
z
"/>
     </g>
    </g>
   </g>
  </g>
  <g id="axes_2">
   <g id="patch_8">
    <path d="M 270 115.2 
L 468 115.2 
L 468 7.2 
L 270 7.2 
z
" style="fill: #ffffff"/>
   </g>
   <g id="matplotlib.axis_3">
    <g id="xtick_5">
     <g id="line2d_25">
      <path d="M 279 115.2 
L 279 7.2 
" clip-path="url(#p88e81d698f)" style="fill: none; stroke-dasharray: 0.8,1.32; stroke-dashoffset: 0; stroke: #b0b0b0; stroke-width: 0.8"/>
     </g>
     <g id="line2d_26">
      <g>
       <use xlink:href="#m6039c2d436" x="279" y="115.2" style="stroke: #000000; stroke-width: 0.8"/>
      </g>
     </g>
     <g id="text_15">
      <!-- $\sqrt{30}$ -->
      <g transform="translate(270.44 130.03125) scale(0.08 -0.08)">
       <use xlink:href="#STIXSizeOneSym-Regular-221a" transform="translate(0 15.984375) scale(0.578716)"/>
       <use xlink:href="#DejaVuSans-33" transform="translate(73.673874 0.53125)"/>
       <use xlink:href="#DejaVuSans-30" transform="translate(137.296921 0.53125)"/>
       <path d="M 61.173874 99.5 
L 61.173874 105.75 
L 213.419968 105.75 
L 213.419968 99.5 
L 61.173874 99.5 
z
"/>
      </g>
     </g>
    </g>
    <g id="xtick_6">
     <g id="line2d_27">
      <path d="M 310.137206 115.2 
L 310.137206 7.2 
" clip-path="url(#p88e81d698f)" style="fill: none; stroke-dasharray: 0.8,1.32; stroke-dashoffset: 0; stroke: #b0b0b0; stroke-width: 0.8"/>
     </g>
     <g id="line2d_28">
      <g>
       <use xlink:href="#m6039c2d436" x="310.137206" y="115.2" style="stroke: #000000; stroke-width: 0.8"/>
      </g>
     </g>
     <g id="text_16">
      <!-- $\sqrt{100}$ -->
      <g transform="translate(299.017206 130.03125) scale(0.08 -0.08)">
       <use xlink:href="#STIXSizeOneSym-Regular-221a" transform="translate(0 15.984375) scale(0.578716)"/>
       <use xlink:href="#DejaVuSans-31" transform="translate(73.673874 0.53125)"/>
       <use xlink:href="#DejaVuSans-30" transform="translate(137.296921 0.53125)"/>
       <use xlink:href="#DejaVuSans-30" transform="translate(200.919968 0.53125)"/>
       <path d="M 61.173874 99.5 
L 61.173874 105.75 
L 277.043015 105.75 
L 277.043015 99.5 
L 61.173874 99.5 
z
"/>
      </g>
     </g>
    </g>
    <g id="xtick_7">
     <g id="line2d_29">
      <path d="M 360.53551 115.2 
L 360.53551 7.2 
" clip-path="url(#p88e81d698f)" style="fill: none; stroke-dasharray: 0.8,1.32; stroke-dashoffset: 0; stroke: #b0b0b0; stroke-width: 0.8"/>
     </g>
     <g id="line2d_30">
      <g>
       <use xlink:href="#m6039c2d436" x="360.53551" y="115.2" style="stroke: #000000; stroke-width: 0.8"/>
      </g>
     </g>
     <g id="text_17">
      <!-- $\sqrt{300}$ -->
      <g transform="translate(349.41551 130.03125) scale(0.08 -0.08)">
       <use xlink:href="#STIXSizeOneSym-Regular-221a" transform="translate(0 15.984375) scale(0.578716)"/>
       <use xlink:href="#DejaVuSans-33" transform="translate(73.673874 0.53125)"/>
       <use xlink:href="#DejaVuSans-30" transform="translate(137.296921 0.53125)"/>
       <use xlink:href="#DejaVuSans-30" transform="translate(200.919968 0.53125)"/>
       <path d="M 61.173874 99.5 
L 61.173874 105.75 
L 277.043015 105.75 
L 277.043015 99.5 
L 61.173874 99.5 
z
"/>
      </g>
     </g>
    </g>
    <g id="xtick_8">
     <g id="line2d_31">
      <path d="M 459 115.2 
L 459 7.2 
" clip-path="url(#p88e81d698f)" style="fill: none; stroke-dasharray: 0.8,1.32; stroke-dashoffset: 0; stroke: #b0b0b0; stroke-width: 0.8"/>
     </g>
     <g id="line2d_32">
      <g>
       <use xlink:href="#m6039c2d436" x="459" y="115.2" style="stroke: #000000; stroke-width: 0.8"/>
      </g>
     </g>
     <g id="text_18">
      <!-- $\sqrt{1000}$ -->
      <g transform="translate(445.36 130.03125) scale(0.08 -0.08)">
       <use xlink:href="#STIXSizeOneSym-Regular-221a" transform="translate(0 15.984375) scale(0.578716)"/>
       <use xlink:href="#DejaVuSans-31" transform="translate(73.673874 0.53125)"/>
       <use xlink:href="#DejaVuSans-30" transform="translate(137.296921 0.53125)"/>
       <use xlink:href="#DejaVuSans-30" transform="translate(200.919968 0.53125)"/>
       <use xlink:href="#DejaVuSans-30" transform="translate(264.543015 0.53125)"/>
       <path d="M 61.173874 99.5 
L 61.173874 105.75 
L 340.666061 105.75 
L 340.666061 99.5 
L 61.173874 99.5 
z
"/>
      </g>
     </g>
    </g>
    <g id="text_19">
     <!-- $\sqrt{\mathrm{channel~length}}$ -->
     <g transform="translate(335.16 144.36) scale(0.08 -0.08)">
      <use xlink:href="#STIXSizeOneSym-Regular-221a" transform="translate(0 -0.09375) scale(0.693173)"/>
      <use xlink:href="#DejaVuSans-63" transform="translate(85.829376 0.765625)"/>
      <use xlink:href="#DejaVuSans-68" transform="translate(140.809845 0.765625)"/>
      <use xlink:href="#DejaVuSans-61" transform="translate(204.188751 0.765625)"/>
      <use xlink:href="#DejaVuSans-6e" transform="translate(265.468048 0.765625)"/>
      <use xlink:href="#DejaVuSans-6e" transform="translate(328.846954 0.765625)"/>
      <use xlink:href="#DejaVuSans-65" transform="translate(392.225861 0.765625)"/>
      <use xlink:href="#DejaVuSans-6c" transform="translate(453.749298 0.765625)"/>
      <use xlink:href="#DejaVuSans-6c" transform="translate(514.00288 0.765625)"/>
      <use xlink:href="#DejaVuSans-65" transform="translate(541.786083 0.765625)"/>
      <use xlink:href="#DejaVuSans-6e" transform="translate(603.30952 0.765625)"/>
      <use xlink:href="#DejaVuSans-67" transform="translate(666.688427 0.765625)"/>
      <use xlink:href="#DejaVuSans-74" transform="translate(730.164989 0.765625)"/>
      <use xlink:href="#DejaVuSans-68" transform="translate(769.373973 0.765625)"/>
      <path d="M 73.329376 100.5 
L 73.329376 106.75 
L 845.25288 106.75 
L 845.25288 100.5 
L 73.329376 100.5 
z
"/>
     </g>
    </g>
   </g>
   <g id="matplotlib.axis_4">
    <g id="ytick_7">
     <g id="line2d_33">
      <path d="M 270 115.2 
L 468 115.2 
" clip-path="url(#p88e81d698f)" style="fill: none; stroke-dasharray: 0.8,1.32; stroke-dashoffset: 0; stroke: #b0b0b0; stroke-width: 0.8"/>
     </g>
     <g id="line2d_34">
      <g>
       <use xlink:href="#m475130f0e9" x="270" y="115.2" style="stroke: #000000; stroke-width: 0.8"/>
      </g>
     </g>
     <g id="text_20">
      <!-- 0 -->
      <g transform="translate(258.945 117.9775) scale(0.08 -0.08)">
       <use xlink:href="#Carlito-30"/>
      </g>
     </g>
    </g>
    <g id="ytick_8">
     <g id="line2d_35">
      <path d="M 270 97.2 
L 468 97.2 
" clip-path="url(#p88e81d698f)" style="fill: none; stroke-dasharray: 0.8,1.32; stroke-dashoffset: 0; stroke: #b0b0b0; stroke-width: 0.8"/>
     </g>
     <g id="line2d_36">
      <g>
       <use xlink:href="#m475130f0e9" x="270" y="97.2" style="stroke: #000000; stroke-width: 0.8"/>
      </g>
     </g>
     <g id="text_21">
      <!-- 50 -->
      <g transform="translate(254.89 99.9775) scale(0.08 -0.08)">
       <use xlink:href="#Carlito-35"/>
       <use xlink:href="#Carlito-30" x="50.683594"/>
      </g>
     </g>
    </g>
    <g id="ytick_9">
     <g id="line2d_37">
      <path d="M 270 79.2 
L 468 79.2 
" clip-path="url(#p88e81d698f)" style="fill: none; stroke-dasharray: 0.8,1.32; stroke-dashoffset: 0; stroke: #b0b0b0; stroke-width: 0.8"/>
     </g>
     <g id="line2d_38">
      <g>
       <use xlink:href="#m475130f0e9" x="270" y="79.2" style="stroke: #000000; stroke-width: 0.8"/>
      </g>
     </g>
     <g id="text_22">
      <!-- 100 -->
      <g transform="translate(250.835 81.9775) scale(0.08 -0.08)">
       <use xlink:href="#Carlito-31"/>
       <use xlink:href="#Carlito-30" x="50.683594"/>
       <use xlink:href="#Carlito-30" x="101.367188"/>
      </g>
     </g>
    </g>
    <g id="ytick_10">
     <g id="line2d_39">
      <path d="M 270 61.2 
L 468 61.2 
" clip-path="url(#p88e81d698f)" style="fill: none; stroke-dasharray: 0.8,1.32; stroke-dashoffset: 0; stroke: #b0b0b0; stroke-width: 0.8"/>
     </g>
     <g id="line2d_40">
      <g>
       <use xlink:href="#m475130f0e9" x="270" y="61.2" style="stroke: #000000; stroke-width: 0.8"/>
      </g>
     </g>
     <g id="text_23">
      <!-- 150 -->
      <g transform="translate(250.835 63.9775) scale(0.08 -0.08)">
       <use xlink:href="#Carlito-31"/>
       <use xlink:href="#Carlito-35" x="50.683594"/>
       <use xlink:href="#Carlito-30" x="101.367188"/>
      </g>
     </g>
    </g>
    <g id="ytick_11">
     <g id="line2d_41">
      <path d="M 270 43.2 
L 468 43.2 
" clip-path="url(#p88e81d698f)" style="fill: none; stroke-dasharray: 0.8,1.32; stroke-dashoffset: 0; stroke: #b0b0b0; stroke-width: 0.8"/>
     </g>
     <g id="line2d_42">
      <g>
       <use xlink:href="#m475130f0e9" x="270" y="43.2" style="stroke: #000000; stroke-width: 0.8"/>
      </g>
     </g>
     <g id="text_24">
      <!-- 200 -->
      <g transform="translate(250.835 45.9775) scale(0.08 -0.08)">
       <use xlink:href="#Carlito-32"/>
       <use xlink:href="#Carlito-30" x="50.683594"/>
       <use xlink:href="#Carlito-30" x="101.367188"/>
      </g>
     </g>
    </g>
    <g id="ytick_12">
     <g id="line2d_43">
      <path d="M 270 25.2 
L 468 25.2 
" clip-path="url(#p88e81d698f)" style="fill: none; stroke-dasharray: 0.8,1.32; stroke-dashoffset: 0; stroke: #b0b0b0; stroke-width: 0.8"/>
     </g>
     <g id="line2d_44">
      <g>
       <use xlink:href="#m475130f0e9" x="270" y="25.2" style="stroke: #000000; stroke-width: 0.8"/>
      </g>
     </g>
     <g id="text_25">
      <!-- 250 -->
      <g transform="translate(250.835 27.9775) scale(0.08 -0.08)">
       <use xlink:href="#Carlito-32"/>
       <use xlink:href="#Carlito-35" x="50.683594"/>
       <use xlink:href="#Carlito-30" x="101.367188"/>
      </g>
     </g>
    </g>
    <g id="text_26">
     <!-- optimal interval [min] -->
     <g transform="translate(245.54625 96.563125) rotate(-90) scale(0.08 -0.08)">
      <defs>
       <path id="Carlito-70" d="M 441 -1031 
L 441 3056 
L 769 3056 
Q 828 3056 865 3029 
Q 903 3003 909 2944 
L 963 2588 
Q 1156 2822 1406 2965 
Q 1656 3109 1981 3109 
Q 2244 3109 2456 3007 
Q 2669 2906 2819 2709 
Q 2969 2513 3050 2222 
Q 3131 1931 3131 1550 
Q 3131 1213 3040 920 
Q 2950 628 2779 414 
Q 2609 200 2365 78 
Q 2122 -44 1816 -44 
Q 1538 -44 1341 50 
Q 1144 144 991 313 
L 991 -1031 
L 441 -1031 
z
M 1800 2669 
Q 1544 2669 1348 2550 
Q 1153 2431 991 2213 
L 991 738 
Q 1134 541 1307 461 
Q 1481 381 1694 381 
Q 2113 381 2339 684 
Q 2566 988 2566 1550 
Q 2566 1847 2514 2059 
Q 2463 2272 2364 2408 
Q 2266 2544 2123 2606 
Q 1981 2669 1800 2669 
z
" transform="scale(0.015625)"/>
       <path id="Carlito-76" d="M 1694 0 
L 1197 0 
L 59 3056 
L 513 3056 
Q 575 3056 619 3022 
Q 663 2988 678 2944 
L 1331 988 
Q 1372 878 1400 775 
Q 1428 672 1453 566 
Q 1475 669 1504 773 
Q 1534 878 1578 988 
L 2241 2944 
Q 2259 2991 2301 3023 
Q 2344 3056 2397 3056 
L 2831 3056 
L 1694 0 
z
" transform="scale(0.015625)"/>
      </defs>
      <use xlink:href="#Carlito-6f"/>
      <use xlink:href="#Carlito-70" x="52.734375"/>
      <use xlink:href="#Carlito-74" x="105.273438"/>
      <use xlink:href="#Carlito-69" x="138.769531"/>
      <use xlink:href="#Carlito-6d" x="161.71875"/>
      <use xlink:href="#Carlito-61" x="241.601562"/>
      <use xlink:href="#Carlito-6c" x="289.501953"/>
      <use xlink:href="#Carlito-20" x="312.451172"/>
      <use xlink:href="#Carlito-69" x="335.058594"/>
      <use xlink:href="#Carlito-6e" x="358.007812"/>
      <use xlink:href="#Carlito-74" x="410.546875"/>
      <use xlink:href="#Carlito-65" x="444.042969"/>
      <use xlink:href="#Carlito-72" x="493.798828"/>
      <use xlink:href="#Carlito-76" x="528.662109"/>
      <use xlink:href="#Carlito-61" x="573.828125"/>
      <use xlink:href="#Carlito-6c" x="621.728516"/>
      <use xlink:href="#Carlito-20" x="644.677734"/>
      <use xlink:href="#Carlito-5b" x="667.285156"/>
      <use xlink:href="#Carlito-6d" x="697.949219"/>
      <use xlink:href="#Carlito-69" x="777.832031"/>
      <use xlink:href="#Carlito-6e" x="800.78125"/>
      <use xlink:href="#Carlito-5d" x="853.320312"/>
     </g>
    </g>
   </g>
   <g id="line2d_45">
    <g clip-path="url(#p88e81d698f)">
     <use xlink:href="#m7881b9e627" x="279" y="79.92" style="stroke: #000000"/>
     <use xlink:href="#m7881b9e627" x="290.936939" y="78.84" style="stroke: #000000"/>
     <use xlink:href="#m7881b9e627" x="310.137206" y="73.44" style="stroke: #000000"/>
     <use xlink:href="#m7881b9e627" x="331.055214" y="71.28" style="stroke: #000000"/>
     <use xlink:href="#m7881b9e627" x="360.53551" y="66.6" style="stroke: #000000"/>
     <use xlink:href="#m7881b9e627" x="398.283427" y="61.92" style="stroke: #000000"/>
     <use xlink:href="#m7881b9e627" x="459" y="52.56" style="stroke: #000000"/>
    </g>
   </g>
   <g id="line2d_46">
    <path d="M 279 79.478042 
L 290.936939 77.677618 
L 310.137206 74.781682 
L 331.055214 71.626662 
L 360.53551 67.18021 
L 398.283427 61.48677 
L 459 52.329016 
" clip-path="url(#p88e81d698f)" style="fill: none; stroke: #000000; stroke-opacity: 0.4; stroke-width: 1.5; stroke-linecap: square"/>
   </g>
   <g id="patch_9">
    <path d="M 270 115.2 
L 270 7.2 
" style="fill: none; stroke: #000000; stroke-width: 0.8; stroke-linejoin: miter; stroke-linecap: square"/>
   </g>
   <g id="patch_10">
    <path d="M 468 115.2 
L 468 7.2 
" style="fill: none; stroke: #000000; stroke-width: 0.8; stroke-linejoin: miter; stroke-linecap: square"/>
   </g>
   <g id="patch_11">
    <path d="M 270 115.2 
L 468 115.2 
" style="fill: none; stroke: #000000; stroke-width: 0.8; stroke-linejoin: miter; stroke-linecap: square"/>
   </g>
   <g id="patch_12">
    <path d="M 270 7.2 
L 468 7.2 
" style="fill: none; stroke: #000000; stroke-width: 0.8; stroke-linejoin: miter; stroke-linecap: square"/>
   </g>
   <g id="legend_2">
    <g id="patch_13">
     <path d="M 275.6 37.44875 
L 351.92 37.44875 
Q 353.52 37.44875 353.52 35.84875 
L 353.52 12.8 
Q 353.52 11.2 351.92 11.2 
L 275.6 11.2 
Q 274 11.2 274 12.8 
L 274 35.84875 
Q 274 37.44875 275.6 37.44875 
z
" style="fill: #ffffff; opacity: 0.8; stroke: #cccccc; stroke-linejoin: miter"/>
    </g>
    <g id="line2d_47">
     <g>
      <use xlink:href="#m7881b9e627" x="285.2" y="17.2" style="stroke: #000000"/>
     </g>
    </g>
    <g id="text_27">
     <!-- simulations -->
     <g transform="translate(299.6 20) scale(0.08 -0.08)">
      <use xlink:href="#Carlito-73"/>
      <use xlink:href="#Carlito-69" x="39.111328"/>
      <use xlink:href="#Carlito-6d" x="62.060547"/>
      <use xlink:href="#Carlito-75" x="141.943359"/>
      <use xlink:href="#Carlito-6c" x="194.482422"/>
      <use xlink:href="#Carlito-61" x="217.431641"/>
      <use xlink:href="#Carlito-74" x="265.332031"/>
      <use xlink:href="#Carlito-69" x="298.828125"/>
      <use xlink:href="#Carlito-6f" x="321.777344"/>
      <use xlink:href="#Carlito-6e" x="374.511719"/>
      <use xlink:href="#Carlito-73" x="427.050781"/>
     </g>
    </g>
    <g id="line2d_48">
     <path d="M 277.2 30.16 
L 285.2 30.16 
L 293.2 30.16 
" style="fill: none; stroke: #000000; stroke-opacity: 0.4; stroke-width: 1.5; stroke-linecap: square"/>
    </g>
    <g id="text_28">
     <!-- $2.9 × \sqrt{L} + 83$ -->
     <g transform="translate(299.6 32.96) scale(0.08 -0.08)">
      <defs>
       <path id="DejaVuSans-39" d="M 703 97 
L 703 672 
Q 941 559 1184 500 
Q 1428 441 1663 441 
Q 2288 441 2617 861 
Q 2947 1281 2994 2138 
Q 2813 1869 2534 1725 
Q 2256 1581 1919 1581 
Q 1219 1581 811 2004 
Q 403 2428 403 3163 
Q 403 3881 828 4315 
Q 1253 4750 1959 4750 
Q 2769 4750 3195 4129 
Q 3622 3509 3622 2328 
Q 3622 1225 3098 567 
Q 2575 -91 1691 -91 
Q 1453 -91 1209 -44 
Q 966 3 703 97 
z
M 1959 2075 
Q 2384 2075 2632 2365 
Q 2881 2656 2881 3163 
Q 2881 3666 2632 3958 
Q 2384 4250 1959 4250 
Q 1534 4250 1286 3958 
Q 1038 3666 1038 3163 
Q 1038 2656 1286 2365 
Q 1534 2075 1959 2075 
z
" transform="scale(0.015625)"/>
       <path id="DejaVuSans-38" d="M 2034 2216 
Q 1584 2216 1326 1975 
Q 1069 1734 1069 1313 
Q 1069 891 1326 650 
Q 1584 409 2034 409 
Q 2484 409 2743 651 
Q 3003 894 3003 1313 
Q 3003 1734 2745 1975 
Q 2488 2216 2034 2216 
z
M 1403 2484 
Q 997 2584 770 2862 
Q 544 3141 544 3541 
Q 544 4100 942 4425 
Q 1341 4750 2034 4750 
Q 2731 4750 3128 4425 
Q 3525 4100 3525 3541 
Q 3525 3141 3298 2862 
Q 3072 2584 2669 2484 
Q 3125 2378 3379 2068 
Q 3634 1759 3634 1313 
Q 3634 634 3220 271 
Q 2806 -91 2034 -91 
Q 1263 -91 848 271 
Q 434 634 434 1313 
Q 434 1759 690 2068 
Q 947 2378 1403 2484 
z
M 1172 3481 
Q 1172 3119 1398 2916 
Q 1625 2713 2034 2713 
Q 2441 2713 2670 2916 
Q 2900 3119 2900 3481 
Q 2900 3844 2670 4047 
Q 2441 4250 2034 4250 
Q 1625 4250 1398 4047 
Q 1172 3844 1172 3481 
z
" transform="scale(0.015625)"/>
      </defs>
      <use xlink:href="#DejaVuSans-32" transform="translate(0 0.578125)"/>
      <use xlink:href="#DejaVuSans-2e" transform="translate(63.623047 0.578125)"/>
      <use xlink:href="#DejaVuSans-39" transform="translate(95.410156 0.578125)"/>
      <use xlink:href="#DejaVuSans-d7" transform="translate(159.033203 0.578125)"/>
      <use xlink:href="#STIXSizeOneSym-Regular-221a" transform="translate(242.822266 17.09375) scale(0.563912)"/>
      <use xlink:href="#DejaVuSans-Oblique-4c" transform="translate(314.910629 0.84375)"/>
      <use xlink:href="#DejaVuSans-2b" transform="translate(402.605942 0.578125)"/>
      <use xlink:href="#DejaVuSans-38" transform="translate(505.877426 0.578125)"/>
      <use xlink:href="#DejaVuSans-33" transform="translate(569.500473 0.578125)"/>
      <path d="M 302.410629 97.5 
L 302.410629 103.75 
L 383.12352 103.75 
L 383.12352 97.5 
L 302.410629 97.5 
z
"/>
     </g>
    </g>
   </g>
  </g>
 </g>
 <defs>
  <clipPath id="p25a8d755ba">
   <rect x="36" y="7.2" width="198" height="108"/>
  </clipPath>
  <clipPath id="p88e81d698f">
   <rect x="270" y="7.2" width="198" height="108"/>
  </clipPath>
 </defs>
</svg>
