<?xml version="1.0" encoding="utf-8" standalone="no"?>
<!DOCTYPE svg PUBLIC "-//W3C//DTD SVG 1.1//EN"
  "http://www.w3.org/Graphics/SVG/1.1/DTD/svg11.dtd">
<svg xmlns:xlink="http://www.w3.org/1999/xlink" width="498.24pt" height="122.4pt" viewBox="0 0 498.24 122.4" xmlns="http://www.w3.org/2000/svg" version="1.1">
 <metadata>
  <rdf:RDF xmlns:dc="http://purl.org/dc/elements/1.1/" xmlns:cc="http://creativecommons.org/ns#" xmlns:rdf="http://www.w3.org/1999/02/22-rdf-syntax-ns#">
   <cc:Work>
    <dc:type rdf:resource="http://purl.org/dc/dcmitype/StillImage"/>
    <dc:date>2024-06-26T15:48:43.836367</dc:date>
    <dc:format>image/svg+xml</dc:format>
    <dc:creator>
     <cc:Agent>
      <dc:title>Matplotlib v3.7.1, https://matplotlib.org/</dc:title>
     </cc:Agent>
    </dc:creator>
   </cc:Work>
  </rdf:RDF>
 </metadata>
 <defs>
  <style type="text/css">*{stroke-linejoin: round; stroke-linecap: butt}</style>
 </defs>
 <g id="figure_1">
  <g id="patch_1">
   <path d="M 0 122.4 
L 498.24 122.4 
L 498.24 0 
L 0 0 
z
" style="fill: #ffffff"/>
  </g>
  <g id="axes_1">
   <g id="patch_2">
    <path d="M 43.2 86.4 
L 142.56 86.4 
L 142.56 7.2 
L 43.2 7.2 
z
" style="fill: #ffffff"/>
   </g>
   <g id="matplotlib.axis_1">
    <g id="xtick_1">
     <g id="line2d_1">
      <defs>
       <path id="me2dfa54576" d="M 0 0 
L 0 3.5 
" style="stroke: #000000; stroke-width: 0.8"/>
      </defs>
      <g>
       <use xlink:href="#me2dfa54576" x="57.752727" y="86.4" style="stroke: #000000; stroke-width: 0.8"/>
      </g>
     </g>
     <g id="text_1">
      <text style="font: 8px 'Carlito', sans-serif; text-anchor: middle" x="57.752727" y="98.955" transform="rotate(-0 57.752727 98.955)">2</text>
     </g>
    </g>
    <g id="xtick_2">
     <g id="line2d_2">
      <g>
       <use xlink:href="#me2dfa54576" x="77.825455" y="86.4" style="stroke: #000000; stroke-width: 0.8"/>
      </g>
     </g>
     <g id="text_2">
      <text style="font: 8px 'Carlito', sans-serif; text-anchor: middle" x="77.825455" y="98.955" transform="rotate(-0 77.825455 98.955)">4</text>
     </g>
    </g>
    <g id="xtick_3">
     <g id="line2d_3">
      <g>
       <use xlink:href="#me2dfa54576" x="97.898182" y="86.4" style="stroke: #000000; stroke-width: 0.8"/>
      </g>
     </g>
     <g id="text_3">
      <text style="font: 8px 'Carlito', sans-serif; text-anchor: middle" x="97.898182" y="98.955" transform="rotate(-0 97.898182 98.955)">6</text>
     </g>
    </g>
    <g id="xtick_4">
     <g id="line2d_4">
      <g>
       <use xlink:href="#me2dfa54576" x="117.970909" y="86.4" style="stroke: #000000; stroke-width: 0.8"/>
      </g>
     </g>
     <g id="text_4">
      <text style="font: 8px 'Carlito', sans-serif; text-anchor: middle" x="117.970909" y="98.955" transform="rotate(-0 117.970909 98.955)">8</text>
     </g>
    </g>
    <g id="xtick_5">
     <g id="line2d_5">
      <g>
       <use xlink:href="#me2dfa54576" x="138.043636" y="86.4" style="stroke: #000000; stroke-width: 0.8"/>
      </g>
     </g>
     <g id="text_5">
      <text style="font: 8px 'Carlito', sans-serif; text-anchor: middle" x="138.043636" y="98.955" transform="rotate(-0 138.043636 98.955)">10</text>
     </g>
    </g>
    <g id="xtick_6">
     <g id="line2d_6">
      <defs>
       <path id="m96f25c95bc" d="M 0 0 
L 0 2 
" style="stroke: #000000; stroke-width: 0.6"/>
      </defs>
      <g>
       <use xlink:href="#m96f25c95bc" x="47.716364" y="86.4" style="stroke: #000000; stroke-width: 0.6"/>
      </g>
     </g>
    </g>
    <g id="xtick_7">
     <g id="line2d_7">
      <g>
       <use xlink:href="#m96f25c95bc" x="67.789091" y="86.4" style="stroke: #000000; stroke-width: 0.6"/>
      </g>
     </g>
    </g>
    <g id="xtick_8">
     <g id="line2d_8">
      <g>
       <use xlink:href="#m96f25c95bc" x="87.861818" y="86.4" style="stroke: #000000; stroke-width: 0.6"/>
      </g>
     </g>
    </g>
    <g id="xtick_9">
     <g id="line2d_9">
      <g>
       <use xlink:href="#m96f25c95bc" x="107.934545" y="86.4" style="stroke: #000000; stroke-width: 0.6"/>
      </g>
     </g>
    </g>
    <g id="xtick_10">
     <g id="line2d_10">
      <g>
       <use xlink:href="#m96f25c95bc" x="128.007273" y="86.4" style="stroke: #000000; stroke-width: 0.6"/>
      </g>
     </g>
    </g>
    <g id="text_6">
     <!-- $n_{\mathrm {E}}$ -->
     <g transform="translate(89.36 109.79875)">
      <text>
       <tspan style="font: italic 8px 'Carlito'" x="0" y="-0.125">n</tspan>
       <tspan style="font: 5.6px 'Carlito'" x="4.113281" y="1.0234375">E</tspan>
      </text>
     </g>
    </g>
   </g>
   <g id="matplotlib.axis_2">
    <g id="ytick_1">
     <g id="line2d_11">
      <defs>
       <path id="ma0904e7a4a" d="M 0 0 
L -3.5 0 
" style="stroke: #000000; stroke-width: 0.8"/>
      </defs>
      <g>
       <use xlink:href="#ma0904e7a4a" x="43.2" y="86.4" style="stroke: #000000; stroke-width: 0.8"/>
      </g>
     </g>
     <g id="text_7">
      <text style="font: 8px 'Carlito', sans-serif; text-anchor: end" x="36.2" y="89.1775" transform="rotate(-0 36.2 89.1775)">0.00</text>
     </g>
    </g>
    <g id="ytick_2">
     <g id="line2d_12">
      <g>
       <use xlink:href="#ma0904e7a4a" x="43.2" y="66.6" style="stroke: #000000; stroke-width: 0.8"/>
      </g>
     </g>
     <g id="text_8">
      <text style="font: 8px 'Carlito', sans-serif; text-anchor: end" x="36.2" y="69.3775" transform="rotate(-0 36.2 69.3775)">0.25</text>
     </g>
    </g>
    <g id="ytick_3">
     <g id="line2d_13">
      <g>
       <use xlink:href="#ma0904e7a4a" x="43.2" y="46.8" style="stroke: #000000; stroke-width: 0.8"/>
      </g>
     </g>
     <g id="text_9">
      <text style="font: 8px 'Carlito', sans-serif; text-anchor: end" x="36.2" y="49.5775" transform="rotate(-0 36.2 49.5775)">0.50</text>
     </g>
    </g>
    <g id="ytick_4">
     <g id="line2d_14">
      <g>
       <use xlink:href="#ma0904e7a4a" x="43.2" y="27" style="stroke: #000000; stroke-width: 0.8"/>
      </g>
     </g>
     <g id="text_10">
      <text style="font: 8px 'Carlito', sans-serif; text-anchor: end" x="36.2" y="29.7775" transform="rotate(-0 36.2 29.7775)">0.75</text>
     </g>
    </g>
    <g id="ytick_5">
     <g id="line2d_15">
      <g>
       <use xlink:href="#ma0904e7a4a" x="43.2" y="7.2" style="stroke: #000000; stroke-width: 0.8"/>
      </g>
     </g>
     <g id="text_11">
      <text style="font: 8px 'Carlito', sans-serif; text-anchor: end" x="36.2" y="9.9775" transform="rotate(-0 36.2 9.9775)">1.00</text>
     </g>
    </g>
    <g id="text_12">
     <text style="font: 8px 'Carlito', sans-serif; text-anchor: middle" x="16.72625" y="46.8" transform="rotate(-90 16.72625 46.8)">maximum bitrate [bit/h]</text>
    </g>
   </g>
   <g id="line2d_16">
    <path d="M 47.716364 45.38209 
L 57.752727 45.073614 
L 67.789091 42.875128 
L 77.825455 43.127126 
L 87.861818 42.570355 
L 97.898182 44.490697 
L 107.934545 41.337072 
L 117.970909 42.425523 
L 128.007273 44.368835 
L 138.043636 42.900137 
" clip-path="url(#p175c751b18)" style="fill: none; stroke: #1f77b4; stroke-width: 1.5; stroke-linecap: square"/>
    <defs>
     <path id="m945d000e09" d="M 0 1.5 
C 0.397805 1.5 0.77937 1.341951 1.06066 1.06066 
C 1.341951 0.77937 1.5 0.397805 1.5 0 
C 1.5 -0.397805 1.341951 -0.77937 1.06066 -1.06066 
C 0.77937 -1.341951 0.397805 -1.5 0 -1.5 
C -0.397805 -1.5 -0.77937 -1.341951 -1.06066 -1.06066 
C -1.341951 -0.77937 -1.5 -0.397805 -1.5 0 
C -1.5 0.397805 -1.341951 0.77937 -1.06066 1.06066 
C -0.77937 1.341951 -0.397805 1.5 0 1.5 
z
" style="stroke: #1f77b4"/>
    </defs>
    <g clip-path="url(#p175c751b18)">
     <use xlink:href="#m945d000e09" x="47.716364" y="45.38209" style="fill: #1f77b4; stroke: #1f77b4"/>
     <use xlink:href="#m945d000e09" x="57.752727" y="45.073614" style="fill: #1f77b4; stroke: #1f77b4"/>
     <use xlink:href="#m945d000e09" x="67.789091" y="42.875128" style="fill: #1f77b4; stroke: #1f77b4"/>
     <use xlink:href="#m945d000e09" x="77.825455" y="43.127126" style="fill: #1f77b4; stroke: #1f77b4"/>
     <use xlink:href="#m945d000e09" x="87.861818" y="42.570355" style="fill: #1f77b4; stroke: #1f77b4"/>
     <use xlink:href="#m945d000e09" x="97.898182" y="44.490697" style="fill: #1f77b4; stroke: #1f77b4"/>
     <use xlink:href="#m945d000e09" x="107.934545" y="41.337072" style="fill: #1f77b4; stroke: #1f77b4"/>
     <use xlink:href="#m945d000e09" x="117.970909" y="42.425523" style="fill: #1f77b4; stroke: #1f77b4"/>
     <use xlink:href="#m945d000e09" x="128.007273" y="44.368835" style="fill: #1f77b4; stroke: #1f77b4"/>
     <use xlink:href="#m945d000e09" x="138.043636" y="42.900137" style="fill: #1f77b4; stroke: #1f77b4"/>
    </g>
   </g>
   <g id="line2d_17">
    <defs>
     <path id="m0de0d49403" d="M 0 3 
C 0.795609 3 1.55874 2.683901 2.12132 2.12132 
C 2.683901 1.55874 3 0.795609 3 0 
C 3 -0.795609 2.683901 -1.55874 2.12132 -2.12132 
C 1.55874 -2.683901 0.795609 -3 0 -3 
C -0.795609 -3 -1.55874 -2.683901 -2.12132 -2.12132 
C -2.683901 -1.55874 -3 -0.795609 -3 0 
C -3 0.795609 -2.683901 1.55874 -2.12132 2.12132 
C -1.55874 2.683901 -0.795609 3 0 3 
z
" style="stroke: #1f77b4"/>
    </defs>
    <g clip-path="url(#p175c751b18)">
     <use xlink:href="#m0de0d49403" x="77.825455" y="43.127126" style="fill-opacity: 0; stroke: #1f77b4"/>
    </g>
   </g>
   <g id="line2d_18">
    <path d="M 47.716364 58.799293 
L 57.752727 54.642796 
L 67.789091 50.578191 
L 77.825455 50.612132 
L 87.861818 50.135127 
L 97.898182 49.594303 
L 107.934545 51.503227 
L 117.970909 50.00597 
L 128.007273 50.013266 
L 138.043636 50.964542 
" clip-path="url(#p175c751b18)" style="fill: none; stroke: #ff7f0e; stroke-width: 1.5; stroke-linecap: square"/>
    <defs>
     <path id="maacb02d79f" d="M 0 1.5 
C 0.397805 1.5 0.77937 1.341951 1.06066 1.06066 
C 1.341951 0.77937 1.5 0.397805 1.5 0 
C 1.5 -0.397805 1.341951 -0.77937 1.06066 -1.06066 
C 0.77937 -1.341951 0.397805 -1.5 0 -1.5 
C -0.397805 -1.5 -0.77937 -1.341951 -1.06066 -1.06066 
C -1.341951 -0.77937 -1.5 -0.397805 -1.5 0 
C -1.5 0.397805 -1.341951 0.77937 -1.06066 1.06066 
C -0.77937 1.341951 -0.397805 1.5 0 1.5 
z
" style="stroke: #ff7f0e"/>
    </defs>
    <g clip-path="url(#p175c751b18)">
     <use xlink:href="#maacb02d79f" x="47.716364" y="58.799293" style="fill: #ff7f0e; stroke: #ff7f0e"/>
     <use xlink:href="#maacb02d79f" x="57.752727" y="54.642796" style="fill: #ff7f0e; stroke: #ff7f0e"/>
     <use xlink:href="#maacb02d79f" x="67.789091" y="50.578191" style="fill: #ff7f0e; stroke: #ff7f0e"/>
     <use xlink:href="#maacb02d79f" x="77.825455" y="50.612132" style="fill: #ff7f0e; stroke: #ff7f0e"/>
     <use xlink:href="#maacb02d79f" x="87.861818" y="50.135127" style="fill: #ff7f0e; stroke: #ff7f0e"/>
     <use xlink:href="#maacb02d79f" x="97.898182" y="49.594303" style="fill: #ff7f0e; stroke: #ff7f0e"/>
     <use xlink:href="#maacb02d79f" x="107.934545" y="51.503227" style="fill: #ff7f0e; stroke: #ff7f0e"/>
     <use xlink:href="#maacb02d79f" x="117.970909" y="50.00597" style="fill: #ff7f0e; stroke: #ff7f0e"/>
     <use xlink:href="#maacb02d79f" x="128.007273" y="50.013266" style="fill: #ff7f0e; stroke: #ff7f0e"/>
     <use xlink:href="#maacb02d79f" x="138.043636" y="50.964542" style="fill: #ff7f0e; stroke: #ff7f0e"/>
    </g>
   </g>
   <g id="line2d_19">
    <defs>
     <path id="mfbd4ae3405" d="M 0 3 
C 0.795609 3 1.55874 2.683901 2.12132 2.12132 
C 2.683901 1.55874 3 0.795609 3 0 
C 3 -0.795609 2.683901 -1.55874 2.12132 -2.12132 
C 1.55874 -2.683901 0.795609 -3 0 -3 
C -0.795609 -3 -1.55874 -2.683901 -2.12132 -2.12132 
C -2.683901 -1.55874 -3 -0.795609 -3 0 
C -3 0.795609 -2.683901 1.55874 -2.12132 2.12132 
C -1.55874 2.683901 -0.795609 3 0 3 
z
" style="stroke: #ff7f0e"/>
    </defs>
    <g clip-path="url(#p175c751b18)">
     <use xlink:href="#mfbd4ae3405" x="77.825455" y="50.612132" style="fill-opacity: 0; stroke: #ff7f0e"/>
    </g>
   </g>
   <g id="line2d_20">
    <path d="M 47.716364 75.270956 
L 57.752727 63.016351 
L 67.789091 60.295705 
L 77.825455 59.073902 
L 87.861818 59.59546 
L 97.898182 57.712951 
L 107.934545 59.232979 
L 117.970909 56.795756 
L 128.007273 55.536332 
L 138.043636 59.03538 
" clip-path="url(#p175c751b18)" style="fill: none; stroke: #2ca02c; stroke-width: 1.5; stroke-linecap: square"/>
    <defs>
     <path id="m1519bc7014" d="M 0 1.5 
C 0.397805 1.5 0.77937 1.341951 1.06066 1.06066 
C 1.341951 0.77937 1.5 0.397805 1.5 0 
C 1.5 -0.397805 1.341951 -0.77937 1.06066 -1.06066 
C 0.77937 -1.341951 0.397805 -1.5 0 -1.5 
C -0.397805 -1.5 -0.77937 -1.341951 -1.06066 -1.06066 
C -1.341951 -0.77937 -1.5 -0.397805 -1.5 0 
C -1.5 0.397805 -1.341951 0.77937 -1.06066 1.06066 
C -0.77937 1.341951 -0.397805 1.5 0 1.5 
z
" style="stroke: #2ca02c"/>
    </defs>
    <g clip-path="url(#p175c751b18)">
     <use xlink:href="#m1519bc7014" x="47.716364" y="75.270956" style="fill: #2ca02c; stroke: #2ca02c"/>
     <use xlink:href="#m1519bc7014" x="57.752727" y="63.016351" style="fill: #2ca02c; stroke: #2ca02c"/>
     <use xlink:href="#m1519bc7014" x="67.789091" y="60.295705" style="fill: #2ca02c; stroke: #2ca02c"/>
     <use xlink:href="#m1519bc7014" x="77.825455" y="59.073902" style="fill: #2ca02c; stroke: #2ca02c"/>
     <use xlink:href="#m1519bc7014" x="87.861818" y="59.59546" style="fill: #2ca02c; stroke: #2ca02c"/>
     <use xlink:href="#m1519bc7014" x="97.898182" y="57.712951" style="fill: #2ca02c; stroke: #2ca02c"/>
     <use xlink:href="#m1519bc7014" x="107.934545" y="59.232979" style="fill: #2ca02c; stroke: #2ca02c"/>
     <use xlink:href="#m1519bc7014" x="117.970909" y="56.795756" style="fill: #2ca02c; stroke: #2ca02c"/>
     <use xlink:href="#m1519bc7014" x="128.007273" y="55.536332" style="fill: #2ca02c; stroke: #2ca02c"/>
     <use xlink:href="#m1519bc7014" x="138.043636" y="59.03538" style="fill: #2ca02c; stroke: #2ca02c"/>
    </g>
   </g>
   <g id="line2d_21">
    <defs>
     <path id="m7a5a9081ac" d="M 0 3 
C 0.795609 3 1.55874 2.683901 2.12132 2.12132 
C 2.683901 1.55874 3 0.795609 3 0 
C 3 -0.795609 2.683901 -1.55874 2.12132 -2.12132 
C 1.55874 -2.683901 0.795609 -3 0 -3 
C -0.795609 -3 -1.55874 -2.683901 -2.12132 -2.12132 
C -2.683901 -1.55874 -3 -0.795609 -3 0 
C -3 0.795609 -2.683901 1.55874 -2.12132 2.12132 
C -1.55874 2.683901 -0.795609 3 0 3 
z
" style="stroke: #2ca02c"/>
    </defs>
    <g clip-path="url(#p175c751b18)">
     <use xlink:href="#m7a5a9081ac" x="77.825455" y="59.073902" style="fill-opacity: 0; stroke: #2ca02c"/>
    </g>
   </g>
   <g id="line2d_22">
    <path d="M 47.716364 84.213041 
L 57.752727 75.321418 
L 67.789091 72.990078 
L 77.825455 69.89905 
L 87.861818 70.109946 
L 97.898182 68.309689 
L 107.934545 67.353555 
L 117.970909 67.045263 
L 128.007273 66.506057 
L 138.043636 66.054031 
" clip-path="url(#p175c751b18)" style="fill: none; stroke: #d62728; stroke-width: 1.5; stroke-linecap: square"/>
    <defs>
     <path id="m416172bf89" d="M 0 1.5 
C 0.397805 1.5 0.77937 1.341951 1.06066 1.06066 
C 1.341951 0.77937 1.5 0.397805 1.5 0 
C 1.5 -0.397805 1.341951 -0.77937 1.06066 -1.06066 
C 0.77937 -1.341951 0.397805 -1.5 0 -1.5 
C -0.397805 -1.5 -0.77937 -1.341951 -1.06066 -1.06066 
C -1.341951 -0.77937 -1.5 -0.397805 -1.5 0 
C -1.5 0.397805 -1.341951 0.77937 -1.06066 1.06066 
C -0.77937 1.341951 -0.397805 1.5 0 1.5 
z
" style="stroke: #d62728"/>
    </defs>
    <g clip-path="url(#p175c751b18)">
     <use xlink:href="#m416172bf89" x="47.716364" y="84.213041" style="fill: #d62728; stroke: #d62728"/>
     <use xlink:href="#m416172bf89" x="57.752727" y="75.321418" style="fill: #d62728; stroke: #d62728"/>
     <use xlink:href="#m416172bf89" x="67.789091" y="72.990078" style="fill: #d62728; stroke: #d62728"/>
     <use xlink:href="#m416172bf89" x="77.825455" y="69.89905" style="fill: #d62728; stroke: #d62728"/>
     <use xlink:href="#m416172bf89" x="87.861818" y="70.109946" style="fill: #d62728; stroke: #d62728"/>
     <use xlink:href="#m416172bf89" x="97.898182" y="68.309689" style="fill: #d62728; stroke: #d62728"/>
     <use xlink:href="#m416172bf89" x="107.934545" y="67.353555" style="fill: #d62728; stroke: #d62728"/>
     <use xlink:href="#m416172bf89" x="117.970909" y="67.045263" style="fill: #d62728; stroke: #d62728"/>
     <use xlink:href="#m416172bf89" x="128.007273" y="66.506057" style="fill: #d62728; stroke: #d62728"/>
     <use xlink:href="#m416172bf89" x="138.043636" y="66.054031" style="fill: #d62728; stroke: #d62728"/>
    </g>
   </g>
   <g id="line2d_23">
    <defs>
     <path id="mbf57bea582" d="M 0 3 
C 0.795609 3 1.55874 2.683901 2.12132 2.12132 
C 2.683901 1.55874 3 0.795609 3 0 
C 3 -0.795609 2.683901 -1.55874 2.12132 -2.12132 
C 1.55874 -2.683901 0.795609 -3 0 -3 
C -0.795609 -3 -1.55874 -2.683901 -2.12132 -2.12132 
C -2.683901 -1.55874 -3 -0.795609 -3 0 
C -3 0.795609 -2.683901 1.55874 -2.12132 2.12132 
C -1.55874 2.683901 -0.795609 3 0 3 
z
" style="stroke: #d62728"/>
    </defs>
    <g clip-path="url(#p175c751b18)">
     <use xlink:href="#mbf57bea582" x="77.825455" y="69.89905" style="fill-opacity: 0; stroke: #d62728"/>
    </g>
   </g>
   <g id="patch_3">
    <path d="M 43.2 86.4 
L 43.2 7.2 
" style="fill: none; stroke: #000000; stroke-width: 0.8; stroke-linejoin: miter; stroke-linecap: square"/>
   </g>
   <g id="patch_4">
    <path d="M 142.56 86.4 
L 142.56 7.2 
" style="fill: none; stroke: #000000; stroke-width: 0.8; stroke-linejoin: miter; stroke-linecap: square"/>
   </g>
   <g id="patch_5">
    <path d="M 43.2 86.4 
L 142.56 86.4 
" style="fill: none; stroke: #000000; stroke-width: 0.8; stroke-linejoin: miter; stroke-linecap: square"/>
   </g>
   <g id="patch_6">
    <path d="M 43.2 7.2 
L 142.56 7.2 
" style="fill: none; stroke: #000000; stroke-width: 0.8; stroke-linejoin: miter; stroke-linecap: square"/>
   </g>
  </g>
  <g id="axes_2">
   <g id="patch_7">
    <path d="M 156.96 86.4 
L 256.32 86.4 
L 256.32 7.2 
L 156.96 7.2 
z
" style="fill: #ffffff"/>
   </g>
   <g id="matplotlib.axis_3">
    <g id="xtick_11">
     <g id="line2d_24">
      <g>
       <use xlink:href="#me2dfa54576" x="171.512727" y="86.4" style="stroke: #000000; stroke-width: 0.8"/>
      </g>
     </g>
     <g id="text_13">
      <text style="font: 8px 'Carlito', sans-serif; text-anchor: middle" x="171.512727" y="98.955" transform="rotate(-0 171.512727 98.955)">2</text>
     </g>
    </g>
    <g id="xtick_12">
     <g id="line2d_25">
      <g>
       <use xlink:href="#me2dfa54576" x="191.585455" y="86.4" style="stroke: #000000; stroke-width: 0.8"/>
      </g>
     </g>
     <g id="text_14">
      <text style="font: 8px 'Carlito', sans-serif; text-anchor: middle" x="191.585455" y="98.955" transform="rotate(-0 191.585455 98.955)">4</text>
     </g>
    </g>
    <g id="xtick_13">
     <g id="line2d_26">
      <g>
       <use xlink:href="#me2dfa54576" x="211.658182" y="86.4" style="stroke: #000000; stroke-width: 0.8"/>
      </g>
     </g>
     <g id="text_15">
      <text style="font: 8px 'Carlito', sans-serif; text-anchor: middle" x="211.658182" y="98.955" transform="rotate(-0 211.658182 98.955)">6</text>
     </g>
    </g>
    <g id="xtick_14">
     <g id="line2d_27">
      <g>
       <use xlink:href="#me2dfa54576" x="231.730909" y="86.4" style="stroke: #000000; stroke-width: 0.8"/>
      </g>
     </g>
     <g id="text_16">
      <text style="font: 8px 'Carlito', sans-serif; text-anchor: middle" x="231.730909" y="98.955" transform="rotate(-0 231.730909 98.955)">8</text>
     </g>
    </g>
    <g id="xtick_15">
     <g id="line2d_28">
      <g>
       <use xlink:href="#me2dfa54576" x="251.803636" y="86.4" style="stroke: #000000; stroke-width: 0.8"/>
      </g>
     </g>
     <g id="text_17">
      <text style="font: 8px 'Carlito', sans-serif; text-anchor: middle" x="251.803636" y="98.955" transform="rotate(-0 251.803636 98.955)">10</text>
     </g>
    </g>
    <g id="xtick_16">
     <g id="line2d_29">
      <g>
       <use xlink:href="#m96f25c95bc" x="161.476364" y="86.4" style="stroke: #000000; stroke-width: 0.6"/>
      </g>
     </g>
    </g>
    <g id="xtick_17">
     <g id="line2d_30">
      <g>
       <use xlink:href="#m96f25c95bc" x="181.549091" y="86.4" style="stroke: #000000; stroke-width: 0.6"/>
      </g>
     </g>
    </g>
    <g id="xtick_18">
     <g id="line2d_31">
      <g>
       <use xlink:href="#m96f25c95bc" x="201.621818" y="86.4" style="stroke: #000000; stroke-width: 0.6"/>
      </g>
     </g>
    </g>
    <g id="xtick_19">
     <g id="line2d_32">
      <g>
       <use xlink:href="#m96f25c95bc" x="221.694545" y="86.4" style="stroke: #000000; stroke-width: 0.6"/>
      </g>
     </g>
    </g>
    <g id="xtick_20">
     <g id="line2d_33">
      <g>
       <use xlink:href="#m96f25c95bc" x="241.767273" y="86.4" style="stroke: #000000; stroke-width: 0.6"/>
      </g>
     </g>
    </g>
    <g id="text_18">
     <!-- $n_{\mathrm {I}}$ -->
     <g transform="translate(203.76 109.79875)">
      <text>
       <tspan style="font: italic 8px 'Carlito'" x="0" y="-0.125">n</tspan>
       <tspan style="font: 5.6px 'Carlito'" x="4.113281" y="1.0234375">I</tspan>
      </text>
     </g>
    </g>
   </g>
   <g id="matplotlib.axis_4">
    <g id="ytick_6">
     <g id="line2d_34">
      <g>
       <use xlink:href="#ma0904e7a4a" x="156.96" y="86.4" style="stroke: #000000; stroke-width: 0.8"/>
      </g>
     </g>
    </g>
    <g id="ytick_7">
     <g id="line2d_35">
      <g>
       <use xlink:href="#ma0904e7a4a" x="156.96" y="66.6" style="stroke: #000000; stroke-width: 0.8"/>
      </g>
     </g>
    </g>
    <g id="ytick_8">
     <g id="line2d_36">
      <g>
       <use xlink:href="#ma0904e7a4a" x="156.96" y="46.8" style="stroke: #000000; stroke-width: 0.8"/>
      </g>
     </g>
    </g>
    <g id="ytick_9">
     <g id="line2d_37">
      <g>
       <use xlink:href="#ma0904e7a4a" x="156.96" y="27" style="stroke: #000000; stroke-width: 0.8"/>
      </g>
     </g>
    </g>
    <g id="ytick_10">
     <g id="line2d_38">
      <g>
       <use xlink:href="#ma0904e7a4a" x="156.96" y="7.2" style="stroke: #000000; stroke-width: 0.8"/>
      </g>
     </g>
    </g>
   </g>
   <g id="line2d_39">
    <path d="M 161.476364 52.668522 
L 171.512727 43.295844 
L 181.549091 42.285941 
L 191.585455 41.879094 
L 201.621818 39.859092 
L 211.658182 40.097013 
L 221.694545 38.536872 
L 231.730909 40.312569 
L 241.767273 39.249243 
L 251.803636 39.40717 
" clip-path="url(#pb408a9b4f5)" style="fill: none; stroke: #1f77b4; stroke-width: 1.5; stroke-linecap: square"/>
    <g clip-path="url(#pb408a9b4f5)">
     <use xlink:href="#m945d000e09" x="161.476364" y="52.668522" style="fill: #1f77b4; stroke: #1f77b4"/>
     <use xlink:href="#m945d000e09" x="171.512727" y="43.295844" style="fill: #1f77b4; stroke: #1f77b4"/>
     <use xlink:href="#m945d000e09" x="181.549091" y="42.285941" style="fill: #1f77b4; stroke: #1f77b4"/>
     <use xlink:href="#m945d000e09" x="191.585455" y="41.879094" style="fill: #1f77b4; stroke: #1f77b4"/>
     <use xlink:href="#m945d000e09" x="201.621818" y="39.859092" style="fill: #1f77b4; stroke: #1f77b4"/>
     <use xlink:href="#m945d000e09" x="211.658182" y="40.097013" style="fill: #1f77b4; stroke: #1f77b4"/>
     <use xlink:href="#m945d000e09" x="221.694545" y="38.536872" style="fill: #1f77b4; stroke: #1f77b4"/>
     <use xlink:href="#m945d000e09" x="231.730909" y="40.312569" style="fill: #1f77b4; stroke: #1f77b4"/>
     <use xlink:href="#m945d000e09" x="241.767273" y="39.249243" style="fill: #1f77b4; stroke: #1f77b4"/>
     <use xlink:href="#m945d000e09" x="251.803636" y="39.40717" style="fill: #1f77b4; stroke: #1f77b4"/>
    </g>
   </g>
   <g id="line2d_40">
    <g clip-path="url(#pb408a9b4f5)">
     <use xlink:href="#m0de0d49403" x="171.512727" y="43.295844" style="fill-opacity: 0; stroke: #1f77b4"/>
    </g>
   </g>
   <g id="line2d_41">
    <path d="M 161.476364 62.160955 
L 171.512727 50.612132 
L 181.549091 47.628171 
L 191.585455 47.069868 
L 201.621818 48.280881 
L 211.658182 47.107131 
L 221.694545 47.228467 
L 231.730909 47.419582 
L 241.767273 46.56897 
L 251.803636 47.696926 
" clip-path="url(#pb408a9b4f5)" style="fill: none; stroke: #ff7f0e; stroke-width: 1.5; stroke-linecap: square"/>
    <g clip-path="url(#pb408a9b4f5)">
     <use xlink:href="#maacb02d79f" x="161.476364" y="62.160955" style="fill: #ff7f0e; stroke: #ff7f0e"/>
     <use xlink:href="#maacb02d79f" x="171.512727" y="50.612132" style="fill: #ff7f0e; stroke: #ff7f0e"/>
     <use xlink:href="#maacb02d79f" x="181.549091" y="47.628171" style="fill: #ff7f0e; stroke: #ff7f0e"/>
     <use xlink:href="#maacb02d79f" x="191.585455" y="47.069868" style="fill: #ff7f0e; stroke: #ff7f0e"/>
     <use xlink:href="#maacb02d79f" x="201.621818" y="48.280881" style="fill: #ff7f0e; stroke: #ff7f0e"/>
     <use xlink:href="#maacb02d79f" x="211.658182" y="47.107131" style="fill: #ff7f0e; stroke: #ff7f0e"/>
     <use xlink:href="#maacb02d79f" x="221.694545" y="47.228467" style="fill: #ff7f0e; stroke: #ff7f0e"/>
     <use xlink:href="#maacb02d79f" x="231.730909" y="47.419582" style="fill: #ff7f0e; stroke: #ff7f0e"/>
     <use xlink:href="#maacb02d79f" x="241.767273" y="46.56897" style="fill: #ff7f0e; stroke: #ff7f0e"/>
     <use xlink:href="#maacb02d79f" x="251.803636" y="47.696926" style="fill: #ff7f0e; stroke: #ff7f0e"/>
    </g>
   </g>
   <g id="line2d_42">
    <g clip-path="url(#pb408a9b4f5)">
     <use xlink:href="#mfbd4ae3405" x="171.512727" y="50.612132" style="fill-opacity: 0; stroke: #ff7f0e"/>
    </g>
   </g>
   <g id="line2d_43">
    <path d="M 161.476364 73.774546 
L 171.512727 59.073902 
L 181.549091 54.767554 
L 191.585455 54.526875 
L 201.621818 53.894594 
L 211.658182 54.301143 
L 221.694545 50.984882 
L 231.730909 53.629968 
L 241.767273 53.211824 
L 251.803636 53.949866 
" clip-path="url(#pb408a9b4f5)" style="fill: none; stroke: #2ca02c; stroke-width: 1.5; stroke-linecap: square"/>
    <g clip-path="url(#pb408a9b4f5)">
     <use xlink:href="#m1519bc7014" x="161.476364" y="73.774546" style="fill: #2ca02c; stroke: #2ca02c"/>
     <use xlink:href="#m1519bc7014" x="171.512727" y="59.073902" style="fill: #2ca02c; stroke: #2ca02c"/>
     <use xlink:href="#m1519bc7014" x="181.549091" y="54.767554" style="fill: #2ca02c; stroke: #2ca02c"/>
     <use xlink:href="#m1519bc7014" x="191.585455" y="54.526875" style="fill: #2ca02c; stroke: #2ca02c"/>
     <use xlink:href="#m1519bc7014" x="201.621818" y="53.894594" style="fill: #2ca02c; stroke: #2ca02c"/>
     <use xlink:href="#m1519bc7014" x="211.658182" y="54.301143" style="fill: #2ca02c; stroke: #2ca02c"/>
     <use xlink:href="#m1519bc7014" x="221.694545" y="50.984882" style="fill: #2ca02c; stroke: #2ca02c"/>
     <use xlink:href="#m1519bc7014" x="231.730909" y="53.629968" style="fill: #2ca02c; stroke: #2ca02c"/>
     <use xlink:href="#m1519bc7014" x="241.767273" y="53.211824" style="fill: #2ca02c; stroke: #2ca02c"/>
     <use xlink:href="#m1519bc7014" x="251.803636" y="53.949866" style="fill: #2ca02c; stroke: #2ca02c"/>
    </g>
   </g>
   <g id="line2d_44">
    <g clip-path="url(#pb408a9b4f5)">
     <use xlink:href="#m7a5a9081ac" x="171.512727" y="59.073902" style="fill-opacity: 0; stroke: #2ca02c"/>
    </g>
   </g>
   <g id="line2d_45">
    <path d="M 161.476364 84.021413 
L 171.512727 69.886205 
L 181.549091 66.759263 
L 191.585455 65.351973 
L 201.621818 64.156984 
L 211.658182 63.468676 
L 221.694545 63.142134 
L 231.730909 62.734791 
L 241.767273 60.924435 
L 251.803636 61.649527 
" clip-path="url(#pb408a9b4f5)" style="fill: none; stroke: #d62728; stroke-width: 1.5; stroke-linecap: square"/>
    <g clip-path="url(#pb408a9b4f5)">
     <use xlink:href="#m416172bf89" x="161.476364" y="84.021413" style="fill: #d62728; stroke: #d62728"/>
     <use xlink:href="#m416172bf89" x="171.512727" y="69.886205" style="fill: #d62728; stroke: #d62728"/>
     <use xlink:href="#m416172bf89" x="181.549091" y="66.759263" style="fill: #d62728; stroke: #d62728"/>
     <use xlink:href="#m416172bf89" x="191.585455" y="65.351973" style="fill: #d62728; stroke: #d62728"/>
     <use xlink:href="#m416172bf89" x="201.621818" y="64.156984" style="fill: #d62728; stroke: #d62728"/>
     <use xlink:href="#m416172bf89" x="211.658182" y="63.468676" style="fill: #d62728; stroke: #d62728"/>
     <use xlink:href="#m416172bf89" x="221.694545" y="63.142134" style="fill: #d62728; stroke: #d62728"/>
     <use xlink:href="#m416172bf89" x="231.730909" y="62.734791" style="fill: #d62728; stroke: #d62728"/>
     <use xlink:href="#m416172bf89" x="241.767273" y="60.924435" style="fill: #d62728; stroke: #d62728"/>
     <use xlink:href="#m416172bf89" x="251.803636" y="61.649527" style="fill: #d62728; stroke: #d62728"/>
    </g>
   </g>
   <g id="line2d_46">
    <g clip-path="url(#pb408a9b4f5)">
     <use xlink:href="#mbf57bea582" x="171.512727" y="69.886205" style="fill-opacity: 0; stroke: #d62728"/>
    </g>
   </g>
   <g id="patch_8">
    <path d="M 156.96 86.4 
L 156.96 7.2 
" style="fill: none; stroke: #000000; stroke-width: 0.8; stroke-linejoin: miter; stroke-linecap: square"/>
   </g>
   <g id="patch_9">
    <path d="M 256.32 86.4 
L 256.32 7.2 
" style="fill: none; stroke: #000000; stroke-width: 0.8; stroke-linejoin: miter; stroke-linecap: square"/>
   </g>
   <g id="patch_10">
    <path d="M 156.96 86.4 
L 256.32 86.4 
" style="fill: none; stroke: #000000; stroke-width: 0.8; stroke-linejoin: miter; stroke-linecap: square"/>
   </g>
   <g id="patch_11">
    <path d="M 156.96 7.2 
L 256.32 7.2 
" style="fill: none; stroke: #000000; stroke-width: 0.8; stroke-linejoin: miter; stroke-linecap: square"/>
   </g>
  </g>
  <g id="axes_3">
   <g id="patch_12">
    <path d="M 270.72 86.4 
L 370.08 86.4 
L 370.08 7.2 
L 270.72 7.2 
z
" style="fill: #ffffff"/>
   </g>
   <g id="matplotlib.axis_5">
    <g id="xtick_21">
     <g id="line2d_47">
      <g>
       <use xlink:href="#me2dfa54576" x="285.272727" y="86.4" style="stroke: #000000; stroke-width: 0.8"/>
      </g>
     </g>
     <g id="text_19">
      <text style="font: 8px 'Carlito', sans-serif; text-anchor: middle" x="285.272727" y="98.955" transform="rotate(-0 285.272727 98.955)">2</text>
     </g>
    </g>
    <g id="xtick_22">
     <g id="line2d_48">
      <g>
       <use xlink:href="#me2dfa54576" x="305.345455" y="86.4" style="stroke: #000000; stroke-width: 0.8"/>
      </g>
     </g>
     <g id="text_20">
      <text style="font: 8px 'Carlito', sans-serif; text-anchor: middle" x="305.345455" y="98.955" transform="rotate(-0 305.345455 98.955)">4</text>
     </g>
    </g>
    <g id="xtick_23">
     <g id="line2d_49">
      <g>
       <use xlink:href="#me2dfa54576" x="325.418182" y="86.4" style="stroke: #000000; stroke-width: 0.8"/>
      </g>
     </g>
     <g id="text_21">
      <text style="font: 8px 'Carlito', sans-serif; text-anchor: middle" x="325.418182" y="98.955" transform="rotate(-0 325.418182 98.955)">6</text>
     </g>
    </g>
    <g id="xtick_24">
     <g id="line2d_50">
      <g>
       <use xlink:href="#me2dfa54576" x="345.490909" y="86.4" style="stroke: #000000; stroke-width: 0.8"/>
      </g>
     </g>
     <g id="text_22">
      <text style="font: 8px 'Carlito', sans-serif; text-anchor: middle" x="345.490909" y="98.955" transform="rotate(-0 345.490909 98.955)">8</text>
     </g>
    </g>
    <g id="xtick_25">
     <g id="line2d_51">
      <g>
       <use xlink:href="#me2dfa54576" x="365.563636" y="86.4" style="stroke: #000000; stroke-width: 0.8"/>
      </g>
     </g>
     <g id="text_23">
      <text style="font: 8px 'Carlito', sans-serif; text-anchor: middle" x="365.563636" y="98.955" transform="rotate(-0 365.563636 98.955)">10</text>
     </g>
    </g>
    <g id="xtick_26">
     <g id="line2d_52">
      <g>
       <use xlink:href="#m96f25c95bc" x="275.236364" y="86.4" style="stroke: #000000; stroke-width: 0.6"/>
      </g>
     </g>
    </g>
    <g id="xtick_27">
     <g id="line2d_53">
      <g>
       <use xlink:href="#m96f25c95bc" x="295.309091" y="86.4" style="stroke: #000000; stroke-width: 0.6"/>
      </g>
     </g>
    </g>
    <g id="xtick_28">
     <g id="line2d_54">
      <g>
       <use xlink:href="#m96f25c95bc" x="315.381818" y="86.4" style="stroke: #000000; stroke-width: 0.6"/>
      </g>
     </g>
    </g>
    <g id="xtick_29">
     <g id="line2d_55">
      <g>
       <use xlink:href="#m96f25c95bc" x="335.454545" y="86.4" style="stroke: #000000; stroke-width: 0.6"/>
      </g>
     </g>
    </g>
    <g id="xtick_30">
     <g id="line2d_56">
      <g>
       <use xlink:href="#m96f25c95bc" x="355.527273" y="86.4" style="stroke: #000000; stroke-width: 0.6"/>
      </g>
     </g>
    </g>
    <g id="text_24">
     <!-- $n_{\mathrm {R}}$ -->
     <g transform="translate(316.72 109.79875)">
      <text>
       <tspan style="font: italic 8px 'Carlito'" x="0" y="-0.125">n</tspan>
       <tspan style="font: 5.6px 'Carlito'" x="4.113281" y="1.0234375">R</tspan>
      </text>
     </g>
    </g>
   </g>
   <g id="matplotlib.axis_6">
    <g id="ytick_11">
     <g id="line2d_57">
      <g>
       <use xlink:href="#ma0904e7a4a" x="270.72" y="86.4" style="stroke: #000000; stroke-width: 0.8"/>
      </g>
     </g>
    </g>
    <g id="ytick_12">
     <g id="line2d_58">
      <g>
       <use xlink:href="#ma0904e7a4a" x="270.72" y="66.6" style="stroke: #000000; stroke-width: 0.8"/>
      </g>
     </g>
    </g>
    <g id="ytick_13">
     <g id="line2d_59">
      <g>
       <use xlink:href="#ma0904e7a4a" x="270.72" y="46.8" style="stroke: #000000; stroke-width: 0.8"/>
      </g>
     </g>
    </g>
    <g id="ytick_14">
     <g id="line2d_60">
      <g>
       <use xlink:href="#ma0904e7a4a" x="270.72" y="27" style="stroke: #000000; stroke-width: 0.8"/>
      </g>
     </g>
    </g>
    <g id="ytick_15">
     <g id="line2d_61">
      <g>
       <use xlink:href="#ma0904e7a4a" x="270.72" y="7.2" style="stroke: #000000; stroke-width: 0.8"/>
      </g>
     </g>
    </g>
   </g>
   <g id="line2d_62">
    <path d="M 275.236364 59.632967 
L 285.272727 49.665337 
L 295.309091 47.766554 
L 305.345455 43.127126 
L 315.381818 43.224473 
L 325.418182 41.070638 
L 335.454545 38.959755 
L 345.490909 37.654051 
L 355.527273 38.322499 
L 365.563636 37.739512 
" clip-path="url(#p78111325da)" style="fill: none; stroke: #1f77b4; stroke-width: 1.5; stroke-linecap: square"/>
    <g clip-path="url(#p78111325da)">
     <use xlink:href="#m945d000e09" x="275.236364" y="59.632967" style="fill: #1f77b4; stroke: #1f77b4"/>
     <use xlink:href="#m945d000e09" x="285.272727" y="49.665337" style="fill: #1f77b4; stroke: #1f77b4"/>
     <use xlink:href="#m945d000e09" x="295.309091" y="47.766554" style="fill: #1f77b4; stroke: #1f77b4"/>
     <use xlink:href="#m945d000e09" x="305.345455" y="43.127126" style="fill: #1f77b4; stroke: #1f77b4"/>
     <use xlink:href="#m945d000e09" x="315.381818" y="43.224473" style="fill: #1f77b4; stroke: #1f77b4"/>
     <use xlink:href="#m945d000e09" x="325.418182" y="41.070638" style="fill: #1f77b4; stroke: #1f77b4"/>
     <use xlink:href="#m945d000e09" x="335.454545" y="38.959755" style="fill: #1f77b4; stroke: #1f77b4"/>
     <use xlink:href="#m945d000e09" x="345.490909" y="37.654051" style="fill: #1f77b4; stroke: #1f77b4"/>
     <use xlink:href="#m945d000e09" x="355.527273" y="38.322499" style="fill: #1f77b4; stroke: #1f77b4"/>
     <use xlink:href="#m945d000e09" x="365.563636" y="37.739512" style="fill: #1f77b4; stroke: #1f77b4"/>
    </g>
   </g>
   <g id="line2d_63">
    <g clip-path="url(#p78111325da)">
     <use xlink:href="#m0de0d49403" x="305.345455" y="43.127126" style="fill-opacity: 0; stroke: #1f77b4"/>
    </g>
   </g>
   <g id="line2d_64">
    <path d="M 275.236364 78.063711 
L 285.272727 65.0434 
L 295.309091 55.357678 
L 305.345455 50.612132 
L 315.381818 48.596696 
L 325.418182 45.772282 
L 335.454545 43.775376 
L 345.490909 41.623144 
L 355.527273 42.103414 
L 365.563636 39.937334 
" clip-path="url(#p78111325da)" style="fill: none; stroke: #ff7f0e; stroke-width: 1.5; stroke-linecap: square"/>
    <g clip-path="url(#p78111325da)">
     <use xlink:href="#maacb02d79f" x="275.236364" y="78.063711" style="fill: #ff7f0e; stroke: #ff7f0e"/>
     <use xlink:href="#maacb02d79f" x="285.272727" y="65.0434" style="fill: #ff7f0e; stroke: #ff7f0e"/>
     <use xlink:href="#maacb02d79f" x="295.309091" y="55.357678" style="fill: #ff7f0e; stroke: #ff7f0e"/>
     <use xlink:href="#maacb02d79f" x="305.345455" y="50.612132" style="fill: #ff7f0e; stroke: #ff7f0e"/>
     <use xlink:href="#maacb02d79f" x="315.381818" y="48.596696" style="fill: #ff7f0e; stroke: #ff7f0e"/>
     <use xlink:href="#maacb02d79f" x="325.418182" y="45.772282" style="fill: #ff7f0e; stroke: #ff7f0e"/>
     <use xlink:href="#maacb02d79f" x="335.454545" y="43.775376" style="fill: #ff7f0e; stroke: #ff7f0e"/>
     <use xlink:href="#maacb02d79f" x="345.490909" y="41.623144" style="fill: #ff7f0e; stroke: #ff7f0e"/>
     <use xlink:href="#maacb02d79f" x="355.527273" y="42.103414" style="fill: #ff7f0e; stroke: #ff7f0e"/>
     <use xlink:href="#maacb02d79f" x="365.563636" y="39.937334" style="fill: #ff7f0e; stroke: #ff7f0e"/>
    </g>
   </g>
   <g id="line2d_65">
    <g clip-path="url(#p78111325da)">
     <use xlink:href="#mfbd4ae3405" x="305.345455" y="50.612132" style="fill-opacity: 0; stroke: #ff7f0e"/>
    </g>
   </g>
   <g id="line2d_66">
    <path d="M 275.236364 86.057961 
L 285.272727 76.82505 
L 295.309091 65.852961 
L 305.345455 59.073902 
L 315.381818 53.931498 
L 325.418182 52.223526 
L 335.454545 51.64966 
L 345.490909 50.126381 
L 355.527273 48.502598 
L 365.563636 47.868473 
" clip-path="url(#p78111325da)" style="fill: none; stroke: #2ca02c; stroke-width: 1.5; stroke-linecap: square"/>
    <g clip-path="url(#p78111325da)">
     <use xlink:href="#m1519bc7014" x="275.236364" y="86.057961" style="fill: #2ca02c; stroke: #2ca02c"/>
     <use xlink:href="#m1519bc7014" x="285.272727" y="76.82505" style="fill: #2ca02c; stroke: #2ca02c"/>
     <use xlink:href="#m1519bc7014" x="295.309091" y="65.852961" style="fill: #2ca02c; stroke: #2ca02c"/>
     <use xlink:href="#m1519bc7014" x="305.345455" y="59.073902" style="fill: #2ca02c; stroke: #2ca02c"/>
     <use xlink:href="#m1519bc7014" x="315.381818" y="53.931498" style="fill: #2ca02c; stroke: #2ca02c"/>
     <use xlink:href="#m1519bc7014" x="325.418182" y="52.223526" style="fill: #2ca02c; stroke: #2ca02c"/>
     <use xlink:href="#m1519bc7014" x="335.454545" y="51.64966" style="fill: #2ca02c; stroke: #2ca02c"/>
     <use xlink:href="#m1519bc7014" x="345.490909" y="50.126381" style="fill: #2ca02c; stroke: #2ca02c"/>
     <use xlink:href="#m1519bc7014" x="355.527273" y="48.502598" style="fill: #2ca02c; stroke: #2ca02c"/>
     <use xlink:href="#m1519bc7014" x="365.563636" y="47.868473" style="fill: #2ca02c; stroke: #2ca02c"/>
    </g>
   </g>
   <g id="line2d_67">
    <g clip-path="url(#p78111325da)">
     <use xlink:href="#m7a5a9081ac" x="305.345455" y="59.073902" style="fill-opacity: 0; stroke: #2ca02c"/>
    </g>
   </g>
   <g id="line2d_68">
    <path d="M 275.236364 86.337886 
L 285.272727 85.565096 
L 295.309091 77.674663 
L 305.345455 69.89905 
L 315.381818 66.565538 
L 325.418182 63.762948 
L 335.454545 62.304681 
L 345.490909 62.057231 
L 355.527273 63.143188 
L 365.563636 62.616012 
" clip-path="url(#p78111325da)" style="fill: none; stroke: #d62728; stroke-width: 1.5; stroke-linecap: square"/>
    <g clip-path="url(#p78111325da)">
     <use xlink:href="#m416172bf89" x="275.236364" y="86.337886" style="fill: #d62728; stroke: #d62728"/>
     <use xlink:href="#m416172bf89" x="285.272727" y="85.565096" style="fill: #d62728; stroke: #d62728"/>
     <use xlink:href="#m416172bf89" x="295.309091" y="77.674663" style="fill: #d62728; stroke: #d62728"/>
     <use xlink:href="#m416172bf89" x="305.345455" y="69.89905" style="fill: #d62728; stroke: #d62728"/>
     <use xlink:href="#m416172bf89" x="315.381818" y="66.565538" style="fill: #d62728; stroke: #d62728"/>
     <use xlink:href="#m416172bf89" x="325.418182" y="63.762948" style="fill: #d62728; stroke: #d62728"/>
     <use xlink:href="#m416172bf89" x="335.454545" y="62.304681" style="fill: #d62728; stroke: #d62728"/>
     <use xlink:href="#m416172bf89" x="345.490909" y="62.057231" style="fill: #d62728; stroke: #d62728"/>
     <use xlink:href="#m416172bf89" x="355.527273" y="63.143188" style="fill: #d62728; stroke: #d62728"/>
     <use xlink:href="#m416172bf89" x="365.563636" y="62.616012" style="fill: #d62728; stroke: #d62728"/>
    </g>
   </g>
   <g id="line2d_69">
    <g clip-path="url(#p78111325da)">
     <use xlink:href="#mbf57bea582" x="305.345455" y="69.89905" style="fill-opacity: 0; stroke: #d62728"/>
    </g>
   </g>
   <g id="patch_13">
    <path d="M 270.72 86.4 
L 270.72 7.2 
" style="fill: none; stroke: #000000; stroke-width: 0.8; stroke-linejoin: miter; stroke-linecap: square"/>
   </g>
   <g id="patch_14">
    <path d="M 370.08 86.4 
L 370.08 7.2 
" style="fill: none; stroke: #000000; stroke-width: 0.8; stroke-linejoin: miter; stroke-linecap: square"/>
   </g>
   <g id="patch_15">
    <path d="M 270.72 86.4 
L 370.08 86.4 
" style="fill: none; stroke: #000000; stroke-width: 0.8; stroke-linejoin: miter; stroke-linecap: square"/>
   </g>
   <g id="patch_16">
    <path d="M 270.72 7.2 
L 370.08 7.2 
" style="fill: none; stroke: #000000; stroke-width: 0.8; stroke-linejoin: miter; stroke-linecap: square"/>
   </g>
  </g>
  <g id="axes_4">
   <g id="patch_17">
    <path d="M 384.48 86.4 
L 483.84 86.4 
L 483.84 7.2 
L 384.48 7.2 
z
" style="fill: #ffffff"/>
   </g>
   <g id="matplotlib.axis_7"/>
   <g id="matplotlib.axis_8"/>
   <g id="legend_1">
    <g id="patch_18">
     <path d="M 390.08 75.2425 
L 446.57375 75.2425 
Q 448.17375 75.2425 448.17375 73.6425 
L 448.17375 19.9575 
Q 448.17375 18.3575 446.57375 18.3575 
L 390.08 18.3575 
Q 388.48 18.3575 388.48 19.9575 
L 388.48 73.6425 
Q 388.48 75.2425 390.08 75.2425 
z
" style="fill: #ffffff; opacity: 0.8; stroke: #cccccc; stroke-linejoin: miter"/>
    </g>
    <g id="text_25">
     <text style="font: 8px 'Carlito', sans-serif; text-anchor: start" x="391.68" y="27.1125" transform="rotate(-0 391.68 27.1125)">channel length L</text>
    </g>
    <g id="line2d_70">
     <path d="M 399.016875 35.2875 
L 407.016875 35.2875 
L 415.016875 35.2875 
" style="fill: none; stroke: #1f77b4; stroke-width: 1.5; stroke-linecap: square"/>
     <g>
      <use xlink:href="#m945d000e09" x="407.016875" y="35.2875" style="fill: #1f77b4; stroke: #1f77b4"/>
     </g>
    </g>
    <g id="text_26">
     <text style="font: 8px 'Carlito', sans-serif; text-anchor: start" x="421.416875" y="38.0875" transform="rotate(-0 421.416875 38.0875)">30</text>
    </g>
    <g id="line2d_71">
     <path d="M 399.016875 46.17625 
L 407.016875 46.17625 
L 415.016875 46.17625 
" style="fill: none; stroke: #ff7f0e; stroke-width: 1.5; stroke-linecap: square"/>
     <g>
      <use xlink:href="#maacb02d79f" x="407.016875" y="46.17625" style="fill: #ff7f0e; stroke: #ff7f0e"/>
     </g>
    </g>
    <g id="text_27">
     <text style="font: 8px 'Carlito', sans-serif; text-anchor: start" x="421.416875" y="48.97625" transform="rotate(-0 421.416875 48.97625)">100</text>
    </g>
    <g id="line2d_72">
     <path d="M 399.016875 57.065 
L 407.016875 57.065 
L 415.016875 57.065 
" style="fill: none; stroke: #2ca02c; stroke-width: 1.5; stroke-linecap: square"/>
     <g>
      <use xlink:href="#m1519bc7014" x="407.016875" y="57.065" style="fill: #2ca02c; stroke: #2ca02c"/>
     </g>
    </g>
    <g id="text_28">
     <text style="font: 8px 'Carlito', sans-serif; text-anchor: start" x="421.416875" y="59.865" transform="rotate(-0 421.416875 59.865)">300</text>
    </g>
    <g id="line2d_73">
     <path d="M 399.016875 67.95375 
L 407.016875 67.95375 
L 415.016875 67.95375 
" style="fill: none; stroke: #d62728; stroke-width: 1.5; stroke-linecap: square"/>
     <g>
      <use xlink:href="#m416172bf89" x="407.016875" y="67.95375" style="fill: #d62728; stroke: #d62728"/>
     </g>
    </g>
    <g id="text_29">
     <text style="font: 8px 'Carlito', sans-serif; text-anchor: start" x="421.416875" y="70.75375" transform="rotate(-0 421.416875 70.75375)">1000</text>
    </g>
   </g>
  </g>
 </g>
 <defs>
  <clipPath id="p175c751b18">
   <rect x="43.2" y="7.2" width="99.36" height="79.2"/>
  </clipPath>
  <clipPath id="pb408a9b4f5">
   <rect x="156.96" y="7.2" width="99.36" height="79.2"/>
  </clipPath>
  <clipPath id="p78111325da">
   <rect x="270.72" y="7.2" width="99.36" height="79.2"/>
  </clipPath>
 </defs>
</svg>
