<?xml version="1.0" encoding="utf-8" standalone="no"?>
<!DOCTYPE svg PUBLIC "-//W3C//DTD SVG 1.1//EN"
  "http://www.w3.org/Graphics/SVG/1.1/DTD/svg11.dtd">
<svg xmlns:xlink="http://www.w3.org/1999/xlink" width="331.2pt" height="79.2pt" viewBox="0 0 331.2 79.2" xmlns="http://www.w3.org/2000/svg" version="1.1">
 <metadata>
  <rdf:RDF xmlns:dc="http://purl.org/dc/elements/1.1/" xmlns:cc="http://creativecommons.org/ns#" xmlns:rdf="http://www.w3.org/1999/02/22-rdf-syntax-ns#">
   <cc:Work>
    <dc:type rdf:resource="http://purl.org/dc/dcmitype/StillImage"/>
    <dc:date>2024-10-22T18:25:04.904625</dc:date>
    <dc:format>image/svg+xml</dc:format>
    <dc:creator>
     <cc:Agent>
      <dc:title>Matplotlib v3.7.1, https://matplotlib.org/</dc:title>
     </cc:Agent>
    </dc:creator>
   </cc:Work>
  </rdf:RDF>
 </metadata>
 <defs>
  <style type="text/css">*{stroke-linejoin: round; stroke-linecap: butt}</style>
 </defs>
 <g id="figure_1">
  <g id="patch_1">
   <path d="M 0 79.2 
L 331.2 79.2 
L 331.2 0 
L 0 0 
z
" style="fill: #ffffff"/>
  </g>
  <g id="axes_1">
   <g id="patch_2">
    <path d="M 14.4 57.6 
L 100.8 57.6 
L 100.8 7.2 
L 14.4 7.2 
z
" style="fill: #ffffff"/>
   </g>
   <g id="matplotlib.axis_1">
    <g id="xtick_1">
     <g id="line2d_1">
      <defs>
       <path id="mf4d69b5bd9" d="M 0 0 
L 0 3.5 
" style="stroke: #000000; stroke-width: 0.8"/>
      </defs>
      <g>
       <use xlink:href="#mf4d69b5bd9" x="21.469091" y="57.6" style="stroke: #000000; stroke-width: 0.8"/>
      </g>
     </g>
     <g id="text_1">
      <!-- $\tau_E$ = 4 min -->
      <g transform="translate(5.509091 70.155) scale(0.08 -0.08)">
       <defs>
        <path id="Carlito-Italic-3c4" d="M 253 2850 
Q 263 2922 314 2973 
Q 366 3025 456 3025 
L 2719 3025 
L 2694 2813 
Q 2669 2622 2484 2622 
L 1616 2622 
L 1400 844 
Q 1372 613 1445 494 
Q 1519 375 1716 375 
L 1950 375 
L 1928 209 
Q 1922 153 1881 111 
Q 1841 69 1777 39 
Q 1713 9 1631 -6 
Q 1550 -22 1463 -22 
Q 1291 -22 1167 39 
Q 1044 100 969 211 
Q 894 322 869 475 
Q 844 628 866 816 
L 1084 2622 
L 225 2622 
L 253 2850 
z
" transform="scale(0.015625)"/>
        <path id="Carlito-Italic-45" d="M 3122 3663 
L 1288 3663 
L 1119 2288 
L 2600 2288 
L 2547 1856 
L 1066 1856 
L 894 444 
L 2731 444 
L 2678 0 
L 281 0 
L 788 4106 
L 3178 4106 
L 3122 3663 
z
" transform="scale(0.015625)"/>
        <path id="Carlito-20" transform="scale(0.015625)"/>
        <path id="Carlito-3d" d="M 294 1731 
L 2891 1731 
L 2891 1319 
L 294 1319 
L 294 1731 
z
M 294 2747 
L 2891 2747 
L 2891 2331 
L 294 2331 
L 294 2747 
z
" transform="scale(0.015625)"/>
        <path id="Carlito-34" d="M 109 0 
L 109 0 
z
M 2544 1484 
L 3138 1484 
L 3138 1188 
Q 3138 1141 3108 1108 
Q 3078 1075 3022 1075 
L 2544 1075 
L 2544 0 
L 2084 0 
L 2084 1075 
L 319 1075 
Q 256 1075 215 1108 
Q 175 1141 163 1194 
L 109 1456 
L 2053 4109 
L 2544 4109 
L 2544 1484 
z
M 2084 3159 
Q 2084 3309 2103 3488 
L 669 1484 
L 2084 1484 
L 2084 3159 
z
" transform="scale(0.015625)"/>
        <path id="Carlito-6d" d="M 459 0 
L 459 3056 
L 784 3056 
Q 847 3056 883 3029 
Q 919 3003 925 2944 
L 972 2631 
Q 1059 2734 1154 2820 
Q 1250 2906 1359 2970 
Q 1469 3034 1594 3068 
Q 1719 3103 1859 3103 
Q 2175 3103 2373 2931 
Q 2572 2759 2656 2469 
Q 2722 2638 2830 2756 
Q 2938 2875 3069 2953 
Q 3200 3031 3350 3067 
Q 3500 3103 3656 3103 
Q 4156 3103 4429 2803 
Q 4703 2503 4703 1947 
L 4703 0 
L 4153 0 
L 4153 1947 
Q 4153 2303 3990 2486 
Q 3828 2669 3525 2669 
Q 3388 2669 3266 2623 
Q 3144 2578 3051 2486 
Q 2959 2394 2904 2259 
Q 2850 2125 2850 1947 
L 2850 0 
L 2300 0 
L 2300 1947 
Q 2300 2313 2148 2491 
Q 1997 2669 1703 2669 
Q 1503 2669 1328 2564 
Q 1153 2459 1009 2275 
L 1009 0 
L 459 0 
z
" transform="scale(0.015625)"/>
        <path id="Carlito-69" d="M 344 0 
L 344 0 
z
M 1009 3056 
L 1009 0 
L 459 0 
L 459 3056 
L 1009 3056 
z
M 1116 4012 
Q 1116 3934 1084 3864 
Q 1053 3794 998 3742 
Q 944 3691 873 3659 
Q 803 3628 725 3628 
Q 647 3628 578 3659 
Q 509 3691 457 3742 
Q 406 3794 375 3864 
Q 344 3934 344 4012 
Q 344 4094 375 4164 
Q 406 4234 457 4287 
Q 509 4341 578 4372 
Q 647 4403 725 4403 
Q 803 4403 873 4372 
Q 944 4341 998 4287 
Q 1053 4234 1084 4164 
Q 1116 4094 1116 4012 
z
" transform="scale(0.015625)"/>
        <path id="Carlito-6e" d="M 438 0 
L 438 3056 
L 766 3056 
Q 825 3056 862 3029 
Q 900 3003 906 2944 
L 953 2619 
Q 1150 2838 1394 2970 
Q 1638 3103 1956 3103 
Q 2206 3103 2395 3020 
Q 2584 2938 2712 2786 
Q 2841 2634 2906 2420 
Q 2972 2206 2972 1947 
L 2972 0 
L 2422 0 
L 2422 1947 
Q 2422 2288 2267 2478 
Q 2113 2669 1797 2669 
Q 1563 2669 1359 2558 
Q 1156 2447 988 2250 
L 988 0 
L 438 0 
z
" transform="scale(0.015625)"/>
       </defs>
       <use xlink:href="#Carlito-Italic-3c4" transform="translate(0 0.203125)"/>
       <use xlink:href="#Carlito-Italic-45" transform="translate(38.720703 -14.121875) scale(0.7)"/>
       <use xlink:href="#Carlito-20" transform="translate(75.287891 0.203125)"/>
       <use xlink:href="#Carlito-3d" transform="translate(97.895313 0.203125)"/>
       <use xlink:href="#Carlito-20" transform="translate(147.7 0.203125)"/>
       <use xlink:href="#Carlito-34" transform="translate(170.307422 0.203125)"/>
       <use xlink:href="#Carlito-20" transform="translate(220.991016 0.203125)"/>
       <use xlink:href="#Carlito-6d" transform="translate(243.598437 0.203125)"/>
       <use xlink:href="#Carlito-69" transform="translate(323.48125 0.203125)"/>
       <use xlink:href="#Carlito-6e" transform="translate(346.430469 0.203125)"/>
      </g>
     </g>
    </g>
   </g>
   <g id="matplotlib.axis_2"/>
   <g id="line2d_2">
    <path d="M 18.327273 55.309091 
L 18.405818 55.27825 
L 18.562909 54.627329 
L 18.798545 51.268596 
L 19.191273 40.207884 
L 19.976727 16.654863 
L 20.369455 10.814018 
L 20.605091 9.568947 
L 20.762182 9.565556 
L 20.919273 10.131033 
L 21.233455 12.624304 
L 21.783273 19.662349 
L 23.197091 38.823413 
L 23.904 45.243442 
L 24.532364 49.078742 
L 25.160727 51.57011 
L 25.789091 53.121678 
L 26.417455 54.056423 
L 27.045818 54.604629 
L 27.831273 54.973392 
L 28.852364 55.184832 
L 30.658909 55.289054 
L 37.256727 55.309075 
L 96.872727 55.309091 
L 96.872727 55.309091 
" clip-path="url(#pdca9b00880)" style="fill: none; stroke: #daa520; stroke-width: 1.5; stroke-linecap: square"/>
   </g>
   <g id="patch_3">
    <path d="M 14.4 57.6 
L 14.4 7.2 
" style="fill: none; stroke: #808080; stroke-width: 0.8; stroke-linejoin: miter; stroke-linecap: square"/>
   </g>
   <g id="patch_4">
    <path d="M 100.8 57.6 
L 100.8 7.2 
" style="fill: none; stroke: #808080; stroke-width: 0.8; stroke-linejoin: miter; stroke-linecap: square"/>
   </g>
   <g id="patch_5">
    <path d="M 14.4 57.6 
L 100.8 57.6 
" style="fill: none; stroke: #808080; stroke-width: 0.8; stroke-linejoin: miter; stroke-linecap: square"/>
   </g>
   <g id="patch_6">
    <path d="M 14.4 7.2 
L 100.8 7.2 
" style="fill: none; stroke: #808080; stroke-width: 0.8; stroke-linejoin: miter; stroke-linecap: square"/>
   </g>
   <g id="text_2">
    <!-- $\sigma_E\ = \ \tau_E\ / \sqrt{n_E} = 2$ min -->
    <g transform="translate(26.574545 27.818182) scale(0.08 -0.08)">
     <defs>
      <path id="Carlito-Italic-3c3" d="M 2684 2631 
Q 2853 2484 2942 2257 
Q 3031 2031 3031 1728 
Q 3031 1344 2918 1020 
Q 2806 697 2603 459 
Q 2400 222 2114 89 
Q 1828 -44 1478 -44 
Q 1206 -44 986 47 
Q 766 138 611 305 
Q 456 472 372 712 
Q 288 953 288 1253 
Q 288 1663 406 1992 
Q 525 2322 751 2555 
Q 978 2788 1306 2913 
Q 1634 3038 2053 3038 
L 3600 3038 
L 3569 2791 
Q 3563 2738 3511 2684 
Q 3459 2631 3375 2631 
L 2684 2631 
z
M 2497 1834 
Q 2497 2125 2406 2342 
Q 2316 2559 2128 2631 
L 2006 2631 
Q 1684 2631 1461 2534 
Q 1238 2438 1097 2258 
Q 956 2078 893 1820 
Q 831 1563 831 1241 
Q 831 822 1007 595 
Q 1184 369 1525 369 
Q 1772 369 1955 469 
Q 2138 569 2258 758 
Q 2378 947 2437 1219 
Q 2497 1491 2497 1834 
z
" transform="scale(0.015625)"/>
      <path id="Carlito-2f" d="M 497 -63 
Q 453 -169 368 -220 
Q 284 -272 194 -272 
L -38 -272 
L 1981 4244 
Q 2059 4444 2269 4444 
L 2500 4444 
L 497 -63 
z
" transform="scale(0.015625)"/>
      <path id="Cmex10-70" d="M 2713 -7425 
L 1269 -4063 
L 819 -4409 
L 703 -4294 
L 1619 -3584 
L 2969 -6725 
L 6291 197 
Q 6322 256 6400 256 
Q 6453 256 6490 218 
Q 6528 181 6528 128 
Q 6528 97 6522 84 
L 2950 -7366 
Q 2925 -7425 2853 -7425 
L 2713 -7425 
z
" transform="scale(0.015625)"/>
      <path id="Carlito-Italic-6e" d="M 225 0 
L 591 3059 
L 863 3059 
Q 953 3059 1001 3014 
Q 1050 2969 1044 2875 
L 1003 2275 
Q 1253 2684 1573 2892 
Q 1894 3100 2231 3100 
Q 2431 3100 2584 3023 
Q 2738 2947 2833 2800 
Q 2928 2653 2964 2437 
Q 3000 2222 2966 1947 
L 2738 0 
L 2191 0 
L 2419 1947 
Q 2466 2306 2373 2476 
Q 2281 2647 2031 2647 
Q 1881 2647 1725 2569 
Q 1569 2491 1423 2345 
Q 1278 2200 1153 1997 
Q 1028 1794 944 1541 
L 772 0 
L 225 0 
z
" transform="scale(0.015625)"/>
      <path id="Carlito-32" d="M 288 0 
L 288 0 
z
M 1684 4153 
Q 1944 4153 2166 4075 
Q 2388 3997 2550 3850 
Q 2713 3703 2805 3490 
Q 2897 3278 2897 3006 
Q 2897 2778 2830 2583 
Q 2763 2388 2648 2209 
Q 2534 2031 2384 1861 
Q 2234 1691 2069 1519 
L 1016 422 
Q 1134 456 1254 475 
Q 1375 494 1484 494 
L 2788 494 
Q 2872 494 2922 445 
Q 2972 397 2972 316 
L 2972 0 
L 288 0 
L 288 178 
Q 288 231 309 292 
Q 331 353 384 403 
L 1656 1716 
Q 1819 1881 1948 2034 
Q 2078 2188 2168 2342 
Q 2259 2497 2309 2656 
Q 2359 2816 2359 2994 
Q 2359 3172 2304 3306 
Q 2250 3441 2156 3530 
Q 2063 3619 1934 3662 
Q 1806 3706 1656 3706 
Q 1509 3706 1384 3661 
Q 1259 3616 1162 3536 
Q 1066 3456 997 3345 
Q 928 3234 897 3103 
Q 872 2997 811 2964 
Q 750 2931 641 2947 
L 369 2991 
Q 406 3275 520 3492 
Q 634 3709 806 3856 
Q 978 4003 1201 4078 
Q 1425 4153 1684 4153 
z
" transform="scale(0.015625)"/>
     </defs>
     <use xlink:href="#Carlito-Italic-3c3" transform="translate(0 0.309375)"/>
     <use xlink:href="#Carlito-Italic-45" transform="translate(53.173828 -14.015625) scale(0.7)"/>
     <use xlink:href="#Carlito-3d" transform="translate(131.928252 0.309375)"/>
     <use xlink:href="#Carlito-Italic-3c4" transform="translate(223.920176 0.309375)"/>
     <use xlink:href="#Carlito-Italic-45" transform="translate(262.640879 -14.015625) scale(0.7)"/>
     <use xlink:href="#Carlito-2f" transform="translate(325.57499 0.309375)"/>
     <use xlink:href="#Cmex10-70" transform="translate(364.198037 76.859375) scale(0.783336)"/>
     <use xlink:href="#Carlito-Italic-6e" transform="translate(455.026162 0.3125)"/>
     <use xlink:href="#Carlito-Italic-45" transform="translate(506.442178 -14.0125) scale(0.7)"/>
     <use xlink:href="#Carlito-3d" transform="translate(571.329678 0.309375)"/>
     <use xlink:href="#Carlito-32" transform="translate(636.954678 0.309375)"/>
     <use xlink:href="#Carlito-20" transform="translate(687.638271 0.309375)"/>
     <use xlink:href="#Carlito-6d" transform="translate(710.245693 0.309375)"/>
     <use xlink:href="#Carlito-69" transform="translate(790.128506 0.309375)"/>
     <use xlink:href="#Carlito-6e" transform="translate(813.077725 0.309375)"/>
     <path d="M 442.526162 73.5 
L 442.526162 79.75 
L 555.509365 79.75 
L 555.509365 73.5 
L 442.526162 73.5 
z
"/>
    </g>
   </g>
   <g id="patch_7">
    <path d="M 22.647273 32.4 
Q 21.076364 32.4 19.505455 32.4 
" style="fill: none; stroke: #000000; stroke-linecap: round"/>
    <path d="M 22.647273 34.9 
L 22.647273 34.9 
L 22.647273 29.9 
L 22.647273 29.9 
" style="fill: none; stroke: #000000; stroke-linecap: round"/>
    <path d="M 19.505455 29.9 
L 19.505455 29.9 
L 19.505455 34.9 
L 19.505455 34.9 
" style="fill: none; stroke: #000000; stroke-linecap: round"/>
   </g>
   <g id="patch_8">
    <path d="M 22.647273 32.4 
Q 21.861818 32.4 21.076364 32.4 
" style="fill: none; stroke: #000000; stroke-linecap: round"/>
    <path d="M 22.647273 33.65 
L 22.647273 33.65 
L 22.647273 31.15 
L 22.647273 31.15 
" style="fill: none; stroke: #000000; stroke-linecap: round"/>
    <path d="M 21.076364 31.15 
L 21.076364 31.15 
L 21.076364 33.65 
L 21.076364 33.65 
" style="fill: none; stroke: #000000; stroke-linecap: round"/>
   </g>
  </g>
  <g id="axes_2">
   <g id="patch_9">
    <path d="M 122.4 57.6 
L 208.8 57.6 
L 208.8 7.2 
L 122.4 7.2 
z
" style="fill: #ffffff"/>
   </g>
   <g id="matplotlib.axis_3">
    <g id="xtick_2">
     <g id="line2d_3">
      <g>
       <use xlink:href="#mf4d69b5bd9" x="127.898182" y="57.6" style="stroke: #000000; stroke-width: 0.8"/>
      </g>
     </g>
     <g id="text_3">
      <!-- $\tau_I$ = 2 min -->
      <g transform="translate(112.578182 70.155) scale(0.08 -0.08)">
       <defs>
        <path id="Carlito-Italic-49" d="M 916 0 
L 359 0 
L 863 4106 
L 1416 4106 
L 916 0 
z
" transform="scale(0.015625)"/>
       </defs>
       <use xlink:href="#Carlito-Italic-3c4" transform="translate(0 0.203125)"/>
       <use xlink:href="#Carlito-Italic-49" transform="translate(38.720703 -14.121875) scale(0.7)"/>
       <use xlink:href="#Carlito-20" transform="translate(58.744922 0.203125)"/>
       <use xlink:href="#Carlito-3d" transform="translate(81.352344 0.203125)"/>
       <use xlink:href="#Carlito-20" transform="translate(131.157031 0.203125)"/>
       <use xlink:href="#Carlito-32" transform="translate(153.764453 0.203125)"/>
       <use xlink:href="#Carlito-20" transform="translate(204.448047 0.203125)"/>
       <use xlink:href="#Carlito-6d" transform="translate(227.055469 0.203125)"/>
       <use xlink:href="#Carlito-69" transform="translate(306.938281 0.203125)"/>
       <use xlink:href="#Carlito-6e" transform="translate(329.8875 0.203125)"/>
      </g>
     </g>
    </g>
   </g>
   <g id="matplotlib.axis_4"/>
   <g id="line2d_4">
    <path d="M 126.327273 55.309091 
L 126.641455 21.914623 
L 126.955636 10.539128 
L 127.112727 9.490909 
L 127.191273 9.705285 
L 127.348364 11.183264 
L 127.741091 18.251706 
L 128.762182 37.915825 
L 129.390545 45.476942 
L 129.940364 49.550244 
L 130.490182 52.014151 
L 131.04 53.456768 
L 131.589818 54.28194 
L 132.218182 54.792455 
L 132.925091 55.073836 
L 134.024727 55.241409 
L 136.381091 55.30469 
L 159.709091 55.309091 
L 204.872727 55.309091 
L 204.872727 55.309091 
" clip-path="url(#p91a6013f79)" style="fill: none; stroke: #b22222; stroke-width: 1.5; stroke-linecap: square"/>
   </g>
   <g id="patch_10">
    <path d="M 122.4 57.6 
L 122.4 7.2 
" style="fill: none; stroke: #808080; stroke-width: 0.8; stroke-linejoin: miter; stroke-linecap: square"/>
   </g>
   <g id="patch_11">
    <path d="M 208.8 57.6 
L 208.8 7.2 
" style="fill: none; stroke: #808080; stroke-width: 0.8; stroke-linejoin: miter; stroke-linecap: square"/>
   </g>
   <g id="patch_12">
    <path d="M 122.4 57.6 
L 208.8 57.6 
" style="fill: none; stroke: #808080; stroke-width: 0.8; stroke-linejoin: miter; stroke-linecap: square"/>
   </g>
   <g id="patch_13">
    <path d="M 122.4 7.2 
L 208.8 7.2 
" style="fill: none; stroke: #808080; stroke-width: 0.8; stroke-linejoin: miter; stroke-linecap: square"/>
   </g>
   <g id="text_4">
    <!-- $\sigma_I\ = \ \tau_I\ / \sqrt{n_I} = 1.4$ min -->
    <g transform="translate(133.693799 27.818182) scale(0.08 -0.08)">
     <defs>
      <path id="Carlito-31" d="M 797 400 
L 1650 400 
L 1650 3172 
Q 1650 3294 1659 3425 
L 963 2813 
Q 888 2750 817 2770 
Q 747 2791 719 2831 
L 553 3059 
L 1750 4119 
L 2175 4119 
L 2175 400 
L 2956 400 
L 2956 0 
L 797 0 
L 797 400 
z
" transform="scale(0.015625)"/>
      <path id="Carlito-2e" d="M 419 0 
L 419 0 
z
M 1191 334 
Q 1191 256 1159 186 
Q 1128 116 1073 64 
Q 1019 13 948 -18 
Q 878 -50 800 -50 
Q 722 -50 653 -18 
Q 584 13 532 64 
Q 481 116 450 186 
Q 419 256 419 334 
Q 419 416 450 486 
Q 481 556 532 609 
Q 584 663 653 694 
Q 722 725 800 725 
Q 878 725 948 694 
Q 1019 663 1073 609 
Q 1128 556 1159 486 
Q 1191 416 1191 334 
z
" transform="scale(0.015625)"/>
     </defs>
     <use xlink:href="#Carlito-Italic-3c3" transform="translate(0 0.309375)"/>
     <use xlink:href="#Carlito-Italic-49" transform="translate(53.173828 -14.015625) scale(0.7)"/>
     <use xlink:href="#Carlito-3d" transform="translate(115.385283 0.309375)"/>
     <use xlink:href="#Carlito-Italic-3c4" transform="translate(207.377207 0.309375)"/>
     <use xlink:href="#Carlito-Italic-49" transform="translate(246.09791 -14.015625) scale(0.7)"/>
     <use xlink:href="#Carlito-2f" transform="translate(292.489053 0.309375)"/>
     <use xlink:href="#Cmex10-70" transform="translate(331.1121 76.859375) scale(0.783336)"/>
     <use xlink:href="#Carlito-Italic-6e" transform="translate(421.940225 0.3125)"/>
     <use xlink:href="#Carlito-Italic-49" transform="translate(473.35624 -14.0125) scale(0.7)"/>
     <use xlink:href="#Carlito-3d" transform="translate(521.700771 0.309375)"/>
     <use xlink:href="#Carlito-31" transform="translate(587.325771 0.309375)"/>
     <use xlink:href="#Carlito-2e" transform="translate(638.009365 0.309375)"/>
     <use xlink:href="#Carlito-34" transform="translate(663.253506 0.309375)"/>
     <use xlink:href="#Carlito-20" transform="translate(713.9371 0.309375)"/>
     <use xlink:href="#Carlito-6d" transform="translate(736.544521 0.309375)"/>
     <use xlink:href="#Carlito-69" transform="translate(816.427334 0.309375)"/>
     <use xlink:href="#Carlito-6e" transform="translate(839.376553 0.309375)"/>
     <path d="M 409.440225 73.5 
L 409.440225 79.75 
L 505.880459 79.75 
L 505.880459 73.5 
L 409.440225 73.5 
z
"/>
    </g>
   </g>
   <g id="patch_14">
    <path d="M 128.616255 32.4 
Q 127.505455 32.4 126.394654 32.4 
" style="fill: none; stroke: #000000; stroke-linecap: round"/>
    <path d="M 128.616255 34.9 
L 128.616255 34.9 
L 128.616255 29.9 
L 128.616255 29.9 
" style="fill: none; stroke: #000000; stroke-linecap: round"/>
    <path d="M 126.394654 29.9 
L 126.394654 29.9 
L 126.394654 34.9 
L 126.394654 34.9 
" style="fill: none; stroke: #000000; stroke-linecap: round"/>
   </g>
   <g id="patch_15">
    <path d="M 128.616255 32.4 
Q 128.060855 32.4 127.505455 32.4 
" style="fill: none; stroke: #000000; stroke-linecap: round"/>
    <path d="M 128.616255 33.65 
L 128.616255 33.65 
L 128.616255 31.15 
L 128.616255 31.15 
" style="fill: none; stroke: #000000; stroke-linecap: round"/>
    <path d="M 127.505455 31.15 
L 127.505455 31.15 
L 127.505455 33.65 
L 127.505455 33.65 
" style="fill: none; stroke: #000000; stroke-linecap: round"/>
   </g>
  </g>
  <g id="axes_3">
   <g id="patch_16">
    <path d="M 230.4 57.6 
L 316.8 57.6 
L 316.8 7.2 
L 230.4 7.2 
z
" style="fill: #ffffff"/>
   </g>
   <g id="matplotlib.axis_5">
    <g id="xtick_3">
     <g id="line2d_5">
      <g>
       <use xlink:href="#mf4d69b5bd9" x="281.454545" y="57.6" style="stroke: #000000; stroke-width: 0.8"/>
      </g>
     </g>
     <g id="text_5">
      <!-- $\tau_R$ = 60 min -->
      <g transform="translate(263.294545 70.155) scale(0.08 -0.08)">
       <defs>
        <path id="Carlito-Italic-52" d="M 1088 1719 
L 878 0 
L 331 0 
L 834 4106 
L 1941 4106 
Q 2275 4106 2520 4037 
Q 2766 3969 2925 3839 
Q 3084 3709 3161 3528 
Q 3238 3347 3238 3122 
Q 3238 2875 3161 2661 
Q 3084 2447 2943 2276 
Q 2803 2106 2601 1986 
Q 2400 1866 2147 1806 
Q 2244 1738 2306 1631 
L 3209 0 
L 2719 0 
Q 2575 0 2509 119 
L 1722 1588 
Q 1688 1659 1636 1689 
Q 1584 1719 1475 1719 
L 1088 1719 
z
M 1328 3678 
L 1138 2116 
L 1672 2116 
Q 1919 2116 2109 2184 
Q 2300 2253 2429 2376 
Q 2559 2500 2625 2669 
Q 2691 2838 2691 3038 
Q 2691 3350 2489 3514 
Q 2288 3678 1888 3678 
L 1328 3678 
z
" transform="scale(0.015625)"/>
        <path id="Carlito-36" d="M 1366 2706 
Q 1319 2641 1273 2580 
Q 1228 2519 1188 2459 
Q 1322 2550 1484 2600 
Q 1647 2650 1834 2650 
Q 2072 2650 2287 2565 
Q 2503 2481 2667 2317 
Q 2831 2153 2926 1912 
Q 3022 1672 3022 1363 
Q 3022 1066 2920 808 
Q 2819 550 2636 359 
Q 2453 169 2198 61 
Q 1944 -47 1634 -47 
Q 1325 -47 1076 58 
Q 828 163 653 355 
Q 478 547 383 820 
Q 288 1094 288 1431 
Q 288 1716 405 2034 
Q 522 2353 772 2722 
L 1778 4191 
Q 1819 4247 1895 4284 
Q 1972 4322 2072 4322 
L 2559 4322 
L 1366 2706 
z
M 819 1334 
Q 819 1128 872 958 
Q 925 788 1028 666 
Q 1131 544 1281 475 
Q 1431 406 1625 406 
Q 1816 406 1972 476 
Q 2128 547 2239 669 
Q 2350 791 2411 958 
Q 2472 1125 2472 1322 
Q 2472 1534 2412 1703 
Q 2353 1872 2245 1989 
Q 2138 2106 1986 2168 
Q 1834 2231 1650 2231 
Q 1459 2231 1304 2157 
Q 1150 2084 1042 1961 
Q 934 1838 876 1675 
Q 819 1513 819 1334 
z
" transform="scale(0.015625)"/>
        <path id="Carlito-30" d="M 3078 2053 
Q 3078 1516 2965 1120 
Q 2853 725 2656 467 
Q 2459 209 2192 82 
Q 1925 -44 1619 -44 
Q 1313 -44 1047 82 
Q 781 209 586 467 
Q 391 725 278 1120 
Q 166 1516 166 2053 
Q 166 2591 278 2986 
Q 391 3381 586 3640 
Q 781 3900 1047 4026 
Q 1313 4153 1619 4153 
Q 1925 4153 2192 4026 
Q 2459 3900 2656 3640 
Q 2853 3381 2965 2986 
Q 3078 2591 3078 2053 
z
M 2534 2053 
Q 2534 2522 2459 2839 
Q 2384 3156 2257 3350 
Q 2131 3544 1965 3628 
Q 1800 3713 1619 3713 
Q 1438 3713 1273 3628 
Q 1109 3544 982 3350 
Q 856 3156 781 2839 
Q 706 2522 706 2053 
Q 706 1584 781 1267 
Q 856 950 982 756 
Q 1109 563 1273 480 
Q 1438 397 1619 397 
Q 1800 397 1965 480 
Q 2131 563 2257 756 
Q 2384 950 2459 1267 
Q 2534 1584 2534 2053 
z
" transform="scale(0.015625)"/>
       </defs>
       <use xlink:href="#Carlito-Italic-3c4" transform="translate(0 0.203125)"/>
       <use xlink:href="#Carlito-Italic-52" transform="translate(38.720703 -14.121875) scale(0.7)"/>
       <use xlink:href="#Carlito-20" transform="translate(79.116016 0.203125)"/>
       <use xlink:href="#Carlito-3d" transform="translate(101.723438 0.203125)"/>
       <use xlink:href="#Carlito-20" transform="translate(151.528125 0.203125)"/>
       <use xlink:href="#Carlito-36" transform="translate(174.135547 0.203125)"/>
       <use xlink:href="#Carlito-30" transform="translate(224.819141 0.203125)"/>
       <use xlink:href="#Carlito-20" transform="translate(275.502734 0.203125)"/>
       <use xlink:href="#Carlito-6d" transform="translate(298.110156 0.203125)"/>
       <use xlink:href="#Carlito-69" transform="translate(377.992969 0.203125)"/>
       <use xlink:href="#Carlito-6e" transform="translate(400.942187 0.203125)"/>
      </g>
     </g>
    </g>
   </g>
   <g id="matplotlib.axis_6"/>
   <g id="line2d_6">
    <path d="M 234.327273 55.309091 
L 236.133818 55.203682 
L 237.233455 54.909364 
L 238.254545 54.404548 
L 239.275636 53.64988 
L 240.375273 52.549669 
L 241.553455 51.050362 
L 242.888727 48.985323 
L 244.459636 46.135072 
L 246.501818 41.927496 
L 250.036364 34.012287 
L 253.492364 26.468718 
L 255.770182 22.015876 
L 257.733818 18.65401 
L 259.461818 16.113357 
L 261.111273 14.075537 
L 262.603636 12.564172 
L 264.096 11.366668 
L 265.509818 10.514812 
L 266.923636 9.927473 
L 268.337455 9.591426 
L 269.751273 9.491248 
L 271.165091 9.609932 
L 272.657455 9.952698 
L 274.306909 10.565466 
L 276.113455 11.484195 
L 278.155636 12.787365 
L 280.512 14.572811 
L 283.339636 17.01141 
L 287.188364 20.651819 
L 299.048727 32.063476 
L 302.976 35.433096 
L 306.589091 38.249272 
L 310.123636 40.724155 
L 312.872727 42.456603 
L 312.872727 42.456603 
" clip-path="url(#p1854d61dfb)" style="fill: none; stroke: #48d1cc; stroke-width: 1.5; stroke-linecap: square"/>
   </g>
   <g id="patch_17">
    <path d="M 230.4 57.6 
L 230.4 7.2 
" style="fill: none; stroke: #808080; stroke-width: 0.8; stroke-linejoin: miter; stroke-linecap: square"/>
   </g>
   <g id="patch_18">
    <path d="M 316.8 57.6 
L 316.8 7.2 
" style="fill: none; stroke: #808080; stroke-width: 0.8; stroke-linejoin: miter; stroke-linecap: square"/>
   </g>
   <g id="patch_19">
    <path d="M 230.4 57.6 
L 316.8 57.6 
" style="fill: none; stroke: #808080; stroke-width: 0.8; stroke-linejoin: miter; stroke-linecap: square"/>
   </g>
   <g id="patch_20">
    <path d="M 230.4 7.2 
L 316.8 7.2 
" style="fill: none; stroke: #808080; stroke-width: 0.8; stroke-linejoin: miter; stroke-linecap: square"/>
   </g>
   <g id="text_6">
    <!-- $\sigma_R\ = \ \tau_R\ / \sqrt{n_R} = 30$ min -->
    <g transform="translate(248.072727 46.145455) scale(0.08 -0.08)">
     <defs>
      <path id="Carlito-33" d="M 297 0 
L 297 0 
z
M 1734 4153 
Q 1994 4153 2209 4078 
Q 2425 4003 2581 3865 
Q 2738 3728 2823 3534 
Q 2909 3341 2909 3103 
Q 2909 2906 2861 2753 
Q 2813 2600 2722 2484 
Q 2631 2369 2503 2289 
Q 2375 2209 2216 2159 
Q 2606 2053 2803 1804 
Q 3000 1556 3000 1181 
Q 3000 897 2894 670 
Q 2788 444 2605 284 
Q 2422 125 2178 40 
Q 1934 -44 1659 -44 
Q 1341 -44 1116 36 
Q 891 116 731 259 
Q 572 403 469 597 
Q 366 791 297 1022 
L 522 1119 
Q 613 1156 695 1140 
Q 778 1125 816 1047 
Q 853 966 908 855 
Q 963 744 1056 642 
Q 1150 541 1294 470 
Q 1438 400 1653 400 
Q 1859 400 2012 470 
Q 2166 541 2269 650 
Q 2372 759 2423 896 
Q 2475 1034 2475 1166 
Q 2475 1328 2434 1467 
Q 2394 1606 2281 1704 
Q 2169 1803 1970 1859 
Q 1772 1916 1459 1916 
L 1459 2294 
Q 1716 2297 1894 2351 
Q 2072 2406 2184 2500 
Q 2297 2594 2347 2725 
Q 2397 2856 2397 3013 
Q 2397 3188 2345 3317 
Q 2294 3447 2201 3534 
Q 2109 3622 1982 3664 
Q 1856 3706 1706 3706 
Q 1556 3706 1432 3661 
Q 1309 3616 1212 3536 
Q 1116 3456 1048 3345 
Q 981 3234 947 3103 
Q 922 2997 861 2964 
Q 800 2931 691 2947 
L 416 2991 
Q 456 3275 568 3492 
Q 681 3709 854 3856 
Q 1028 4003 1251 4078 
Q 1475 4153 1734 4153 
z
" transform="scale(0.015625)"/>
     </defs>
     <use xlink:href="#Carlito-Italic-3c3" transform="translate(0 0.309375)"/>
     <use xlink:href="#Carlito-Italic-52" transform="translate(53.173828 -14.015625) scale(0.7)"/>
     <use xlink:href="#Carlito-3d" transform="translate(135.756377 0.309375)"/>
     <use xlink:href="#Carlito-Italic-3c4" transform="translate(227.748301 0.309375)"/>
     <use xlink:href="#Carlito-Italic-52" transform="translate(266.469004 -14.015625) scale(0.7)"/>
     <use xlink:href="#Carlito-2f" transform="translate(333.23124 0.309375)"/>
     <use xlink:href="#Cmex10-70" transform="translate(371.854287 76.859375) scale(0.783336)"/>
     <use xlink:href="#Carlito-Italic-6e" transform="translate(462.682412 0.3125)"/>
     <use xlink:href="#Carlito-Italic-52" transform="translate(514.098428 -14.0125) scale(0.7)"/>
     <use xlink:href="#Carlito-3d" transform="translate(582.814053 0.309375)"/>
     <use xlink:href="#Carlito-33" transform="translate(648.439053 0.309375)"/>
     <use xlink:href="#Carlito-30" transform="translate(699.122646 0.309375)"/>
     <use xlink:href="#Carlito-20" transform="translate(749.80624 0.309375)"/>
     <use xlink:href="#Carlito-6d" transform="translate(772.413662 0.309375)"/>
     <use xlink:href="#Carlito-69" transform="translate(852.296475 0.309375)"/>
     <use xlink:href="#Carlito-6e" transform="translate(875.245693 0.309375)"/>
     <path d="M 450.182412 73.5 
L 450.182412 79.75 
L 566.99374 79.75 
L 566.99374 73.5 
L 450.182412 73.5 
z
"/>
    </g>
   </g>
   <g id="patch_21">
    <path d="M 299.127273 32.4 
Q 275.563636 32.4 252 32.4 
" style="fill: none; stroke: #000000; stroke-linecap: round"/>
    <path d="M 299.127273 34.9 
L 299.127273 34.9 
L 299.127273 29.9 
L 299.127273 29.9 
" style="fill: none; stroke: #000000; stroke-linecap: round"/>
    <path d="M 252 29.9 
L 252 29.9 
L 252 34.9 
L 252 34.9 
" style="fill: none; stroke: #000000; stroke-linecap: round"/>
   </g>
   <g id="patch_22">
    <path d="M 299.127273 32.4 
Q 287.345455 32.4 275.563636 32.4 
" style="fill: none; stroke: #000000; stroke-linecap: round"/>
    <path d="M 299.127273 33.65 
L 299.127273 33.65 
L 299.127273 31.15 
L 299.127273 31.15 
" style="fill: none; stroke: #000000; stroke-linecap: round"/>
    <path d="M 275.563636 31.15 
L 275.563636 31.15 
L 275.563636 33.65 
L 275.563636 33.65 
" style="fill: none; stroke: #000000; stroke-linecap: round"/>
   </g>
   <g id="patch_23">
    <path d="M 263.781818 40.418182 
Q 257.890909 37.554545 252 34.690909 
" style="fill: none; stroke-dasharray: 1,1.65; stroke-dashoffset: 0; stroke: #000000; stroke-linecap: round"/>
   </g>
   <g id="patch_24">
    <path d="M 263.781818 40.418182 
Q 269.672727 37.554545 275.563636 34.690909 
" style="fill: none; stroke-dasharray: 1,1.65; stroke-dashoffset: 0; stroke: #000000; stroke-linecap: round"/>
   </g>
  </g>
 </g>
 <defs>
  <clipPath id="pdca9b00880">
   <rect x="14.4" y="7.2" width="86.4" height="50.4"/>
  </clipPath>
  <clipPath id="p91a6013f79">
   <rect x="122.4" y="7.2" width="86.4" height="50.4"/>
  </clipPath>
  <clipPath id="p1854d61dfb">
   <rect x="230.4" y="7.2" width="86.4" height="50.4"/>
  </clipPath>
 </defs>
</svg>
