<?xml version="1.0" encoding="utf-8" standalone="no"?>
<!DOCTYPE svg PUBLIC "-//W3C//DTD SVG 1.1//EN"
  "http://www.w3.org/Graphics/SVG/1.1/DTD/svg11.dtd">
<svg xmlns:xlink="http://www.w3.org/1999/xlink" width="498.24pt" height="230.4pt" viewBox="0 0 498.24 230.4" xmlns="http://www.w3.org/2000/svg" version="1.1">
 <metadata>
  <rdf:RDF xmlns:dc="http://purl.org/dc/elements/1.1/" xmlns:cc="http://creativecommons.org/ns#" xmlns:rdf="http://www.w3.org/1999/02/22-rdf-syntax-ns#">
   <cc:Work>
    <dc:type rdf:resource="http://purl.org/dc/dcmitype/StillImage"/>
    <dc:date>2024-10-22T18:21:56.693318</dc:date>
    <dc:format>image/svg+xml</dc:format>
    <dc:creator>
     <cc:Agent>
      <dc:title>Matplotlib v3.7.1, https://matplotlib.org/</dc:title>
     </cc:Agent>
    </dc:creator>
   </cc:Work>
  </rdf:RDF>
 </metadata>
 <defs>
  <style type="text/css">*{stroke-linejoin: round; stroke-linecap: butt}</style>
 </defs>
 <g id="figure_1">
  <g id="patch_1">
   <path d="M 0 230.4 
L 498.24 230.4 
L 498.24 0 
L 0 0 
z
" style="fill: #ffffff"/>
  </g>
  <g id="axes_1">
   <g id="patch_2">
    <path d="M 43.2 86.4 
L 142.56 86.4 
L 142.56 7.2 
L 43.2 7.2 
z
" style="fill: #ffffff"/>
   </g>
   <g id="matplotlib.axis_1">
    <g id="xtick_1">
     <g id="line2d_1">
      <defs>
       <path id="m876601c85d" d="M 0 0 
L 0 3.5 
" style="stroke: #000000; stroke-width: 0.8"/>
      </defs>
      <g>
       <use xlink:href="#m876601c85d" x="51.931636" y="86.4" style="stroke: #000000; stroke-width: 0.8"/>
      </g>
     </g>
     <g id="text_1">
      <text style="font: 8px 'Carlito', sans-serif; text-anchor: middle" x="51.931636" y="98.955" transform="rotate(-0 51.931636 98.955)">0.8</text>
     </g>
    </g>
    <g id="xtick_2">
     <g id="line2d_2">
      <g>
       <use xlink:href="#m876601c85d" x="79.330909" y="86.4" style="stroke: #000000; stroke-width: 0.8"/>
      </g>
     </g>
     <g id="text_2">
      <text style="font: 8px 'Carlito', sans-serif; text-anchor: middle" x="79.330909" y="98.955" transform="rotate(-0 79.330909 98.955)">1.0</text>
     </g>
    </g>
    <g id="xtick_3">
     <g id="line2d_3">
      <g>
       <use xlink:href="#m876601c85d" x="106.730182" y="86.4" style="stroke: #000000; stroke-width: 0.8"/>
      </g>
     </g>
     <g id="text_3">
      <text style="font: 8px 'Carlito', sans-serif; text-anchor: middle" x="106.730182" y="98.955" transform="rotate(-0 106.730182 98.955)">1.2</text>
     </g>
    </g>
    <g id="xtick_4">
     <g id="line2d_4">
      <g>
       <use xlink:href="#m876601c85d" x="134.129455" y="86.4" style="stroke: #000000; stroke-width: 0.8"/>
      </g>
     </g>
     <g id="text_4">
      <text style="font: 8px 'Carlito', sans-serif; text-anchor: middle" x="134.129455" y="98.955" transform="rotate(-0 134.129455 98.955)">1.4</text>
     </g>
    </g>
    <g id="text_5">
     <!-- $\tau_{\mathrm {act}}$ [min] -->
     <g transform="translate(78.2 109.995)">
      <text>
       <tspan style="font: italic 8px 'Carlito'" x="0" y="-0.21875">τ</tspan>
       <tspan style="font: 5.6px 'Carlito'" x="3.097656 5.780078 8.148047" y="0.9296875">act</tspan>
       <tspan style="font: 8px 'Carlito'" x="10.215234 12.023828 14.476953 20.867578 22.703516 26.906641" y="-0.21875"> [min]</tspan>
      </text>
     </g>
    </g>
   </g>
   <g id="matplotlib.axis_2">
    <g id="ytick_1">
     <g id="line2d_5">
      <defs>
       <path id="m1530b265b4" d="M 0 0 
L -3.5 0 
" style="stroke: #000000; stroke-width: 0.8"/>
      </defs>
      <g>
       <use xlink:href="#m1530b265b4" x="43.2" y="65.657915" style="stroke: #000000; stroke-width: 0.8"/>
      </g>
     </g>
     <g id="text_6">
      <!-- $\mathdefault{10^{-5}}$ -->
      <g transform="translate(22.2 68.435415)">
       <text>
        <tspan style="font: 8px 'Carlito'" x="0 4.054688" y="-0.7218750000000007">10</tspan>
        <tspan style="font: 5.6px 'Carlito'" x="8.176367 10.96543" y="-3.4015625000000007">−5</tspan>
       </text>
      </g>
     </g>
    </g>
    <g id="ytick_2">
     <g id="line2d_6">
      <g>
       <use xlink:href="#m1530b265b4" x="43.2" y="26.096234" style="stroke: #000000; stroke-width: 0.8"/>
      </g>
     </g>
     <g id="text_7">
      <!-- $\mathdefault{10^{-3}}$ -->
      <g transform="translate(22.2 28.873734)">
       <text>
        <tspan style="font: 8px 'Carlito'" x="0 4.054688" y="-0.6890625000000004">10</tspan>
        <tspan style="font: 5.6px 'Carlito'" x="8.176367 10.96543" y="-3.3687500000000004">−3</tspan>
       </text>
      </g>
     </g>
    </g>
    <g id="text_8">
     <!-- minimal $\lambda_{tot}$ [cell layer$^{-1}$] -->
     <g transform="translate(16.84 86.88) rotate(-90)">
      <text>
       <tspan style="font: 8px 'Carlito'" x="0 6.390625 8.226562 12.429688 14.265625 20.65625 24.488281 26.324219 38.652734 40.461328 42.914453 46.297266 50.277734 52.113672 53.949609 55.758203 57.594141 61.426172 65.047266 69.027734 77.702539" y="-0.7109375">minimal  [cell layer]</tspan>
       <tspan style="font: italic 8px 'Carlito'" x="28.132812" y="-0.7109375">λ</tspan>
       <tspan style="font: italic 5.6px 'Carlito'" x="31.835938 33.711719 36.585547" y="0.4375">tot</tspan>
       <tspan style="font: 5.6px 'Carlito'" x="71.883789 74.672852" y="-3.390625">−1</tspan>
      </text>
     </g>
    </g>
   </g>
   <g id="line2d_7">
    <path d="M 138.043636 28.842468 
L 94.552727 40.132249 
L 79.330909 44.794148 
L 66.876694 48.576456 
L 47.716364 53.298919 
" clip-path="url(#pe39ae8d984)" style="fill: none; stroke: #000080; stroke-width: 1.5; stroke-linecap: square"/>
    <defs>
     <path id="m0d711f461e" d="M 0 1.5 
C 0.397805 1.5 0.77937 1.341951 1.06066 1.06066 
C 1.341951 0.77937 1.5 0.397805 1.5 0 
C 1.5 -0.397805 1.341951 -0.77937 1.06066 -1.06066 
C 0.77937 -1.341951 0.397805 -1.5 0 -1.5 
C -0.397805 -1.5 -0.77937 -1.341951 -1.06066 -1.06066 
C -1.341951 -0.77937 -1.5 -0.397805 -1.5 0 
C -1.5 0.397805 -1.341951 0.77937 -1.06066 1.06066 
C -0.77937 1.341951 -0.397805 1.5 0 1.5 
z
" style="stroke: #000080"/>
    </defs>
    <g clip-path="url(#pe39ae8d984)">
     <use xlink:href="#m0d711f461e" x="138.043636" y="28.842468" style="fill: #000080; stroke: #000080"/>
     <use xlink:href="#m0d711f461e" x="94.552727" y="40.132249" style="fill: #000080; stroke: #000080"/>
     <use xlink:href="#m0d711f461e" x="79.330909" y="44.794148" style="fill: #000080; stroke: #000080"/>
     <use xlink:href="#m0d711f461e" x="66.876694" y="48.576456" style="fill: #000080; stroke: #000080"/>
     <use xlink:href="#m0d711f461e" x="47.716364" y="53.298919" style="fill: #000080; stroke: #000080"/>
    </g>
   </g>
   <g id="line2d_8">
    <defs>
     <path id="m810c98adec" d="M 0 3 
C 0.795609 3 1.55874 2.683901 2.12132 2.12132 
C 2.683901 1.55874 3 0.795609 3 0 
C 3 -0.795609 2.683901 -1.55874 2.12132 -2.12132 
C 1.55874 -2.683901 0.795609 -3 0 -3 
C -0.795609 -3 -1.55874 -2.683901 -2.12132 -2.12132 
C -2.683901 -1.55874 -3 -0.795609 -3 0 
C -3 0.795609 -2.683901 1.55874 -2.12132 2.12132 
C -1.55874 2.683901 -0.795609 3 0 3 
z
" style="stroke: #000080"/>
    </defs>
    <g clip-path="url(#pe39ae8d984)">
     <use xlink:href="#m810c98adec" x="79.330909" y="44.794148" style="fill-opacity: 0; stroke: #000080"/>
    </g>
   </g>
   <g id="patch_3">
    <path d="M 43.2 86.4 
L 43.2 7.2 
" style="fill: none; stroke: #000000; stroke-width: 0.8; stroke-linejoin: miter; stroke-linecap: square"/>
   </g>
   <g id="patch_4">
    <path d="M 142.56 86.4 
L 142.56 7.2 
" style="fill: none; stroke: #000000; stroke-width: 0.8; stroke-linejoin: miter; stroke-linecap: square"/>
   </g>
   <g id="patch_5">
    <path d="M 43.2 86.4 
L 142.56 86.4 
" style="fill: none; stroke: #000000; stroke-width: 0.8; stroke-linejoin: miter; stroke-linecap: square"/>
   </g>
   <g id="patch_6">
    <path d="M 43.2 7.2 
L 142.56 7.2 
" style="fill: none; stroke: #000000; stroke-width: 0.8; stroke-linejoin: miter; stroke-linecap: square"/>
   </g>
  </g>
  <g id="axes_2">
   <g id="patch_7">
    <path d="M 156.96 86.4 
L 256.32 86.4 
L 256.32 7.2 
L 156.96 7.2 
z
" style="fill: #ffffff"/>
   </g>
   <g id="matplotlib.axis_3">
    <g id="xtick_5">
     <g id="line2d_9">
      <g>
       <use xlink:href="#m876601c85d" x="158.841818" y="86.4" style="stroke: #000000; stroke-width: 0.8"/>
      </g>
     </g>
     <g id="text_9">
      <text style="font: 8px 'Carlito', sans-serif; text-anchor: middle" x="158.841818" y="98.955" transform="rotate(-0 158.841818 98.955)">3</text>
     </g>
    </g>
    <g id="xtick_6">
     <g id="line2d_10">
      <g>
       <use xlink:href="#m876601c85d" x="193.090909" y="86.4" style="stroke: #000000; stroke-width: 0.8"/>
      </g>
     </g>
     <g id="text_10">
      <text style="font: 8px 'Carlito', sans-serif; text-anchor: middle" x="193.090909" y="98.955" transform="rotate(-0 193.090909 98.955)">4</text>
     </g>
    </g>
    <g id="xtick_7">
     <g id="line2d_11">
      <g>
       <use xlink:href="#m876601c85d" x="227.34" y="86.4" style="stroke: #000000; stroke-width: 0.8"/>
      </g>
     </g>
     <g id="text_11">
      <text style="font: 8px 'Carlito', sans-serif; text-anchor: middle" x="227.34" y="98.955" transform="rotate(-0 227.34 98.955)">5</text>
     </g>
    </g>
    <g id="text_12">
     <!-- $\tau_{\mathrm {E}}$ [min] -->
     <g transform="translate(194.04 109.995)">
      <text>
       <tspan style="font: italic 8px 'Carlito'" x="0" y="-0.21875">τ</tspan>
       <tspan style="font: 5.6px 'Carlito'" x="3.097656" y="0.9296875">E</tspan>
       <tspan style="font: 8px 'Carlito'" x="6.023438 7.832031 10.285156 16.675781 18.511719 22.714844" y="-0.21875"> [min]</tspan>
      </text>
     </g>
    </g>
   </g>
   <g id="matplotlib.axis_4">
    <g id="ytick_3">
     <g id="line2d_12">
      <g>
       <use xlink:href="#m1530b265b4" x="156.96" y="65.657915" style="stroke: #000000; stroke-width: 0.8"/>
      </g>
     </g>
    </g>
    <g id="ytick_4">
     <g id="line2d_13">
      <g>
       <use xlink:href="#m1530b265b4" x="156.96" y="26.096234" style="stroke: #000000; stroke-width: 0.8"/>
      </g>
     </g>
    </g>
   </g>
   <g id="line2d_14">
    <path d="M 251.803636 23.568379 
L 208.312727 38.003075 
L 193.090909 44.794148 
L 180.636694 51.527959 
L 161.476364 63.994828 
" clip-path="url(#pe5a249bb1f)" style="fill: none; stroke: #000080; stroke-width: 1.5; stroke-linecap: square"/>
    <g clip-path="url(#pe5a249bb1f)">
     <use xlink:href="#m0d711f461e" x="251.803636" y="23.568379" style="fill: #000080; stroke: #000080"/>
     <use xlink:href="#m0d711f461e" x="208.312727" y="38.003075" style="fill: #000080; stroke: #000080"/>
     <use xlink:href="#m0d711f461e" x="193.090909" y="44.794148" style="fill: #000080; stroke: #000080"/>
     <use xlink:href="#m0d711f461e" x="180.636694" y="51.527959" style="fill: #000080; stroke: #000080"/>
     <use xlink:href="#m0d711f461e" x="161.476364" y="63.994828" style="fill: #000080; stroke: #000080"/>
    </g>
   </g>
   <g id="line2d_15">
    <g clip-path="url(#pe5a249bb1f)">
     <use xlink:href="#m810c98adec" x="193.090909" y="44.794148" style="fill-opacity: 0; stroke: #000080"/>
    </g>
   </g>
   <g id="patch_8">
    <path d="M 156.96 86.4 
L 156.96 7.2 
" style="fill: none; stroke: #000000; stroke-width: 0.8; stroke-linejoin: miter; stroke-linecap: square"/>
   </g>
   <g id="patch_9">
    <path d="M 256.32 86.4 
L 256.32 7.2 
" style="fill: none; stroke: #000000; stroke-width: 0.8; stroke-linejoin: miter; stroke-linecap: square"/>
   </g>
   <g id="patch_10">
    <path d="M 156.96 86.4 
L 256.32 86.4 
" style="fill: none; stroke: #000000; stroke-width: 0.8; stroke-linejoin: miter; stroke-linecap: square"/>
   </g>
   <g id="patch_11">
    <path d="M 156.96 7.2 
L 256.32 7.2 
" style="fill: none; stroke: #000000; stroke-width: 0.8; stroke-linejoin: miter; stroke-linecap: square"/>
   </g>
  </g>
  <g id="axes_3">
   <g id="patch_12">
    <path d="M 270.72 86.4 
L 370.08 86.4 
L 370.08 7.2 
L 270.72 7.2 
z
" style="fill: #ffffff"/>
   </g>
   <g id="matplotlib.axis_5">
    <g id="xtick_8">
     <g id="line2d_16">
      <g>
       <use xlink:href="#m876601c85d" x="272.601818" y="86.4" style="stroke: #000000; stroke-width: 0.8"/>
      </g>
     </g>
     <g id="text_13">
      <text style="font: 8px 'Carlito', sans-serif; text-anchor: middle" x="272.601818" y="98.955" transform="rotate(-0 272.601818 98.955)">1.5</text>
     </g>
    </g>
    <g id="xtick_9">
     <g id="line2d_17">
      <g>
       <use xlink:href="#m876601c85d" x="306.850909" y="86.4" style="stroke: #000000; stroke-width: 0.8"/>
      </g>
     </g>
     <g id="text_14">
      <text style="font: 8px 'Carlito', sans-serif; text-anchor: middle" x="306.850909" y="98.955" transform="rotate(-0 306.850909 98.955)">2.0</text>
     </g>
    </g>
    <g id="xtick_10">
     <g id="line2d_18">
      <g>
       <use xlink:href="#m876601c85d" x="341.1" y="86.4" style="stroke: #000000; stroke-width: 0.8"/>
      </g>
     </g>
     <g id="text_15">
      <text style="font: 8px 'Carlito', sans-serif; text-anchor: middle" x="341.1" y="98.955" transform="rotate(-0 341.1 98.955)">2.5</text>
     </g>
    </g>
    <g id="text_16">
     <!-- $\tau_{\mathrm {I}}$ [min] -->
     <g transform="translate(308.44 109.995)">
      <text>
       <tspan style="font: italic 8px 'Carlito'" x="0" y="-0.21875">τ</tspan>
       <tspan style="font: 5.6px 'Carlito'" x="3.097656" y="0.9296875">I</tspan>
       <tspan style="font: 8px 'Carlito'" x="4.7 6.508594 8.961719 15.352344 17.188281 21.391406" y="-0.21875"> [min]</tspan>
      </text>
     </g>
    </g>
   </g>
   <g id="matplotlib.axis_6">
    <g id="ytick_5">
     <g id="line2d_19">
      <g>
       <use xlink:href="#m1530b265b4" x="270.72" y="65.657915" style="stroke: #000000; stroke-width: 0.8"/>
      </g>
     </g>
    </g>
    <g id="ytick_6">
     <g id="line2d_20">
      <g>
       <use xlink:href="#m1530b265b4" x="270.72" y="26.096234" style="stroke: #000000; stroke-width: 0.8"/>
      </g>
     </g>
    </g>
   </g>
   <g id="line2d_21">
    <path d="M 365.563636 47.764176 
L 322.072727 47.010559 
L 306.850909 44.794148 
L 294.396694 41.730299 
L 275.236364 35.627859 
" clip-path="url(#p16ecec44cb)" style="fill: none; stroke: #000080; stroke-width: 1.5; stroke-linecap: square"/>
    <g clip-path="url(#p16ecec44cb)">
     <use xlink:href="#m0d711f461e" x="365.563636" y="47.764176" style="fill: #000080; stroke: #000080"/>
     <use xlink:href="#m0d711f461e" x="322.072727" y="47.010559" style="fill: #000080; stroke: #000080"/>
     <use xlink:href="#m0d711f461e" x="306.850909" y="44.794148" style="fill: #000080; stroke: #000080"/>
     <use xlink:href="#m0d711f461e" x="294.396694" y="41.730299" style="fill: #000080; stroke: #000080"/>
     <use xlink:href="#m0d711f461e" x="275.236364" y="35.627859" style="fill: #000080; stroke: #000080"/>
    </g>
   </g>
   <g id="line2d_22">
    <g clip-path="url(#p16ecec44cb)">
     <use xlink:href="#m810c98adec" x="306.850909" y="44.794148" style="fill-opacity: 0; stroke: #000080"/>
    </g>
   </g>
   <g id="patch_13">
    <path d="M 270.72 86.4 
L 270.72 7.2 
" style="fill: none; stroke: #000000; stroke-width: 0.8; stroke-linejoin: miter; stroke-linecap: square"/>
   </g>
   <g id="patch_14">
    <path d="M 370.08 86.4 
L 370.08 7.2 
" style="fill: none; stroke: #000000; stroke-width: 0.8; stroke-linejoin: miter; stroke-linecap: square"/>
   </g>
   <g id="patch_15">
    <path d="M 270.72 86.4 
L 370.08 86.4 
" style="fill: none; stroke: #000000; stroke-width: 0.8; stroke-linejoin: miter; stroke-linecap: square"/>
   </g>
   <g id="patch_16">
    <path d="M 270.72 7.2 
L 370.08 7.2 
" style="fill: none; stroke: #000000; stroke-width: 0.8; stroke-linejoin: miter; stroke-linecap: square"/>
   </g>
  </g>
  <g id="axes_4">
   <g id="patch_17">
    <path d="M 384.48 86.4 
L 483.84 86.4 
L 483.84 7.2 
L 384.48 7.2 
z
" style="fill: #ffffff"/>
   </g>
   <g id="matplotlib.axis_7">
    <g id="xtick_11">
     <g id="line2d_23">
      <g>
       <use xlink:href="#m876601c85d" x="417.582568" y="86.4" style="stroke: #000000; stroke-width: 0.8"/>
      </g>
     </g>
     <g id="text_17">
      <text style="font: 8px 'Carlito', sans-serif; text-anchor: middle" x="417.582568" y="98.955" transform="rotate(-0 417.582568 98.955)">60</text>
     </g>
    </g>
    <g id="xtick_12">
     <g id="line2d_24">
      <g>
       <use xlink:href="#m876601c85d" x="458.805083" y="86.4" style="stroke: #000000; stroke-width: 0.8"/>
      </g>
     </g>
     <g id="text_18">
      <text style="font: 8px 'Carlito', sans-serif; text-anchor: middle" x="458.805083" y="98.955" transform="rotate(-0 458.805083 98.955)">80</text>
     </g>
    </g>
    <g id="text_19">
     <!-- $\tau_{\mathrm {R}}$ [min] -->
     <g transform="translate(421.4 109.995)">
      <text>
       <tspan style="font: italic 8px 'Carlito'" x="0" y="-0.21875">τ</tspan>
       <tspan style="font: 5.6px 'Carlito'" x="3.097656" y="0.9296875">R</tspan>
       <tspan style="font: 8px 'Carlito'" x="6.329688 8.138281 10.591406 16.982031 18.817969 23.021094" y="-0.21875"> [min]</tspan>
      </text>
     </g>
    </g>
   </g>
   <g id="matplotlib.axis_8">
    <g id="ytick_7">
     <g id="line2d_25">
      <g>
       <use xlink:href="#m1530b265b4" x="384.48" y="65.657915" style="stroke: #000000; stroke-width: 0.8"/>
      </g>
     </g>
    </g>
    <g id="ytick_8">
     <g id="line2d_26">
      <g>
       <use xlink:href="#m1530b265b4" x="384.48" y="26.096234" style="stroke: #000000; stroke-width: 0.8"/>
      </g>
     </g>
    </g>
   </g>
   <g id="line2d_27">
    <path d="M 479.323636 82.8 
L 431.254737 53.74185 
L 417.520766 44.794148 
L 406.28388 37.473851 
L 388.996364 26.587625 
" clip-path="url(#pb51e753ab3)" style="fill: none; stroke: #000080; stroke-width: 1.5; stroke-linecap: square"/>
    <g clip-path="url(#pb51e753ab3)">
     <use xlink:href="#m0d711f461e" x="479.323636" y="82.8" style="fill: #000080; stroke: #000080"/>
     <use xlink:href="#m0d711f461e" x="431.254737" y="53.74185" style="fill: #000080; stroke: #000080"/>
     <use xlink:href="#m0d711f461e" x="417.520766" y="44.794148" style="fill: #000080; stroke: #000080"/>
     <use xlink:href="#m0d711f461e" x="406.28388" y="37.473851" style="fill: #000080; stroke: #000080"/>
     <use xlink:href="#m0d711f461e" x="388.996364" y="26.587625" style="fill: #000080; stroke: #000080"/>
    </g>
   </g>
   <g id="line2d_28">
    <g clip-path="url(#pb51e753ab3)">
     <use xlink:href="#m810c98adec" x="417.520766" y="44.794148" style="fill-opacity: 0; stroke: #000080"/>
    </g>
   </g>
   <g id="patch_18">
    <path d="M 384.48 86.4 
L 384.48 7.2 
" style="fill: none; stroke: #000000; stroke-width: 0.8; stroke-linejoin: miter; stroke-linecap: square"/>
   </g>
   <g id="patch_19">
    <path d="M 483.84 86.4 
L 483.84 7.2 
" style="fill: none; stroke: #000000; stroke-width: 0.8; stroke-linejoin: miter; stroke-linecap: square"/>
   </g>
   <g id="patch_20">
    <path d="M 384.48 86.4 
L 483.84 86.4 
" style="fill: none; stroke: #000000; stroke-width: 0.8; stroke-linejoin: miter; stroke-linecap: square"/>
   </g>
   <g id="patch_21">
    <path d="M 384.48 7.2 
L 483.84 7.2 
" style="fill: none; stroke: #000000; stroke-width: 0.8; stroke-linejoin: miter; stroke-linecap: square"/>
   </g>
  </g>
  <g id="axes_5">
   <g id="patch_22">
    <path d="M 43.2 194.4 
L 142.56 194.4 
L 142.56 115.2 
L 43.2 115.2 
z
" style="fill: #ffffff"/>
   </g>
   <g id="matplotlib.axis_9">
    <g id="text_20">
     <!-- channel width $\rightarrow$ -->
     <g transform="translate(64.04 159.955)">
      <text>
       <tspan style="font: 8px 'Carlito'" x="0 3.382812 7.585938 11.417969 15.621094 19.824219 23.804688 25.640625 27.449219 33.167969 35.003906 39.207031 41.886719 46.089844 49.164062" y="-0.4375">channel width →</tspan>
      </text>
     </g>
    </g>
   </g>
   <g id="matplotlib.axis_10">
    <g id="ytick_9">
     <g id="line2d_29">
      <g>
       <use xlink:href="#m1530b265b4" x="54.24" y="140.452893" style="stroke: #000000; stroke-width: 0.8"/>
      </g>
     </g>
     <g id="text_21">
      <!-- min. $\lambda_{tot}$ -->
      <g transform="translate(20.44 143.230393)">
       <text>
        <tspan style="font: 8px 'Carlito'" x="0 6.390625 8.226562 12.429688 14.449219" y="-0.5">min. </tspan>
        <tspan style="font: italic 8px 'Carlito'" x="16.257812" y="-0.5">λ</tspan>
        <tspan style="font: italic 5.6px 'Carlito'" x="19.960938 21.836719 24.710547" y="0.6484375">tot</tspan>
       </text>
      </g>
     </g>
    </g>
    <g id="text_22">
     <!-- propensity $\rightarrow$ -->
     <g transform="translate(15.08 161.68) rotate(-90)">
      <text>
       <tspan style="font: 8px 'Carlito'" x="0 4.203125 6.992188 11.210938 15.414062 19.394531 23.597656 26.726562 28.5625 31.242188 34.863281 37.9375" y="-0.5">propensity →</tspan>
      </text>
     </g>
    </g>
   </g>
   <g id="line2d_30">
    <path d="M 70.064 123.534877 
L 70.616 130.032639 
L 71.168 134.958814 
L 71.72 138.693513 
L 72.272 141.524916 
L 72.824 143.671498 
L 73.376 145.298894 
L 73.928 146.532679 
L 74.48 147.468053 
L 75.032 148.177191 
L 75.584 148.714813 
L 76.136 149.122403 
L 76.688 149.43141 
L 77.24 149.665679 
L 77.792 149.843287 
L 78.344 149.977937 
L 78.896 150.08002 
L 79.448 150.157412 
L 80 150.216086 
L 80.552 150.260568 
L 81.104 150.294292 
L 81.656 150.319859 
L 82.208 150.339243 
L 82.76 150.353938 
L 83.312 150.365079 
L 83.864 150.373525 
L 84.416 150.379928 
L 84.968 150.384783 
L 85.52 150.388463 
L 86.072 150.391254 
L 86.624 150.393369 
L 87.176 150.394973 
L 87.728 150.396189 
L 88.28 150.397111 
L 88.832 150.397809 
L 89.384 150.398339 
L 89.936 150.398741 
L 90.488 150.399045 
L 91.04 150.399276 
L 91.592 150.399451 
L 92.144 150.399584 
L 92.696 150.399685 
L 93.248 150.399761 
L 93.8 150.399819 
L 94.352 150.399863 
L 94.904 150.399896 
L 95.456 150.399921 
L 96.008 150.39994 
L 96.56 150.399955 
L 97.112 150.399966 
L 97.664 150.399974 
L 98.216 150.39998 
L 98.768 150.399985 
L 99.32 150.399989 
L 99.872 150.399991 
L 100.424 150.399993 
L 100.976 150.399995 
L 101.528 150.399996 
L 102.08 150.399997 
L 102.632 150.399998 
L 103.184 150.399998 
L 103.736 150.399999 
L 104.288 150.399999 
L 104.84 150.399999 
L 105.392 150.399999 
L 105.944 150.4 
L 106.496 150.4 
L 107.048 150.4 
L 107.6 150.4 
L 108.152 150.4 
L 108.704 150.4 
L 109.256 150.4 
L 109.808 150.4 
L 110.36 150.4 
L 110.912 150.4 
L 111.464 150.4 
L 112.016 150.4 
L 112.568 150.4 
L 113.12 150.4 
" clip-path="url(#pd6e222c4c1)" style="fill: none; stroke: #808000; stroke-opacity: 0.3; stroke-width: 1.5; stroke-linecap: square"/>
   </g>
   <g id="line2d_31">
    <path d="M 57.92 149.804106 
L 58.472 149.557463 
L 59.024 149.310821 
L 59.576 149.064179 
L 60.128 148.817536 
L 60.68 148.570894 
L 61.232 148.324252 
L 61.784 148.07761 
L 62.336 147.830967 
L 62.888 147.584325 
L 63.44 147.337683 
L 63.992 147.09104 
L 64.544 146.844398 
L 65.096 146.597756 
L 65.648 146.351113 
L 66.2 146.104471 
L 66.752 145.857829 
L 67.304 145.611186 
L 67.856 145.364544 
L 68.408 145.117902 
L 68.96 144.871259 
L 69.512 144.624617 
L 70.064 144.377975 
L 70.616 144.131332 
L 71.168 143.88469 
L 71.72 143.638048 
L 72.272 143.391405 
L 72.824 143.144763 
L 73.376 142.898121 
L 73.928 142.651478 
L 74.48 142.404836 
L 75.032 142.158194 
L 75.584 141.911551 
L 76.136 141.664909 
L 76.688 141.418267 
L 77.24 141.171625 
L 77.792 140.924982 
L 78.344 140.67834 
L 78.896 140.431698 
L 79.448 140.185055 
L 80 139.938413 
L 80.552 139.691771 
L 81.104 139.445128 
L 81.656 139.198486 
L 82.208 138.951844 
L 82.76 138.705201 
L 83.312 138.458559 
L 83.864 138.211917 
L 84.416 137.965274 
L 84.968 137.718632 
L 85.52 137.47199 
L 86.072 137.225347 
L 86.624 136.978705 
L 87.176 136.732063 
L 87.728 136.48542 
L 88.28 136.238778 
L 88.832 135.992136 
L 89.384 135.745493 
L 89.936 135.498851 
L 90.488 135.252209 
L 91.04 135.005566 
L 91.592 134.758924 
L 92.144 134.512282 
L 92.696 134.26564 
L 93.248 134.018997 
L 93.8 133.772355 
L 94.352 133.525713 
L 94.904 133.27907 
L 95.456 133.032428 
L 96.008 132.785786 
L 96.56 132.539143 
L 97.112 132.292501 
L 97.664 132.045859 
L 98.216 131.799216 
L 98.768 131.552574 
L 99.32 131.305932 
L 99.872 131.059289 
L 100.424 130.812647 
L 100.976 130.566005 
L 101.528 130.319362 
L 102.08 130.07272 
L 102.632 129.826078 
L 103.184 129.579435 
L 103.736 129.332793 
L 104.288 129.086151 
L 104.84 128.839508 
L 105.392 128.592866 
L 105.944 128.346224 
L 106.496 128.099581 
L 107.048 127.852939 
L 107.6 127.606297 
L 108.152 127.359655 
L 108.704 127.113012 
L 109.256 126.86637 
L 109.808 126.619728 
L 110.36 126.373085 
L 110.912 126.126443 
L 111.464 125.879801 
L 112.016 125.633158 
L 112.568 125.386516 
L 113.12 125.139874 
" clip-path="url(#pd6e222c4c1)" style="fill: none; stroke: #800000; stroke-opacity: 0.4; stroke-width: 1.5; stroke-linecap: square"/>
   </g>
   <g id="line2d_32">
    <path d="M 70.064 117.512851 
L 70.616 123.763972 
L 71.168 128.443504 
L 71.72 131.931561 
L 72.272 134.516321 
L 72.824 136.416261 
L 73.376 137.797015 
L 73.928 138.784157 
L 74.48 139.472889 
L 75.032 139.935385 
L 75.584 140.226365 
L 76.136 140.387312 
L 76.688 140.449677 
L 77.24 140.437304 
L 77.792 140.368269 
L 78.344 140.256277 
L 78.896 140.111717 
L 79.448 139.942467 
L 80 139.754499 
L 80.552 139.552339 
L 81.104 139.33942 
L 81.656 139.118345 
L 82.208 138.891086 
L 82.76 138.659139 
L 83.312 138.423638 
L 83.864 138.185442 
L 84.416 137.945203 
L 84.968 137.703415 
L 85.52 137.460453 
L 86.072 137.216601 
L 86.624 136.972074 
L 87.176 136.727036 
L 87.728 136.481609 
L 88.28 136.235889 
L 88.832 135.989945 
L 89.384 135.743833 
L 89.936 135.497592 
L 90.488 135.251254 
L 91.04 135.004843 
L 91.592 134.758376 
L 92.144 134.511866 
L 92.696 134.265324 
L 93.248 134.018758 
L 93.8 133.772174 
L 94.352 133.525575 
L 94.904 133.278966 
L 95.456 133.032349 
L 96.008 132.785726 
L 96.56 132.539098 
L 97.112 132.292467 
L 97.664 132.045833 
L 98.216 131.799197 
L 98.768 131.552559 
L 99.32 131.30592 
L 99.872 131.059281 
L 100.424 130.81264 
L 100.976 130.566 
L 101.528 130.319359 
L 102.08 130.072717 
L 102.632 129.826076 
L 103.184 129.579434 
L 103.736 129.332792 
L 104.288 129.08615 
L 104.84 128.839508 
L 105.392 128.592866 
L 105.944 128.346223 
L 106.496 128.099581 
L 107.048 127.852939 
L 107.6 127.606297 
L 108.152 127.359654 
L 108.704 127.113012 
L 109.256 126.86637 
L 109.808 126.619728 
L 110.36 126.373085 
L 110.912 126.126443 
L 111.464 125.879801 
L 112.016 125.633158 
L 112.568 125.386516 
L 113.12 125.139874 
" clip-path="url(#pd6e222c4c1)" style="fill: none; stroke: #000080; stroke-opacity: 0.4; stroke-width: 1.5; stroke-linecap: square"/>
   </g>
   <g id="line2d_33">
    <path d="M 57.92 140.452893 
L 76.85503 140.452893 
" clip-path="url(#pd6e222c4c1)" style="fill: none; stroke-dasharray: 1.5,2.475; stroke-dashoffset: 0; stroke: #000080; stroke-width: 1.5"/>
   </g>
  </g>
  <g id="axes_6">
   <g id="patch_23">
    <path d="M 156.96 194.4 
L 256.32 194.4 
L 256.32 115.2 
L 156.96 115.2 
z
" style="fill: #ffffff"/>
   </g>
   <g id="matplotlib.axis_11">
    <g id="xtick_13">
     <g id="line2d_34">
      <g>
       <use xlink:href="#m876601c85d" x="171.512727" y="194.4" style="stroke: #000000; stroke-width: 0.8"/>
      </g>
     </g>
     <g id="text_23">
      <text style="font: 8px 'Carlito', sans-serif; text-anchor: middle" x="171.512727" y="206.955" transform="rotate(-0 171.512727 206.955)">2</text>
     </g>
    </g>
    <g id="xtick_14">
     <g id="line2d_35">
      <g>
       <use xlink:href="#m876601c85d" x="191.585455" y="194.4" style="stroke: #000000; stroke-width: 0.8"/>
      </g>
     </g>
     <g id="text_24">
      <text style="font: 8px 'Carlito', sans-serif; text-anchor: middle" x="191.585455" y="206.955" transform="rotate(-0 191.585455 206.955)">4</text>
     </g>
    </g>
    <g id="xtick_15">
     <g id="line2d_36">
      <g>
       <use xlink:href="#m876601c85d" x="211.658182" y="194.4" style="stroke: #000000; stroke-width: 0.8"/>
      </g>
     </g>
     <g id="text_25">
      <text style="font: 8px 'Carlito', sans-serif; text-anchor: middle" x="211.658182" y="206.955" transform="rotate(-0 211.658182 206.955)">6</text>
     </g>
    </g>
    <g id="xtick_16">
     <g id="line2d_37">
      <g>
       <use xlink:href="#m876601c85d" x="231.730909" y="194.4" style="stroke: #000000; stroke-width: 0.8"/>
      </g>
     </g>
     <g id="text_26">
      <text style="font: 8px 'Carlito', sans-serif; text-anchor: middle" x="231.730909" y="206.955" transform="rotate(-0 231.730909 206.955)">8</text>
     </g>
    </g>
    <g id="xtick_17">
     <g id="line2d_38">
      <g>
       <use xlink:href="#m876601c85d" x="251.803636" y="194.4" style="stroke: #000000; stroke-width: 0.8"/>
      </g>
     </g>
     <g id="text_27">
      <text style="font: 8px 'Carlito', sans-serif; text-anchor: middle" x="251.803636" y="206.955" transform="rotate(-0 251.803636 206.955)">10</text>
     </g>
    </g>
    <g id="xtick_18">
     <g id="line2d_39">
      <defs>
       <path id="m5736a39d1c" d="M 0 0 
L 0 2 
" style="stroke: #000000; stroke-width: 0.6"/>
      </defs>
      <g>
       <use xlink:href="#m5736a39d1c" x="161.476364" y="194.4" style="stroke: #000000; stroke-width: 0.6"/>
      </g>
     </g>
    </g>
    <g id="xtick_19">
     <g id="line2d_40">
      <g>
       <use xlink:href="#m5736a39d1c" x="181.549091" y="194.4" style="stroke: #000000; stroke-width: 0.6"/>
      </g>
     </g>
    </g>
    <g id="xtick_20">
     <g id="line2d_41">
      <g>
       <use xlink:href="#m5736a39d1c" x="201.621818" y="194.4" style="stroke: #000000; stroke-width: 0.6"/>
      </g>
     </g>
    </g>
    <g id="xtick_21">
     <g id="line2d_42">
      <g>
       <use xlink:href="#m5736a39d1c" x="221.694545" y="194.4" style="stroke: #000000; stroke-width: 0.6"/>
      </g>
     </g>
    </g>
    <g id="xtick_22">
     <g id="line2d_43">
      <g>
       <use xlink:href="#m5736a39d1c" x="241.767273" y="194.4" style="stroke: #000000; stroke-width: 0.6"/>
      </g>
     </g>
    </g>
    <g id="text_28">
     <!-- $n_{\mathrm {E}}$ -->
     <g transform="translate(203.12 217.79875)">
      <text>
       <tspan style="font: italic 8px 'Carlito'" x="0" y="-0.125">n</tspan>
       <tspan style="font: 5.6px 'Carlito'" x="4.113281" y="1.0234375">E</tspan>
      </text>
     </g>
    </g>
   </g>
   <g id="matplotlib.axis_12">
    <g id="ytick_10">
     <g id="line2d_44">
      <g>
       <use xlink:href="#m1530b265b4" x="156.96" y="173.657915" style="stroke: #000000; stroke-width: 0.8"/>
      </g>
     </g>
     <g id="text_29">
      <!-- $\mathdefault{10^{-5}}$ -->
      <g transform="translate(135.96 176.435415)">
       <text>
        <tspan style="font: 8px 'Carlito'" x="0 4.054688" y="-0.7218750000000007">10</tspan>
        <tspan style="font: 5.6px 'Carlito'" x="8.176367 10.96543" y="-3.4015625000000007">−5</tspan>
       </text>
      </g>
     </g>
    </g>
    <g id="ytick_11">
     <g id="line2d_45">
      <g>
       <use xlink:href="#m1530b265b4" x="156.96" y="134.096234" style="stroke: #000000; stroke-width: 0.8"/>
      </g>
     </g>
     <g id="text_30">
      <!-- $\mathdefault{10^{-3}}$ -->
      <g transform="translate(135.96 136.873734)">
       <text>
        <tspan style="font: 8px 'Carlito'" x="0 4.054688" y="-0.6890625000000004">10</tspan>
        <tspan style="font: 5.6px 'Carlito'" x="8.176367 10.96543" y="-3.3687500000000004">−3</tspan>
       </text>
      </g>
     </g>
    </g>
    <g id="text_31">
     <!-- minimal $\lambda_{tot}$ [cell layer$^{-1}$] -->
     <g transform="translate(130.6 194.88) rotate(-90)">
      <text>
       <tspan style="font: 8px 'Carlito'" x="0 6.390625 8.226562 12.429688 14.265625 20.65625 24.488281 26.324219 38.652734 40.461328 42.914453 46.297266 50.277734 52.113672 53.949609 55.758203 57.594141 61.426172 65.047266 69.027734 77.702539" y="-0.7109375">minimal  [cell layer]</tspan>
       <tspan style="font: italic 8px 'Carlito'" x="28.132812" y="-0.7109375">λ</tspan>
       <tspan style="font: italic 5.6px 'Carlito'" x="31.835938 33.711719 36.585547" y="0.4375">tot</tspan>
       <tspan style="font: 5.6px 'Carlito'" x="71.883789 74.672852" y="-3.390625">−1</tspan>
      </text>
     </g>
    </g>
   </g>
   <g id="line2d_46">
    <path d="M 161.476364 135.352554 
L 171.512727 147.96706 
L 191.585455 153.470411 
L 211.658182 154.583857 
L 251.803636 155.331631 
" clip-path="url(#pff5eded912)" style="fill: none; stroke: #000080; stroke-width: 1.5; stroke-linecap: square"/>
    <g clip-path="url(#pff5eded912)">
     <use xlink:href="#m0d711f461e" x="161.476364" y="135.352554" style="fill: #000080; stroke: #000080"/>
     <use xlink:href="#m0d711f461e" x="171.512727" y="147.96706" style="fill: #000080; stroke: #000080"/>
     <use xlink:href="#m0d711f461e" x="191.585455" y="153.470411" style="fill: #000080; stroke: #000080"/>
     <use xlink:href="#m0d711f461e" x="211.658182" y="154.583857" style="fill: #000080; stroke: #000080"/>
     <use xlink:href="#m0d711f461e" x="251.803636" y="155.331631" style="fill: #000080; stroke: #000080"/>
    </g>
   </g>
   <g id="line2d_47">
    <g clip-path="url(#pff5eded912)">
     <use xlink:href="#m810c98adec" x="191.585455" y="153.470411" style="fill-opacity: 0; stroke: #000080"/>
    </g>
   </g>
   <g id="patch_24">
    <path d="M 156.96 194.4 
L 156.96 115.2 
" style="fill: none; stroke: #000000; stroke-width: 0.8; stroke-linejoin: miter; stroke-linecap: square"/>
   </g>
   <g id="patch_25">
    <path d="M 256.32 194.4 
L 256.32 115.2 
" style="fill: none; stroke: #000000; stroke-width: 0.8; stroke-linejoin: miter; stroke-linecap: square"/>
   </g>
   <g id="patch_26">
    <path d="M 156.96 194.4 
L 256.32 194.4 
" style="fill: none; stroke: #000000; stroke-width: 0.8; stroke-linejoin: miter; stroke-linecap: square"/>
   </g>
   <g id="patch_27">
    <path d="M 156.96 115.2 
L 256.32 115.2 
" style="fill: none; stroke: #000000; stroke-width: 0.8; stroke-linejoin: miter; stroke-linecap: square"/>
   </g>
  </g>
  <g id="axes_7">
   <g id="patch_28">
    <path d="M 270.72 194.4 
L 370.08 194.4 
L 370.08 115.2 
L 270.72 115.2 
z
" style="fill: #ffffff"/>
   </g>
   <g id="matplotlib.axis_13">
    <g id="xtick_23">
     <g id="line2d_48">
      <g>
       <use xlink:href="#m876601c85d" x="285.272727" y="194.4" style="stroke: #000000; stroke-width: 0.8"/>
      </g>
     </g>
     <g id="text_32">
      <text style="font: 8px 'Carlito', sans-serif; text-anchor: middle" x="285.272727" y="206.955" transform="rotate(-0 285.272727 206.955)">2</text>
     </g>
    </g>
    <g id="xtick_24">
     <g id="line2d_49">
      <g>
       <use xlink:href="#m876601c85d" x="305.345455" y="194.4" style="stroke: #000000; stroke-width: 0.8"/>
      </g>
     </g>
     <g id="text_33">
      <text style="font: 8px 'Carlito', sans-serif; text-anchor: middle" x="305.345455" y="206.955" transform="rotate(-0 305.345455 206.955)">4</text>
     </g>
    </g>
    <g id="xtick_25">
     <g id="line2d_50">
      <g>
       <use xlink:href="#m876601c85d" x="325.418182" y="194.4" style="stroke: #000000; stroke-width: 0.8"/>
      </g>
     </g>
     <g id="text_34">
      <text style="font: 8px 'Carlito', sans-serif; text-anchor: middle" x="325.418182" y="206.955" transform="rotate(-0 325.418182 206.955)">6</text>
     </g>
    </g>
    <g id="xtick_26">
     <g id="line2d_51">
      <g>
       <use xlink:href="#m876601c85d" x="345.490909" y="194.4" style="stroke: #000000; stroke-width: 0.8"/>
      </g>
     </g>
     <g id="text_35">
      <text style="font: 8px 'Carlito', sans-serif; text-anchor: middle" x="345.490909" y="206.955" transform="rotate(-0 345.490909 206.955)">8</text>
     </g>
    </g>
    <g id="xtick_27">
     <g id="line2d_52">
      <g>
       <use xlink:href="#m876601c85d" x="365.563636" y="194.4" style="stroke: #000000; stroke-width: 0.8"/>
      </g>
     </g>
     <g id="text_36">
      <text style="font: 8px 'Carlito', sans-serif; text-anchor: middle" x="365.563636" y="206.955" transform="rotate(-0 365.563636 206.955)">10</text>
     </g>
    </g>
    <g id="xtick_28">
     <g id="line2d_53">
      <g>
       <use xlink:href="#m5736a39d1c" x="275.236364" y="194.4" style="stroke: #000000; stroke-width: 0.6"/>
      </g>
     </g>
    </g>
    <g id="xtick_29">
     <g id="line2d_54">
      <g>
       <use xlink:href="#m5736a39d1c" x="295.309091" y="194.4" style="stroke: #000000; stroke-width: 0.6"/>
      </g>
     </g>
    </g>
    <g id="xtick_30">
     <g id="line2d_55">
      <g>
       <use xlink:href="#m5736a39d1c" x="315.381818" y="194.4" style="stroke: #000000; stroke-width: 0.6"/>
      </g>
     </g>
    </g>
    <g id="xtick_31">
     <g id="line2d_56">
      <g>
       <use xlink:href="#m5736a39d1c" x="335.454545" y="194.4" style="stroke: #000000; stroke-width: 0.6"/>
      </g>
     </g>
    </g>
    <g id="xtick_32">
     <g id="line2d_57">
      <g>
       <use xlink:href="#m5736a39d1c" x="355.527273" y="194.4" style="stroke: #000000; stroke-width: 0.6"/>
      </g>
     </g>
    </g>
    <g id="text_37">
     <!-- $n_{\mathrm {I}}$ -->
     <g transform="translate(317.52 217.79875)">
      <text>
       <tspan style="font: italic 8px 'Carlito'" x="0" y="-0.125">n</tspan>
       <tspan style="font: 5.6px 'Carlito'" x="4.113281" y="1.0234375">I</tspan>
      </text>
     </g>
    </g>
   </g>
   <g id="matplotlib.axis_14">
    <g id="ytick_12">
     <g id="line2d_58">
      <g>
       <use xlink:href="#m1530b265b4" x="270.72" y="173.657915" style="stroke: #000000; stroke-width: 0.8"/>
      </g>
     </g>
    </g>
    <g id="ytick_13">
     <g id="line2d_59">
      <g>
       <use xlink:href="#m1530b265b4" x="270.72" y="134.096234" style="stroke: #000000; stroke-width: 0.8"/>
      </g>
     </g>
    </g>
   </g>
   <g id="line2d_60">
    <path d="M 275.236364 134.607576 
L 285.272727 153.470411 
L 305.345455 164.452094 
L 325.418182 167.762292 
L 365.563636 171.184308 
" clip-path="url(#paabe2dcd80)" style="fill: none; stroke: #000080; stroke-width: 1.5; stroke-linecap: square"/>
    <g clip-path="url(#paabe2dcd80)">
     <use xlink:href="#m0d711f461e" x="275.236364" y="134.607576" style="fill: #000080; stroke: #000080"/>
     <use xlink:href="#m0d711f461e" x="285.272727" y="153.470411" style="fill: #000080; stroke: #000080"/>
     <use xlink:href="#m0d711f461e" x="305.345455" y="164.452094" style="fill: #000080; stroke: #000080"/>
     <use xlink:href="#m0d711f461e" x="325.418182" y="167.762292" style="fill: #000080; stroke: #000080"/>
     <use xlink:href="#m0d711f461e" x="365.563636" y="171.184308" style="fill: #000080; stroke: #000080"/>
    </g>
   </g>
   <g id="line2d_61">
    <g clip-path="url(#paabe2dcd80)">
     <use xlink:href="#m810c98adec" x="285.272727" y="153.470411" style="fill-opacity: 0; stroke: #000080"/>
    </g>
   </g>
   <g id="patch_29">
    <path d="M 270.72 194.4 
L 270.72 115.2 
" style="fill: none; stroke: #000000; stroke-width: 0.8; stroke-linejoin: miter; stroke-linecap: square"/>
   </g>
   <g id="patch_30">
    <path d="M 370.08 194.4 
L 370.08 115.2 
" style="fill: none; stroke: #000000; stroke-width: 0.8; stroke-linejoin: miter; stroke-linecap: square"/>
   </g>
   <g id="patch_31">
    <path d="M 270.72 194.4 
L 370.08 194.4 
" style="fill: none; stroke: #000000; stroke-width: 0.8; stroke-linejoin: miter; stroke-linecap: square"/>
   </g>
   <g id="patch_32">
    <path d="M 270.72 115.2 
L 370.08 115.2 
" style="fill: none; stroke: #000000; stroke-width: 0.8; stroke-linejoin: miter; stroke-linecap: square"/>
   </g>
  </g>
  <g id="axes_8">
   <g id="patch_33">
    <path d="M 384.48 194.4 
L 483.84 194.4 
L 483.84 115.2 
L 384.48 115.2 
z
" style="fill: #ffffff"/>
   </g>
   <g id="matplotlib.axis_15">
    <g id="xtick_33">
     <g id="line2d_62">
      <g>
       <use xlink:href="#m876601c85d" x="399.032727" y="194.4" style="stroke: #000000; stroke-width: 0.8"/>
      </g>
     </g>
     <g id="text_38">
      <text style="font: 8px 'Carlito', sans-serif; text-anchor: middle" x="399.032727" y="206.955" transform="rotate(-0 399.032727 206.955)">2</text>
     </g>
    </g>
    <g id="xtick_34">
     <g id="line2d_63">
      <g>
       <use xlink:href="#m876601c85d" x="419.105455" y="194.4" style="stroke: #000000; stroke-width: 0.8"/>
      </g>
     </g>
     <g id="text_39">
      <text style="font: 8px 'Carlito', sans-serif; text-anchor: middle" x="419.105455" y="206.955" transform="rotate(-0 419.105455 206.955)">4</text>
     </g>
    </g>
    <g id="xtick_35">
     <g id="line2d_64">
      <g>
       <use xlink:href="#m876601c85d" x="439.178182" y="194.4" style="stroke: #000000; stroke-width: 0.8"/>
      </g>
     </g>
     <g id="text_40">
      <text style="font: 8px 'Carlito', sans-serif; text-anchor: middle" x="439.178182" y="206.955" transform="rotate(-0 439.178182 206.955)">6</text>
     </g>
    </g>
    <g id="xtick_36">
     <g id="line2d_65">
      <g>
       <use xlink:href="#m876601c85d" x="459.250909" y="194.4" style="stroke: #000000; stroke-width: 0.8"/>
      </g>
     </g>
     <g id="text_41">
      <text style="font: 8px 'Carlito', sans-serif; text-anchor: middle" x="459.250909" y="206.955" transform="rotate(-0 459.250909 206.955)">8</text>
     </g>
    </g>
    <g id="xtick_37">
     <g id="line2d_66">
      <g>
       <use xlink:href="#m876601c85d" x="479.323636" y="194.4" style="stroke: #000000; stroke-width: 0.8"/>
      </g>
     </g>
     <g id="text_42">
      <text style="font: 8px 'Carlito', sans-serif; text-anchor: middle" x="479.323636" y="206.955" transform="rotate(-0 479.323636 206.955)">10</text>
     </g>
    </g>
    <g id="xtick_38">
     <g id="line2d_67">
      <g>
       <use xlink:href="#m5736a39d1c" x="388.996364" y="194.4" style="stroke: #000000; stroke-width: 0.6"/>
      </g>
     </g>
    </g>
    <g id="xtick_39">
     <g id="line2d_68">
      <g>
       <use xlink:href="#m5736a39d1c" x="409.069091" y="194.4" style="stroke: #000000; stroke-width: 0.6"/>
      </g>
     </g>
    </g>
    <g id="xtick_40">
     <g id="line2d_69">
      <g>
       <use xlink:href="#m5736a39d1c" x="429.141818" y="194.4" style="stroke: #000000; stroke-width: 0.6"/>
      </g>
     </g>
    </g>
    <g id="xtick_41">
     <g id="line2d_70">
      <g>
       <use xlink:href="#m5736a39d1c" x="449.214545" y="194.4" style="stroke: #000000; stroke-width: 0.6"/>
      </g>
     </g>
    </g>
    <g id="xtick_42">
     <g id="line2d_71">
      <g>
       <use xlink:href="#m5736a39d1c" x="469.287273" y="194.4" style="stroke: #000000; stroke-width: 0.6"/>
      </g>
     </g>
    </g>
    <g id="text_43">
     <!-- $n_{\mathrm {R}}$ -->
     <g transform="translate(430.48 217.79875)">
      <text>
       <tspan style="font: italic 8px 'Carlito'" x="0" y="-0.125">n</tspan>
       <tspan style="font: 5.6px 'Carlito'" x="4.113281" y="1.0234375">R</tspan>
      </text>
     </g>
    </g>
   </g>
   <g id="matplotlib.axis_16">
    <g id="ytick_14">
     <g id="line2d_72">
      <g>
       <use xlink:href="#m1530b265b4" x="384.48" y="173.657915" style="stroke: #000000; stroke-width: 0.8"/>
      </g>
     </g>
    </g>
    <g id="ytick_15">
     <g id="line2d_73">
      <g>
       <use xlink:href="#m1530b265b4" x="384.48" y="134.096234" style="stroke: #000000; stroke-width: 0.8"/>
      </g>
     </g>
    </g>
   </g>
   <g id="line2d_74">
    <path d="M 388.996364 118.8 
L 399.032727 133.216634 
L 419.105455 153.470411 
L 439.178182 163.302537 
L 479.323636 173.224531 
" clip-path="url(#p3cc70fb6e0)" style="fill: none; stroke: #000080; stroke-width: 1.5; stroke-linecap: square"/>
    <g clip-path="url(#p3cc70fb6e0)">
     <use xlink:href="#m0d711f461e" x="388.996364" y="118.8" style="fill: #000080; stroke: #000080"/>
     <use xlink:href="#m0d711f461e" x="399.032727" y="133.216634" style="fill: #000080; stroke: #000080"/>
     <use xlink:href="#m0d711f461e" x="419.105455" y="153.470411" style="fill: #000080; stroke: #000080"/>
     <use xlink:href="#m0d711f461e" x="439.178182" y="163.302537" style="fill: #000080; stroke: #000080"/>
     <use xlink:href="#m0d711f461e" x="479.323636" y="173.224531" style="fill: #000080; stroke: #000080"/>
    </g>
   </g>
   <g id="line2d_75">
    <g clip-path="url(#p3cc70fb6e0)">
     <use xlink:href="#m810c98adec" x="419.105455" y="153.470411" style="fill-opacity: 0; stroke: #000080"/>
    </g>
   </g>
   <g id="patch_34">
    <path d="M 384.48 194.4 
L 384.48 115.2 
" style="fill: none; stroke: #000000; stroke-width: 0.8; stroke-linejoin: miter; stroke-linecap: square"/>
   </g>
   <g id="patch_35">
    <path d="M 483.84 194.4 
L 483.84 115.2 
" style="fill: none; stroke: #000000; stroke-width: 0.8; stroke-linejoin: miter; stroke-linecap: square"/>
   </g>
   <g id="patch_36">
    <path d="M 384.48 194.4 
L 483.84 194.4 
" style="fill: none; stroke: #000000; stroke-width: 0.8; stroke-linejoin: miter; stroke-linecap: square"/>
   </g>
   <g id="patch_37">
    <path d="M 384.48 115.2 
L 483.84 115.2 
" style="fill: none; stroke: #000000; stroke-width: 0.8; stroke-linejoin: miter; stroke-linecap: square"/>
   </g>
  </g>
 </g>
 <defs>
  <clipPath id="pe39ae8d984">
   <rect x="43.2" y="7.2" width="99.36" height="79.2"/>
  </clipPath>
  <clipPath id="pe5a249bb1f">
   <rect x="156.96" y="7.2" width="99.36" height="79.2"/>
  </clipPath>
  <clipPath id="p16ecec44cb">
   <rect x="270.72" y="7.2" width="99.36" height="79.2"/>
  </clipPath>
  <clipPath id="pb51e753ab3">
   <rect x="384.48" y="7.2" width="99.36" height="79.2"/>
  </clipPath>
  <clipPath id="pd6e222c4c1">
   <rect x="43.2" y="115.2" width="99.36" height="79.2"/>
  </clipPath>
  <clipPath id="pff5eded912">
   <rect x="156.96" y="115.2" width="99.36" height="79.2"/>
  </clipPath>
  <clipPath id="paabe2dcd80">
   <rect x="270.72" y="115.2" width="99.36" height="79.2"/>
  </clipPath>
  <clipPath id="p3cc70fb6e0">
   <rect x="384.48" y="115.2" width="99.36" height="79.2"/>
  </clipPath>
 </defs>
</svg>
