<?xml version="1.0" encoding="utf-8" standalone="no"?>
<!DOCTYPE svg PUBLIC "-//W3C//DTD SVG 1.1//EN"
  "http://www.w3.org/Graphics/SVG/1.1/DTD/svg11.dtd">
<svg xmlns:xlink="http://www.w3.org/1999/xlink" width="226.771654pt" height="226.771654pt" viewBox="0 0 226.771654 226.771654" xmlns="http://www.w3.org/2000/svg" version="1.1">
 <metadata>
  <rdf:RDF xmlns:dc="http://purl.org/dc/elements/1.1/" xmlns:cc="http://creativecommons.org/ns#" xmlns:rdf="http://www.w3.org/1999/02/22-rdf-syntax-ns#">
   <cc:Work>
    <dc:type rdf:resource="http://purl.org/dc/dcmitype/StillImage"/>
    <dc:date>2023-12-15T07:14:46.823686</dc:date>
    <dc:format>image/svg+xml</dc:format>
    <dc:creator>
     <cc:Agent>
      <dc:title>Matplotlib v3.8.0, https://matplotlib.org/</dc:title>
     </cc:Agent>
    </dc:creator>
   </cc:Work>
  </rdf:RDF>
 </metadata>
 <defs>
  <style type="text/css">*{stroke-linejoin: round; stroke-linecap: butt}</style>
 </defs>
 <g id="figure_1">
  <g id="patch_1">
   <path d="M 0 226.771654 
L 226.771654 226.771654 
L 226.771654 0 
L 0 0 
z
" style="fill: #ffffff"/>
  </g>
  <g id="axes_1">
   <g id="patch_2">
    <path d="M 28.346457 201.826772 
L 204.094488 201.826772 
L 204.094488 27.212598 
L 28.346457 27.212598 
z
" style="fill: #ffffff"/>
   </g>
   <g id="matplotlib.axis_1">
    <g id="xtick_1">
     <g id="line2d_1">
      <defs>
       <path id="ma314248e68" d="M 0 0 
L 0 3.5 
" style="stroke: #000000; stroke-width: 0.8"/>
      </defs>
      <g>
       <use xlink:href="#ma314248e68" x="31.393634" y="201.826772" style="stroke: #000000; stroke-width: 0.8"/>
      </g>
     </g>
     <g id="text_1">
      <text style="font: 8px 'Carlito', sans-serif; text-anchor: middle" x="31.393634" y="214.381772" transform="rotate(-0 31.393634 214.381772)">0</text>
     </g>
    </g>
    <g id="xtick_2">
     <g id="line2d_2">
      <g>
       <use xlink:href="#ma314248e68" x="64.336096" y="201.826772" style="stroke: #000000; stroke-width: 0.8"/>
      </g>
     </g>
     <g id="text_2">
      <text style="font: 8px 'Carlito', sans-serif; text-anchor: middle" x="64.336096" y="214.381772" transform="rotate(-0 64.336096 214.381772)">200</text>
     </g>
    </g>
    <g id="xtick_3">
     <g id="line2d_3">
      <g>
       <use xlink:href="#ma314248e68" x="97.278557" y="201.826772" style="stroke: #000000; stroke-width: 0.8"/>
      </g>
     </g>
     <g id="text_3">
      <text style="font: 8px 'Carlito', sans-serif; text-anchor: middle" x="97.278557" y="214.381772" transform="rotate(-0 97.278557 214.381772)">400</text>
     </g>
    </g>
    <g id="xtick_4">
     <g id="line2d_4">
      <g>
       <use xlink:href="#ma314248e68" x="130.221019" y="201.826772" style="stroke: #000000; stroke-width: 0.8"/>
      </g>
     </g>
     <g id="text_4">
      <text style="font: 8px 'Carlito', sans-serif; text-anchor: middle" x="130.221019" y="214.381772" transform="rotate(-0 130.221019 214.381772)">600</text>
     </g>
    </g>
    <g id="xtick_5">
     <g id="line2d_5">
      <g>
       <use xlink:href="#ma314248e68" x="163.16348" y="201.826772" style="stroke: #000000; stroke-width: 0.8"/>
      </g>
     </g>
     <g id="text_5">
      <text style="font: 8px 'Carlito', sans-serif; text-anchor: middle" x="163.16348" y="214.381772" transform="rotate(-0 163.16348 214.381772)">800</text>
     </g>
    </g>
    <g id="xtick_6">
     <g id="line2d_6">
      <g>
       <use xlink:href="#ma314248e68" x="196.105941" y="201.826772" style="stroke: #000000; stroke-width: 0.8"/>
      </g>
     </g>
     <g id="text_6">
      <text style="font: 8px 'Carlito', sans-serif; text-anchor: middle" x="196.105941" y="214.381772" transform="rotate(-0 196.105941 214.381772)">1000</text>
     </g>
    </g>
    <g id="text_7">
     <text style="font: 8px 'Carlito', sans-serif; text-anchor: middle" x="116.220472" y="225.225522" transform="rotate(-0 116.220472 225.225522)">channel length</text>
    </g>
   </g>
   <g id="matplotlib.axis_2">
    <g id="ytick_1">
     <g id="line2d_7">
      <defs>
       <path id="mddba5b6068" d="M 0 0 
L -3.5 0 
" style="stroke: #000000; stroke-width: 0.8"/>
      </defs>
      <g>
       <use xlink:href="#mddba5b6068" x="28.346457" y="200.491347" style="stroke: #000000; stroke-width: 0.8"/>
      </g>
     </g>
     <g id="text_8">
      <text style="font: 8px 'Carlito', sans-serif; text-anchor: end" x="21.346457" y="203.268847" transform="rotate(-0 21.346457 203.268847)">0</text>
     </g>
    </g>
    <g id="ytick_2">
     <g id="line2d_8">
      <g>
       <use xlink:href="#mddba5b6068" x="28.346457" y="178.951861" style="stroke: #000000; stroke-width: 0.8"/>
      </g>
     </g>
     <g id="text_9">
      <text style="font: 8px 'Carlito', sans-serif; text-anchor: end" x="21.346457" y="181.729361" transform="rotate(-0 21.346457 181.729361)">200</text>
     </g>
    </g>
    <g id="ytick_3">
     <g id="line2d_9">
      <g>
       <use xlink:href="#mddba5b6068" x="28.346457" y="157.412375" style="stroke: #000000; stroke-width: 0.8"/>
      </g>
     </g>
     <g id="text_10">
      <text style="font: 8px 'Carlito', sans-serif; text-anchor: end" x="21.346457" y="160.189875" transform="rotate(-0 21.346457 160.189875)">400</text>
     </g>
    </g>
    <g id="ytick_4">
     <g id="line2d_10">
      <g>
       <use xlink:href="#mddba5b6068" x="28.346457" y="135.872888" style="stroke: #000000; stroke-width: 0.8"/>
      </g>
     </g>
     <g id="text_11">
      <text style="font: 8px 'Carlito', sans-serif; text-anchor: end" x="21.346457" y="138.650388" transform="rotate(-0 21.346457 138.650388)">600</text>
     </g>
    </g>
    <g id="ytick_5">
     <g id="line2d_11">
      <g>
       <use xlink:href="#mddba5b6068" x="28.346457" y="114.333402" style="stroke: #000000; stroke-width: 0.8"/>
      </g>
     </g>
     <g id="text_12">
      <text style="font: 8px 'Carlito', sans-serif; text-anchor: end" x="21.346457" y="117.110902" transform="rotate(-0 21.346457 117.110902)">800</text>
     </g>
    </g>
    <g id="ytick_6">
     <g id="line2d_12">
      <g>
       <use xlink:href="#mddba5b6068" x="28.346457" y="92.793915" style="stroke: #000000; stroke-width: 0.8"/>
      </g>
     </g>
     <g id="text_13">
      <text style="font: 8px 'Carlito', sans-serif; text-anchor: end" x="21.346457" y="95.571415" transform="rotate(-0 21.346457 95.571415)">1000</text>
     </g>
    </g>
    <g id="ytick_7">
     <g id="line2d_13">
      <g>
       <use xlink:href="#mddba5b6068" x="28.346457" y="71.254429" style="stroke: #000000; stroke-width: 0.8"/>
      </g>
     </g>
     <g id="text_14">
      <text style="font: 8px 'Carlito', sans-serif; text-anchor: end" x="21.346457" y="74.031929" transform="rotate(-0 21.346457 74.031929)">1200</text>
     </g>
    </g>
    <g id="ytick_8">
     <g id="line2d_14">
      <g>
       <use xlink:href="#mddba5b6068" x="28.346457" y="49.714943" style="stroke: #000000; stroke-width: 0.8"/>
      </g>
     </g>
     <g id="text_15">
      <text style="font: 8px 'Carlito', sans-serif; text-anchor: end" x="21.346457" y="52.492443" transform="rotate(-0 21.346457 52.492443)">1400</text>
     </g>
    </g>
    <g id="ytick_9">
     <g id="line2d_15">
      <g>
       <use xlink:href="#mddba5b6068" x="28.346457" y="28.175456" style="stroke: #000000; stroke-width: 0.8"/>
      </g>
     </g>
     <g id="text_16">
      <text style="font: 8px 'Carlito', sans-serif; text-anchor: end" x="21.346457" y="30.952956" transform="rotate(-0 21.346457 30.952956)">1600</text>
     </g>
    </g>
    <g id="text_17">
     <!-- variance of propagation time [min$^{2}$] -->
     <g transform="translate(-0.313543 173.159685) rotate(-90)">
      <text>
       <tspan style="font: 8px 'Carlito'" x="0 3.613281 7.445312 10.234375 12.070312 15.902344 20.105469 23.488281 27.46875 29.277344 33.496094 35.9375 37.746094 41.949219 44.738281 48.957031 53.160156 56.992188 60.757812 64.589844 67.269531 69.105469 73.324219 77.527344 79.335938 82.015625 83.851562 90.242188 94.222656 96.03125 98.484375 104.875 106.710938 114.772266" y="-0.78125">variance of propagation time [min]</tspan>
       <tspan style="font: 5.6px 'DejaVu Sans'" x="110.990625" y="-3.84375">2</tspan>
      </text>
     </g>
    </g>
   </g>
   <g id="line2d_16">
    <path d="M 36.335004 193.889764 
L 47.864865 181.375774 
L 80.807326 149.852994 
L 196.105941 35.149606 
" clip-path="url(#pcbaf3bf676)" style="fill: none; stroke: #1f77b4; stroke-width: 1.5; stroke-linecap: square"/>
    <defs>
     <path id="me6631d0527" d="M 0 3 
C 0.795609 3 1.55874 2.683901 2.12132 2.12132 
C 2.683901 1.55874 3 0.795609 3 0 
C 3 -0.795609 2.683901 -1.55874 2.12132 -2.12132 
C 1.55874 -2.683901 0.795609 -3 0 -3 
C -0.795609 -3 -1.55874 -2.683901 -2.12132 -2.12132 
C -2.683901 -1.55874 -3 -0.795609 -3 0 
C -3 0.795609 -2.683901 1.55874 -2.12132 2.12132 
C -1.55874 2.683901 -0.795609 3 0 3 
z
" style="stroke: #1f77b4"/>
    </defs>
    <g clip-path="url(#pcbaf3bf676)">
     <use xlink:href="#me6631d0527" x="36.335004" y="193.889764" style="fill: #1f77b4; stroke: #1f77b4"/>
     <use xlink:href="#me6631d0527" x="47.864865" y="181.375774" style="fill: #1f77b4; stroke: #1f77b4"/>
     <use xlink:href="#me6631d0527" x="80.807326" y="149.852994" style="fill: #1f77b4; stroke: #1f77b4"/>
     <use xlink:href="#me6631d0527" x="196.105941" y="35.149606" style="fill: #1f77b4; stroke: #1f77b4"/>
    </g>
   </g>
   <g id="patch_3">
    <path d="M 28.346457 201.826772 
L 28.346457 27.212598 
" style="fill: none; stroke: #000000; stroke-width: 0.8; stroke-linejoin: miter; stroke-linecap: square"/>
   </g>
   <g id="patch_4">
    <path d="M 204.094488 201.826772 
L 204.094488 27.212598 
" style="fill: none; stroke: #000000; stroke-width: 0.8; stroke-linejoin: miter; stroke-linecap: square"/>
   </g>
   <g id="patch_5">
    <path d="M 28.346457 201.826772 
L 204.094488 201.826772 
" style="fill: none; stroke: #000000; stroke-width: 0.8; stroke-linejoin: miter; stroke-linecap: square"/>
   </g>
   <g id="patch_6">
    <path d="M 28.346457 27.212598 
L 204.094488 27.212598 
" style="fill: none; stroke: #000000; stroke-width: 0.8; stroke-linejoin: miter; stroke-linecap: square"/>
   </g>
   <g id="legend_1">
    <g id="patch_7">
     <path d="M 33.946457 44.501348 
L 117.297707 44.501348 
Q 118.897707 44.501348 118.897707 42.901348 
L 118.897707 32.812598 
Q 118.897707 31.212598 117.297707 31.212598 
L 33.946457 31.212598 
Q 32.346457 31.212598 32.346457 32.812598 
L 32.346457 42.901348 
Q 32.346457 44.501348 33.946457 44.501348 
z
" style="fill: #ffffff; opacity: 0.8; stroke: #cccccc; stroke-linejoin: miter"/>
    </g>
    <g id="line2d_17">
     <path d="M 35.546457 37.212598 
L 43.546457 37.212598 
L 51.546457 37.212598 
" style="fill: none; stroke: #1f77b4; stroke-width: 1.5; stroke-linecap: square"/>
     <g>
      <use xlink:href="#me6631d0527" x="43.546457" y="37.212598" style="fill: #1f77b4; stroke: #1f77b4"/>
     </g>
    </g>
    <g id="text_18">
     <text style="font: 8px 'Carlito', sans-serif; text-anchor: start" x="57.946457" y="40.012598" transform="rotate(-0 57.946457 40.012598)">channel width = 6</text>
    </g>
   </g>
  </g>
 </g>
 <defs>
  <clipPath id="pcbaf3bf676">
   <rect x="28.346457" y="27.212598" width="175.748031" height="174.614173"/>
  </clipPath>
 </defs>
</svg>
