<?xml version="1.0" encoding="utf-8" standalone="no"?>
<!DOCTYPE svg PUBLIC "-//W3C//DTD SVG 1.1//EN"
  "http://www.w3.org/Graphics/SVG/1.1/DTD/svg11.dtd">
<svg xmlns:xlink="http://www.w3.org/1999/xlink" width="252pt" height="187.2pt" viewBox="0 0 252 187.2" xmlns="http://www.w3.org/2000/svg" version="1.1">
 <metadata>
  <rdf:RDF xmlns:dc="http://purl.org/dc/elements/1.1/" xmlns:cc="http://creativecommons.org/ns#" xmlns:rdf="http://www.w3.org/1999/02/22-rdf-syntax-ns#">
   <cc:Work>
    <dc:type rdf:resource="http://purl.org/dc/dcmitype/StillImage"/>
    <dc:date>2024-03-22T14:32:20.404738</dc:date>
    <dc:format>image/svg+xml</dc:format>
    <dc:creator>
     <cc:Agent>
      <dc:title>Matplotlib v3.8.0, https://matplotlib.org/</dc:title>
     </cc:Agent>
    </dc:creator>
   </cc:Work>
  </rdf:RDF>
 </metadata>
 <defs>
  <style type="text/css">*{stroke-linejoin: round; stroke-linecap: butt}</style>
 </defs>
 <g id="figure_1">
  <g id="patch_1">
   <path d="M 0 187.2 
L 252 187.2 
L 252 0 
L 0 0 
z
" style="fill: #ffffff"/>
  </g>
  <g id="axes_1">
   <g id="patch_2">
    <path d="M 57.6 151.2 
L 237.6 151.2 
L 237.6 7.2 
L 57.6 7.2 
z
" style="fill: #ffffff"/>
   </g>
   <g id="matplotlib.axis_1">
    <g id="xtick_1">
     <g id="line2d_1">
      <path d="M 57.6 151.2 
L 57.6 7.2 
" clip-path="url(#p9b131fb3bd)" style="fill: none; stroke-dasharray: 0.8,1.32; stroke-dashoffset: 0; stroke: #b0b0b0; stroke-opacity: 0.4; stroke-width: 0.8"/>
     </g>
     <g id="line2d_2">
      <defs>
       <path id="m064109f6c8" d="M 0 0 
L 0 3.5 
" style="stroke: #000000; stroke-width: 0.8"/>
      </defs>
      <g>
       <use xlink:href="#m064109f6c8" x="57.6" y="151.2" style="stroke: #000000; stroke-width: 0.8"/>
      </g>
     </g>
     <g id="text_1">
      <text style="font: 8px 'Carlito', sans-serif; text-anchor: middle" x="57.6" y="163.755" transform="rotate(-0 57.6 163.755)">0</text>
     </g>
    </g>
    <g id="xtick_2">
     <g id="line2d_3">
      <path d="M 100.662201 151.2 
L 100.662201 7.2 
" clip-path="url(#p9b131fb3bd)" style="fill: none; stroke-dasharray: 0.8,1.32; stroke-dashoffset: 0; stroke: #b0b0b0; stroke-opacity: 0.4; stroke-width: 0.8"/>
     </g>
     <g id="line2d_4">
      <g>
       <use xlink:href="#m064109f6c8" x="100.662201" y="151.2" style="stroke: #000000; stroke-width: 0.8"/>
      </g>
     </g>
     <g id="text_2">
      <text style="font: 8px 'Carlito', sans-serif; text-anchor: middle" x="100.662201" y="163.755" transform="rotate(-0 100.662201 163.755)">5</text>
     </g>
    </g>
    <g id="xtick_3">
     <g id="line2d_5">
      <path d="M 143.724402 151.2 
L 143.724402 7.2 
" clip-path="url(#p9b131fb3bd)" style="fill: none; stroke-dasharray: 0.8,1.32; stroke-dashoffset: 0; stroke: #b0b0b0; stroke-opacity: 0.4; stroke-width: 0.8"/>
     </g>
     <g id="line2d_6">
      <g>
       <use xlink:href="#m064109f6c8" x="143.724402" y="151.2" style="stroke: #000000; stroke-width: 0.8"/>
      </g>
     </g>
     <g id="text_3">
      <text style="font: 8px 'Carlito', sans-serif; text-anchor: middle" x="143.724402" y="163.755" transform="rotate(-0 143.724402 163.755)">10</text>
     </g>
    </g>
    <g id="xtick_4">
     <g id="line2d_7">
      <path d="M 186.786603 151.2 
L 186.786603 7.2 
" clip-path="url(#p9b131fb3bd)" style="fill: none; stroke-dasharray: 0.8,1.32; stroke-dashoffset: 0; stroke: #b0b0b0; stroke-opacity: 0.4; stroke-width: 0.8"/>
     </g>
     <g id="line2d_8">
      <g>
       <use xlink:href="#m064109f6c8" x="186.786603" y="151.2" style="stroke: #000000; stroke-width: 0.8"/>
      </g>
     </g>
     <g id="text_4">
      <text style="font: 8px 'Carlito', sans-serif; text-anchor: middle" x="186.786603" y="163.755" transform="rotate(-0 186.786603 163.755)">15</text>
     </g>
    </g>
    <g id="xtick_5">
     <g id="line2d_9">
      <path d="M 229.848804 151.2 
L 229.848804 7.2 
" clip-path="url(#p9b131fb3bd)" style="fill: none; stroke-dasharray: 0.8,1.32; stroke-dashoffset: 0; stroke: #b0b0b0; stroke-opacity: 0.4; stroke-width: 0.8"/>
     </g>
     <g id="line2d_10">
      <g>
       <use xlink:href="#m064109f6c8" x="229.848804" y="151.2" style="stroke: #000000; stroke-width: 0.8"/>
      </g>
     </g>
     <g id="text_5">
      <text style="font: 8px 'Carlito', sans-serif; text-anchor: middle" x="229.848804" y="163.755" transform="rotate(-0 229.848804 163.755)">20</text>
     </g>
    </g>
    <g id="text_6">
     <text style="font: 8px 'Carlito', sans-serif; text-anchor: middle" x="147.6" y="174.59875" transform="rotate(-0 147.6 174.59875)">channel width</text>
    </g>
   </g>
   <g id="matplotlib.axis_2">
    <g id="ytick_1">
     <g id="line2d_11">
      <path d="M 57.6 151.2 
L 237.6 151.2 
" clip-path="url(#p9b131fb3bd)" style="fill: none; stroke-dasharray: 0.8,1.32; stroke-dashoffset: 0; stroke: #b0b0b0; stroke-opacity: 0.4; stroke-width: 0.8"/>
     </g>
     <g id="line2d_12">
      <defs>
       <path id="me155f608cf" d="M 0 0 
L -3.5 0 
" style="stroke: #000000; stroke-width: 0.8"/>
      </defs>
      <g>
       <use xlink:href="#me155f608cf" x="57.6" y="151.2" style="stroke: #000000; stroke-width: 0.8"/>
      </g>
     </g>
     <g id="text_7">
      <text style="font: 8px 'Carlito', sans-serif; text-anchor: end" x="50.6" y="153.9775" transform="rotate(-0 50.6 153.9775)">0.0</text>
     </g>
    </g>
    <g id="ytick_2">
     <g id="line2d_13">
      <path d="M 57.6 115.2 
L 237.6 115.2 
" clip-path="url(#p9b131fb3bd)" style="fill: none; stroke-dasharray: 0.8,1.32; stroke-dashoffset: 0; stroke: #b0b0b0; stroke-opacity: 0.4; stroke-width: 0.8"/>
     </g>
     <g id="line2d_14">
      <g>
       <use xlink:href="#me155f608cf" x="57.6" y="115.2" style="stroke: #000000; stroke-width: 0.8"/>
      </g>
     </g>
     <g id="text_8">
      <text style="font: 8px 'Carlito', sans-serif; text-anchor: end" x="50.6" y="117.9775" transform="rotate(-0 50.6 117.9775)">0.1</text>
     </g>
    </g>
    <g id="ytick_3">
     <g id="line2d_15">
      <path d="M 57.6 79.2 
L 237.6 79.2 
" clip-path="url(#p9b131fb3bd)" style="fill: none; stroke-dasharray: 0.8,1.32; stroke-dashoffset: 0; stroke: #b0b0b0; stroke-opacity: 0.4; stroke-width: 0.8"/>
     </g>
     <g id="line2d_16">
      <g>
       <use xlink:href="#me155f608cf" x="57.6" y="79.2" style="stroke: #000000; stroke-width: 0.8"/>
      </g>
     </g>
     <g id="text_9">
      <text style="font: 8px 'Carlito', sans-serif; text-anchor: end" x="50.6" y="81.9775" transform="rotate(-0 50.6 81.9775)">0.2</text>
     </g>
    </g>
    <g id="ytick_4">
     <g id="line2d_17">
      <path d="M 57.6 43.2 
L 237.6 43.2 
" clip-path="url(#p9b131fb3bd)" style="fill: none; stroke-dasharray: 0.8,1.32; stroke-dashoffset: 0; stroke: #b0b0b0; stroke-opacity: 0.4; stroke-width: 0.8"/>
     </g>
     <g id="line2d_18">
      <g>
       <use xlink:href="#me155f608cf" x="57.6" y="43.2" style="stroke: #000000; stroke-width: 0.8"/>
      </g>
     </g>
     <g id="text_10">
      <text style="font: 8px 'Carlito', sans-serif; text-anchor: end" x="50.6" y="45.9775" transform="rotate(-0 50.6 45.9775)">0.3</text>
     </g>
    </g>
    <g id="ytick_5">
     <g id="line2d_19">
      <path d="M 57.6 7.2 
L 237.6 7.2 
" clip-path="url(#p9b131fb3bd)" style="fill: none; stroke-dasharray: 0.8,1.32; stroke-dashoffset: 0; stroke: #b0b0b0; stroke-opacity: 0.4; stroke-width: 0.8"/>
     </g>
     <g id="line2d_20">
      <g>
       <use xlink:href="#me155f608cf" x="57.6" y="7.2" style="stroke: #000000; stroke-width: 0.8"/>
      </g>
     </g>
     <g id="text_11">
      <text style="font: 8px 'Carlito', sans-serif; text-anchor: end" x="50.6" y="9.9775" transform="rotate(-0 50.6 9.9775)">0.4</text>
     </g>
    </g>
    <g id="ytick_6">
     <g id="line2d_21">
      <path d="M 57.6 71.2 
L 237.6 71.2 
" clip-path="url(#p9b131fb3bd)" style="fill: none; stroke-dasharray: 0.8,1.32; stroke-dashoffset: 0; stroke: #b0b0b0; stroke-opacity: 0.4; stroke-width: 0.8"/>
     </g>
     <g id="line2d_22">
      <g>
       <use xlink:href="#me155f608cf" x="57.6" y="71.2" style="stroke: #000000; stroke-width: 0.8"/>
      </g>
     </g>
     <g id="text_12">
      <!-- $v_{\mathrm{deterministic}}$ -->
      <g transform="translate(16.76 73.9775)">
       <text>
        <tspan style="font: italic 8px 'Carlito'" x="0" y="-0.171875">v</tspan>
        <tspan style="font: 5.6px 'Carlito'" x="3.566406 6.508594 9.294922 11.170703 13.957031 15.909375 20.382812 21.667969 24.610156 25.895312 28.085547 29.961328 31.246484" y="0.9765625">deterministic</tspan>
       </text>
      </g>
     </g>
    </g>
    <g id="ytick_7">
     <g id="line2d_23">
      <path d="M 57.6 48.342857 
L 237.6 48.342857 
" clip-path="url(#p9b131fb3bd)" style="fill: none; stroke-dasharray: 0.8,1.32; stroke-dashoffset: 0; stroke: #b0b0b0; stroke-opacity: 0.4; stroke-width: 0.8"/>
     </g>
     <g id="line2d_24">
      <g>
       <use xlink:href="#me155f608cf" x="57.6" y="48.342857" style="stroke: #000000; stroke-width: 0.8"/>
      </g>
     </g>
     <g id="text_13">
      <!-- $v_{\mathrm{asymptotic}}$ -->
      <g transform="translate(21.64 50.724732)">
       <text>
        <tspan style="font: italic 8px 'Carlito'" x="0" y="-0.171875">v</tspan>
        <tspan style="font: 5.6px 'Carlito'" x="3.566406 6.248828 8.439062 10.973828 15.447266 18.389453 20.265234 23.218359 25.094141 26.379297" y="0.9765625">asymptotic</tspan>
       </text>
      </g>
     </g>
    </g>
    <g id="text_14">
     <!-- front propagation speed $v$ [step/min] -->
     <g transform="translate(11.32 139.64) rotate(-90)">
      <text>
       <tspan style="font: 8px 'Carlito'" x="0 2.441406 5.230469 9.449219 13.652344 16.332031 18.140625 22.34375 25.132812 29.351562 33.554688 37.386719 41.152344 44.984375 47.664062 49.5 53.71875 57.921875 59.730469 62.859375 67.0625 71.042969 75.023438 79.226562 84.601562 86.410156 88.863281 91.992188 94.671875 98.652344 102.855469 105.945312 112.335938 114.171875 118.375" y="-0.21875">front propagation speed  [step/min]</tspan>
       <tspan style="font: italic 8px 'Carlito'" x="81.035156" y="-0.21875">v</tspan>
      </text>
     </g>
    </g>
   </g>
   <g id="line2d_25">
    <path d="M 74.82488 60.315009 
L 83.437321 56.632283 
L 92.049761 54.097114 
L 100.662201 52.470102 
L 109.274641 51.359533 
L 117.887081 50.573328 
L 126.499522 50.004264 
L 135.111962 49.577225 
L 143.724402 49.240794 
L 160.949282 48.738588 
L 178.174163 48.413219 
L 195.399043 48.194358 
L 212.623923 48.002043 
L 229.848804 47.879789 
" clip-path="url(#p9b131fb3bd)" style="fill: none; stroke: #1f77b4; stroke-width: 1.5; stroke-linecap: square"/>
    <defs>
     <path id="m5f616469b9" d="M 0 3 
C 0.795609 3 1.55874 2.683901 2.12132 2.12132 
C 2.683901 1.55874 3 0.795609 3 0 
C 3 -0.795609 2.683901 -1.55874 2.12132 -2.12132 
C 1.55874 -2.683901 0.795609 -3 0 -3 
C -0.795609 -3 -1.55874 -2.683901 -2.12132 -2.12132 
C -2.683901 -1.55874 -3 -0.795609 -3 0 
C -3 0.795609 -2.683901 1.55874 -2.12132 2.12132 
C -1.55874 2.683901 -0.795609 3 0 3 
z
" style="stroke: #1f77b4"/>
    </defs>
    <g clip-path="url(#p9b131fb3bd)">
     <use xlink:href="#m5f616469b9" x="74.82488" y="60.315009" style="fill: #1f77b4; stroke: #1f77b4"/>
     <use xlink:href="#m5f616469b9" x="83.437321" y="56.632283" style="fill: #1f77b4; stroke: #1f77b4"/>
     <use xlink:href="#m5f616469b9" x="92.049761" y="54.097114" style="fill: #1f77b4; stroke: #1f77b4"/>
     <use xlink:href="#m5f616469b9" x="100.662201" y="52.470102" style="fill: #1f77b4; stroke: #1f77b4"/>
     <use xlink:href="#m5f616469b9" x="109.274641" y="51.359533" style="fill: #1f77b4; stroke: #1f77b4"/>
     <use xlink:href="#m5f616469b9" x="117.887081" y="50.573328" style="fill: #1f77b4; stroke: #1f77b4"/>
     <use xlink:href="#m5f616469b9" x="126.499522" y="50.004264" style="fill: #1f77b4; stroke: #1f77b4"/>
     <use xlink:href="#m5f616469b9" x="135.111962" y="49.577225" style="fill: #1f77b4; stroke: #1f77b4"/>
     <use xlink:href="#m5f616469b9" x="143.724402" y="49.240794" style="fill: #1f77b4; stroke: #1f77b4"/>
     <use xlink:href="#m5f616469b9" x="160.949282" y="48.738588" style="fill: #1f77b4; stroke: #1f77b4"/>
     <use xlink:href="#m5f616469b9" x="178.174163" y="48.413219" style="fill: #1f77b4; stroke: #1f77b4"/>
     <use xlink:href="#m5f616469b9" x="195.399043" y="48.194358" style="fill: #1f77b4; stroke: #1f77b4"/>
     <use xlink:href="#m5f616469b9" x="212.623923" y="48.002043" style="fill: #1f77b4; stroke: #1f77b4"/>
     <use xlink:href="#m5f616469b9" x="229.848804" y="47.879789" style="fill: #1f77b4; stroke: #1f77b4"/>
    </g>
   </g>
   <g id="LineCollection_1">
    <path d="M 57.6 71.2 
L 247.073684 71.2 
" clip-path="url(#p9b131fb3bd)" style="fill: none; stroke-dasharray: 1.5,2.475; stroke-dashoffset: 0; stroke: #808080; stroke-width: 1.5"/>
   </g>
   <g id="LineCollection_2">
    <path d="M 57.6 48.342857 
L 247.073684 48.342857 
" clip-path="url(#p9b131fb3bd)" style="fill: none; stroke-dasharray: 5.55,2.4; stroke-dashoffset: 0; stroke: #808080; stroke-width: 1.5"/>
   </g>
   <g id="patch_3">
    <path d="M 57.6 151.2 
L 57.6 7.2 
" style="fill: none; stroke: #000000; stroke-width: 0.8; stroke-linejoin: miter; stroke-linecap: square"/>
   </g>
   <g id="patch_4">
    <path d="M 237.6 151.2 
L 237.6 7.2 
" style="fill: none; stroke: #000000; stroke-width: 0.8; stroke-linejoin: miter; stroke-linecap: square"/>
   </g>
   <g id="patch_5">
    <path d="M 57.6 151.2 
L 237.6 151.2 
" style="fill: none; stroke: #000000; stroke-width: 0.8; stroke-linejoin: miter; stroke-linecap: square"/>
   </g>
   <g id="patch_6">
    <path d="M 57.6 7.2 
L 237.6 7.2 
" style="fill: none; stroke: #000000; stroke-width: 0.8; stroke-linejoin: miter; stroke-linecap: square"/>
   </g>
  </g>
 </g>
 <defs>
  <clipPath id="p9b131fb3bd">
   <rect x="57.6" y="7.2" width="180" height="144"/>
  </clipPath>
 </defs>
</svg>
