<?xml version="1.0" encoding="utf-8" standalone="no"?>
<!DOCTYPE svg PUBLIC "-//W3C//DTD SVG 1.1//EN"
  "http://www.w3.org/Graphics/SVG/1.1/DTD/svg11.dtd">
<svg xmlns:xlink="http://www.w3.org/1999/xlink" width="226.771654pt" height="226.771654pt" viewBox="0 0 226.771654 226.771654" xmlns="http://www.w3.org/2000/svg" version="1.1">
 <metadata>
  <rdf:RDF xmlns:dc="http://purl.org/dc/elements/1.1/" xmlns:cc="http://creativecommons.org/ns#" xmlns:rdf="http://www.w3.org/1999/02/22-rdf-syntax-ns#">
   <cc:Work>
    <dc:type rdf:resource="http://purl.org/dc/dcmitype/StillImage"/>
    <dc:date>2023-12-14T07:37:06.339965</dc:date>
    <dc:format>image/svg+xml</dc:format>
    <dc:creator>
     <cc:Agent>
      <dc:title>Matplotlib v3.8.0, https://matplotlib.org/</dc:title>
     </cc:Agent>
    </dc:creator>
   </cc:Work>
  </rdf:RDF>
 </metadata>
 <defs>
  <style type="text/css">*{stroke-linejoin: round; stroke-linecap: butt}</style>
 </defs>
 <g id="figure_1">
  <g id="patch_1">
   <path d="M 0 226.771654 
L 226.771654 226.771654 
L 226.771654 0 
L 0 0 
z
" style="fill: #ffffff"/>
  </g>
  <g id="axes_1">
   <g id="patch_2">
    <path d="M 28.346457 201.826772 
L 204.094488 201.826772 
L 204.094488 27.212598 
L 28.346457 27.212598 
z
" style="fill: #ffffff"/>
   </g>
   <g id="matplotlib.axis_1">
    <g id="xtick_1">
     <g id="line2d_1">
      <defs>
       <path id="m4fa7f54f31" d="M 0 0 
L 0 3.5 
" style="stroke: #000000; stroke-width: 0.8"/>
      </defs>
      <g>
       <use xlink:href="#m4fa7f54f31" x="28.346457" y="201.826772" style="stroke: #000000; stroke-width: 0.8"/>
      </g>
     </g>
     <g id="text_1">
      <text style="font: 8px 'Carlito', sans-serif; text-anchor: middle" x="28.346457" y="214.381772" transform="rotate(-0 28.346457 214.381772)">0</text>
     </g>
    </g>
    <g id="xtick_2">
     <g id="line2d_2">
      <g>
       <use xlink:href="#m4fa7f54f31" x="70.492268" y="201.826772" style="stroke: #000000; stroke-width: 0.8"/>
      </g>
     </g>
     <g id="text_2">
      <text style="font: 8px 'Carlito', sans-serif; text-anchor: middle" x="70.492268" y="214.381772" transform="rotate(-0 70.492268 214.381772)">5</text>
     </g>
    </g>
    <g id="xtick_3">
     <g id="line2d_3">
      <g>
       <use xlink:href="#m4fa7f54f31" x="112.638079" y="201.826772" style="stroke: #000000; stroke-width: 0.8"/>
      </g>
     </g>
     <g id="text_3">
      <text style="font: 8px 'Carlito', sans-serif; text-anchor: middle" x="112.638079" y="214.381772" transform="rotate(-0 112.638079 214.381772)">10</text>
     </g>
    </g>
    <g id="xtick_4">
     <g id="line2d_4">
      <g>
       <use xlink:href="#m4fa7f54f31" x="154.783889" y="201.826772" style="stroke: #000000; stroke-width: 0.8"/>
      </g>
     </g>
     <g id="text_4">
      <text style="font: 8px 'Carlito', sans-serif; text-anchor: middle" x="154.783889" y="214.381772" transform="rotate(-0 154.783889 214.381772)">15</text>
     </g>
    </g>
    <g id="xtick_5">
     <g id="line2d_5">
      <g>
       <use xlink:href="#m4fa7f54f31" x="196.9297" y="201.826772" style="stroke: #000000; stroke-width: 0.8"/>
      </g>
     </g>
     <g id="text_5">
      <text style="font: 8px 'Carlito', sans-serif; text-anchor: middle" x="196.9297" y="214.381772" transform="rotate(-0 196.9297 214.381772)">20</text>
     </g>
    </g>
    <g id="text_6">
     <text style="font: 8px 'Carlito', sans-serif; text-anchor: middle" x="116.220472" y="225.225522" transform="rotate(-0 116.220472 225.225522)">channel width</text>
    </g>
   </g>
   <g id="matplotlib.axis_2">
    <g id="ytick_1">
     <g id="line2d_6">
      <defs>
       <path id="m21047cb31e" d="M 0 0 
L -3.5 0 
" style="stroke: #000000; stroke-width: 0.8"/>
      </defs>
      <g>
       <use xlink:href="#m21047cb31e" x="28.346457" y="201.826772" style="stroke: #000000; stroke-width: 0.8"/>
      </g>
     </g>
     <g id="text_7">
      <text style="font: 8px 'Carlito', sans-serif; text-anchor: end" x="21.346457" y="204.604272" transform="rotate(-0 21.346457 204.604272)">0</text>
     </g>
    </g>
    <g id="ytick_2">
     <g id="line2d_7">
      <g>
       <use xlink:href="#m21047cb31e" x="28.346457" y="143.622047" style="stroke: #000000; stroke-width: 0.8"/>
      </g>
     </g>
     <g id="text_8">
      <text style="font: 8px 'Carlito', sans-serif; text-anchor: end" x="21.346457" y="146.399547" transform="rotate(-0 21.346457 146.399547)">1</text>
     </g>
    </g>
    <g id="ytick_3">
     <g id="line2d_8">
      <g>
       <use xlink:href="#m21047cb31e" x="28.346457" y="85.417323" style="stroke: #000000; stroke-width: 0.8"/>
      </g>
     </g>
     <g id="text_9">
      <text style="font: 8px 'Carlito', sans-serif; text-anchor: end" x="21.346457" y="88.194823" transform="rotate(-0 21.346457 88.194823)">2</text>
     </g>
    </g>
    <g id="ytick_4">
     <g id="line2d_9">
      <g>
       <use xlink:href="#m21047cb31e" x="28.346457" y="27.212598" style="stroke: #000000; stroke-width: 0.8"/>
      </g>
     </g>
     <g id="text_10">
      <text style="font: 8px 'Carlito', sans-serif; text-anchor: end" x="21.346457" y="29.990098" transform="rotate(-0 21.346457 29.990098)">3</text>
     </g>
    </g>
    <g id="text_11">
     <!-- variance [min$^{2}$/step] -->
     <g transform="translate(11.931457 148.319685) rotate(-90)">
      <text>
       <tspan style="font: 8px 'Carlito'" x="0 3.613281 7.445312 10.234375 12.070312 15.902344 20.105469 23.488281 27.46875 29.277344 31.730469 38.121094 39.957031 48.018359 51.108203 54.237109 56.916797 60.897266 65.100391" y="-0.78125">variance [min/step]</tspan>
       <tspan style="font: 5.6px 'DejaVu Sans'" x="44.236719" y="-3.84375">2</tspan>
      </text>
     </g>
    </g>
   </g>
   <g id="line2d_10">
    <path d="M 53.633943 46.889612 
L 62.063105 73.019008 
L 70.492268 95.942894 
L 78.92143 110.60233 
L 95.779754 124.808273 
L 112.638079 134.868103 
L 196.9297 154.287558 
" clip-path="url(#pb4731a190c)" style="fill: none; stroke: #1f77b4; stroke-width: 1.5; stroke-linecap: square"/>
    <defs>
     <path id="m0f81d222a8" d="M 0 3 
C 0.795609 3 1.55874 2.683901 2.12132 2.12132 
C 2.683901 1.55874 3 0.795609 3 0 
C 3 -0.795609 2.683901 -1.55874 2.12132 -2.12132 
C 1.55874 -2.683901 0.795609 -3 0 -3 
C -0.795609 -3 -1.55874 -2.683901 -2.12132 -2.12132 
C -2.683901 -1.55874 -3 -0.795609 -3 0 
C -3 0.795609 -2.683901 1.55874 -2.12132 2.12132 
C -1.55874 2.683901 -0.795609 3 0 3 
z
" style="stroke: #1f77b4"/>
    </defs>
    <g clip-path="url(#pb4731a190c)">
     <use xlink:href="#m0f81d222a8" x="53.633943" y="46.889612" style="fill: #1f77b4; stroke: #1f77b4"/>
     <use xlink:href="#m0f81d222a8" x="62.063105" y="73.019008" style="fill: #1f77b4; stroke: #1f77b4"/>
     <use xlink:href="#m0f81d222a8" x="70.492268" y="95.942894" style="fill: #1f77b4; stroke: #1f77b4"/>
     <use xlink:href="#m0f81d222a8" x="78.92143" y="110.60233" style="fill: #1f77b4; stroke: #1f77b4"/>
     <use xlink:href="#m0f81d222a8" x="95.779754" y="124.808273" style="fill: #1f77b4; stroke: #1f77b4"/>
     <use xlink:href="#m0f81d222a8" x="112.638079" y="134.868103" style="fill: #1f77b4; stroke: #1f77b4"/>
     <use xlink:href="#m0f81d222a8" x="196.9297" y="154.287558" style="fill: #1f77b4; stroke: #1f77b4"/>
    </g>
   </g>
   <g id="patch_3">
    <path d="M 28.346457 201.826772 
L 28.346457 27.212598 
" style="fill: none; stroke: #000000; stroke-width: 0.8; stroke-linejoin: miter; stroke-linecap: square"/>
   </g>
   <g id="patch_4">
    <path d="M 204.094488 201.826772 
L 204.094488 27.212598 
" style="fill: none; stroke: #000000; stroke-width: 0.8; stroke-linejoin: miter; stroke-linecap: square"/>
   </g>
   <g id="patch_5">
    <path d="M 28.346457 201.826772 
L 204.094488 201.826772 
" style="fill: none; stroke: #000000; stroke-width: 0.8; stroke-linejoin: miter; stroke-linecap: square"/>
   </g>
   <g id="patch_6">
    <path d="M 28.346457 27.212598 
L 204.094488 27.212598 
" style="fill: none; stroke: #000000; stroke-width: 0.8; stroke-linejoin: miter; stroke-linecap: square"/>
   </g>
  </g>
 </g>
 <defs>
  <clipPath id="pb4731a190c">
   <rect x="28.346457" y="27.212598" width="175.748031" height="174.614173"/>
  </clipPath>
 </defs>
</svg>
