<?xml version="1.0" encoding="utf-8" standalone="no"?>
<!DOCTYPE svg PUBLIC "-//W3C//DTD SVG 1.1//EN"
  "http://www.w3.org/Graphics/SVG/1.1/DTD/svg11.dtd">
<svg xmlns:xlink="http://www.w3.org/1999/xlink" width="252pt" height="187.2pt" viewBox="0 0 252 187.2" xmlns="http://www.w3.org/2000/svg" version="1.1">
 <metadata>
  <rdf:RDF xmlns:dc="http://purl.org/dc/elements/1.1/" xmlns:cc="http://creativecommons.org/ns#" xmlns:rdf="http://www.w3.org/1999/02/22-rdf-syntax-ns#">
   <cc:Work>
    <dc:type rdf:resource="http://purl.org/dc/dcmitype/StillImage"/>
    <dc:date>2024-04-16T11:17:41.051660</dc:date>
    <dc:format>image/svg+xml</dc:format>
    <dc:creator>
     <cc:Agent>
      <dc:title>Matplotlib v3.7.1, https://matplotlib.org/</dc:title>
     </cc:Agent>
    </dc:creator>
   </cc:Work>
  </rdf:RDF>
 </metadata>
 <defs>
  <style type="text/css">*{stroke-linejoin: round; stroke-linecap: butt}</style>
 </defs>
 <g id="figure_1">
  <g id="patch_1">
   <path d="M 0 187.2 
L 252 187.2 
L 252 0 
L 0 0 
z
" style="fill: #ffffff"/>
  </g>
  <g id="axes_1">
   <g id="patch_2">
    <path d="M 57.6 151.2 
L 237.6 151.2 
L 237.6 7.2 
L 57.6 7.2 
z
" style="fill: #ffffff"/>
   </g>
   <g id="matplotlib.axis_1">
    <g id="xtick_1">
     <g id="line2d_1">
      <path d="M 57.6 151.2 
L 57.6 7.2 
" clip-path="url(#p85b1e8e9c8)" style="fill: none; stroke-dasharray: 0.8,1.32; stroke-dashoffset: 0; stroke: #b0b0b0; stroke-opacity: 0.4; stroke-width: 0.8"/>
     </g>
     <g id="line2d_2">
      <defs>
       <path id="md397d6c0a4" d="M 0 0 
L 0 3.5 
" style="stroke: #000000; stroke-width: 0.8"/>
      </defs>
      <g>
       <use xlink:href="#md397d6c0a4" x="57.6" y="151.2" style="stroke: #000000; stroke-width: 0.8"/>
      </g>
     </g>
     <g id="text_1">
      <text style="font: 8px 'Carlito', sans-serif; text-anchor: middle" x="57.6" y="163.755" transform="rotate(-0 57.6 163.755)">0</text>
     </g>
    </g>
    <g id="xtick_2">
     <g id="line2d_3">
      <path d="M 100.559427 151.2 
L 100.559427 7.2 
" clip-path="url(#p85b1e8e9c8)" style="fill: none; stroke-dasharray: 0.8,1.32; stroke-dashoffset: 0; stroke: #b0b0b0; stroke-opacity: 0.4; stroke-width: 0.8"/>
     </g>
     <g id="line2d_4">
      <g>
       <use xlink:href="#md397d6c0a4" x="100.559427" y="151.2" style="stroke: #000000; stroke-width: 0.8"/>
      </g>
     </g>
     <g id="text_2">
      <text style="font: 8px 'Carlito', sans-serif; text-anchor: middle" x="100.559427" y="163.755" transform="rotate(-0 100.559427 163.755)">5</text>
     </g>
    </g>
    <g id="xtick_3">
     <g id="line2d_5">
      <path d="M 143.518854 151.2 
L 143.518854 7.2 
" clip-path="url(#p85b1e8e9c8)" style="fill: none; stroke-dasharray: 0.8,1.32; stroke-dashoffset: 0; stroke: #b0b0b0; stroke-opacity: 0.4; stroke-width: 0.8"/>
     </g>
     <g id="line2d_6">
      <g>
       <use xlink:href="#md397d6c0a4" x="143.518854" y="151.2" style="stroke: #000000; stroke-width: 0.8"/>
      </g>
     </g>
     <g id="text_3">
      <text style="font: 8px 'Carlito', sans-serif; text-anchor: middle" x="143.518854" y="163.755" transform="rotate(-0 143.518854 163.755)">10</text>
     </g>
    </g>
    <g id="xtick_4">
     <g id="line2d_7">
      <path d="M 186.478282 151.2 
L 186.478282 7.2 
" clip-path="url(#p85b1e8e9c8)" style="fill: none; stroke-dasharray: 0.8,1.32; stroke-dashoffset: 0; stroke: #b0b0b0; stroke-opacity: 0.4; stroke-width: 0.8"/>
     </g>
     <g id="line2d_8">
      <g>
       <use xlink:href="#md397d6c0a4" x="186.478282" y="151.2" style="stroke: #000000; stroke-width: 0.8"/>
      </g>
     </g>
     <g id="text_4">
      <text style="font: 8px 'Carlito', sans-serif; text-anchor: middle" x="186.478282" y="163.755" transform="rotate(-0 186.478282 163.755)">15</text>
     </g>
    </g>
    <g id="xtick_5">
     <g id="line2d_9">
      <path d="M 229.437709 151.2 
L 229.437709 7.2 
" clip-path="url(#p85b1e8e9c8)" style="fill: none; stroke-dasharray: 0.8,1.32; stroke-dashoffset: 0; stroke: #b0b0b0; stroke-opacity: 0.4; stroke-width: 0.8"/>
     </g>
     <g id="line2d_10">
      <g>
       <use xlink:href="#md397d6c0a4" x="229.437709" y="151.2" style="stroke: #000000; stroke-width: 0.8"/>
      </g>
     </g>
     <g id="text_5">
      <text style="font: 8px 'Carlito', sans-serif; text-anchor: middle" x="229.437709" y="163.755" transform="rotate(-0 229.437709 163.755)">20</text>
     </g>
    </g>
    <g id="text_6">
     <text style="font: 8px 'Carlito', sans-serif; text-anchor: middle" x="147.6" y="174.59875" transform="rotate(-0 147.6 174.59875)">channel width</text>
    </g>
   </g>
   <g id="matplotlib.axis_2">
    <g id="ytick_1">
     <g id="line2d_11">
      <path d="M 57.6 151.2 
L 237.6 151.2 
" clip-path="url(#p85b1e8e9c8)" style="fill: none; stroke-dasharray: 0.8,1.32; stroke-dashoffset: 0; stroke: #b0b0b0; stroke-opacity: 0.4; stroke-width: 0.8"/>
     </g>
     <g id="line2d_12">
      <defs>
       <path id="mbe26a3893d" d="M 0 0 
L -3.5 0 
" style="stroke: #000000; stroke-width: 0.8"/>
      </defs>
      <g>
       <use xlink:href="#mbe26a3893d" x="57.6" y="151.2" style="stroke: #000000; stroke-width: 0.8"/>
      </g>
     </g>
     <g id="text_7">
      <text style="font: 8px 'Carlito', sans-serif; text-anchor: end" x="50.6" y="153.9775" transform="rotate(-0 50.6 153.9775)">0.0</text>
     </g>
    </g>
    <g id="ytick_2">
     <g id="line2d_13">
      <path d="M 57.6 115.2 
L 237.6 115.2 
" clip-path="url(#p85b1e8e9c8)" style="fill: none; stroke-dasharray: 0.8,1.32; stroke-dashoffset: 0; stroke: #b0b0b0; stroke-opacity: 0.4; stroke-width: 0.8"/>
     </g>
     <g id="line2d_14">
      <g>
       <use xlink:href="#mbe26a3893d" x="57.6" y="115.2" style="stroke: #000000; stroke-width: 0.8"/>
      </g>
     </g>
     <g id="text_8">
      <text style="font: 8px 'Carlito', sans-serif; text-anchor: end" x="50.6" y="117.9775" transform="rotate(-0 50.6 117.9775)">0.1</text>
     </g>
    </g>
    <g id="ytick_3">
     <g id="line2d_15">
      <path d="M 57.6 79.2 
L 237.6 79.2 
" clip-path="url(#p85b1e8e9c8)" style="fill: none; stroke-dasharray: 0.8,1.32; stroke-dashoffset: 0; stroke: #b0b0b0; stroke-opacity: 0.4; stroke-width: 0.8"/>
     </g>
     <g id="line2d_16">
      <g>
       <use xlink:href="#mbe26a3893d" x="57.6" y="79.2" style="stroke: #000000; stroke-width: 0.8"/>
      </g>
     </g>
     <g id="text_9">
      <text style="font: 8px 'Carlito', sans-serif; text-anchor: end" x="50.6" y="81.9775" transform="rotate(-0 50.6 81.9775)">0.2</text>
     </g>
    </g>
    <g id="ytick_4">
     <g id="line2d_17">
      <path d="M 57.6 43.2 
L 237.6 43.2 
" clip-path="url(#p85b1e8e9c8)" style="fill: none; stroke-dasharray: 0.8,1.32; stroke-dashoffset: 0; stroke: #b0b0b0; stroke-opacity: 0.4; stroke-width: 0.8"/>
     </g>
     <g id="line2d_18">
      <g>
       <use xlink:href="#mbe26a3893d" x="57.6" y="43.2" style="stroke: #000000; stroke-width: 0.8"/>
      </g>
     </g>
     <g id="text_10">
      <text style="font: 8px 'Carlito', sans-serif; text-anchor: end" x="50.6" y="45.9775" transform="rotate(-0 50.6 45.9775)">0.3</text>
     </g>
    </g>
    <g id="ytick_5">
     <g id="line2d_19">
      <path d="M 57.6 7.2 
L 237.6 7.2 
" clip-path="url(#p85b1e8e9c8)" style="fill: none; stroke-dasharray: 0.8,1.32; stroke-dashoffset: 0; stroke: #b0b0b0; stroke-opacity: 0.4; stroke-width: 0.8"/>
     </g>
     <g id="line2d_20">
      <g>
       <use xlink:href="#mbe26a3893d" x="57.6" y="7.2" style="stroke: #000000; stroke-width: 0.8"/>
      </g>
     </g>
     <g id="text_11">
      <text style="font: 8px 'Carlito', sans-serif; text-anchor: end" x="50.6" y="9.9775" transform="rotate(-0 50.6 9.9775)">0.4</text>
     </g>
    </g>
    <g id="ytick_6">
     <g id="line2d_21">
      <path d="M 57.6 71.2 
L 237.6 71.2 
" clip-path="url(#p85b1e8e9c8)" style="fill: none; stroke-dasharray: 0.8,1.32; stroke-dashoffset: 0; stroke: #b0b0b0; stroke-opacity: 0.4; stroke-width: 0.8"/>
     </g>
     <g id="line2d_22">
      <g>
       <use xlink:href="#mbe26a3893d" x="57.6" y="71.2" style="stroke: #000000; stroke-width: 0.8"/>
      </g>
     </g>
     <g id="text_12">
      <!-- $v_{\mathrm{deterministic}}$ -->
      <g transform="translate(16.76 73.9775)">
       <text>
        <tspan style="font: italic 8px 'Carlito'" x="0" y="-0.171875">v</tspan>
        <tspan style="font: 5.6px 'Carlito'" x="3.566406 6.508594 9.294922 11.170703 13.957031 15.909375 20.382812 21.667969 24.610156 25.895312 28.085547 29.961328 31.246484" y="0.9765625">deterministic</tspan>
       </text>
      </g>
     </g>
    </g>
    <g id="ytick_7">
     <g id="line2d_23">
      <path d="M 57.6 48.342857 
L 237.6 48.342857 
" clip-path="url(#p85b1e8e9c8)" style="fill: none; stroke-dasharray: 0.8,1.32; stroke-dashoffset: 0; stroke: #b0b0b0; stroke-opacity: 0.4; stroke-width: 0.8"/>
     </g>
     <g id="line2d_24">
      <g>
       <use xlink:href="#mbe26a3893d" x="57.6" y="48.342857" style="stroke: #000000; stroke-width: 0.8"/>
      </g>
     </g>
     <g id="text_13">
      <!-- $v_{\mathrm{asymptotic}}$ -->
      <g transform="translate(21.64 50.724732)">
       <text>
        <tspan style="font: italic 8px 'Carlito'" x="0" y="-0.171875">v</tspan>
        <tspan style="font: 5.6px 'Carlito'" x="3.566406 6.248828 8.439062 10.973828 15.447266 18.389453 20.265234 23.218359 25.094141 26.379297" y="0.9765625">asymptotic</tspan>
       </text>
      </g>
     </g>
    </g>
    <g id="text_14">
     <!-- front propagation speed $v$ [step/min] -->
     <g transform="translate(11.32 139.64) rotate(-90)">
      <text>
       <tspan style="font: 8px 'Carlito'" x="0 2.441406 5.230469 9.449219 13.652344 16.332031 18.140625 22.34375 25.132812 29.351562 33.554688 37.386719 41.152344 44.984375 47.664062 49.5 53.71875 57.921875 59.730469 62.859375 67.0625 71.042969 75.023438 79.226562 84.601562 86.410156 88.863281 91.992188 94.671875 98.652344 102.855469 105.945312 112.335938 114.171875 118.375" y="-0.21875">front propagation speed  [step/min]</tspan>
       <tspan style="font: italic 8px 'Carlito'" x="81.035156" y="-0.21875">v</tspan>
      </text>
     </g>
    </g>
   </g>
   <g id="line2d_25">
    <path clip-path="url(#p85b1e8e9c8)" style="fill: none; stroke: #9467bd; stroke-width: 1.5; stroke-linecap: square"/>
    <defs>
     <path id="mc7eded3a9b" d="M 0 3 
C 0.795609 3 1.55874 2.683901 2.12132 2.12132 
C 2.683901 1.55874 3 0.795609 3 0 
C 3 -0.795609 2.683901 -1.55874 2.12132 -2.12132 
C 1.55874 -2.683901 0.795609 -3 0 -3 
C -0.795609 -3 -1.55874 -2.683901 -2.12132 -2.12132 
C -2.683901 -1.55874 -3 -0.795609 -3 0 
C -3 0.795609 -2.683901 1.55874 -2.12132 2.12132 
C -1.55874 2.683901 -0.795609 3 0 3 
z
" style="stroke: #9467bd"/>
    </defs>
    <g clip-path="url(#p85b1e8e9c8)"/>
   </g>
   <g id="line2d_26">
    <path d="M 74.783771 60.236566 
L 83.375656 57.079582 
L 91.967542 54.388408 
L 100.559427 52.826027 
L 109.151313 51.595704 
L 117.743198 50.833591 
L 126.335084 50.191519 
L 134.926969 49.746234 
L 143.518854 49.406983 
L 160.702625 48.803462 
L 177.886396 48.497453 
L 195.070167 48.176749 
L 212.253938 47.982304 
L 229.437709 47.847233 
" clip-path="url(#p85b1e8e9c8)" style="fill: none; stroke: #9467bd; stroke-width: 1.5; stroke-linecap: square"/>
    <g clip-path="url(#p85b1e8e9c8)">
     <use xlink:href="#mc7eded3a9b" x="74.783771" y="60.236566" style="fill: #9467bd; stroke: #9467bd"/>
     <use xlink:href="#mc7eded3a9b" x="83.375656" y="57.079582" style="fill: #9467bd; stroke: #9467bd"/>
     <use xlink:href="#mc7eded3a9b" x="91.967542" y="54.388408" style="fill: #9467bd; stroke: #9467bd"/>
     <use xlink:href="#mc7eded3a9b" x="100.559427" y="52.826027" style="fill: #9467bd; stroke: #9467bd"/>
     <use xlink:href="#mc7eded3a9b" x="109.151313" y="51.595704" style="fill: #9467bd; stroke: #9467bd"/>
     <use xlink:href="#mc7eded3a9b" x="117.743198" y="50.833591" style="fill: #9467bd; stroke: #9467bd"/>
     <use xlink:href="#mc7eded3a9b" x="126.335084" y="50.191519" style="fill: #9467bd; stroke: #9467bd"/>
     <use xlink:href="#mc7eded3a9b" x="134.926969" y="49.746234" style="fill: #9467bd; stroke: #9467bd"/>
     <use xlink:href="#mc7eded3a9b" x="143.518854" y="49.406983" style="fill: #9467bd; stroke: #9467bd"/>
     <use xlink:href="#mc7eded3a9b" x="160.702625" y="48.803462" style="fill: #9467bd; stroke: #9467bd"/>
     <use xlink:href="#mc7eded3a9b" x="177.886396" y="48.497453" style="fill: #9467bd; stroke: #9467bd"/>
     <use xlink:href="#mc7eded3a9b" x="195.070167" y="48.176749" style="fill: #9467bd; stroke: #9467bd"/>
     <use xlink:href="#mc7eded3a9b" x="212.253938" y="47.982304" style="fill: #9467bd; stroke: #9467bd"/>
     <use xlink:href="#mc7eded3a9b" x="229.437709" y="47.847233" style="fill: #9467bd; stroke: #9467bd"/>
    </g>
   </g>
   <g id="line2d_27">
    <path clip-path="url(#p85b1e8e9c8)" style="fill: none; stroke: #9467bd; stroke-width: 1.5; stroke-linecap: square"/>
    <defs>
     <path id="m6b0a441357" d="M 0 3 
C 0.795609 3 1.55874 2.683901 2.12132 2.12132 
C 2.683901 1.55874 3 0.795609 3 0 
C 3 -0.795609 2.683901 -1.55874 2.12132 -2.12132 
C 1.55874 -2.683901 0.795609 -3 0 -3 
C -0.795609 -3 -1.55874 -2.683901 -2.12132 -2.12132 
C -2.683901 -1.55874 -3 -0.795609 -3 0 
C -3 0.795609 -2.683901 1.55874 -2.12132 2.12132 
C -1.55874 2.683901 -0.795609 3 0 3 
z
" style="stroke: #9467bd"/>
    </defs>
    <g clip-path="url(#p85b1e8e9c8)"/>
   </g>
   <g id="line2d_28">
    <path d="M 66.191885 68.340815 
" clip-path="url(#p85b1e8e9c8)" style="fill: none; stroke: #9467bd; stroke-width: 1.5; stroke-linecap: square"/>
    <g clip-path="url(#p85b1e8e9c8)">
     <use xlink:href="#m6b0a441357" x="66.191885" y="68.340815" style="fill-opacity: 0; stroke: #9467bd"/>
    </g>
   </g>
   <g id="LineCollection_1">
    <path d="M 57.6 71.2 
L 246.62148 71.2 
" clip-path="url(#p85b1e8e9c8)" style="fill: none; stroke-dasharray: 1.5,2.475; stroke-dashoffset: 0; stroke: #808080; stroke-width: 1.5"/>
   </g>
   <g id="LineCollection_2">
    <path d="M 57.6 48.342857 
L 246.62148 48.342857 
" clip-path="url(#p85b1e8e9c8)" style="fill: none; stroke-dasharray: 5.55,2.4; stroke-dashoffset: 0; stroke: #808080; stroke-width: 1.5"/>
   </g>
   <g id="patch_3">
    <path d="M 57.6 151.2 
L 57.6 7.2 
" style="fill: none; stroke: #000000; stroke-width: 0.8; stroke-linejoin: miter; stroke-linecap: square"/>
   </g>
   <g id="patch_4">
    <path d="M 237.6 151.2 
L 237.6 7.2 
" style="fill: none; stroke: #000000; stroke-width: 0.8; stroke-linejoin: miter; stroke-linecap: square"/>
   </g>
   <g id="patch_5">
    <path d="M 57.6 151.2 
L 237.6 151.2 
" style="fill: none; stroke: #000000; stroke-width: 0.8; stroke-linejoin: miter; stroke-linecap: square"/>
   </g>
   <g id="patch_6">
    <path d="M 57.6 7.2 
L 237.6 7.2 
" style="fill: none; stroke: #000000; stroke-width: 0.8; stroke-linejoin: miter; stroke-linecap: square"/>
   </g>
  </g>
 </g>
 <defs>
  <clipPath id="p85b1e8e9c8">
   <rect x="57.6" y="7.2" width="180" height="144"/>
  </clipPath>
 </defs>
</svg>
