<?xml version="1.0" encoding="utf-8" standalone="no"?>
<!DOCTYPE svg PUBLIC "-//W3C//DTD SVG 1.1//EN"
  "http://www.w3.org/Graphics/SVG/1.1/DTD/svg11.dtd">
<svg xmlns:xlink="http://www.w3.org/1999/xlink" width="489.6pt" height="144pt" viewBox="0 0 489.6 144" xmlns="http://www.w3.org/2000/svg" version="1.1">
 <metadata>
  <rdf:RDF xmlns:dc="http://purl.org/dc/elements/1.1/" xmlns:cc="http://creativecommons.org/ns#" xmlns:rdf="http://www.w3.org/1999/02/22-rdf-syntax-ns#">
   <cc:Work>
    <dc:type rdf:resource="http://purl.org/dc/dcmitype/StillImage"/>
    <dc:date>2024-10-22T18:23:33.587789</dc:date>
    <dc:format>image/svg+xml</dc:format>
    <dc:creator>
     <cc:Agent>
      <dc:title>Matplotlib v3.7.1, https://matplotlib.org/</dc:title>
     </cc:Agent>
    </dc:creator>
   </cc:Work>
  </rdf:RDF>
 </metadata>
 <defs>
  <style type="text/css">*{stroke-linejoin: round; stroke-linecap: butt}</style>
 </defs>
 <g id="figure_1">
  <g id="patch_1">
   <path d="M 0 144 
L 489.6 144 
L 489.6 0 
L 0 0 
z
" style="fill: #ffffff"/>
  </g>
  <g id="axes_1">
   <g id="patch_2">
    <path d="M 43.2 108 
L 165.6 108 
L 165.6 7.2 
L 43.2 7.2 
z
" style="fill: #ffffff"/>
   </g>
   <g id="matplotlib.axis_1">
    <g id="xtick_1">
     <g id="line2d_1">
      <defs>
       <path id="m039ca32c6c" d="M 0 0 
L 0 3.5 
" style="stroke: #000000; stroke-width: 0.8"/>
      </defs>
      <g>
       <use xlink:href="#m039ca32c6c" x="48.763636" y="108" style="stroke: #000000; stroke-width: 0.8"/>
      </g>
     </g>
     <g id="text_1">
      <text style="font: 8px 'Carlito', sans-serif; text-anchor: middle" x="48.763636" y="120.555" transform="rotate(-0 48.763636 120.555)">0.00</text>
     </g>
    </g>
    <g id="xtick_2">
     <g id="line2d_2">
      <g>
       <use xlink:href="#m039ca32c6c" x="76.581818" y="108" style="stroke: #000000; stroke-width: 0.8"/>
      </g>
     </g>
     <g id="text_2">
      <text style="font: 8px 'Carlito', sans-serif; text-anchor: middle" x="76.581818" y="120.555" transform="rotate(-0 76.581818 120.555)">0.25</text>
     </g>
    </g>
    <g id="xtick_3">
     <g id="line2d_3">
      <g>
       <use xlink:href="#m039ca32c6c" x="104.4" y="108" style="stroke: #000000; stroke-width: 0.8"/>
      </g>
     </g>
     <g id="text_3">
      <text style="font: 8px 'Carlito', sans-serif; text-anchor: middle" x="104.4" y="120.555" transform="rotate(-0 104.4 120.555)">0.50</text>
     </g>
    </g>
    <g id="xtick_4">
     <g id="line2d_4">
      <g>
       <use xlink:href="#m039ca32c6c" x="132.218182" y="108" style="stroke: #000000; stroke-width: 0.8"/>
      </g>
     </g>
     <g id="text_4">
      <text style="font: 8px 'Carlito', sans-serif; text-anchor: middle" x="132.218182" y="120.555" transform="rotate(-0 132.218182 120.555)">0.75</text>
     </g>
    </g>
    <g id="xtick_5">
     <g id="line2d_5">
      <g>
       <use xlink:href="#m039ca32c6c" x="160.036364" y="108" style="stroke: #000000; stroke-width: 0.8"/>
      </g>
     </g>
     <g id="text_5">
      <text style="font: 8px 'Carlito', sans-serif; text-anchor: middle" x="160.036364" y="120.555" transform="rotate(-0 160.036364 120.555)">1.00</text>
     </g>
    </g>
    <g id="text_6">
     <!-- probability of sending a front $q$ -->
     <g transform="translate(54.12 131.44375)">
      <text>
       <tspan style="font: 8px 'Carlito'" x="0 4.203125 6.992188 11.210938 15.414062 19.246094 23.449219 25.285156 27.121094 28.957031 31.636719 35.257812 37.066406 41.285156 43.726562 45.535156 48.664062 52.644531 56.847656 61.050781 62.886719 67.089844 70.855469 72.664062 76.496094 78.304688 80.746094 83.535156 87.753906 91.957031 94.636719" y="-0.4375">probability of sending a front </tspan>
       <tspan style="font: italic 8px 'Carlito'" x="96.445312" y="-0.4375">q</tspan>
      </text>
     </g>
    </g>
   </g>
   <g id="matplotlib.axis_2">
    <g id="ytick_1">
     <g id="line2d_6">
      <defs>
       <path id="m1c21ed77aa" d="M 0 0 
L -3.5 0 
" style="stroke: #000000; stroke-width: 0.8"/>
      </defs>
      <g>
       <use xlink:href="#m1c21ed77aa" x="43.2" y="103.418182" style="stroke: #000000; stroke-width: 0.8"/>
      </g>
     </g>
     <g id="text_7">
      <text style="font: 8px 'Carlito', sans-serif; text-anchor: end" x="36.2" y="106.195682" transform="rotate(-0 36.2 106.195682)">0.0</text>
     </g>
    </g>
    <g id="ytick_2">
     <g id="line2d_7">
      <g>
       <use xlink:href="#m1c21ed77aa" x="43.2" y="85.090909" style="stroke: #000000; stroke-width: 0.8"/>
      </g>
     </g>
     <g id="text_8">
      <text style="font: 8px 'Carlito', sans-serif; text-anchor: end" x="36.2" y="87.868409" transform="rotate(-0 36.2 87.868409)">0.2</text>
     </g>
    </g>
    <g id="ytick_3">
     <g id="line2d_8">
      <g>
       <use xlink:href="#m1c21ed77aa" x="43.2" y="66.763636" style="stroke: #000000; stroke-width: 0.8"/>
      </g>
     </g>
     <g id="text_9">
      <text style="font: 8px 'Carlito', sans-serif; text-anchor: end" x="36.2" y="69.541136" transform="rotate(-0 36.2 69.541136)">0.4</text>
     </g>
    </g>
    <g id="ytick_4">
     <g id="line2d_9">
      <g>
       <use xlink:href="#m1c21ed77aa" x="43.2" y="48.436364" style="stroke: #000000; stroke-width: 0.8"/>
      </g>
     </g>
     <g id="text_10">
      <text style="font: 8px 'Carlito', sans-serif; text-anchor: end" x="36.2" y="51.213864" transform="rotate(-0 36.2 51.213864)">0.6</text>
     </g>
    </g>
    <g id="ytick_5">
     <g id="line2d_10">
      <g>
       <use xlink:href="#m1c21ed77aa" x="43.2" y="30.109091" style="stroke: #000000; stroke-width: 0.8"/>
      </g>
     </g>
     <g id="text_11">
      <text style="font: 8px 'Carlito', sans-serif; text-anchor: end" x="36.2" y="32.886591" transform="rotate(-0 36.2 32.886591)">0.8</text>
     </g>
    </g>
    <g id="ytick_6">
     <g id="line2d_11">
      <g>
       <use xlink:href="#m1c21ed77aa" x="43.2" y="11.781818" style="stroke: #000000; stroke-width: 0.8"/>
      </g>
     </g>
     <g id="text_12">
      <text style="font: 8px 'Carlito', sans-serif; text-anchor: end" x="36.2" y="14.559318" transform="rotate(-0 36.2 14.559318)">1.0</text>
     </g>
    </g>
    <g id="text_13">
     <text style="font: 8px 'Carlito', sans-serif; text-anchor: middle" x="20.78125" y="57.6" transform="rotate(-90 20.78125 57.6)">MI per slot [bit]</text>
    </g>
   </g>
   <g id="line2d_12">
    <path d="M 48.763636 103.418182 
L 49.876364 96.014593 
L 50.989091 90.457085 
L 52.101818 85.604819 
L 53.214545 81.215407 
L 54.327273 77.173806 
L 55.44 73.41232 
L 56.552727 69.886269 
L 57.665455 66.563943 
L 58.778182 63.421675 
L 59.890909 60.441131 
L 61.003636 57.607701 
L 62.116364 54.909477 
L 63.229091 52.336574 
L 64.341818 49.880662 
L 65.454545 47.534634 
L 66.567273 45.292361 
L 67.68 43.148508 
L 68.792727 41.098394 
L 69.905455 39.137888 
L 71.018182 37.263316 
L 72.130909 35.4714 
L 73.243636 33.759196 
L 74.356364 32.124055 
L 75.469091 30.563582 
L 76.581818 29.075605 
L 77.694545 27.658151 
L 78.807273 26.309422 
L 79.92 25.02778 
L 81.032727 23.811726 
L 82.145455 22.659889 
L 83.258182 21.571014 
L 84.370909 20.543954 
L 85.483636 19.577656 
L 86.596364 18.671159 
L 87.709091 17.823582 
L 88.821818 17.034122 
L 89.934545 16.302048 
L 91.047273 15.626695 
L 92.16 15.00746 
L 93.272727 14.4438 
L 94.385455 13.93523 
L 95.498182 13.481316 
L 96.610909 13.081677 
L 97.723636 12.73598 
L 98.836364 12.443941 
L 99.949091 12.205321 
L 101.061818 12.019927 
L 102.174545 11.887609 
L 103.287273 11.808261 
L 104.4 11.781818 
L 105.512727 11.808261 
L 106.625455 11.887609 
L 107.738182 12.019927 
L 108.850909 12.205321 
L 109.963636 12.443941 
L 111.076364 12.73598 
L 112.189091 13.081677 
L 113.301818 13.481316 
L 114.414545 13.93523 
L 115.527273 14.4438 
L 116.64 15.00746 
L 117.752727 15.626695 
L 118.865455 16.302048 
L 119.978182 17.034122 
L 121.090909 17.823582 
L 122.203636 18.671159 
L 123.316364 19.577656 
L 124.429091 20.543954 
L 125.541818 21.571014 
L 126.654545 22.659889 
L 127.767273 23.811726 
L 128.88 25.02778 
L 129.992727 26.309422 
L 131.105455 27.658151 
L 132.218182 29.075605 
L 133.330909 30.563582 
L 134.443636 32.124055 
L 135.556364 33.759196 
L 136.669091 35.4714 
L 137.781818 37.263316 
L 138.894545 39.137888 
L 140.007273 41.098394 
L 141.12 43.148508 
L 142.232727 45.292361 
L 143.345455 47.534634 
L 144.458182 49.880662 
L 145.570909 52.336574 
L 146.683636 54.909477 
L 147.796364 57.607701 
L 148.909091 60.441131 
L 150.021818 63.421675 
L 151.134545 66.563943 
L 152.247273 69.886269 
L 153.36 73.41232 
L 154.472727 77.173806 
L 155.585455 81.215407 
L 156.698182 85.604819 
L 157.810909 90.457085 
L 158.923636 96.014593 
L 160.036364 103.418182 
" clip-path="url(#p5ef6ddc42f)" style="fill: none; stroke: #440154; stroke-width: 1.5; stroke-linecap: square"/>
   </g>
   <g id="line2d_13">
    <path d="M 48.763636 103.418182 
L 49.876364 97.058762 
L 50.989091 92.359603 
L 52.101818 88.293925 
L 53.214545 84.643555 
L 54.327273 81.304929 
L 55.44 78.217095 
L 56.552727 75.339815 
L 57.665455 72.644522 
L 58.778182 70.109886 
L 59.890909 67.71938 
L 61.003636 65.459824 
L 62.116364 63.320469 
L 63.229091 61.292386 
L 64.341818 59.368047 
L 65.454545 57.541021 
L 66.567273 55.805755 
L 67.68 54.157413 
L 68.792727 52.591744 
L 69.905455 51.10499 
L 71.018182 49.693805 
L 72.130909 48.355195 
L 73.243636 47.08647 
L 74.356364 45.885199 
L 75.469091 44.74918 
L 76.581818 43.676411 
L 77.694545 42.665065 
L 78.807273 41.713474 
L 79.92 40.820106 
L 81.032727 39.983558 
L 82.145455 39.202538 
L 83.258182 38.475855 
L 84.370909 37.802413 
L 85.483636 37.1812 
L 86.596364 36.611281 
L 87.709091 36.091793 
L 88.821818 35.621937 
L 89.934545 35.200978 
L 91.047273 34.828236 
L 92.16 34.503083 
L 93.272727 34.224943 
L 94.385455 33.993284 
L 95.498182 33.807619 
L 96.610909 33.667503 
L 97.723636 33.572529 
L 98.836364 33.52233 
L 99.949091 33.516571 
L 101.061818 33.554955 
L 102.174545 33.637216 
L 103.287273 33.763121 
L 104.4 33.932466 
L 105.512727 34.145081 
L 106.625455 34.400822 
L 107.738182 34.699576 
L 108.850909 35.041256 
L 109.963636 35.425806 
L 111.076364 35.853197 
L 112.189091 36.323427 
L 113.301818 36.836522 
L 114.414545 37.392536 
L 115.527273 37.991552 
L 116.64 38.63368 
L 117.752727 39.319059 
L 118.865455 40.047859 
L 119.978182 40.820279 
L 121.090909 41.636549 
L 122.203636 42.49693 
L 123.316364 43.401716 
L 124.429091 44.351239 
L 125.541818 45.34586 
L 126.654545 46.385984 
L 127.767273 47.47205 
L 128.88 48.604542 
L 129.992727 49.783984 
L 131.105455 51.01095 
L 132.218182 52.28606 
L 133.330909 53.609988 
L 134.443636 54.983465 
L 135.556364 56.40728 
L 136.669091 57.88229 
L 137.781818 59.409421 
L 138.894545 60.989676 
L 140.007273 62.624143 
L 141.12 64.314001 
L 142.232727 66.060529 
L 143.345455 67.865119 
L 144.458182 69.729286 
L 145.570909 71.654684 
L 146.683636 73.643121 
L 147.796364 75.696578 
L 148.909091 77.817234 
L 150.021818 80.007492 
L 151.134545 82.270012 
L 152.247273 84.607752 
L 153.36 87.024017 
L 154.472727 89.522514 
L 155.585455 92.107435 
L 156.698182 94.783547 
L 157.810909 97.556315 
L 158.923636 100.432061 
L 160.036364 103.418182 
" clip-path="url(#p5ef6ddc42f)" style="fill: none; stroke: #482475; stroke-width: 1.5; stroke-linecap: square"/>
   </g>
   <g id="line2d_14">
    <path d="M 48.763636 103.418182 
L 49.876364 97.919793 
L 50.989091 93.896114 
L 52.101818 90.434436 
L 53.214545 87.340807 
L 54.327273 84.52315 
L 55.44 81.927266 
L 56.552727 79.517365 
L 57.665455 77.268036 
L 58.778182 75.160295 
L 59.890909 73.17943 
L 61.003636 71.313701 
L 62.116364 69.55353 
L 63.229091 67.890957 
L 64.341818 66.319263 
L 65.454545 64.832707 
L 66.567273 63.426326 
L 67.68 62.095794 
L 68.792727 60.837303 
L 69.905455 59.647485 
L 71.018182 58.523334 
L 72.130909 57.462159 
L 73.243636 56.461537 
L 74.356364 55.519273 
L 75.469091 54.633377 
L 76.581818 53.802033 
L 77.694545 53.023581 
L 78.807273 52.296501 
L 79.92 51.619394 
L 81.032727 50.990971 
L 82.145455 50.410041 
L 83.258182 49.875506 
L 84.370909 49.386345 
L 85.483636 48.941613 
L 86.596364 48.540431 
L 87.709091 48.181983 
L 88.821818 47.865509 
L 89.934545 47.5903 
L 91.047273 47.355699 
L 92.16 47.161089 
L 93.272727 47.0059 
L 94.385455 46.889597 
L 95.498182 46.811683 
L 96.610909 46.771696 
L 97.723636 46.769206 
L 98.836364 46.803812 
L 99.949091 46.875143 
L 101.061818 46.982856 
L 102.174545 47.126634 
L 103.287273 47.306182 
L 104.4 47.521233 
L 105.512727 47.77154 
L 106.625455 48.056878 
L 107.738182 48.377046 
L 108.850909 48.731859 
L 109.963636 49.121156 
L 111.076364 49.544793 
L 112.189091 50.002645 
L 113.301818 50.494608 
L 114.414545 51.020592 
L 115.527273 51.580528 
L 116.64 52.174364 
L 117.752727 52.802065 
L 118.865455 53.463614 
L 119.978182 54.15901 
L 121.090909 54.888272 
L 122.203636 55.651433 
L 123.316364 56.448546 
L 124.429091 57.279681 
L 125.541818 58.144925 
L 126.654545 59.044386 
L 127.767273 59.978186 
L 128.88 60.94647 
L 129.992727 61.9494 
L 131.105455 62.987159 
L 132.218182 64.059949 
L 133.330909 65.167996 
L 134.443636 66.311544 
L 135.556364 67.490865 
L 136.669091 68.706249 
L 137.781818 69.958015 
L 138.894545 71.246506 
L 140.007273 72.572094 
L 141.12 73.935178 
L 142.232727 75.336189 
L 143.345455 76.775589 
L 144.458182 78.253876 
L 145.570909 79.771583 
L 146.683636 81.329282 
L 147.796364 82.927587 
L 148.909091 84.567159 
L 150.021818 86.248705 
L 151.134545 87.972984 
L 152.247273 89.740813 
L 153.36 91.553071 
L 154.472727 93.410704 
L 155.585455 95.31473 
L 156.698182 97.266251 
L 157.810909 99.266456 
L 158.923636 101.316633 
L 160.036364 103.418182 
" clip-path="url(#p5ef6ddc42f)" style="fill: none; stroke: #414487; stroke-width: 1.5; stroke-linecap: square"/>
   </g>
   <g id="line2d_15">
    <path d="M 48.763636 103.418182 
L 49.876364 98.711781 
L 50.989091 95.294813 
L 52.101818 92.368641 
L 53.214545 89.763543 
L 54.327273 87.398938 
L 55.44 85.227384 
L 56.552727 83.217552 
L 57.665455 81.347188 
L 58.778182 79.599668 
L 59.890909 77.962098 
L 61.003636 76.424192 
L 62.116364 74.977549 
L 63.229091 73.615187 
L 64.341818 72.331208 
L 65.454545 71.120569 
L 66.567273 69.978909 
L 67.68 68.90242 
L 68.792727 67.887753 
L 69.905455 66.931936 
L 71.018182 66.03232 
L 72.130909 65.186527 
L 73.243636 64.392414 
L 74.356364 63.648036 
L 75.469091 62.951628 
L 76.581818 62.301577 
L 77.694545 61.696404 
L 78.807273 61.134753 
L 79.92 60.615373 
L 81.032727 60.137108 
L 82.145455 59.698888 
L 83.258182 59.299721 
L 84.370909 58.938686 
L 85.483636 58.614922 
L 86.596364 58.32763 
L 87.709091 58.076061 
L 88.821818 57.859517 
L 89.934545 57.677343 
L 91.047273 57.528926 
L 92.16 57.413691 
L 93.272727 57.331098 
L 94.385455 57.28064 
L 95.498182 57.261841 
L 96.610909 57.274254 
L 97.723636 57.317458 
L 98.836364 57.391057 
L 99.949091 57.49468 
L 101.061818 57.627977 
L 102.174545 57.79062 
L 103.287273 57.982301 
L 104.4 58.202728 
L 105.512727 58.451632 
L 106.625455 58.728758 
L 107.738182 59.033866 
L 108.850909 59.366736 
L 109.963636 59.727159 
L 111.076364 60.114942 
L 112.189091 60.529907 
L 113.301818 60.971886 
L 114.414545 61.440728 
L 115.527273 61.936292 
L 116.64 62.458449 
L 117.752727 63.007084 
L 118.865455 63.58209 
L 119.978182 64.183376 
L 121.090909 64.810857 
L 122.203636 65.464463 
L 123.316364 66.144133 
L 124.429091 66.849814 
L 125.541818 67.581469 
L 126.654545 68.339066 
L 127.767273 69.122586 
L 128.88 69.93202 
L 129.992727 70.767368 
L 131.105455 71.628642 
L 132.218182 72.515861 
L 133.330909 73.429059 
L 134.443636 74.368275 
L 135.556364 75.333563 
L 136.669091 76.324985 
L 137.781818 77.342615 
L 138.894545 78.386535 
L 140.007273 79.456842 
L 141.12 80.553642 
L 142.232727 81.677054 
L 143.345455 82.827206 
L 144.458182 84.004242 
L 145.570909 85.208316 
L 146.683636 86.439596 
L 147.796364 87.698263 
L 148.909091 88.984512 
L 150.021818 90.298553 
L 151.134545 91.64061 
L 152.247273 93.010924 
L 153.36 94.409752 
L 154.472727 95.837368 
L 155.585455 97.294064 
L 156.698182 98.780151 
L 157.810909 100.295961 
L 158.923636 101.841846 
L 160.036364 103.418182 
" clip-path="url(#p5ef6ddc42f)" style="fill: none; stroke: #355f8d; stroke-width: 1.5; stroke-linecap: square"/>
   </g>
   <g id="line2d_16">
    <path d="M 48.763636 103.418182 
L 49.876364 99.45898 
L 50.989091 96.604203 
L 52.101818 94.169294 
L 53.214545 92.008765 
L 54.327273 90.053538 
L 55.44 88.262936 
L 56.552727 86.610093 
L 57.665455 85.075924 
L 58.778182 83.646167 
L 59.890909 82.309758 
L 61.003636 81.057868 
L 62.116364 79.883283 
L 63.229091 78.780006 
L 64.341818 77.742968 
L 65.454545 76.767832 
L 66.567273 75.850847 
L 67.68 74.988736 
L 68.792727 74.178611 
L 69.905455 73.417913 
L 71.018182 72.704353 
L 72.130909 72.03588 
L 73.243636 71.410639 
L 74.356364 70.826949 
L 75.469091 70.283279 
L 76.581818 69.778229 
L 77.694545 69.310516 
L 78.807273 68.878958 
L 79.92 68.482465 
L 81.032727 68.120027 
L 82.145455 67.790709 
L 83.258182 67.493641 
L 84.370909 67.228011 
L 85.483636 66.993065 
L 86.596364 66.788093 
L 87.709091 66.612433 
L 88.821818 66.465465 
L 89.934545 66.346604 
L 91.047273 66.255302 
L 92.16 66.191041 
L 93.272727 66.153334 
L 94.385455 66.141723 
L 95.498182 66.155772 
L 96.610909 66.195072 
L 97.723636 66.259235 
L 98.836364 66.347894 
L 99.949091 66.460701 
L 101.061818 66.597327 
L 102.174545 66.75746 
L 103.287273 66.940805 
L 104.4 67.147079 
L 105.512727 67.376019 
L 106.625455 67.62737 
L 107.738182 67.900895 
L 108.850909 68.196365 
L 109.963636 68.513566 
L 111.076364 68.852293 
L 112.189091 69.212354 
L 113.301818 69.593565 
L 114.414545 69.995752 
L 115.527273 70.418751 
L 116.64 70.862408 
L 117.752727 71.326577 
L 118.865455 71.811118 
L 119.978182 72.315902 
L 121.090909 72.840808 
L 122.203636 73.385719 
L 123.316364 73.950529 
L 124.429091 74.535138 
L 125.541818 75.139451 
L 126.654545 75.763383 
L 127.767273 76.406853 
L 128.88 77.069786 
L 129.992727 77.752117 
L 131.105455 78.453782 
L 132.218182 79.174727 
L 133.330909 79.914902 
L 134.443636 80.674264 
L 135.556364 81.452773 
L 136.669091 82.250399 
L 137.781818 83.067114 
L 138.894545 83.902898 
L 140.007273 84.757734 
L 141.12 85.631613 
L 142.232727 86.524529 
L 143.345455 87.436485 
L 144.458182 88.367486 
L 145.570909 89.317544 
L 146.683636 90.286677 
L 147.796364 91.274908 
L 148.909091 92.282265 
L 150.021818 93.308782 
L 151.134545 94.354499 
L 152.247273 95.419463 
L 153.36 96.503724 
L 154.472727 97.607339 
L 155.585455 98.730373 
L 156.698182 99.872895 
L 157.810909 101.034982 
L 158.923636 102.216714 
L 160.036364 103.418182 
" clip-path="url(#p5ef6ddc42f)" style="fill: none; stroke: #2a788e; stroke-width: 1.5; stroke-linecap: square"/>
   </g>
   <g id="line2d_17">
    <path d="M 48.763636 103.418182 
L 49.876364 100.172908 
L 50.989091 97.84732 
L 52.101818 95.870946 
L 53.214545 94.122539 
L 54.327273 92.544526 
L 55.44 91.103001 
L 56.552727 89.775568 
L 57.665455 88.546316 
L 58.778182 87.40335 
L 59.890909 86.337442 
L 61.003636 85.341227 
L 62.116364 84.408684 
L 63.229091 83.534806 
L 64.341818 82.71536 
L 65.454545 81.946724 
L 66.567273 81.225761 
L 67.68 80.549732 
L 68.792727 79.91622 
L 69.905455 79.323083 
L 71.018182 78.768404 
L 72.130909 78.250462 
L 73.243636 77.767701 
L 74.356364 77.318711 
L 75.469091 76.902204 
L 76.581818 76.517004 
L 77.694545 76.162028 
L 78.807273 75.836281 
L 79.92 75.538843 
L 81.032727 75.268861 
L 82.145455 75.025543 
L 83.258182 74.808151 
L 84.370909 74.615997 
L 85.483636 74.448438 
L 86.596364 74.304871 
L 87.709091 74.184731 
L 88.821818 74.087485 
L 89.934545 74.012634 
L 91.047273 73.959706 
L 92.16 73.928256 
L 93.272727 73.917862 
L 94.385455 73.928127 
L 95.498182 73.958673 
L 96.610909 74.009142 
L 97.723636 74.079196 
L 98.836364 74.168512 
L 99.949091 74.276782 
L 101.061818 74.403716 
L 102.174545 74.549036 
L 103.287273 74.712477 
L 104.4 74.893786 
L 105.512727 75.092724 
L 106.625455 75.30906 
L 107.738182 75.542574 
L 108.850909 75.793059 
L 109.963636 76.060312 
L 111.076364 76.344144 
L 112.189091 76.64437 
L 113.301818 76.960817 
L 114.414545 77.293316 
L 115.527273 77.641707 
L 116.64 78.005837 
L 117.752727 78.385559 
L 118.865455 78.780734 
L 119.978182 79.191226 
L 121.090909 79.616908 
L 122.203636 80.057656 
L 123.316364 80.513353 
L 124.429091 80.983886 
L 125.541818 81.469148 
L 126.654545 81.969036 
L 127.767273 82.483453 
L 128.88 83.012304 
L 129.992727 83.555501 
L 131.105455 84.112957 
L 132.218182 84.684593 
L 133.330909 85.270331 
L 134.443636 85.870098 
L 135.556364 86.483823 
L 136.669091 87.111442 
L 137.781818 87.752891 
L 138.894545 88.408112 
L 140.007273 89.077048 
L 141.12 89.759648 
L 142.232727 90.455861 
L 143.345455 91.165643 
L 144.458182 91.888949 
L 145.570909 92.625741 
L 146.683636 93.37598 
L 147.796364 94.139633 
L 148.909091 94.916668 
L 150.021818 95.707058 
L 151.134545 96.510776 
L 152.247273 97.3278 
L 153.36 98.158109 
L 154.472727 99.001687 
L 155.585455 99.858518 
L 156.698182 100.728591 
L 157.810909 101.611897 
L 158.923636 102.508428 
L 160.036364 103.418182 
" clip-path="url(#p5ef6ddc42f)" style="fill: none; stroke: #21918c; stroke-width: 1.5; stroke-linecap: square"/>
   </g>
   <g id="line2d_18">
    <path d="M 48.763636 103.418182 
L 49.876364 100.860349 
L 50.989091 99.037732 
L 52.101818 97.493947 
L 53.214545 96.131992 
L 54.327273 94.905804 
L 55.44 93.788253 
L 56.552727 92.761418 
L 57.665455 91.812563 
L 58.778182 90.932167 
L 59.890909 90.112845 
L 61.003636 89.348696 
L 62.116364 88.634899 
L 63.229091 87.967444 
L 64.341818 87.342938 
L 65.454545 86.758477 
L 66.567273 86.211547 
L 67.68 85.69995 
L 68.792727 85.221746 
L 69.905455 84.775216 
L 71.018182 84.35882 
L 72.130909 83.971174 
L 73.243636 83.61103 
L 74.356364 83.277249 
L 75.469091 82.968798 
L 76.581818 82.684726 
L 77.694545 82.424164 
L 78.807273 82.186305 
L 79.92 81.970409 
L 81.032727 81.775785 
L 82.145455 81.601792 
L 83.258182 81.447833 
L 84.370909 81.31335 
L 85.483636 81.197821 
L 86.596364 81.100756 
L 87.709091 81.021695 
L 88.821818 80.960205 
L 89.934545 80.915877 
L 91.047273 80.888325 
L 92.16 80.877186 
L 93.272727 80.882114 
L 94.385455 80.902781 
L 95.498182 80.938878 
L 96.610909 80.990109 
L 97.723636 81.056194 
L 98.836364 81.136866 
L 99.949091 81.23187 
L 101.061818 81.340962 
L 102.174545 81.463912 
L 103.287273 81.600498 
L 104.4 81.750507 
L 105.512727 81.913738 
L 106.625455 82.089995 
L 107.738182 82.279093 
L 108.850909 82.480854 
L 109.963636 82.695106 
L 111.076364 82.921685 
L 112.189091 83.160434 
L 113.301818 83.411201 
L 114.414545 83.67384 
L 115.527273 83.948211 
L 116.64 84.234179 
L 117.752727 84.531614 
L 118.865455 84.840392 
L 119.978182 85.160392 
L 121.090909 85.491499 
L 122.203636 85.833599 
L 123.316364 86.186587 
L 124.429091 86.550357 
L 125.541818 86.924809 
L 126.654545 87.309847 
L 127.767273 87.705378 
L 128.88 88.111312 
L 129.992727 88.527561 
L 131.105455 88.954043 
L 132.218182 89.390675 
L 133.330909 89.83738 
L 134.443636 90.294082 
L 135.556364 90.76071 
L 136.669091 91.237191 
L 137.781818 91.723459 
L 138.894545 92.219448 
L 140.007273 92.725095 
L 141.12 93.240339 
L 142.232727 93.76512 
L 143.345455 94.299383 
L 144.458182 94.843072 
L 145.570909 95.396135 
L 146.683636 95.958521 
L 147.796364 96.53018 
L 148.909091 97.111066 
L 150.021818 97.701132 
L 151.134545 98.300336 
L 152.247273 98.908635 
L 153.36 99.525988 
L 154.472727 100.152357 
L 155.585455 100.787705 
L 156.698182 101.431994 
L 157.810909 102.085192 
L 158.923636 102.747265 
L 160.036364 103.418182 
" clip-path="url(#p5ef6ddc42f)" style="fill: none; stroke: #22a884; stroke-width: 1.5; stroke-linecap: square"/>
   </g>
   <g id="line2d_19">
    <path d="M 48.763636 103.418182 
L 49.876364 101.525786 
L 50.989091 100.184402 
L 52.101818 99.051741 
L 53.214545 98.055047 
L 54.327273 97.15977 
L 55.44 96.34556 
L 56.552727 95.598973 
L 57.665455 94.910454 
L 58.778182 94.27286 
L 59.890909 93.680648 
L 61.003636 93.12939 
L 62.116364 92.615468 
L 63.229091 92.135869 
L 64.341818 91.688047 
L 65.454545 91.269821 
L 66.567273 90.879301 
L 67.68 90.514834 
L 68.792727 90.174965 
L 69.905455 89.858399 
L 71.018182 89.563979 
L 72.130909 89.290663 
L 73.243636 89.03751 
L 74.356364 88.803665 
L 75.469091 88.588348 
L 76.581818 88.390843 
L 77.694545 88.210493 
L 78.807273 88.046691 
L 79.92 87.898876 
L 81.032727 87.766529 
L 82.145455 87.649163 
L 83.258182 87.546328 
L 84.370909 87.4576 
L 85.483636 87.382585 
L 86.596364 87.320911 
L 87.709091 87.272228 
L 88.821818 87.236208 
L 89.934545 87.21254 
L 91.047273 87.200931 
L 92.16 87.201104 
L 93.272727 87.212794 
L 94.385455 87.235753 
L 95.498182 87.269743 
L 96.610909 87.314539 
L 97.723636 87.369924 
L 98.836364 87.435695 
L 99.949091 87.511656 
L 101.061818 87.59762 
L 102.174545 87.693408 
L 103.287273 87.79885 
L 104.4 87.913781 
L 105.512727 88.038044 
L 106.625455 88.171489 
L 107.738182 88.313972 
L 108.850909 88.465353 
L 109.963636 88.625499 
L 111.076364 88.794282 
L 112.189091 88.971577 
L 113.301818 89.157266 
L 114.414545 89.351234 
L 115.527273 89.55337 
L 116.64 89.763568 
L 117.752727 89.981724 
L 118.865455 90.207739 
L 119.978182 90.441517 
L 121.090909 90.682965 
L 122.203636 90.931992 
L 123.316364 91.188513 
L 124.429091 91.452442 
L 125.541818 91.723699 
L 126.654545 92.002205 
L 127.767273 92.287883 
L 128.88 92.580659 
L 129.992727 92.880461 
L 131.105455 93.18722 
L 132.218182 93.500868 
L 133.330909 93.82134 
L 134.443636 94.148571 
L 135.556364 94.482501 
L 136.669091 94.823069 
L 137.781818 95.170216 
L 138.894545 95.523887 
L 140.007273 95.884027 
L 141.12 96.250581 
L 142.232727 96.623498 
L 143.345455 97.002728 
L 144.458182 97.38822 
L 145.570909 97.779929 
L 146.683636 98.177806 
L 147.796364 98.581806 
L 148.909091 98.991886 
L 150.021818 99.408003 
L 151.134545 99.830116 
L 152.247273 100.258182 
L 153.36 100.692164 
L 154.472727 101.132022 
L 155.585455 101.577719 
L 156.698182 102.029218 
L 157.810909 102.486485 
L 158.923636 102.949484 
L 160.036364 103.418182 
" clip-path="url(#p5ef6ddc42f)" style="fill: none; stroke: #44bf70; stroke-width: 1.5; stroke-linecap: square"/>
   </g>
   <g id="line2d_20">
    <path d="M 48.763636 103.418182 
L 49.876364 102.172405 
L 50.989091 101.293703 
L 52.101818 100.553882 
L 53.214545 99.904439 
L 54.327273 99.322336 
L 55.44 98.794007 
L 56.552727 98.310488 
L 57.665455 97.865406 
L 58.778182 97.454 
L 59.890909 97.072571 
L 61.003636 96.718167 
L 62.116364 96.388374 
L 63.229091 96.081182 
L 64.341818 95.794892 
L 65.454545 95.528049 
L 66.567273 95.27939 
L 67.68 95.047815 
L 68.792727 94.832349 
L 69.905455 94.632128 
L 71.018182 94.44638 
L 72.130909 94.274408 
L 73.243636 94.115584 
L 74.356364 93.969336 
L 75.469091 93.835141 
L 76.581818 93.712522 
L 77.694545 93.601039 
L 78.807273 93.500286 
L 79.92 93.409887 
L 81.032727 93.329493 
L 82.145455 93.25878 
L 83.258182 93.197444 
L 84.370909 93.145203 
L 85.483636 93.101791 
L 86.596364 93.066959 
L 87.709091 93.040472 
L 88.821818 93.022109 
L 89.934545 93.011662 
L 91.047273 93.008932 
L 92.16 93.013734 
L 93.272727 93.025889 
L 94.385455 93.045231 
L 95.498182 93.071598 
L 96.610909 93.104838 
L 97.723636 93.144806 
L 98.836364 93.191364 
L 99.949091 93.24438 
L 101.061818 93.303726 
L 102.174545 93.369282 
L 103.287273 93.440931 
L 104.4 93.518564 
L 105.512727 93.602072 
L 106.625455 93.691354 
L 107.738182 93.786312 
L 108.850909 93.88685 
L 109.963636 93.992877 
L 111.076364 94.104307 
L 112.189091 94.221053 
L 113.301818 94.343036 
L 114.414545 94.470175 
L 115.527273 94.602396 
L 116.64 94.739625 
L 117.752727 94.881791 
L 118.865455 95.028825 
L 119.978182 95.180662 
L 121.090909 95.337236 
L 122.203636 95.498486 
L 123.316364 95.664352 
L 124.429091 95.834775 
L 125.541818 96.009698 
L 126.654545 96.189067 
L 127.767273 96.372829 
L 128.88 96.56093 
L 129.992727 96.753322 
L 131.105455 96.949956 
L 132.218182 97.150783 
L 133.330909 97.355758 
L 134.443636 97.564835 
L 135.556364 97.777972 
L 136.669091 97.995125 
L 137.781818 98.216253 
L 138.894545 98.441316 
L 140.007273 98.670274 
L 141.12 98.90309 
L 142.232727 99.139725 
L 143.345455 99.380143 
L 144.458182 99.624309 
L 145.570909 99.872189 
L 146.683636 100.123748 
L 147.796364 100.378954 
L 148.909091 100.637773 
L 150.021818 100.900176 
L 151.134545 101.16613 
L 152.247273 101.435607 
L 153.36 101.708577 
L 154.472727 101.98501 
L 155.585455 102.26488 
L 156.698182 102.548158 
L 157.810909 102.834819 
L 158.923636 103.124835 
L 160.036364 103.418182 
" clip-path="url(#p5ef6ddc42f)" style="fill: none; stroke: #7ad151; stroke-width: 1.5; stroke-linecap: square"/>
   </g>
   <g id="line2d_21">
    <path d="M 48.763636 103.418182 
L 49.876364 102.802587 
L 50.989091 102.370397 
L 52.101818 102.007515 
L 53.214545 101.689688 
L 54.327273 101.405397 
L 55.44 101.147859 
L 56.552727 100.912592 
L 57.665455 100.696408 
L 58.778182 100.496926 
L 59.890909 100.312298 
L 61.003636 100.141045 
L 62.116364 99.981961 
L 63.229091 99.834041 
L 64.341818 99.696434 
L 65.454545 99.568413 
L 66.567273 99.449345 
L 67.68 99.33868 
L 68.792727 99.235931 
L 69.905455 99.140665 
L 71.018182 99.052495 
L 72.130909 98.971073 
L 73.243636 98.896083 
L 74.356364 98.82724 
L 75.469091 98.764282 
L 76.581818 98.70697 
L 77.694545 98.655083 
L 78.807273 98.608417 
L 79.92 98.566785 
L 81.032727 98.530012 
L 82.145455 98.497934 
L 83.258182 98.4704 
L 84.370909 98.447268 
L 85.483636 98.428405 
L 86.596364 98.413685 
L 87.709091 98.402991 
L 88.821818 98.396211 
L 89.934545 98.393242 
L 91.047273 98.393983 
L 92.16 98.398341 
L 93.272727 98.406227 
L 94.385455 98.417556 
L 95.498182 98.432248 
L 96.610909 98.450225 
L 97.723636 98.471416 
L 98.836364 98.49575 
L 99.949091 98.52316 
L 101.061818 98.553583 
L 102.174545 98.586958 
L 103.287273 98.623226 
L 104.4 98.662331 
L 105.512727 98.70422 
L 106.625455 98.748841 
L 107.738182 98.796143 
L 108.850909 98.84608 
L 109.963636 98.898605 
L 111.076364 98.953673 
L 112.189091 99.011242 
L 113.301818 99.071271 
L 114.414545 99.13372 
L 115.527273 99.198551 
L 116.64 99.265725 
L 117.752727 99.335207 
L 118.865455 99.406963 
L 119.978182 99.480959 
L 121.090909 99.557161 
L 122.203636 99.635539 
L 123.316364 99.716062 
L 124.429091 99.798699 
L 125.541818 99.883423 
L 126.654545 99.970205 
L 127.767273 100.059017 
L 128.88 100.149834 
L 129.992727 100.24263 
L 131.105455 100.337379 
L 132.218182 100.434057 
L 133.330909 100.532642 
L 134.443636 100.633109 
L 135.556364 100.735436 
L 136.669091 100.839601 
L 137.781818 100.945584 
L 138.894545 101.053363 
L 140.007273 101.162918 
L 141.12 101.274229 
L 142.232727 101.387277 
L 143.345455 101.502043 
L 144.458182 101.61851 
L 145.570909 101.736658 
L 146.683636 101.85647 
L 147.796364 101.97793 
L 148.909091 102.101021 
L 150.021818 102.225725 
L 151.134545 102.352028 
L 152.247273 102.479914 
L 153.36 102.609367 
L 154.472727 102.740372 
L 155.585455 102.872915 
L 156.698182 103.006981 
L 157.810909 103.142557 
L 158.923636 103.279628 
L 160.036364 103.418182 
" clip-path="url(#p5ef6ddc42f)" style="fill: none; stroke: #bddf26; stroke-width: 1.5; stroke-linecap: square"/>
   </g>
   <g id="patch_3">
    <path d="M 43.2 108 
L 43.2 7.2 
" style="fill: none; stroke: #000000; stroke-width: 0.8; stroke-linejoin: miter; stroke-linecap: square"/>
   </g>
   <g id="patch_4">
    <path d="M 165.6 108 
L 165.6 7.2 
" style="fill: none; stroke: #000000; stroke-width: 0.8; stroke-linejoin: miter; stroke-linecap: square"/>
   </g>
   <g id="patch_5">
    <path d="M 43.2 108 
L 165.6 108 
" style="fill: none; stroke: #000000; stroke-width: 0.8; stroke-linejoin: miter; stroke-linecap: square"/>
   </g>
   <g id="patch_6">
    <path d="M 43.2 7.2 
L 165.6 7.2 
" style="fill: none; stroke: #000000; stroke-width: 0.8; stroke-linejoin: miter; stroke-linecap: square"/>
   </g>
   <g id="legend_1">
    <g id="patch_7">
     <path d="M 118.8 106.21125 
L 160 106.21125 
Q 161.6 106.21125 161.6 104.61125 
L 161.6 12.8 
Q 161.6 11.2 160 11.2 
L 118.8 11.2 
Q 117.2 11.2 117.2 12.8 
L 117.2 104.61125 
Q 117.2 106.21125 118.8 106.21125 
z
" style="fill: #ffffff; opacity: 0.8; stroke: #cccccc; stroke-linejoin: miter"/>
    </g>
    <g id="text_14">
     <text style="font: 8px 'Carlito', sans-serif" transform="translate(118.8 18.355)">extinction </text>
     <!-- probability $p$ -->
     <g transform="translate(118.8 26.36375)">
      <text>
       <tspan style="font: 8px 'Carlito'" x="0 4.203125 6.992188 11.210938 15.414062 19.246094 23.449219 25.285156 27.121094 28.957031 31.636719 35.257812" y="-0.4375">probability </tspan>
       <tspan style="font: italic 8px 'Carlito'" x="37.066406" y="-0.4375">p</tspan>
      </text>
     </g>
    </g>
    <g id="line2d_22">
     <path d="M 123.135 31.32375 
L 131.135 31.32375 
L 139.135 31.32375 
" style="fill: none; stroke: #440154; stroke-width: 1.5; stroke-linecap: square"/>
    </g>
    <g id="text_15">
     <text style="font: 8px 'Carlito', sans-serif; text-anchor: start" x="145.535" y="34.12375" transform="rotate(-0 145.535 34.12375)">0.0</text>
    </g>
    <g id="line2d_23">
     <path d="M 123.135 39.0125 
L 131.135 39.0125 
L 139.135 39.0125 
" style="fill: none; stroke: #482475; stroke-width: 1.5; stroke-linecap: square"/>
    </g>
    <g id="text_16">
     <text style="font: 8px 'Carlito', sans-serif; text-anchor: start" x="145.535" y="41.8125" transform="rotate(-0 145.535 41.8125)">0.1</text>
    </g>
    <g id="line2d_24">
     <path d="M 123.135 46.70125 
L 131.135 46.70125 
L 139.135 46.70125 
" style="fill: none; stroke: #414487; stroke-width: 1.5; stroke-linecap: square"/>
    </g>
    <g id="text_17">
     <text style="font: 8px 'Carlito', sans-serif; text-anchor: start" x="145.535" y="49.50125" transform="rotate(-0 145.535 49.50125)">0.2</text>
    </g>
    <g id="line2d_25">
     <path d="M 123.135 54.39 
L 131.135 54.39 
L 139.135 54.39 
" style="fill: none; stroke: #355f8d; stroke-width: 1.5; stroke-linecap: square"/>
    </g>
    <g id="text_18">
     <text style="font: 8px 'Carlito', sans-serif; text-anchor: start" x="145.535" y="57.19" transform="rotate(-0 145.535 57.19)">0.3</text>
    </g>
    <g id="line2d_26">
     <path d="M 123.135 62.07875 
L 131.135 62.07875 
L 139.135 62.07875 
" style="fill: none; stroke: #2a788e; stroke-width: 1.5; stroke-linecap: square"/>
    </g>
    <g id="text_19">
     <text style="font: 8px 'Carlito', sans-serif; text-anchor: start" x="145.535" y="64.87875" transform="rotate(-0 145.535 64.87875)">0.4</text>
    </g>
    <g id="line2d_27">
     <path d="M 123.135 69.7675 
L 131.135 69.7675 
L 139.135 69.7675 
" style="fill: none; stroke: #21918c; stroke-width: 1.5; stroke-linecap: square"/>
    </g>
    <g id="text_20">
     <text style="font: 8px 'Carlito', sans-serif; text-anchor: start" x="145.535" y="72.5675" transform="rotate(-0 145.535 72.5675)">0.5</text>
    </g>
    <g id="line2d_28">
     <path d="M 123.135 77.45625 
L 131.135 77.45625 
L 139.135 77.45625 
" style="fill: none; stroke: #22a884; stroke-width: 1.5; stroke-linecap: square"/>
    </g>
    <g id="text_21">
     <text style="font: 8px 'Carlito', sans-serif; text-anchor: start" x="145.535" y="80.25625" transform="rotate(-0 145.535 80.25625)">0.6</text>
    </g>
    <g id="line2d_29">
     <path d="M 123.135 85.145 
L 131.135 85.145 
L 139.135 85.145 
" style="fill: none; stroke: #44bf70; stroke-width: 1.5; stroke-linecap: square"/>
    </g>
    <g id="text_22">
     <text style="font: 8px 'Carlito', sans-serif; text-anchor: start" x="145.535" y="87.945" transform="rotate(-0 145.535 87.945)">0.7</text>
    </g>
    <g id="line2d_30">
     <path d="M 123.135 92.83375 
L 131.135 92.83375 
L 139.135 92.83375 
" style="fill: none; stroke: #7ad151; stroke-width: 1.5; stroke-linecap: square"/>
    </g>
    <g id="text_23">
     <text style="font: 8px 'Carlito', sans-serif; text-anchor: start" x="145.535" y="95.63375" transform="rotate(-0 145.535 95.63375)">0.8</text>
    </g>
    <g id="line2d_31">
     <path d="M 123.135 100.5225 
L 131.135 100.5225 
L 139.135 100.5225 
" style="fill: none; stroke: #bddf26; stroke-width: 1.5; stroke-linecap: square"/>
    </g>
    <g id="text_24">
     <text style="font: 8px 'Carlito', sans-serif; text-anchor: start" x="145.535" y="103.3225" transform="rotate(-0 145.535 103.3225)">0.9</text>
    </g>
   </g>
  </g>
  <g id="axes_2">
   <g id="patch_8">
    <path d="M 198 108 
L 320.4 108 
L 320.4 7.2 
L 198 7.2 
z
" style="fill: #ffffff"/>
   </g>
   <g id="matplotlib.axis_3">
    <g id="xtick_6">
     <g id="line2d_32">
      <g>
       <use xlink:href="#m039ca32c6c" x="203.563636" y="108" style="stroke: #000000; stroke-width: 0.8"/>
      </g>
     </g>
     <g id="text_25">
      <text style="font: 8px 'Carlito', sans-serif; text-anchor: middle" x="203.563636" y="120.555" transform="rotate(-0 203.563636 120.555)">0.00</text>
     </g>
    </g>
    <g id="xtick_7">
     <g id="line2d_33">
      <g>
       <use xlink:href="#m039ca32c6c" x="231.381818" y="108" style="stroke: #000000; stroke-width: 0.8"/>
      </g>
     </g>
     <g id="text_26">
      <text style="font: 8px 'Carlito', sans-serif; text-anchor: middle" x="231.381818" y="120.555" transform="rotate(-0 231.381818 120.555)">0.25</text>
     </g>
    </g>
    <g id="xtick_8">
     <g id="line2d_34">
      <g>
       <use xlink:href="#m039ca32c6c" x="259.2" y="108" style="stroke: #000000; stroke-width: 0.8"/>
      </g>
     </g>
     <g id="text_27">
      <text style="font: 8px 'Carlito', sans-serif; text-anchor: middle" x="259.2" y="120.555" transform="rotate(-0 259.2 120.555)">0.50</text>
     </g>
    </g>
    <g id="xtick_9">
     <g id="line2d_35">
      <g>
       <use xlink:href="#m039ca32c6c" x="287.018182" y="108" style="stroke: #000000; stroke-width: 0.8"/>
      </g>
     </g>
     <g id="text_28">
      <text style="font: 8px 'Carlito', sans-serif; text-anchor: middle" x="287.018182" y="120.555" transform="rotate(-0 287.018182 120.555)">0.75</text>
     </g>
    </g>
    <g id="xtick_10">
     <g id="line2d_36">
      <g>
       <use xlink:href="#m039ca32c6c" x="314.836364" y="108" style="stroke: #000000; stroke-width: 0.8"/>
      </g>
     </g>
     <g id="text_29">
      <text style="font: 8px 'Carlito', sans-serif; text-anchor: middle" x="314.836364" y="120.555" transform="rotate(-0 314.836364 120.555)">1.00</text>
     </g>
    </g>
    <g id="text_30">
     <!-- extinction probability $p$ -->
     <g transform="translate(221.44 131.44375)">
      <text>
       <tspan style="font: 8px 'Carlito'" x="0 3.980469 7.445312 10.125 11.960938 16.164062 19.546875 22.226562 24.0625 28.28125 32.484375 34.292969 38.496094 41.285156 45.503906 49.707031 53.539062 57.742188 59.578125 61.414062 63.25 65.929688 69.550781" y="-0.4375">extinction probability </tspan>
       <tspan style="font: italic 8px 'Carlito'" x="71.359375" y="-0.4375">p</tspan>
      </text>
     </g>
    </g>
   </g>
   <g id="matplotlib.axis_4">
    <g id="ytick_7">
     <g id="line2d_37">
      <g>
       <use xlink:href="#m1c21ed77aa" x="198" y="103.418182" style="stroke: #000000; stroke-width: 0.8"/>
      </g>
     </g>
     <g id="text_31">
      <text style="font: 8px 'Carlito', sans-serif; text-anchor: end" x="191" y="106.195682" transform="rotate(-0 191 106.195682)">0.0</text>
     </g>
    </g>
    <g id="ytick_8">
     <g id="line2d_38">
      <g>
       <use xlink:href="#m1c21ed77aa" x="198" y="85.090909" style="stroke: #000000; stroke-width: 0.8"/>
      </g>
     </g>
     <g id="text_32">
      <text style="font: 8px 'Carlito', sans-serif; text-anchor: end" x="191" y="87.868409" transform="rotate(-0 191 87.868409)">0.2</text>
     </g>
    </g>
    <g id="ytick_9">
     <g id="line2d_39">
      <g>
       <use xlink:href="#m1c21ed77aa" x="198" y="66.763636" style="stroke: #000000; stroke-width: 0.8"/>
      </g>
     </g>
     <g id="text_33">
      <text style="font: 8px 'Carlito', sans-serif; text-anchor: end" x="191" y="69.541136" transform="rotate(-0 191 69.541136)">0.4</text>
     </g>
    </g>
    <g id="ytick_10">
     <g id="line2d_40">
      <g>
       <use xlink:href="#m1c21ed77aa" x="198" y="48.436364" style="stroke: #000000; stroke-width: 0.8"/>
      </g>
     </g>
     <g id="text_34">
      <text style="font: 8px 'Carlito', sans-serif; text-anchor: end" x="191" y="51.213864" transform="rotate(-0 191 51.213864)">0.6</text>
     </g>
    </g>
    <g id="ytick_11">
     <g id="line2d_41">
      <g>
       <use xlink:href="#m1c21ed77aa" x="198" y="30.109091" style="stroke: #000000; stroke-width: 0.8"/>
      </g>
     </g>
     <g id="text_35">
      <text style="font: 8px 'Carlito', sans-serif; text-anchor: end" x="191" y="32.886591" transform="rotate(-0 191 32.886591)">0.8</text>
     </g>
    </g>
    <g id="ytick_12">
     <g id="line2d_42">
      <g>
       <use xlink:href="#m1c21ed77aa" x="198" y="11.781818" style="stroke: #000000; stroke-width: 0.8"/>
      </g>
     </g>
     <g id="text_36">
      <text style="font: 8px 'Carlito', sans-serif; text-anchor: end" x="191" y="14.559318" transform="rotate(-0 191 14.559318)">1.0</text>
     </g>
    </g>
    <g id="text_37">
     <text style="font: 8px 'Carlito', sans-serif; text-anchor: middle" x="175.58125" y="57.6" transform="rotate(-90 175.58125 57.6)">MI per slot [bit]</text>
    </g>
   </g>
   <g id="line2d_43">
    <path d="M 203.563636 11.781818 
L 214.690909 33.516571 
L 225.818182 46.769206 
L 236.945455 57.261841 
L 248.072727 66.141723 
L 259.2 73.917862 
L 270.327273 80.877186 
L 281.454545 87.200931 
L 292.581818 93.008932 
L 303.709091 98.393242 
L 314.836364 103.418182 
" clip-path="url(#p5ed18845ae)" style="fill: none; stroke: #7b68ee; stroke-opacity: 0.6; stroke-width: 1.5; stroke-linecap: square"/>
    <defs>
     <path id="m6ddc784455" d="M 0 1.5 
C 0.397805 1.5 0.77937 1.341951 1.06066 1.06066 
C 1.341951 0.77937 1.5 0.397805 1.5 0 
C 1.5 -0.397805 1.341951 -0.77937 1.06066 -1.06066 
C 0.77937 -1.341951 0.397805 -1.5 0 -1.5 
C -0.397805 -1.5 -0.77937 -1.341951 -1.06066 -1.06066 
C -1.341951 -0.77937 -1.5 -0.397805 -1.5 0 
C -1.5 0.397805 -1.341951 0.77937 -1.06066 1.06066 
C -0.77937 1.341951 -0.397805 1.5 0 1.5 
z
" style="stroke: #7b68ee; stroke-opacity: 0.6"/>
    </defs>
    <g clip-path="url(#p5ed18845ae)">
     <use xlink:href="#m6ddc784455" x="203.563636" y="11.781818" style="fill: #7b68ee; fill-opacity: 0.6; stroke: #7b68ee; stroke-opacity: 0.6"/>
     <use xlink:href="#m6ddc784455" x="214.690909" y="33.516571" style="fill: #7b68ee; fill-opacity: 0.6; stroke: #7b68ee; stroke-opacity: 0.6"/>
     <use xlink:href="#m6ddc784455" x="225.818182" y="46.769206" style="fill: #7b68ee; fill-opacity: 0.6; stroke: #7b68ee; stroke-opacity: 0.6"/>
     <use xlink:href="#m6ddc784455" x="236.945455" y="57.261841" style="fill: #7b68ee; fill-opacity: 0.6; stroke: #7b68ee; stroke-opacity: 0.6"/>
     <use xlink:href="#m6ddc784455" x="248.072727" y="66.141723" style="fill: #7b68ee; fill-opacity: 0.6; stroke: #7b68ee; stroke-opacity: 0.6"/>
     <use xlink:href="#m6ddc784455" x="259.2" y="73.917862" style="fill: #7b68ee; fill-opacity: 0.6; stroke: #7b68ee; stroke-opacity: 0.6"/>
     <use xlink:href="#m6ddc784455" x="270.327273" y="80.877186" style="fill: #7b68ee; fill-opacity: 0.6; stroke: #7b68ee; stroke-opacity: 0.6"/>
     <use xlink:href="#m6ddc784455" x="281.454545" y="87.200931" style="fill: #7b68ee; fill-opacity: 0.6; stroke: #7b68ee; stroke-opacity: 0.6"/>
     <use xlink:href="#m6ddc784455" x="292.581818" y="93.008932" style="fill: #7b68ee; fill-opacity: 0.6; stroke: #7b68ee; stroke-opacity: 0.6"/>
     <use xlink:href="#m6ddc784455" x="303.709091" y="98.393242" style="fill: #7b68ee; fill-opacity: 0.6; stroke: #7b68ee; stroke-opacity: 0.6"/>
     <use xlink:href="#m6ddc784455" x="314.836364" y="103.418182" style="fill: #7b68ee; fill-opacity: 0.6; stroke: #7b68ee; stroke-opacity: 0.6"/>
    </g>
   </g>
   <g id="line2d_44">
    <path d="M 203.563636 11.781818 
L 214.690909 33.932466 
L 225.818182 47.521233 
L 236.945455 58.202728 
L 248.072727 67.147079 
L 259.2 74.893786 
L 270.327273 81.750507 
L 281.454545 87.913781 
L 292.581818 93.518564 
L 303.709091 98.662331 
L 314.836364 103.418182 
" clip-path="url(#p5ed18845ae)" style="fill: none; stroke: #daa520; stroke-opacity: 0.6; stroke-width: 1.5; stroke-linecap: square"/>
    <defs>
     <path id="mf98e8708ed" d="M 0 1.5 
C 0.397805 1.5 0.77937 1.341951 1.06066 1.06066 
C 1.341951 0.77937 1.5 0.397805 1.5 0 
C 1.5 -0.397805 1.341951 -0.77937 1.06066 -1.06066 
C 0.77937 -1.341951 0.397805 -1.5 0 -1.5 
C -0.397805 -1.5 -0.77937 -1.341951 -1.06066 -1.06066 
C -1.341951 -0.77937 -1.5 -0.397805 -1.5 0 
C -1.5 0.397805 -1.341951 0.77937 -1.06066 1.06066 
C -0.77937 1.341951 -0.397805 1.5 0 1.5 
z
" style="stroke: #daa520; stroke-opacity: 0.6"/>
    </defs>
    <g clip-path="url(#p5ed18845ae)">
     <use xlink:href="#mf98e8708ed" x="203.563636" y="11.781818" style="fill: #daa520; fill-opacity: 0.6; stroke: #daa520; stroke-opacity: 0.6"/>
     <use xlink:href="#mf98e8708ed" x="214.690909" y="33.932466" style="fill: #daa520; fill-opacity: 0.6; stroke: #daa520; stroke-opacity: 0.6"/>
     <use xlink:href="#mf98e8708ed" x="225.818182" y="47.521233" style="fill: #daa520; fill-opacity: 0.6; stroke: #daa520; stroke-opacity: 0.6"/>
     <use xlink:href="#mf98e8708ed" x="236.945455" y="58.202728" style="fill: #daa520; fill-opacity: 0.6; stroke: #daa520; stroke-opacity: 0.6"/>
     <use xlink:href="#mf98e8708ed" x="248.072727" y="67.147079" style="fill: #daa520; fill-opacity: 0.6; stroke: #daa520; stroke-opacity: 0.6"/>
     <use xlink:href="#mf98e8708ed" x="259.2" y="74.893786" style="fill: #daa520; fill-opacity: 0.6; stroke: #daa520; stroke-opacity: 0.6"/>
     <use xlink:href="#mf98e8708ed" x="270.327273" y="81.750507" style="fill: #daa520; fill-opacity: 0.6; stroke: #daa520; stroke-opacity: 0.6"/>
     <use xlink:href="#mf98e8708ed" x="281.454545" y="87.913781" style="fill: #daa520; fill-opacity: 0.6; stroke: #daa520; stroke-opacity: 0.6"/>
     <use xlink:href="#mf98e8708ed" x="292.581818" y="93.518564" style="fill: #daa520; fill-opacity: 0.6; stroke: #daa520; stroke-opacity: 0.6"/>
     <use xlink:href="#mf98e8708ed" x="303.709091" y="98.662331" style="fill: #daa520; fill-opacity: 0.6; stroke: #daa520; stroke-opacity: 0.6"/>
     <use xlink:href="#mf98e8708ed" x="314.836364" y="103.418182" style="fill: #daa520; fill-opacity: 0.6; stroke: #daa520; stroke-opacity: 0.6"/>
    </g>
   </g>
   <g id="patch_9">
    <path d="M 198 108 
L 198 7.2 
" style="fill: none; stroke: #000000; stroke-width: 0.8; stroke-linejoin: miter; stroke-linecap: square"/>
   </g>
   <g id="patch_10">
    <path d="M 320.4 108 
L 320.4 7.2 
" style="fill: none; stroke: #000000; stroke-width: 0.8; stroke-linejoin: miter; stroke-linecap: square"/>
   </g>
   <g id="patch_11">
    <path d="M 198 108 
L 320.4 108 
" style="fill: none; stroke: #000000; stroke-width: 0.8; stroke-linejoin: miter; stroke-linecap: square"/>
   </g>
   <g id="patch_12">
    <path d="M 198 7.2 
L 320.4 7.2 
" style="fill: none; stroke: #000000; stroke-width: 0.8; stroke-linejoin: miter; stroke-linecap: square"/>
   </g>
   <g id="legend_2">
    <g id="patch_13">
     <path d="M 231.2 35.44875 
L 314.8 35.44875 
Q 316.4 35.44875 316.4 33.84875 
L 316.4 12.8 
Q 316.4 11.2 314.8 11.2 
L 231.2 11.2 
Q 229.6 11.2 229.6 12.8 
L 229.6 33.84875 
Q 229.6 35.44875 231.2 35.44875 
z
" style="fill: #ffffff; opacity: 0.8; stroke: #cccccc; stroke-linejoin: miter"/>
    </g>
    <g id="line2d_45">
     <path d="M 232.8 17.2 
L 240.8 17.2 
L 248.8 17.2 
" style="fill: none; stroke: #7b68ee; stroke-opacity: 0.6; stroke-width: 1.5; stroke-linecap: square"/>
     <g>
      <use xlink:href="#m6ddc784455" x="240.8" y="17.2" style="fill: #7b68ee; fill-opacity: 0.6; stroke: #7b68ee; stroke-opacity: 0.6"/>
     </g>
    </g>
    <g id="text_38">
     <text style="font: 8px 'Carlito', sans-serif; text-anchor: start" x="255.2" y="20" transform="rotate(-0 255.2 20)">maximum bitrate</text>
    </g>
    <g id="line2d_46">
     <path d="M 232.8 28.08875 
L 240.8 28.08875 
L 248.8 28.08875 
" style="fill: none; stroke: #daa520; stroke-opacity: 0.6; stroke-width: 1.5; stroke-linecap: square"/>
     <g>
      <use xlink:href="#mf98e8708ed" x="240.8" y="28.08875" style="fill: #daa520; fill-opacity: 0.6; stroke: #daa520; stroke-opacity: 0.6"/>
     </g>
    </g>
    <g id="text_39">
     <!-- bitrate for $q$ = 1/2 -->
     <g transform="translate(255.2 30.88875)">
      <text>
       <tspan style="font: 8px 'Carlito'" x="0 4.203125 6.039062 8.71875 11.507812 15.339844 18.019531 22 23.808594 26.25 30.46875 33.257812 39.179688 40.988281 44.972656 46.78125 50.835938 53.925781" y="-0.4375">bitrate for  = 1/2</tspan>
       <tspan style="font: italic 8px 'Carlito'" x="35.066406" y="-0.4375">q</tspan>
      </text>
     </g>
    </g>
   </g>
  </g>
  <g id="axes_3">
   <g id="patch_14">
    <path d="M 352.8 108 
L 475.2 108 
L 475.2 7.2 
L 352.8 7.2 
z
" style="fill: #ffffff"/>
   </g>
   <g id="matplotlib.axis_5">
    <g id="xtick_11">
     <g id="line2d_47">
      <g>
       <use xlink:href="#m039ca32c6c" x="358.363636" y="108" style="stroke: #000000; stroke-width: 0.8"/>
      </g>
     </g>
     <g id="text_40">
      <text style="font: 8px 'Carlito', sans-serif; text-anchor: middle" x="358.363636" y="120.555" transform="rotate(-0 358.363636 120.555)">0.0</text>
     </g>
    </g>
    <g id="xtick_12">
     <g id="line2d_48">
      <g>
       <use xlink:href="#m039ca32c6c" x="383.090909" y="108" style="stroke: #000000; stroke-width: 0.8"/>
      </g>
     </g>
     <g id="text_41">
      <text style="font: 8px 'Carlito', sans-serif; text-anchor: middle" x="383.090909" y="120.555" transform="rotate(-0 383.090909 120.555)">0.2</text>
     </g>
    </g>
    <g id="xtick_13">
     <g id="line2d_49">
      <g>
       <use xlink:href="#m039ca32c6c" x="407.818182" y="108" style="stroke: #000000; stroke-width: 0.8"/>
      </g>
     </g>
     <g id="text_42">
      <text style="font: 8px 'Carlito', sans-serif; text-anchor: middle" x="407.818182" y="120.555" transform="rotate(-0 407.818182 120.555)">0.4</text>
     </g>
    </g>
    <g id="xtick_14">
     <g id="line2d_50">
      <g>
       <use xlink:href="#m039ca32c6c" x="432.545455" y="108" style="stroke: #000000; stroke-width: 0.8"/>
      </g>
     </g>
     <g id="text_43">
      <text style="font: 8px 'Carlito', sans-serif; text-anchor: middle" x="432.545455" y="120.555" transform="rotate(-0 432.545455 120.555)">0.6</text>
     </g>
    </g>
    <g id="xtick_15">
     <g id="line2d_51">
      <g>
       <use xlink:href="#m039ca32c6c" x="457.272727" y="108" style="stroke: #000000; stroke-width: 0.8"/>
      </g>
     </g>
     <g id="text_44">
      <text style="font: 8px 'Carlito', sans-serif; text-anchor: middle" x="457.272727" y="120.555" transform="rotate(-0 457.272727 120.555)">0.8</text>
     </g>
    </g>
    <g id="text_45">
     <!-- extinction probability $p$ -->
     <g transform="translate(376.24 131.44375)">
      <text>
       <tspan style="font: 8px 'Carlito'" x="0 3.980469 7.445312 10.125 11.960938 16.164062 19.546875 22.226562 24.0625 28.28125 32.484375 34.292969 38.496094 41.285156 45.503906 49.707031 53.539062 57.742188 59.578125 61.414062 63.25 65.929688 69.550781" y="-0.4375">extinction probability </tspan>
       <tspan style="font: italic 8px 'Carlito'" x="71.359375" y="-0.4375">p</tspan>
      </text>
     </g>
    </g>
   </g>
   <g id="matplotlib.axis_6">
    <g id="ytick_13">
     <g id="line2d_52">
      <g>
       <use xlink:href="#m1c21ed77aa" x="352.8" y="103.418182" style="stroke: #000000; stroke-width: 0.8"/>
      </g>
     </g>
     <g id="text_46">
      <text style="font: 8px 'Carlito', sans-serif; text-anchor: end" x="345.8" y="106.195682" transform="rotate(-0 345.8 106.195682)">0.0</text>
     </g>
    </g>
    <g id="ytick_14">
     <g id="line2d_53">
      <g>
       <use xlink:href="#m1c21ed77aa" x="352.8" y="85.090909" style="stroke: #000000; stroke-width: 0.8"/>
      </g>
     </g>
     <g id="text_47">
      <text style="font: 8px 'Carlito', sans-serif; text-anchor: end" x="345.8" y="87.868409" transform="rotate(-0 345.8 87.868409)">0.2</text>
     </g>
    </g>
    <g id="ytick_15">
     <g id="line2d_54">
      <g>
       <use xlink:href="#m1c21ed77aa" x="352.8" y="66.763636" style="stroke: #000000; stroke-width: 0.8"/>
      </g>
     </g>
     <g id="text_48">
      <text style="font: 8px 'Carlito', sans-serif; text-anchor: end" x="345.8" y="69.541136" transform="rotate(-0 345.8 69.541136)">0.4</text>
     </g>
    </g>
    <g id="ytick_16">
     <g id="line2d_55">
      <g>
       <use xlink:href="#m1c21ed77aa" x="352.8" y="48.436364" style="stroke: #000000; stroke-width: 0.8"/>
      </g>
     </g>
     <g id="text_49">
      <text style="font: 8px 'Carlito', sans-serif; text-anchor: end" x="345.8" y="51.213864" transform="rotate(-0 345.8 51.213864)">0.6</text>
     </g>
    </g>
    <g id="ytick_17">
     <g id="line2d_56">
      <g>
       <use xlink:href="#m1c21ed77aa" x="352.8" y="30.109091" style="stroke: #000000; stroke-width: 0.8"/>
      </g>
     </g>
     <g id="text_50">
      <text style="font: 8px 'Carlito', sans-serif; text-anchor: end" x="345.8" y="32.886591" transform="rotate(-0 345.8 32.886591)">0.8</text>
     </g>
    </g>
    <g id="ytick_18">
     <g id="line2d_57">
      <g>
       <use xlink:href="#m1c21ed77aa" x="352.8" y="11.781818" style="stroke: #000000; stroke-width: 0.8"/>
      </g>
     </g>
     <g id="text_51">
      <text style="font: 8px 'Carlito', sans-serif; text-anchor: end" x="345.8" y="14.559318" transform="rotate(-0 345.8 14.559318)">1.0</text>
     </g>
    </g>
    <g id="text_52">
     <!-- probability of sending a front $q$ -->
     <g transform="translate(330.23 107.88) rotate(-90)">
      <text>
       <tspan style="font: 8px 'Carlito'" x="0 4.203125 6.992188 11.210938 15.414062 19.246094 23.449219 25.285156 27.121094 28.957031 31.636719 35.257812 37.066406 41.285156 43.726562 45.535156 48.664062 52.644531 56.847656 61.050781 62.886719 67.089844 70.855469 72.664062 76.496094 78.304688 80.746094 83.535156 87.753906 91.957031 94.636719" y="-0.4375">probability of sending a front </tspan>
       <tspan style="font: italic 8px 'Carlito'" x="96.445312" y="-0.4375">q</tspan>
      </text>
     </g>
    </g>
   </g>
   <g id="line2d_58">
    <path d="M 358.363636 57.6 
L 370.727273 61.265455 
L 383.090909 63.098182 
L 395.454545 64.930909 
L 407.818182 65.847273 
L 420.181818 66.763636 
L 432.545455 67.68 
L 444.909091 68.596364 
L 457.272727 68.596364 
L 469.636364 69.512727 
" clip-path="url(#p25a4c2b0b0)" style="fill: none; stroke: #7b68ee; stroke-opacity: 0.6; stroke-width: 1.5; stroke-linecap: square"/>
    <g clip-path="url(#p25a4c2b0b0)">
     <use xlink:href="#m6ddc784455" x="358.363636" y="57.6" style="fill: #7b68ee; fill-opacity: 0.6; stroke: #7b68ee; stroke-opacity: 0.6"/>
     <use xlink:href="#m6ddc784455" x="370.727273" y="61.265455" style="fill: #7b68ee; fill-opacity: 0.6; stroke: #7b68ee; stroke-opacity: 0.6"/>
     <use xlink:href="#m6ddc784455" x="383.090909" y="63.098182" style="fill: #7b68ee; fill-opacity: 0.6; stroke: #7b68ee; stroke-opacity: 0.6"/>
     <use xlink:href="#m6ddc784455" x="395.454545" y="64.930909" style="fill: #7b68ee; fill-opacity: 0.6; stroke: #7b68ee; stroke-opacity: 0.6"/>
     <use xlink:href="#m6ddc784455" x="407.818182" y="65.847273" style="fill: #7b68ee; fill-opacity: 0.6; stroke: #7b68ee; stroke-opacity: 0.6"/>
     <use xlink:href="#m6ddc784455" x="420.181818" y="66.763636" style="fill: #7b68ee; fill-opacity: 0.6; stroke: #7b68ee; stroke-opacity: 0.6"/>
     <use xlink:href="#m6ddc784455" x="432.545455" y="67.68" style="fill: #7b68ee; fill-opacity: 0.6; stroke: #7b68ee; stroke-opacity: 0.6"/>
     <use xlink:href="#m6ddc784455" x="444.909091" y="68.596364" style="fill: #7b68ee; fill-opacity: 0.6; stroke: #7b68ee; stroke-opacity: 0.6"/>
     <use xlink:href="#m6ddc784455" x="457.272727" y="68.596364" style="fill: #7b68ee; fill-opacity: 0.6; stroke: #7b68ee; stroke-opacity: 0.6"/>
     <use xlink:href="#m6ddc784455" x="469.636364" y="69.512727" style="fill: #7b68ee; fill-opacity: 0.6; stroke: #7b68ee; stroke-opacity: 0.6"/>
    </g>
   </g>
   <g id="patch_15">
    <path d="M 352.8 108 
L 352.8 7.2 
" style="fill: none; stroke: #000000; stroke-width: 0.8; stroke-linejoin: miter; stroke-linecap: square"/>
   </g>
   <g id="patch_16">
    <path d="M 475.2 108 
L 475.2 7.2 
" style="fill: none; stroke: #000000; stroke-width: 0.8; stroke-linejoin: miter; stroke-linecap: square"/>
   </g>
   <g id="patch_17">
    <path d="M 352.8 108 
L 475.2 108 
" style="fill: none; stroke: #000000; stroke-width: 0.8; stroke-linejoin: miter; stroke-linecap: square"/>
   </g>
   <g id="patch_18">
    <path d="M 352.8 7.2 
L 475.2 7.2 
" style="fill: none; stroke: #000000; stroke-width: 0.8; stroke-linejoin: miter; stroke-linecap: square"/>
   </g>
   <g id="legend_3">
    <g id="patch_19">
     <path d="M 413.04 24.56 
L 469.6 24.56 
Q 471.2 24.56 471.2 22.96 
L 471.2 12.8 
Q 471.2 11.2 469.6 11.2 
L 413.04 11.2 
Q 411.44 11.2 411.44 12.8 
L 411.44 22.96 
Q 411.44 24.56 413.04 24.56 
z
" style="fill: #ffffff; opacity: 0.8; stroke: #cccccc; stroke-linejoin: miter"/>
    </g>
    <g id="line2d_59">
     <path d="M 414.64 17.2 
L 422.64 17.2 
L 430.64 17.2 
" style="fill: none; stroke: #7b68ee; stroke-opacity: 0.6; stroke-width: 1.5; stroke-linecap: square"/>
     <g>
      <use xlink:href="#m6ddc784455" x="422.64" y="17.2" style="fill: #7b68ee; fill-opacity: 0.6; stroke: #7b68ee; stroke-opacity: 0.6"/>
     </g>
    </g>
    <g id="text_53">
     <!-- optimal $q$ -->
     <g transform="translate(437.04 20)">
      <text>
       <tspan style="font: 8px 'Carlito'" x="0 4.21875 8.421875 11.101562 12.9375 19.328125 23.160156 24.996094" y="-0.4375">optimal </tspan>
       <tspan style="font: italic 8px 'Carlito'" x="26.804688" y="-0.4375">q</tspan>
      </text>
     </g>
    </g>
   </g>
  </g>
 </g>
 <defs>
  <clipPath id="p5ef6ddc42f">
   <rect x="43.2" y="7.2" width="122.4" height="100.8"/>
  </clipPath>
  <clipPath id="p5ed18845ae">
   <rect x="198" y="7.2" width="122.4" height="100.8"/>
  </clipPath>
  <clipPath id="p25a4c2b0b0">
   <rect x="352.8" y="7.2" width="122.4" height="100.8"/>
  </clipPath>
 </defs>
</svg>
