<?xml version="1.0" encoding="utf-8" standalone="no"?>
<!DOCTYPE svg PUBLIC "-//W3C//DTD SVG 1.1//EN"
  "http://www.w3.org/Graphics/SVG/1.1/DTD/svg11.dtd">
<svg xmlns:xlink="http://www.w3.org/1999/xlink" width="266.4pt" height="151.2pt" viewBox="0 0 266.4 151.2" xmlns="http://www.w3.org/2000/svg" version="1.1">
 <metadata>
  <rdf:RDF xmlns:dc="http://purl.org/dc/elements/1.1/" xmlns:cc="http://creativecommons.org/ns#" xmlns:rdf="http://www.w3.org/1999/02/22-rdf-syntax-ns#">
   <cc:Work>
    <dc:type rdf:resource="http://purl.org/dc/dcmitype/StillImage"/>
    <dc:date>2024-06-26T15:48:11.064159</dc:date>
    <dc:format>image/svg+xml</dc:format>
    <dc:creator>
     <cc:Agent>
      <dc:title>Matplotlib v3.7.1, https://matplotlib.org/</dc:title>
     </cc:Agent>
    </dc:creator>
   </cc:Work>
  </rdf:RDF>
 </metadata>
 <defs>
  <style type="text/css">*{stroke-linejoin: round; stroke-linecap: butt}</style>
 </defs>
 <g id="figure_1">
  <g id="patch_1">
   <path d="M 0 151.2 
L 266.4 151.2 
L 266.4 0 
L 0 0 
z
" style="fill: #ffffff"/>
  </g>
  <g id="axes_1">
   <g id="patch_2">
    <path d="M 36 115.2 
L 252 115.2 
L 252 7.2 
L 36 7.2 
z
" style="fill: #ffffff"/>
   </g>
   <g id="matplotlib.axis_1">
    <g id="xtick_1">
     <g id="line2d_1">
      <defs>
       <path id="m28612c3ca9" d="M 0 0 
L 0 3.5 
" style="stroke: #000000; stroke-width: 0.8"/>
      </defs>
      <g>
       <use xlink:href="#m28612c3ca9" x="53.370629" y="115.2" style="stroke: #000000; stroke-width: 0.8"/>
      </g>
     </g>
     <g id="text_1">
      <text style="font: 8px 'Carlito', sans-serif; text-anchor: middle" x="53.370629" y="127.755" transform="rotate(-0 53.370629 127.755)">50</text>
     </g>
    </g>
    <g id="xtick_2">
     <g id="line2d_2">
      <g>
       <use xlink:href="#m28612c3ca9" x="91.132867" y="115.2" style="stroke: #000000; stroke-width: 0.8"/>
      </g>
     </g>
     <g id="text_2">
      <text style="font: 8px 'Carlito', sans-serif; text-anchor: middle" x="91.132867" y="127.755" transform="rotate(-0 91.132867 127.755)">100</text>
     </g>
    </g>
    <g id="xtick_3">
     <g id="line2d_3">
      <g>
       <use xlink:href="#m28612c3ca9" x="128.895105" y="115.2" style="stroke: #000000; stroke-width: 0.8"/>
      </g>
     </g>
     <g id="text_3">
      <text style="font: 8px 'Carlito', sans-serif; text-anchor: middle" x="128.895105" y="127.755" transform="rotate(-0 128.895105 127.755)">150</text>
     </g>
    </g>
    <g id="xtick_4">
     <g id="line2d_4">
      <g>
       <use xlink:href="#m28612c3ca9" x="166.657343" y="115.2" style="stroke: #000000; stroke-width: 0.8"/>
      </g>
     </g>
     <g id="text_4">
      <text style="font: 8px 'Carlito', sans-serif; text-anchor: middle" x="166.657343" y="127.755" transform="rotate(-0 166.657343 127.755)">200</text>
     </g>
    </g>
    <g id="xtick_5">
     <g id="line2d_5">
      <g>
       <use xlink:href="#m28612c3ca9" x="204.41958" y="115.2" style="stroke: #000000; stroke-width: 0.8"/>
      </g>
     </g>
     <g id="text_5">
      <text style="font: 8px 'Carlito', sans-serif; text-anchor: middle" x="204.41958" y="127.755" transform="rotate(-0 204.41958 127.755)">250</text>
     </g>
    </g>
    <g id="xtick_6">
     <g id="line2d_6">
      <g>
       <use xlink:href="#m28612c3ca9" x="242.181818" y="115.2" style="stroke: #000000; stroke-width: 0.8"/>
      </g>
     </g>
     <g id="text_6">
      <text style="font: 8px 'Carlito', sans-serif; text-anchor: middle" x="242.181818" y="127.755" transform="rotate(-0 242.181818 127.755)">300</text>
     </g>
    </g>
    <g id="text_7">
     <text style="font: 8px 'Carlito', sans-serif; text-anchor: middle" x="144" y="138.62625" transform="rotate(-0 144 138.62625)">interval [min]</text>
    </g>
   </g>
   <g id="matplotlib.axis_2">
    <g id="ytick_1">
     <g id="line2d_7">
      <defs>
       <path id="maaa9a9703e" d="M 0 0 
L -3.5 0 
" style="stroke: #000000; stroke-width: 0.8"/>
      </defs>
      <g>
       <use xlink:href="#maaa9a9703e" x="36" y="110.324476" style="stroke: #000000; stroke-width: 0.8"/>
      </g>
     </g>
     <g id="text_8">
      <text style="font: 8px 'Carlito', sans-serif; text-anchor: end" x="29" y="113.101976" transform="rotate(-0 29 113.101976)">0.0</text>
     </g>
    </g>
    <g id="ytick_2">
     <g id="line2d_8">
      <g>
       <use xlink:href="#maaa9a9703e" x="36" y="90.184615" style="stroke: #000000; stroke-width: 0.8"/>
      </g>
     </g>
     <g id="text_9">
      <text style="font: 8px 'Carlito', sans-serif; text-anchor: end" x="29" y="92.962115" transform="rotate(-0 29 92.962115)">0.2</text>
     </g>
    </g>
    <g id="ytick_3">
     <g id="line2d_9">
      <g>
       <use xlink:href="#maaa9a9703e" x="36" y="70.044755" style="stroke: #000000; stroke-width: 0.8"/>
      </g>
     </g>
     <g id="text_10">
      <text style="font: 8px 'Carlito', sans-serif; text-anchor: end" x="29" y="72.822255" transform="rotate(-0 29 72.822255)">0.4</text>
     </g>
    </g>
    <g id="ytick_4">
     <g id="line2d_10">
      <g>
       <use xlink:href="#maaa9a9703e" x="36" y="49.904895" style="stroke: #000000; stroke-width: 0.8"/>
      </g>
     </g>
     <g id="text_11">
      <text style="font: 8px 'Carlito', sans-serif; text-anchor: end" x="29" y="52.682395" transform="rotate(-0 29 52.682395)">0.6</text>
     </g>
    </g>
    <g id="ytick_5">
     <g id="line2d_11">
      <g>
       <use xlink:href="#maaa9a9703e" x="36" y="29.765035" style="stroke: #000000; stroke-width: 0.8"/>
      </g>
     </g>
     <g id="text_12">
      <text style="font: 8px 'Carlito', sans-serif; text-anchor: end" x="29" y="32.542535" transform="rotate(-0 29 32.542535)">0.8</text>
     </g>
    </g>
    <g id="ytick_6">
     <g id="line2d_12">
      <g>
       <use xlink:href="#maaa9a9703e" x="36" y="9.625175" style="stroke: #000000; stroke-width: 0.8"/>
      </g>
     </g>
     <g id="text_13">
      <text style="font: 8px 'Carlito', sans-serif; text-anchor: end" x="29" y="12.402675" transform="rotate(-0 29 12.402675)">1.0</text>
     </g>
    </g>
    <g id="text_14">
     <text style="font: 8px 'Carlito', sans-serif; text-anchor: middle" x="13.58125" y="61.2" transform="rotate(-90 13.58125 61.2)">probability</text>
    </g>
   </g>
   <g id="line2d_13">
    <path d="M 45.818182 109.72028 
L 49.594406 107.504895 
L 53.370629 105.457343 
L 57.146853 99.348252 
L 60.923077 93.742657 
L 64.699301 84.444755 
L 68.475524 75.851748 
L 72.251748 69.172028 
L 76.027972 60.713287 
L 79.804196 52.825175 
L 83.58042 47.353846 
L 87.356643 41.412587 
L 91.132867 37.686713 
L 98.685315 32.383217 
L 106.237762 26.844755 
L 128.895105 20.131469 
L 166.657343 16.875524 
L 242.181818 15.667133 
" clip-path="url(#pc9ca621a20)" style="fill: none; stroke: #000000; stroke-width: 1.5; stroke-linecap: square"/>
    <defs>
     <path id="m0f6ac349c2" d="M 0 1.5 
C 0.397805 1.5 0.77937 1.341951 1.06066 1.06066 
C 1.341951 0.77937 1.5 0.397805 1.5 0 
C 1.5 -0.397805 1.341951 -0.77937 1.06066 -1.06066 
C 0.77937 -1.341951 0.397805 -1.5 0 -1.5 
C -0.397805 -1.5 -0.77937 -1.341951 -1.06066 -1.06066 
C -1.341951 -0.77937 -1.5 -0.397805 -1.5 0 
C -1.5 0.397805 -1.341951 0.77937 -1.06066 1.06066 
C -0.77937 1.341951 -0.397805 1.5 0 1.5 
z
" style="stroke: #000000"/>
    </defs>
    <g clip-path="url(#pc9ca621a20)">
     <use xlink:href="#m0f6ac349c2" x="45.818182" y="109.72028" style="stroke: #000000"/>
     <use xlink:href="#m0f6ac349c2" x="49.594406" y="107.504895" style="stroke: #000000"/>
     <use xlink:href="#m0f6ac349c2" x="53.370629" y="105.457343" style="stroke: #000000"/>
     <use xlink:href="#m0f6ac349c2" x="57.146853" y="99.348252" style="stroke: #000000"/>
     <use xlink:href="#m0f6ac349c2" x="60.923077" y="93.742657" style="stroke: #000000"/>
     <use xlink:href="#m0f6ac349c2" x="64.699301" y="84.444755" style="stroke: #000000"/>
     <use xlink:href="#m0f6ac349c2" x="68.475524" y="75.851748" style="stroke: #000000"/>
     <use xlink:href="#m0f6ac349c2" x="72.251748" y="69.172028" style="stroke: #000000"/>
     <use xlink:href="#m0f6ac349c2" x="76.027972" y="60.713287" style="stroke: #000000"/>
     <use xlink:href="#m0f6ac349c2" x="79.804196" y="52.825175" style="stroke: #000000"/>
     <use xlink:href="#m0f6ac349c2" x="83.58042" y="47.353846" style="stroke: #000000"/>
     <use xlink:href="#m0f6ac349c2" x="87.356643" y="41.412587" style="stroke: #000000"/>
     <use xlink:href="#m0f6ac349c2" x="91.132867" y="37.686713" style="stroke: #000000"/>
     <use xlink:href="#m0f6ac349c2" x="98.685315" y="32.383217" style="stroke: #000000"/>
     <use xlink:href="#m0f6ac349c2" x="106.237762" y="26.844755" style="stroke: #000000"/>
     <use xlink:href="#m0f6ac349c2" x="128.895105" y="20.131469" style="stroke: #000000"/>
     <use xlink:href="#m0f6ac349c2" x="166.657343" y="16.875524" style="stroke: #000000"/>
     <use xlink:href="#m0f6ac349c2" x="242.181818" y="15.667133" style="stroke: #000000"/>
    </g>
   </g>
   <g id="line2d_14">
    <path d="M 45.818182 12.109091 
L 49.594406 17.076923 
L 53.370629 23.991608 
L 57.146853 38.055944 
L 60.923077 54.067133 
L 64.699301 71.186014 
L 68.475524 85.116084 
L 72.251748 93.474126 
L 76.027972 100.892308 
L 79.804196 105.121678 
L 83.58042 107.337063 
L 87.356643 109.048951 
L 91.132867 109.61958 
L 98.685315 109.787413 
L 106.237762 110.022378 
L 128.895105 110.19021 
L 166.657343 110.223776 
L 242.181818 110.19021 
" clip-path="url(#pc9ca621a20)" style="fill: none; stroke: #00ced1; stroke-width: 1.5; stroke-linecap: square"/>
    <defs>
     <path id="m2e497cdde3" d="M 0 1.5 
C 0.397805 1.5 0.77937 1.341951 1.06066 1.06066 
C 1.341951 0.77937 1.5 0.397805 1.5 0 
C 1.5 -0.397805 1.341951 -0.77937 1.06066 -1.06066 
C 0.77937 -1.341951 0.397805 -1.5 0 -1.5 
C -0.397805 -1.5 -0.77937 -1.341951 -1.06066 -1.06066 
C -1.341951 -0.77937 -1.5 -0.397805 -1.5 0 
C -1.5 0.397805 -1.341951 0.77937 -1.06066 1.06066 
C -0.77937 1.341951 -0.397805 1.5 0 1.5 
z
" style="stroke: #00ced1"/>
    </defs>
    <g clip-path="url(#pc9ca621a20)">
     <use xlink:href="#m2e497cdde3" x="45.818182" y="12.109091" style="fill: #00ced1; stroke: #00ced1"/>
     <use xlink:href="#m2e497cdde3" x="49.594406" y="17.076923" style="fill: #00ced1; stroke: #00ced1"/>
     <use xlink:href="#m2e497cdde3" x="53.370629" y="23.991608" style="fill: #00ced1; stroke: #00ced1"/>
     <use xlink:href="#m2e497cdde3" x="57.146853" y="38.055944" style="fill: #00ced1; stroke: #00ced1"/>
     <use xlink:href="#m2e497cdde3" x="60.923077" y="54.067133" style="fill: #00ced1; stroke: #00ced1"/>
     <use xlink:href="#m2e497cdde3" x="64.699301" y="71.186014" style="fill: #00ced1; stroke: #00ced1"/>
     <use xlink:href="#m2e497cdde3" x="68.475524" y="85.116084" style="fill: #00ced1; stroke: #00ced1"/>
     <use xlink:href="#m2e497cdde3" x="72.251748" y="93.474126" style="fill: #00ced1; stroke: #00ced1"/>
     <use xlink:href="#m2e497cdde3" x="76.027972" y="100.892308" style="fill: #00ced1; stroke: #00ced1"/>
     <use xlink:href="#m2e497cdde3" x="79.804196" y="105.121678" style="fill: #00ced1; stroke: #00ced1"/>
     <use xlink:href="#m2e497cdde3" x="83.58042" y="107.337063" style="fill: #00ced1; stroke: #00ced1"/>
     <use xlink:href="#m2e497cdde3" x="87.356643" y="109.048951" style="fill: #00ced1; stroke: #00ced1"/>
     <use xlink:href="#m2e497cdde3" x="91.132867" y="109.61958" style="fill: #00ced1; stroke: #00ced1"/>
     <use xlink:href="#m2e497cdde3" x="98.685315" y="109.787413" style="fill: #00ced1; stroke: #00ced1"/>
     <use xlink:href="#m2e497cdde3" x="106.237762" y="110.022378" style="fill: #00ced1; stroke: #00ced1"/>
     <use xlink:href="#m2e497cdde3" x="128.895105" y="110.19021" style="fill: #00ced1; stroke: #00ced1"/>
     <use xlink:href="#m2e497cdde3" x="166.657343" y="110.223776" style="fill: #00ced1; stroke: #00ced1"/>
     <use xlink:href="#m2e497cdde3" x="242.181818" y="110.19021" style="fill: #00ced1; stroke: #00ced1"/>
    </g>
   </g>
   <g id="line2d_15">
    <path d="M 45.818182 110.156643 
L 49.594406 109.552448 
L 53.370629 108.008392 
L 57.146853 105.558042 
L 60.923077 102.570629 
L 64.699301 100.01958 
L 68.475524 98.945455 
L 72.251748 97.099301 
L 76.027972 97.904895 
L 79.804196 99.07972 
L 83.58042 100.187413 
L 87.356643 103.275524 
L 91.132867 103.241958 
L 98.685315 105.994406 
L 106.237762 107.303497 
L 128.895105 108.981818 
L 166.657343 109.653147 
L 242.181818 109.854545 
" clip-path="url(#pc9ca621a20)" style="fill: none; stroke: #2ca02c; stroke-width: 1.5; stroke-linecap: square"/>
    <defs>
     <path id="m8a4965aa07" d="M 0 1.5 
C 0.397805 1.5 0.77937 1.341951 1.06066 1.06066 
C 1.341951 0.77937 1.5 0.397805 1.5 0 
C 1.5 -0.397805 1.341951 -0.77937 1.06066 -1.06066 
C 0.77937 -1.341951 0.397805 -1.5 0 -1.5 
C -0.397805 -1.5 -0.77937 -1.341951 -1.06066 -1.06066 
C -1.341951 -0.77937 -1.5 -0.397805 -1.5 0 
C -1.5 0.397805 -1.341951 0.77937 -1.06066 1.06066 
C -0.77937 1.341951 -0.397805 1.5 0 1.5 
z
" style="stroke: #2ca02c"/>
    </defs>
    <g clip-path="url(#pc9ca621a20)">
     <use xlink:href="#m8a4965aa07" x="45.818182" y="110.156643" style="fill: #2ca02c; stroke: #2ca02c"/>
     <use xlink:href="#m8a4965aa07" x="49.594406" y="109.552448" style="fill: #2ca02c; stroke: #2ca02c"/>
     <use xlink:href="#m8a4965aa07" x="53.370629" y="108.008392" style="fill: #2ca02c; stroke: #2ca02c"/>
     <use xlink:href="#m8a4965aa07" x="57.146853" y="105.558042" style="fill: #2ca02c; stroke: #2ca02c"/>
     <use xlink:href="#m8a4965aa07" x="60.923077" y="102.570629" style="fill: #2ca02c; stroke: #2ca02c"/>
     <use xlink:href="#m8a4965aa07" x="64.699301" y="100.01958" style="fill: #2ca02c; stroke: #2ca02c"/>
     <use xlink:href="#m8a4965aa07" x="68.475524" y="98.945455" style="fill: #2ca02c; stroke: #2ca02c"/>
     <use xlink:href="#m8a4965aa07" x="72.251748" y="97.099301" style="fill: #2ca02c; stroke: #2ca02c"/>
     <use xlink:href="#m8a4965aa07" x="76.027972" y="97.904895" style="fill: #2ca02c; stroke: #2ca02c"/>
     <use xlink:href="#m8a4965aa07" x="79.804196" y="99.07972" style="fill: #2ca02c; stroke: #2ca02c"/>
     <use xlink:href="#m8a4965aa07" x="83.58042" y="100.187413" style="fill: #2ca02c; stroke: #2ca02c"/>
     <use xlink:href="#m8a4965aa07" x="87.356643" y="103.275524" style="fill: #2ca02c; stroke: #2ca02c"/>
     <use xlink:href="#m8a4965aa07" x="91.132867" y="103.241958" style="fill: #2ca02c; stroke: #2ca02c"/>
     <use xlink:href="#m8a4965aa07" x="98.685315" y="105.994406" style="fill: #2ca02c; stroke: #2ca02c"/>
     <use xlink:href="#m8a4965aa07" x="106.237762" y="107.303497" style="fill: #2ca02c; stroke: #2ca02c"/>
     <use xlink:href="#m8a4965aa07" x="128.895105" y="108.981818" style="fill: #2ca02c; stroke: #2ca02c"/>
     <use xlink:href="#m8a4965aa07" x="166.657343" y="109.653147" style="fill: #2ca02c; stroke: #2ca02c"/>
     <use xlink:href="#m8a4965aa07" x="242.181818" y="109.854545" style="fill: #2ca02c; stroke: #2ca02c"/>
    </g>
   </g>
   <g id="line2d_16">
    <path d="M 45.818182 108.948252 
L 49.594406 107.840559 
L 53.370629 105.490909 
L 57.146853 101.630769 
L 60.923077 98.13986 
L 64.699301 94.346853 
L 68.475524 93.474126 
L 72.251748 92.702098 
L 76.027972 93.406993 
L 79.804196 95.253147 
L 83.58042 97.233566 
L 87.356643 98.408392 
L 91.132867 99.616783 
L 98.685315 101.731469 
L 106.237762 104.148252 
L 128.895105 106.497902 
L 166.657343 108.31049 
L 242.181818 108.579021 
" clip-path="url(#pc9ca621a20)" style="fill: none; stroke: #d62728; stroke-width: 1.5; stroke-linecap: square"/>
    <defs>
     <path id="m98db0ebd49" d="M 0 1.5 
C 0.397805 1.5 0.77937 1.341951 1.06066 1.06066 
C 1.341951 0.77937 1.5 0.397805 1.5 0 
C 1.5 -0.397805 1.341951 -0.77937 1.06066 -1.06066 
C 0.77937 -1.341951 0.397805 -1.5 0 -1.5 
C -0.397805 -1.5 -0.77937 -1.341951 -1.06066 -1.06066 
C -1.341951 -0.77937 -1.5 -0.397805 -1.5 0 
C -1.5 0.397805 -1.341951 0.77937 -1.06066 1.06066 
C -0.77937 1.341951 -0.397805 1.5 0 1.5 
z
" style="stroke: #d62728"/>
    </defs>
    <g clip-path="url(#pc9ca621a20)">
     <use xlink:href="#m98db0ebd49" x="45.818182" y="108.948252" style="fill: #d62728; stroke: #d62728"/>
     <use xlink:href="#m98db0ebd49" x="49.594406" y="107.840559" style="fill: #d62728; stroke: #d62728"/>
     <use xlink:href="#m98db0ebd49" x="53.370629" y="105.490909" style="fill: #d62728; stroke: #d62728"/>
     <use xlink:href="#m98db0ebd49" x="57.146853" y="101.630769" style="fill: #d62728; stroke: #d62728"/>
     <use xlink:href="#m98db0ebd49" x="60.923077" y="98.13986" style="fill: #d62728; stroke: #d62728"/>
     <use xlink:href="#m98db0ebd49" x="64.699301" y="94.346853" style="fill: #d62728; stroke: #d62728"/>
     <use xlink:href="#m98db0ebd49" x="68.475524" y="93.474126" style="fill: #d62728; stroke: #d62728"/>
     <use xlink:href="#m98db0ebd49" x="72.251748" y="92.702098" style="fill: #d62728; stroke: #d62728"/>
     <use xlink:href="#m98db0ebd49" x="76.027972" y="93.406993" style="fill: #d62728; stroke: #d62728"/>
     <use xlink:href="#m98db0ebd49" x="79.804196" y="95.253147" style="fill: #d62728; stroke: #d62728"/>
     <use xlink:href="#m98db0ebd49" x="83.58042" y="97.233566" style="fill: #d62728; stroke: #d62728"/>
     <use xlink:href="#m98db0ebd49" x="87.356643" y="98.408392" style="fill: #d62728; stroke: #d62728"/>
     <use xlink:href="#m98db0ebd49" x="91.132867" y="99.616783" style="fill: #d62728; stroke: #d62728"/>
     <use xlink:href="#m98db0ebd49" x="98.685315" y="101.731469" style="fill: #d62728; stroke: #d62728"/>
     <use xlink:href="#m98db0ebd49" x="106.237762" y="104.148252" style="fill: #d62728; stroke: #d62728"/>
     <use xlink:href="#m98db0ebd49" x="128.895105" y="106.497902" style="fill: #d62728; stroke: #d62728"/>
     <use xlink:href="#m98db0ebd49" x="166.657343" y="108.31049" style="fill: #d62728; stroke: #d62728"/>
     <use xlink:href="#m98db0ebd49" x="242.181818" y="108.579021" style="fill: #d62728; stroke: #d62728"/>
    </g>
   </g>
   <g id="line2d_17">
    <path d="M 45.818182 110.022378 
L 49.594406 109.183217 
L 53.370629 108.243357 
L 57.146853 106.565035 
L 60.923077 102.973427 
L 64.699301 101.697902 
L 68.475524 98.643357 
L 72.251748 99.247552 
L 76.027972 99.516084 
L 79.804196 100.12028 
L 83.58042 100.254545 
L 87.356643 101.160839 
L 91.132867 102.839161 
L 98.685315 103.376224 
L 106.237762 105.121678 
L 128.895105 107.605594 
L 166.657343 108.579021 
L 242.181818 109.015385 
" clip-path="url(#pc9ca621a20)" style="fill: none; stroke: #9467bd; stroke-width: 1.5; stroke-linecap: square"/>
    <defs>
     <path id="m4ee1dc9e27" d="M 0 1.5 
C 0.397805 1.5 0.77937 1.341951 1.06066 1.06066 
C 1.341951 0.77937 1.5 0.397805 1.5 0 
C 1.5 -0.397805 1.341951 -0.77937 1.06066 -1.06066 
C 0.77937 -1.341951 0.397805 -1.5 0 -1.5 
C -0.397805 -1.5 -0.77937 -1.341951 -1.06066 -1.06066 
C -1.341951 -0.77937 -1.5 -0.397805 -1.5 0 
C -1.5 0.397805 -1.341951 0.77937 -1.06066 1.06066 
C -0.77937 1.341951 -0.397805 1.5 0 1.5 
z
" style="stroke: #9467bd"/>
    </defs>
    <g clip-path="url(#pc9ca621a20)">
     <use xlink:href="#m4ee1dc9e27" x="45.818182" y="110.022378" style="fill: #9467bd; stroke: #9467bd"/>
     <use xlink:href="#m4ee1dc9e27" x="49.594406" y="109.183217" style="fill: #9467bd; stroke: #9467bd"/>
     <use xlink:href="#m4ee1dc9e27" x="53.370629" y="108.243357" style="fill: #9467bd; stroke: #9467bd"/>
     <use xlink:href="#m4ee1dc9e27" x="57.146853" y="106.565035" style="fill: #9467bd; stroke: #9467bd"/>
     <use xlink:href="#m4ee1dc9e27" x="60.923077" y="102.973427" style="fill: #9467bd; stroke: #9467bd"/>
     <use xlink:href="#m4ee1dc9e27" x="64.699301" y="101.697902" style="fill: #9467bd; stroke: #9467bd"/>
     <use xlink:href="#m4ee1dc9e27" x="68.475524" y="98.643357" style="fill: #9467bd; stroke: #9467bd"/>
     <use xlink:href="#m4ee1dc9e27" x="72.251748" y="99.247552" style="fill: #9467bd; stroke: #9467bd"/>
     <use xlink:href="#m4ee1dc9e27" x="76.027972" y="99.516084" style="fill: #9467bd; stroke: #9467bd"/>
     <use xlink:href="#m4ee1dc9e27" x="79.804196" y="100.12028" style="fill: #9467bd; stroke: #9467bd"/>
     <use xlink:href="#m4ee1dc9e27" x="83.58042" y="100.254545" style="fill: #9467bd; stroke: #9467bd"/>
     <use xlink:href="#m4ee1dc9e27" x="87.356643" y="101.160839" style="fill: #9467bd; stroke: #9467bd"/>
     <use xlink:href="#m4ee1dc9e27" x="91.132867" y="102.839161" style="fill: #9467bd; stroke: #9467bd"/>
     <use xlink:href="#m4ee1dc9e27" x="98.685315" y="103.376224" style="fill: #9467bd; stroke: #9467bd"/>
     <use xlink:href="#m4ee1dc9e27" x="106.237762" y="105.121678" style="fill: #9467bd; stroke: #9467bd"/>
     <use xlink:href="#m4ee1dc9e27" x="128.895105" y="107.605594" style="fill: #9467bd; stroke: #9467bd"/>
     <use xlink:href="#m4ee1dc9e27" x="166.657343" y="108.579021" style="fill: #9467bd; stroke: #9467bd"/>
     <use xlink:href="#m4ee1dc9e27" x="242.181818" y="109.015385" style="fill: #9467bd; stroke: #9467bd"/>
    </g>
   </g>
   <g id="line2d_18">
    <path d="M 45.818182 110.290909 
L 49.594406 110.08951 
L 53.370629 110.055944 
L 57.146853 110.08951 
L 60.923077 109.753846 
L 64.699301 109.552448 
L 68.475524 109.216783 
L 72.251748 109.552448 
L 76.027972 108.813986 
L 79.804196 108.847552 
L 83.58042 108.881119 
L 87.356643 107.941259 
L 91.132867 108.243357 
L 98.685315 107.974825 
L 106.237762 107.806993 
L 128.895105 107.840559 
L 166.657343 107.605594 
L 242.181818 107.941259 
" clip-path="url(#pc9ca621a20)" style="fill: none; stroke: #8c564b; stroke-width: 1.5; stroke-linecap: square"/>
    <defs>
     <path id="m4e3b9b4075" d="M 0 1.5 
C 0.397805 1.5 0.77937 1.341951 1.06066 1.06066 
C 1.341951 0.77937 1.5 0.397805 1.5 0 
C 1.5 -0.397805 1.341951 -0.77937 1.06066 -1.06066 
C 0.77937 -1.341951 0.397805 -1.5 0 -1.5 
C -0.397805 -1.5 -0.77937 -1.341951 -1.06066 -1.06066 
C -1.341951 -0.77937 -1.5 -0.397805 -1.5 0 
C -1.5 0.397805 -1.341951 0.77937 -1.06066 1.06066 
C -0.77937 1.341951 -0.397805 1.5 0 1.5 
z
" style="stroke: #8c564b"/>
    </defs>
    <g clip-path="url(#pc9ca621a20)">
     <use xlink:href="#m4e3b9b4075" x="45.818182" y="110.290909" style="fill: #8c564b; stroke: #8c564b"/>
     <use xlink:href="#m4e3b9b4075" x="49.594406" y="110.08951" style="fill: #8c564b; stroke: #8c564b"/>
     <use xlink:href="#m4e3b9b4075" x="53.370629" y="110.055944" style="fill: #8c564b; stroke: #8c564b"/>
     <use xlink:href="#m4e3b9b4075" x="57.146853" y="110.08951" style="fill: #8c564b; stroke: #8c564b"/>
     <use xlink:href="#m4e3b9b4075" x="60.923077" y="109.753846" style="fill: #8c564b; stroke: #8c564b"/>
     <use xlink:href="#m4e3b9b4075" x="64.699301" y="109.552448" style="fill: #8c564b; stroke: #8c564b"/>
     <use xlink:href="#m4e3b9b4075" x="68.475524" y="109.216783" style="fill: #8c564b; stroke: #8c564b"/>
     <use xlink:href="#m4e3b9b4075" x="72.251748" y="109.552448" style="fill: #8c564b; stroke: #8c564b"/>
     <use xlink:href="#m4e3b9b4075" x="76.027972" y="108.813986" style="fill: #8c564b; stroke: #8c564b"/>
     <use xlink:href="#m4e3b9b4075" x="79.804196" y="108.847552" style="fill: #8c564b; stroke: #8c564b"/>
     <use xlink:href="#m4e3b9b4075" x="83.58042" y="108.881119" style="fill: #8c564b; stroke: #8c564b"/>
     <use xlink:href="#m4e3b9b4075" x="87.356643" y="107.941259" style="fill: #8c564b; stroke: #8c564b"/>
     <use xlink:href="#m4e3b9b4075" x="91.132867" y="108.243357" style="fill: #8c564b; stroke: #8c564b"/>
     <use xlink:href="#m4e3b9b4075" x="98.685315" y="107.974825" style="fill: #8c564b; stroke: #8c564b"/>
     <use xlink:href="#m4e3b9b4075" x="106.237762" y="107.806993" style="fill: #8c564b; stroke: #8c564b"/>
     <use xlink:href="#m4e3b9b4075" x="128.895105" y="107.840559" style="fill: #8c564b; stroke: #8c564b"/>
     <use xlink:href="#m4e3b9b4075" x="166.657343" y="107.605594" style="fill: #8c564b; stroke: #8c564b"/>
     <use xlink:href="#m4e3b9b4075" x="242.181818" y="107.941259" style="fill: #8c564b; stroke: #8c564b"/>
    </g>
   </g>
   <g id="patch_3">
    <path d="M 36 115.2 
L 36 7.2 
" style="fill: none; stroke: #000000; stroke-width: 0.8; stroke-linejoin: miter; stroke-linecap: square"/>
   </g>
   <g id="patch_4">
    <path d="M 252 115.2 
L 252 7.2 
" style="fill: none; stroke: #000000; stroke-width: 0.8; stroke-linejoin: miter; stroke-linecap: square"/>
   </g>
   <g id="patch_5">
    <path d="M 36 115.2 
L 252 115.2 
" style="fill: none; stroke: #000000; stroke-width: 0.8; stroke-linejoin: miter; stroke-linecap: square"/>
   </g>
   <g id="patch_6">
    <path d="M 36 7.2 
L 252 7.2 
" style="fill: none; stroke: #000000; stroke-width: 0.8; stroke-linejoin: miter; stroke-linecap: square"/>
   </g>
   <g id="legend_1">
    <g id="patch_7">
     <path d="M 120.89375 95.195625 
L 246.4 95.195625 
Q 248 95.195625 248 93.595625 
L 248 28.804375 
Q 248 27.204375 246.4 27.204375 
L 120.89375 27.204375 
Q 119.29375 27.204375 119.29375 28.804375 
L 119.29375 93.595625 
Q 119.29375 95.195625 120.89375 95.195625 
z
" style="fill: #ffffff; opacity: 0.8; stroke: #cccccc; stroke-linejoin: miter"/>
    </g>
    <g id="line2d_19">
     <path d="M 122.49375 33.204375 
L 130.49375 33.204375 
L 138.49375 33.204375 
" style="fill: none; stroke: #000000; stroke-width: 1.5; stroke-linecap: square"/>
     <g>
      <use xlink:href="#m0f6ac349c2" x="130.49375" y="33.204375" style="stroke: #000000"/>
     </g>
    </g>
    <g id="text_15">
     <text style="font: 8px 'Carlito', sans-serif; text-anchor: start" x="144.89375" y="36.004375" transform="rotate(-0 144.89375 36.004375)">successful transmission</text>
    </g>
    <g id="line2d_20">
     <path d="M 122.49375 44.093125 
L 130.49375 44.093125 
L 138.49375 44.093125 
" style="fill: none; stroke: #00ced1; stroke-width: 1.5; stroke-linecap: square"/>
     <g>
      <use xlink:href="#m2e497cdde3" x="130.49375" y="44.093125" style="fill: #00ced1; stroke: #00ced1"/>
     </g>
    </g>
    <g id="text_16">
     <text style="font: 8px 'Carlito', sans-serif; text-anchor: start" x="144.89375" y="46.893125" transform="rotate(-0 144.89375 46.893125)">initiation failure</text>
    </g>
    <g id="line2d_21">
     <path d="M 122.49375 54.981875 
L 130.49375 54.981875 
L 138.49375 54.981875 
" style="fill: none; stroke: #2ca02c; stroke-width: 1.5; stroke-linecap: square"/>
     <g>
      <use xlink:href="#m8a4965aa07" x="130.49375" y="54.981875" style="fill: #2ca02c; stroke: #2ca02c"/>
     </g>
    </g>
    <g id="text_17">
     <text style="font: 8px 'Carlito', sans-serif; text-anchor: start" x="144.89375" y="57.781875" transform="rotate(-0 144.89375 57.781875)">propagation failure</text>
    </g>
    <g id="line2d_22">
     <path d="M 122.49375 65.956875 
L 130.49375 65.956875 
L 138.49375 65.956875 
" style="fill: none; stroke: #d62728; stroke-width: 1.5; stroke-linecap: square"/>
     <g>
      <use xlink:href="#m98db0ebd49" x="130.49375" y="65.956875" style="fill: #d62728; stroke: #d62728"/>
     </g>
    </g>
    <g id="text_18">
     <text style="font: 8px 'Carlito', sans-serif; text-anchor: start" x="144.89375" y="68.756875" transform="rotate(-0 144.89375 68.756875)">1 backward front spawning</text>
    </g>
    <g id="line2d_23">
     <path d="M 122.49375 76.931875 
L 130.49375 76.931875 
L 138.49375 76.931875 
" style="fill: none; stroke: #9467bd; stroke-width: 1.5; stroke-linecap: square"/>
     <g>
      <use xlink:href="#m4ee1dc9e27" x="130.49375" y="76.931875" style="fill: #9467bd; stroke: #9467bd"/>
     </g>
    </g>
    <g id="text_19">
     <text style="font: 8px 'Carlito', sans-serif; text-anchor: start" x="144.89375" y="79.731875" transform="rotate(-0 144.89375 79.731875)">other front spawning events</text>
    </g>
    <g id="line2d_24">
     <path d="M 122.49375 87.906875 
L 130.49375 87.906875 
L 138.49375 87.906875 
" style="fill: none; stroke: #8c564b; stroke-width: 1.5; stroke-linecap: square"/>
     <g>
      <use xlink:href="#m4e3b9b4075" x="130.49375" y="87.906875" style="fill: #8c564b; stroke: #8c564b"/>
     </g>
    </g>
    <g id="text_20">
     <text style="font: 8px 'Carlito', sans-serif; text-anchor: start" x="144.89375" y="90.706875" transform="rotate(-0 144.89375 90.706875)">annihilation by backward front</text>
    </g>
   </g>
  </g>
 </g>
 <defs>
  <clipPath id="pc9ca621a20">
   <rect x="36" y="7.2" width="216" height="108"/>
  </clipPath>
 </defs>
</svg>
