<?xml version="1.0" encoding="utf-8" standalone="no"?>
<!DOCTYPE svg PUBLIC "-//W3C//DTD SVG 1.1//EN"
  "http://www.w3.org/Graphics/SVG/1.1/DTD/svg11.dtd">
<svg xmlns:xlink="http://www.w3.org/1999/xlink" width="234pt" height="237.6pt" viewBox="0 0 234 237.6" xmlns="http://www.w3.org/2000/svg" version="1.1">
 <metadata>
  <rdf:RDF xmlns:dc="http://purl.org/dc/elements/1.1/" xmlns:cc="http://creativecommons.org/ns#" xmlns:rdf="http://www.w3.org/1999/02/22-rdf-syntax-ns#">
   <cc:Work>
    <dc:type rdf:resource="http://purl.org/dc/dcmitype/StillImage"/>
    <dc:date>2024-06-26T15:48:08.091773</dc:date>
    <dc:format>image/svg+xml</dc:format>
    <dc:creator>
     <cc:Agent>
      <dc:title>Matplotlib v3.7.1, https://matplotlib.org/</dc:title>
     </cc:Agent>
    </dc:creator>
   </cc:Work>
  </rdf:RDF>
 </metadata>
 <defs>
  <style type="text/css">*{stroke-linejoin: round; stroke-linecap: butt}</style>
 </defs>
 <g id="figure_1">
  <g id="patch_1">
   <path d="M 0 237.6 
L 234 237.6 
L 234 0 
L 0 0 
z
" style="fill: #ffffff"/>
  </g>
  <g id="axes_1">
   <g id="patch_2">
    <path d="M 54 201.6 
L 226.8 201.6 
L 226.8 7.2 
L 54 7.2 
z
" style="fill: #ffffff"/>
   </g>
   <g id="matplotlib.axis_1">
    <g id="xtick_1">
     <g id="line2d_1">
      <defs>
       <path id="m3e02cb0b97" d="M 0 0 
L 0 3.5 
" style="stroke: #000000; stroke-width: 0.8"/>
      </defs>
      <g>
       <use xlink:href="#m3e02cb0b97" x="54" y="201.6" style="stroke: #000000; stroke-width: 0.8"/>
      </g>
     </g>
     <g id="text_1">
      <text style="font: 8px 'Carlito', sans-serif; text-anchor: middle" x="54" y="214.155" transform="rotate(-0 54 214.155)">0</text>
     </g>
    </g>
    <g id="xtick_2">
     <g id="line2d_2">
      <g>
       <use xlink:href="#m3e02cb0b97" x="95.142857" y="201.6" style="stroke: #000000; stroke-width: 0.8"/>
      </g>
     </g>
     <g id="text_2">
      <text style="font: 8px 'Carlito', sans-serif; text-anchor: middle" x="95.142857" y="214.155" transform="rotate(-0 95.142857 214.155)">5</text>
     </g>
    </g>
    <g id="xtick_3">
     <g id="line2d_3">
      <g>
       <use xlink:href="#m3e02cb0b97" x="136.285714" y="201.6" style="stroke: #000000; stroke-width: 0.8"/>
      </g>
     </g>
     <g id="text_3">
      <text style="font: 8px 'Carlito', sans-serif; text-anchor: middle" x="136.285714" y="214.155" transform="rotate(-0 136.285714 214.155)">10</text>
     </g>
    </g>
    <g id="xtick_4">
     <g id="line2d_4">
      <g>
       <use xlink:href="#m3e02cb0b97" x="177.428571" y="201.6" style="stroke: #000000; stroke-width: 0.8"/>
      </g>
     </g>
     <g id="text_4">
      <text style="font: 8px 'Carlito', sans-serif; text-anchor: middle" x="177.428571" y="214.155" transform="rotate(-0 177.428571 214.155)">15</text>
     </g>
    </g>
    <g id="xtick_5">
     <g id="line2d_5">
      <g>
       <use xlink:href="#m3e02cb0b97" x="218.571429" y="201.6" style="stroke: #000000; stroke-width: 0.8"/>
      </g>
     </g>
     <g id="text_5">
      <text style="font: 8px 'Carlito', sans-serif; text-anchor: middle" x="218.571429" y="214.155" transform="rotate(-0 218.571429 214.155)">20</text>
     </g>
    </g>
    <g id="text_6">
     <!-- channel width $W$ -->
     <g transform="translate(112.88 224.99875)">
      <text>
       <tspan style="font: 8px 'Carlito'" x="0 3.382812 7.585938 11.417969 15.621094 19.824219 23.804688 25.640625 27.449219 33.167969 35.003906 39.207031 41.886719 46.089844" y="-0.4375">channel width </tspan>
       <tspan style="font: italic 8px 'Carlito'" x="47.898438" y="-0.4375">W</tspan>
      </text>
     </g>
    </g>
   </g>
   <g id="matplotlib.axis_2">
    <g id="ytick_1">
     <g id="line2d_6">
      <defs>
       <path id="m035e11cfad" d="M 0 0 
L -3.5 0 
" style="stroke: #000000; stroke-width: 0.8"/>
      </defs>
      <g>
       <use xlink:href="#m035e11cfad" x="54" y="201.6" style="stroke: #000000; stroke-width: 0.8"/>
      </g>
     </g>
     <g id="text_7">
      <!-- 0×10$^{-4}$ -->
      <g transform="translate(24.92 204.3775)">
       <text>
        <tspan style="font: 8px 'Carlito'" x="0 4.054688 8.039062 12.09375" y="-0.7218750000000007">0×10</tspan>
        <tspan style="font: 5.6px 'Carlito'" x="16.21543 19.004492" y="-3.4015625000000007">−4</tspan>
       </text>
      </g>
     </g>
    </g>
    <g id="ytick_2">
     <g id="line2d_7">
      <g>
       <use xlink:href="#m035e11cfad" x="54" y="7.2" style="stroke: #000000; stroke-width: 0.8"/>
      </g>
     </g>
     <g id="text_8">
      <!-- 2×10$^{-4}$ -->
      <g transform="translate(24.92 9.9775)">
       <text>
        <tspan style="font: 8px 'Carlito'" x="0 4.054688 8.039062 12.09375" y="-0.7218750000000007">2×10</tspan>
        <tspan style="font: 5.6px 'Carlito'" x="16.21543 19.004492" y="-3.4015625000000007">−4</tspan>
       </text>
      </g>
     </g>
    </g>
    <g id="ytick_3">
     <g id="line2d_8">
      <defs>
       <path id="mb16d424b8e" d="M 0 0 
L -2 0 
" style="stroke: #000000; stroke-width: 0.6"/>
      </defs>
      <g>
       <use xlink:href="#mb16d424b8e" x="54" y="104.4" style="stroke: #000000; stroke-width: 0.6"/>
      </g>
     </g>
    </g>
    <g id="text_9">
     <!-- propensity [cell layer$^{-1}$] -->
     <g transform="translate(37.56 142.6) rotate(-90)">
      <text>
       <tspan style="font: 8px 'Carlito'" x="0 4.203125 6.992188 11.210938 15.414062 19.394531 23.597656 26.726562 28.5625 31.242188 34.863281 36.671875 39.125 42.507812 46.488281 48.324219 50.160156 51.96875 53.804688 57.636719 61.257812 65.238281 73.913086" y="-0.7109375">propensity [cell layer]</tspan>
       <tspan style="font: 5.6px 'Carlito'" x="68.094336 70.883398" y="-3.390625">−1</tspan>
      </text>
     </g>
    </g>
   </g>
   <g id="line2d_9">
    <path d="M 70.457143 198.393444 
L 78.685714 181.138502 
L 86.914286 160.797411 
L 95.142857 149.475635 
L 103.371429 148.729949 
L 111.6 161.790371 
L 119.828571 169.548849 
L 128.057143 175.772102 
L 136.285714 182.151835 
L 152.742857 186.613535 
L 169.2 182.163221 
L 185.657143 177.716881 
L 202.114286 172.283022 
L 218.571429 162.930491 
" style="fill: none; stroke: #d62728; stroke-width: 1.5; stroke-linecap: square"/>
    <defs>
     <path id="ma129a3f678" d="M 0 -2.25 
L -2.25 2.25 
L 2.25 2.25 
z
" style="stroke: #d62728; stroke-linejoin: miter"/>
    </defs>
    <g>
     <use xlink:href="#ma129a3f678" x="70.457143" y="198.393444" style="fill: #d62728; stroke: #d62728; stroke-linejoin: miter"/>
     <use xlink:href="#ma129a3f678" x="78.685714" y="181.138502" style="fill: #d62728; stroke: #d62728; stroke-linejoin: miter"/>
     <use xlink:href="#ma129a3f678" x="86.914286" y="160.797411" style="fill: #d62728; stroke: #d62728; stroke-linejoin: miter"/>
     <use xlink:href="#ma129a3f678" x="95.142857" y="149.475635" style="fill: #d62728; stroke: #d62728; stroke-linejoin: miter"/>
     <use xlink:href="#ma129a3f678" x="103.371429" y="148.729949" style="fill: #d62728; stroke: #d62728; stroke-linejoin: miter"/>
     <use xlink:href="#ma129a3f678" x="111.6" y="161.790371" style="fill: #d62728; stroke: #d62728; stroke-linejoin: miter"/>
     <use xlink:href="#ma129a3f678" x="119.828571" y="169.548849" style="fill: #d62728; stroke: #d62728; stroke-linejoin: miter"/>
     <use xlink:href="#ma129a3f678" x="128.057143" y="175.772102" style="fill: #d62728; stroke: #d62728; stroke-linejoin: miter"/>
     <use xlink:href="#ma129a3f678" x="136.285714" y="182.151835" style="fill: #d62728; stroke: #d62728; stroke-linejoin: miter"/>
     <use xlink:href="#ma129a3f678" x="152.742857" y="186.613535" style="fill: #d62728; stroke: #d62728; stroke-linejoin: miter"/>
     <use xlink:href="#ma129a3f678" x="169.2" y="182.163221" style="fill: #d62728; stroke: #d62728; stroke-linejoin: miter"/>
     <use xlink:href="#ma129a3f678" x="185.657143" y="177.716881" style="fill: #d62728; stroke: #d62728; stroke-linejoin: miter"/>
     <use xlink:href="#ma129a3f678" x="202.114286" y="172.283022" style="fill: #d62728; stroke: #d62728; stroke-linejoin: miter"/>
     <use xlink:href="#ma129a3f678" x="218.571429" y="162.930491" style="fill: #d62728; stroke: #d62728; stroke-linejoin: miter"/>
    </g>
   </g>
   <g id="line2d_10">
    <path d="M 78.685714 201.441384 
L 86.914286 195.585746 
L 95.142857 184.559342 
L 103.371429 172.041849 
L 111.6 154.298109 
L 119.828571 145.091699 
L 128.057143 138.316059 
L 136.285714 129.090944 
L 152.742857 121.672187 
L 169.2 117.146628 
L 185.657143 103.565481 
L 202.114286 96.195769 
L 218.571429 88.938984 
" style="fill: none; stroke: #ff7f0e; stroke-width: 1.5; stroke-linecap: square"/>
    <defs>
     <path id="mf74dfce418" d="M 0 -2.25 
L -2.25 2.25 
L 2.25 2.25 
z
" style="stroke: #ff7f0e; stroke-linejoin: miter"/>
    </defs>
    <g>
     <use xlink:href="#mf74dfce418" x="78.685714" y="201.441384" style="fill: #ff7f0e; stroke: #ff7f0e; stroke-linejoin: miter"/>
     <use xlink:href="#mf74dfce418" x="86.914286" y="195.585746" style="fill: #ff7f0e; stroke: #ff7f0e; stroke-linejoin: miter"/>
     <use xlink:href="#mf74dfce418" x="95.142857" y="184.559342" style="fill: #ff7f0e; stroke: #ff7f0e; stroke-linejoin: miter"/>
     <use xlink:href="#mf74dfce418" x="103.371429" y="172.041849" style="fill: #ff7f0e; stroke: #ff7f0e; stroke-linejoin: miter"/>
     <use xlink:href="#mf74dfce418" x="111.6" y="154.298109" style="fill: #ff7f0e; stroke: #ff7f0e; stroke-linejoin: miter"/>
     <use xlink:href="#mf74dfce418" x="119.828571" y="145.091699" style="fill: #ff7f0e; stroke: #ff7f0e; stroke-linejoin: miter"/>
     <use xlink:href="#mf74dfce418" x="128.057143" y="138.316059" style="fill: #ff7f0e; stroke: #ff7f0e; stroke-linejoin: miter"/>
     <use xlink:href="#mf74dfce418" x="136.285714" y="129.090944" style="fill: #ff7f0e; stroke: #ff7f0e; stroke-linejoin: miter"/>
     <use xlink:href="#mf74dfce418" x="152.742857" y="121.672187" style="fill: #ff7f0e; stroke: #ff7f0e; stroke-linejoin: miter"/>
     <use xlink:href="#mf74dfce418" x="169.2" y="117.146628" style="fill: #ff7f0e; stroke: #ff7f0e; stroke-linejoin: miter"/>
     <use xlink:href="#mf74dfce418" x="185.657143" y="103.565481" style="fill: #ff7f0e; stroke: #ff7f0e; stroke-linejoin: miter"/>
     <use xlink:href="#mf74dfce418" x="202.114286" y="96.195769" style="fill: #ff7f0e; stroke: #ff7f0e; stroke-linejoin: miter"/>
     <use xlink:href="#mf74dfce418" x="218.571429" y="88.938984" style="fill: #ff7f0e; stroke: #ff7f0e; stroke-linejoin: miter"/>
    </g>
   </g>
   <g id="line2d_11">
    <path d="M 78.685714 200.648302 
L 86.914286 200.656588 
L 95.142857 199.372463 
L 103.371429 199.926897 
L 111.6 198.357081 
L 119.828571 199.143117 
L 128.057143 198.469346 
L 136.285714 199.464074 
L 152.742857 197.172181 
L 169.2 196.485058 
L 185.657143 197.050834 
L 202.114286 195.440012 
L 218.571429 196.405588 
" style="fill: none; stroke: #bcbd22; stroke-width: 1.5; stroke-linecap: square"/>
    <defs>
     <path id="m929c10946d" d="M 0 -2.25 
L -2.25 2.25 
L 2.25 2.25 
z
" style="stroke: #bcbd22; stroke-linejoin: miter"/>
    </defs>
    <g>
     <use xlink:href="#m929c10946d" x="78.685714" y="200.648302" style="fill: #bcbd22; stroke: #bcbd22; stroke-linejoin: miter"/>
     <use xlink:href="#m929c10946d" x="86.914286" y="200.656588" style="fill: #bcbd22; stroke: #bcbd22; stroke-linejoin: miter"/>
     <use xlink:href="#m929c10946d" x="95.142857" y="199.372463" style="fill: #bcbd22; stroke: #bcbd22; stroke-linejoin: miter"/>
     <use xlink:href="#m929c10946d" x="103.371429" y="199.926897" style="fill: #bcbd22; stroke: #bcbd22; stroke-linejoin: miter"/>
     <use xlink:href="#m929c10946d" x="111.6" y="198.357081" style="fill: #bcbd22; stroke: #bcbd22; stroke-linejoin: miter"/>
     <use xlink:href="#m929c10946d" x="119.828571" y="199.143117" style="fill: #bcbd22; stroke: #bcbd22; stroke-linejoin: miter"/>
     <use xlink:href="#m929c10946d" x="128.057143" y="198.469346" style="fill: #bcbd22; stroke: #bcbd22; stroke-linejoin: miter"/>
     <use xlink:href="#m929c10946d" x="136.285714" y="199.464074" style="fill: #bcbd22; stroke: #bcbd22; stroke-linejoin: miter"/>
     <use xlink:href="#m929c10946d" x="152.742857" y="197.172181" style="fill: #bcbd22; stroke: #bcbd22; stroke-linejoin: miter"/>
     <use xlink:href="#m929c10946d" x="169.2" y="196.485058" style="fill: #bcbd22; stroke: #bcbd22; stroke-linejoin: miter"/>
     <use xlink:href="#m929c10946d" x="185.657143" y="197.050834" style="fill: #bcbd22; stroke: #bcbd22; stroke-linejoin: miter"/>
     <use xlink:href="#m929c10946d" x="202.114286" y="195.440012" style="fill: #bcbd22; stroke: #bcbd22; stroke-linejoin: miter"/>
     <use xlink:href="#m929c10946d" x="218.571429" y="196.405588" style="fill: #bcbd22; stroke: #bcbd22; stroke-linejoin: miter"/>
    </g>
   </g>
   <g id="line2d_12">
    <path d="M 86.914286 200.774514 
L 95.142857 198.370071 
L 103.371429 189.77674 
L 111.6 175.880296 
L 119.828571 160.168024 
L 128.057143 156.429131 
L 136.285714 141.681664 
L 152.742857 134.501509 
L 169.2 126.694519 
L 185.657143 128.585892 
L 202.114286 116.500913 
L 218.571429 112.140689 
" style="fill: none; stroke: #e377c2; stroke-width: 1.5; stroke-linecap: square"/>
    <defs>
     <path id="m7ea38326ed" d="M 0 -2.25 
L -2.25 2.25 
L 2.25 2.25 
z
" style="stroke: #e377c2; stroke-linejoin: miter"/>
    </defs>
    <g>
     <use xlink:href="#m7ea38326ed" x="86.914286" y="200.774514" style="fill: #e377c2; stroke: #e377c2; stroke-linejoin: miter"/>
     <use xlink:href="#m7ea38326ed" x="95.142857" y="198.370071" style="fill: #e377c2; stroke: #e377c2; stroke-linejoin: miter"/>
     <use xlink:href="#m7ea38326ed" x="103.371429" y="189.77674" style="fill: #e377c2; stroke: #e377c2; stroke-linejoin: miter"/>
     <use xlink:href="#m7ea38326ed" x="111.6" y="175.880296" style="fill: #e377c2; stroke: #e377c2; stroke-linejoin: miter"/>
     <use xlink:href="#m7ea38326ed" x="119.828571" y="160.168024" style="fill: #e377c2; stroke: #e377c2; stroke-linejoin: miter"/>
     <use xlink:href="#m7ea38326ed" x="128.057143" y="156.429131" style="fill: #e377c2; stroke: #e377c2; stroke-linejoin: miter"/>
     <use xlink:href="#m7ea38326ed" x="136.285714" y="141.681664" style="fill: #e377c2; stroke: #e377c2; stroke-linejoin: miter"/>
     <use xlink:href="#m7ea38326ed" x="152.742857" y="134.501509" style="fill: #e377c2; stroke: #e377c2; stroke-linejoin: miter"/>
     <use xlink:href="#m7ea38326ed" x="169.2" y="126.694519" style="fill: #e377c2; stroke: #e377c2; stroke-linejoin: miter"/>
     <use xlink:href="#m7ea38326ed" x="185.657143" y="128.585892" style="fill: #e377c2; stroke: #e377c2; stroke-linejoin: miter"/>
     <use xlink:href="#m7ea38326ed" x="202.114286" y="116.500913" style="fill: #e377c2; stroke: #e377c2; stroke-linejoin: miter"/>
     <use xlink:href="#m7ea38326ed" x="218.571429" y="112.140689" style="fill: #e377c2; stroke: #e377c2; stroke-linejoin: miter"/>
    </g>
   </g>
   <g id="line2d_13">
    <path d="M 103.371429 201.37692 
L 111.6 200.817226 
L 119.828571 194.899411 
L 128.057143 191.648992 
L 136.285714 178.666903 
L 152.742857 161.976695 
L 169.2 141.016356 
L 185.657143 121.875873 
L 202.114286 117.413504 
L 218.571429 99.55867 
" style="fill: none; stroke: #9467bd; stroke-width: 1.5; stroke-linecap: square"/>
    <defs>
     <path id="mf79f1449b6" d="M 0 -2.25 
L -2.25 2.25 
L 2.25 2.25 
z
" style="stroke: #9467bd; stroke-linejoin: miter"/>
    </defs>
    <g>
     <use xlink:href="#mf79f1449b6" x="103.371429" y="201.37692" style="fill: #9467bd; stroke: #9467bd; stroke-linejoin: miter"/>
     <use xlink:href="#mf79f1449b6" x="111.6" y="200.817226" style="fill: #9467bd; stroke: #9467bd; stroke-linejoin: miter"/>
     <use xlink:href="#mf79f1449b6" x="119.828571" y="194.899411" style="fill: #9467bd; stroke: #9467bd; stroke-linejoin: miter"/>
     <use xlink:href="#mf79f1449b6" x="128.057143" y="191.648992" style="fill: #9467bd; stroke: #9467bd; stroke-linejoin: miter"/>
     <use xlink:href="#mf79f1449b6" x="136.285714" y="178.666903" style="fill: #9467bd; stroke: #9467bd; stroke-linejoin: miter"/>
     <use xlink:href="#mf79f1449b6" x="152.742857" y="161.976695" style="fill: #9467bd; stroke: #9467bd; stroke-linejoin: miter"/>
     <use xlink:href="#mf79f1449b6" x="169.2" y="141.016356" style="fill: #9467bd; stroke: #9467bd; stroke-linejoin: miter"/>
     <use xlink:href="#mf79f1449b6" x="185.657143" y="121.875873" style="fill: #9467bd; stroke: #9467bd; stroke-linejoin: miter"/>
     <use xlink:href="#mf79f1449b6" x="202.114286" y="117.413504" style="fill: #9467bd; stroke: #9467bd; stroke-linejoin: miter"/>
     <use xlink:href="#mf79f1449b6" x="218.571429" y="99.55867" style="fill: #9467bd; stroke: #9467bd; stroke-linejoin: miter"/>
    </g>
   </g>
   <g id="patch_3">
    <path d="M 54 201.6 
L 54 7.2 
" style="fill: none; stroke: #000000; stroke-width: 0.8; stroke-linejoin: miter; stroke-linecap: square"/>
   </g>
   <g id="patch_4">
    <path d="M 226.8 201.6 
L 226.8 7.2 
" style="fill: none; stroke: #000000; stroke-width: 0.8; stroke-linejoin: miter; stroke-linecap: square"/>
   </g>
   <g id="patch_5">
    <path d="M 54 201.6 
L 226.8 201.6 
" style="fill: none; stroke: #000000; stroke-width: 0.8; stroke-linejoin: miter; stroke-linecap: square"/>
   </g>
   <g id="patch_6">
    <path d="M 54 7.2 
L 226.8 7.2 
" style="fill: none; stroke: #000000; stroke-width: 0.8; stroke-linejoin: miter; stroke-linecap: square"/>
   </g>
   <g id="legend_1">
    <g id="patch_7">
     <path d="M 122.08 83.86325 
L 221.2 83.86325 
Q 222.8 83.86325 222.8 82.26325 
L 222.8 12.8 
Q 222.8 11.2 221.2 11.2 
L 122.08 11.2 
Q 120.48 11.2 120.48 12.8 
L 120.48 82.26325 
Q 120.48 83.86325 122.08 83.86325 
z
" style="fill: #ffffff; opacity: 0.8; stroke: #cccccc; stroke-linejoin: miter"/>
    </g>
    <g id="line2d_14">
     <path d="M 123.68 17.2 
L 131.68 17.2 
L 139.68 17.2 
" style="fill: none; stroke: #d62728; stroke-width: 1.5; stroke-linecap: square"/>
     <g>
      <use xlink:href="#ma129a3f678" x="131.68" y="17.2" style="fill: #d62728; stroke: #d62728; stroke-linejoin: miter"/>
     </g>
    </g>
    <g id="text_10">
     <text style="font: 8px 'Carlito', sans-serif; text-anchor: start" x="146.08" y="20" transform="rotate(-0 146.08 20)">1 backward</text>
    </g>
    <g id="line2d_15">
     <path d="M 123.68 28.08875 
L 131.68 28.08875 
L 139.68 28.08875 
" style="fill: none; stroke: #ff7f0e; stroke-width: 1.5; stroke-linecap: square"/>
     <g>
      <use xlink:href="#mf74dfce418" x="131.68" y="28.08875" style="fill: #ff7f0e; stroke: #ff7f0e; stroke-linejoin: miter"/>
     </g>
    </g>
    <g id="text_11">
     <text style="font: 8px 'Carlito', sans-serif; text-anchor: start" x="146.08" y="30.88875" transform="rotate(-0 146.08 30.88875)">1 forward, 1 backward</text>
    </g>
    <g id="line2d_16">
     <path d="M 123.68 38.9775 
L 131.68 38.9775 
L 139.68 38.9775 
" style="fill: none; stroke: #bcbd22; stroke-width: 1.5; stroke-linecap: square"/>
     <g>
      <use xlink:href="#m929c10946d" x="131.68" y="38.9775" style="fill: #bcbd22; stroke: #bcbd22; stroke-linejoin: miter"/>
     </g>
    </g>
    <g id="text_12">
     <text style="font: 8px 'Carlito', sans-serif; text-anchor: start" x="146.08" y="41.7775" transform="rotate(-0 146.08 41.7775)">1 forward</text>
    </g>
    <g id="line2d_17">
     <path d="M 123.68 54.443 
L 131.68 54.443 
L 139.68 54.443 
" style="fill: none; stroke: #e377c2; stroke-width: 1.5; stroke-linecap: square"/>
     <g>
      <use xlink:href="#m7ea38326ed" x="131.68" y="54.443" style="fill: #e377c2; stroke: #e377c2; stroke-linejoin: miter"/>
     </g>
    </g>
    <g id="text_13">
     <!-- other events with $\leq$ 6  -->
     <g transform="translate(146.08 52.62125)">
      <text>
       <tspan style="font: 8px 'Carlito'" x="0 4.21875 6.898438 11.101562 15.082031 17.871094 19.679688 23.660156 27.273438 31.253906 35.457031 38.136719 41.265625 43.074219 48.792969 50.628906 53.308594 57.511719 60.585938 65.835938 67.644531 71.699219" y="-0.4375">other events with ≤ 6 </tspan>
      </text>
     </g>
     <text style="font: 8px 'Carlito', sans-serif" transform="translate(146.08 60.576)">spawned fronts</text>
    </g>
    <g id="line2d_18">
     <path d="M 123.68 73.2415 
L 131.68 73.2415 
L 139.68 73.2415 
" style="fill: none; stroke: #9467bd; stroke-width: 1.5; stroke-linecap: square"/>
     <g>
      <use xlink:href="#mf79f1449b6" x="131.68" y="73.2415" style="fill: #9467bd; stroke: #9467bd; stroke-linejoin: miter"/>
     </g>
    </g>
    <g id="text_14">
     <text style="font: 8px 'Carlito', sans-serif" transform="translate(146.08 71.41975)">events with &gt; 6 </text>
     <text style="font: 8px 'Carlito', sans-serif" transform="translate(146.08 79.3745)">spawned fronts</text>
    </g>
   </g>
  </g>
 </g>
</svg>
