<?xml version="1.0" encoding="utf-8" standalone="no"?>
<!DOCTYPE svg PUBLIC "-//W3C//DTD SVG 1.1//EN"
  "http://www.w3.org/Graphics/SVG/1.1/DTD/svg11.dtd">
<svg xmlns:xlink="http://www.w3.org/1999/xlink" width="201.6pt" height="475.2pt" viewBox="0 0 201.6 475.2" xmlns="http://www.w3.org/2000/svg" version="1.1">
 <metadata>
  <rdf:RDF xmlns:dc="http://purl.org/dc/elements/1.1/" xmlns:cc="http://creativecommons.org/ns#" xmlns:rdf="http://www.w3.org/1999/02/22-rdf-syntax-ns#">
   <cc:Work>
    <dc:type rdf:resource="http://purl.org/dc/dcmitype/StillImage"/>
    <dc:date>2023-12-01T07:22:27.999517</dc:date>
    <dc:format>image/svg+xml</dc:format>
    <dc:creator>
     <cc:Agent>
      <dc:title>Matplotlib v3.8.0, https://matplotlib.org/</dc:title>
     </cc:Agent>
    </dc:creator>
   </cc:Work>
  </rdf:RDF>
 </metadata>
 <defs>
  <style type="text/css">*{stroke-linejoin: round; stroke-linecap: butt}</style>
 </defs>
 <g id="figure_1">
  <g id="patch_1">
   <path d="M 0 475.2 
L 201.6 475.2 
L 201.6 0 
L 0 0 
z
" style="fill: #ffffff"/>
  </g>
  <g id="axes_1">
   <g id="patch_2">
    <path d="M 43.2 439.2 
L 187.2 439.2 
L 187.2 7.2 
L 43.2 7.2 
z
" style="fill: #ffffff"/>
   </g>
   <g id="patch_3">
    <path d="M 46.656 397.273135 
L 51.264 397.273135 
L 51.264 395.569857 
L 46.656 395.569857 
z
" clip-path="url(#p6d38bd51b5)" style="fill: #800000"/>
   </g>
   <g id="patch_4">
    <path d="M 52.416 397.273135 
L 57.024 397.273135 
L 57.024 397.246931 
L 52.416 397.246931 
z
" clip-path="url(#p6d38bd51b5)" style="fill: #800000"/>
   </g>
   <g id="patch_5">
    <path d="M 46.656 376.309703 
L 51.264 376.309703 
L 51.264 367.55747 
L 46.656 367.55747 
z
" clip-path="url(#p6d38bd51b5)" style="fill: #800000"/>
   </g>
   <g id="patch_6">
    <path d="M 52.416 376.309703 
L 57.024 376.309703 
L 57.024 375.392553 
L 52.416 375.392553 
z
" clip-path="url(#p6d38bd51b5)" style="fill: #800000"/>
   </g>
   <g id="patch_7">
    <path d="M 58.176 376.309703 
L 62.784 376.309703 
L 62.784 376.23109 
L 58.176 376.23109 
z
" clip-path="url(#p6d38bd51b5)" style="fill: #800000"/>
   </g>
   <g id="patch_8">
    <path d="M 46.656 355.346271 
L 51.264 355.346271 
L 51.264 341.222158 
L 46.656 341.222158 
z
" clip-path="url(#p6d38bd51b5)" style="fill: #800000"/>
   </g>
   <g id="patch_9">
    <path d="M 52.416 355.346271 
L 57.024 355.346271 
L 57.024 352.490003 
L 52.416 352.490003 
z
" clip-path="url(#p6d38bd51b5)" style="fill: #800000"/>
   </g>
   <g id="patch_10">
    <path d="M 58.176 355.346271 
L 62.784 355.346271 
L 62.784 354.586346 
L 58.176 354.586346 
z
" clip-path="url(#p6d38bd51b5)" style="fill: #800000"/>
   </g>
   <g id="patch_11">
    <path d="M 63.936 355.346271 
L 68.544 355.346271 
L 68.544 354.927002 
L 63.936 354.927002 
z
" clip-path="url(#p6d38bd51b5)" style="fill: #800000"/>
   </g>
   <g id="patch_12">
    <path d="M 69.696 355.346271 
L 74.304 355.346271 
L 74.304 355.293862 
L 69.696 355.293862 
z
" clip-path="url(#p6d38bd51b5)" style="fill: #800000"/>
   </g>
   <g id="patch_13">
    <path d="M 46.656 334.382839 
L 51.264 334.382839 
L 51.264 320.520769 
L 46.656 320.520769 
z
" clip-path="url(#p6d38bd51b5)" style="fill: #800000"/>
   </g>
   <g id="patch_14">
    <path d="M 52.416 334.382839 
L 57.024 334.382839 
L 57.024 328.748916 
L 52.416 328.748916 
z
" clip-path="url(#p6d38bd51b5)" style="fill: #800000"/>
   </g>
   <g id="patch_15">
    <path d="M 58.176 334.382839 
L 62.784 334.382839 
L 62.784 332.076861 
L 58.176 332.076861 
z
" clip-path="url(#p6d38bd51b5)" style="fill: #800000"/>
   </g>
   <g id="patch_16">
    <path d="M 63.936 334.382839 
L 68.544 334.382839 
L 68.544 333.491893 
L 63.936 333.491893 
z
" clip-path="url(#p6d38bd51b5)" style="fill: #800000"/>
   </g>
   <g id="patch_17">
    <path d="M 69.696 334.382839 
L 74.304 334.382839 
L 74.304 333.884957 
L 69.696 333.884957 
z
" clip-path="url(#p6d38bd51b5)" style="fill: #800000"/>
   </g>
   <g id="patch_18">
    <path d="M 75.456 334.382839 
L 80.064 334.382839 
L 80.064 334.199409 
L 75.456 334.199409 
z
" clip-path="url(#p6d38bd51b5)" style="fill: #800000"/>
   </g>
   <g id="patch_19">
    <path d="M 81.216 334.382839 
L 85.824 334.382839 
L 85.824 334.199409 
L 81.216 334.199409 
z
" clip-path="url(#p6d38bd51b5)" style="fill: #800000"/>
   </g>
   <g id="patch_20">
    <path d="M 86.976 334.382839 
L 91.584 334.382839 
L 91.584 334.304226 
L 86.976 334.304226 
z
" clip-path="url(#p6d38bd51b5)" style="fill: #800000"/>
   </g>
   <g id="patch_21">
    <path d="M 92.736 334.382839 
L 97.344 334.382839 
L 97.344 334.33043 
L 92.736 334.33043 
z
" clip-path="url(#p6d38bd51b5)" style="fill: #800000"/>
   </g>
   <g id="patch_22">
    <path d="M 110.016 334.382839 
L 114.624 334.382839 
L 114.624 334.356634 
L 110.016 334.356634 
z
" clip-path="url(#p6d38bd51b5)" style="fill: #800000"/>
   </g>
   <g id="patch_23">
    <path d="M 46.656 313.419406 
L 51.264 313.419406 
L 51.264 302.885282 
L 46.656 302.885282 
z
" clip-path="url(#p6d38bd51b5)" style="fill: #800000"/>
   </g>
   <g id="patch_24">
    <path d="M 52.416 313.419406 
L 57.024 313.419406 
L 57.024 304.457539 
L 52.416 304.457539 
z
" clip-path="url(#p6d38bd51b5)" style="fill: #800000"/>
   </g>
   <g id="patch_25">
    <path d="M 58.176 313.419406 
L 62.784 313.419406 
L 62.784 310.196279 
L 58.176 310.196279 
z
" clip-path="url(#p6d38bd51b5)" style="fill: #800000"/>
   </g>
   <g id="patch_26">
    <path d="M 63.936 313.419406 
L 68.544 313.419406 
L 68.544 311.637515 
L 63.936 311.637515 
z
" clip-path="url(#p6d38bd51b5)" style="fill: #800000"/>
   </g>
   <g id="patch_27">
    <path d="M 69.696 313.419406 
L 74.304 313.419406 
L 74.304 312.030579 
L 69.696 312.030579 
z
" clip-path="url(#p6d38bd51b5)" style="fill: #800000"/>
   </g>
   <g id="patch_28">
    <path d="M 75.456 313.419406 
L 80.064 313.419406 
L 80.064 312.764299 
L 75.456 312.764299 
z
" clip-path="url(#p6d38bd51b5)" style="fill: #800000"/>
   </g>
   <g id="patch_29">
    <path d="M 81.216 313.419406 
L 85.824 313.419406 
L 85.824 312.947729 
L 81.216 312.947729 
z
" clip-path="url(#p6d38bd51b5)" style="fill: #800000"/>
   </g>
   <g id="patch_30">
    <path d="M 86.976 313.419406 
L 91.584 313.419406 
L 91.584 312.947729 
L 86.976 312.947729 
z
" clip-path="url(#p6d38bd51b5)" style="fill: #800000"/>
   </g>
   <g id="patch_31">
    <path d="M 92.736 313.419406 
L 97.344 313.419406 
L 97.344 313.104955 
L 92.736 313.104955 
z
" clip-path="url(#p6d38bd51b5)" style="fill: #800000"/>
   </g>
   <g id="patch_32">
    <path d="M 98.496 313.419406 
L 103.104 313.419406 
L 103.104 313.262181 
L 98.496 313.262181 
z
" clip-path="url(#p6d38bd51b5)" style="fill: #800000"/>
   </g>
   <g id="patch_33">
    <path d="M 104.256 313.419406 
L 108.864 313.419406 
L 108.864 313.288385 
L 104.256 313.288385 
z
" clip-path="url(#p6d38bd51b5)" style="fill: #800000"/>
   </g>
   <g id="patch_34">
    <path d="M 110.016 313.419406 
L 114.624 313.419406 
L 114.624 313.340793 
L 110.016 313.340793 
z
" clip-path="url(#p6d38bd51b5)" style="fill: #800000"/>
   </g>
   <g id="patch_35">
    <path d="M 115.776 313.419406 
L 120.384 313.419406 
L 120.384 313.393202 
L 115.776 313.393202 
z
" clip-path="url(#p6d38bd51b5)" style="fill: #800000"/>
   </g>
   <g id="patch_36">
    <path d="M 127.296 313.419406 
L 131.904 313.419406 
L 131.904 313.366998 
L 127.296 313.366998 
z
" clip-path="url(#p6d38bd51b5)" style="fill: #800000"/>
   </g>
   <g id="patch_37">
    <path d="M 46.656 292.455974 
L 51.264 292.455974 
L 51.264 283.467902 
L 46.656 283.467902 
z
" clip-path="url(#p6d38bd51b5)" style="fill: #800000"/>
   </g>
   <g id="patch_38">
    <path d="M 52.416 292.455974 
L 57.024 292.455974 
L 57.024 282.157688 
L 52.416 282.157688 
z
" clip-path="url(#p6d38bd51b5)" style="fill: #800000"/>
   </g>
   <g id="patch_39">
    <path d="M 58.176 292.455974 
L 62.784 292.455974 
L 62.784 288.394309 
L 58.176 288.394309 
z
" clip-path="url(#p6d38bd51b5)" style="fill: #800000"/>
   </g>
   <g id="patch_40">
    <path d="M 63.936 292.455974 
L 68.544 292.455974 
L 68.544 289.861749 
L 63.936 289.861749 
z
" clip-path="url(#p6d38bd51b5)" style="fill: #800000"/>
   </g>
   <g id="patch_41">
    <path d="M 69.696 292.455974 
L 74.304 292.455974 
L 74.304 290.988534 
L 69.696 290.988534 
z
" clip-path="url(#p6d38bd51b5)" style="fill: #800000"/>
   </g>
   <g id="patch_42">
    <path d="M 75.456 292.455974 
L 80.064 292.455974 
L 80.064 290.909921 
L 75.456 290.909921 
z
" clip-path="url(#p6d38bd51b5)" style="fill: #800000"/>
   </g>
   <g id="patch_43">
    <path d="M 81.216 292.455974 
L 85.824 292.455974 
L 85.824 291.538824 
L 81.216 291.538824 
z
" clip-path="url(#p6d38bd51b5)" style="fill: #800000"/>
   </g>
   <g id="patch_44">
    <path d="M 86.976 292.455974 
L 91.584 292.455974 
L 91.584 291.407802 
L 86.976 291.407802 
z
" clip-path="url(#p6d38bd51b5)" style="fill: #800000"/>
   </g>
   <g id="patch_45">
    <path d="M 92.736 292.455974 
L 97.344 292.455974 
L 97.344 291.827071 
L 92.736 291.827071 
z
" clip-path="url(#p6d38bd51b5)" style="fill: #800000"/>
   </g>
   <g id="patch_46">
    <path d="M 98.496 292.455974 
L 103.104 292.455974 
L 103.104 291.87948 
L 98.496 291.87948 
z
" clip-path="url(#p6d38bd51b5)" style="fill: #800000"/>
   </g>
   <g id="patch_47">
    <path d="M 104.256 292.455974 
L 108.864 292.455974 
L 108.864 291.87948 
L 104.256 291.87948 
z
" clip-path="url(#p6d38bd51b5)" style="fill: #800000"/>
   </g>
   <g id="patch_48">
    <path d="M 110.016 292.455974 
L 114.624 292.455974 
L 114.624 292.167727 
L 110.016 292.167727 
z
" clip-path="url(#p6d38bd51b5)" style="fill: #800000"/>
   </g>
   <g id="patch_49">
    <path d="M 115.776 292.455974 
L 120.384 292.455974 
L 120.384 292.167727 
L 115.776 292.167727 
z
" clip-path="url(#p6d38bd51b5)" style="fill: #800000"/>
   </g>
   <g id="patch_50">
    <path d="M 121.536 292.455974 
L 126.144 292.455974 
L 126.144 292.220135 
L 121.536 292.220135 
z
" clip-path="url(#p6d38bd51b5)" style="fill: #800000"/>
   </g>
   <g id="patch_51">
    <path d="M 127.296 292.455974 
L 131.904 292.455974 
L 131.904 292.272544 
L 127.296 292.272544 
z
" clip-path="url(#p6d38bd51b5)" style="fill: #800000"/>
   </g>
   <g id="patch_52">
    <path d="M 133.056 292.455974 
L 137.664 292.455974 
L 137.664 292.272544 
L 133.056 292.272544 
z
" clip-path="url(#p6d38bd51b5)" style="fill: #800000"/>
   </g>
   <g id="patch_53">
    <path d="M 138.816 292.455974 
L 143.424 292.455974 
L 143.424 292.403565 
L 138.816 292.403565 
z
" clip-path="url(#p6d38bd51b5)" style="fill: #800000"/>
   </g>
   <g id="patch_54">
    <path d="M 144.576 292.455974 
L 149.184 292.455974 
L 149.184 292.42977 
L 144.576 292.42977 
z
" clip-path="url(#p6d38bd51b5)" style="fill: #800000"/>
   </g>
   <g id="patch_55">
    <path d="M 150.336 292.455974 
L 154.944 292.455974 
L 154.944 292.42977 
L 150.336 292.42977 
z
" clip-path="url(#p6d38bd51b5)" style="fill: #800000"/>
   </g>
   <g id="patch_56">
    <path d="M 156.096 292.455974 
L 160.704 292.455974 
L 160.704 292.42977 
L 156.096 292.42977 
z
" clip-path="url(#p6d38bd51b5)" style="fill: #800000"/>
   </g>
   <g id="patch_57">
    <path d="M 161.856 292.455974 
L 166.464 292.455974 
L 166.464 292.42977 
L 161.856 292.42977 
z
" clip-path="url(#p6d38bd51b5)" style="fill: #800000"/>
   </g>
   <g id="patch_58">
    <path d="M 167.616 292.455974 
L 172.224 292.455974 
L 172.224 292.42977 
L 167.616 292.42977 
z
" clip-path="url(#p6d38bd51b5)" style="fill: #800000"/>
   </g>
   <g id="patch_59">
    <path d="M 46.656 271.492542 
L 51.264 271.492542 
L 51.264 264.417383 
L 46.656 264.417383 
z
" clip-path="url(#p6d38bd51b5)" style="fill: #800000"/>
   </g>
   <g id="patch_60">
    <path d="M 52.416 271.492542 
L 57.024 271.492542 
L 57.024 261.063234 
L 52.416 261.063234 
z
" clip-path="url(#p6d38bd51b5)" style="fill: #800000"/>
   </g>
   <g id="patch_61">
    <path d="M 58.176 271.492542 
L 62.784 271.492542 
L 62.784 267.719124 
L 58.176 267.719124 
z
" clip-path="url(#p6d38bd51b5)" style="fill: #800000"/>
   </g>
   <g id="patch_62">
    <path d="M 63.936 271.492542 
L 68.544 271.492542 
L 68.544 269.081747 
L 63.936 269.081747 
z
" clip-path="url(#p6d38bd51b5)" style="fill: #800000"/>
   </g>
   <g id="patch_63">
    <path d="M 69.696 271.492542 
L 74.304 271.492542 
L 74.304 269.972693 
L 69.696 269.972693 
z
" clip-path="url(#p6d38bd51b5)" style="fill: #800000"/>
   </g>
   <g id="patch_64">
    <path d="M 75.456 271.492542 
L 80.064 271.492542 
L 80.064 270.025102 
L 75.456 270.025102 
z
" clip-path="url(#p6d38bd51b5)" style="fill: #800000"/>
   </g>
   <g id="patch_65">
    <path d="M 81.216 271.492542 
L 85.824 271.492542 
L 85.824 270.313349 
L 81.216 270.313349 
z
" clip-path="url(#p6d38bd51b5)" style="fill: #800000"/>
   </g>
   <g id="patch_66">
    <path d="M 86.976 271.492542 
L 91.584 271.492542 
L 91.584 270.470574 
L 86.976 270.470574 
z
" clip-path="url(#p6d38bd51b5)" style="fill: #800000"/>
   </g>
   <g id="patch_67">
    <path d="M 92.736 271.492542 
L 97.344 271.492542 
L 97.344 270.470574 
L 92.736 270.470574 
z
" clip-path="url(#p6d38bd51b5)" style="fill: #800000"/>
   </g>
   <g id="patch_68">
    <path d="M 98.496 271.492542 
L 103.104 271.492542 
L 103.104 270.732617 
L 98.496 270.732617 
z
" clip-path="url(#p6d38bd51b5)" style="fill: #800000"/>
   </g>
   <g id="patch_69">
    <path d="M 104.256 271.492542 
L 108.864 271.492542 
L 108.864 270.81123 
L 104.256 270.81123 
z
" clip-path="url(#p6d38bd51b5)" style="fill: #800000"/>
   </g>
   <g id="patch_70">
    <path d="M 110.016 271.492542 
L 114.624 271.492542 
L 114.624 270.758822 
L 110.016 270.758822 
z
" clip-path="url(#p6d38bd51b5)" style="fill: #800000"/>
   </g>
   <g id="patch_71">
    <path d="M 115.776 271.492542 
L 120.384 271.492542 
L 120.384 270.916047 
L 115.776 270.916047 
z
" clip-path="url(#p6d38bd51b5)" style="fill: #800000"/>
   </g>
   <g id="patch_72">
    <path d="M 121.536 271.492542 
L 126.144 271.492542 
L 126.144 270.889843 
L 121.536 270.889843 
z
" clip-path="url(#p6d38bd51b5)" style="fill: #800000"/>
   </g>
   <g id="patch_73">
    <path d="M 127.296 271.492542 
L 131.904 271.492542 
L 131.904 270.889843 
L 127.296 270.889843 
z
" clip-path="url(#p6d38bd51b5)" style="fill: #800000"/>
   </g>
   <g id="patch_74">
    <path d="M 133.056 271.492542 
L 137.664 271.492542 
L 137.664 271.17809 
L 133.056 271.17809 
z
" clip-path="url(#p6d38bd51b5)" style="fill: #800000"/>
   </g>
   <g id="patch_75">
    <path d="M 138.816 271.492542 
L 143.424 271.492542 
L 143.424 271.256703 
L 138.816 271.256703 
z
" clip-path="url(#p6d38bd51b5)" style="fill: #800000"/>
   </g>
   <g id="patch_76">
    <path d="M 144.576 271.492542 
L 149.184 271.492542 
L 149.184 271.282907 
L 144.576 271.282907 
z
" clip-path="url(#p6d38bd51b5)" style="fill: #800000"/>
   </g>
   <g id="patch_77">
    <path d="M 150.336 271.492542 
L 154.944 271.492542 
L 154.944 271.230499 
L 150.336 271.230499 
z
" clip-path="url(#p6d38bd51b5)" style="fill: #800000"/>
   </g>
   <g id="patch_78">
    <path d="M 156.096 271.492542 
L 160.704 271.492542 
L 160.704 271.309112 
L 156.096 271.309112 
z
" clip-path="url(#p6d38bd51b5)" style="fill: #800000"/>
   </g>
   <g id="patch_79">
    <path d="M 161.856 271.492542 
L 166.464 271.492542 
L 166.464 271.387725 
L 161.856 271.387725 
z
" clip-path="url(#p6d38bd51b5)" style="fill: #800000"/>
   </g>
   <g id="patch_80">
    <path d="M 167.616 271.492542 
L 172.224 271.492542 
L 172.224 271.466337 
L 167.616 271.466337 
z
" clip-path="url(#p6d38bd51b5)" style="fill: #800000"/>
   </g>
   <g id="patch_81">
    <path d="M 173.376 271.492542 
L 177.984 271.492542 
L 177.984 271.440133 
L 173.376 271.440133 
z
" clip-path="url(#p6d38bd51b5)" style="fill: #800000"/>
   </g>
   <g id="patch_82">
    <path d="M 179.136 271.492542 
L 183.744 271.492542 
L 183.744 271.466337 
L 179.136 271.466337 
z
" clip-path="url(#p6d38bd51b5)" style="fill: #800000"/>
   </g>
   <g id="patch_83">
    <path d="M 184.896 271.492542 
L 189.504 271.492542 
L 189.504 271.466337 
L 184.896 271.466337 
z
" clip-path="url(#p6d38bd51b5)" style="fill: #800000"/>
   </g>
   <g id="patch_84">
    <path d="M 46.656 250.52911 
L 51.264 250.52911 
L 51.264 244.449714 
L 46.656 244.449714 
z
" clip-path="url(#p6d38bd51b5)" style="fill: #800000"/>
   </g>
   <g id="patch_85">
    <path d="M 52.416 250.52911 
L 57.024 250.52911 
L 57.024 239.156447 
L 52.416 239.156447 
z
" clip-path="url(#p6d38bd51b5)" style="fill: #800000"/>
   </g>
   <g id="patch_86">
    <path d="M 58.176 250.52911 
L 62.784 250.52911 
L 62.784 247.830068 
L 58.176 247.830068 
z
" clip-path="url(#p6d38bd51b5)" style="fill: #800000"/>
   </g>
   <g id="patch_87">
    <path d="M 63.936 250.52911 
L 68.544 250.52911 
L 68.544 247.672842 
L 63.936 247.672842 
z
" clip-path="url(#p6d38bd51b5)" style="fill: #800000"/>
   </g>
   <g id="patch_88">
    <path d="M 69.696 250.52911 
L 74.304 250.52911 
L 74.304 248.799626 
L 69.696 248.799626 
z
" clip-path="url(#p6d38bd51b5)" style="fill: #800000"/>
   </g>
   <g id="patch_89">
    <path d="M 75.456 250.52911 
L 80.064 250.52911 
L 80.064 248.799626 
L 75.456 248.799626 
z
" clip-path="url(#p6d38bd51b5)" style="fill: #800000"/>
   </g>
   <g id="patch_90">
    <path d="M 81.216 250.52911 
L 85.824 250.52911 
L 85.824 249.218895 
L 81.216 249.218895 
z
" clip-path="url(#p6d38bd51b5)" style="fill: #800000"/>
   </g>
   <g id="patch_91">
    <path d="M 86.976 250.52911 
L 91.584 250.52911 
L 91.584 249.218895 
L 86.976 249.218895 
z
" clip-path="url(#p6d38bd51b5)" style="fill: #800000"/>
   </g>
   <g id="patch_92">
    <path d="M 92.736 250.52911 
L 97.344 250.52911 
L 97.344 249.245099 
L 92.736 249.245099 
z
" clip-path="url(#p6d38bd51b5)" style="fill: #800000"/>
   </g>
   <g id="patch_93">
    <path d="M 98.496 250.52911 
L 103.104 250.52911 
L 103.104 249.323712 
L 98.496 249.323712 
z
" clip-path="url(#p6d38bd51b5)" style="fill: #800000"/>
   </g>
   <g id="patch_94">
    <path d="M 104.256 250.52911 
L 108.864 250.52911 
L 108.864 249.218895 
L 104.256 249.218895 
z
" clip-path="url(#p6d38bd51b5)" style="fill: #800000"/>
   </g>
   <g id="patch_95">
    <path d="M 110.016 250.52911 
L 114.624 250.52911 
L 114.624 249.376121 
L 110.016 249.376121 
z
" clip-path="url(#p6d38bd51b5)" style="fill: #800000"/>
   </g>
   <g id="patch_96">
    <path d="M 115.776 250.52911 
L 120.384 250.52911 
L 120.384 249.402325 
L 115.776 249.402325 
z
" clip-path="url(#p6d38bd51b5)" style="fill: #800000"/>
   </g>
   <g id="patch_97">
    <path d="M 121.536 250.52911 
L 126.144 250.52911 
L 126.144 249.376121 
L 121.536 249.376121 
z
" clip-path="url(#p6d38bd51b5)" style="fill: #800000"/>
   </g>
   <g id="patch_98">
    <path d="M 127.296 250.52911 
L 131.904 250.52911 
L 131.904 249.611959 
L 127.296 249.611959 
z
" clip-path="url(#p6d38bd51b5)" style="fill: #800000"/>
   </g>
   <g id="patch_99">
    <path d="M 133.056 250.52911 
L 137.664 250.52911 
L 137.664 249.533346 
L 133.056 249.533346 
z
" clip-path="url(#p6d38bd51b5)" style="fill: #800000"/>
   </g>
   <g id="patch_100">
    <path d="M 138.816 250.52911 
L 143.424 250.52911 
L 143.424 249.769185 
L 138.816 249.769185 
z
" clip-path="url(#p6d38bd51b5)" style="fill: #800000"/>
   </g>
   <g id="patch_101">
    <path d="M 144.576 250.52911 
L 149.184 250.52911 
L 149.184 250.031228 
L 144.576 250.031228 
z
" clip-path="url(#p6d38bd51b5)" style="fill: #800000"/>
   </g>
   <g id="patch_102">
    <path d="M 150.336 250.52911 
L 154.944 250.52911 
L 154.944 249.900207 
L 150.336 249.900207 
z
" clip-path="url(#p6d38bd51b5)" style="fill: #800000"/>
   </g>
   <g id="patch_103">
    <path d="M 156.096 250.52911 
L 160.704 250.52911 
L 160.704 250.057432 
L 156.096 250.057432 
z
" clip-path="url(#p6d38bd51b5)" style="fill: #800000"/>
   </g>
   <g id="patch_104">
    <path d="M 161.856 250.52911 
L 166.464 250.52911 
L 166.464 250.136045 
L 161.856 250.136045 
z
" clip-path="url(#p6d38bd51b5)" style="fill: #800000"/>
   </g>
   <g id="patch_105">
    <path d="M 167.616 250.52911 
L 172.224 250.52911 
L 172.224 250.136045 
L 167.616 250.136045 
z
" clip-path="url(#p6d38bd51b5)" style="fill: #800000"/>
   </g>
   <g id="patch_106">
    <path d="M 173.376 250.52911 
L 177.984 250.52911 
L 177.984 250.136045 
L 173.376 250.136045 
z
" clip-path="url(#p6d38bd51b5)" style="fill: #800000"/>
   </g>
   <g id="patch_107">
    <path d="M 179.136 250.52911 
L 183.744 250.52911 
L 183.744 250.398088 
L 179.136 250.398088 
z
" clip-path="url(#p6d38bd51b5)" style="fill: #800000"/>
   </g>
   <g id="patch_108">
    <path d="M 184.896 250.52911 
L 189.504 250.52911 
L 189.504 250.345679 
L 184.896 250.345679 
z
" clip-path="url(#p6d38bd51b5)" style="fill: #800000"/>
   </g>
   <g id="patch_109">
    <path d="M 190.656 250.52911 
L 195.264 250.52911 
L 195.264 250.476701 
L 190.656 250.476701 
z
" clip-path="url(#p6d38bd51b5)" style="fill: #800000"/>
   </g>
   <g id="patch_110">
    <path d="M 202.176 250.52911 
L 206.784 250.52911 
L 206.784 250.476701 
L 202.176 250.476701 
z
" clip-path="url(#p6d38bd51b5)" style="fill: #800000"/>
   </g>
   <g id="patch_111">
    <path d="M 207.936 250.52911 
L 212.544 250.52911 
L 212.544 250.476701 
L 207.936 250.476701 
z
" clip-path="url(#p6d38bd51b5)" style="fill: #800000"/>
   </g>
   <g id="patch_112">
    <path d="M 46.656 208.602245 
L 51.264 208.602245 
L 51.264 204.330946 
L 46.656 204.330946 
z
" clip-path="url(#p6d38bd51b5)" style="fill: #800000"/>
   </g>
   <g id="patch_113">
    <path d="M 52.416 208.602245 
L 57.024 208.602245 
L 57.024 196.757906 
L 52.416 196.757906 
z
" clip-path="url(#p6d38bd51b5)" style="fill: #800000"/>
   </g>
   <g id="patch_114">
    <path d="M 58.176 208.602245 
L 62.784 208.602245 
L 62.784 206.872762 
L 58.176 206.872762 
z
" clip-path="url(#p6d38bd51b5)" style="fill: #800000"/>
   </g>
   <g id="patch_115">
    <path d="M 63.936 208.602245 
L 68.544 208.602245 
L 68.544 206.086633 
L 63.936 206.086633 
z
" clip-path="url(#p6d38bd51b5)" style="fill: #800000"/>
   </g>
   <g id="patch_116">
    <path d="M 69.696 208.602245 
L 74.304 208.602245 
L 74.304 207.161009 
L 69.696 207.161009 
z
" clip-path="url(#p6d38bd51b5)" style="fill: #800000"/>
   </g>
   <g id="patch_117">
    <path d="M 75.456 208.602245 
L 80.064 208.602245 
L 80.064 207.265826 
L 75.456 207.265826 
z
" clip-path="url(#p6d38bd51b5)" style="fill: #800000"/>
   </g>
   <g id="patch_118">
    <path d="M 81.216 208.602245 
L 85.824 208.602245 
L 85.824 207.658891 
L 81.216 207.658891 
z
" clip-path="url(#p6d38bd51b5)" style="fill: #800000"/>
   </g>
   <g id="patch_119">
    <path d="M 86.976 208.602245 
L 91.584 208.602245 
L 91.584 207.789912 
L 86.976 207.789912 
z
" clip-path="url(#p6d38bd51b5)" style="fill: #800000"/>
   </g>
   <g id="patch_120">
    <path d="M 92.736 208.602245 
L 97.344 208.602245 
L 97.344 207.789912 
L 92.736 207.789912 
z
" clip-path="url(#p6d38bd51b5)" style="fill: #800000"/>
   </g>
   <g id="patch_121">
    <path d="M 98.496 208.602245 
L 103.104 208.602245 
L 103.104 207.685095 
L 98.496 207.685095 
z
" clip-path="url(#p6d38bd51b5)" style="fill: #800000"/>
   </g>
   <g id="patch_122">
    <path d="M 104.256 208.602245 
L 108.864 208.602245 
L 108.864 207.318235 
L 104.256 207.318235 
z
" clip-path="url(#p6d38bd51b5)" style="fill: #800000"/>
   </g>
   <g id="patch_123">
    <path d="M 110.016 208.602245 
L 114.624 208.602245 
L 114.624 207.396848 
L 110.016 207.396848 
z
" clip-path="url(#p6d38bd51b5)" style="fill: #800000"/>
   </g>
   <g id="patch_124">
    <path d="M 115.776 208.602245 
L 120.384 208.602245 
L 120.384 207.187213 
L 115.776 207.187213 
z
" clip-path="url(#p6d38bd51b5)" style="fill: #800000"/>
   </g>
   <g id="patch_125">
    <path d="M 121.536 208.602245 
L 126.144 208.602245 
L 126.144 207.239622 
L 121.536 207.239622 
z
" clip-path="url(#p6d38bd51b5)" style="fill: #800000"/>
   </g>
   <g id="patch_126">
    <path d="M 127.296 208.602245 
L 131.904 208.602245 
L 131.904 207.29203 
L 127.296 207.29203 
z
" clip-path="url(#p6d38bd51b5)" style="fill: #800000"/>
   </g>
   <g id="patch_127">
    <path d="M 133.056 208.602245 
L 137.664 208.602245 
L 137.664 206.898966 
L 133.056 206.898966 
z
" clip-path="url(#p6d38bd51b5)" style="fill: #800000"/>
   </g>
   <g id="patch_128">
    <path d="M 138.816 208.602245 
L 143.424 208.602245 
L 143.424 207.056192 
L 138.816 207.056192 
z
" clip-path="url(#p6d38bd51b5)" style="fill: #800000"/>
   </g>
   <g id="patch_129">
    <path d="M 144.576 208.602245 
L 149.184 208.602245 
L 149.184 207.1086 
L 144.576 207.1086 
z
" clip-path="url(#p6d38bd51b5)" style="fill: #800000"/>
   </g>
   <g id="patch_130">
    <path d="M 150.336 208.602245 
L 154.944 208.602245 
L 154.944 206.532106 
L 150.336 206.532106 
z
" clip-path="url(#p6d38bd51b5)" style="fill: #800000"/>
   </g>
   <g id="patch_131">
    <path d="M 156.096 208.602245 
L 160.704 208.602245 
L 160.704 207.161009 
L 156.096 207.161009 
z
" clip-path="url(#p6d38bd51b5)" style="fill: #800000"/>
   </g>
   <g id="patch_132">
    <path d="M 161.856 208.602245 
L 166.464 208.602245 
L 166.464 207.370643 
L 161.856 207.370643 
z
" clip-path="url(#p6d38bd51b5)" style="fill: #800000"/>
   </g>
   <g id="patch_133">
    <path d="M 167.616 208.602245 
L 172.224 208.602245 
L 172.224 207.449256 
L 167.616 207.449256 
z
" clip-path="url(#p6d38bd51b5)" style="fill: #800000"/>
   </g>
   <g id="patch_134">
    <path d="M 173.376 208.602245 
L 177.984 208.602245 
L 177.984 207.213418 
L 173.376 207.213418 
z
" clip-path="url(#p6d38bd51b5)" style="fill: #800000"/>
   </g>
   <g id="patch_135">
    <path d="M 179.136 208.602245 
L 183.744 208.602245 
L 183.744 207.711299 
L 179.136 207.711299 
z
" clip-path="url(#p6d38bd51b5)" style="fill: #800000"/>
   </g>
   <g id="patch_136">
    <path d="M 184.896 208.602245 
L 189.504 208.602245 
L 189.504 207.789912 
L 184.896 207.789912 
z
" clip-path="url(#p6d38bd51b5)" style="fill: #800000"/>
   </g>
   <g id="patch_137">
    <path d="M 190.656 208.602245 
L 195.264 208.602245 
L 195.264 207.868525 
L 190.656 207.868525 
z
" clip-path="url(#p6d38bd51b5)" style="fill: #800000"/>
   </g>
   <g id="patch_138">
    <path d="M 196.416 208.602245 
L 201.024 208.602245 
L 201.024 208.261589 
L 196.416 208.261589 
z
" clip-path="url(#p6d38bd51b5)" style="fill: #800000"/>
   </g>
   <g id="patch_139">
    <path d="M 202.176 208.602245 
L 206.784 208.602245 
L 206.784 208.340202 
L 202.176 208.340202 
z
" clip-path="url(#p6d38bd51b5)" style="fill: #800000"/>
   </g>
   <g id="patch_140">
    <path d="M 207.936 208.602245 
L 212.544 208.602245 
L 212.544 208.471224 
L 207.936 208.471224 
z
" clip-path="url(#p6d38bd51b5)" style="fill: #800000"/>
   </g>
   <g id="patch_141">
    <path d="M 213.696 208.602245 
L 218.304 208.602245 
L 218.304 208.549836 
L 213.696 208.549836 
z
" clip-path="url(#p6d38bd51b5)" style="fill: #800000"/>
   </g>
   <g id="patch_142">
    <path d="M 219.456 208.602245 
L 224.064 208.602245 
L 224.064 208.523632 
L 219.456 208.523632 
z
" clip-path="url(#p6d38bd51b5)" style="fill: #800000"/>
   </g>
   <g id="patch_143">
    <path d="M 46.656 166.67538 
L 51.264 166.67538 
L 51.264 162.535103 
L 46.656 162.535103 
z
" clip-path="url(#p6d38bd51b5)" style="fill: #800000"/>
   </g>
   <g id="patch_144">
    <path d="M 52.416 166.67538 
L 57.024 166.67538 
L 57.024 154.411773 
L 52.416 154.411773 
z
" clip-path="url(#p6d38bd51b5)" style="fill: #800000"/>
   </g>
   <g id="patch_145">
    <path d="M 58.176 166.67538 
L 62.784 166.67538 
L 62.784 164.998306 
L 58.176 164.998306 
z
" clip-path="url(#p6d38bd51b5)" style="fill: #800000"/>
   </g>
   <g id="patch_146">
    <path d="M 63.936 166.67538 
L 68.544 166.67538 
L 68.544 164.238381 
L 63.936 164.238381 
z
" clip-path="url(#p6d38bd51b5)" style="fill: #800000"/>
   </g>
   <g id="patch_147">
    <path d="M 69.696 166.67538 
L 74.304 166.67538 
L 74.304 165.02451 
L 69.696 165.02451 
z
" clip-path="url(#p6d38bd51b5)" style="fill: #800000"/>
   </g>
   <g id="patch_148">
    <path d="M 75.456 166.67538 
L 80.064 166.67538 
L 80.064 165.627209 
L 75.456 165.627209 
z
" clip-path="url(#p6d38bd51b5)" style="fill: #800000"/>
   </g>
   <g id="patch_149">
    <path d="M 81.216 166.67538 
L 85.824 166.67538 
L 85.824 165.915456 
L 81.216 165.915456 
z
" clip-path="url(#p6d38bd51b5)" style="fill: #800000"/>
   </g>
   <g id="patch_150">
    <path d="M 86.976 166.67538 
L 91.584 166.67538 
L 91.584 165.732026 
L 86.976 165.732026 
z
" clip-path="url(#p6d38bd51b5)" style="fill: #800000"/>
   </g>
   <g id="patch_151">
    <path d="M 92.736 166.67538 
L 97.344 166.67538 
L 97.344 165.601004 
L 92.736 165.601004 
z
" clip-path="url(#p6d38bd51b5)" style="fill: #800000"/>
   </g>
   <g id="patch_152">
    <path d="M 98.496 166.67538 
L 103.104 166.67538 
L 103.104 165.627209 
L 98.496 165.627209 
z
" clip-path="url(#p6d38bd51b5)" style="fill: #800000"/>
   </g>
   <g id="patch_153">
    <path d="M 104.256 166.67538 
L 108.864 166.67538 
L 108.864 165.20794 
L 104.256 165.20794 
z
" clip-path="url(#p6d38bd51b5)" style="fill: #800000"/>
   </g>
   <g id="patch_154">
    <path d="M 110.016 166.67538 
L 114.624 166.67538 
L 114.624 165.181736 
L 110.016 165.181736 
z
" clip-path="url(#p6d38bd51b5)" style="fill: #800000"/>
   </g>
   <g id="patch_155">
    <path d="M 115.776 166.67538 
L 120.384 166.67538 
L 120.384 165.181736 
L 115.776 165.181736 
z
" clip-path="url(#p6d38bd51b5)" style="fill: #800000"/>
   </g>
   <g id="patch_156">
    <path d="M 121.536 166.67538 
L 126.144 166.67538 
L 126.144 164.526629 
L 121.536 164.526629 
z
" clip-path="url(#p6d38bd51b5)" style="fill: #800000"/>
   </g>
   <g id="patch_157">
    <path d="M 127.296 166.67538 
L 131.904 166.67538 
L 131.904 164.84108 
L 127.296 164.84108 
z
" clip-path="url(#p6d38bd51b5)" style="fill: #800000"/>
   </g>
   <g id="patch_158">
    <path d="M 133.056 166.67538 
L 137.664 166.67538 
L 137.664 164.65765 
L 133.056 164.65765 
z
" clip-path="url(#p6d38bd51b5)" style="fill: #800000"/>
   </g>
   <g id="patch_159">
    <path d="M 138.816 166.67538 
L 143.424 166.67538 
L 143.424 164.159769 
L 138.816 164.159769 
z
" clip-path="url(#p6d38bd51b5)" style="fill: #800000"/>
   </g>
   <g id="patch_160">
    <path d="M 144.576 166.67538 
L 149.184 166.67538 
L 149.184 164.369403 
L 144.576 164.369403 
z
" clip-path="url(#p6d38bd51b5)" style="fill: #800000"/>
   </g>
   <g id="patch_161">
    <path d="M 150.336 166.67538 
L 154.944 166.67538 
L 154.944 164.65765 
L 150.336 164.65765 
z
" clip-path="url(#p6d38bd51b5)" style="fill: #800000"/>
   </g>
   <g id="patch_162">
    <path d="M 156.096 166.67538 
L 160.704 166.67538 
L 160.704 164.500424 
L 156.096 164.500424 
z
" clip-path="url(#p6d38bd51b5)" style="fill: #800000"/>
   </g>
   <g id="patch_163">
    <path d="M 161.856 166.67538 
L 166.464 166.67538 
L 166.464 164.316994 
L 161.856 164.316994 
z
" clip-path="url(#p6d38bd51b5)" style="fill: #800000"/>
   </g>
   <g id="patch_164">
    <path d="M 167.616 166.67538 
L 172.224 166.67538 
L 172.224 165.129327 
L 167.616 165.129327 
z
" clip-path="url(#p6d38bd51b5)" style="fill: #800000"/>
   </g>
   <g id="patch_165">
    <path d="M 173.376 166.67538 
L 177.984 166.67538 
L 177.984 165.02451 
L 173.376 165.02451 
z
" clip-path="url(#p6d38bd51b5)" style="fill: #800000"/>
   </g>
   <g id="patch_166">
    <path d="M 179.136 166.67538 
L 183.744 166.67538 
L 183.744 165.312757 
L 179.136 165.312757 
z
" clip-path="url(#p6d38bd51b5)" style="fill: #800000"/>
   </g>
   <g id="patch_167">
    <path d="M 184.896 166.67538 
L 189.504 166.67538 
L 189.504 165.784435 
L 184.896 165.784435 
z
" clip-path="url(#p6d38bd51b5)" style="fill: #800000"/>
   </g>
   <g id="patch_168">
    <path d="M 190.656 166.67538 
L 195.264 166.67538 
L 195.264 165.94166 
L 190.656 165.94166 
z
" clip-path="url(#p6d38bd51b5)" style="fill: #800000"/>
   </g>
   <g id="patch_169">
    <path d="M 196.416 166.67538 
L 201.024 166.67538 
L 201.024 166.282316 
L 196.416 166.282316 
z
" clip-path="url(#p6d38bd51b5)" style="fill: #800000"/>
   </g>
   <g id="patch_170">
    <path d="M 202.176 166.67538 
L 206.784 166.67538 
L 206.784 166.177499 
L 202.176 166.177499 
z
" clip-path="url(#p6d38bd51b5)" style="fill: #800000"/>
   </g>
   <g id="patch_171">
    <path d="M 207.936 166.67538 
L 212.544 166.67538 
L 212.544 166.203703 
L 207.936 166.203703 
z
" clip-path="url(#p6d38bd51b5)" style="fill: #800000"/>
   </g>
   <g id="patch_172">
    <path d="M 213.696 166.67538 
L 218.304 166.67538 
L 218.304 166.465746 
L 213.696 166.465746 
z
" clip-path="url(#p6d38bd51b5)" style="fill: #800000"/>
   </g>
   <g id="patch_173">
    <path d="M 219.456 166.67538 
L 224.064 166.67538 
L 224.064 166.387133 
L 219.456 166.387133 
z
" clip-path="url(#p6d38bd51b5)" style="fill: #800000"/>
   </g>
   <g id="patch_174">
    <path d="M 225.216 166.67538 
L 229.824 166.67538 
L 229.824 166.570563 
L 225.216 166.570563 
z
" clip-path="url(#p6d38bd51b5)" style="fill: #800000"/>
   </g>
   <g id="patch_175">
    <path d="M 230.976 166.67538 
L 235.584 166.67538 
L 235.584 166.622972 
L 230.976 166.622972 
z
" clip-path="url(#p6d38bd51b5)" style="fill: #800000"/>
   </g>
   <g id="patch_176">
    <path d="M 236.736 166.67538 
L 241.344 166.67538 
L 241.344 166.649176 
L 236.736 166.649176 
z
" clip-path="url(#p6d38bd51b5)" style="fill: #800000"/>
   </g>
   <g id="patch_177">
    <path d="M 248.256 166.67538 
L 252.864 166.67538 
L 252.864 166.649176 
L 248.256 166.649176 
z
" clip-path="url(#p6d38bd51b5)" style="fill: #800000"/>
   </g>
   <g id="patch_178">
    <path d="M 46.656 124.748516 
L 51.264 124.748516 
L 51.264 120.346195 
L 46.656 120.346195 
z
" clip-path="url(#p6d38bd51b5)" style="fill: #800000"/>
   </g>
   <g id="patch_179">
    <path d="M 52.416 124.748516 
L 57.024 124.748516 
L 57.024 110.991263 
L 52.416 110.991263 
z
" clip-path="url(#p6d38bd51b5)" style="fill: #800000"/>
   </g>
   <g id="patch_180">
    <path d="M 58.176 124.748516 
L 62.784 124.748516 
L 62.784 122.730785 
L 58.176 122.730785 
z
" clip-path="url(#p6d38bd51b5)" style="fill: #800000"/>
   </g>
   <g id="patch_181">
    <path d="M 63.936 124.748516 
L 68.544 124.748516 
L 68.544 121.918452 
L 63.936 121.918452 
z
" clip-path="url(#p6d38bd51b5)" style="fill: #800000"/>
   </g>
   <g id="patch_182">
    <path d="M 69.696 124.748516 
L 74.304 124.748516 
L 74.304 123.176258 
L 69.696 123.176258 
z
" clip-path="url(#p6d38bd51b5)" style="fill: #800000"/>
   </g>
   <g id="patch_183">
    <path d="M 75.456 124.748516 
L 80.064 124.748516 
L 80.064 123.595527 
L 75.456 123.595527 
z
" clip-path="url(#p6d38bd51b5)" style="fill: #800000"/>
   </g>
   <g id="patch_184">
    <path d="M 81.216 124.748516 
L 85.824 124.748516 
L 85.824 123.412097 
L 81.216 123.412097 
z
" clip-path="url(#p6d38bd51b5)" style="fill: #800000"/>
   </g>
   <g id="patch_185">
    <path d="M 86.976 124.748516 
L 91.584 124.748516 
L 91.584 123.464506 
L 86.976 123.464506 
z
" clip-path="url(#p6d38bd51b5)" style="fill: #800000"/>
   </g>
   <g id="patch_186">
    <path d="M 92.736 124.748516 
L 97.344 124.748516 
L 97.344 123.569323 
L 92.736 123.569323 
z
" clip-path="url(#p6d38bd51b5)" style="fill: #800000"/>
   </g>
   <g id="patch_187">
    <path d="M 98.496 124.748516 
L 103.104 124.748516 
L 103.104 123.438301 
L 98.496 123.438301 
z
" clip-path="url(#p6d38bd51b5)" style="fill: #800000"/>
   </g>
   <g id="patch_188">
    <path d="M 104.256 124.748516 
L 108.864 124.748516 
L 108.864 123.12385 
L 104.256 123.12385 
z
" clip-path="url(#p6d38bd51b5)" style="fill: #800000"/>
   </g>
   <g id="patch_189">
    <path d="M 110.016 124.748516 
L 114.624 124.748516 
L 114.624 122.992828 
L 110.016 122.992828 
z
" clip-path="url(#p6d38bd51b5)" style="fill: #800000"/>
   </g>
   <g id="patch_190">
    <path d="M 115.776 124.748516 
L 120.384 124.748516 
L 120.384 122.468743 
L 115.776 122.468743 
z
" clip-path="url(#p6d38bd51b5)" style="fill: #800000"/>
   </g>
   <g id="patch_191">
    <path d="M 121.536 124.748516 
L 126.144 124.748516 
L 126.144 122.547355 
L 121.536 122.547355 
z
" clip-path="url(#p6d38bd51b5)" style="fill: #800000"/>
   </g>
   <g id="patch_192">
    <path d="M 127.296 124.748516 
L 131.904 124.748516 
L 131.904 122.311517 
L 127.296 122.311517 
z
" clip-path="url(#p6d38bd51b5)" style="fill: #800000"/>
   </g>
   <g id="patch_193">
    <path d="M 133.056 124.748516 
L 137.664 124.748516 
L 137.664 122.259108 
L 133.056 122.259108 
z
" clip-path="url(#p6d38bd51b5)" style="fill: #800000"/>
   </g>
   <g id="patch_194">
    <path d="M 138.816 124.748516 
L 143.424 124.748516 
L 143.424 122.180495 
L 138.816 122.180495 
z
" clip-path="url(#p6d38bd51b5)" style="fill: #800000"/>
   </g>
   <g id="patch_195">
    <path d="M 144.576 124.748516 
L 149.184 124.748516 
L 149.184 122.259108 
L 144.576 122.259108 
z
" clip-path="url(#p6d38bd51b5)" style="fill: #800000"/>
   </g>
   <g id="patch_196">
    <path d="M 150.336 124.748516 
L 154.944 124.748516 
L 154.944 122.730785 
L 150.336 122.730785 
z
" clip-path="url(#p6d38bd51b5)" style="fill: #800000"/>
   </g>
   <g id="patch_197">
    <path d="M 156.096 124.748516 
L 160.704 124.748516 
L 160.704 122.442538 
L 156.096 122.442538 
z
" clip-path="url(#p6d38bd51b5)" style="fill: #800000"/>
   </g>
   <g id="patch_198">
    <path d="M 161.856 124.748516 
L 166.464 124.748516 
L 166.464 122.075678 
L 161.856 122.075678 
z
" clip-path="url(#p6d38bd51b5)" style="fill: #800000"/>
   </g>
   <g id="patch_199">
    <path d="M 167.616 124.748516 
L 172.224 124.748516 
L 172.224 123.202463 
L 167.616 123.202463 
z
" clip-path="url(#p6d38bd51b5)" style="fill: #800000"/>
   </g>
   <g id="patch_200">
    <path d="M 173.376 124.748516 
L 177.984 124.748516 
L 177.984 123.569323 
L 173.376 123.569323 
z
" clip-path="url(#p6d38bd51b5)" style="fill: #800000"/>
   </g>
   <g id="patch_201">
    <path d="M 179.136 124.748516 
L 183.744 124.748516 
L 183.744 123.543118 
L 179.136 123.543118 
z
" clip-path="url(#p6d38bd51b5)" style="fill: #800000"/>
   </g>
   <g id="patch_202">
    <path d="M 184.896 124.748516 
L 189.504 124.748516 
L 189.504 123.385893 
L 184.896 123.385893 
z
" clip-path="url(#p6d38bd51b5)" style="fill: #800000"/>
   </g>
   <g id="patch_203">
    <path d="M 190.656 124.748516 
L 195.264 124.748516 
L 195.264 123.805161 
L 190.656 123.805161 
z
" clip-path="url(#p6d38bd51b5)" style="fill: #800000"/>
   </g>
   <g id="patch_204">
    <path d="M 196.416 124.748516 
L 201.024 124.748516 
L 201.024 124.093409 
L 196.416 124.093409 
z
" clip-path="url(#p6d38bd51b5)" style="fill: #800000"/>
   </g>
   <g id="patch_205">
    <path d="M 202.176 124.748516 
L 206.784 124.748516 
L 206.784 124.22443 
L 202.176 124.22443 
z
" clip-path="url(#p6d38bd51b5)" style="fill: #800000"/>
   </g>
   <g id="patch_206">
    <path d="M 207.936 124.748516 
L 212.544 124.748516 
L 212.544 124.381656 
L 207.936 124.381656 
z
" clip-path="url(#p6d38bd51b5)" style="fill: #800000"/>
   </g>
   <g id="patch_207">
    <path d="M 213.696 124.748516 
L 218.304 124.748516 
L 218.304 124.486473 
L 213.696 124.486473 
z
" clip-path="url(#p6d38bd51b5)" style="fill: #800000"/>
   </g>
   <g id="patch_208">
    <path d="M 219.456 124.748516 
L 224.064 124.748516 
L 224.064 124.460269 
L 219.456 124.460269 
z
" clip-path="url(#p6d38bd51b5)" style="fill: #800000"/>
   </g>
   <g id="patch_209">
    <path d="M 225.216 124.748516 
L 229.824 124.748516 
L 229.824 124.669903 
L 225.216 124.669903 
z
" clip-path="url(#p6d38bd51b5)" style="fill: #800000"/>
   </g>
   <g id="patch_210">
    <path d="M 230.976 124.748516 
L 235.584 124.748516 
L 235.584 124.669903 
L 230.976 124.669903 
z
" clip-path="url(#p6d38bd51b5)" style="fill: #800000"/>
   </g>
   <g id="patch_211">
    <path d="M 236.736 124.748516 
L 241.344 124.748516 
L 241.344 124.722312 
L 236.736 124.722312 
z
" clip-path="url(#p6d38bd51b5)" style="fill: #800000"/>
   </g>
   <g id="patch_212">
    <path d="M 46.656 82.821651 
L 51.264 82.821651 
L 51.264 77.030503 
L 46.656 77.030503 
z
" clip-path="url(#p6d38bd51b5)" style="fill: #800000"/>
   </g>
   <g id="patch_213">
    <path d="M 52.416 82.821651 
L 57.024 82.821651 
L 57.024 68.540313 
L 52.416 68.540313 
z
" clip-path="url(#p6d38bd51b5)" style="fill: #800000"/>
   </g>
   <g id="patch_214">
    <path d="M 58.176 82.821651 
L 62.784 82.821651 
L 62.784 80.489469 
L 58.176 80.489469 
z
" clip-path="url(#p6d38bd51b5)" style="fill: #800000"/>
   </g>
   <g id="patch_215">
    <path d="M 63.936 82.821651 
L 68.544 82.821651 
L 68.544 79.153051 
L 63.936 79.153051 
z
" clip-path="url(#p6d38bd51b5)" style="fill: #800000"/>
   </g>
   <g id="patch_216">
    <path d="M 69.696 82.821651 
L 74.304 82.821651 
L 74.304 81.03976 
L 69.696 81.03976 
z
" clip-path="url(#p6d38bd51b5)" style="fill: #800000"/>
   </g>
   <g id="patch_217">
    <path d="M 75.456 82.821651 
L 80.064 82.821651 
L 80.064 81.065964 
L 75.456 81.065964 
z
" clip-path="url(#p6d38bd51b5)" style="fill: #800000"/>
   </g>
   <g id="patch_218">
    <path d="M 81.216 82.821651 
L 85.824 82.821651 
L 85.824 81.432824 
L 81.216 81.432824 
z
" clip-path="url(#p6d38bd51b5)" style="fill: #800000"/>
   </g>
   <g id="patch_219">
    <path d="M 86.976 82.821651 
L 91.584 82.821651 
L 91.584 81.354211 
L 86.976 81.354211 
z
" clip-path="url(#p6d38bd51b5)" style="fill: #800000"/>
   </g>
   <g id="patch_220">
    <path d="M 92.736 82.821651 
L 97.344 82.821651 
L 97.344 80.777717 
L 92.736 80.777717 
z
" clip-path="url(#p6d38bd51b5)" style="fill: #800000"/>
   </g>
   <g id="patch_221">
    <path d="M 98.496 82.821651 
L 103.104 82.821651 
L 103.104 81.144577 
L 98.496 81.144577 
z
" clip-path="url(#p6d38bd51b5)" style="fill: #800000"/>
   </g>
   <g id="patch_222">
    <path d="M 104.256 82.821651 
L 108.864 82.821651 
L 108.864 81.170781 
L 104.256 81.170781 
z
" clip-path="url(#p6d38bd51b5)" style="fill: #800000"/>
   </g>
   <g id="patch_223">
    <path d="M 110.016 82.821651 
L 114.624 82.821651 
L 114.624 80.908738 
L 110.016 80.908738 
z
" clip-path="url(#p6d38bd51b5)" style="fill: #800000"/>
   </g>
   <g id="patch_224">
    <path d="M 115.776 82.821651 
L 120.384 82.821651 
L 120.384 80.672899 
L 115.776 80.672899 
z
" clip-path="url(#p6d38bd51b5)" style="fill: #800000"/>
   </g>
   <g id="patch_225">
    <path d="M 121.536 82.821651 
L 126.144 82.821651 
L 126.144 80.201222 
L 121.536 80.201222 
z
" clip-path="url(#p6d38bd51b5)" style="fill: #800000"/>
   </g>
   <g id="patch_226">
    <path d="M 127.296 82.821651 
L 131.904 82.821651 
L 131.904 80.017792 
L 127.296 80.017792 
z
" clip-path="url(#p6d38bd51b5)" style="fill: #800000"/>
   </g>
   <g id="patch_227">
    <path d="M 133.056 82.821651 
L 137.664 82.821651 
L 137.664 80.201222 
L 133.056 80.201222 
z
" clip-path="url(#p6d38bd51b5)" style="fill: #800000"/>
   </g>
   <g id="patch_228">
    <path d="M 138.816 82.821651 
L 143.424 82.821651 
L 143.424 80.122609 
L 138.816 80.122609 
z
" clip-path="url(#p6d38bd51b5)" style="fill: #800000"/>
   </g>
   <g id="patch_229">
    <path d="M 144.576 82.821651 
L 149.184 82.821651 
L 149.184 80.515674 
L 144.576 80.515674 
z
" clip-path="url(#p6d38bd51b5)" style="fill: #800000"/>
   </g>
   <g id="patch_230">
    <path d="M 150.336 82.821651 
L 154.944 82.821651 
L 154.944 80.410857 
L 150.336 80.410857 
z
" clip-path="url(#p6d38bd51b5)" style="fill: #800000"/>
   </g>
   <g id="patch_231">
    <path d="M 156.096 82.821651 
L 160.704 82.821651 
L 160.704 80.646695 
L 156.096 80.646695 
z
" clip-path="url(#p6d38bd51b5)" style="fill: #800000"/>
   </g>
   <g id="patch_232">
    <path d="M 161.856 82.821651 
L 166.464 82.821651 
L 166.464 80.594287 
L 161.856 80.594287 
z
" clip-path="url(#p6d38bd51b5)" style="fill: #800000"/>
   </g>
   <g id="patch_233">
    <path d="M 167.616 82.821651 
L 172.224 82.821651 
L 172.224 81.092168 
L 167.616 81.092168 
z
" clip-path="url(#p6d38bd51b5)" style="fill: #800000"/>
   </g>
   <g id="patch_234">
    <path d="M 173.376 82.821651 
L 177.984 82.821651 
L 177.984 81.196985 
L 173.376 81.196985 
z
" clip-path="url(#p6d38bd51b5)" style="fill: #800000"/>
   </g>
   <g id="patch_235">
    <path d="M 179.136 82.821651 
L 183.744 82.821651 
L 183.744 81.616254 
L 179.136 81.616254 
z
" clip-path="url(#p6d38bd51b5)" style="fill: #800000"/>
   </g>
   <g id="patch_236">
    <path d="M 184.896 82.821651 
L 189.504 82.821651 
L 189.504 81.616254 
L 184.896 81.616254 
z
" clip-path="url(#p6d38bd51b5)" style="fill: #800000"/>
   </g>
   <g id="patch_237">
    <path d="M 190.656 82.821651 
L 195.264 82.821651 
L 195.264 82.218953 
L 190.656 82.218953 
z
" clip-path="url(#p6d38bd51b5)" style="fill: #800000"/>
   </g>
   <g id="patch_238">
    <path d="M 196.416 82.821651 
L 201.024 82.821651 
L 201.024 82.218953 
L 196.416 82.218953 
z
" clip-path="url(#p6d38bd51b5)" style="fill: #800000"/>
   </g>
   <g id="patch_239">
    <path d="M 202.176 82.821651 
L 206.784 82.821651 
L 206.784 82.402383 
L 202.176 82.402383 
z
" clip-path="url(#p6d38bd51b5)" style="fill: #800000"/>
   </g>
   <g id="patch_240">
    <path d="M 207.936 82.821651 
L 212.544 82.821651 
L 212.544 82.559608 
L 207.936 82.559608 
z
" clip-path="url(#p6d38bd51b5)" style="fill: #800000"/>
   </g>
   <g id="patch_241">
    <path d="M 213.696 82.821651 
L 218.304 82.821651 
L 218.304 82.664426 
L 213.696 82.664426 
z
" clip-path="url(#p6d38bd51b5)" style="fill: #800000"/>
   </g>
   <g id="patch_242">
    <path d="M 219.456 82.821651 
L 224.064 82.821651 
L 224.064 82.533404 
L 219.456 82.533404 
z
" clip-path="url(#p6d38bd51b5)" style="fill: #800000"/>
   </g>
   <g id="patch_243">
    <path d="M 225.216 82.821651 
L 229.824 82.821651 
L 229.824 82.664426 
L 225.216 82.664426 
z
" clip-path="url(#p6d38bd51b5)" style="fill: #800000"/>
   </g>
   <g id="patch_244">
    <path d="M 230.976 82.821651 
L 235.584 82.821651 
L 235.584 82.716834 
L 230.976 82.716834 
z
" clip-path="url(#p6d38bd51b5)" style="fill: #800000"/>
   </g>
   <g id="patch_245">
    <path d="M 236.736 82.821651 
L 241.344 82.821651 
L 241.344 82.769243 
L 236.736 82.769243 
z
" clip-path="url(#p6d38bd51b5)" style="fill: #800000"/>
   </g>
   <g id="patch_246">
    <path d="M 242.496 82.821651 
L 247.104 82.821651 
L 247.104 82.769243 
L 242.496 82.769243 
z
" clip-path="url(#p6d38bd51b5)" style="fill: #800000"/>
   </g>
   <g id="patch_247">
    <path d="M 248.256 82.821651 
L 252.864 82.821651 
L 252.864 82.795447 
L 248.256 82.795447 
z
" clip-path="url(#p6d38bd51b5)" style="fill: #800000"/>
   </g>
   <g id="patch_248">
    <path d="M 46.656 40.894787 
L 51.264 40.894787 
L 51.264 35.470499 
L 46.656 35.470499 
z
" clip-path="url(#p6d38bd51b5)" style="fill: #800000"/>
   </g>
   <g id="patch_249">
    <path d="M 52.416 40.894787 
L 57.024 40.894787 
L 57.024 25.774911 
L 52.416 25.774911 
z
" clip-path="url(#p6d38bd51b5)" style="fill: #800000"/>
   </g>
   <g id="patch_250">
    <path d="M 58.176 40.894787 
L 62.784 40.894787 
L 62.784 37.907498 
L 58.176 37.907498 
z
" clip-path="url(#p6d38bd51b5)" style="fill: #800000"/>
   </g>
   <g id="patch_251">
    <path d="M 63.936 40.894787 
L 68.544 40.894787 
L 68.544 36.597283 
L 63.936 36.597283 
z
" clip-path="url(#p6d38bd51b5)" style="fill: #800000"/>
   </g>
   <g id="patch_252">
    <path d="M 69.696 40.894787 
L 74.304 40.894787 
L 74.304 38.981874 
L 69.696 38.981874 
z
" clip-path="url(#p6d38bd51b5)" style="fill: #800000"/>
   </g>
   <g id="patch_253">
    <path d="M 75.456 40.894787 
L 80.064 40.894787 
L 80.064 38.667422 
L 75.456 38.667422 
z
" clip-path="url(#p6d38bd51b5)" style="fill: #800000"/>
   </g>
   <g id="patch_254">
    <path d="M 81.216 40.894787 
L 85.824 40.894787 
L 85.824 38.955669 
L 81.216 38.955669 
z
" clip-path="url(#p6d38bd51b5)" style="fill: #800000"/>
   </g>
   <g id="patch_255">
    <path d="M 86.976 40.894787 
L 91.584 40.894787 
L 91.584 38.929465 
L 86.976 38.929465 
z
" clip-path="url(#p6d38bd51b5)" style="fill: #800000"/>
   </g>
   <g id="patch_256">
    <path d="M 92.736 40.894787 
L 97.344 40.894787 
L 97.344 39.453551 
L 92.736 39.453551 
z
" clip-path="url(#p6d38bd51b5)" style="fill: #800000"/>
   </g>
   <g id="patch_257">
    <path d="M 98.496 40.894787 
L 103.104 40.894787 
L 103.104 38.117132 
L 98.496 38.117132 
z
" clip-path="url(#p6d38bd51b5)" style="fill: #800000"/>
   </g>
   <g id="patch_258">
    <path d="M 104.256 40.894787 
L 108.864 40.894787 
L 108.864 38.379175 
L 104.256 38.379175 
z
" clip-path="url(#p6d38bd51b5)" style="fill: #800000"/>
   </g>
   <g id="patch_259">
    <path d="M 110.016 40.894787 
L 114.624 40.894787 
L 114.624 38.431583 
L 110.016 38.431583 
z
" clip-path="url(#p6d38bd51b5)" style="fill: #800000"/>
   </g>
   <g id="patch_260">
    <path d="M 115.776 40.894787 
L 120.384 40.894787 
L 120.384 38.143336 
L 115.776 38.143336 
z
" clip-path="url(#p6d38bd51b5)" style="fill: #800000"/>
   </g>
   <g id="patch_261">
    <path d="M 121.536 40.894787 
L 126.144 40.894787 
L 126.144 37.828885 
L 121.536 37.828885 
z
" clip-path="url(#p6d38bd51b5)" style="fill: #800000"/>
   </g>
   <g id="patch_262">
    <path d="M 127.296 40.894787 
L 131.904 40.894787 
L 131.904 37.645455 
L 127.296 37.645455 
z
" clip-path="url(#p6d38bd51b5)" style="fill: #800000"/>
   </g>
   <g id="patch_263">
    <path d="M 133.056 40.894787 
L 137.664 40.894787 
L 137.664 37.593046 
L 133.056 37.593046 
z
" clip-path="url(#p6d38bd51b5)" style="fill: #800000"/>
   </g>
   <g id="patch_264">
    <path d="M 138.816 40.894787 
L 143.424 40.894787 
L 143.424 38.195745 
L 138.816 38.195745 
z
" clip-path="url(#p6d38bd51b5)" style="fill: #800000"/>
   </g>
   <g id="patch_265">
    <path d="M 144.576 40.894787 
L 149.184 40.894787 
L 149.184 37.488229 
L 144.576 37.488229 
z
" clip-path="url(#p6d38bd51b5)" style="fill: #800000"/>
   </g>
   <g id="patch_266">
    <path d="M 150.336 40.894787 
L 154.944 40.894787 
L 154.944 38.746035 
L 150.336 38.746035 
z
" clip-path="url(#p6d38bd51b5)" style="fill: #800000"/>
   </g>
   <g id="patch_267">
    <path d="M 156.096 40.894787 
L 160.704 40.894787 
L 160.704 38.693626 
L 156.096 38.693626 
z
" clip-path="url(#p6d38bd51b5)" style="fill: #800000"/>
   </g>
   <g id="patch_268">
    <path d="M 161.856 40.894787 
L 166.464 40.894787 
L 166.464 38.798444 
L 161.856 38.798444 
z
" clip-path="url(#p6d38bd51b5)" style="fill: #800000"/>
   </g>
   <g id="patch_269">
    <path d="M 167.616 40.894787 
L 172.224 40.894787 
L 172.224 39.243916 
L 167.616 39.243916 
z
" clip-path="url(#p6d38bd51b5)" style="fill: #800000"/>
   </g>
   <g id="patch_270">
    <path d="M 173.376 40.894787 
L 177.984 40.894787 
L 177.984 39.401142 
L 173.376 39.401142 
z
" clip-path="url(#p6d38bd51b5)" style="fill: #800000"/>
   </g>
   <g id="patch_271">
    <path d="M 179.136 40.894787 
L 183.744 40.894787 
L 183.744 39.689389 
L 179.136 39.689389 
z
" clip-path="url(#p6d38bd51b5)" style="fill: #800000"/>
   </g>
   <g id="patch_272">
    <path d="M 184.896 40.894787 
L 189.504 40.894787 
L 189.504 39.715594 
L 184.896 39.715594 
z
" clip-path="url(#p6d38bd51b5)" style="fill: #800000"/>
   </g>
   <g id="patch_273">
    <path d="M 190.656 40.894787 
L 195.264 40.894787 
L 195.264 40.265884 
L 190.656 40.265884 
z
" clip-path="url(#p6d38bd51b5)" style="fill: #800000"/>
   </g>
   <g id="patch_274">
    <path d="M 196.416 40.894787 
L 201.024 40.894787 
L 201.024 40.187271 
L 196.416 40.187271 
z
" clip-path="url(#p6d38bd51b5)" style="fill: #800000"/>
   </g>
   <g id="patch_275">
    <path d="M 202.176 40.894787 
L 206.784 40.894787 
L 206.784 40.554131 
L 202.176 40.554131 
z
" clip-path="url(#p6d38bd51b5)" style="fill: #800000"/>
   </g>
   <g id="patch_276">
    <path d="M 207.936 40.894787 
L 212.544 40.894787 
L 212.544 40.60654 
L 207.936 40.60654 
z
" clip-path="url(#p6d38bd51b5)" style="fill: #800000"/>
   </g>
   <g id="patch_277">
    <path d="M 213.696 40.894787 
L 218.304 40.894787 
L 218.304 40.632744 
L 213.696 40.632744 
z
" clip-path="url(#p6d38bd51b5)" style="fill: #800000"/>
   </g>
   <g id="patch_278">
    <path d="M 219.456 40.894787 
L 224.064 40.894787 
L 224.064 40.763765 
L 219.456 40.763765 
z
" clip-path="url(#p6d38bd51b5)" style="fill: #800000"/>
   </g>
   <g id="patch_279">
    <path d="M 225.216 40.894787 
L 229.824 40.894787 
L 229.824 40.842378 
L 225.216 40.842378 
z
" clip-path="url(#p6d38bd51b5)" style="fill: #800000"/>
   </g>
   <g id="patch_280">
    <path d="M 230.976 40.894787 
L 235.584 40.894787 
L 235.584 40.868582 
L 230.976 40.868582 
z
" clip-path="url(#p6d38bd51b5)" style="fill: #800000"/>
   </g>
   <g id="patch_281">
    <path d="M 236.736 40.894787 
L 241.344 40.894787 
L 241.344 40.842378 
L 236.736 40.842378 
z
" clip-path="url(#p6d38bd51b5)" style="fill: #800000"/>
   </g>
   <g id="patch_282">
    <path d="M 248.256 40.894787 
L 252.864 40.894787 
L 252.864 40.868582 
L 248.256 40.868582 
z
" clip-path="url(#p6d38bd51b5)" style="fill: #800000"/>
   </g>
   <g id="matplotlib.axis_1">
    <g id="xtick_1">
     <g id="line2d_1">
      <defs>
       <path id="md72b46e107" d="M 0 0 
L 0 3.5 
" style="stroke: #000000; stroke-width: 0.8"/>
      </defs>
      <g>
       <use xlink:href="#md72b46e107" x="43.2" y="439.2" style="stroke: #000000; stroke-width: 0.8"/>
      </g>
     </g>
     <g id="text_1">
      <text style="font: 8px 'Carlito', sans-serif; text-anchor: middle" x="43.2" y="451.755" transform="rotate(-0 43.2 451.755)">0</text>
     </g>
    </g>
    <g id="xtick_2">
     <g id="line2d_2">
      <g>
       <use xlink:href="#md72b46e107" x="100.8" y="439.2" style="stroke: #000000; stroke-width: 0.8"/>
      </g>
     </g>
     <g id="text_2">
      <text style="font: 8px 'Carlito', sans-serif; text-anchor: middle" x="100.8" y="451.755" transform="rotate(-0 100.8 451.755)">10</text>
     </g>
    </g>
    <g id="xtick_3">
     <g id="line2d_3">
      <g>
       <use xlink:href="#md72b46e107" x="158.4" y="439.2" style="stroke: #000000; stroke-width: 0.8"/>
      </g>
     </g>
     <g id="text_3">
      <text style="font: 8px 'Carlito', sans-serif; text-anchor: middle" x="158.4" y="451.755" transform="rotate(-0 158.4 451.755)">20</text>
     </g>
    </g>
    <g id="text_4">
     <text style="font: 8px 'Carlito', sans-serif; text-anchor: middle" x="115.2" y="462.59875" transform="rotate(-0 115.2 462.59875)">total spawned fronts</text>
    </g>
   </g>
   <g id="matplotlib.axis_2">
    <g id="ytick_1">
     <g id="line2d_4">
      <defs>
       <path id="m840b5399cd" d="M 0 0 
L -3.5 0 
" style="stroke: #000000; stroke-width: 0.8"/>
      </defs>
      <g>
       <use xlink:href="#m840b5399cd" x="43.2" y="439.2" style="stroke: #000000; stroke-width: 0.8"/>
      </g>
     </g>
     <g id="text_5">
      <text style="font: 8px 'Carlito', sans-serif; text-anchor: end" x="36.2" y="441.9775" transform="rotate(-0 36.2 441.9775)">1</text>
     </g>
    </g>
    <g id="ytick_2">
     <g id="line2d_5">
      <g>
       <use xlink:href="#m840b5399cd" x="43.2" y="418.236568" style="stroke: #000000; stroke-width: 0.8"/>
      </g>
     </g>
     <g id="text_6">
      <text style="font: 8px 'Carlito', sans-serif; text-anchor: end" x="36.2" y="421.014068" transform="rotate(-0 36.2 421.014068)">2</text>
     </g>
    </g>
    <g id="ytick_3">
     <g id="line2d_6">
      <g>
       <use xlink:href="#m840b5399cd" x="43.2" y="397.273135" style="stroke: #000000; stroke-width: 0.8"/>
      </g>
     </g>
     <g id="text_7">
      <text style="font: 8px 'Carlito', sans-serif; text-anchor: end" x="36.2" y="400.050635" transform="rotate(-0 36.2 400.050635)">3</text>
     </g>
    </g>
    <g id="ytick_4">
     <g id="line2d_7">
      <g>
       <use xlink:href="#m840b5399cd" x="43.2" y="376.309703" style="stroke: #000000; stroke-width: 0.8"/>
      </g>
     </g>
     <g id="text_8">
      <text style="font: 8px 'Carlito', sans-serif; text-anchor: end" x="36.2" y="379.087203" transform="rotate(-0 36.2 379.087203)">4</text>
     </g>
    </g>
    <g id="ytick_5">
     <g id="line2d_8">
      <g>
       <use xlink:href="#m840b5399cd" x="43.2" y="355.346271" style="stroke: #000000; stroke-width: 0.8"/>
      </g>
     </g>
     <g id="text_9">
      <text style="font: 8px 'Carlito', sans-serif; text-anchor: end" x="36.2" y="358.123771" transform="rotate(-0 36.2 358.123771)">5</text>
     </g>
    </g>
    <g id="ytick_6">
     <g id="line2d_9">
      <g>
       <use xlink:href="#m840b5399cd" x="43.2" y="334.382839" style="stroke: #000000; stroke-width: 0.8"/>
      </g>
     </g>
     <g id="text_10">
      <text style="font: 8px 'Carlito', sans-serif; text-anchor: end" x="36.2" y="337.160339" transform="rotate(-0 36.2 337.160339)">6</text>
     </g>
    </g>
    <g id="ytick_7">
     <g id="line2d_10">
      <g>
       <use xlink:href="#m840b5399cd" x="43.2" y="313.419406" style="stroke: #000000; stroke-width: 0.8"/>
      </g>
     </g>
     <g id="text_11">
      <text style="font: 8px 'Carlito', sans-serif; text-anchor: end" x="36.2" y="316.196906" transform="rotate(-0 36.2 316.196906)">7</text>
     </g>
    </g>
    <g id="ytick_8">
     <g id="line2d_11">
      <g>
       <use xlink:href="#m840b5399cd" x="43.2" y="292.455974" style="stroke: #000000; stroke-width: 0.8"/>
      </g>
     </g>
     <g id="text_12">
      <text style="font: 8px 'Carlito', sans-serif; text-anchor: end" x="36.2" y="295.233474" transform="rotate(-0 36.2 295.233474)">8</text>
     </g>
    </g>
    <g id="ytick_9">
     <g id="line2d_12">
      <g>
       <use xlink:href="#m840b5399cd" x="43.2" y="271.492542" style="stroke: #000000; stroke-width: 0.8"/>
      </g>
     </g>
     <g id="text_13">
      <text style="font: 8px 'Carlito', sans-serif; text-anchor: end" x="36.2" y="274.270042" transform="rotate(-0 36.2 274.270042)">9</text>
     </g>
    </g>
    <g id="ytick_10">
     <g id="line2d_13">
      <g>
       <use xlink:href="#m840b5399cd" x="43.2" y="250.52911" style="stroke: #000000; stroke-width: 0.8"/>
      </g>
     </g>
     <g id="text_14">
      <text style="font: 8px 'Carlito', sans-serif; text-anchor: end" x="36.2" y="253.30661" transform="rotate(-0 36.2 253.30661)">10</text>
     </g>
    </g>
    <g id="ytick_11">
     <g id="line2d_14">
      <g>
       <use xlink:href="#m840b5399cd" x="43.2" y="208.602245" style="stroke: #000000; stroke-width: 0.8"/>
      </g>
     </g>
     <g id="text_15">
      <text style="font: 8px 'Carlito', sans-serif; text-anchor: end" x="36.2" y="211.379745" transform="rotate(-0 36.2 211.379745)">12</text>
     </g>
    </g>
    <g id="ytick_12">
     <g id="line2d_15">
      <g>
       <use xlink:href="#m840b5399cd" x="43.2" y="166.67538" style="stroke: #000000; stroke-width: 0.8"/>
      </g>
     </g>
     <g id="text_16">
      <text style="font: 8px 'Carlito', sans-serif; text-anchor: end" x="36.2" y="169.45288" transform="rotate(-0 36.2 169.45288)">14</text>
     </g>
    </g>
    <g id="ytick_13">
     <g id="line2d_16">
      <g>
       <use xlink:href="#m840b5399cd" x="43.2" y="124.748516" style="stroke: #000000; stroke-width: 0.8"/>
      </g>
     </g>
     <g id="text_17">
      <text style="font: 8px 'Carlito', sans-serif; text-anchor: end" x="36.2" y="127.526016" transform="rotate(-0 36.2 127.526016)">16</text>
     </g>
    </g>
    <g id="ytick_14">
     <g id="line2d_17">
      <g>
       <use xlink:href="#m840b5399cd" x="43.2" y="82.821651" style="stroke: #000000; stroke-width: 0.8"/>
      </g>
     </g>
     <g id="text_18">
      <text style="font: 8px 'Carlito', sans-serif; text-anchor: end" x="36.2" y="85.599151" transform="rotate(-0 36.2 85.599151)">18</text>
     </g>
    </g>
    <g id="ytick_15">
     <g id="line2d_18">
      <g>
       <use xlink:href="#m840b5399cd" x="43.2" y="40.894787" style="stroke: #000000; stroke-width: 0.8"/>
      </g>
     </g>
     <g id="text_19">
      <text style="font: 8px 'Carlito', sans-serif; text-anchor: end" x="36.2" y="43.672287" transform="rotate(-0 36.2 43.672287)">20</text>
     </g>
    </g>
    <g id="text_20">
     <text style="font: 8px 'Carlito', sans-serif; text-anchor: middle" x="22.80125" y="223.2" transform="rotate(-90 22.80125 223.2)">channel width</text>
    </g>
   </g>
   <g id="patch_283">
    <path d="M 43.2 439.2 
L 43.2 7.2 
" style="fill: none; stroke: #000000; stroke-width: 0.8; stroke-linejoin: miter; stroke-linecap: square"/>
   </g>
   <g id="patch_284">
    <path d="M 187.2 439.2 
L 187.2 7.2 
" style="fill: none; stroke: #000000; stroke-width: 0.8; stroke-linejoin: miter; stroke-linecap: square"/>
   </g>
   <g id="patch_285">
    <path d="M 43.2 439.2 
L 187.2 439.2 
" style="fill: none; stroke: #000000; stroke-width: 0.8; stroke-linejoin: miter; stroke-linecap: square"/>
   </g>
   <g id="patch_286">
    <path d="M 43.2 7.2 
L 187.2 7.2 
" style="fill: none; stroke: #000000; stroke-width: 0.8; stroke-linejoin: miter; stroke-linecap: square"/>
   </g>
  </g>
 </g>
 <defs>
  <clipPath id="p6d38bd51b5">
   <rect x="43.2" y="7.2" width="144" height="432"/>
  </clipPath>
 </defs>
</svg>
