<?xml version="1.0" encoding="utf-8" standalone="no"?>
<!DOCTYPE svg PUBLIC "-//W3C//DTD SVG 1.1//EN"
  "http://www.w3.org/Graphics/SVG/1.1/DTD/svg11.dtd">
<svg xmlns:xlink="http://www.w3.org/1999/xlink" width="438.51748pt" height="160.920118pt" viewBox="0 0 438.51748 160.920118" xmlns="http://www.w3.org/2000/svg" version="1.1">
 <metadata>
  <rdf:RDF xmlns:dc="http://purl.org/dc/elements/1.1/" xmlns:cc="http://creativecommons.org/ns#" xmlns:rdf="http://www.w3.org/1999/02/22-rdf-syntax-ns#">
   <cc:Work>
    <dc:type rdf:resource="http://purl.org/dc/dcmitype/StillImage"/>
    <dc:date>2024-01-12T13:23:59.269905</dc:date>
    <dc:format>image/svg+xml</dc:format>
    <dc:creator>
     <cc:Agent>
      <dc:title>Matplotlib v3.7.1, https://matplotlib.org/</dc:title>
     </cc:Agent>
    </dc:creator>
   </cc:Work>
  </rdf:RDF>
 </metadata>
 <defs>
  <style type="text/css">*{stroke-linejoin: round; stroke-linecap: butt}</style>
 </defs>
 <g id="figure_1">
  <g id="patch_1">
   <path d="M 0 160.920118 
L 438.51748 160.920118 
L 438.51748 -0 
L 0 -0 
z
" style="fill: #ffffff"/>
  </g>
  <g id="axes_1">
   <g id="patch_2">
    <path d="M 47.96 129.032618 
L 218.03874 129.032618 
L 218.03874 9.9775 
L 47.96 9.9775 
z
" style="fill: #ffffff"/>
   </g>
   <g id="matplotlib.axis_1">
    <g id="xtick_1">
     <g id="line2d_1">
      <defs>
       <path id="mb2bab23821" d="M 0 0 
L 0 3.5 
" style="stroke: #000000; stroke-width: 0.8"/>
      </defs>
      <g>
       <use xlink:href="#mb2bab23821" x="47.96" y="129.032618" style="stroke: #000000; stroke-width: 0.8"/>
      </g>
     </g>
     <g id="text_1">
      <text style="font: 8px 'Carlito', sans-serif; text-anchor: middle" x="47.96" y="141.587618" transform="rotate(-0 47.96 141.587618)">0</text>
     </g>
    </g>
    <g id="xtick_2">
     <g id="line2d_2">
      <g>
       <use xlink:href="#mb2bab23821" x="88.454938" y="129.032618" style="stroke: #000000; stroke-width: 0.8"/>
      </g>
     </g>
     <g id="text_2">
      <text style="font: 8px 'Carlito', sans-serif; text-anchor: middle" x="88.454938" y="141.587618" transform="rotate(-0 88.454938 141.587618)">5</text>
     </g>
    </g>
    <g id="xtick_3">
     <g id="line2d_3">
      <g>
       <use xlink:href="#mb2bab23821" x="128.949876" y="129.032618" style="stroke: #000000; stroke-width: 0.8"/>
      </g>
     </g>
     <g id="text_3">
      <text style="font: 8px 'Carlito', sans-serif; text-anchor: middle" x="128.949876" y="141.587618" transform="rotate(-0 128.949876 141.587618)">10</text>
     </g>
    </g>
    <g id="xtick_4">
     <g id="line2d_4">
      <g>
       <use xlink:href="#mb2bab23821" x="169.444814" y="129.032618" style="stroke: #000000; stroke-width: 0.8"/>
      </g>
     </g>
     <g id="text_4">
      <text style="font: 8px 'Carlito', sans-serif; text-anchor: middle" x="169.444814" y="141.587618" transform="rotate(-0 169.444814 141.587618)">15</text>
     </g>
    </g>
    <g id="xtick_5">
     <g id="line2d_5">
      <g>
       <use xlink:href="#mb2bab23821" x="209.939753" y="129.032618" style="stroke: #000000; stroke-width: 0.8"/>
      </g>
     </g>
     <g id="text_5">
      <text style="font: 8px 'Carlito', sans-serif; text-anchor: middle" x="209.939753" y="141.587618" transform="rotate(-0 209.939753 141.587618)">20</text>
     </g>
    </g>
    <g id="text_6">
     <text style="font: 8px 'Carlito', sans-serif; text-anchor: middle" x="132.99937" y="152.431368" transform="rotate(-0 132.99937 152.431368)">channel width</text>
    </g>
   </g>
   <g id="matplotlib.axis_2">
    <g id="ytick_1">
     <g id="line2d_6">
      <defs>
       <path id="m64a58ed2d1" d="M 0 0 
L -3.5 0 
" style="stroke: #000000; stroke-width: 0.8"/>
      </defs>
      <g>
       <use xlink:href="#m64a58ed2d1" x="47.96" y="129.032618" style="stroke: #000000; stroke-width: 0.8"/>
      </g>
     </g>
     <g id="text_7">
      <!-- 0×10$^{-4}$ -->
      <g transform="translate(18.88 131.810118)">
       <text>
        <tspan style="font: 8px 'Carlito'" x="0 4.054688 8.039062 12.09375" y="-0.7218750000000007">0×10</tspan>
        <tspan style="font: 5.6px 'Carlito'" x="16.21543 19.004492" y="-3.4015625000000007">−4</tspan>
       </text>
      </g>
     </g>
    </g>
    <g id="ytick_2">
     <g id="line2d_7">
      <g>
       <use xlink:href="#m64a58ed2d1" x="47.96" y="89.347579" style="stroke: #000000; stroke-width: 0.8"/>
      </g>
     </g>
     <g id="text_8">
      <!-- 2×10$^{-4}$ -->
      <g transform="translate(18.88 92.125079)">
       <text>
        <tspan style="font: 8px 'Carlito'" x="0 4.054688 8.039062 12.09375" y="-0.7218750000000007">2×10</tspan>
        <tspan style="font: 5.6px 'Carlito'" x="16.21543 19.004492" y="-3.4015625000000007">−4</tspan>
       </text>
      </g>
     </g>
    </g>
    <g id="ytick_3">
     <g id="line2d_8">
      <g>
       <use xlink:href="#m64a58ed2d1" x="47.96" y="49.662539" style="stroke: #000000; stroke-width: 0.8"/>
      </g>
     </g>
     <g id="text_9">
      <!-- 4×10$^{-4}$ -->
      <g transform="translate(18.88 52.440039)">
       <text>
        <tspan style="font: 8px 'Carlito'" x="0 4.054688 8.039062 12.09375" y="-0.7218750000000007">4×10</tspan>
        <tspan style="font: 5.6px 'Carlito'" x="16.21543 19.004492" y="-3.4015625000000007">−4</tspan>
       </text>
      </g>
     </g>
    </g>
    <g id="ytick_4">
     <g id="line2d_9">
      <g>
       <use xlink:href="#m64a58ed2d1" x="47.96" y="9.9775" style="stroke: #000000; stroke-width: 0.8"/>
      </g>
     </g>
     <g id="text_10">
      <!-- 6×10$^{-4}$ -->
      <g transform="translate(18.88 12.755)">
       <text>
        <tspan style="font: 8px 'Carlito'" x="0 4.054688 8.039062 12.09375" y="-0.7218750000000007">6×10</tspan>
        <tspan style="font: 5.6px 'Carlito'" x="16.21543 19.004492" y="-3.4015625000000007">−4</tspan>
       </text>
      </g>
     </g>
    </g>
    <g id="text_11">
     <!-- propensity [step$^{-1}$] -->
     <g transform="translate(13.52 100.265059) rotate(-90)">
      <text>
       <tspan style="font: 8px 'Carlito'" x="0 4.203125 6.992188 11.210938 15.414062 19.394531 23.597656 26.726562 28.5625 31.242188 34.863281 36.671875 39.125 42.253906 44.933594 48.914062 59.00293" y="-0.7109375">propensity [step]</tspan>
       <tspan style="font: 5.6px 'Carlito'" x="53.18418 55.973242" y="-3.390625">−1</tspan>
      </text>
     </g>
    </g>
   </g>
   <g id="line2d_10">
    <defs>
     <path id="mbf081677c6" d="M -3 3 
L 3 3 
L 3 -3 
L -3 -3 
z
" style="stroke: #808000; stroke-linejoin: miter"/>
    </defs>
    <g clip-path="url(#pddbc316a4c)">
     <use xlink:href="#mbf081677c6" x="79.699514" y="-1" style="fill: #808000; stroke: #808000; stroke-linejoin: miter"/>
     <use xlink:href="#mbf081677c6" x="80.355951" y="33.968681" style="fill: #808000; stroke: #808000; stroke-linejoin: miter"/>
     <use xlink:href="#mbf081677c6" x="88.454938" y="111.055761" style="fill: #808000; stroke: #808000; stroke-linejoin: miter"/>
     <use xlink:href="#mbf081677c6" x="96.553926" y="125.386092" style="fill: #808000; stroke: #808000; stroke-linejoin: miter"/>
     <use xlink:href="#mbf081677c6" x="104.652913" y="127.658482" style="fill: #808000; stroke: #808000; stroke-linejoin: miter"/>
    </g>
   </g>
   <g id="line2d_11">
    <defs>
     <path id="mdf0e5b429d" d="M 0 -3 
L -3 3 
L 3 3 
z
" style="stroke: #800000; stroke-linejoin: miter"/>
    </defs>
    <g clip-path="url(#pddbc316a4c)">
     <use xlink:href="#mdf0e5b429d" x="56.058988" y="129.032618" style="fill: #800000; stroke: #800000; stroke-linejoin: miter"/>
     <use xlink:href="#mdf0e5b429d" x="64.157975" y="128.378028" style="fill: #800000; stroke: #800000; stroke-linejoin: miter"/>
     <use xlink:href="#mdf0e5b429d" x="72.256963" y="124.596543" style="fill: #800000; stroke: #800000; stroke-linejoin: miter"/>
     <use xlink:href="#mdf0e5b429d" x="80.355951" y="119.090195" style="fill: #800000; stroke: #800000; stroke-linejoin: miter"/>
     <use xlink:href="#mdf0e5b429d" x="88.454938" y="113.685415" style="fill: #800000; stroke: #800000; stroke-linejoin: miter"/>
     <use xlink:href="#mdf0e5b429d" x="96.553926" y="109.359387" style="fill: #800000; stroke: #800000; stroke-linejoin: miter"/>
     <use xlink:href="#mdf0e5b429d" x="104.652913" y="105.131657" style="fill: #800000; stroke: #800000; stroke-linejoin: miter"/>
     <use xlink:href="#mdf0e5b429d" x="112.751901" y="100.535411" style="fill: #800000; stroke: #800000; stroke-linejoin: miter"/>
     <use xlink:href="#mdf0e5b429d" x="120.850889" y="98.835362" style="fill: #800000; stroke: #800000; stroke-linejoin: miter"/>
     <use xlink:href="#mdf0e5b429d" x="128.949876" y="92.842101" style="fill: #800000; stroke: #800000; stroke-linejoin: miter"/>
     <use xlink:href="#mdf0e5b429d" x="145.147852" y="86.734729" style="fill: #800000; stroke: #800000; stroke-linejoin: miter"/>
     <use xlink:href="#mdf0e5b429d" x="161.345827" y="79.005269" style="fill: #800000; stroke: #800000; stroke-linejoin: miter"/>
     <use xlink:href="#mdf0e5b429d" x="177.543802" y="71.942513" style="fill: #800000; stroke: #800000; stroke-linejoin: miter"/>
     <use xlink:href="#mdf0e5b429d" x="193.741777" y="65.621667" style="fill: #800000; stroke: #800000; stroke-linejoin: miter"/>
     <use xlink:href="#mdf0e5b429d" x="209.939753" y="57.821327" style="fill: #800000; stroke: #800000; stroke-linejoin: miter"/>
    </g>
   </g>
   <g id="line2d_12">
    <path d="M 79.506505 -1 
L 80.355951 22.682348 
L 81.975748 54.381506 
L 83.595546 76.632294 
L 85.215343 92.25093 
L 86.835141 103.214217 
L 88.454938 110.909746 
L 90.074736 116.311516 
L 91.694533 120.103215 
L 93.314331 122.764746 
L 94.934128 124.632972 
L 96.553926 125.944347 
L 98.173723 126.864848 
L 99.793521 127.510982 
L 101.413318 127.964526 
L 103.033116 128.282886 
L 104.652913 128.506354 
L 106.272711 128.663214 
L 107.892508 128.77332 
L 109.512306 128.850607 
L 111.132103 128.904858 
L 112.751901 128.942939 
L 114.371699 128.969669 
L 115.991496 128.988432 
L 117.611294 129.001602 
L 119.231091 129.010847 
L 120.850889 129.017336 
L 122.470686 129.021891 
L 124.090484 129.025088 
L 125.710281 129.027333 
L 127.330079 129.028908 
L 128.949876 129.030014 
L 130.569674 129.03079 
L 132.189471 129.031335 
L 133.809269 129.031717 
L 135.429066 129.031986 
L 137.048864 129.032174 
L 138.668661 129.032307 
L 140.288459 129.032399 
L 141.908256 129.032465 
L 143.528054 129.03251 
L 145.147852 129.032542 
L 146.767649 129.032565 
L 148.387447 129.032581 
L 150.007244 129.032592 
L 151.627042 129.0326 
L 153.246839 129.032605 
L 154.866637 129.032609 
L 156.486434 129.032612 
L 158.106232 129.032614 
L 159.726029 129.032615 
L 161.345827 129.032616 
L 162.965624 129.032617 
L 164.585422 129.032617 
L 166.205219 129.032617 
L 167.825017 129.032618 
L 169.444814 129.032618 
L 171.064612 129.032618 
L 172.684409 129.032618 
L 174.304207 129.032618 
L 175.924004 129.032618 
L 177.543802 129.032618 
L 179.1636 129.032618 
L 180.783397 129.032618 
L 182.403195 129.032618 
L 184.022992 129.032618 
L 185.64279 129.032618 
L 187.262587 129.032618 
L 188.882385 129.032618 
L 190.502182 129.032618 
L 192.12198 129.032618 
L 193.741777 129.032618 
L 195.361575 129.032618 
L 196.981372 129.032618 
L 198.60117 129.032618 
L 200.220967 129.032618 
L 201.840765 129.032618 
L 203.460562 129.032618 
L 205.08036 129.032618 
L 206.700157 129.032618 
L 208.319955 129.032618 
L 209.939753 129.032618 
" clip-path="url(#pddbc316a4c)" style="fill: none; stroke: #808000; stroke-opacity: 0.3; stroke-width: 1.5; stroke-linecap: square"/>
   </g>
   <g id="line2d_13">
    <path d="M 47.96 133.541437 
L 49.579798 132.770312 
L 51.199595 131.999187 
L 52.819393 131.228062 
L 54.43919 130.456937 
L 56.058988 129.685812 
L 57.678785 128.914687 
L 59.298583 128.143563 
L 60.91838 127.372438 
L 62.538178 126.601313 
L 64.157975 125.830188 
L 65.777773 125.059063 
L 67.39757 124.287938 
L 69.017368 123.516813 
L 70.637165 122.745688 
L 72.256963 121.974563 
L 73.87676 121.203438 
L 75.496558 120.432313 
L 77.116355 119.661188 
L 78.736153 118.890063 
L 80.355951 118.118938 
L 81.975748 117.347813 
L 83.595546 116.576688 
L 85.215343 115.805563 
L 86.835141 115.034439 
L 88.454938 114.263314 
L 90.074736 113.492189 
L 91.694533 112.721064 
L 93.314331 111.949939 
L 94.934128 111.178814 
L 96.553926 110.407689 
L 98.173723 109.636564 
L 99.793521 108.865439 
L 101.413318 108.094314 
L 103.033116 107.323189 
L 104.652913 106.552064 
L 106.272711 105.780939 
L 107.892508 105.009814 
L 109.512306 104.238689 
L 111.132103 103.467564 
L 112.751901 102.696439 
L 114.371699 101.925315 
L 115.991496 101.15419 
L 117.611294 100.383065 
L 119.231091 99.61194 
L 120.850889 98.840815 
L 122.470686 98.06969 
L 124.090484 97.298565 
L 125.710281 96.52744 
L 127.330079 95.756315 
L 128.949876 94.98519 
L 130.569674 94.214065 
L 132.189471 93.44294 
L 133.809269 92.671815 
L 135.429066 91.90069 
L 137.048864 91.129565 
L 138.668661 90.35844 
L 140.288459 89.587316 
L 141.908256 88.816191 
L 143.528054 88.045066 
L 145.147852 87.273941 
L 146.767649 86.502816 
L 148.387447 85.731691 
L 150.007244 84.960566 
L 151.627042 84.189441 
L 153.246839 83.418316 
L 154.866637 82.647191 
L 156.486434 81.876066 
L 158.106232 81.104941 
L 159.726029 80.333816 
L 161.345827 79.562691 
L 162.965624 78.791566 
L 164.585422 78.020441 
L 166.205219 77.249316 
L 167.825017 76.478192 
L 169.444814 75.707067 
L 171.064612 74.935942 
L 172.684409 74.164817 
L 174.304207 73.393692 
L 175.924004 72.622567 
L 177.543802 71.851442 
L 179.1636 71.080317 
L 180.783397 70.309192 
L 182.403195 69.538067 
L 184.022992 68.766942 
L 185.64279 67.995817 
L 187.262587 67.224692 
L 188.882385 66.453567 
L 190.502182 65.682442 
L 192.12198 64.911317 
L 193.741777 64.140192 
L 195.361575 63.369068 
L 196.981372 62.597943 
L 198.60117 61.826818 
L 200.220967 61.055693 
L 201.840765 60.284568 
L 203.460562 59.513443 
L 205.08036 58.742318 
L 206.700157 57.971193 
L 208.319955 57.200068 
L 209.939753 56.428943 
" clip-path="url(#pddbc316a4c)" style="fill: none; stroke: #800000; stroke-opacity: 0.4; stroke-width: 1.5; stroke-linecap: square"/>
   </g>
   <g id="line2d_14">
    <path d="M 79.890004 -1 
L 80.355951 11.768669 
L 81.975748 42.696701 
L 83.595546 64.176364 
L 85.215343 79.023875 
L 86.835141 89.216037 
L 88.454938 96.140441 
L 90.074736 100.771087 
L 91.694533 103.791661 
L 93.314331 105.682067 
L 94.934128 106.779167 
L 96.553926 107.319417 
L 98.173723 107.468794 
L 99.793521 107.343803 
L 101.413318 107.026222 
L 103.033116 106.573457 
L 104.652913 106.0258 
L 106.272711 105.411535 
L 107.892508 104.750516 
L 109.512306 104.056679 
L 111.132103 103.339804 
L 112.751901 102.60676 
L 114.371699 101.862365 
L 115.991496 101.110003 
L 117.611294 100.352049 
L 119.231091 99.590168 
L 120.850889 98.825533 
L 122.470686 98.058963 
L 124.090484 97.291035 
L 125.710281 96.522155 
L 127.330079 95.752605 
L 128.949876 94.982586 
L 130.569674 94.212237 
L 132.189471 93.441657 
L 133.809269 92.670915 
L 135.429066 91.900058 
L 137.048864 91.129122 
L 138.668661 90.358129 
L 140.288459 89.587097 
L 141.908256 88.816037 
L 143.528054 88.044958 
L 145.147852 87.273865 
L 146.767649 86.502763 
L 148.387447 85.731654 
L 150.007244 84.96054 
L 151.627042 84.189423 
L 153.246839 83.418303 
L 154.866637 82.647182 
L 156.486434 81.87606 
L 158.106232 81.104937 
L 159.726029 80.333813 
L 161.345827 79.562689 
L 162.965624 78.791565 
L 164.585422 78.02044 
L 166.205219 77.249316 
L 167.825017 76.478191 
L 169.444814 75.707066 
L 171.064612 74.935941 
L 172.684409 74.164817 
L 174.304207 73.393692 
L 175.924004 72.622567 
L 177.543802 71.851442 
L 179.1636 71.080317 
L 180.783397 70.309192 
L 182.403195 69.538067 
L 184.022992 68.766942 
L 185.64279 67.995817 
L 187.262587 67.224692 
L 188.882385 66.453567 
L 190.502182 65.682442 
L 192.12198 64.911317 
L 193.741777 64.140192 
L 195.361575 63.369068 
L 196.981372 62.597943 
L 198.60117 61.826818 
L 200.220967 61.055693 
L 201.840765 60.284568 
L 203.460562 59.513443 
L 205.08036 58.742318 
L 206.700157 57.971193 
L 208.319955 57.200068 
L 209.939753 56.428943 
" clip-path="url(#pddbc316a4c)" style="fill: none; stroke: #000080; stroke-opacity: 0.4; stroke-width: 1.5; stroke-linecap: square"/>
   </g>
   <g id="patch_3">
    <path d="M 47.96 129.032618 
L 47.96 9.9775 
" style="fill: none; stroke: #000000; stroke-width: 0.8; stroke-linejoin: miter; stroke-linecap: square"/>
   </g>
   <g id="patch_4">
    <path d="M 218.03874 129.032618 
L 218.03874 9.9775 
" style="fill: none; stroke: #000000; stroke-width: 0.8; stroke-linejoin: miter; stroke-linecap: square"/>
   </g>
   <g id="patch_5">
    <path d="M 47.96 129.032618 
L 218.03874 129.032618 
" style="fill: none; stroke: #000000; stroke-width: 0.8; stroke-linejoin: miter; stroke-linecap: square"/>
   </g>
   <g id="patch_6">
    <path d="M 47.96 9.9775 
L 218.03874 9.9775 
" style="fill: none; stroke: #000000; stroke-width: 0.8; stroke-linejoin: miter; stroke-linecap: square"/>
   </g>
  </g>
  <g id="axes_2">
   <g id="patch_7">
    <path d="M 261.23874 129.032618 
L 431.31748 129.032618 
L 431.31748 9.9775 
L 261.23874 9.9775 
z
" style="fill: #ffffff"/>
   </g>
   <g id="matplotlib.axis_3">
    <g id="xtick_6">
     <g id="line2d_15">
      <g>
       <use xlink:href="#mb2bab23821" x="261.23874" y="129.032618" style="stroke: #000000; stroke-width: 0.8"/>
      </g>
     </g>
     <g id="text_12">
      <text style="font: 8px 'Carlito', sans-serif; text-anchor: middle" x="261.23874" y="141.587618" transform="rotate(-0 261.23874 141.587618)">0</text>
     </g>
    </g>
    <g id="xtick_7">
     <g id="line2d_16">
      <g>
       <use xlink:href="#mb2bab23821" x="301.733678" y="129.032618" style="stroke: #000000; stroke-width: 0.8"/>
      </g>
     </g>
     <g id="text_13">
      <text style="font: 8px 'Carlito', sans-serif; text-anchor: middle" x="301.733678" y="141.587618" transform="rotate(-0 301.733678 141.587618)">5</text>
     </g>
    </g>
    <g id="xtick_8">
     <g id="line2d_17">
      <g>
       <use xlink:href="#mb2bab23821" x="342.228616" y="129.032618" style="stroke: #000000; stroke-width: 0.8"/>
      </g>
     </g>
     <g id="text_14">
      <text style="font: 8px 'Carlito', sans-serif; text-anchor: middle" x="342.228616" y="141.587618" transform="rotate(-0 342.228616 141.587618)">10</text>
     </g>
    </g>
    <g id="xtick_9">
     <g id="line2d_18">
      <g>
       <use xlink:href="#mb2bab23821" x="382.723555" y="129.032618" style="stroke: #000000; stroke-width: 0.8"/>
      </g>
     </g>
     <g id="text_15">
      <text style="font: 8px 'Carlito', sans-serif; text-anchor: middle" x="382.723555" y="141.587618" transform="rotate(-0 382.723555 141.587618)">15</text>
     </g>
    </g>
    <g id="xtick_10">
     <g id="line2d_19">
      <g>
       <use xlink:href="#mb2bab23821" x="423.218493" y="129.032618" style="stroke: #000000; stroke-width: 0.8"/>
      </g>
     </g>
     <g id="text_16">
      <text style="font: 8px 'Carlito', sans-serif; text-anchor: middle" x="423.218493" y="141.587618" transform="rotate(-0 423.218493 141.587618)">20</text>
     </g>
    </g>
    <g id="text_17">
     <text style="font: 8px 'Carlito', sans-serif; text-anchor: middle" x="346.27811" y="152.431368" transform="rotate(-0 346.27811 152.431368)">channel width</text>
    </g>
   </g>
   <g id="matplotlib.axis_4">
    <g id="ytick_5">
     <g id="line2d_20">
      <g>
       <use xlink:href="#m64a58ed2d1" x="261.23874" y="113.24412" style="stroke: #000000; stroke-width: 0.8"/>
      </g>
     </g>
     <g id="text_18">
      <!-- $\mathdefault{10^{-4}}$ -->
      <g transform="translate(240.23874 116.02162)">
       <text>
        <tspan style="font: 8px 'Carlito'" x="0 4.054688" y="-0.7218750000000007">10</tspan>
        <tspan style="font: 5.6px 'Carlito'" x="8.176367 10.96543" y="-3.4015625000000007">−4</tspan>
       </text>
      </g>
     </g>
    </g>
    <g id="ytick_6">
     <g id="line2d_21">
      <g>
       <use xlink:href="#m64a58ed2d1" x="261.23874" y="90.655886" style="stroke: #000000; stroke-width: 0.8"/>
      </g>
     </g>
     <g id="text_19">
      <!-- $\mathdefault{10^{-3}}$ -->
      <g transform="translate(240.23874 93.433386)">
       <text>
        <tspan style="font: 8px 'Carlito'" x="0 4.054688" y="-0.6890625000000004">10</tspan>
        <tspan style="font: 5.6px 'Carlito'" x="8.176367 10.96543" y="-3.3687500000000004">−3</tspan>
       </text>
      </g>
     </g>
    </g>
    <g id="ytick_7">
     <g id="line2d_22">
      <g>
       <use xlink:href="#m64a58ed2d1" x="261.23874" y="68.067652" style="stroke: #000000; stroke-width: 0.8"/>
      </g>
     </g>
     <g id="text_20">
      <!-- $\mathdefault{10^{-2}}$ -->
      <g transform="translate(240.23874 70.845152)">
       <text>
        <tspan style="font: 8px 'Carlito'" x="0 4.054688" y="-0.6890625000000004">10</tspan>
        <tspan style="font: 5.6px 'Carlito'" x="8.176367 10.96543" y="-3.3687500000000004">−2</tspan>
       </text>
      </g>
     </g>
    </g>
    <g id="ytick_8">
     <g id="line2d_23">
      <g>
       <use xlink:href="#m64a58ed2d1" x="261.23874" y="45.479418" style="stroke: #000000; stroke-width: 0.8"/>
      </g>
     </g>
     <g id="text_21">
      <!-- $\mathdefault{10^{-1}}$ -->
      <g transform="translate(240.23874 48.256918)">
       <text>
        <tspan style="font: 8px 'Carlito'" x="0 4.054688" y="-0.7109375">10</tspan>
        <tspan style="font: 5.6px 'Carlito'" x="8.176367 10.96543" y="-3.390625">−1</tspan>
       </text>
      </g>
     </g>
    </g>
    <g id="ytick_9">
     <g id="line2d_24">
      <g>
       <use xlink:href="#m64a58ed2d1" x="261.23874" y="22.891184" style="stroke: #000000; stroke-width: 0.8"/>
      </g>
     </g>
     <g id="text_22">
      <!-- $\mathdefault{10^{0}}$ -->
      <g transform="translate(242.95874 25.668684)">
       <text>
        <tspan style="font: 8px 'Carlito'" x="0 4.054688" y="-0.6890625000000004">10</tspan>
        <tspan style="font: 5.6px 'Carlito'" x="8.176367" y="-3.3687500000000004">0</tspan>
       </text>
      </g>
     </g>
    </g>
    <g id="ytick_10">
     <g id="line2d_25">
      <defs>
       <path id="mccc3a642f3" d="M 0 0 
L -2 0 
" style="stroke: #000000; stroke-width: 0.6"/>
      </defs>
      <g>
       <use xlink:href="#mccc3a642f3" x="261.23874" y="129.032618" style="stroke: #000000; stroke-width: 0.6"/>
      </g>
     </g>
    </g>
    <g id="ytick_11">
     <g id="line2d_26">
      <g>
       <use xlink:href="#mccc3a642f3" x="261.23874" y="125.055028" style="stroke: #000000; stroke-width: 0.6"/>
      </g>
     </g>
    </g>
    <g id="ytick_12">
     <g id="line2d_27">
      <g>
       <use xlink:href="#mccc3a642f3" x="261.23874" y="122.232882" style="stroke: #000000; stroke-width: 0.6"/>
      </g>
     </g>
    </g>
    <g id="ytick_13">
     <g id="line2d_28">
      <g>
       <use xlink:href="#mccc3a642f3" x="261.23874" y="120.043856" style="stroke: #000000; stroke-width: 0.6"/>
      </g>
     </g>
    </g>
    <g id="ytick_14">
     <g id="line2d_29">
      <g>
       <use xlink:href="#mccc3a642f3" x="261.23874" y="118.255292" style="stroke: #000000; stroke-width: 0.6"/>
      </g>
     </g>
    </g>
    <g id="ytick_15">
     <g id="line2d_30">
      <g>
       <use xlink:href="#mccc3a642f3" x="261.23874" y="116.743082" style="stroke: #000000; stroke-width: 0.6"/>
      </g>
     </g>
    </g>
    <g id="ytick_16">
     <g id="line2d_31">
      <g>
       <use xlink:href="#mccc3a642f3" x="261.23874" y="115.433146" style="stroke: #000000; stroke-width: 0.6"/>
      </g>
     </g>
    </g>
    <g id="ytick_17">
     <g id="line2d_32">
      <g>
       <use xlink:href="#mccc3a642f3" x="261.23874" y="114.277701" style="stroke: #000000; stroke-width: 0.6"/>
      </g>
     </g>
    </g>
    <g id="ytick_18">
     <g id="line2d_33">
      <g>
       <use xlink:href="#mccc3a642f3" x="261.23874" y="106.444384" style="stroke: #000000; stroke-width: 0.6"/>
      </g>
     </g>
    </g>
    <g id="ytick_19">
     <g id="line2d_34">
      <g>
       <use xlink:href="#mccc3a642f3" x="261.23874" y="102.466793" style="stroke: #000000; stroke-width: 0.6"/>
      </g>
     </g>
    </g>
    <g id="ytick_20">
     <g id="line2d_35">
      <g>
       <use xlink:href="#mccc3a642f3" x="261.23874" y="99.644648" style="stroke: #000000; stroke-width: 0.6"/>
      </g>
     </g>
    </g>
    <g id="ytick_21">
     <g id="line2d_36">
      <g>
       <use xlink:href="#mccc3a642f3" x="261.23874" y="97.455622" style="stroke: #000000; stroke-width: 0.6"/>
      </g>
     </g>
    </g>
    <g id="ytick_22">
     <g id="line2d_37">
      <g>
       <use xlink:href="#mccc3a642f3" x="261.23874" y="95.667057" style="stroke: #000000; stroke-width: 0.6"/>
      </g>
     </g>
    </g>
    <g id="ytick_23">
     <g id="line2d_38">
      <g>
       <use xlink:href="#mccc3a642f3" x="261.23874" y="94.154848" style="stroke: #000000; stroke-width: 0.6"/>
      </g>
     </g>
    </g>
    <g id="ytick_24">
     <g id="line2d_39">
      <g>
       <use xlink:href="#mccc3a642f3" x="261.23874" y="92.844912" style="stroke: #000000; stroke-width: 0.6"/>
      </g>
     </g>
    </g>
    <g id="ytick_25">
     <g id="line2d_40">
      <g>
       <use xlink:href="#mccc3a642f3" x="261.23874" y="91.689467" style="stroke: #000000; stroke-width: 0.6"/>
      </g>
     </g>
    </g>
    <g id="ytick_26">
     <g id="line2d_41">
      <g>
       <use xlink:href="#mccc3a642f3" x="261.23874" y="83.85615" style="stroke: #000000; stroke-width: 0.6"/>
      </g>
     </g>
    </g>
    <g id="ytick_27">
     <g id="line2d_42">
      <g>
       <use xlink:href="#mccc3a642f3" x="261.23874" y="79.878559" style="stroke: #000000; stroke-width: 0.6"/>
      </g>
     </g>
    </g>
    <g id="ytick_28">
     <g id="line2d_43">
      <g>
       <use xlink:href="#mccc3a642f3" x="261.23874" y="77.056414" style="stroke: #000000; stroke-width: 0.6"/>
      </g>
     </g>
    </g>
    <g id="ytick_29">
     <g id="line2d_44">
      <g>
       <use xlink:href="#mccc3a642f3" x="261.23874" y="74.867388" style="stroke: #000000; stroke-width: 0.6"/>
      </g>
     </g>
    </g>
    <g id="ytick_30">
     <g id="line2d_45">
      <g>
       <use xlink:href="#mccc3a642f3" x="261.23874" y="73.078823" style="stroke: #000000; stroke-width: 0.6"/>
      </g>
     </g>
    </g>
    <g id="ytick_31">
     <g id="line2d_46">
      <g>
       <use xlink:href="#mccc3a642f3" x="261.23874" y="71.566614" style="stroke: #000000; stroke-width: 0.6"/>
      </g>
     </g>
    </g>
    <g id="ytick_32">
     <g id="line2d_47">
      <g>
       <use xlink:href="#mccc3a642f3" x="261.23874" y="70.256678" style="stroke: #000000; stroke-width: 0.6"/>
      </g>
     </g>
    </g>
    <g id="ytick_33">
     <g id="line2d_48">
      <g>
       <use xlink:href="#mccc3a642f3" x="261.23874" y="69.101233" style="stroke: #000000; stroke-width: 0.6"/>
      </g>
     </g>
    </g>
    <g id="ytick_34">
     <g id="line2d_49">
      <g>
       <use xlink:href="#mccc3a642f3" x="261.23874" y="61.267916" style="stroke: #000000; stroke-width: 0.6"/>
      </g>
     </g>
    </g>
    <g id="ytick_35">
     <g id="line2d_50">
      <g>
       <use xlink:href="#mccc3a642f3" x="261.23874" y="57.290325" style="stroke: #000000; stroke-width: 0.6"/>
      </g>
     </g>
    </g>
    <g id="ytick_36">
     <g id="line2d_51">
      <g>
       <use xlink:href="#mccc3a642f3" x="261.23874" y="54.46818" style="stroke: #000000; stroke-width: 0.6"/>
      </g>
     </g>
    </g>
    <g id="ytick_37">
     <g id="line2d_52">
      <g>
       <use xlink:href="#mccc3a642f3" x="261.23874" y="52.279154" style="stroke: #000000; stroke-width: 0.6"/>
      </g>
     </g>
    </g>
    <g id="ytick_38">
     <g id="line2d_53">
      <g>
       <use xlink:href="#mccc3a642f3" x="261.23874" y="50.490589" style="stroke: #000000; stroke-width: 0.6"/>
      </g>
     </g>
    </g>
    <g id="ytick_39">
     <g id="line2d_54">
      <g>
       <use xlink:href="#mccc3a642f3" x="261.23874" y="48.978379" style="stroke: #000000; stroke-width: 0.6"/>
      </g>
     </g>
    </g>
    <g id="ytick_40">
     <g id="line2d_55">
      <g>
       <use xlink:href="#mccc3a642f3" x="261.23874" y="47.668444" style="stroke: #000000; stroke-width: 0.6"/>
      </g>
     </g>
    </g>
    <g id="ytick_41">
     <g id="line2d_56">
      <g>
       <use xlink:href="#mccc3a642f3" x="261.23874" y="46.512999" style="stroke: #000000; stroke-width: 0.6"/>
      </g>
     </g>
    </g>
    <g id="ytick_42">
     <g id="line2d_57">
      <g>
       <use xlink:href="#mccc3a642f3" x="261.23874" y="38.679682" style="stroke: #000000; stroke-width: 0.6"/>
      </g>
     </g>
    </g>
    <g id="ytick_43">
     <g id="line2d_58">
      <g>
       <use xlink:href="#mccc3a642f3" x="261.23874" y="34.702091" style="stroke: #000000; stroke-width: 0.6"/>
      </g>
     </g>
    </g>
    <g id="ytick_44">
     <g id="line2d_59">
      <g>
       <use xlink:href="#mccc3a642f3" x="261.23874" y="31.879946" style="stroke: #000000; stroke-width: 0.6"/>
      </g>
     </g>
    </g>
    <g id="ytick_45">
     <g id="line2d_60">
      <g>
       <use xlink:href="#mccc3a642f3" x="261.23874" y="29.69092" style="stroke: #000000; stroke-width: 0.6"/>
      </g>
     </g>
    </g>
    <g id="ytick_46">
     <g id="line2d_61">
      <g>
       <use xlink:href="#mccc3a642f3" x="261.23874" y="27.902355" style="stroke: #000000; stroke-width: 0.6"/>
      </g>
     </g>
    </g>
    <g id="ytick_47">
     <g id="line2d_62">
      <g>
       <use xlink:href="#mccc3a642f3" x="261.23874" y="26.390145" style="stroke: #000000; stroke-width: 0.6"/>
      </g>
     </g>
    </g>
    <g id="ytick_48">
     <g id="line2d_63">
      <g>
       <use xlink:href="#mccc3a642f3" x="261.23874" y="25.08021" style="stroke: #000000; stroke-width: 0.6"/>
      </g>
     </g>
    </g>
    <g id="ytick_49">
     <g id="line2d_64">
      <g>
       <use xlink:href="#mccc3a642f3" x="261.23874" y="23.924765" style="stroke: #000000; stroke-width: 0.6"/>
      </g>
     </g>
    </g>
    <g id="ytick_50">
     <g id="line2d_65">
      <g>
       <use xlink:href="#mccc3a642f3" x="261.23874" y="16.091448" style="stroke: #000000; stroke-width: 0.6"/>
      </g>
     </g>
    </g>
    <g id="ytick_51">
     <g id="line2d_66">
      <g>
       <use xlink:href="#mccc3a642f3" x="261.23874" y="12.113857" style="stroke: #000000; stroke-width: 0.6"/>
      </g>
     </g>
    </g>
    <g id="text_23">
     <!-- propensity [step$^{-1}$] -->
     <g transform="translate(234.87874 100.265059) rotate(-90)">
      <text>
       <tspan style="font: 8px 'Carlito'" x="0 4.203125 6.992188 11.210938 15.414062 19.394531 23.597656 26.726562 28.5625 31.242188 34.863281 36.671875 39.125 42.253906 44.933594 48.914062 59.00293" y="-0.7109375">propensity [step]</tspan>
       <tspan style="font: 5.6px 'Carlito'" x="53.18418 55.973242" y="-3.390625">−1</tspan>
      </text>
     </g>
    </g>
   </g>
   <g id="line2d_67">
    <g clip-path="url(#pd6b4093eb5)">
     <use xlink:href="#mbf081677c6" x="269.337728" y="42.283298" style="fill: #808000; stroke: #808000; stroke-linejoin: miter"/>
     <use xlink:href="#mbf081677c6" x="277.436715" y="63.250258" style="fill: #808000; stroke: #808000; stroke-linejoin: miter"/>
     <use xlink:href="#mbf081677c6" x="285.535703" y="81.082947" style="fill: #808000; stroke: #808000; stroke-linejoin: miter"/>
     <use xlink:href="#mbf081677c6" x="293.634691" y="97.874657" style="fill: #808000; stroke: #808000; stroke-linejoin: miter"/>
     <use xlink:href="#mbf081677c6" x="301.733678" y="114.212772" style="fill: #808000; stroke: #808000; stroke-linejoin: miter"/>
     <use xlink:href="#mbf081677c6" x="309.832666" y="129.86268" style="fill: #808000; stroke: #808000; stroke-linejoin: miter"/>
     <use xlink:href="#mbf081677c6" x="317.931654" y="139.436691" style="fill: #808000; stroke: #808000; stroke-linejoin: miter"/>
    </g>
   </g>
   <g id="line2d_68">
    <g clip-path="url(#pd6b4093eb5)">
     <use xlink:href="#mdf0e5b429d" x="273.312113" y="11587.248504" style="fill: #800000; stroke: #800000; stroke-linejoin: miter"/>
     <use xlink:href="#mdf0e5b429d" x="277.436715" y="146.711469" style="fill: #800000; stroke: #800000; stroke-linejoin: miter"/>
     <use xlink:href="#mdf0e5b429d" x="285.535703" y="127.939979" style="fill: #800000; stroke: #800000; stroke-linejoin: miter"/>
     <use xlink:href="#mdf0e5b429d" x="293.634691" y="120.022953" style="fill: #800000; stroke: #800000; stroke-linejoin: miter"/>
     <use xlink:href="#mdf0e5b429d" x="301.733678" y="115.764234" style="fill: #800000; stroke: #800000; stroke-linejoin: miter"/>
     <use xlink:href="#mdf0e5b429d" x="309.832666" y="113.328174" style="fill: #800000; stroke: #800000; stroke-linejoin: miter"/>
     <use xlink:href="#mdf0e5b429d" x="317.931654" y="111.418572" style="fill: #800000; stroke: #800000; stroke-linejoin: miter"/>
     <use xlink:href="#mdf0e5b429d" x="326.030641" y="109.693126" style="fill: #800000; stroke: #800000; stroke-linejoin: miter"/>
     <use xlink:href="#mdf0e5b429d" x="334.129629" y="109.124689" style="fill: #800000; stroke: #800000; stroke-linejoin: miter"/>
     <use xlink:href="#mdf0e5b429d" x="342.228616" y="107.348637" style="fill: #800000; stroke: #800000; stroke-linejoin: miter"/>
     <use xlink:href="#mdf0e5b429d" x="358.426592" y="105.818873" style="fill: #800000; stroke: #800000; stroke-linejoin: miter"/>
     <use xlink:href="#mdf0e5b429d" x="374.624567" y="104.172444" style="fill: #800000; stroke: #800000; stroke-linejoin: miter"/>
     <use xlink:href="#mdf0e5b429d" x="390.822542" y="102.876933" style="fill: #800000; stroke: #800000; stroke-linejoin: miter"/>
     <use xlink:href="#mdf0e5b429d" x="407.020517" y="101.846832" style="fill: #800000; stroke: #800000; stroke-linejoin: miter"/>
     <use xlink:href="#mdf0e5b429d" x="423.218493" y="100.708733" style="fill: #800000; stroke: #800000; stroke-linejoin: miter"/>
    </g>
   </g>
   <g id="line2d_69">
    <path d="M 261.23874 27.336819 
L 262.858538 30.808683 
L 264.478335 34.280547 
L 266.098133 37.75241 
L 267.71793 41.224274 
L 269.337728 44.696138 
L 270.957525 48.168002 
L 272.577323 51.639866 
L 274.19712 55.111729 
L 275.816918 58.583593 
L 277.436715 62.055457 
L 279.056513 65.527321 
L 280.67631 68.999185 
L 282.296108 72.471048 
L 283.915906 75.942912 
L 285.535703 79.414776 
L 287.155501 82.88664 
L 288.775298 86.358504 
L 290.395096 89.830367 
L 292.014893 93.302231 
L 293.634691 96.774095 
L 295.254488 100.245959 
L 296.874286 103.717822 
L 298.494083 107.189686 
L 300.113881 110.66155 
L 301.733678 114.133414 
L 303.353476 117.605278 
L 304.973273 121.077141 
L 306.593071 124.549005 
L 308.212868 128.020869 
L 309.832666 131.492733 
L 311.452463 134.964597 
L 313.072261 138.43646 
L 314.692058 141.908324 
L 316.311856 145.380188 
L 317.931654 148.852052 
L 319.551451 152.323916 
L 321.171249 155.795779 
L 322.791046 159.267643 
L 324.028558 161.920118 
" clip-path="url(#pd6b4093eb5)" style="fill: none; stroke: #808000; stroke-opacity: 0.3; stroke-width: 1.5; stroke-linecap: square"/>
   </g>
   <g id="line2d_70">
    <path d="M 271.088695 161.920118 
L 272.577323 143.708146 
L 274.19712 137.581621 
L 275.816918 133.839107 
L 277.436715 131.136647 
L 279.056513 129.020139 
L 280.67631 127.28022 
L 282.296108 125.802905 
L 283.915906 124.519222 
L 285.535703 123.384244 
L 287.155501 122.367068 
L 288.775298 121.445523 
L 290.395096 120.603162 
L 292.014893 119.827449 
L 293.634691 119.108604 
L 295.254488 118.438857 
L 296.874286 117.811928 
L 298.494083 117.222669 
L 300.113881 116.666808 
L 301.733678 116.140762 
L 303.353476 115.641495 
L 304.973273 115.166412 
L 306.593071 114.713278 
L 308.212868 114.280153 
L 309.832666 113.865346 
L 311.452463 113.467369 
L 313.072261 113.084911 
L 314.692058 112.716805 
L 316.311856 112.362014 
L 317.931654 112.019608 
L 319.551451 111.688751 
L 321.171249 111.36869 
L 322.791046 111.058742 
L 324.410844 110.758287 
L 326.030641 110.466762 
L 327.650439 110.183651 
L 329.270236 109.908482 
L 330.890034 109.640821 
L 332.509831 109.38027 
L 334.129629 109.12646 
L 335.749426 108.879052 
L 337.369224 108.63773 
L 338.989021 108.402203 
L 340.608819 108.172197 
L 342.228616 107.947462 
L 343.848414 107.727759 
L 345.468211 107.51287 
L 347.088009 107.302587 
L 348.707807 107.096717 
L 350.327604 106.895079 
L 351.947402 106.697502 
L 353.567199 106.503825 
L 355.186997 106.313899 
L 356.806794 106.12758 
L 358.426592 105.944734 
L 360.046389 105.765234 
L 361.666187 105.588959 
L 363.285984 105.415796 
L 364.905782 105.245636 
L 366.525579 105.078378 
L 368.145377 104.913924 
L 369.765174 104.752181 
L 371.384972 104.593062 
L 373.004769 104.436483 
L 374.624567 104.282364 
L 376.244364 104.130628 
L 377.864162 103.981204 
L 379.48396 103.834022 
L 381.103757 103.689015 
L 382.723555 103.546121 
L 384.343352 103.405278 
L 385.96315 103.266429 
L 387.582947 103.129517 
L 389.202745 102.99449 
L 390.822542 102.861297 
L 392.44234 102.729887 
L 394.062137 102.600215 
L 395.681935 102.472235 
L 397.301732 102.345902 
L 398.92153 102.221176 
L 400.541327 102.098016 
L 402.161125 101.976383 
L 403.780922 101.856239 
L 405.40072 101.737549 
L 407.020517 101.620278 
L 408.640315 101.504393 
L 410.260112 101.38986 
L 411.87991 101.276649 
L 413.499708 101.16473 
L 415.119505 101.054073 
L 416.739303 100.944651 
L 418.3591 100.836435 
L 419.978898 100.7294 
L 421.598695 100.623521 
L 423.218493 100.518772 
" clip-path="url(#pd6b4093eb5)" style="fill: none; stroke: #800000; stroke-opacity: 0.4; stroke-width: 1.5; stroke-linecap: square"/>
   </g>
   <g id="line2d_71">
    <path d="M 261.23874 27.33717 
L 262.858538 30.809097 
L 264.478335 34.281015 
L 266.098133 37.752904 
L 267.71793 41.224731 
L 269.337728 44.696436 
L 270.957525 48.167925 
L 272.577323 51.639042 
L 274.19712 55.109539 
L 275.816918 58.579023 
L 277.436715 62.046883 
L 279.056513 65.512169 
L 280.67631 68.973425 
L 282.296108 72.428422 
L 283.915906 75.873789 
L 285.535703 79.304455 
L 287.155501 82.712867 
L 288.775298 86.087901 
L 290.395096 89.413433 
L 292.014893 92.666569 
L 293.634691 95.815768 
L 295.254488 98.819394 
L 296.874286 101.625748 
L 298.494083 104.176093 
L 300.113881 106.411921 
L 301.733678 108.286098 
L 303.353476 109.774593 
L 304.973273 110.883446 
L 306.593071 111.647125 
L 308.212868 112.119214 
L 309.832666 112.36031 
L 311.452463 112.428031 
L 313.072261 112.371333 
L 314.692058 112.228731 
L 316.311856 112.028947 
L 317.931654 111.792606 
L 319.551451 111.534123 
L 321.171249 111.26337 
L 322.791046 110.98699 
L 324.410844 110.709385 
L 326.030641 110.433415 
L 327.650439 110.160897 
L 329.270236 109.892946 
L 330.890034 109.630207 
L 332.509831 109.373014 
L 334.129629 109.121496 
L 335.749426 108.875654 
L 337.369224 108.635403 
L 338.989021 108.400608 
L 340.608819 108.171104 
L 342.228616 107.946711 
L 343.848414 107.727244 
L 345.468211 107.512516 
L 347.088009 107.302344 
L 348.707807 107.09655 
L 350.327604 106.894964 
L 351.947402 106.697423 
L 353.567199 106.503771 
L 355.186997 106.313862 
L 356.806794 106.127554 
L 358.426592 105.944716 
L 360.046389 105.765222 
L 361.666187 105.588951 
L 363.285984 105.41579 
L 364.905782 105.245632 
L 366.525579 105.078375 
L 368.145377 104.913922 
L 369.765174 104.75218 
L 371.384972 104.593061 
L 373.004769 104.436482 
L 374.624567 104.282363 
L 376.244364 104.130628 
L 377.864162 103.981204 
L 379.48396 103.834022 
L 381.103757 103.689015 
L 382.723555 103.546121 
L 384.343352 103.405278 
L 385.96315 103.266429 
L 387.582947 103.129517 
L 389.202745 102.99449 
L 390.822542 102.861297 
L 392.44234 102.729887 
L 394.062137 102.600215 
L 395.681935 102.472235 
L 397.301732 102.345902 
L 398.92153 102.221176 
L 400.541327 102.098016 
L 402.161125 101.976383 
L 403.780922 101.856239 
L 405.40072 101.737549 
L 407.020517 101.620278 
L 408.640315 101.504393 
L 410.260112 101.38986 
L 411.87991 101.276649 
L 413.499708 101.16473 
L 415.119505 101.054073 
L 416.739303 100.944651 
L 418.3591 100.836435 
L 419.978898 100.7294 
L 421.598695 100.623521 
L 423.218493 100.518772 
" clip-path="url(#pd6b4093eb5)" style="fill: none; stroke: #000080; stroke-opacity: 0.4; stroke-width: 1.5; stroke-linecap: square"/>
   </g>
   <g id="patch_8">
    <path d="M 261.23874 129.032618 
L 261.23874 9.9775 
" style="fill: none; stroke: #000000; stroke-width: 0.8; stroke-linejoin: miter; stroke-linecap: square"/>
   </g>
   <g id="patch_9">
    <path d="M 431.31748 129.032618 
L 431.31748 9.9775 
" style="fill: none; stroke: #000000; stroke-width: 0.8; stroke-linejoin: miter; stroke-linecap: square"/>
   </g>
   <g id="patch_10">
    <path d="M 261.23874 129.032618 
L 431.31748 129.032618 
" style="fill: none; stroke: #000000; stroke-width: 0.8; stroke-linejoin: miter; stroke-linecap: square"/>
   </g>
   <g id="patch_11">
    <path d="M 261.23874 9.9775 
L 431.31748 9.9775 
" style="fill: none; stroke: #000000; stroke-width: 0.8; stroke-linejoin: miter; stroke-linecap: square"/>
   </g>
   <g id="legend_1">
    <g id="patch_12">
     <path d="M 316.58998 72.41625 
L 425.71748 72.41625 
Q 427.31748 72.41625 427.31748 70.81625 
L 427.31748 15.5775 
Q 427.31748 13.9775 425.71748 13.9775 
L 316.58998 13.9775 
Q 314.98998 13.9775 314.98998 15.5775 
L 314.98998 70.81625 
Q 314.98998 72.41625 316.58998 72.41625 
z
" style="fill: #ffffff; opacity: 0.8; stroke: #cccccc; stroke-linejoin: miter"/>
    </g>
    <g id="line2d_72">
     <g>
      <use xlink:href="#mbf081677c6" x="326.18998" y="19.9775" style="fill: #808000; stroke: #808000; stroke-linejoin: miter"/>
     </g>
    </g>
    <g id="text_24">
     <text style="font: 8px 'Carlito', sans-serif; text-anchor: start" x="340.58998" y="22.7775" transform="rotate(-0 340.58998 22.7775)">propagation failure</text>
    </g>
    <g id="line2d_73">
     <g>
      <use xlink:href="#mdf0e5b429d" x="326.18998" y="30.9525" style="fill: #800000; stroke: #800000; stroke-linejoin: miter"/>
     </g>
    </g>
    <g id="text_25">
     <text style="font: 8px 'Carlito', sans-serif; text-anchor: start" x="340.58998" y="33.7525" transform="rotate(-0 340.58998 33.7525)">additional front spawning</text>
    </g>
    <g id="line2d_74">
     <path d="M 318.18998 42.2475 
L 326.18998 42.2475 
L 334.18998 42.2475 
" style="fill: none; stroke: #808000; stroke-opacity: 0.3; stroke-width: 1.5; stroke-linecap: square"/>
    </g>
    <g id="text_26">
     <!-- $\lambda_f=\exp(\alpha W + \beta)$ -->
     <g transform="translate(340.58998 45.0475)">
      <text>
       <tspan style="font: italic 8px 'Carlito'" x="0 26.193359 30.712891 44.349609" y="-0.140625">λαWβ</tspan>
       <tspan style="font: italic 5.6px 'Carlito'" x="3.703125" y="1.0078125">f</tspan>
       <tspan style="font: 8px 'Carlito'" x="6.869141 12.119141 16.099609 19.564453 23.767578 39.099609 48.572266" y="-0.140625">=exp(+)</tspan>
      </text>
     </g>
    </g>
    <g id="line2d_75">
     <path d="M 318.18998 53.6875 
L 326.18998 53.6875 
L 334.18998 53.6875 
" style="fill: none; stroke: #800000; stroke-opacity: 0.4; stroke-width: 1.5; stroke-linecap: square"/>
    </g>
    <g id="text_27">
     <!-- $\lambda_s=a W + b$ -->
     <g transform="translate(340.58998 56.4875)">
      <text>
       <tspan style="font: italic 8px 'Carlito'" x="0 12.589453 16.702734 30.339453" y="-0.4375">λaWb</tspan>
       <tspan style="font: italic 5.6px 'Carlito'" x="3.703125" y="0.7109375">s</tspan>
       <tspan style="font: 8px 'Carlito'" x="7.339453 25.089453" y="-0.4375">=+</tspan>
      </text>
     </g>
    </g>
    <g id="line2d_76">
     <path d="M 318.18998 64.57625 
L 326.18998 64.57625 
L 334.18998 64.57625 
" style="fill: none; stroke: #000080; stroke-opacity: 0.4; stroke-width: 1.5; stroke-linecap: square"/>
    </g>
    <g id="text_28">
     <!-- $\lambda_tot = \lambda_f + \lambda_s$ -->
     <g transform="translate(340.58998 67.37625)">
      <text>
       <tspan style="font: italic 8px 'Carlito'" x="0 5.770313 9.875781 19.071094 31.190234" y="-0.546875">λotλλ</tspan>
       <tspan style="font: italic 5.6px 'Carlito'" x="3.703125 22.774219 34.893359" y="0.6015625">tfs</tspan>
       <tspan style="font: 8px 'Carlito'" x="13.821094 25.940234" y="-0.546875">=+</tspan>
      </text>
     </g>
    </g>
   </g>
  </g>
 </g>
 <defs>
  <clipPath id="pddbc316a4c">
   <rect x="47.96" y="9.9775" width="170.07874" height="119.055118"/>
  </clipPath>
  <clipPath id="pd6b4093eb5">
   <rect x="261.23874" y="9.9775" width="170.07874" height="119.055118"/>
  </clipPath>
 </defs>
</svg>
