<?xml version="1.0" encoding="utf-8" standalone="no"?>
<!DOCTYPE svg PUBLIC "-//W3C//DTD SVG 1.1//EN"
  "http://www.w3.org/Graphics/SVG/1.1/DTD/svg11.dtd">
<svg xmlns:xlink="http://www.w3.org/1999/xlink" width="442.03748pt" height="161.138243pt" viewBox="0 0 442.03748 161.138243" xmlns="http://www.w3.org/2000/svg" version="1.1">
 <metadata>
  <rdf:RDF xmlns:dc="http://purl.org/dc/elements/1.1/" xmlns:cc="http://creativecommons.org/ns#" xmlns:rdf="http://www.w3.org/1999/02/22-rdf-syntax-ns#">
   <cc:Work>
    <dc:type rdf:resource="http://purl.org/dc/dcmitype/StillImage"/>
    <dc:date>2023-11-30T09:11:37.229361</dc:date>
    <dc:format>image/svg+xml</dc:format>
    <dc:creator>
     <cc:Agent>
      <dc:title>Matplotlib v3.8.0, https://matplotlib.org/</dc:title>
     </cc:Agent>
    </dc:creator>
   </cc:Work>
  </rdf:RDF>
 </metadata>
 <defs>
  <style type="text/css">*{stroke-linejoin: round; stroke-linecap: butt}</style>
 </defs>
 <g id="figure_1">
  <g id="patch_1">
   <path d="M 0 161.138243 
L 442.03748 161.138243 
L 442.03748 0 
L 0 0 
z
" style="fill: #ffffff"/>
  </g>
  <g id="axes_1">
   <g id="patch_2">
    <path d="M 51.48 129.250743 
L 221.55874 129.250743 
L 221.55874 10.195625 
L 51.48 10.195625 
z
" style="fill: #ffffff"/>
   </g>
   <g id="matplotlib.axis_1">
    <g id="xtick_1">
     <g id="line2d_1">
      <defs>
       <path id="m9bfbffb8d9" d="M 0 0 
L 0 3.5 
" style="stroke: #000000; stroke-width: 0.8"/>
      </defs>
      <g>
       <use xlink:href="#m9bfbffb8d9" x="51.48" y="129.250743" style="stroke: #000000; stroke-width: 0.8"/>
      </g>
     </g>
     <g id="text_1">
      <text style="font: 8px 'Carlito', sans-serif; text-anchor: middle" x="51.48" y="141.805743" transform="rotate(-0 51.48 141.805743)">0</text>
     </g>
    </g>
    <g id="xtick_2">
     <g id="line2d_2">
      <g>
       <use xlink:href="#m9bfbffb8d9" x="91.974938" y="129.250743" style="stroke: #000000; stroke-width: 0.8"/>
      </g>
     </g>
     <g id="text_2">
      <text style="font: 8px 'Carlito', sans-serif; text-anchor: middle" x="91.974938" y="141.805743" transform="rotate(-0 91.974938 141.805743)">5</text>
     </g>
    </g>
    <g id="xtick_3">
     <g id="line2d_3">
      <g>
       <use xlink:href="#m9bfbffb8d9" x="132.469876" y="129.250743" style="stroke: #000000; stroke-width: 0.8"/>
      </g>
     </g>
     <g id="text_3">
      <text style="font: 8px 'Carlito', sans-serif; text-anchor: middle" x="132.469876" y="141.805743" transform="rotate(-0 132.469876 141.805743)">10</text>
     </g>
    </g>
    <g id="xtick_4">
     <g id="line2d_4">
      <g>
       <use xlink:href="#m9bfbffb8d9" x="172.964814" y="129.250743" style="stroke: #000000; stroke-width: 0.8"/>
      </g>
     </g>
     <g id="text_4">
      <text style="font: 8px 'Carlito', sans-serif; text-anchor: middle" x="172.964814" y="141.805743" transform="rotate(-0 172.964814 141.805743)">15</text>
     </g>
    </g>
    <g id="xtick_5">
     <g id="line2d_5">
      <g>
       <use xlink:href="#m9bfbffb8d9" x="213.459753" y="129.250743" style="stroke: #000000; stroke-width: 0.8"/>
      </g>
     </g>
     <g id="text_5">
      <text style="font: 8px 'Carlito', sans-serif; text-anchor: middle" x="213.459753" y="141.805743" transform="rotate(-0 213.459753 141.805743)">20</text>
     </g>
    </g>
    <g id="text_6">
     <text style="font: 8px 'Carlito', sans-serif; text-anchor: middle" x="136.51937" y="152.649493" transform="rotate(-0 136.51937 152.649493)">channel width</text>
    </g>
   </g>
   <g id="matplotlib.axis_2">
    <g id="ytick_1">
     <g id="line2d_6">
      <defs>
       <path id="mf50b47360e" d="M 0 0 
L -3.5 0 
" style="stroke: #000000; stroke-width: 0.8"/>
      </defs>
      <g>
       <use xlink:href="#mf50b47360e" x="51.48" y="129.250743" style="stroke: #000000; stroke-width: 0.8"/>
      </g>
     </g>
     <g id="text_7">
      <!-- 0×10$^{-4}$ -->
      <g transform="translate(19.76 132.246368)">
       <text>
        <tspan style="font: 8px 'Carlito'" x="0 4.054688 8.039062 12.09375" y="-0.8578125000000005">0×10</tspan>
        <tspan style="font: 5.6px 'DejaVu Sans'" x="16.225 20.917188" y="-3.9203125000000005">−4</tspan>
       </text>
      </g>
     </g>
    </g>
    <g id="ytick_2">
     <g id="line2d_7">
      <g>
       <use xlink:href="#mf50b47360e" x="51.48" y="89.565704" style="stroke: #000000; stroke-width: 0.8"/>
      </g>
     </g>
     <g id="text_8">
      <!-- 2×10$^{-4}$ -->
      <g transform="translate(19.76 92.561329)">
       <text>
        <tspan style="font: 8px 'Carlito'" x="0 4.054688 8.039062 12.09375" y="-0.8578125000000005">2×10</tspan>
        <tspan style="font: 5.6px 'DejaVu Sans'" x="16.225 20.917188" y="-3.9203125000000005">−4</tspan>
       </text>
      </g>
     </g>
    </g>
    <g id="ytick_3">
     <g id="line2d_8">
      <g>
       <use xlink:href="#mf50b47360e" x="51.48" y="49.880664" style="stroke: #000000; stroke-width: 0.8"/>
      </g>
     </g>
     <g id="text_9">
      <!-- 4×10$^{-4}$ -->
      <g transform="translate(19.76 52.876289)">
       <text>
        <tspan style="font: 8px 'Carlito'" x="0 4.054688 8.039062 12.09375" y="-0.8578125000000005">4×10</tspan>
        <tspan style="font: 5.6px 'DejaVu Sans'" x="16.225 20.917188" y="-3.9203125000000005">−4</tspan>
       </text>
      </g>
     </g>
    </g>
    <g id="ytick_4">
     <g id="line2d_9">
      <g>
       <use xlink:href="#mf50b47360e" x="51.48" y="10.195625" style="stroke: #000000; stroke-width: 0.8"/>
      </g>
     </g>
     <g id="text_10">
      <!-- 6×10$^{-4}$ -->
      <g transform="translate(19.76 13.19125)">
       <text>
        <tspan style="font: 8px 'Carlito'" x="0 4.054688 8.039062 12.09375" y="-0.8578125000000005">6×10</tspan>
        <tspan style="font: 5.6px 'DejaVu Sans'" x="16.225 20.917188" y="-3.9203125000000005">−4</tspan>
       </text>
      </g>
     </g>
    </g>
    <g id="text_11">
     <!-- propensity [step$^{-1}$] -->
     <g transform="translate(14.4 101.803184) rotate(-90)">
      <text>
       <tspan style="font: 8px 'Carlito'" x="0 4.203125 6.992188 11.210938 15.414062 19.394531 23.597656 26.726562 28.5625 31.242188 34.863281 36.671875 39.125 42.253906 44.933594 48.914062 61.667578" y="-0.8578125000000005">propensity [step]</tspan>
       <tspan style="font: 5.6px 'DejaVu Sans'" x="53.19375 57.885938" y="-3.9203125000000005">−1</tspan>
      </text>
     </g>
    </g>
   </g>
   <g id="line2d_10">
    <defs>
     <path id="m70b8a58df3" d="M -3 3 
L 3 3 
L 3 -3 
L -3 -3 
z
" style="stroke: #808000; stroke-linejoin: miter"/>
    </defs>
    <g clip-path="url(#p65b0994e0c)">
     <use xlink:href="#m70b8a58df3" x="83.232939" y="-1" style="fill: #808000; stroke: #808000; stroke-linejoin: miter"/>
     <use xlink:href="#m70b8a58df3" x="83.875951" y="33.216692" style="fill: #808000; stroke: #808000; stroke-linejoin: miter"/>
     <use xlink:href="#m70b8a58df3" x="91.974938" y="110.078315" style="fill: #808000; stroke: #808000; stroke-linejoin: miter"/>
     <use xlink:href="#m70b8a58df3" x="100.073926" y="124.339224" style="fill: #808000; stroke: #808000; stroke-linejoin: miter"/>
     <use xlink:href="#m70b8a58df3" x="108.172913" y="127.066208" style="fill: #808000; stroke: #808000; stroke-linejoin: miter"/>
    </g>
   </g>
   <g id="line2d_11">
    <defs>
     <path id="md3f5ff7e53" d="M 0 -3 
L -3 3 
L 3 3 
z
" style="stroke: #800000; stroke-linejoin: miter"/>
    </defs>
    <g clip-path="url(#p65b0994e0c)">
     <use xlink:href="#md3f5ff7e53" x="59.578988" y="129.250743" style="fill: #800000; stroke: #800000; stroke-linejoin: miter"/>
     <use xlink:href="#md3f5ff7e53" x="67.677975" y="128.594975" style="fill: #800000; stroke: #800000; stroke-linejoin: miter"/>
     <use xlink:href="#md3f5ff7e53" x="75.776963" y="124.84471" style="fill: #800000; stroke: #800000; stroke-linejoin: miter"/>
     <use xlink:href="#md3f5ff7e53" x="83.875951" y="119.347606" style="fill: #800000; stroke: #800000; stroke-linejoin: miter"/>
     <use xlink:href="#md3f5ff7e53" x="91.974938" y="114.117004" style="fill: #800000; stroke: #800000; stroke-linejoin: miter"/>
     <use xlink:href="#md3f5ff7e53" x="100.073926" y="109.965145" style="fill: #800000; stroke: #800000; stroke-linejoin: miter"/>
     <use xlink:href="#md3f5ff7e53" x="108.172913" y="105.873965" style="fill: #800000; stroke: #800000; stroke-linejoin: miter"/>
     <use xlink:href="#md3f5ff7e53" x="116.271901" y="101.282611" style="fill: #800000; stroke: #800000; stroke-linejoin: miter"/>
     <use xlink:href="#md3f5ff7e53" x="124.370889" y="99.74223" style="fill: #800000; stroke: #800000; stroke-linejoin: miter"/>
     <use xlink:href="#md3f5ff7e53" x="132.469876" y="93.864468" style="fill: #800000; stroke: #800000; stroke-linejoin: miter"/>
     <use xlink:href="#md3f5ff7e53" x="148.667852" y="88.003349" style="fill: #800000; stroke: #800000; stroke-linejoin: miter"/>
     <use xlink:href="#md3f5ff7e53" x="164.865827" y="80.714275" style="fill: #800000; stroke: #800000; stroke-linejoin: miter"/>
     <use xlink:href="#md3f5ff7e53" x="181.063802" y="73.819706" style="fill: #800000; stroke: #800000; stroke-linejoin: miter"/>
     <use xlink:href="#md3f5ff7e53" x="197.261777" y="68.447311" style="fill: #800000; stroke: #800000; stroke-linejoin: miter"/>
     <use xlink:href="#md3f5ff7e53" x="213.459753" y="61.243377" style="fill: #800000; stroke: #800000; stroke-linejoin: miter"/>
    </g>
   </g>
   <g id="line2d_12">
    <path d="M 83.389622 -1 
L 83.875951 13.303941 
L 85.495748 47.070994 
L 87.115546 71.004107 
L 88.735343 87.967208 
L 90.355141 99.990164 
L 91.974938 108.511689 
L 93.594736 114.5515 
L 95.214533 118.832343 
L 96.834331 121.866482 
L 98.454128 124.016992 
L 100.073926 125.541211 
L 101.693723 126.621534 
L 103.313521 127.387235 
L 104.933318 127.929943 
L 106.553116 128.314598 
L 108.172913 128.58723 
L 109.792711 128.780464 
L 111.412508 128.917423 
L 113.032306 129.014496 
L 114.652103 129.083298 
L 116.271901 129.132063 
L 117.891699 129.166626 
L 119.511496 129.191123 
L 121.131294 129.208486 
L 122.751091 129.220793 
L 124.370889 129.229515 
L 125.990686 129.235697 
L 127.610484 129.240079 
L 129.230281 129.243185 
L 130.850079 129.245386 
L 132.469876 129.246946 
L 134.089674 129.248052 
L 135.709471 129.248836 
L 137.329269 129.249391 
L 138.949066 129.249785 
L 140.568864 129.250064 
L 142.188661 129.250262 
L 143.808459 129.250402 
L 145.428256 129.250501 
L 147.048054 129.250572 
L 148.667852 129.250622 
L 150.287649 129.250657 
L 151.907447 129.250682 
L 153.527244 129.2507 
L 155.147042 129.250712 
L 156.766839 129.250721 
L 158.386637 129.250728 
L 160.006434 129.250732 
L 161.626232 129.250735 
L 163.246029 129.250738 
L 164.865827 129.250739 
L 166.485624 129.25074 
L 168.105422 129.250741 
L 169.725219 129.250742 
L 171.345017 129.250742 
L 172.964814 129.250742 
L 174.584612 129.250743 
L 176.204409 129.250743 
L 177.824207 129.250743 
L 179.444004 129.250743 
L 181.063802 129.250743 
L 182.6836 129.250743 
L 184.303397 129.250743 
L 185.923195 129.250743 
L 187.542992 129.250743 
L 189.16279 129.250743 
L 190.782587 129.250743 
L 192.402385 129.250743 
L 194.022182 129.250743 
L 195.64198 129.250743 
L 197.261777 129.250743 
L 198.881575 129.250743 
L 200.501372 129.250743 
L 202.12117 129.250743 
L 203.740967 129.250743 
L 205.360765 129.250743 
L 206.980562 129.250743 
L 208.60036 129.250743 
L 210.220157 129.250743 
L 211.839955 129.250743 
L 213.459753 129.250743 
" clip-path="url(#p65b0994e0c)" style="fill: none; stroke: #808000; stroke-opacity: 0.3; stroke-width: 1.5; stroke-linecap: square"/>
   </g>
   <g id="line2d_13">
    <path d="M 51.48 133.212925 
L 53.099798 132.473544 
L 54.719595 131.734162 
L 56.339393 130.994781 
L 57.95919 130.2554 
L 59.578988 129.516018 
L 61.198785 128.776637 
L 62.818583 128.037256 
L 64.43838 127.297874 
L 66.058178 126.558493 
L 67.677975 125.819112 
L 69.297773 125.07973 
L 70.91757 124.340349 
L 72.537368 123.600968 
L 74.157165 122.861586 
L 75.776963 122.122205 
L 77.39676 121.382824 
L 79.016558 120.643442 
L 80.636355 119.904061 
L 82.256153 119.16468 
L 83.875951 118.425298 
L 85.495748 117.685917 
L 87.115546 116.946536 
L 88.735343 116.207154 
L 90.355141 115.467773 
L 91.974938 114.728392 
L 93.594736 113.98901 
L 95.214533 113.249629 
L 96.834331 112.510248 
L 98.454128 111.770866 
L 100.073926 111.031485 
L 101.693723 110.292104 
L 103.313521 109.552722 
L 104.933318 108.813341 
L 106.553116 108.07396 
L 108.172913 107.334578 
L 109.792711 106.595197 
L 111.412508 105.855816 
L 113.032306 105.116434 
L 114.652103 104.377053 
L 116.271901 103.637672 
L 117.891699 102.89829 
L 119.511496 102.158909 
L 121.131294 101.419528 
L 122.751091 100.680146 
L 124.370889 99.940765 
L 125.990686 99.201384 
L 127.610484 98.462002 
L 129.230281 97.722621 
L 130.850079 96.98324 
L 132.469876 96.243858 
L 134.089674 95.504477 
L 135.709471 94.765096 
L 137.329269 94.025714 
L 138.949066 93.286333 
L 140.568864 92.546952 
L 142.188661 91.80757 
L 143.808459 91.068189 
L 145.428256 90.328808 
L 147.048054 89.589426 
L 148.667852 88.850045 
L 150.287649 88.110664 
L 151.907447 87.371282 
L 153.527244 86.631901 
L 155.147042 85.89252 
L 156.766839 85.153138 
L 158.386637 84.413757 
L 160.006434 83.674376 
L 161.626232 82.934994 
L 163.246029 82.195613 
L 164.865827 81.456232 
L 166.485624 80.71685 
L 168.105422 79.977469 
L 169.725219 79.238088 
L 171.345017 78.498706 
L 172.964814 77.759325 
L 174.584612 77.019944 
L 176.204409 76.280562 
L 177.824207 75.541181 
L 179.444004 74.8018 
L 181.063802 74.062418 
L 182.6836 73.323037 
L 184.303397 72.583656 
L 185.923195 71.844274 
L 187.542992 71.104893 
L 189.16279 70.365512 
L 190.782587 69.62613 
L 192.402385 68.886749 
L 194.022182 68.147368 
L 195.64198 67.407986 
L 197.261777 66.668605 
L 198.881575 65.929224 
L 200.501372 65.189842 
L 202.12117 64.450461 
L 203.740967 63.71108 
L 205.360765 62.971698 
L 206.980562 62.232317 
L 208.60036 61.492936 
L 210.220157 60.753554 
L 211.839955 60.014173 
L 213.459753 59.274792 
" clip-path="url(#p65b0994e0c)" style="fill: none; stroke: #800000; stroke-opacity: 0.4; stroke-width: 1.5; stroke-linecap: square"/>
   </g>
   <g id="line2d_14">
    <path d="M 83.755819 -1 
L 83.875951 2.478496 
L 85.495748 35.506168 
L 87.115546 58.6999 
L 88.735343 74.923619 
L 90.355141 86.207194 
L 91.974938 93.989337 
L 93.594736 99.289767 
L 95.214533 102.831229 
L 96.834331 105.125987 
L 98.454128 106.537115 
L 100.073926 107.321953 
L 101.693723 107.662894 
L 103.313521 107.689215 
L 104.933318 107.492541 
L 106.553116 107.137814 
L 108.172913 106.671066 
L 109.792711 106.124918 
L 111.412508 105.522496 
L 113.032306 104.880187 
L 114.652103 104.209608 
L 116.271901 103.518991 
L 117.891699 102.814173 
L 119.511496 102.099289 
L 121.131294 101.377271 
L 122.751091 100.650196 
L 124.370889 99.919537 
L 125.990686 99.186338 
L 127.610484 98.451338 
L 129.230281 97.715063 
L 130.850079 96.977883 
L 132.469876 96.240061 
L 134.089674 95.501786 
L 135.709471 94.763188 
L 137.329269 94.024363 
L 138.949066 93.285375 
L 140.568864 92.546273 
L 142.188661 91.807089 
L 143.808459 91.067848 
L 145.428256 90.328566 
L 147.048054 89.589255 
L 148.667852 88.849924 
L 150.287649 88.110578 
L 151.907447 87.371221 
L 153.527244 86.631858 
L 155.147042 85.892489 
L 156.766839 85.153117 
L 158.386637 84.413742 
L 160.006434 83.674365 
L 161.626232 82.934987 
L 163.246029 82.195608 
L 164.865827 81.456228 
L 166.485624 80.716848 
L 168.105422 79.977467 
L 169.725219 79.238086 
L 171.345017 78.498705 
L 172.964814 77.759324 
L 174.584612 77.019943 
L 176.204409 76.280562 
L 177.824207 75.541181 
L 179.444004 74.8018 
L 181.063802 74.062418 
L 182.6836 73.323037 
L 184.303397 72.583656 
L 185.923195 71.844274 
L 187.542992 71.104893 
L 189.16279 70.365512 
L 190.782587 69.62613 
L 192.402385 68.886749 
L 194.022182 68.147368 
L 195.64198 67.407986 
L 197.261777 66.668605 
L 198.881575 65.929224 
L 200.501372 65.189842 
L 202.12117 64.450461 
L 203.740967 63.71108 
L 205.360765 62.971698 
L 206.980562 62.232317 
L 208.60036 61.492936 
L 210.220157 60.753554 
L 211.839955 60.014173 
L 213.459753 59.274792 
" clip-path="url(#p65b0994e0c)" style="fill: none; stroke: #000080; stroke-opacity: 0.4; stroke-width: 1.5; stroke-linecap: square"/>
   </g>
   <g id="patch_3">
    <path d="M 51.48 129.250743 
L 51.48 10.195625 
" style="fill: none; stroke: #000000; stroke-width: 0.8; stroke-linejoin: miter; stroke-linecap: square"/>
   </g>
   <g id="patch_4">
    <path d="M 221.55874 129.250743 
L 221.55874 10.195625 
" style="fill: none; stroke: #000000; stroke-width: 0.8; stroke-linejoin: miter; stroke-linecap: square"/>
   </g>
   <g id="patch_5">
    <path d="M 51.48 129.250743 
L 221.55874 129.250743 
" style="fill: none; stroke: #000000; stroke-width: 0.8; stroke-linejoin: miter; stroke-linecap: square"/>
   </g>
   <g id="patch_6">
    <path d="M 51.48 10.195625 
L 221.55874 10.195625 
" style="fill: none; stroke: #000000; stroke-width: 0.8; stroke-linejoin: miter; stroke-linecap: square"/>
   </g>
  </g>
  <g id="axes_2">
   <g id="patch_7">
    <path d="M 264.75874 129.250743 
L 434.83748 129.250743 
L 434.83748 10.195625 
L 264.75874 10.195625 
z
" style="fill: #ffffff"/>
   </g>
   <g id="matplotlib.axis_3">
    <g id="xtick_6">
     <g id="line2d_15">
      <g>
       <use xlink:href="#m9bfbffb8d9" x="264.75874" y="129.250743" style="stroke: #000000; stroke-width: 0.8"/>
      </g>
     </g>
     <g id="text_12">
      <text style="font: 8px 'Carlito', sans-serif; text-anchor: middle" x="264.75874" y="141.805743" transform="rotate(-0 264.75874 141.805743)">0</text>
     </g>
    </g>
    <g id="xtick_7">
     <g id="line2d_16">
      <g>
       <use xlink:href="#m9bfbffb8d9" x="305.253678" y="129.250743" style="stroke: #000000; stroke-width: 0.8"/>
      </g>
     </g>
     <g id="text_13">
      <text style="font: 8px 'Carlito', sans-serif; text-anchor: middle" x="305.253678" y="141.805743" transform="rotate(-0 305.253678 141.805743)">5</text>
     </g>
    </g>
    <g id="xtick_8">
     <g id="line2d_17">
      <g>
       <use xlink:href="#m9bfbffb8d9" x="345.748616" y="129.250743" style="stroke: #000000; stroke-width: 0.8"/>
      </g>
     </g>
     <g id="text_14">
      <text style="font: 8px 'Carlito', sans-serif; text-anchor: middle" x="345.748616" y="141.805743" transform="rotate(-0 345.748616 141.805743)">10</text>
     </g>
    </g>
    <g id="xtick_9">
     <g id="line2d_18">
      <g>
       <use xlink:href="#m9bfbffb8d9" x="386.243555" y="129.250743" style="stroke: #000000; stroke-width: 0.8"/>
      </g>
     </g>
     <g id="text_15">
      <text style="font: 8px 'Carlito', sans-serif; text-anchor: middle" x="386.243555" y="141.805743" transform="rotate(-0 386.243555 141.805743)">15</text>
     </g>
    </g>
    <g id="xtick_10">
     <g id="line2d_19">
      <g>
       <use xlink:href="#m9bfbffb8d9" x="426.738493" y="129.250743" style="stroke: #000000; stroke-width: 0.8"/>
      </g>
     </g>
     <g id="text_16">
      <text style="font: 8px 'Carlito', sans-serif; text-anchor: middle" x="426.738493" y="141.805743" transform="rotate(-0 426.738493 141.805743)">20</text>
     </g>
    </g>
    <g id="text_17">
     <text style="font: 8px 'Carlito', sans-serif; text-anchor: middle" x="349.79811" y="152.649493" transform="rotate(-0 349.79811 152.649493)">channel width</text>
    </g>
   </g>
   <g id="matplotlib.axis_4">
    <g id="ytick_5">
     <g id="line2d_20">
      <g>
       <use xlink:href="#mf50b47360e" x="264.75874" y="113.256844" style="stroke: #000000; stroke-width: 0.8"/>
      </g>
     </g>
     <g id="text_18">
      <!-- $\mathdefault{10^{-4}}$ -->
      <g transform="translate(243.75874 116.034344)">
       <text>
        <tspan style="font: 8px 'Carlito'" x="0 4.054688" y="-0.7218750000000007">10</tspan>
        <tspan style="font: 5.6px 'Carlito'" x="8.176367 10.96543" y="-3.4015625000000007">−4</tspan>
       </text>
      </g>
     </g>
    </g>
    <g id="ytick_6">
     <g id="line2d_21">
      <g>
       <use xlink:href="#mf50b47360e" x="264.75874" y="90.374747" style="stroke: #000000; stroke-width: 0.8"/>
      </g>
     </g>
     <g id="text_19">
      <!-- $\mathdefault{10^{-3}}$ -->
      <g transform="translate(243.75874 93.152247)">
       <text>
        <tspan style="font: 8px 'Carlito'" x="0 4.054688" y="-0.6890625000000004">10</tspan>
        <tspan style="font: 5.6px 'Carlito'" x="8.176367 10.96543" y="-3.3687500000000004">−3</tspan>
       </text>
      </g>
     </g>
    </g>
    <g id="ytick_7">
     <g id="line2d_22">
      <g>
       <use xlink:href="#mf50b47360e" x="264.75874" y="67.49265" style="stroke: #000000; stroke-width: 0.8"/>
      </g>
     </g>
     <g id="text_20">
      <!-- $\mathdefault{10^{-2}}$ -->
      <g transform="translate(243.75874 70.27015)">
       <text>
        <tspan style="font: 8px 'Carlito'" x="0 4.054688" y="-0.6890625000000004">10</tspan>
        <tspan style="font: 5.6px 'Carlito'" x="8.176367 10.96543" y="-3.3687500000000004">−2</tspan>
       </text>
      </g>
     </g>
    </g>
    <g id="ytick_8">
     <g id="line2d_23">
      <g>
       <use xlink:href="#mf50b47360e" x="264.75874" y="44.610553" style="stroke: #000000; stroke-width: 0.8"/>
      </g>
     </g>
     <g id="text_21">
      <!-- $\mathdefault{10^{-1}}$ -->
      <g transform="translate(243.75874 47.388053)">
       <text>
        <tspan style="font: 8px 'Carlito'" x="0 4.054688" y="-0.7109375">10</tspan>
        <tspan style="font: 5.6px 'Carlito'" x="8.176367 10.96543" y="-3.390625">−1</tspan>
       </text>
      </g>
     </g>
    </g>
    <g id="ytick_9">
     <g id="line2d_24">
      <g>
       <use xlink:href="#mf50b47360e" x="264.75874" y="21.728456" style="stroke: #000000; stroke-width: 0.8"/>
      </g>
     </g>
     <g id="text_22">
      <!-- $\mathdefault{10^{0}}$ -->
      <g transform="translate(246.47874 24.505956)">
       <text>
        <tspan style="font: 8px 'Carlito'" x="0 4.054688" y="-0.6890625000000004">10</tspan>
        <tspan style="font: 5.6px 'Carlito'" x="8.176367" y="-3.3687500000000004">0</tspan>
       </text>
      </g>
     </g>
    </g>
    <g id="ytick_10">
     <g id="line2d_25">
      <defs>
       <path id="m332d0a52f2" d="M 0 0 
L -2 0 
" style="stroke: #000000; stroke-width: 0.6"/>
      </defs>
      <g>
       <use xlink:href="#m332d0a52f2" x="264.75874" y="129.250743" style="stroke: #000000; stroke-width: 0.6"/>
      </g>
     </g>
    </g>
    <g id="ytick_11">
     <g id="line2d_26">
      <g>
       <use xlink:href="#m332d0a52f2" x="264.75874" y="125.221406" style="stroke: #000000; stroke-width: 0.6"/>
      </g>
     </g>
    </g>
    <g id="ytick_12">
     <g id="line2d_27">
      <g>
       <use xlink:href="#m332d0a52f2" x="264.75874" y="122.362546" style="stroke: #000000; stroke-width: 0.6"/>
      </g>
     </g>
    </g>
    <g id="ytick_13">
     <g id="line2d_28">
      <g>
       <use xlink:href="#m332d0a52f2" x="264.75874" y="120.145041" style="stroke: #000000; stroke-width: 0.6"/>
      </g>
     </g>
    </g>
    <g id="ytick_14">
     <g id="line2d_29">
      <g>
       <use xlink:href="#m332d0a52f2" x="264.75874" y="118.333208" style="stroke: #000000; stroke-width: 0.6"/>
      </g>
     </g>
    </g>
    <g id="ytick_15">
     <g id="line2d_30">
      <g>
       <use xlink:href="#m332d0a52f2" x="264.75874" y="116.801325" style="stroke: #000000; stroke-width: 0.6"/>
      </g>
     </g>
    </g>
    <g id="ytick_16">
     <g id="line2d_31">
      <g>
       <use xlink:href="#m332d0a52f2" x="264.75874" y="115.474348" style="stroke: #000000; stroke-width: 0.6"/>
      </g>
     </g>
    </g>
    <g id="ytick_17">
     <g id="line2d_32">
      <g>
       <use xlink:href="#m332d0a52f2" x="264.75874" y="114.303871" style="stroke: #000000; stroke-width: 0.6"/>
      </g>
     </g>
    </g>
    <g id="ytick_18">
     <g id="line2d_33">
      <g>
       <use xlink:href="#m332d0a52f2" x="264.75874" y="106.368646" style="stroke: #000000; stroke-width: 0.6"/>
      </g>
     </g>
    </g>
    <g id="ytick_19">
     <g id="line2d_34">
      <g>
       <use xlink:href="#m332d0a52f2" x="264.75874" y="102.339309" style="stroke: #000000; stroke-width: 0.6"/>
      </g>
     </g>
    </g>
    <g id="ytick_20">
     <g id="line2d_35">
      <g>
       <use xlink:href="#m332d0a52f2" x="264.75874" y="99.480449" style="stroke: #000000; stroke-width: 0.6"/>
      </g>
     </g>
    </g>
    <g id="ytick_21">
     <g id="line2d_36">
      <g>
       <use xlink:href="#m332d0a52f2" x="264.75874" y="97.262944" style="stroke: #000000; stroke-width: 0.6"/>
      </g>
     </g>
    </g>
    <g id="ytick_22">
     <g id="line2d_37">
      <g>
       <use xlink:href="#m332d0a52f2" x="264.75874" y="95.451111" style="stroke: #000000; stroke-width: 0.6"/>
      </g>
     </g>
    </g>
    <g id="ytick_23">
     <g id="line2d_38">
      <g>
       <use xlink:href="#m332d0a52f2" x="264.75874" y="93.919228" style="stroke: #000000; stroke-width: 0.6"/>
      </g>
     </g>
    </g>
    <g id="ytick_24">
     <g id="line2d_39">
      <g>
       <use xlink:href="#m332d0a52f2" x="264.75874" y="92.592251" style="stroke: #000000; stroke-width: 0.6"/>
      </g>
     </g>
    </g>
    <g id="ytick_25">
     <g id="line2d_40">
      <g>
       <use xlink:href="#m332d0a52f2" x="264.75874" y="91.421774" style="stroke: #000000; stroke-width: 0.6"/>
      </g>
     </g>
    </g>
    <g id="ytick_26">
     <g id="line2d_41">
      <g>
       <use xlink:href="#m332d0a52f2" x="264.75874" y="83.486549" style="stroke: #000000; stroke-width: 0.6"/>
      </g>
     </g>
    </g>
    <g id="ytick_27">
     <g id="line2d_42">
      <g>
       <use xlink:href="#m332d0a52f2" x="264.75874" y="79.457212" style="stroke: #000000; stroke-width: 0.6"/>
      </g>
     </g>
    </g>
    <g id="ytick_28">
     <g id="line2d_43">
      <g>
       <use xlink:href="#m332d0a52f2" x="264.75874" y="76.598352" style="stroke: #000000; stroke-width: 0.6"/>
      </g>
     </g>
    </g>
    <g id="ytick_29">
     <g id="line2d_44">
      <g>
       <use xlink:href="#m332d0a52f2" x="264.75874" y="74.380847" style="stroke: #000000; stroke-width: 0.6"/>
      </g>
     </g>
    </g>
    <g id="ytick_30">
     <g id="line2d_45">
      <g>
       <use xlink:href="#m332d0a52f2" x="264.75874" y="72.569014" style="stroke: #000000; stroke-width: 0.6"/>
      </g>
     </g>
    </g>
    <g id="ytick_31">
     <g id="line2d_46">
      <g>
       <use xlink:href="#m332d0a52f2" x="264.75874" y="71.037131" style="stroke: #000000; stroke-width: 0.6"/>
      </g>
     </g>
    </g>
    <g id="ytick_32">
     <g id="line2d_47">
      <g>
       <use xlink:href="#m332d0a52f2" x="264.75874" y="69.710154" style="stroke: #000000; stroke-width: 0.6"/>
      </g>
     </g>
    </g>
    <g id="ytick_33">
     <g id="line2d_48">
      <g>
       <use xlink:href="#m332d0a52f2" x="264.75874" y="68.539677" style="stroke: #000000; stroke-width: 0.6"/>
      </g>
     </g>
    </g>
    <g id="ytick_34">
     <g id="line2d_49">
      <g>
       <use xlink:href="#m332d0a52f2" x="264.75874" y="60.604452" style="stroke: #000000; stroke-width: 0.6"/>
      </g>
     </g>
    </g>
    <g id="ytick_35">
     <g id="line2d_50">
      <g>
       <use xlink:href="#m332d0a52f2" x="264.75874" y="56.575115" style="stroke: #000000; stroke-width: 0.6"/>
      </g>
     </g>
    </g>
    <g id="ytick_36">
     <g id="line2d_51">
      <g>
       <use xlink:href="#m332d0a52f2" x="264.75874" y="53.716255" style="stroke: #000000; stroke-width: 0.6"/>
      </g>
     </g>
    </g>
    <g id="ytick_37">
     <g id="line2d_52">
      <g>
       <use xlink:href="#m332d0a52f2" x="264.75874" y="51.49875" style="stroke: #000000; stroke-width: 0.6"/>
      </g>
     </g>
    </g>
    <g id="ytick_38">
     <g id="line2d_53">
      <g>
       <use xlink:href="#m332d0a52f2" x="264.75874" y="49.686917" style="stroke: #000000; stroke-width: 0.6"/>
      </g>
     </g>
    </g>
    <g id="ytick_39">
     <g id="line2d_54">
      <g>
       <use xlink:href="#m332d0a52f2" x="264.75874" y="48.155034" style="stroke: #000000; stroke-width: 0.6"/>
      </g>
     </g>
    </g>
    <g id="ytick_40">
     <g id="line2d_55">
      <g>
       <use xlink:href="#m332d0a52f2" x="264.75874" y="46.828057" style="stroke: #000000; stroke-width: 0.6"/>
      </g>
     </g>
    </g>
    <g id="ytick_41">
     <g id="line2d_56">
      <g>
       <use xlink:href="#m332d0a52f2" x="264.75874" y="45.65758" style="stroke: #000000; stroke-width: 0.6"/>
      </g>
     </g>
    </g>
    <g id="ytick_42">
     <g id="line2d_57">
      <g>
       <use xlink:href="#m332d0a52f2" x="264.75874" y="37.722355" style="stroke: #000000; stroke-width: 0.6"/>
      </g>
     </g>
    </g>
    <g id="ytick_43">
     <g id="line2d_58">
      <g>
       <use xlink:href="#m332d0a52f2" x="264.75874" y="33.693018" style="stroke: #000000; stroke-width: 0.6"/>
      </g>
     </g>
    </g>
    <g id="ytick_44">
     <g id="line2d_59">
      <g>
       <use xlink:href="#m332d0a52f2" x="264.75874" y="30.834158" style="stroke: #000000; stroke-width: 0.6"/>
      </g>
     </g>
    </g>
    <g id="ytick_45">
     <g id="line2d_60">
      <g>
       <use xlink:href="#m332d0a52f2" x="264.75874" y="28.616653" style="stroke: #000000; stroke-width: 0.6"/>
      </g>
     </g>
    </g>
    <g id="ytick_46">
     <g id="line2d_61">
      <g>
       <use xlink:href="#m332d0a52f2" x="264.75874" y="26.80482" style="stroke: #000000; stroke-width: 0.6"/>
      </g>
     </g>
    </g>
    <g id="ytick_47">
     <g id="line2d_62">
      <g>
       <use xlink:href="#m332d0a52f2" x="264.75874" y="25.272937" style="stroke: #000000; stroke-width: 0.6"/>
      </g>
     </g>
    </g>
    <g id="ytick_48">
     <g id="line2d_63">
      <g>
       <use xlink:href="#m332d0a52f2" x="264.75874" y="23.94596" style="stroke: #000000; stroke-width: 0.6"/>
      </g>
     </g>
    </g>
    <g id="ytick_49">
     <g id="line2d_64">
      <g>
       <use xlink:href="#m332d0a52f2" x="264.75874" y="22.775483" style="stroke: #000000; stroke-width: 0.6"/>
      </g>
     </g>
    </g>
    <g id="ytick_50">
     <g id="line2d_65">
      <g>
       <use xlink:href="#m332d0a52f2" x="264.75874" y="14.840258" style="stroke: #000000; stroke-width: 0.6"/>
      </g>
     </g>
    </g>
    <g id="ytick_51">
     <g id="line2d_66">
      <g>
       <use xlink:href="#m332d0a52f2" x="264.75874" y="10.810921" style="stroke: #000000; stroke-width: 0.6"/>
      </g>
     </g>
    </g>
    <g id="text_23">
     <!-- propensity [step$^{-1}$] -->
     <g transform="translate(238.39874 101.803184) rotate(-90)">
      <text>
       <tspan style="font: 8px 'Carlito'" x="0 4.203125 6.992188 11.210938 15.414062 19.394531 23.597656 26.726562 28.5625 31.242188 34.863281 36.671875 39.125 42.253906 44.933594 48.914062 61.667578" y="-0.8578125000000005">propensity [step]</tspan>
       <tspan style="font: 5.6px 'DejaVu Sans'" x="53.19375 57.885938" y="-3.9203125000000005">−1</tspan>
      </text>
     </g>
    </g>
   </g>
   <g id="line2d_67">
    <g clip-path="url(#p8e6e64c417)">
     <use xlink:href="#m70b8a58df3" x="272.857728" y="41.390044" style="fill: #808000; stroke: #808000; stroke-linejoin: miter"/>
     <use xlink:href="#m70b8a58df3" x="280.956715" y="62.59839" style="fill: #808000; stroke: #808000; stroke-linejoin: miter"/>
     <use xlink:href="#m70b8a58df3" x="289.055703" y="80.667714" style="fill: #808000; stroke: #808000; stroke-linejoin: miter"/>
     <use xlink:href="#m70b8a58df3" x="297.154691" y="97.586533" style="fill: #808000; stroke: #808000; stroke-linejoin: miter"/>
     <use xlink:href="#m70b8a58df3" x="305.253678" y="113.598238" style="fill: #808000; stroke: #808000; stroke-linejoin: miter"/>
     <use xlink:href="#m70b8a58df3" x="313.352666" y="127.132112" style="fill: #808000; stroke: #808000; stroke-linejoin: miter"/>
     <use xlink:href="#m70b8a58df3" x="321.451654" y="135.183334" style="fill: #808000; stroke: #808000; stroke-linejoin: miter"/>
    </g>
   </g>
   <g id="line2d_68">
    <g clip-path="url(#p8e6e64c417)">
     <use xlink:href="#md3f5ff7e53" x="276.87965" y="11602.953504" style="fill: #800000; stroke: #800000; stroke-linejoin: miter"/>
     <use xlink:href="#md3f5ff7e53" x="280.956715" y="147.141715" style="fill: #800000; stroke: #800000; stroke-linejoin: miter"/>
     <use xlink:href="#md3f5ff7e53" x="289.055703" y="128.211416" style="fill: #800000; stroke: #800000; stroke-linejoin: miter"/>
     <use xlink:href="#md3f5ff7e53" x="297.154691" y="120.163211" style="fill: #800000; stroke: #800000; stroke-linejoin: miter"/>
     <use xlink:href="#md3f5ff7e53" x="305.253678" y="115.948935" style="fill: #800000; stroke: #800000; stroke-linejoin: miter"/>
     <use xlink:href="#md3f5ff7e53" x="313.352666" y="113.539751" style="fill: #800000; stroke: #800000; stroke-linejoin: miter"/>
     <use xlink:href="#md3f5ff7e53" x="321.451654" y="111.627917" style="fill: #800000; stroke: #800000; stroke-linejoin: miter"/>
     <use xlink:href="#md3f5ff7e53" x="329.550641" y="109.845886" style="fill: #800000; stroke: #800000; stroke-linejoin: miter"/>
     <use xlink:href="#md3f5ff7e53" x="337.649629" y="109.313103" style="fill: #800000; stroke: #800000; stroke-linejoin: miter"/>
     <use xlink:href="#md3f5ff7e53" x="345.748616" y="107.507991" style="fill: #800000; stroke: #800000; stroke-linejoin: miter"/>
     <use xlink:href="#md3f5ff7e53" x="361.946592" y="105.98492" style="fill: #800000; stroke: #800000; stroke-linejoin: miter"/>
     <use xlink:href="#md3f5ff7e53" x="378.144567" y="104.367805" style="fill: #800000; stroke: #800000; stroke-linejoin: miter"/>
     <use xlink:href="#md3f5ff7e53" x="394.342542" y="103.047855" style="fill: #800000; stroke: #800000; stroke-linejoin: miter"/>
     <use xlink:href="#md3f5ff7e53" x="410.540517" y="102.128564" style="fill: #800000; stroke: #800000; stroke-linejoin: miter"/>
     <use xlink:href="#md3f5ff7e53" x="426.738493" y="101.015857" style="fill: #800000; stroke: #800000; stroke-linejoin: miter"/>
    </g>
   </g>
   <g id="line2d_69">
    <path d="M 264.75874 27.299302 
L 266.378538 30.720038 
L 267.998335 34.140773 
L 269.618133 37.561508 
L 271.23793 40.982244 
L 272.857728 44.402979 
L 274.477525 47.823715 
L 276.097323 51.24445 
L 277.71712 54.665185 
L 279.336918 58.085921 
L 280.956715 61.506656 
L 282.576513 64.927392 
L 284.19631 68.348127 
L 285.816108 71.768863 
L 287.435906 75.189598 
L 289.055703 78.610333 
L 290.675501 82.031069 
L 292.295298 85.451804 
L 293.915096 88.87254 
L 295.534893 92.293275 
L 297.154691 95.71401 
L 298.774488 99.134746 
L 300.394286 102.555481 
L 302.014083 105.976217 
L 303.633881 109.396952 
L 305.253678 112.817688 
L 306.873476 116.238423 
L 308.493273 119.659158 
L 310.113071 123.079894 
L 311.732868 126.500629 
L 313.352666 129.921365 
L 314.972463 133.3421 
L 316.592261 136.762835 
L 318.212058 140.183571 
L 319.831856 143.604306 
L 321.451654 147.025042 
L 323.071451 150.445777 
L 324.691249 153.866513 
L 326.311046 157.287248 
L 327.930844 160.707983 
L 328.608105 162.138243 
" clip-path="url(#p8e6e64c417)" style="fill: none; stroke: #808000; stroke-opacity: 0.3; stroke-width: 1.5; stroke-linecap: square"/>
   </g>
   <g id="line2d_70">
    <path d="M 274.476687 162.138243 
L 274.477525 150.365229 
L 276.097323 141.025677 
L 277.71712 136.297371 
L 279.336918 133.106638 
L 280.956715 130.695203 
L 282.576513 128.756154 
L 284.19631 127.134389 
L 285.816108 125.74053 
L 287.435906 124.518343 
L 289.055703 123.43014 
L 290.675501 122.449427 
L 292.295298 121.556863 
L 293.915096 120.737902 
L 295.534893 119.981323 
L 297.154691 119.278292 
L 298.774488 118.621728 
L 300.394286 118.005867 
L 302.014083 117.425955 
L 303.633881 116.878027 
L 305.253678 116.358738 
L 306.873476 115.865242 
L 308.493273 115.395098 
L 310.113071 114.946195 
L 311.732868 114.516697 
L 313.352666 114.104995 
L 314.972463 113.709672 
L 316.592261 113.329477 
L 318.212058 112.963292 
L 319.831856 112.610123 
L 321.451654 112.269075 
L 323.071451 111.939345 
L 324.691249 111.620204 
L 326.311046 111.310995 
L 327.930844 111.011117 
L 329.550641 110.720024 
L 331.170439 110.437215 
L 332.790236 110.162233 
L 334.410034 109.894655 
L 336.029831 109.634093 
L 337.649629 109.380189 
L 339.269426 109.132611 
L 340.889224 108.891052 
L 342.509021 108.655225 
L 344.128819 108.424865 
L 345.748616 108.199724 
L 347.368414 107.979571 
L 348.988211 107.764189 
L 350.608009 107.553377 
L 352.227807 107.346944 
L 353.847604 107.144713 
L 355.467402 106.946515 
L 357.087199 106.752192 
L 358.706997 106.561597 
L 360.326794 106.374588 
L 361.946592 106.191034 
L 363.566389 106.010809 
L 365.186187 105.833794 
L 366.805984 105.659877 
L 368.425782 105.488952 
L 370.045579 105.320916 
L 371.665377 105.155675 
L 373.285174 104.993137 
L 374.904972 104.833215 
L 376.524769 104.675825 
L 378.144567 104.520889 
L 379.764364 104.368332 
L 381.384162 104.218081 
L 383.00396 104.070069 
L 384.623757 103.924228 
L 386.243555 103.780497 
L 387.863352 103.638815 
L 389.48315 103.499125 
L 391.102947 103.361371 
L 392.722745 103.225501 
L 394.342542 103.091463 
L 395.96234 102.959209 
L 397.582137 102.828692 
L 399.201935 102.699868 
L 400.821732 102.572691 
L 402.44153 102.447122 
L 404.061327 102.32312 
L 405.681125 102.200646 
L 407.300922 102.079663 
L 408.92072 101.960135 
L 410.540517 101.842028 
L 412.160315 101.725308 
L 413.780112 101.609943 
L 415.39991 101.495902 
L 417.019708 101.383155 
L 418.639505 101.271672 
L 420.259303 101.161427 
L 421.8791 101.052391 
L 423.498898 100.944538 
L 425.118695 100.837844 
L 426.738493 100.732282 
" clip-path="url(#p8e6e64c417)" style="fill: none; stroke: #800000; stroke-opacity: 0.4; stroke-width: 1.5; stroke-linecap: square"/>
   </g>
   <g id="line2d_71">
    <path d="M 264.75874 27.29965 
L 266.378538 30.720436 
L 267.998335 34.141207 
L 269.618133 37.561938 
L 271.23793 40.982593 
L 272.857728 44.403109 
L 274.477525 47.823387 
L 276.097323 51.243265 
L 277.71712 54.662496 
L 279.336918 58.08069 
L 280.956715 61.497251 
L 282.576513 64.911268 
L 284.19631 68.32136 
L 285.816108 71.725447 
L 287.435906 75.120417 
L 289.055703 78.501647 
L 290.675501 81.862331 
L 292.295298 85.192548 
L 293.915096 88.478044 
L 295.534893 91.698719 
L 297.154691 94.826977 
L 298.774488 97.826317 
L 300.394286 100.650973 
L 302.014083 103.247759 
L 303.633881 105.561337 
L 305.253678 107.54312 
L 306.873476 109.161883 
L 308.493273 110.411958 
L 310.113071 111.314929 
L 311.732868 111.913901 
L 313.352666 112.263352 
L 314.972463 112.419072 
L 316.592261 112.431195 
L 318.212058 112.34096 
L 319.831856 112.180254 
L 321.451654 111.972679 
L 323.071451 111.735175 
L 324.691249 111.479618 
L 326.311046 111.21419 
L 327.930844 110.944443 
L 329.550641 110.674083 
L 331.170439 110.405545 
L 332.790236 110.140387 
L 334.410034 109.879578 
L 336.029831 109.623681 
L 337.649629 109.372994 
L 339.269426 109.127637 
L 340.889224 108.88761 
L 342.509021 108.652843 
L 344.128819 108.423215 
L 345.748616 108.198581 
L 347.368414 107.978778 
L 348.988211 107.76364 
L 350.608009 107.552996 
L 352.227807 107.34668 
L 353.847604 107.144529 
L 355.467402 106.946387 
L 357.087199 106.752103 
L 358.706997 106.561535 
L 360.326794 106.374545 
L 361.946592 106.191004 
L 363.566389 106.010788 
L 365.186187 105.833779 
L 366.805984 105.659867 
L 368.425782 105.488945 
L 370.045579 105.320912 
L 371.665377 105.155672 
L 373.285174 104.993135 
L 374.904972 104.833213 
L 376.524769 104.675824 
L 378.144567 104.520888 
L 379.764364 104.368331 
L 381.384162 104.218081 
L 383.00396 104.070068 
L 384.623757 103.924228 
L 386.243555 103.780497 
L 387.863352 103.638815 
L 389.48315 103.499125 
L 391.102947 103.361371 
L 392.722745 103.225501 
L 394.342542 103.091463 
L 395.96234 102.959209 
L 397.582137 102.828692 
L 399.201935 102.699868 
L 400.821732 102.572691 
L 402.44153 102.447122 
L 404.061327 102.32312 
L 405.681125 102.200646 
L 407.300922 102.079663 
L 408.92072 101.960135 
L 410.540517 101.842028 
L 412.160315 101.725308 
L 413.780112 101.609943 
L 415.39991 101.495902 
L 417.019708 101.383155 
L 418.639505 101.271672 
L 420.259303 101.161427 
L 421.8791 101.052391 
L 423.498898 100.944538 
L 425.118695 100.837844 
L 426.738493 100.732282 
" clip-path="url(#p8e6e64c417)" style="fill: none; stroke: #000080; stroke-opacity: 0.4; stroke-width: 1.5; stroke-linecap: square"/>
   </g>
   <g id="patch_8">
    <path d="M 264.75874 129.250743 
L 264.75874 10.195625 
" style="fill: none; stroke: #000000; stroke-width: 0.8; stroke-linejoin: miter; stroke-linecap: square"/>
   </g>
   <g id="patch_9">
    <path d="M 434.83748 129.250743 
L 434.83748 10.195625 
" style="fill: none; stroke: #000000; stroke-width: 0.8; stroke-linejoin: miter; stroke-linecap: square"/>
   </g>
   <g id="patch_10">
    <path d="M 264.75874 129.250743 
L 434.83748 129.250743 
" style="fill: none; stroke: #000000; stroke-width: 0.8; stroke-linejoin: miter; stroke-linecap: square"/>
   </g>
   <g id="patch_11">
    <path d="M 264.75874 10.195625 
L 434.83748 10.195625 
" style="fill: none; stroke: #000000; stroke-width: 0.8; stroke-linejoin: miter; stroke-linecap: square"/>
   </g>
   <g id="legend_1">
    <g id="patch_12">
     <path d="M 320.10998 73.105625 
L 429.23748 73.105625 
Q 430.83748 73.105625 430.83748 71.505625 
L 430.83748 15.795625 
Q 430.83748 14.195625 429.23748 14.195625 
L 320.10998 14.195625 
Q 318.50998 14.195625 318.50998 15.795625 
L 318.50998 71.505625 
Q 318.50998 73.105625 320.10998 73.105625 
z
" style="fill: #ffffff; opacity: 0.8; stroke: #cccccc; stroke-linejoin: miter"/>
    </g>
    <g id="line2d_72">
     <g>
      <use xlink:href="#m70b8a58df3" x="329.70998" y="20.195625" style="fill: #808000; stroke: #808000; stroke-linejoin: miter"/>
     </g>
    </g>
    <g id="text_24">
     <text style="font: 8px 'Carlito', sans-serif; text-anchor: start" x="344.10998" y="22.995625" transform="rotate(-0 344.10998 22.995625)">propagation failure</text>
    </g>
    <g id="line2d_73">
     <g>
      <use xlink:href="#md3f5ff7e53" x="329.70998" y="31.170625" style="fill: #800000; stroke: #800000; stroke-linejoin: miter"/>
     </g>
    </g>
    <g id="text_25">
     <text style="font: 8px 'Carlito', sans-serif; text-anchor: start" x="344.10998" y="33.970625" transform="rotate(-0 344.10998 33.970625)">additional front spawning</text>
    </g>
    <g id="line2d_74">
     <path d="M 321.70998 42.705625 
L 329.70998 42.705625 
L 337.70998 42.705625 
" style="fill: none; stroke: #808000; stroke-opacity: 0.3; stroke-width: 1.5; stroke-linecap: square"/>
    </g>
    <g id="text_26">
     <!-- $\lambda_f$ = 0.57 $\times$ 5.59$^{-w}$ -->
     <g transform="translate(344.10998 45.505625)">
      <text>
       <tspan style="font: oblique 8px 'DejaVu Sans'" x="0" y="-0.875">λ</tspan>
       <tspan style="font: oblique 5.6px 'DejaVu Sans'" x="4.734375 57.982422" y="0.4375 -3.9375">fw</tspan>
       <tspan style="font: 8px 'Carlito'" x="6.924609 8.733203 12.717578 14.526172 18.580859 20.600391 24.655078 28.709766 37.221484 39.030078 43.084766 45.104297 49.158984" y="-0.875"> = 0.57  5.59</tspan>
       <tspan style="font: 8px 'DejaVu Sans'" x="30.518359" y="-0.875">×</tspan>
       <tspan style="font: 5.6px 'DejaVu Sans'" x="53.290234" y="-3.9375">−</tspan>
      </text>
     </g>
    </g>
    <g id="line2d_75">
     <path d="M 321.70998 54.145625 
L 329.70998 54.145625 
L 337.70998 54.145625 
" style="fill: none; stroke: #800000; stroke-opacity: 0.4; stroke-width: 1.5; stroke-linecap: square"/>
    </g>
    <g id="text_27">
     <!-- $\lambda_s$ = (w - 1.07) / 53673 -->
     <g transform="translate(344.10998 56.945625)">
      <text>
       <tspan style="font: oblique 8px 'DejaVu Sans'" x="0" y="-0.921875">λ</tspan>
       <tspan style="font: oblique 5.6px 'DejaVu Sans'" x="4.734375" y="0.390625">s</tspan>
       <tspan style="font: 8px 'Carlito'" x="7.870703 9.679297 13.663672 15.472266 17.898047 23.616797 25.425391 27.874609 29.683203 33.737891 35.757422 39.812109 43.866797 46.292578 48.101172 51.191016 52.999609 57.054297 61.108984 65.163672 69.218359" y="-0.921875"> = (w - 1.07) / 53673</tspan>
      </text>
     </g>
    </g>
    <g id="line2d_76">
     <path d="M 321.70998 65.665625 
L 329.70998 65.665625 
L 337.70998 65.665625 
" style="fill: none; stroke: #000080; stroke-opacity: 0.4; stroke-width: 1.5; stroke-linecap: square"/>
    </g>
    <g id="text_28">
     <!-- $\lambda_f$ + $\lambda_s$ -->
     <g transform="translate(344.10998 68.465625)">
      <text>
       <tspan style="font: oblique 8px 'DejaVu Sans'" x="0 14.526172" y="-0.921875">λλ</tspan>
       <tspan style="font: oblique 5.6px 'DejaVu Sans'" x="4.734375 19.260547" y="0.390625">fs</tspan>
       <tspan style="font: 8px 'Carlito'" x="6.924609 8.733203 12.717578" y="-0.921875"> + </tspan>
      </text>
     </g>
    </g>
   </g>
  </g>
 </g>
 <defs>
  <clipPath id="p65b0994e0c">
   <rect x="51.48" y="10.195625" width="170.07874" height="119.055118"/>
  </clipPath>
  <clipPath id="p8e6e64c417">
   <rect x="264.75874" y="10.195625" width="170.07874" height="119.055118"/>
  </clipPath>
 </defs>
</svg>
