<?xml version="1.0" encoding="utf-8" standalone="no"?>
<!DOCTYPE svg PUBLIC "-//W3C//DTD SVG 1.1//EN"
  "http://www.w3.org/Graphics/SVG/1.1/DTD/svg11.dtd">
<svg xmlns:xlink="http://www.w3.org/1999/xlink" width="572.4pt" height="259.2pt" viewBox="0 0 572.4 259.2" xmlns="http://www.w3.org/2000/svg" version="1.1">
 <metadata>
  <rdf:RDF xmlns:dc="http://purl.org/dc/elements/1.1/" xmlns:cc="http://creativecommons.org/ns#" xmlns:rdf="http://www.w3.org/1999/02/22-rdf-syntax-ns#">
   <cc:Work>
    <dc:type rdf:resource="http://purl.org/dc/dcmitype/StillImage"/>
    <dc:date>2023-11-10T13:41:45.741381</dc:date>
    <dc:format>image/svg+xml</dc:format>
    <dc:creator>
     <cc:Agent>
      <dc:title>Matplotlib v3.7.1, https://matplotlib.org/</dc:title>
     </cc:Agent>
    </dc:creator>
   </cc:Work>
  </rdf:RDF>
 </metadata>
 <defs>
  <style type="text/css">*{stroke-linejoin: round; stroke-linecap: butt}</style>
 </defs>
 <g id="figure_1">
  <g id="patch_1">
   <path d="M 0 259.2 
L 572.4 259.2 
L 572.4 0 
L 0 0 
z
" style="fill: #ffffff"/>
  </g>
  <g id="axes_1">
   <g id="patch_2">
    <path d="M 72 223.2 
L 288 223.2 
L 288 7.2 
L 72 7.2 
z
" style="fill: #ffffff"/>
   </g>
   <g id="matplotlib.axis_1">
    <g id="xtick_1">
     <g id="line2d_1">
      <defs>
       <path id="m19ae5c6619" d="M 0 0 
L 0 3.5 
" style="stroke: #000000; stroke-width: 0.8"/>
      </defs>
      <g>
       <use xlink:href="#m19ae5c6619" x="72" y="223.2" style="stroke: #000000; stroke-width: 0.8"/>
      </g>
     </g>
     <g id="text_1">
      <!-- 0 -->
      <g transform="translate(68.81875 237.798437) scale(0.1 -0.1)">
       <defs>
        <path id="DejaVuSans-30" d="M 2034 4250 
Q 1547 4250 1301 3770 
Q 1056 3291 1056 2328 
Q 1056 1369 1301 889 
Q 1547 409 2034 409 
Q 2525 409 2770 889 
Q 3016 1369 3016 2328 
Q 3016 3291 2770 3770 
Q 2525 4250 2034 4250 
z
M 2034 4750 
Q 2819 4750 3233 4129 
Q 3647 3509 3647 2328 
Q 3647 1150 3233 529 
Q 2819 -91 2034 -91 
Q 1250 -91 836 529 
Q 422 1150 422 2328 
Q 422 3509 836 4129 
Q 1250 4750 2034 4750 
z
" transform="scale(0.015625)"/>
       </defs>
       <use xlink:href="#DejaVuSans-30"/>
      </g>
     </g>
    </g>
    <g id="xtick_2">
     <g id="line2d_2">
      <g>
       <use xlink:href="#m19ae5c6619" x="123.428571" y="223.2" style="stroke: #000000; stroke-width: 0.8"/>
      </g>
     </g>
     <g id="text_2">
      <!-- 5 -->
      <g transform="translate(120.247321 237.798437) scale(0.1 -0.1)">
       <defs>
        <path id="DejaVuSans-35" d="M 691 4666 
L 3169 4666 
L 3169 4134 
L 1269 4134 
L 1269 2991 
Q 1406 3038 1543 3061 
Q 1681 3084 1819 3084 
Q 2600 3084 3056 2656 
Q 3513 2228 3513 1497 
Q 3513 744 3044 326 
Q 2575 -91 1722 -91 
Q 1428 -91 1123 -41 
Q 819 9 494 109 
L 494 744 
Q 775 591 1075 516 
Q 1375 441 1709 441 
Q 2250 441 2565 725 
Q 2881 1009 2881 1497 
Q 2881 1984 2565 2268 
Q 2250 2553 1709 2553 
Q 1456 2553 1204 2497 
Q 953 2441 691 2322 
L 691 4666 
z
" transform="scale(0.015625)"/>
       </defs>
       <use xlink:href="#DejaVuSans-35"/>
      </g>
     </g>
    </g>
    <g id="xtick_3">
     <g id="line2d_3">
      <g>
       <use xlink:href="#m19ae5c6619" x="174.857143" y="223.2" style="stroke: #000000; stroke-width: 0.8"/>
      </g>
     </g>
     <g id="text_3">
      <!-- 10 -->
      <g transform="translate(168.494643 237.798437) scale(0.1 -0.1)">
       <defs>
        <path id="DejaVuSans-31" d="M 794 531 
L 1825 531 
L 1825 4091 
L 703 3866 
L 703 4441 
L 1819 4666 
L 2450 4666 
L 2450 531 
L 3481 531 
L 3481 0 
L 794 0 
L 794 531 
z
" transform="scale(0.015625)"/>
       </defs>
       <use xlink:href="#DejaVuSans-31"/>
       <use xlink:href="#DejaVuSans-30" x="63.623047"/>
      </g>
     </g>
    </g>
    <g id="xtick_4">
     <g id="line2d_4">
      <g>
       <use xlink:href="#m19ae5c6619" x="226.285714" y="223.2" style="stroke: #000000; stroke-width: 0.8"/>
      </g>
     </g>
     <g id="text_4">
      <!-- 15 -->
      <g transform="translate(219.923214 237.798437) scale(0.1 -0.1)">
       <use xlink:href="#DejaVuSans-31"/>
       <use xlink:href="#DejaVuSans-35" x="63.623047"/>
      </g>
     </g>
    </g>
    <g id="xtick_5">
     <g id="line2d_5">
      <g>
       <use xlink:href="#m19ae5c6619" x="277.714286" y="223.2" style="stroke: #000000; stroke-width: 0.8"/>
      </g>
     </g>
     <g id="text_5">
      <!-- 20 -->
      <g transform="translate(271.351786 237.798437) scale(0.1 -0.1)">
       <defs>
        <path id="DejaVuSans-32" d="M 1228 531 
L 3431 531 
L 3431 0 
L 469 0 
L 469 531 
Q 828 903 1448 1529 
Q 2069 2156 2228 2338 
Q 2531 2678 2651 2914 
Q 2772 3150 2772 3378 
Q 2772 3750 2511 3984 
Q 2250 4219 1831 4219 
Q 1534 4219 1204 4116 
Q 875 4013 500 3803 
L 500 4441 
Q 881 4594 1212 4672 
Q 1544 4750 1819 4750 
Q 2544 4750 2975 4387 
Q 3406 4025 3406 3419 
Q 3406 3131 3298 2873 
Q 3191 2616 2906 2266 
Q 2828 2175 2409 1742 
Q 1991 1309 1228 531 
z
" transform="scale(0.015625)"/>
       </defs>
       <use xlink:href="#DejaVuSans-32"/>
       <use xlink:href="#DejaVuSans-30" x="63.623047"/>
      </g>
     </g>
    </g>
    <g id="text_6">
     <!-- channel width -->
     <g transform="translate(144.844531 251.476562) scale(0.1 -0.1)">
      <defs>
       <path id="DejaVuSans-63" d="M 3122 3366 
L 3122 2828 
Q 2878 2963 2633 3030 
Q 2388 3097 2138 3097 
Q 1578 3097 1268 2742 
Q 959 2388 959 1747 
Q 959 1106 1268 751 
Q 1578 397 2138 397 
Q 2388 397 2633 464 
Q 2878 531 3122 666 
L 3122 134 
Q 2881 22 2623 -34 
Q 2366 -91 2075 -91 
Q 1284 -91 818 406 
Q 353 903 353 1747 
Q 353 2603 823 3093 
Q 1294 3584 2113 3584 
Q 2378 3584 2631 3529 
Q 2884 3475 3122 3366 
z
" transform="scale(0.015625)"/>
       <path id="DejaVuSans-68" d="M 3513 2113 
L 3513 0 
L 2938 0 
L 2938 2094 
Q 2938 2591 2744 2837 
Q 2550 3084 2163 3084 
Q 1697 3084 1428 2787 
Q 1159 2491 1159 1978 
L 1159 0 
L 581 0 
L 581 4863 
L 1159 4863 
L 1159 2956 
Q 1366 3272 1645 3428 
Q 1925 3584 2291 3584 
Q 2894 3584 3203 3211 
Q 3513 2838 3513 2113 
z
" transform="scale(0.015625)"/>
       <path id="DejaVuSans-61" d="M 2194 1759 
Q 1497 1759 1228 1600 
Q 959 1441 959 1056 
Q 959 750 1161 570 
Q 1363 391 1709 391 
Q 2188 391 2477 730 
Q 2766 1069 2766 1631 
L 2766 1759 
L 2194 1759 
z
M 3341 1997 
L 3341 0 
L 2766 0 
L 2766 531 
Q 2569 213 2275 61 
Q 1981 -91 1556 -91 
Q 1019 -91 701 211 
Q 384 513 384 1019 
Q 384 1609 779 1909 
Q 1175 2209 1959 2209 
L 2766 2209 
L 2766 2266 
Q 2766 2663 2505 2880 
Q 2244 3097 1772 3097 
Q 1472 3097 1187 3025 
Q 903 2953 641 2809 
L 641 3341 
Q 956 3463 1253 3523 
Q 1550 3584 1831 3584 
Q 2591 3584 2966 3190 
Q 3341 2797 3341 1997 
z
" transform="scale(0.015625)"/>
       <path id="DejaVuSans-6e" d="M 3513 2113 
L 3513 0 
L 2938 0 
L 2938 2094 
Q 2938 2591 2744 2837 
Q 2550 3084 2163 3084 
Q 1697 3084 1428 2787 
Q 1159 2491 1159 1978 
L 1159 0 
L 581 0 
L 581 3500 
L 1159 3500 
L 1159 2956 
Q 1366 3272 1645 3428 
Q 1925 3584 2291 3584 
Q 2894 3584 3203 3211 
Q 3513 2838 3513 2113 
z
" transform="scale(0.015625)"/>
       <path id="DejaVuSans-65" d="M 3597 1894 
L 3597 1613 
L 953 1613 
Q 991 1019 1311 708 
Q 1631 397 2203 397 
Q 2534 397 2845 478 
Q 3156 559 3463 722 
L 3463 178 
Q 3153 47 2828 -22 
Q 2503 -91 2169 -91 
Q 1331 -91 842 396 
Q 353 884 353 1716 
Q 353 2575 817 3079 
Q 1281 3584 2069 3584 
Q 2775 3584 3186 3129 
Q 3597 2675 3597 1894 
z
M 3022 2063 
Q 3016 2534 2758 2815 
Q 2500 3097 2075 3097 
Q 1594 3097 1305 2825 
Q 1016 2553 972 2059 
L 3022 2063 
z
" transform="scale(0.015625)"/>
       <path id="DejaVuSans-6c" d="M 603 4863 
L 1178 4863 
L 1178 0 
L 603 0 
L 603 4863 
z
" transform="scale(0.015625)"/>
       <path id="DejaVuSans-20" transform="scale(0.015625)"/>
       <path id="DejaVuSans-77" d="M 269 3500 
L 844 3500 
L 1563 769 
L 2278 3500 
L 2956 3500 
L 3675 769 
L 4391 3500 
L 4966 3500 
L 4050 0 
L 3372 0 
L 2619 2869 
L 1863 0 
L 1184 0 
L 269 3500 
z
" transform="scale(0.015625)"/>
       <path id="DejaVuSans-69" d="M 603 3500 
L 1178 3500 
L 1178 0 
L 603 0 
L 603 3500 
z
M 603 4863 
L 1178 4863 
L 1178 4134 
L 603 4134 
L 603 4863 
z
" transform="scale(0.015625)"/>
       <path id="DejaVuSans-64" d="M 2906 2969 
L 2906 4863 
L 3481 4863 
L 3481 0 
L 2906 0 
L 2906 525 
Q 2725 213 2448 61 
Q 2172 -91 1784 -91 
Q 1150 -91 751 415 
Q 353 922 353 1747 
Q 353 2572 751 3078 
Q 1150 3584 1784 3584 
Q 2172 3584 2448 3432 
Q 2725 3281 2906 2969 
z
M 947 1747 
Q 947 1113 1208 752 
Q 1469 391 1925 391 
Q 2381 391 2643 752 
Q 2906 1113 2906 1747 
Q 2906 2381 2643 2742 
Q 2381 3103 1925 3103 
Q 1469 3103 1208 2742 
Q 947 2381 947 1747 
z
" transform="scale(0.015625)"/>
       <path id="DejaVuSans-74" d="M 1172 4494 
L 1172 3500 
L 2356 3500 
L 2356 3053 
L 1172 3053 
L 1172 1153 
Q 1172 725 1289 603 
Q 1406 481 1766 481 
L 2356 481 
L 2356 0 
L 1766 0 
Q 1100 0 847 248 
Q 594 497 594 1153 
L 594 3053 
L 172 3053 
L 172 3500 
L 594 3500 
L 594 4494 
L 1172 4494 
z
" transform="scale(0.015625)"/>
      </defs>
      <use xlink:href="#DejaVuSans-63"/>
      <use xlink:href="#DejaVuSans-68" x="54.980469"/>
      <use xlink:href="#DejaVuSans-61" x="118.359375"/>
      <use xlink:href="#DejaVuSans-6e" x="179.638672"/>
      <use xlink:href="#DejaVuSans-6e" x="243.017578"/>
      <use xlink:href="#DejaVuSans-65" x="306.396484"/>
      <use xlink:href="#DejaVuSans-6c" x="367.919922"/>
      <use xlink:href="#DejaVuSans-20" x="395.703125"/>
      <use xlink:href="#DejaVuSans-77" x="427.490234"/>
      <use xlink:href="#DejaVuSans-69" x="509.277344"/>
      <use xlink:href="#DejaVuSans-64" x="537.060547"/>
      <use xlink:href="#DejaVuSans-74" x="600.537109"/>
      <use xlink:href="#DejaVuSans-68" x="639.746094"/>
     </g>
    </g>
   </g>
   <g id="matplotlib.axis_2">
    <g id="ytick_1">
     <g id="line2d_6">
      <defs>
       <path id="m05346dfc9a" d="M 0 0 
L -3.5 0 
" style="stroke: #000000; stroke-width: 0.8"/>
      </defs>
      <g>
       <use xlink:href="#m05346dfc9a" x="72" y="223.2" style="stroke: #000000; stroke-width: 0.8"/>
      </g>
     </g>
     <g id="text_7">
      <!-- $0 \times 10^4$ -->
      <g transform="translate(28.8 226.999219) scale(0.1 -0.1)">
       <defs>
        <path id="DejaVuSans-d7" d="M 4488 3438 
L 3059 2003 
L 4488 575 
L 4116 197 
L 2681 1631 
L 1247 197 
L 878 575 
L 2303 2003 
L 878 3438 
L 1247 3816 
L 2681 2381 
L 4116 3816 
L 4488 3438 
z
" transform="scale(0.015625)"/>
        <path id="DejaVuSans-34" d="M 2419 4116 
L 825 1625 
L 2419 1625 
L 2419 4116 
z
M 2253 4666 
L 3047 4666 
L 3047 1625 
L 3713 1625 
L 3713 1100 
L 3047 1100 
L 3047 0 
L 2419 0 
L 2419 1100 
L 313 1100 
L 313 1709 
L 2253 4666 
z
" transform="scale(0.015625)"/>
       </defs>
       <use xlink:href="#DejaVuSans-30" transform="translate(0 0.684375)"/>
       <use xlink:href="#DejaVuSans-d7" transform="translate(83.105469 0.684375)"/>
       <use xlink:href="#DejaVuSans-31" transform="translate(186.376953 0.684375)"/>
       <use xlink:href="#DejaVuSans-30" transform="translate(250 0.684375)"/>
       <use xlink:href="#DejaVuSans-34" transform="translate(314.580078 38.965625) scale(0.7)"/>
      </g>
     </g>
    </g>
    <g id="ytick_2">
     <g id="line2d_7">
      <g>
       <use xlink:href="#m05346dfc9a" x="72" y="151.2" style="stroke: #000000; stroke-width: 0.8"/>
      </g>
     </g>
     <g id="text_8">
      <!-- $2 \times 10^4$ -->
      <g transform="translate(28.8 154.999219) scale(0.1 -0.1)">
       <use xlink:href="#DejaVuSans-32" transform="translate(0 0.684375)"/>
       <use xlink:href="#DejaVuSans-d7" transform="translate(83.105469 0.684375)"/>
       <use xlink:href="#DejaVuSans-31" transform="translate(186.376953 0.684375)"/>
       <use xlink:href="#DejaVuSans-30" transform="translate(250 0.684375)"/>
       <use xlink:href="#DejaVuSans-34" transform="translate(314.580078 38.965625) scale(0.7)"/>
      </g>
     </g>
    </g>
    <g id="ytick_3">
     <g id="line2d_8">
      <g>
       <use xlink:href="#m05346dfc9a" x="72" y="79.2" style="stroke: #000000; stroke-width: 0.8"/>
      </g>
     </g>
     <g id="text_9">
      <!-- $4 \times 10^4$ -->
      <g transform="translate(28.8 82.999219) scale(0.1 -0.1)">
       <use xlink:href="#DejaVuSans-34" transform="translate(0 0.684375)"/>
       <use xlink:href="#DejaVuSans-d7" transform="translate(83.105469 0.684375)"/>
       <use xlink:href="#DejaVuSans-31" transform="translate(186.376953 0.684375)"/>
       <use xlink:href="#DejaVuSans-30" transform="translate(250 0.684375)"/>
       <use xlink:href="#DejaVuSans-34" transform="translate(314.580078 38.965625) scale(0.7)"/>
      </g>
     </g>
    </g>
    <g id="ytick_4">
     <g id="line2d_9">
      <g>
       <use xlink:href="#m05346dfc9a" x="72" y="7.2" style="stroke: #000000; stroke-width: 0.8"/>
      </g>
     </g>
     <g id="text_10">
      <!-- $6 \times 10^4$ -->
      <g transform="translate(28.8 10.999219) scale(0.1 -0.1)">
       <defs>
        <path id="DejaVuSans-36" d="M 2113 2584 
Q 1688 2584 1439 2293 
Q 1191 2003 1191 1497 
Q 1191 994 1439 701 
Q 1688 409 2113 409 
Q 2538 409 2786 701 
Q 3034 994 3034 1497 
Q 3034 2003 2786 2293 
Q 2538 2584 2113 2584 
z
M 3366 4563 
L 3366 3988 
Q 3128 4100 2886 4159 
Q 2644 4219 2406 4219 
Q 1781 4219 1451 3797 
Q 1122 3375 1075 2522 
Q 1259 2794 1537 2939 
Q 1816 3084 2150 3084 
Q 2853 3084 3261 2657 
Q 3669 2231 3669 1497 
Q 3669 778 3244 343 
Q 2819 -91 2113 -91 
Q 1303 -91 875 529 
Q 447 1150 447 2328 
Q 447 3434 972 4092 
Q 1497 4750 2381 4750 
Q 2619 4750 2861 4703 
Q 3103 4656 3366 4563 
z
" transform="scale(0.015625)"/>
       </defs>
       <use xlink:href="#DejaVuSans-36" transform="translate(0 0.684375)"/>
       <use xlink:href="#DejaVuSans-d7" transform="translate(83.105469 0.684375)"/>
       <use xlink:href="#DejaVuSans-31" transform="translate(186.376953 0.684375)"/>
       <use xlink:href="#DejaVuSans-30" transform="translate(250 0.684375)"/>
       <use xlink:href="#DejaVuSans-34" transform="translate(314.580078 38.965625) scale(0.7)"/>
      </g>
     </g>
    </g>
    <g id="text_11">
     <!-- propensity [step$^{-1}$] -->
     <g transform="translate(22.7 163.5) rotate(-90) scale(0.1 -0.1)">
      <defs>
       <path id="DejaVuSans-70" d="M 1159 525 
L 1159 -1331 
L 581 -1331 
L 581 3500 
L 1159 3500 
L 1159 2969 
Q 1341 3281 1617 3432 
Q 1894 3584 2278 3584 
Q 2916 3584 3314 3078 
Q 3713 2572 3713 1747 
Q 3713 922 3314 415 
Q 2916 -91 2278 -91 
Q 1894 -91 1617 61 
Q 1341 213 1159 525 
z
M 3116 1747 
Q 3116 2381 2855 2742 
Q 2594 3103 2138 3103 
Q 1681 3103 1420 2742 
Q 1159 2381 1159 1747 
Q 1159 1113 1420 752 
Q 1681 391 2138 391 
Q 2594 391 2855 752 
Q 3116 1113 3116 1747 
z
" transform="scale(0.015625)"/>
       <path id="DejaVuSans-72" d="M 2631 2963 
Q 2534 3019 2420 3045 
Q 2306 3072 2169 3072 
Q 1681 3072 1420 2755 
Q 1159 2438 1159 1844 
L 1159 0 
L 581 0 
L 581 3500 
L 1159 3500 
L 1159 2956 
Q 1341 3275 1631 3429 
Q 1922 3584 2338 3584 
Q 2397 3584 2469 3576 
Q 2541 3569 2628 3553 
L 2631 2963 
z
" transform="scale(0.015625)"/>
       <path id="DejaVuSans-6f" d="M 1959 3097 
Q 1497 3097 1228 2736 
Q 959 2375 959 1747 
Q 959 1119 1226 758 
Q 1494 397 1959 397 
Q 2419 397 2687 759 
Q 2956 1122 2956 1747 
Q 2956 2369 2687 2733 
Q 2419 3097 1959 3097 
z
M 1959 3584 
Q 2709 3584 3137 3096 
Q 3566 2609 3566 1747 
Q 3566 888 3137 398 
Q 2709 -91 1959 -91 
Q 1206 -91 779 398 
Q 353 888 353 1747 
Q 353 2609 779 3096 
Q 1206 3584 1959 3584 
z
" transform="scale(0.015625)"/>
       <path id="DejaVuSans-73" d="M 2834 3397 
L 2834 2853 
Q 2591 2978 2328 3040 
Q 2066 3103 1784 3103 
Q 1356 3103 1142 2972 
Q 928 2841 928 2578 
Q 928 2378 1081 2264 
Q 1234 2150 1697 2047 
L 1894 2003 
Q 2506 1872 2764 1633 
Q 3022 1394 3022 966 
Q 3022 478 2636 193 
Q 2250 -91 1575 -91 
Q 1294 -91 989 -36 
Q 684 19 347 128 
L 347 722 
Q 666 556 975 473 
Q 1284 391 1588 391 
Q 1994 391 2212 530 
Q 2431 669 2431 922 
Q 2431 1156 2273 1281 
Q 2116 1406 1581 1522 
L 1381 1569 
Q 847 1681 609 1914 
Q 372 2147 372 2553 
Q 372 3047 722 3315 
Q 1072 3584 1716 3584 
Q 2034 3584 2315 3537 
Q 2597 3491 2834 3397 
z
" transform="scale(0.015625)"/>
       <path id="DejaVuSans-79" d="M 2059 -325 
Q 1816 -950 1584 -1140 
Q 1353 -1331 966 -1331 
L 506 -1331 
L 506 -850 
L 844 -850 
Q 1081 -850 1212 -737 
Q 1344 -625 1503 -206 
L 1606 56 
L 191 3500 
L 800 3500 
L 1894 763 
L 2988 3500 
L 3597 3500 
L 2059 -325 
z
" transform="scale(0.015625)"/>
       <path id="DejaVuSans-5b" d="M 550 4863 
L 1875 4863 
L 1875 4416 
L 1125 4416 
L 1125 -397 
L 1875 -397 
L 1875 -844 
L 550 -844 
L 550 4863 
z
" transform="scale(0.015625)"/>
       <path id="DejaVuSans-2212" d="M 678 2272 
L 4684 2272 
L 4684 1741 
L 678 1741 
L 678 2272 
z
" transform="scale(0.015625)"/>
       <path id="DejaVuSans-5d" d="M 1947 4863 
L 1947 -844 
L 622 -844 
L 622 -397 
L 1369 -397 
L 1369 4416 
L 622 4416 
L 622 4863 
L 1947 4863 
z
" transform="scale(0.015625)"/>
      </defs>
      <use xlink:href="#DejaVuSans-70" transform="translate(0 0.684375)"/>
      <use xlink:href="#DejaVuSans-72" transform="translate(63.476562 0.684375)"/>
      <use xlink:href="#DejaVuSans-6f" transform="translate(104.589844 0.684375)"/>
      <use xlink:href="#DejaVuSans-70" transform="translate(165.771484 0.684375)"/>
      <use xlink:href="#DejaVuSans-65" transform="translate(229.248047 0.684375)"/>
      <use xlink:href="#DejaVuSans-6e" transform="translate(290.771484 0.684375)"/>
      <use xlink:href="#DejaVuSans-73" transform="translate(354.150391 0.684375)"/>
      <use xlink:href="#DejaVuSans-69" transform="translate(406.25 0.684375)"/>
      <use xlink:href="#DejaVuSans-74" transform="translate(434.033203 0.684375)"/>
      <use xlink:href="#DejaVuSans-79" transform="translate(473.242188 0.684375)"/>
      <use xlink:href="#DejaVuSans-20" transform="translate(532.421875 0.684375)"/>
      <use xlink:href="#DejaVuSans-5b" transform="translate(564.208984 0.684375)"/>
      <use xlink:href="#DejaVuSans-73" transform="translate(603.222656 0.684375)"/>
      <use xlink:href="#DejaVuSans-74" transform="translate(655.322266 0.684375)"/>
      <use xlink:href="#DejaVuSans-65" transform="translate(694.53125 0.684375)"/>
      <use xlink:href="#DejaVuSans-70" transform="translate(756.054688 0.684375)"/>
      <use xlink:href="#DejaVuSans-2212" transform="translate(820.488281 38.965625) scale(0.7)"/>
      <use xlink:href="#DejaVuSans-31" transform="translate(879.140625 38.965625) scale(0.7)"/>
      <use xlink:href="#DejaVuSans-5d" transform="translate(926.411133 0.684375)"/>
     </g>
    </g>
   </g>
   <g id="line2d_10">
    <defs>
     <path id="m727b27b4ad" d="M -3 3 
L 3 3 
L 3 -3 
L -3 -3 
z
" style="stroke: #808000; stroke-linejoin: miter"/>
    </defs>
    <g clip-path="url(#pbaaf65d404)">
     <use xlink:href="#m727b27b4ad" x="112.485562" y="-1" style="fill: #808000; stroke: #808000; stroke-linejoin: miter"/>
     <use xlink:href="#m727b27b4ad" x="113.142857" y="48.966793" style="fill: #808000; stroke: #808000; stroke-linejoin: miter"/>
     <use xlink:href="#m727b27b4ad" x="123.428571" y="188.415737" style="fill: #808000; stroke: #808000; stroke-linejoin: miter"/>
     <use xlink:href="#m727b27b4ad" x="133.714286" y="214.289101" style="fill: #808000; stroke: #808000; stroke-linejoin: miter"/>
     <use xlink:href="#m727b27b4ad" x="144" y="219.236629" style="fill: #808000; stroke: #808000; stroke-linejoin: miter"/>
     <use xlink:href="#m727b27b4ad" x="154.285714" y="219.757073" style="fill: #808000; stroke: #808000; stroke-linejoin: miter"/>
     <use xlink:href="#m727b27b4ad" x="164.571429" y="218.930188" style="fill: #808000; stroke: #808000; stroke-linejoin: miter"/>
     <use xlink:href="#m727b27b4ad" x="174.857143" y="218.832037" style="fill: #808000; stroke: #808000; stroke-linejoin: miter"/>
     <use xlink:href="#m727b27b4ad" x="195.428571" y="218.191714" style="fill: #808000; stroke: #808000; stroke-linejoin: miter"/>
     <use xlink:href="#m727b27b4ad" x="216" y="218.99879" style="fill: #808000; stroke: #808000; stroke-linejoin: miter"/>
     <use xlink:href="#m727b27b4ad" x="236.571429" y="218.221813" style="fill: #808000; stroke: #808000; stroke-linejoin: miter"/>
     <use xlink:href="#m727b27b4ad" x="257.142857" y="218.666515" style="fill: #808000; stroke: #808000; stroke-linejoin: miter"/>
     <use xlink:href="#m727b27b4ad" x="277.714286" y="219.150448" style="fill: #808000; stroke: #808000; stroke-linejoin: miter"/>
    </g>
   </g>
   <g id="line2d_11">
    <defs>
     <path id="m2efd68fdeb" d="M 0 -3 
L -3 3 
L 3 3 
z
" style="stroke: #800000; stroke-linejoin: miter"/>
    </defs>
    <g clip-path="url(#pbaaf65d404)">
     <use xlink:href="#m2efd68fdeb" x="82.285714" y="223.2" style="fill: #800000; stroke: #800000; stroke-linejoin: miter"/>
     <use xlink:href="#m2efd68fdeb" x="92.571429" y="222.010249" style="fill: #800000; stroke: #800000; stroke-linejoin: miter"/>
     <use xlink:href="#m2efd68fdeb" x="102.857143" y="215.206197" style="fill: #800000; stroke: #800000; stroke-linejoin: miter"/>
     <use xlink:href="#m2efd68fdeb" x="113.142857" y="205.23288" style="fill: #800000; stroke: #800000; stroke-linejoin: miter"/>
     <use xlink:href="#m2efd68fdeb" x="123.428571" y="195.743073" style="fill: #800000; stroke: #800000; stroke-linejoin: miter"/>
     <use xlink:href="#m2efd68fdeb" x="133.714286" y="188.210414" style="fill: #800000; stroke: #800000; stroke-linejoin: miter"/>
     <use xlink:href="#m2efd68fdeb" x="144" y="180.787846" style="fill: #800000; stroke: #800000; stroke-linejoin: miter"/>
     <use xlink:href="#m2efd68fdeb" x="154.285714" y="172.457818" style="fill: #800000; stroke: #800000; stroke-linejoin: miter"/>
     <use xlink:href="#m2efd68fdeb" x="164.571429" y="169.663127" style="fill: #800000; stroke: #800000; stroke-linejoin: miter"/>
     <use xlink:href="#m2efd68fdeb" x="174.857143" y="158.999187" style="fill: #800000; stroke: #800000; stroke-linejoin: miter"/>
     <use xlink:href="#m2efd68fdeb" x="195.428571" y="148.365442" style="fill: #800000; stroke: #800000; stroke-linejoin: miter"/>
     <use xlink:href="#m2efd68fdeb" x="216" y="135.14098" style="fill: #800000; stroke: #800000; stroke-linejoin: miter"/>
     <use xlink:href="#m2efd68fdeb" x="236.571429" y="122.632261" style="fill: #800000; stroke: #800000; stroke-linejoin: miter"/>
     <use xlink:href="#m2efd68fdeb" x="257.142857" y="112.885203" style="fill: #800000; stroke: #800000; stroke-linejoin: miter"/>
     <use xlink:href="#m2efd68fdeb" x="277.714286" y="99.815207" style="fill: #800000; stroke: #800000; stroke-linejoin: miter"/>
    </g>
   </g>
   <g id="line2d_12">
    <path d="M 112.813484 -1 
L 113.142857 12.839373 
L 115.2 74.102455 
L 117.257143 117.523961 
L 119.314286 148.299872 
L 121.371429 170.11295 
L 123.428571 185.57343 
L 125.485714 196.531373 
L 127.542857 204.298046 
L 129.6 209.80284 
L 131.657143 213.70448 
L 133.714286 216.469849 
L 135.771429 218.429863 
L 137.828571 219.819065 
L 139.885714 220.803691 
L 141.942857 221.501565 
L 144 221.996198 
L 146.057143 222.34678 
L 148.114286 222.595262 
L 150.171429 222.771379 
L 152.228571 222.896206 
L 154.285714 222.98468 
L 156.342857 223.047387 
L 158.4 223.091832 
L 160.457143 223.123334 
L 162.514286 223.145661 
L 164.571429 223.161486 
L 166.628571 223.172703 
L 168.685714 223.180652 
L 170.742857 223.186287 
L 172.8 223.190281 
L 174.857143 223.193111 
L 176.914286 223.195117 
L 178.971429 223.196539 
L 181.028571 223.197547 
L 183.085714 223.198262 
L 185.142857 223.198768 
L 187.2 223.199127 
L 189.257143 223.199381 
L 191.314286 223.199561 
L 193.371429 223.199689 
L 195.428571 223.19978 
L 197.485714 223.199844 
L 199.542857 223.199889 
L 201.6 223.199922 
L 203.657143 223.199944 
L 205.714286 223.199961 
L 207.771429 223.199972 
L 209.828571 223.19998 
L 211.885714 223.199986 
L 213.942857 223.19999 
L 216 223.199993 
L 218.057143 223.199995 
L 220.114286 223.199996 
L 222.171429 223.199997 
L 224.228571 223.199998 
L 226.285714 223.199999 
L 228.342857 223.199999 
L 230.4 223.199999 
L 232.457143 223.2 
L 234.514286 223.2 
L 236.571429 223.2 
L 238.628571 223.2 
L 240.685714 223.2 
L 242.742857 223.2 
L 244.8 223.2 
L 246.857143 223.2 
L 248.914286 223.2 
L 250.971429 223.2 
L 253.028571 223.2 
L 255.085714 223.2 
L 257.142857 223.2 
L 259.2 223.2 
L 261.257143 223.2 
L 263.314286 223.2 
L 265.371429 223.2 
L 267.428571 223.2 
L 269.485714 223.2 
L 271.542857 223.2 
L 273.6 223.2 
L 275.657143 223.2 
L 277.714286 223.2 
" clip-path="url(#pbaaf65d404)" style="fill: none; stroke: #808000; stroke-opacity: 0.3; stroke-width: 1.5; stroke-linecap: square"/>
   </g>
   <g id="line2d_13">
    <path d="M 72 230.38853 
L 74.057143 229.047081 
L 76.114286 227.705632 
L 78.171429 226.364183 
L 80.228571 225.022734 
L 82.285714 223.681285 
L 84.342857 222.339836 
L 86.4 220.998387 
L 88.457143 219.656938 
L 90.514286 218.315489 
L 92.571429 216.97404 
L 94.628571 215.632591 
L 96.685714 214.291142 
L 98.742857 212.949693 
L 100.8 211.608244 
L 102.857143 210.266795 
L 104.914286 208.925346 
L 106.971429 207.583897 
L 109.028571 206.242448 
L 111.085714 204.900999 
L 113.142857 203.55955 
L 115.2 202.218101 
L 117.257143 200.876652 
L 119.314286 199.535203 
L 121.371429 198.193754 
L 123.428571 196.852305 
L 125.485714 195.510856 
L 127.542857 194.169407 
L 129.6 192.827958 
L 131.657143 191.486509 
L 133.714286 190.14506 
L 135.771429 188.803611 
L 137.828571 187.462162 
L 139.885714 186.120713 
L 141.942857 184.779265 
L 144 183.437816 
L 146.057143 182.096367 
L 148.114286 180.754918 
L 150.171429 179.413469 
L 152.228571 178.07202 
L 154.285714 176.730571 
L 156.342857 175.389122 
L 158.4 174.047673 
L 160.457143 172.706224 
L 162.514286 171.364775 
L 164.571429 170.023326 
L 166.628571 168.681877 
L 168.685714 167.340428 
L 170.742857 165.998979 
L 172.8 164.65753 
L 174.857143 163.316081 
L 176.914286 161.974632 
L 178.971429 160.633183 
L 181.028571 159.291734 
L 183.085714 157.950285 
L 185.142857 156.608836 
L 187.2 155.267387 
L 189.257143 153.925938 
L 191.314286 152.584489 
L 193.371429 151.24304 
L 195.428571 149.901591 
L 197.485714 148.560142 
L 199.542857 147.218693 
L 201.6 145.877244 
L 203.657143 144.535795 
L 205.714286 143.194346 
L 207.771429 141.852897 
L 209.828571 140.511448 
L 211.885714 139.169999 
L 213.942857 137.82855 
L 216 136.487101 
L 218.057143 135.145652 
L 220.114286 133.804203 
L 222.171429 132.462754 
L 224.228571 131.121305 
L 226.285714 129.779856 
L 228.342857 128.438407 
L 230.4 127.096958 
L 232.457143 125.755509 
L 234.514286 124.41406 
L 236.571429 123.072611 
L 238.628571 121.731162 
L 240.685714 120.389713 
L 242.742857 119.048264 
L 244.8 117.706815 
L 246.857143 116.365366 
L 248.914286 115.023917 
L 250.971429 113.682468 
L 253.028571 112.341019 
L 255.085714 110.99957 
L 257.142857 109.658121 
L 259.2 108.316672 
L 261.257143 106.975223 
L 263.314286 105.633774 
L 265.371429 104.292325 
L 267.428571 102.950876 
L 269.485714 101.609427 
L 271.542857 100.267978 
L 273.6 98.926529 
L 275.657143 97.58508 
L 277.714286 96.243631 
" clip-path="url(#pbaaf65d404)" style="fill: none; stroke: #800000; stroke-opacity: 0.4; stroke-width: 1.5; stroke-linecap: square"/>
   </g>
   <g id="line2d_14">
    <path d="M 113.342011 -1 
L 115.2 53.120557 
L 117.257143 95.200613 
L 119.314286 124.635075 
L 121.371429 145.106704 
L 123.428571 159.225735 
L 125.485714 168.842229 
L 127.542857 175.267454 
L 129.6 179.430799 
L 131.657143 181.990989 
L 133.714286 183.41491 
L 135.771429 184.033475 
L 137.828571 184.081227 
L 139.885714 183.724404 
L 141.942857 183.080829 
L 144 182.234014 
L 146.057143 181.243147 
L 148.114286 180.15018 
L 150.171429 178.984848 
L 152.228571 177.768226 
L 154.285714 176.51525 
L 156.342857 175.236509 
L 158.4 173.939505 
L 160.457143 172.629558 
L 162.514286 171.310436 
L 164.571429 169.984812 
L 166.628571 168.654579 
L 168.685714 167.32108 
L 170.742857 165.985266 
L 172.8 164.64781 
L 174.857143 163.309192 
L 176.914286 161.969749 
L 178.971429 160.629722 
L 181.028571 159.289281 
L 183.085714 157.948546 
L 185.142857 156.607604 
L 187.2 155.266513 
L 189.257143 153.925319 
L 191.314286 152.58405 
L 193.371429 151.242729 
L 195.428571 149.90137 
L 197.485714 148.559986 
L 199.542857 147.218582 
L 201.6 145.877165 
L 203.657143 144.535739 
L 205.714286 143.194306 
L 207.771429 141.852869 
L 209.828571 140.511428 
L 211.885714 139.169985 
L 213.942857 137.82854 
L 216 136.487094 
L 218.057143 135.145647 
L 220.114286 133.804199 
L 222.171429 132.462751 
L 224.228571 131.121303 
L 226.285714 129.779855 
L 228.342857 128.438406 
L 230.4 127.096957 
L 232.457143 125.755509 
L 234.514286 124.41406 
L 236.571429 123.072611 
L 238.628571 121.731162 
L 240.685714 120.389713 
L 242.742857 119.048264 
L 244.8 117.706815 
L 246.857143 116.365366 
L 248.914286 115.023917 
L 250.971429 113.682468 
L 253.028571 112.341019 
L 255.085714 110.99957 
L 257.142857 109.658121 
L 259.2 108.316672 
L 261.257143 106.975223 
L 263.314286 105.633774 
L 265.371429 104.292325 
L 267.428571 102.950876 
L 269.485714 101.609427 
L 271.542857 100.267978 
L 273.6 98.926529 
L 275.657143 97.58508 
L 277.714286 96.243631 
" clip-path="url(#pbaaf65d404)" style="fill: none; stroke: #000080; stroke-opacity: 0.4; stroke-width: 1.5; stroke-linecap: square"/>
   </g>
   <g id="patch_3">
    <path d="M 72 223.2 
L 72 7.2 
" style="fill: none; stroke: #000000; stroke-width: 0.8; stroke-linejoin: miter; stroke-linecap: square"/>
   </g>
   <g id="patch_4">
    <path d="M 288 223.2 
L 288 7.2 
" style="fill: none; stroke: #000000; stroke-width: 0.8; stroke-linejoin: miter; stroke-linecap: square"/>
   </g>
   <g id="patch_5">
    <path d="M 72 223.2 
L 288 223.2 
" style="fill: none; stroke: #000000; stroke-width: 0.8; stroke-linejoin: miter; stroke-linecap: square"/>
   </g>
   <g id="patch_6">
    <path d="M 72 7.2 
L 288 7.2 
" style="fill: none; stroke: #000000; stroke-width: 0.8; stroke-linejoin: miter; stroke-linecap: square"/>
   </g>
  </g>
  <g id="axes_2">
   <g id="patch_7">
    <path d="M 342 223.2 
L 558 223.2 
L 558 7.2 
L 342 7.2 
z
" style="fill: #ffffff"/>
   </g>
   <g id="matplotlib.axis_3">
    <g id="xtick_6">
     <g id="line2d_15">
      <g>
       <use xlink:href="#m19ae5c6619" x="342" y="223.2" style="stroke: #000000; stroke-width: 0.8"/>
      </g>
     </g>
     <g id="text_12">
      <!-- 0 -->
      <g transform="translate(338.81875 237.798437) scale(0.1 -0.1)">
       <use xlink:href="#DejaVuSans-30"/>
      </g>
     </g>
    </g>
    <g id="xtick_7">
     <g id="line2d_16">
      <g>
       <use xlink:href="#m19ae5c6619" x="393.428571" y="223.2" style="stroke: #000000; stroke-width: 0.8"/>
      </g>
     </g>
     <g id="text_13">
      <!-- 5 -->
      <g transform="translate(390.247321 237.798437) scale(0.1 -0.1)">
       <use xlink:href="#DejaVuSans-35"/>
      </g>
     </g>
    </g>
    <g id="xtick_8">
     <g id="line2d_17">
      <g>
       <use xlink:href="#m19ae5c6619" x="444.857143" y="223.2" style="stroke: #000000; stroke-width: 0.8"/>
      </g>
     </g>
     <g id="text_14">
      <!-- 10 -->
      <g transform="translate(438.494643 237.798437) scale(0.1 -0.1)">
       <use xlink:href="#DejaVuSans-31"/>
       <use xlink:href="#DejaVuSans-30" x="63.623047"/>
      </g>
     </g>
    </g>
    <g id="xtick_9">
     <g id="line2d_18">
      <g>
       <use xlink:href="#m19ae5c6619" x="496.285714" y="223.2" style="stroke: #000000; stroke-width: 0.8"/>
      </g>
     </g>
     <g id="text_15">
      <!-- 15 -->
      <g transform="translate(489.923214 237.798437) scale(0.1 -0.1)">
       <use xlink:href="#DejaVuSans-31"/>
       <use xlink:href="#DejaVuSans-35" x="63.623047"/>
      </g>
     </g>
    </g>
    <g id="xtick_10">
     <g id="line2d_19">
      <g>
       <use xlink:href="#m19ae5c6619" x="547.714286" y="223.2" style="stroke: #000000; stroke-width: 0.8"/>
      </g>
     </g>
     <g id="text_16">
      <!-- 20 -->
      <g transform="translate(541.351786 237.798437) scale(0.1 -0.1)">
       <use xlink:href="#DejaVuSans-32"/>
       <use xlink:href="#DejaVuSans-30" x="63.623047"/>
      </g>
     </g>
    </g>
    <g id="text_17">
     <!-- channel width -->
     <g transform="translate(414.844531 251.476562) scale(0.1 -0.1)">
      <use xlink:href="#DejaVuSans-63"/>
      <use xlink:href="#DejaVuSans-68" x="54.980469"/>
      <use xlink:href="#DejaVuSans-61" x="118.359375"/>
      <use xlink:href="#DejaVuSans-6e" x="179.638672"/>
      <use xlink:href="#DejaVuSans-6e" x="243.017578"/>
      <use xlink:href="#DejaVuSans-65" x="306.396484"/>
      <use xlink:href="#DejaVuSans-6c" x="367.919922"/>
      <use xlink:href="#DejaVuSans-20" x="395.703125"/>
      <use xlink:href="#DejaVuSans-77" x="427.490234"/>
      <use xlink:href="#DejaVuSans-69" x="509.277344"/>
      <use xlink:href="#DejaVuSans-64" x="537.060547"/>
      <use xlink:href="#DejaVuSans-74" x="600.537109"/>
      <use xlink:href="#DejaVuSans-68" x="639.746094"/>
     </g>
    </g>
   </g>
   <g id="matplotlib.axis_4">
    <g id="ytick_5">
     <g id="line2d_20">
      <g>
       <use xlink:href="#m05346dfc9a" x="342" y="194.182497" style="stroke: #000000; stroke-width: 0.8"/>
      </g>
     </g>
     <g id="text_18">
      <!-- $\mathdefault{10^{-4}}$ -->
      <g transform="translate(311.5 197.981716) scale(0.1 -0.1)">
       <use xlink:href="#DejaVuSans-31" transform="translate(0 0.684375)"/>
       <use xlink:href="#DejaVuSans-30" transform="translate(63.623047 0.684375)"/>
       <use xlink:href="#DejaVuSans-2212" transform="translate(128.203125 38.965625) scale(0.7)"/>
       <use xlink:href="#DejaVuSans-34" transform="translate(186.855469 38.965625) scale(0.7)"/>
      </g>
     </g>
    </g>
    <g id="ytick_6">
     <g id="line2d_21">
      <g>
       <use xlink:href="#m05346dfc9a" x="342" y="152.667835" style="stroke: #000000; stroke-width: 0.8"/>
      </g>
     </g>
     <g id="text_19">
      <!-- $\mathdefault{10^{-3}}$ -->
      <g transform="translate(311.5 156.467054) scale(0.1 -0.1)">
       <defs>
        <path id="DejaVuSans-33" d="M 2597 2516 
Q 3050 2419 3304 2112 
Q 3559 1806 3559 1356 
Q 3559 666 3084 287 
Q 2609 -91 1734 -91 
Q 1441 -91 1130 -33 
Q 819 25 488 141 
L 488 750 
Q 750 597 1062 519 
Q 1375 441 1716 441 
Q 2309 441 2620 675 
Q 2931 909 2931 1356 
Q 2931 1769 2642 2001 
Q 2353 2234 1838 2234 
L 1294 2234 
L 1294 2753 
L 1863 2753 
Q 2328 2753 2575 2939 
Q 2822 3125 2822 3475 
Q 2822 3834 2567 4026 
Q 2313 4219 1838 4219 
Q 1578 4219 1281 4162 
Q 984 4106 628 3988 
L 628 4550 
Q 988 4650 1302 4700 
Q 1616 4750 1894 4750 
Q 2613 4750 3031 4423 
Q 3450 4097 3450 3541 
Q 3450 3153 3228 2886 
Q 3006 2619 2597 2516 
z
" transform="scale(0.015625)"/>
       </defs>
       <use xlink:href="#DejaVuSans-31" transform="translate(0 0.765625)"/>
       <use xlink:href="#DejaVuSans-30" transform="translate(63.623047 0.765625)"/>
       <use xlink:href="#DejaVuSans-2212" transform="translate(128.203125 39.046875) scale(0.7)"/>
       <use xlink:href="#DejaVuSans-33" transform="translate(186.855469 39.046875) scale(0.7)"/>
      </g>
     </g>
    </g>
    <g id="ytick_7">
     <g id="line2d_22">
      <g>
       <use xlink:href="#m05346dfc9a" x="342" y="111.153173" style="stroke: #000000; stroke-width: 0.8"/>
      </g>
     </g>
     <g id="text_20">
      <!-- $\mathdefault{10^{-2}}$ -->
      <g transform="translate(311.5 114.952392) scale(0.1 -0.1)">
       <use xlink:href="#DejaVuSans-31" transform="translate(0 0.765625)"/>
       <use xlink:href="#DejaVuSans-30" transform="translate(63.623047 0.765625)"/>
       <use xlink:href="#DejaVuSans-2212" transform="translate(128.203125 39.046875) scale(0.7)"/>
       <use xlink:href="#DejaVuSans-32" transform="translate(186.855469 39.046875) scale(0.7)"/>
      </g>
     </g>
    </g>
    <g id="ytick_8">
     <g id="line2d_23">
      <g>
       <use xlink:href="#m05346dfc9a" x="342" y="69.638512" style="stroke: #000000; stroke-width: 0.8"/>
      </g>
     </g>
     <g id="text_21">
      <!-- $\mathdefault{10^{-1}}$ -->
      <g transform="translate(311.5 73.437731) scale(0.1 -0.1)">
       <use xlink:href="#DejaVuSans-31" transform="translate(0 0.684375)"/>
       <use xlink:href="#DejaVuSans-30" transform="translate(63.623047 0.684375)"/>
       <use xlink:href="#DejaVuSans-2212" transform="translate(128.203125 38.965625) scale(0.7)"/>
       <use xlink:href="#DejaVuSans-31" transform="translate(186.855469 38.965625) scale(0.7)"/>
      </g>
     </g>
    </g>
    <g id="ytick_9">
     <g id="line2d_24">
      <g>
       <use xlink:href="#m05346dfc9a" x="342" y="28.12385" style="stroke: #000000; stroke-width: 0.8"/>
      </g>
     </g>
     <g id="text_22">
      <!-- $\mathdefault{10^{0}}$ -->
      <g transform="translate(317.4 31.923069) scale(0.1 -0.1)">
       <use xlink:href="#DejaVuSans-31" transform="translate(0 0.765625)"/>
       <use xlink:href="#DejaVuSans-30" transform="translate(63.623047 0.765625)"/>
       <use xlink:href="#DejaVuSans-30" transform="translate(128.203125 39.046875) scale(0.7)"/>
      </g>
     </g>
    </g>
    <g id="ytick_10">
     <g id="line2d_25">
      <defs>
       <path id="mcb9c1a2d0c" d="M 0 0 
L -2 0 
" style="stroke: #000000; stroke-width: 0.6"/>
      </defs>
      <g>
       <use xlink:href="#mcb9c1a2d0c" x="342" y="223.2" style="stroke: #000000; stroke-width: 0.6"/>
      </g>
     </g>
    </g>
    <g id="ytick_11">
     <g id="line2d_26">
      <g>
       <use xlink:href="#mcb9c1a2d0c" x="342" y="215.889631" style="stroke: #000000; stroke-width: 0.6"/>
      </g>
     </g>
    </g>
    <g id="ytick_12">
     <g id="line2d_27">
      <g>
       <use xlink:href="#mcb9c1a2d0c" x="342" y="210.702842" style="stroke: #000000; stroke-width: 0.6"/>
      </g>
     </g>
    </g>
    <g id="ytick_13">
     <g id="line2d_28">
      <g>
       <use xlink:href="#mcb9c1a2d0c" x="342" y="206.679655" style="stroke: #000000; stroke-width: 0.6"/>
      </g>
     </g>
    </g>
    <g id="ytick_14">
     <g id="line2d_29">
      <g>
       <use xlink:href="#mcb9c1a2d0c" x="342" y="203.392473" style="stroke: #000000; stroke-width: 0.6"/>
      </g>
     </g>
    </g>
    <g id="ytick_15">
     <g id="line2d_30">
      <g>
       <use xlink:href="#mcb9c1a2d0c" x="342" y="200.613199" style="stroke: #000000; stroke-width: 0.6"/>
      </g>
     </g>
    </g>
    <g id="ytick_16">
     <g id="line2d_31">
      <g>
       <use xlink:href="#mcb9c1a2d0c" x="342" y="198.205683" style="stroke: #000000; stroke-width: 0.6"/>
      </g>
     </g>
    </g>
    <g id="ytick_17">
     <g id="line2d_32">
      <g>
       <use xlink:href="#mcb9c1a2d0c" x="342" y="196.082104" style="stroke: #000000; stroke-width: 0.6"/>
      </g>
     </g>
    </g>
    <g id="ytick_18">
     <g id="line2d_33">
      <g>
       <use xlink:href="#mcb9c1a2d0c" x="342" y="181.685338" style="stroke: #000000; stroke-width: 0.6"/>
      </g>
     </g>
    </g>
    <g id="ytick_19">
     <g id="line2d_34">
      <g>
       <use xlink:href="#mcb9c1a2d0c" x="342" y="174.374969" style="stroke: #000000; stroke-width: 0.6"/>
      </g>
     </g>
    </g>
    <g id="ytick_20">
     <g id="line2d_35">
      <g>
       <use xlink:href="#mcb9c1a2d0c" x="342" y="169.18818" style="stroke: #000000; stroke-width: 0.6"/>
      </g>
     </g>
    </g>
    <g id="ytick_21">
     <g id="line2d_36">
      <g>
       <use xlink:href="#mcb9c1a2d0c" x="342" y="165.164994" style="stroke: #000000; stroke-width: 0.6"/>
      </g>
     </g>
    </g>
    <g id="ytick_22">
     <g id="line2d_37">
      <g>
       <use xlink:href="#mcb9c1a2d0c" x="342" y="161.877811" style="stroke: #000000; stroke-width: 0.6"/>
      </g>
     </g>
    </g>
    <g id="ytick_23">
     <g id="line2d_38">
      <g>
       <use xlink:href="#mcb9c1a2d0c" x="342" y="159.098538" style="stroke: #000000; stroke-width: 0.6"/>
      </g>
     </g>
    </g>
    <g id="ytick_24">
     <g id="line2d_39">
      <g>
       <use xlink:href="#mcb9c1a2d0c" x="342" y="156.691022" style="stroke: #000000; stroke-width: 0.6"/>
      </g>
     </g>
    </g>
    <g id="ytick_25">
     <g id="line2d_40">
      <g>
       <use xlink:href="#mcb9c1a2d0c" x="342" y="154.567442" style="stroke: #000000; stroke-width: 0.6"/>
      </g>
     </g>
    </g>
    <g id="ytick_26">
     <g id="line2d_41">
      <g>
       <use xlink:href="#mcb9c1a2d0c" x="342" y="140.170677" style="stroke: #000000; stroke-width: 0.6"/>
      </g>
     </g>
    </g>
    <g id="ytick_27">
     <g id="line2d_42">
      <g>
       <use xlink:href="#mcb9c1a2d0c" x="342" y="132.860308" style="stroke: #000000; stroke-width: 0.6"/>
      </g>
     </g>
    </g>
    <g id="ytick_28">
     <g id="line2d_43">
      <g>
       <use xlink:href="#mcb9c1a2d0c" x="342" y="127.673518" style="stroke: #000000; stroke-width: 0.6"/>
      </g>
     </g>
    </g>
    <g id="ytick_29">
     <g id="line2d_44">
      <g>
       <use xlink:href="#mcb9c1a2d0c" x="342" y="123.650332" style="stroke: #000000; stroke-width: 0.6"/>
      </g>
     </g>
    </g>
    <g id="ytick_30">
     <g id="line2d_45">
      <g>
       <use xlink:href="#mcb9c1a2d0c" x="342" y="120.363149" style="stroke: #000000; stroke-width: 0.6"/>
      </g>
     </g>
    </g>
    <g id="ytick_31">
     <g id="line2d_46">
      <g>
       <use xlink:href="#mcb9c1a2d0c" x="342" y="117.583876" style="stroke: #000000; stroke-width: 0.6"/>
      </g>
     </g>
    </g>
    <g id="ytick_32">
     <g id="line2d_47">
      <g>
       <use xlink:href="#mcb9c1a2d0c" x="342" y="115.17636" style="stroke: #000000; stroke-width: 0.6"/>
      </g>
     </g>
    </g>
    <g id="ytick_33">
     <g id="line2d_48">
      <g>
       <use xlink:href="#mcb9c1a2d0c" x="342" y="113.05278" style="stroke: #000000; stroke-width: 0.6"/>
      </g>
     </g>
    </g>
    <g id="ytick_34">
     <g id="line2d_49">
      <g>
       <use xlink:href="#mcb9c1a2d0c" x="342" y="98.656015" style="stroke: #000000; stroke-width: 0.6"/>
      </g>
     </g>
    </g>
    <g id="ytick_35">
     <g id="line2d_50">
      <g>
       <use xlink:href="#mcb9c1a2d0c" x="342" y="91.345646" style="stroke: #000000; stroke-width: 0.6"/>
      </g>
     </g>
    </g>
    <g id="ytick_36">
     <g id="line2d_51">
      <g>
       <use xlink:href="#mcb9c1a2d0c" x="342" y="86.158857" style="stroke: #000000; stroke-width: 0.6"/>
      </g>
     </g>
    </g>
    <g id="ytick_37">
     <g id="line2d_52">
      <g>
       <use xlink:href="#mcb9c1a2d0c" x="342" y="82.13567" style="stroke: #000000; stroke-width: 0.6"/>
      </g>
     </g>
    </g>
    <g id="ytick_38">
     <g id="line2d_53">
      <g>
       <use xlink:href="#mcb9c1a2d0c" x="342" y="78.848488" style="stroke: #000000; stroke-width: 0.6"/>
      </g>
     </g>
    </g>
    <g id="ytick_39">
     <g id="line2d_54">
      <g>
       <use xlink:href="#mcb9c1a2d0c" x="342" y="76.069214" style="stroke: #000000; stroke-width: 0.6"/>
      </g>
     </g>
    </g>
    <g id="ytick_40">
     <g id="line2d_55">
      <g>
       <use xlink:href="#mcb9c1a2d0c" x="342" y="73.661698" style="stroke: #000000; stroke-width: 0.6"/>
      </g>
     </g>
    </g>
    <g id="ytick_41">
     <g id="line2d_56">
      <g>
       <use xlink:href="#mcb9c1a2d0c" x="342" y="71.538119" style="stroke: #000000; stroke-width: 0.6"/>
      </g>
     </g>
    </g>
    <g id="ytick_42">
     <g id="line2d_57">
      <g>
       <use xlink:href="#mcb9c1a2d0c" x="342" y="57.141353" style="stroke: #000000; stroke-width: 0.6"/>
      </g>
     </g>
    </g>
    <g id="ytick_43">
     <g id="line2d_58">
      <g>
       <use xlink:href="#mcb9c1a2d0c" x="342" y="49.830984" style="stroke: #000000; stroke-width: 0.6"/>
      </g>
     </g>
    </g>
    <g id="ytick_44">
     <g id="line2d_59">
      <g>
       <use xlink:href="#mcb9c1a2d0c" x="342" y="44.644195" style="stroke: #000000; stroke-width: 0.6"/>
      </g>
     </g>
    </g>
    <g id="ytick_45">
     <g id="line2d_60">
      <g>
       <use xlink:href="#mcb9c1a2d0c" x="342" y="40.621009" style="stroke: #000000; stroke-width: 0.6"/>
      </g>
     </g>
    </g>
    <g id="ytick_46">
     <g id="line2d_61">
      <g>
       <use xlink:href="#mcb9c1a2d0c" x="342" y="37.333826" style="stroke: #000000; stroke-width: 0.6"/>
      </g>
     </g>
    </g>
    <g id="ytick_47">
     <g id="line2d_62">
      <g>
       <use xlink:href="#mcb9c1a2d0c" x="342" y="34.554553" style="stroke: #000000; stroke-width: 0.6"/>
      </g>
     </g>
    </g>
    <g id="ytick_48">
     <g id="line2d_63">
      <g>
       <use xlink:href="#mcb9c1a2d0c" x="342" y="32.147037" style="stroke: #000000; stroke-width: 0.6"/>
      </g>
     </g>
    </g>
    <g id="ytick_49">
     <g id="line2d_64">
      <g>
       <use xlink:href="#mcb9c1a2d0c" x="342" y="30.023457" style="stroke: #000000; stroke-width: 0.6"/>
      </g>
     </g>
    </g>
    <g id="ytick_50">
     <g id="line2d_65">
      <g>
       <use xlink:href="#mcb9c1a2d0c" x="342" y="15.626692" style="stroke: #000000; stroke-width: 0.6"/>
      </g>
     </g>
    </g>
    <g id="ytick_51">
     <g id="line2d_66">
      <g>
       <use xlink:href="#mcb9c1a2d0c" x="342" y="8.316323" style="stroke: #000000; stroke-width: 0.6"/>
      </g>
     </g>
    </g>
    <g id="text_23">
     <!-- propensity [step$^{-1}$] -->
     <g transform="translate(305.4 163.5) rotate(-90) scale(0.1 -0.1)">
      <use xlink:href="#DejaVuSans-70" transform="translate(0 0.684375)"/>
      <use xlink:href="#DejaVuSans-72" transform="translate(63.476562 0.684375)"/>
      <use xlink:href="#DejaVuSans-6f" transform="translate(104.589844 0.684375)"/>
      <use xlink:href="#DejaVuSans-70" transform="translate(165.771484 0.684375)"/>
      <use xlink:href="#DejaVuSans-65" transform="translate(229.248047 0.684375)"/>
      <use xlink:href="#DejaVuSans-6e" transform="translate(290.771484 0.684375)"/>
      <use xlink:href="#DejaVuSans-73" transform="translate(354.150391 0.684375)"/>
      <use xlink:href="#DejaVuSans-69" transform="translate(406.25 0.684375)"/>
      <use xlink:href="#DejaVuSans-74" transform="translate(434.033203 0.684375)"/>
      <use xlink:href="#DejaVuSans-79" transform="translate(473.242188 0.684375)"/>
      <use xlink:href="#DejaVuSans-20" transform="translate(532.421875 0.684375)"/>
      <use xlink:href="#DejaVuSans-5b" transform="translate(564.208984 0.684375)"/>
      <use xlink:href="#DejaVuSans-73" transform="translate(603.222656 0.684375)"/>
      <use xlink:href="#DejaVuSans-74" transform="translate(655.322266 0.684375)"/>
      <use xlink:href="#DejaVuSans-65" transform="translate(694.53125 0.684375)"/>
      <use xlink:href="#DejaVuSans-70" transform="translate(756.054688 0.684375)"/>
      <use xlink:href="#DejaVuSans-2212" transform="translate(820.488281 38.965625) scale(0.7)"/>
      <use xlink:href="#DejaVuSans-31" transform="translate(879.140625 38.965625) scale(0.7)"/>
      <use xlink:href="#DejaVuSans-5d" transform="translate(926.411133 0.684375)"/>
     </g>
    </g>
   </g>
   <g id="line2d_67">
    <g clip-path="url(#p1b7a040e46)">
     <use xlink:href="#m727b27b4ad" x="352.285714" y="63.79559" style="fill: #808000; stroke: #808000; stroke-linejoin: miter"/>
     <use xlink:href="#m727b27b4ad" x="362.571429" y="102.273588" style="fill: #808000; stroke: #808000; stroke-linejoin: miter"/>
     <use xlink:href="#m727b27b4ad" x="372.857143" y="135.056505" style="fill: #808000; stroke: #808000; stroke-linejoin: miter"/>
     <use xlink:href="#m727b27b4ad" x="383.142857" y="165.752076" style="fill: #808000; stroke: #808000; stroke-linejoin: miter"/>
     <use xlink:href="#m727b27b4ad" x="393.428571" y="194.801883" style="fill: #808000; stroke: #808000; stroke-linejoin: miter"/>
     <use xlink:href="#m727b27b4ad" x="403.714286" y="219.356198" style="fill: #808000; stroke: #808000; stroke-linejoin: miter"/>
     <use xlink:href="#m727b27b4ad" x="414" y="233.963415" style="fill: #808000; stroke: #808000; stroke-linejoin: miter"/>
     <use xlink:href="#m727b27b4ad" x="424.285714" y="236.501493" style="fill: #808000; stroke: #808000; stroke-linejoin: miter"/>
     <use xlink:href="#m727b27b4ad" x="434.571429" y="232.620663" style="fill: #808000; stroke: #808000; stroke-linejoin: miter"/>
     <use xlink:href="#m727b27b4ad" x="444.857143" y="232.210905" style="fill: #808000; stroke: #808000; stroke-linejoin: miter"/>
     <use xlink:href="#m727b27b4ad" x="465.428571" y="229.744511" style="fill: #808000; stroke: #808000; stroke-linejoin: miter"/>
     <use xlink:href="#m727b27b4ad" x="486" y="232.912693" style="fill: #808000; stroke: #808000; stroke-linejoin: miter"/>
     <use xlink:href="#m727b27b4ad" x="506.571429" y="229.853194" style="fill: #808000; stroke: #808000; stroke-linejoin: miter"/>
     <use xlink:href="#m727b27b4ad" x="527.142857" y="231.540309" style="fill: #808000; stroke: #808000; stroke-linejoin: miter"/>
     <use xlink:href="#m727b27b4ad" x="547.714286" y="233.575572" style="fill: #808000; stroke: #808000; stroke-linejoin: miter"/>
    </g>
   </g>
   <g id="line2d_68">
    <g clip-path="url(#p1b7a040e46)">
     <use xlink:href="#m2efd68fdeb" x="357.985574" y="18663.4" style="fill: #800000; stroke: #800000; stroke-linejoin: miter"/>
     <use xlink:href="#m2efd68fdeb" x="362.571429" y="255.659336" style="fill: #800000; stroke: #800000; stroke-linejoin: miter"/>
     <use xlink:href="#m2efd68fdeb" x="372.857143" y="221.314364" style="fill: #800000; stroke: #800000; stroke-linejoin: miter"/>
     <use xlink:href="#m2efd68fdeb" x="383.142857" y="206.71262" style="fill: #800000; stroke: #800000; stroke-linejoin: miter"/>
     <use xlink:href="#m2efd68fdeb" x="393.428571" y="199.06672" style="fill: #800000; stroke: #800000; stroke-linejoin: miter"/>
     <use xlink:href="#m2efd68fdeb" x="403.714286" y="194.695772" style="fill: #800000; stroke: #800000; stroke-linejoin: miter"/>
     <use xlink:href="#m2efd68fdeb" x="414" y="191.227158" style="fill: #800000; stroke: #800000; stroke-linejoin: miter"/>
     <use xlink:href="#m2efd68fdeb" x="424.285714" y="187.994046" style="fill: #800000; stroke: #800000; stroke-linejoin: miter"/>
     <use xlink:href="#m2efd68fdeb" x="434.571429" y="187.027424" style="fill: #800000; stroke: #800000; stroke-linejoin: miter"/>
     <use xlink:href="#m2efd68fdeb" x="444.857143" y="183.752435" style="fill: #800000; stroke: #800000; stroke-linejoin: miter"/>
     <use xlink:href="#m2efd68fdeb" x="465.428571" y="180.98915" style="fill: #800000; stroke: #800000; stroke-linejoin: miter"/>
     <use xlink:href="#m2efd68fdeb" x="486" y="178.05524" style="fill: #800000; stroke: #800000; stroke-linejoin: miter"/>
     <use xlink:href="#m2efd68fdeb" x="506.571429" y="175.660474" style="fill: #800000; stroke: #800000; stroke-linejoin: miter"/>
     <use xlink:href="#m2efd68fdeb" x="527.142857" y="173.992619" style="fill: #800000; stroke: #800000; stroke-linejoin: miter"/>
     <use xlink:href="#m2efd68fdeb" x="547.714286" y="171.973849" style="fill: #800000; stroke: #800000; stroke-linejoin: miter"/>
    </g>
   </g>
   <g id="line2d_69">
    <path d="M 342 38.230957 
L 344.057143 44.437148 
L 346.114286 50.64334 
L 348.171429 56.849531 
L 350.228571 63.055723 
L 352.285714 69.261914 
L 354.342857 75.468105 
L 356.4 81.674297 
L 358.457143 87.880488 
L 360.514286 94.08668 
L 362.571429 100.292871 
L 364.628571 106.499062 
L 366.685714 112.705254 
L 368.742857 118.911445 
L 370.8 125.117637 
L 372.857143 131.323828 
L 374.914286 137.530019 
L 376.971429 143.736211 
L 379.028571 149.942402 
L 381.085714 156.148594 
L 383.142857 162.354785 
L 385.2 168.560976 
L 387.257143 174.767168 
L 389.314286 180.973359 
L 391.371429 187.179551 
L 393.428571 193.385742 
L 395.485714 199.591933 
L 397.542857 205.798125 
L 399.6 212.004316 
L 401.657143 218.210508 
L 403.714286 224.416699 
L 405.771429 230.62289 
L 407.828571 236.829082 
L 409.885714 243.035273 
L 411.942857 249.241465 
L 414 255.447656 
L 415.575242 260.2 
" clip-path="url(#p1b7a040e46)" style="fill: none; stroke: #808000; stroke-opacity: 0.3; stroke-width: 1.5; stroke-linecap: square"/>
   </g>
   <g id="line2d_70">
    <path d="M 354.501618 260.2 
L 356.4 244.563094 
L 358.457143 235.984597 
L 360.514286 230.195695 
L 362.571429 225.820662 
L 364.628571 222.302673 
L 366.685714 219.360329 
L 368.742857 216.83147 
L 370.8 214.614074 
L 372.857143 212.639764 
L 374.914286 210.860469 
L 376.971429 209.241104 
L 379.028571 207.755273 
L 381.085714 206.382623 
L 383.142857 205.107125 
L 385.2 203.91593 
L 387.257143 202.798582 
L 389.314286 201.746457 
L 391.371429 200.752358 
L 393.428571 199.810219 
L 395.485714 198.914877 
L 397.542857 198.061901 
L 399.6 197.247463 
L 401.657143 196.46823 
L 403.714286 195.721285 
L 405.771429 195.004058 
L 407.828571 194.314274 
L 409.885714 193.649911 
L 411.942857 193.009161 
L 414 192.390403 
L 416.057143 191.792177 
L 418.114286 191.213166 
L 420.171429 190.652171 
L 422.228571 190.108107 
L 424.285714 189.57998 
L 426.342857 189.066885 
L 428.4 188.567988 
L 430.457143 188.082525 
L 432.514286 187.609792 
L 434.571429 187.149138 
L 436.628571 186.699961 
L 438.685714 186.261703 
L 440.742857 185.833845 
L 442.8 185.415906 
L 444.857143 185.007436 
L 446.914286 184.608016 
L 448.971429 184.217253 
L 451.028571 183.834779 
L 453.085714 183.460251 
L 455.142857 183.093345 
L 457.2 182.733757 
L 459.257143 182.381201 
L 461.314286 182.035406 
L 463.371429 181.696119 
L 465.428571 181.363099 
L 467.485714 181.036119 
L 469.542857 180.714964 
L 471.6 180.399429 
L 473.657143 180.089321 
L 475.714286 179.784457 
L 477.771429 179.484663 
L 479.828571 179.189772 
L 481.885714 178.899627 
L 483.942857 178.614077 
L 486 178.332979 
L 488.057143 178.056197 
L 490.114286 177.783599 
L 492.171429 177.515062 
L 494.228571 177.250466 
L 496.285714 176.989696 
L 498.342857 176.732645 
L 500.4 176.479207 
L 502.457143 176.229282 
L 504.514286 175.982775 
L 506.571429 175.739592 
L 508.628571 175.499646 
L 510.685714 175.262851 
L 512.742857 175.029126 
L 514.8 174.798392 
L 516.857143 174.570573 
L 518.914286 174.345598 
L 520.971429 174.123395 
L 523.028571 173.903897 
L 525.085714 173.68704 
L 527.142857 173.472759 
L 529.2 173.260996 
L 531.257143 173.051691 
L 533.314286 172.844788 
L 535.371429 172.640232 
L 537.428571 172.437971 
L 539.485714 172.237954 
L 541.542857 172.040132 
L 543.6 171.844457 
L 545.657143 171.650882 
L 547.714286 171.459364 
" clip-path="url(#p1b7a040e46)" style="fill: none; stroke: #800000; stroke-opacity: 0.4; stroke-width: 1.5; stroke-linecap: square"/>
   </g>
   <g id="line2d_71">
    <path d="M 342 38.231588 
L 344.057143 44.437872 
L 346.114286 50.644127 
L 348.171429 56.850311 
L 350.228571 63.056356 
L 352.285714 69.26215 
L 354.342857 75.46751 
L 356.4 81.672147 
L 358.457143 87.875608 
L 360.514286 94.077189 
L 362.571429 100.275807 
L 364.628571 106.469809 
L 366.685714 112.656691 
L 368.742857 118.832677 
L 370.8 124.992122 
L 372.857143 131.12664 
L 374.914286 137.22388 
L 376.971429 143.265846 
L 379.028571 149.226674 
L 381.085714 155.0699 
L 383.142857 160.745452 
L 385.2 166.187113 
L 387.257143 171.311846 
L 389.314286 176.023158 
L 391.371429 180.220649 
L 393.428571 183.816169 
L 395.485714 186.753069 
L 397.542857 189.021062 
L 399.6 190.659309 
L 401.657143 191.746014 
L 403.714286 192.380019 
L 405.771429 192.662539 
L 407.828571 192.684535 
L 409.885714 192.520823 
L 411.942857 192.229255 
L 414 191.852656 
L 416.057143 191.421755 
L 418.114286 190.958101 
L 420.171429 190.47654 
L 422.228571 189.987141 
L 424.285714 189.496632 
L 426.342857 189.009426 
L 428.4 188.528355 
L 430.457143 188.055171 
L 432.514286 187.590902 
L 434.571429 187.136085 
L 436.628571 186.690935 
L 438.685714 186.255459 
L 440.742857 185.829523 
L 442.8 185.412913 
L 444.857143 185.005362 
L 446.914286 184.606578 
L 448.971429 184.216255 
L 451.028571 183.834087 
L 453.085714 183.459771 
L 455.142857 183.093011 
L 457.2 182.733525 
L 459.257143 182.381039 
L 461.314286 182.035294 
L 463.371429 181.696041 
L 465.428571 181.363045 
L 467.485714 181.036081 
L 469.542857 180.714937 
L 471.6 180.39941 
L 473.657143 180.089308 
L 475.714286 179.784448 
L 477.771429 179.484657 
L 479.828571 179.189768 
L 481.885714 178.899624 
L 483.942857 178.614075 
L 486 178.332978 
L 488.057143 178.056196 
L 490.114286 177.783599 
L 492.171429 177.515061 
L 494.228571 177.250465 
L 496.285714 176.989696 
L 498.342857 176.732645 
L 500.4 176.479207 
L 502.457143 176.229282 
L 504.514286 175.982775 
L 506.571429 175.739592 
L 508.628571 175.499646 
L 510.685714 175.262851 
L 512.742857 175.029126 
L 514.8 174.798392 
L 516.857143 174.570573 
L 518.914286 174.345598 
L 520.971429 174.123395 
L 523.028571 173.903897 
L 525.085714 173.68704 
L 527.142857 173.472759 
L 529.2 173.260996 
L 531.257143 173.051691 
L 533.314286 172.844788 
L 535.371429 172.640232 
L 537.428571 172.437971 
L 539.485714 172.237954 
L 541.542857 172.040132 
L 543.6 171.844457 
L 545.657143 171.650882 
L 547.714286 171.459364 
" clip-path="url(#p1b7a040e46)" style="fill: none; stroke: #000080; stroke-opacity: 0.4; stroke-width: 1.5; stroke-linecap: square"/>
   </g>
   <g id="patch_8">
    <path d="M 342 223.2 
L 342 7.2 
" style="fill: none; stroke: #000000; stroke-width: 0.8; stroke-linejoin: miter; stroke-linecap: square"/>
   </g>
   <g id="patch_9">
    <path d="M 558 223.2 
L 558 7.2 
" style="fill: none; stroke: #000000; stroke-width: 0.8; stroke-linejoin: miter; stroke-linecap: square"/>
   </g>
   <g id="patch_10">
    <path d="M 342 223.2 
L 558 223.2 
" style="fill: none; stroke: #000000; stroke-width: 0.8; stroke-linejoin: miter; stroke-linecap: square"/>
   </g>
   <g id="patch_11">
    <path d="M 342 7.2 
L 558 7.2 
" style="fill: none; stroke: #000000; stroke-width: 0.8; stroke-linejoin: miter; stroke-linecap: square"/>
   </g>
   <g id="legend_1">
    <g id="patch_12">
     <path d="M 404.6 88.590625 
L 551 88.590625 
Q 553 88.590625 553 86.590625 
L 553 14.2 
Q 553 12.2 551 12.2 
L 404.6 12.2 
Q 402.6 12.2 402.6 14.2 
L 402.6 86.590625 
Q 402.6 88.590625 404.6 88.590625 
z
" style="fill: #ffffff; opacity: 0.8; stroke: #cccccc; stroke-linejoin: miter"/>
    </g>
    <g id="line2d_72">
     <g>
      <use xlink:href="#m727b27b4ad" x="416.6" y="20.298437" style="fill: #808000; stroke: #808000; stroke-linejoin: miter"/>
     </g>
    </g>
    <g id="text_24">
     <!-- failure -->
     <g transform="translate(434.6 23.798437) scale(0.1 -0.1)">
      <defs>
       <path id="DejaVuSans-66" d="M 2375 4863 
L 2375 4384 
L 1825 4384 
Q 1516 4384 1395 4259 
Q 1275 4134 1275 3809 
L 1275 3500 
L 2222 3500 
L 2222 3053 
L 1275 3053 
L 1275 0 
L 697 0 
L 697 3053 
L 147 3053 
L 147 3500 
L 697 3500 
L 697 3744 
Q 697 4328 969 4595 
Q 1241 4863 1831 4863 
L 2375 4863 
z
" transform="scale(0.015625)"/>
       <path id="DejaVuSans-75" d="M 544 1381 
L 544 3500 
L 1119 3500 
L 1119 1403 
Q 1119 906 1312 657 
Q 1506 409 1894 409 
Q 2359 409 2629 706 
Q 2900 1003 2900 1516 
L 2900 3500 
L 3475 3500 
L 3475 0 
L 2900 0 
L 2900 538 
Q 2691 219 2414 64 
Q 2138 -91 1772 -91 
Q 1169 -91 856 284 
Q 544 659 544 1381 
z
M 1991 3584 
L 1991 3584 
z
" transform="scale(0.015625)"/>
      </defs>
      <use xlink:href="#DejaVuSans-66"/>
      <use xlink:href="#DejaVuSans-61" x="35.205078"/>
      <use xlink:href="#DejaVuSans-69" x="96.484375"/>
      <use xlink:href="#DejaVuSans-6c" x="124.267578"/>
      <use xlink:href="#DejaVuSans-75" x="152.050781"/>
      <use xlink:href="#DejaVuSans-72" x="215.429688"/>
      <use xlink:href="#DejaVuSans-65" x="254.292969"/>
     </g>
    </g>
    <g id="line2d_73">
     <g>
      <use xlink:href="#m2efd68fdeb" x="416.6" y="34.976562" style="fill: #800000; stroke: #800000; stroke-linejoin: miter"/>
     </g>
    </g>
    <g id="text_25">
     <!-- spawning -->
     <g transform="translate(434.6 38.476562) scale(0.1 -0.1)">
      <defs>
       <path id="DejaVuSans-67" d="M 2906 1791 
Q 2906 2416 2648 2759 
Q 2391 3103 1925 3103 
Q 1463 3103 1205 2759 
Q 947 2416 947 1791 
Q 947 1169 1205 825 
Q 1463 481 1925 481 
Q 2391 481 2648 825 
Q 2906 1169 2906 1791 
z
M 3481 434 
Q 3481 -459 3084 -895 
Q 2688 -1331 1869 -1331 
Q 1566 -1331 1297 -1286 
Q 1028 -1241 775 -1147 
L 775 -588 
Q 1028 -725 1275 -790 
Q 1522 -856 1778 -856 
Q 2344 -856 2625 -561 
Q 2906 -266 2906 331 
L 2906 616 
Q 2728 306 2450 153 
Q 2172 0 1784 0 
Q 1141 0 747 490 
Q 353 981 353 1791 
Q 353 2603 747 3093 
Q 1141 3584 1784 3584 
Q 2172 3584 2450 3431 
Q 2728 3278 2906 2969 
L 2906 3500 
L 3481 3500 
L 3481 434 
z
" transform="scale(0.015625)"/>
      </defs>
      <use xlink:href="#DejaVuSans-73"/>
      <use xlink:href="#DejaVuSans-70" x="52.099609"/>
      <use xlink:href="#DejaVuSans-61" x="115.576172"/>
      <use xlink:href="#DejaVuSans-77" x="176.855469"/>
      <use xlink:href="#DejaVuSans-6e" x="258.642578"/>
      <use xlink:href="#DejaVuSans-69" x="322.021484"/>
      <use xlink:href="#DejaVuSans-6e" x="349.804688"/>
      <use xlink:href="#DejaVuSans-67" x="413.183594"/>
     </g>
    </g>
    <g id="line2d_74">
     <path d="M 406.6 49.654687 
L 416.6 49.654687 
L 426.6 49.654687 
" style="fill: none; stroke: #808000; stroke-opacity: 0.3; stroke-width: 1.5; stroke-linecap: square"/>
    </g>
    <g id="text_26">
     <!-- $\lambda_f$ = 0.57 $\times$ 5.59$^{-w}$ -->
     <g transform="translate(434.6 53.154687) scale(0.1 -0.1)">
      <defs>
       <path id="DejaVuSans-Oblique-3bb" d="M 2350 4316 
L 3125 0 
L 2516 0 
L 2038 2588 
L 328 0 
L -281 0 
L 1903 3356 
L 1794 3975 
Q 1725 4369 1391 4369 
L 1091 4369 
L 1184 4863 
L 1550 4856 
Q 2253 4847 2350 4316 
z
" transform="scale(0.015625)"/>
       <path id="DejaVuSans-Oblique-66" d="M 3059 4863 
L 2969 4384 
L 2419 4384 
Q 2106 4384 1964 4261 
Q 1822 4138 1753 3809 
L 1691 3500 
L 2638 3500 
L 2553 3053 
L 1606 3053 
L 1013 0 
L 434 0 
L 1031 3053 
L 481 3053 
L 563 3500 
L 1113 3500 
L 1159 3744 
Q 1278 4363 1576 4613 
Q 1875 4863 2516 4863 
L 3059 4863 
z
" transform="scale(0.015625)"/>
       <path id="DejaVuSans-3d" d="M 678 2906 
L 4684 2906 
L 4684 2381 
L 678 2381 
L 678 2906 
z
M 678 1631 
L 4684 1631 
L 4684 1100 
L 678 1100 
L 678 1631 
z
" transform="scale(0.015625)"/>
       <path id="DejaVuSans-2e" d="M 684 794 
L 1344 794 
L 1344 0 
L 684 0 
L 684 794 
z
" transform="scale(0.015625)"/>
       <path id="DejaVuSans-37" d="M 525 4666 
L 3525 4666 
L 3525 4397 
L 1831 0 
L 1172 0 
L 2766 4134 
L 525 4134 
L 525 4666 
z
" transform="scale(0.015625)"/>
       <path id="DejaVuSans-39" d="M 703 97 
L 703 672 
Q 941 559 1184 500 
Q 1428 441 1663 441 
Q 2288 441 2617 861 
Q 2947 1281 2994 2138 
Q 2813 1869 2534 1725 
Q 2256 1581 1919 1581 
Q 1219 1581 811 2004 
Q 403 2428 403 3163 
Q 403 3881 828 4315 
Q 1253 4750 1959 4750 
Q 2769 4750 3195 4129 
Q 3622 3509 3622 2328 
Q 3622 1225 3098 567 
Q 2575 -91 1691 -91 
Q 1453 -91 1209 -44 
Q 966 3 703 97 
z
M 1959 2075 
Q 2384 2075 2632 2365 
Q 2881 2656 2881 3163 
Q 2881 3666 2632 3958 
Q 2384 4250 1959 4250 
Q 1534 4250 1286 3958 
Q 1038 3666 1038 3163 
Q 1038 2656 1286 2365 
Q 1534 2075 1959 2075 
z
" transform="scale(0.015625)"/>
       <path id="DejaVuSans-Oblique-77" d="M 544 3500 
L 1113 3500 
L 1259 684 
L 2566 3500 
L 3231 3500 
L 3425 684 
L 4666 3500 
L 5241 3500 
L 3641 0 
L 2969 0 
L 2797 2900 
L 1459 0 
L 781 0 
L 544 3500 
z
" transform="scale(0.015625)"/>
      </defs>
      <use xlink:href="#DejaVuSans-Oblique-3bb" transform="translate(0 0.4375)"/>
      <use xlink:href="#DejaVuSans-Oblique-66" transform="translate(59.179688 -15.96875) scale(0.7)"/>
      <use xlink:href="#DejaVuSans-20" transform="translate(86.557617 0.4375)"/>
      <use xlink:href="#DejaVuSans-3d" transform="translate(118.344727 0.4375)"/>
      <use xlink:href="#DejaVuSans-20" transform="translate(202.133789 0.4375)"/>
      <use xlink:href="#DejaVuSans-30" transform="translate(233.920898 0.4375)"/>
      <use xlink:href="#DejaVuSans-2e" transform="translate(297.543945 0.4375)"/>
      <use xlink:href="#DejaVuSans-35" transform="translate(329.331055 0.4375)"/>
      <use xlink:href="#DejaVuSans-37" transform="translate(385.704102 0.4375)"/>
      <use xlink:href="#DejaVuSans-20" transform="translate(449.327148 0.4375)"/>
      <use xlink:href="#DejaVuSans-d7" transform="translate(481.114258 0.4375)"/>
      <use xlink:href="#DejaVuSans-20" transform="translate(564.90332 0.4375)"/>
      <use xlink:href="#DejaVuSans-35" transform="translate(596.69043 0.4375)"/>
      <use xlink:href="#DejaVuSans-2e" transform="translate(660.313477 0.4375)"/>
      <use xlink:href="#DejaVuSans-35" transform="translate(692.100586 0.4375)"/>
      <use xlink:href="#DejaVuSans-39" transform="translate(750.223633 0.4375)"/>
      <use xlink:href="#DejaVuSans-2212" transform="translate(814.803711 38.71875) scale(0.7)"/>
      <use xlink:href="#DejaVuSans-Oblique-77" transform="translate(873.456055 38.71875) scale(0.7)"/>
     </g>
    </g>
    <g id="line2d_75">
     <path d="M 406.6 64.332812 
L 416.6 64.332812 
L 426.6 64.332812 
" style="fill: none; stroke: #800000; stroke-opacity: 0.4; stroke-width: 1.5; stroke-linecap: square"/>
    </g>
    <g id="text_27">
     <!-- $\lambda_s$ = (w - 1.07) / 53673 -->
     <g transform="translate(434.6 67.832812) scale(0.1 -0.1)">
      <defs>
       <path id="DejaVuSans-Oblique-73" d="M 3200 3397 
L 3091 2853 
Q 2863 2978 2609 3040 
Q 2356 3103 2088 3103 
Q 1634 3103 1373 2948 
Q 1113 2794 1113 2528 
Q 1113 2219 1719 2053 
Q 1766 2041 1788 2034 
L 1972 1978 
Q 2547 1819 2739 1644 
Q 2931 1469 2931 1166 
Q 2931 609 2489 259 
Q 2047 -91 1331 -91 
Q 1053 -91 747 -37 
Q 441 16 72 128 
L 184 722 
Q 500 559 806 475 
Q 1113 391 1394 391 
Q 1816 391 2080 572 
Q 2344 753 2344 1031 
Q 2344 1331 1650 1516 
L 1591 1531 
L 1394 1581 
Q 956 1697 753 1886 
Q 550 2075 550 2369 
Q 550 2928 970 3256 
Q 1391 3584 2113 3584 
Q 2397 3584 2667 3537 
Q 2938 3491 3200 3397 
z
" transform="scale(0.015625)"/>
       <path id="DejaVuSans-28" d="M 1984 4856 
Q 1566 4138 1362 3434 
Q 1159 2731 1159 2009 
Q 1159 1288 1364 580 
Q 1569 -128 1984 -844 
L 1484 -844 
Q 1016 -109 783 600 
Q 550 1309 550 2009 
Q 550 2706 781 3412 
Q 1013 4119 1484 4856 
L 1984 4856 
z
" transform="scale(0.015625)"/>
       <path id="DejaVuSans-2d" d="M 313 2009 
L 1997 2009 
L 1997 1497 
L 313 1497 
L 313 2009 
z
" transform="scale(0.015625)"/>
       <path id="DejaVuSans-29" d="M 513 4856 
L 1013 4856 
Q 1481 4119 1714 3412 
Q 1947 2706 1947 2009 
Q 1947 1309 1714 600 
Q 1481 -109 1013 -844 
L 513 -844 
Q 928 -128 1133 580 
Q 1338 1288 1338 2009 
Q 1338 2731 1133 3434 
Q 928 4138 513 4856 
z
" transform="scale(0.015625)"/>
       <path id="DejaVuSans-2f" d="M 1625 4666 
L 2156 4666 
L 531 -594 
L 0 -594 
L 1625 4666 
z
" transform="scale(0.015625)"/>
      </defs>
      <use xlink:href="#DejaVuSans-Oblique-3bb" transform="translate(0 0.015625)"/>
      <use xlink:href="#DejaVuSans-Oblique-73" transform="translate(59.179688 -16.390625) scale(0.7)"/>
      <use xlink:href="#DejaVuSans-20" transform="translate(98.383789 0.015625)"/>
      <use xlink:href="#DejaVuSans-3d" transform="translate(130.170898 0.015625)"/>
      <use xlink:href="#DejaVuSans-20" transform="translate(213.959961 0.015625)"/>
      <use xlink:href="#DejaVuSans-28" transform="translate(245.74707 0.015625)"/>
      <use xlink:href="#DejaVuSans-77" transform="translate(284.760742 0.015625)"/>
      <use xlink:href="#DejaVuSans-20" transform="translate(366.547852 0.015625)"/>
      <use xlink:href="#DejaVuSans-2d" transform="translate(398.334961 0.015625)"/>
      <use xlink:href="#DejaVuSans-20" transform="translate(434.418945 0.015625)"/>
      <use xlink:href="#DejaVuSans-31" transform="translate(466.206055 0.015625)"/>
      <use xlink:href="#DejaVuSans-2e" transform="translate(529.829102 0.015625)"/>
      <use xlink:href="#DejaVuSans-30" transform="translate(561.616211 0.015625)"/>
      <use xlink:href="#DejaVuSans-37" transform="translate(625.239258 0.015625)"/>
      <use xlink:href="#DejaVuSans-29" transform="translate(688.862305 0.015625)"/>
      <use xlink:href="#DejaVuSans-20" transform="translate(727.875977 0.015625)"/>
      <use xlink:href="#DejaVuSans-2f" transform="translate(759.663086 0.015625)"/>
      <use xlink:href="#DejaVuSans-20" transform="translate(793.354492 0.015625)"/>
      <use xlink:href="#DejaVuSans-35" transform="translate(825.141602 0.015625)"/>
      <use xlink:href="#DejaVuSans-33" transform="translate(888.764648 0.015625)"/>
      <use xlink:href="#DejaVuSans-36" transform="translate(952.387695 0.015625)"/>
      <use xlink:href="#DejaVuSans-37" transform="translate(1016.010742 0.015625)"/>
      <use xlink:href="#DejaVuSans-33" transform="translate(1079.633789 0.015625)"/>
     </g>
    </g>
    <g id="line2d_76">
     <path d="M 406.6 79.010937 
L 416.6 79.010937 
L 426.6 79.010937 
" style="fill: none; stroke: #000080; stroke-opacity: 0.4; stroke-width: 1.5; stroke-linecap: square"/>
    </g>
    <g id="text_28">
     <!-- $\lambda_f$ + $\lambda_s$ -->
     <g transform="translate(434.6 82.510937) scale(0.1 -0.1)">
      <defs>
       <path id="DejaVuSans-2b" d="M 2944 4013 
L 2944 2272 
L 4684 2272 
L 4684 1741 
L 2944 1741 
L 2944 0 
L 2419 0 
L 2419 1741 
L 678 1741 
L 678 2272 
L 2419 2272 
L 2419 4013 
L 2944 4013 
z
" transform="scale(0.015625)"/>
      </defs>
      <use xlink:href="#DejaVuSans-Oblique-3bb" transform="translate(0 0.015625)"/>
      <use xlink:href="#DejaVuSans-Oblique-66" transform="translate(59.179688 -16.390625) scale(0.7)"/>
      <use xlink:href="#DejaVuSans-20" transform="translate(86.557617 0.015625)"/>
      <use xlink:href="#DejaVuSans-2b" transform="translate(118.344727 0.015625)"/>
      <use xlink:href="#DejaVuSans-20" transform="translate(202.133789 0.015625)"/>
      <use xlink:href="#DejaVuSans-Oblique-3bb" transform="translate(233.920898 0.015625)"/>
      <use xlink:href="#DejaVuSans-Oblique-73" transform="translate(293.100586 -16.390625) scale(0.7)"/>
     </g>
    </g>
   </g>
  </g>
 </g>
 <defs>
  <clipPath id="pbaaf65d404">
   <rect x="72" y="7.2" width="216" height="216"/>
  </clipPath>
  <clipPath id="p1b7a040e46">
   <rect x="342" y="7.2" width="216" height="216"/>
  </clipPath>
 </defs>
</svg>
