<?xml version="1.0" encoding="utf-8" standalone="no"?>
<!DOCTYPE svg PUBLIC "-//W3C//DTD SVG 1.1//EN"
  "http://www.w3.org/Graphics/SVG/1.1/DTD/svg11.dtd">
<svg xmlns:xlink="http://www.w3.org/1999/xlink" width="201.6pt" height="475.2pt" viewBox="0 0 201.6 475.2" xmlns="http://www.w3.org/2000/svg" version="1.1">
 <metadata>
  <rdf:RDF xmlns:dc="http://purl.org/dc/elements/1.1/" xmlns:cc="http://creativecommons.org/ns#" xmlns:rdf="http://www.w3.org/1999/02/22-rdf-syntax-ns#">
   <cc:Work>
    <dc:type rdf:resource="http://purl.org/dc/dcmitype/StillImage"/>
    <dc:date>2023-11-10T18:36:23.471129</dc:date>
    <dc:format>image/svg+xml</dc:format>
    <dc:creator>
     <cc:Agent>
      <dc:title>Matplotlib v3.7.1, https://matplotlib.org/</dc:title>
     </cc:Agent>
    </dc:creator>
   </cc:Work>
  </rdf:RDF>
 </metadata>
 <defs>
  <style type="text/css">*{stroke-linejoin: round; stroke-linecap: butt}</style>
 </defs>
 <g id="figure_1">
  <g id="patch_1">
   <path d="M 0 475.2 
L 201.6 475.2 
L 201.6 0 
L 0 0 
z
" style="fill: #ffffff"/>
  </g>
  <g id="axes_1">
   <g id="patch_2">
    <path d="M 43.2 439.2 
L 187.2 439.2 
L 187.2 7.2 
L 43.2 7.2 
z
" style="fill: #ffffff"/>
   </g>
   <g id="patch_3">
    <path d="M 46.656 397.273135 
L 51.264 397.273135 
L 51.264 395.569857 
L 46.656 395.569857 
z
" clip-path="url(#p12bdc00f22)" style="fill: #800000"/>
   </g>
   <g id="patch_4">
    <path d="M 52.416 397.273135 
L 57.024 397.273135 
L 57.024 397.246931 
L 52.416 397.246931 
z
" clip-path="url(#p12bdc00f22)" style="fill: #800000"/>
   </g>
   <g id="patch_5">
    <path d="M 46.656 376.309703 
L 51.264 376.309703 
L 51.264 367.55747 
L 46.656 367.55747 
z
" clip-path="url(#p12bdc00f22)" style="fill: #800000"/>
   </g>
   <g id="patch_6">
    <path d="M 52.416 376.309703 
L 57.024 376.309703 
L 57.024 375.392553 
L 52.416 375.392553 
z
" clip-path="url(#p12bdc00f22)" style="fill: #800000"/>
   </g>
   <g id="patch_7">
    <path d="M 58.176 376.309703 
L 62.784 376.309703 
L 62.784 376.23109 
L 58.176 376.23109 
z
" clip-path="url(#p12bdc00f22)" style="fill: #800000"/>
   </g>
   <g id="patch_8">
    <path d="M 46.656 355.346271 
L 51.264 355.346271 
L 51.264 341.222158 
L 46.656 341.222158 
z
" clip-path="url(#p12bdc00f22)" style="fill: #800000"/>
   </g>
   <g id="patch_9">
    <path d="M 52.416 355.346271 
L 57.024 355.346271 
L 57.024 352.490003 
L 52.416 352.490003 
z
" clip-path="url(#p12bdc00f22)" style="fill: #800000"/>
   </g>
   <g id="patch_10">
    <path d="M 58.176 355.346271 
L 62.784 355.346271 
L 62.784 354.586346 
L 58.176 354.586346 
z
" clip-path="url(#p12bdc00f22)" style="fill: #800000"/>
   </g>
   <g id="patch_11">
    <path d="M 63.936 355.346271 
L 68.544 355.346271 
L 68.544 354.927002 
L 63.936 354.927002 
z
" clip-path="url(#p12bdc00f22)" style="fill: #800000"/>
   </g>
   <g id="patch_12">
    <path d="M 69.696 355.346271 
L 74.304 355.346271 
L 74.304 355.293862 
L 69.696 355.293862 
z
" clip-path="url(#p12bdc00f22)" style="fill: #800000"/>
   </g>
   <g id="patch_13">
    <path d="M 46.656 334.382839 
L 51.264 334.382839 
L 51.264 320.520769 
L 46.656 320.520769 
z
" clip-path="url(#p12bdc00f22)" style="fill: #800000"/>
   </g>
   <g id="patch_14">
    <path d="M 52.416 334.382839 
L 57.024 334.382839 
L 57.024 328.748916 
L 52.416 328.748916 
z
" clip-path="url(#p12bdc00f22)" style="fill: #800000"/>
   </g>
   <g id="patch_15">
    <path d="M 58.176 334.382839 
L 62.784 334.382839 
L 62.784 332.076861 
L 58.176 332.076861 
z
" clip-path="url(#p12bdc00f22)" style="fill: #800000"/>
   </g>
   <g id="patch_16">
    <path d="M 63.936 334.382839 
L 68.544 334.382839 
L 68.544 333.491893 
L 63.936 333.491893 
z
" clip-path="url(#p12bdc00f22)" style="fill: #800000"/>
   </g>
   <g id="patch_17">
    <path d="M 69.696 334.382839 
L 74.304 334.382839 
L 74.304 333.884957 
L 69.696 333.884957 
z
" clip-path="url(#p12bdc00f22)" style="fill: #800000"/>
   </g>
   <g id="patch_18">
    <path d="M 75.456 334.382839 
L 80.064 334.382839 
L 80.064 334.199409 
L 75.456 334.199409 
z
" clip-path="url(#p12bdc00f22)" style="fill: #800000"/>
   </g>
   <g id="patch_19">
    <path d="M 81.216 334.382839 
L 85.824 334.382839 
L 85.824 334.199409 
L 81.216 334.199409 
z
" clip-path="url(#p12bdc00f22)" style="fill: #800000"/>
   </g>
   <g id="patch_20">
    <path d="M 86.976 334.382839 
L 91.584 334.382839 
L 91.584 334.304226 
L 86.976 334.304226 
z
" clip-path="url(#p12bdc00f22)" style="fill: #800000"/>
   </g>
   <g id="patch_21">
    <path d="M 92.736 334.382839 
L 97.344 334.382839 
L 97.344 334.33043 
L 92.736 334.33043 
z
" clip-path="url(#p12bdc00f22)" style="fill: #800000"/>
   </g>
   <g id="patch_22">
    <path d="M 110.016 334.382839 
L 114.624 334.382839 
L 114.624 334.356634 
L 110.016 334.356634 
z
" clip-path="url(#p12bdc00f22)" style="fill: #800000"/>
   </g>
   <g id="patch_23">
    <path d="M 46.656 313.419406 
L 51.264 313.419406 
L 51.264 302.885282 
L 46.656 302.885282 
z
" clip-path="url(#p12bdc00f22)" style="fill: #800000"/>
   </g>
   <g id="patch_24">
    <path d="M 52.416 313.419406 
L 57.024 313.419406 
L 57.024 304.457539 
L 52.416 304.457539 
z
" clip-path="url(#p12bdc00f22)" style="fill: #800000"/>
   </g>
   <g id="patch_25">
    <path d="M 58.176 313.419406 
L 62.784 313.419406 
L 62.784 310.196279 
L 58.176 310.196279 
z
" clip-path="url(#p12bdc00f22)" style="fill: #800000"/>
   </g>
   <g id="patch_26">
    <path d="M 63.936 313.419406 
L 68.544 313.419406 
L 68.544 311.637515 
L 63.936 311.637515 
z
" clip-path="url(#p12bdc00f22)" style="fill: #800000"/>
   </g>
   <g id="patch_27">
    <path d="M 69.696 313.419406 
L 74.304 313.419406 
L 74.304 312.030579 
L 69.696 312.030579 
z
" clip-path="url(#p12bdc00f22)" style="fill: #800000"/>
   </g>
   <g id="patch_28">
    <path d="M 75.456 313.419406 
L 80.064 313.419406 
L 80.064 312.764299 
L 75.456 312.764299 
z
" clip-path="url(#p12bdc00f22)" style="fill: #800000"/>
   </g>
   <g id="patch_29">
    <path d="M 81.216 313.419406 
L 85.824 313.419406 
L 85.824 312.947729 
L 81.216 312.947729 
z
" clip-path="url(#p12bdc00f22)" style="fill: #800000"/>
   </g>
   <g id="patch_30">
    <path d="M 86.976 313.419406 
L 91.584 313.419406 
L 91.584 312.947729 
L 86.976 312.947729 
z
" clip-path="url(#p12bdc00f22)" style="fill: #800000"/>
   </g>
   <g id="patch_31">
    <path d="M 92.736 313.419406 
L 97.344 313.419406 
L 97.344 313.104955 
L 92.736 313.104955 
z
" clip-path="url(#p12bdc00f22)" style="fill: #800000"/>
   </g>
   <g id="patch_32">
    <path d="M 98.496 313.419406 
L 103.104 313.419406 
L 103.104 313.262181 
L 98.496 313.262181 
z
" clip-path="url(#p12bdc00f22)" style="fill: #800000"/>
   </g>
   <g id="patch_33">
    <path d="M 104.256 313.419406 
L 108.864 313.419406 
L 108.864 313.288385 
L 104.256 313.288385 
z
" clip-path="url(#p12bdc00f22)" style="fill: #800000"/>
   </g>
   <g id="patch_34">
    <path d="M 110.016 313.419406 
L 114.624 313.419406 
L 114.624 313.340793 
L 110.016 313.340793 
z
" clip-path="url(#p12bdc00f22)" style="fill: #800000"/>
   </g>
   <g id="patch_35">
    <path d="M 115.776 313.419406 
L 120.384 313.419406 
L 120.384 313.393202 
L 115.776 313.393202 
z
" clip-path="url(#p12bdc00f22)" style="fill: #800000"/>
   </g>
   <g id="patch_36">
    <path d="M 127.296 313.419406 
L 131.904 313.419406 
L 131.904 313.366998 
L 127.296 313.366998 
z
" clip-path="url(#p12bdc00f22)" style="fill: #800000"/>
   </g>
   <g id="patch_37">
    <path d="M 46.656 292.455974 
L 51.264 292.455974 
L 51.264 283.467902 
L 46.656 283.467902 
z
" clip-path="url(#p12bdc00f22)" style="fill: #800000"/>
   </g>
   <g id="patch_38">
    <path d="M 52.416 292.455974 
L 57.024 292.455974 
L 57.024 282.157688 
L 52.416 282.157688 
z
" clip-path="url(#p12bdc00f22)" style="fill: #800000"/>
   </g>
   <g id="patch_39">
    <path d="M 58.176 292.455974 
L 62.784 292.455974 
L 62.784 288.394309 
L 58.176 288.394309 
z
" clip-path="url(#p12bdc00f22)" style="fill: #800000"/>
   </g>
   <g id="patch_40">
    <path d="M 63.936 292.455974 
L 68.544 292.455974 
L 68.544 289.861749 
L 63.936 289.861749 
z
" clip-path="url(#p12bdc00f22)" style="fill: #800000"/>
   </g>
   <g id="patch_41">
    <path d="M 69.696 292.455974 
L 74.304 292.455974 
L 74.304 290.988534 
L 69.696 290.988534 
z
" clip-path="url(#p12bdc00f22)" style="fill: #800000"/>
   </g>
   <g id="patch_42">
    <path d="M 75.456 292.455974 
L 80.064 292.455974 
L 80.064 290.909921 
L 75.456 290.909921 
z
" clip-path="url(#p12bdc00f22)" style="fill: #800000"/>
   </g>
   <g id="patch_43">
    <path d="M 81.216 292.455974 
L 85.824 292.455974 
L 85.824 291.538824 
L 81.216 291.538824 
z
" clip-path="url(#p12bdc00f22)" style="fill: #800000"/>
   </g>
   <g id="patch_44">
    <path d="M 86.976 292.455974 
L 91.584 292.455974 
L 91.584 291.407802 
L 86.976 291.407802 
z
" clip-path="url(#p12bdc00f22)" style="fill: #800000"/>
   </g>
   <g id="patch_45">
    <path d="M 92.736 292.455974 
L 97.344 292.455974 
L 97.344 291.827071 
L 92.736 291.827071 
z
" clip-path="url(#p12bdc00f22)" style="fill: #800000"/>
   </g>
   <g id="patch_46">
    <path d="M 98.496 292.455974 
L 103.104 292.455974 
L 103.104 291.87948 
L 98.496 291.87948 
z
" clip-path="url(#p12bdc00f22)" style="fill: #800000"/>
   </g>
   <g id="patch_47">
    <path d="M 104.256 292.455974 
L 108.864 292.455974 
L 108.864 291.87948 
L 104.256 291.87948 
z
" clip-path="url(#p12bdc00f22)" style="fill: #800000"/>
   </g>
   <g id="patch_48">
    <path d="M 110.016 292.455974 
L 114.624 292.455974 
L 114.624 292.167727 
L 110.016 292.167727 
z
" clip-path="url(#p12bdc00f22)" style="fill: #800000"/>
   </g>
   <g id="patch_49">
    <path d="M 115.776 292.455974 
L 120.384 292.455974 
L 120.384 292.167727 
L 115.776 292.167727 
z
" clip-path="url(#p12bdc00f22)" style="fill: #800000"/>
   </g>
   <g id="patch_50">
    <path d="M 121.536 292.455974 
L 126.144 292.455974 
L 126.144 292.220135 
L 121.536 292.220135 
z
" clip-path="url(#p12bdc00f22)" style="fill: #800000"/>
   </g>
   <g id="patch_51">
    <path d="M 127.296 292.455974 
L 131.904 292.455974 
L 131.904 292.272544 
L 127.296 292.272544 
z
" clip-path="url(#p12bdc00f22)" style="fill: #800000"/>
   </g>
   <g id="patch_52">
    <path d="M 133.056 292.455974 
L 137.664 292.455974 
L 137.664 292.272544 
L 133.056 292.272544 
z
" clip-path="url(#p12bdc00f22)" style="fill: #800000"/>
   </g>
   <g id="patch_53">
    <path d="M 138.816 292.455974 
L 143.424 292.455974 
L 143.424 292.403565 
L 138.816 292.403565 
z
" clip-path="url(#p12bdc00f22)" style="fill: #800000"/>
   </g>
   <g id="patch_54">
    <path d="M 144.576 292.455974 
L 149.184 292.455974 
L 149.184 292.42977 
L 144.576 292.42977 
z
" clip-path="url(#p12bdc00f22)" style="fill: #800000"/>
   </g>
   <g id="patch_55">
    <path d="M 150.336 292.455974 
L 154.944 292.455974 
L 154.944 292.42977 
L 150.336 292.42977 
z
" clip-path="url(#p12bdc00f22)" style="fill: #800000"/>
   </g>
   <g id="patch_56">
    <path d="M 156.096 292.455974 
L 160.704 292.455974 
L 160.704 292.42977 
L 156.096 292.42977 
z
" clip-path="url(#p12bdc00f22)" style="fill: #800000"/>
   </g>
   <g id="patch_57">
    <path d="M 161.856 292.455974 
L 166.464 292.455974 
L 166.464 292.42977 
L 161.856 292.42977 
z
" clip-path="url(#p12bdc00f22)" style="fill: #800000"/>
   </g>
   <g id="patch_58">
    <path d="M 167.616 292.455974 
L 172.224 292.455974 
L 172.224 292.42977 
L 167.616 292.42977 
z
" clip-path="url(#p12bdc00f22)" style="fill: #800000"/>
   </g>
   <g id="patch_59">
    <path d="M 46.656 271.492542 
L 51.264 271.492542 
L 51.264 264.417383 
L 46.656 264.417383 
z
" clip-path="url(#p12bdc00f22)" style="fill: #800000"/>
   </g>
   <g id="patch_60">
    <path d="M 52.416 271.492542 
L 57.024 271.492542 
L 57.024 261.063234 
L 52.416 261.063234 
z
" clip-path="url(#p12bdc00f22)" style="fill: #800000"/>
   </g>
   <g id="patch_61">
    <path d="M 58.176 271.492542 
L 62.784 271.492542 
L 62.784 267.719124 
L 58.176 267.719124 
z
" clip-path="url(#p12bdc00f22)" style="fill: #800000"/>
   </g>
   <g id="patch_62">
    <path d="M 63.936 271.492542 
L 68.544 271.492542 
L 68.544 269.081747 
L 63.936 269.081747 
z
" clip-path="url(#p12bdc00f22)" style="fill: #800000"/>
   </g>
   <g id="patch_63">
    <path d="M 69.696 271.492542 
L 74.304 271.492542 
L 74.304 269.972693 
L 69.696 269.972693 
z
" clip-path="url(#p12bdc00f22)" style="fill: #800000"/>
   </g>
   <g id="patch_64">
    <path d="M 75.456 271.492542 
L 80.064 271.492542 
L 80.064 270.025102 
L 75.456 270.025102 
z
" clip-path="url(#p12bdc00f22)" style="fill: #800000"/>
   </g>
   <g id="patch_65">
    <path d="M 81.216 271.492542 
L 85.824 271.492542 
L 85.824 270.313349 
L 81.216 270.313349 
z
" clip-path="url(#p12bdc00f22)" style="fill: #800000"/>
   </g>
   <g id="patch_66">
    <path d="M 86.976 271.492542 
L 91.584 271.492542 
L 91.584 270.470574 
L 86.976 270.470574 
z
" clip-path="url(#p12bdc00f22)" style="fill: #800000"/>
   </g>
   <g id="patch_67">
    <path d="M 92.736 271.492542 
L 97.344 271.492542 
L 97.344 270.470574 
L 92.736 270.470574 
z
" clip-path="url(#p12bdc00f22)" style="fill: #800000"/>
   </g>
   <g id="patch_68">
    <path d="M 98.496 271.492542 
L 103.104 271.492542 
L 103.104 270.732617 
L 98.496 270.732617 
z
" clip-path="url(#p12bdc00f22)" style="fill: #800000"/>
   </g>
   <g id="patch_69">
    <path d="M 104.256 271.492542 
L 108.864 271.492542 
L 108.864 270.81123 
L 104.256 270.81123 
z
" clip-path="url(#p12bdc00f22)" style="fill: #800000"/>
   </g>
   <g id="patch_70">
    <path d="M 110.016 271.492542 
L 114.624 271.492542 
L 114.624 270.758822 
L 110.016 270.758822 
z
" clip-path="url(#p12bdc00f22)" style="fill: #800000"/>
   </g>
   <g id="patch_71">
    <path d="M 115.776 271.492542 
L 120.384 271.492542 
L 120.384 270.916047 
L 115.776 270.916047 
z
" clip-path="url(#p12bdc00f22)" style="fill: #800000"/>
   </g>
   <g id="patch_72">
    <path d="M 121.536 271.492542 
L 126.144 271.492542 
L 126.144 270.889843 
L 121.536 270.889843 
z
" clip-path="url(#p12bdc00f22)" style="fill: #800000"/>
   </g>
   <g id="patch_73">
    <path d="M 127.296 271.492542 
L 131.904 271.492542 
L 131.904 270.889843 
L 127.296 270.889843 
z
" clip-path="url(#p12bdc00f22)" style="fill: #800000"/>
   </g>
   <g id="patch_74">
    <path d="M 133.056 271.492542 
L 137.664 271.492542 
L 137.664 271.17809 
L 133.056 271.17809 
z
" clip-path="url(#p12bdc00f22)" style="fill: #800000"/>
   </g>
   <g id="patch_75">
    <path d="M 138.816 271.492542 
L 143.424 271.492542 
L 143.424 271.256703 
L 138.816 271.256703 
z
" clip-path="url(#p12bdc00f22)" style="fill: #800000"/>
   </g>
   <g id="patch_76">
    <path d="M 144.576 271.492542 
L 149.184 271.492542 
L 149.184 271.282907 
L 144.576 271.282907 
z
" clip-path="url(#p12bdc00f22)" style="fill: #800000"/>
   </g>
   <g id="patch_77">
    <path d="M 150.336 271.492542 
L 154.944 271.492542 
L 154.944 271.230499 
L 150.336 271.230499 
z
" clip-path="url(#p12bdc00f22)" style="fill: #800000"/>
   </g>
   <g id="patch_78">
    <path d="M 156.096 271.492542 
L 160.704 271.492542 
L 160.704 271.309112 
L 156.096 271.309112 
z
" clip-path="url(#p12bdc00f22)" style="fill: #800000"/>
   </g>
   <g id="patch_79">
    <path d="M 161.856 271.492542 
L 166.464 271.492542 
L 166.464 271.387725 
L 161.856 271.387725 
z
" clip-path="url(#p12bdc00f22)" style="fill: #800000"/>
   </g>
   <g id="patch_80">
    <path d="M 167.616 271.492542 
L 172.224 271.492542 
L 172.224 271.466337 
L 167.616 271.466337 
z
" clip-path="url(#p12bdc00f22)" style="fill: #800000"/>
   </g>
   <g id="patch_81">
    <path d="M 173.376 271.492542 
L 177.984 271.492542 
L 177.984 271.440133 
L 173.376 271.440133 
z
" clip-path="url(#p12bdc00f22)" style="fill: #800000"/>
   </g>
   <g id="patch_82">
    <path d="M 179.136 271.492542 
L 183.744 271.492542 
L 183.744 271.466337 
L 179.136 271.466337 
z
" clip-path="url(#p12bdc00f22)" style="fill: #800000"/>
   </g>
   <g id="patch_83">
    <path d="M 184.896 271.492542 
L 189.504 271.492542 
L 189.504 271.466337 
L 184.896 271.466337 
z
" clip-path="url(#p12bdc00f22)" style="fill: #800000"/>
   </g>
   <g id="patch_84">
    <path d="M 46.656 250.52911 
L 51.264 250.52911 
L 51.264 244.449714 
L 46.656 244.449714 
z
" clip-path="url(#p12bdc00f22)" style="fill: #800000"/>
   </g>
   <g id="patch_85">
    <path d="M 52.416 250.52911 
L 57.024 250.52911 
L 57.024 239.156447 
L 52.416 239.156447 
z
" clip-path="url(#p12bdc00f22)" style="fill: #800000"/>
   </g>
   <g id="patch_86">
    <path d="M 58.176 250.52911 
L 62.784 250.52911 
L 62.784 247.830068 
L 58.176 247.830068 
z
" clip-path="url(#p12bdc00f22)" style="fill: #800000"/>
   </g>
   <g id="patch_87">
    <path d="M 63.936 250.52911 
L 68.544 250.52911 
L 68.544 247.672842 
L 63.936 247.672842 
z
" clip-path="url(#p12bdc00f22)" style="fill: #800000"/>
   </g>
   <g id="patch_88">
    <path d="M 69.696 250.52911 
L 74.304 250.52911 
L 74.304 248.799626 
L 69.696 248.799626 
z
" clip-path="url(#p12bdc00f22)" style="fill: #800000"/>
   </g>
   <g id="patch_89">
    <path d="M 75.456 250.52911 
L 80.064 250.52911 
L 80.064 248.799626 
L 75.456 248.799626 
z
" clip-path="url(#p12bdc00f22)" style="fill: #800000"/>
   </g>
   <g id="patch_90">
    <path d="M 81.216 250.52911 
L 85.824 250.52911 
L 85.824 249.218895 
L 81.216 249.218895 
z
" clip-path="url(#p12bdc00f22)" style="fill: #800000"/>
   </g>
   <g id="patch_91">
    <path d="M 86.976 250.52911 
L 91.584 250.52911 
L 91.584 249.218895 
L 86.976 249.218895 
z
" clip-path="url(#p12bdc00f22)" style="fill: #800000"/>
   </g>
   <g id="patch_92">
    <path d="M 92.736 250.52911 
L 97.344 250.52911 
L 97.344 249.245099 
L 92.736 249.245099 
z
" clip-path="url(#p12bdc00f22)" style="fill: #800000"/>
   </g>
   <g id="patch_93">
    <path d="M 98.496 250.52911 
L 103.104 250.52911 
L 103.104 249.323712 
L 98.496 249.323712 
z
" clip-path="url(#p12bdc00f22)" style="fill: #800000"/>
   </g>
   <g id="patch_94">
    <path d="M 104.256 250.52911 
L 108.864 250.52911 
L 108.864 249.218895 
L 104.256 249.218895 
z
" clip-path="url(#p12bdc00f22)" style="fill: #800000"/>
   </g>
   <g id="patch_95">
    <path d="M 110.016 250.52911 
L 114.624 250.52911 
L 114.624 249.376121 
L 110.016 249.376121 
z
" clip-path="url(#p12bdc00f22)" style="fill: #800000"/>
   </g>
   <g id="patch_96">
    <path d="M 115.776 250.52911 
L 120.384 250.52911 
L 120.384 249.402325 
L 115.776 249.402325 
z
" clip-path="url(#p12bdc00f22)" style="fill: #800000"/>
   </g>
   <g id="patch_97">
    <path d="M 121.536 250.52911 
L 126.144 250.52911 
L 126.144 249.376121 
L 121.536 249.376121 
z
" clip-path="url(#p12bdc00f22)" style="fill: #800000"/>
   </g>
   <g id="patch_98">
    <path d="M 127.296 250.52911 
L 131.904 250.52911 
L 131.904 249.611959 
L 127.296 249.611959 
z
" clip-path="url(#p12bdc00f22)" style="fill: #800000"/>
   </g>
   <g id="patch_99">
    <path d="M 133.056 250.52911 
L 137.664 250.52911 
L 137.664 249.533346 
L 133.056 249.533346 
z
" clip-path="url(#p12bdc00f22)" style="fill: #800000"/>
   </g>
   <g id="patch_100">
    <path d="M 138.816 250.52911 
L 143.424 250.52911 
L 143.424 249.769185 
L 138.816 249.769185 
z
" clip-path="url(#p12bdc00f22)" style="fill: #800000"/>
   </g>
   <g id="patch_101">
    <path d="M 144.576 250.52911 
L 149.184 250.52911 
L 149.184 250.031228 
L 144.576 250.031228 
z
" clip-path="url(#p12bdc00f22)" style="fill: #800000"/>
   </g>
   <g id="patch_102">
    <path d="M 150.336 250.52911 
L 154.944 250.52911 
L 154.944 249.900207 
L 150.336 249.900207 
z
" clip-path="url(#p12bdc00f22)" style="fill: #800000"/>
   </g>
   <g id="patch_103">
    <path d="M 156.096 250.52911 
L 160.704 250.52911 
L 160.704 250.057432 
L 156.096 250.057432 
z
" clip-path="url(#p12bdc00f22)" style="fill: #800000"/>
   </g>
   <g id="patch_104">
    <path d="M 161.856 250.52911 
L 166.464 250.52911 
L 166.464 250.136045 
L 161.856 250.136045 
z
" clip-path="url(#p12bdc00f22)" style="fill: #800000"/>
   </g>
   <g id="patch_105">
    <path d="M 167.616 250.52911 
L 172.224 250.52911 
L 172.224 250.136045 
L 167.616 250.136045 
z
" clip-path="url(#p12bdc00f22)" style="fill: #800000"/>
   </g>
   <g id="patch_106">
    <path d="M 173.376 250.52911 
L 177.984 250.52911 
L 177.984 250.136045 
L 173.376 250.136045 
z
" clip-path="url(#p12bdc00f22)" style="fill: #800000"/>
   </g>
   <g id="patch_107">
    <path d="M 179.136 250.52911 
L 183.744 250.52911 
L 183.744 250.398088 
L 179.136 250.398088 
z
" clip-path="url(#p12bdc00f22)" style="fill: #800000"/>
   </g>
   <g id="patch_108">
    <path d="M 184.896 250.52911 
L 189.504 250.52911 
L 189.504 250.345679 
L 184.896 250.345679 
z
" clip-path="url(#p12bdc00f22)" style="fill: #800000"/>
   </g>
   <g id="patch_109">
    <path d="M 190.656 250.52911 
L 195.264 250.52911 
L 195.264 250.476701 
L 190.656 250.476701 
z
" clip-path="url(#p12bdc00f22)" style="fill: #800000"/>
   </g>
   <g id="patch_110">
    <path d="M 202.176 250.52911 
L 206.784 250.52911 
L 206.784 250.476701 
L 202.176 250.476701 
z
" clip-path="url(#p12bdc00f22)" style="fill: #800000"/>
   </g>
   <g id="patch_111">
    <path d="M 207.936 250.52911 
L 212.544 250.52911 
L 212.544 250.476701 
L 207.936 250.476701 
z
" clip-path="url(#p12bdc00f22)" style="fill: #800000"/>
   </g>
   <g id="patch_112">
    <path d="M 46.656 208.602245 
L 51.264 208.602245 
L 51.264 204.330946 
L 46.656 204.330946 
z
" clip-path="url(#p12bdc00f22)" style="fill: #800000"/>
   </g>
   <g id="patch_113">
    <path d="M 52.416 208.602245 
L 57.024 208.602245 
L 57.024 196.757906 
L 52.416 196.757906 
z
" clip-path="url(#p12bdc00f22)" style="fill: #800000"/>
   </g>
   <g id="patch_114">
    <path d="M 58.176 208.602245 
L 62.784 208.602245 
L 62.784 206.872762 
L 58.176 206.872762 
z
" clip-path="url(#p12bdc00f22)" style="fill: #800000"/>
   </g>
   <g id="patch_115">
    <path d="M 63.936 208.602245 
L 68.544 208.602245 
L 68.544 206.086633 
L 63.936 206.086633 
z
" clip-path="url(#p12bdc00f22)" style="fill: #800000"/>
   </g>
   <g id="patch_116">
    <path d="M 69.696 208.602245 
L 74.304 208.602245 
L 74.304 207.161009 
L 69.696 207.161009 
z
" clip-path="url(#p12bdc00f22)" style="fill: #800000"/>
   </g>
   <g id="patch_117">
    <path d="M 75.456 208.602245 
L 80.064 208.602245 
L 80.064 207.265826 
L 75.456 207.265826 
z
" clip-path="url(#p12bdc00f22)" style="fill: #800000"/>
   </g>
   <g id="patch_118">
    <path d="M 81.216 208.602245 
L 85.824 208.602245 
L 85.824 207.658891 
L 81.216 207.658891 
z
" clip-path="url(#p12bdc00f22)" style="fill: #800000"/>
   </g>
   <g id="patch_119">
    <path d="M 86.976 208.602245 
L 91.584 208.602245 
L 91.584 207.789912 
L 86.976 207.789912 
z
" clip-path="url(#p12bdc00f22)" style="fill: #800000"/>
   </g>
   <g id="patch_120">
    <path d="M 92.736 208.602245 
L 97.344 208.602245 
L 97.344 207.789912 
L 92.736 207.789912 
z
" clip-path="url(#p12bdc00f22)" style="fill: #800000"/>
   </g>
   <g id="patch_121">
    <path d="M 98.496 208.602245 
L 103.104 208.602245 
L 103.104 207.685095 
L 98.496 207.685095 
z
" clip-path="url(#p12bdc00f22)" style="fill: #800000"/>
   </g>
   <g id="patch_122">
    <path d="M 104.256 208.602245 
L 108.864 208.602245 
L 108.864 207.318235 
L 104.256 207.318235 
z
" clip-path="url(#p12bdc00f22)" style="fill: #800000"/>
   </g>
   <g id="patch_123">
    <path d="M 110.016 208.602245 
L 114.624 208.602245 
L 114.624 207.396848 
L 110.016 207.396848 
z
" clip-path="url(#p12bdc00f22)" style="fill: #800000"/>
   </g>
   <g id="patch_124">
    <path d="M 115.776 208.602245 
L 120.384 208.602245 
L 120.384 207.187213 
L 115.776 207.187213 
z
" clip-path="url(#p12bdc00f22)" style="fill: #800000"/>
   </g>
   <g id="patch_125">
    <path d="M 121.536 208.602245 
L 126.144 208.602245 
L 126.144 207.239622 
L 121.536 207.239622 
z
" clip-path="url(#p12bdc00f22)" style="fill: #800000"/>
   </g>
   <g id="patch_126">
    <path d="M 127.296 208.602245 
L 131.904 208.602245 
L 131.904 207.29203 
L 127.296 207.29203 
z
" clip-path="url(#p12bdc00f22)" style="fill: #800000"/>
   </g>
   <g id="patch_127">
    <path d="M 133.056 208.602245 
L 137.664 208.602245 
L 137.664 206.898966 
L 133.056 206.898966 
z
" clip-path="url(#p12bdc00f22)" style="fill: #800000"/>
   </g>
   <g id="patch_128">
    <path d="M 138.816 208.602245 
L 143.424 208.602245 
L 143.424 207.056192 
L 138.816 207.056192 
z
" clip-path="url(#p12bdc00f22)" style="fill: #800000"/>
   </g>
   <g id="patch_129">
    <path d="M 144.576 208.602245 
L 149.184 208.602245 
L 149.184 207.1086 
L 144.576 207.1086 
z
" clip-path="url(#p12bdc00f22)" style="fill: #800000"/>
   </g>
   <g id="patch_130">
    <path d="M 150.336 208.602245 
L 154.944 208.602245 
L 154.944 206.532106 
L 150.336 206.532106 
z
" clip-path="url(#p12bdc00f22)" style="fill: #800000"/>
   </g>
   <g id="patch_131">
    <path d="M 156.096 208.602245 
L 160.704 208.602245 
L 160.704 207.161009 
L 156.096 207.161009 
z
" clip-path="url(#p12bdc00f22)" style="fill: #800000"/>
   </g>
   <g id="patch_132">
    <path d="M 161.856 208.602245 
L 166.464 208.602245 
L 166.464 207.370643 
L 161.856 207.370643 
z
" clip-path="url(#p12bdc00f22)" style="fill: #800000"/>
   </g>
   <g id="patch_133">
    <path d="M 167.616 208.602245 
L 172.224 208.602245 
L 172.224 207.449256 
L 167.616 207.449256 
z
" clip-path="url(#p12bdc00f22)" style="fill: #800000"/>
   </g>
   <g id="patch_134">
    <path d="M 173.376 208.602245 
L 177.984 208.602245 
L 177.984 207.213418 
L 173.376 207.213418 
z
" clip-path="url(#p12bdc00f22)" style="fill: #800000"/>
   </g>
   <g id="patch_135">
    <path d="M 179.136 208.602245 
L 183.744 208.602245 
L 183.744 207.711299 
L 179.136 207.711299 
z
" clip-path="url(#p12bdc00f22)" style="fill: #800000"/>
   </g>
   <g id="patch_136">
    <path d="M 184.896 208.602245 
L 189.504 208.602245 
L 189.504 207.789912 
L 184.896 207.789912 
z
" clip-path="url(#p12bdc00f22)" style="fill: #800000"/>
   </g>
   <g id="patch_137">
    <path d="M 190.656 208.602245 
L 195.264 208.602245 
L 195.264 207.868525 
L 190.656 207.868525 
z
" clip-path="url(#p12bdc00f22)" style="fill: #800000"/>
   </g>
   <g id="patch_138">
    <path d="M 196.416 208.602245 
L 201.024 208.602245 
L 201.024 208.261589 
L 196.416 208.261589 
z
" clip-path="url(#p12bdc00f22)" style="fill: #800000"/>
   </g>
   <g id="patch_139">
    <path d="M 202.176 208.602245 
L 206.784 208.602245 
L 206.784 208.340202 
L 202.176 208.340202 
z
" clip-path="url(#p12bdc00f22)" style="fill: #800000"/>
   </g>
   <g id="patch_140">
    <path d="M 207.936 208.602245 
L 212.544 208.602245 
L 212.544 208.471224 
L 207.936 208.471224 
z
" clip-path="url(#p12bdc00f22)" style="fill: #800000"/>
   </g>
   <g id="patch_141">
    <path d="M 213.696 208.602245 
L 218.304 208.602245 
L 218.304 208.549836 
L 213.696 208.549836 
z
" clip-path="url(#p12bdc00f22)" style="fill: #800000"/>
   </g>
   <g id="patch_142">
    <path d="M 219.456 208.602245 
L 224.064 208.602245 
L 224.064 208.523632 
L 219.456 208.523632 
z
" clip-path="url(#p12bdc00f22)" style="fill: #800000"/>
   </g>
   <g id="patch_143">
    <path d="M 46.656 166.67538 
L 51.264 166.67538 
L 51.264 162.535103 
L 46.656 162.535103 
z
" clip-path="url(#p12bdc00f22)" style="fill: #800000"/>
   </g>
   <g id="patch_144">
    <path d="M 52.416 166.67538 
L 57.024 166.67538 
L 57.024 154.411773 
L 52.416 154.411773 
z
" clip-path="url(#p12bdc00f22)" style="fill: #800000"/>
   </g>
   <g id="patch_145">
    <path d="M 58.176 166.67538 
L 62.784 166.67538 
L 62.784 164.998306 
L 58.176 164.998306 
z
" clip-path="url(#p12bdc00f22)" style="fill: #800000"/>
   </g>
   <g id="patch_146">
    <path d="M 63.936 166.67538 
L 68.544 166.67538 
L 68.544 164.238381 
L 63.936 164.238381 
z
" clip-path="url(#p12bdc00f22)" style="fill: #800000"/>
   </g>
   <g id="patch_147">
    <path d="M 69.696 166.67538 
L 74.304 166.67538 
L 74.304 165.02451 
L 69.696 165.02451 
z
" clip-path="url(#p12bdc00f22)" style="fill: #800000"/>
   </g>
   <g id="patch_148">
    <path d="M 75.456 166.67538 
L 80.064 166.67538 
L 80.064 165.627209 
L 75.456 165.627209 
z
" clip-path="url(#p12bdc00f22)" style="fill: #800000"/>
   </g>
   <g id="patch_149">
    <path d="M 81.216 166.67538 
L 85.824 166.67538 
L 85.824 165.915456 
L 81.216 165.915456 
z
" clip-path="url(#p12bdc00f22)" style="fill: #800000"/>
   </g>
   <g id="patch_150">
    <path d="M 86.976 166.67538 
L 91.584 166.67538 
L 91.584 165.732026 
L 86.976 165.732026 
z
" clip-path="url(#p12bdc00f22)" style="fill: #800000"/>
   </g>
   <g id="patch_151">
    <path d="M 92.736 166.67538 
L 97.344 166.67538 
L 97.344 165.601004 
L 92.736 165.601004 
z
" clip-path="url(#p12bdc00f22)" style="fill: #800000"/>
   </g>
   <g id="patch_152">
    <path d="M 98.496 166.67538 
L 103.104 166.67538 
L 103.104 165.627209 
L 98.496 165.627209 
z
" clip-path="url(#p12bdc00f22)" style="fill: #800000"/>
   </g>
   <g id="patch_153">
    <path d="M 104.256 166.67538 
L 108.864 166.67538 
L 108.864 165.20794 
L 104.256 165.20794 
z
" clip-path="url(#p12bdc00f22)" style="fill: #800000"/>
   </g>
   <g id="patch_154">
    <path d="M 110.016 166.67538 
L 114.624 166.67538 
L 114.624 165.181736 
L 110.016 165.181736 
z
" clip-path="url(#p12bdc00f22)" style="fill: #800000"/>
   </g>
   <g id="patch_155">
    <path d="M 115.776 166.67538 
L 120.384 166.67538 
L 120.384 165.181736 
L 115.776 165.181736 
z
" clip-path="url(#p12bdc00f22)" style="fill: #800000"/>
   </g>
   <g id="patch_156">
    <path d="M 121.536 166.67538 
L 126.144 166.67538 
L 126.144 164.526629 
L 121.536 164.526629 
z
" clip-path="url(#p12bdc00f22)" style="fill: #800000"/>
   </g>
   <g id="patch_157">
    <path d="M 127.296 166.67538 
L 131.904 166.67538 
L 131.904 164.84108 
L 127.296 164.84108 
z
" clip-path="url(#p12bdc00f22)" style="fill: #800000"/>
   </g>
   <g id="patch_158">
    <path d="M 133.056 166.67538 
L 137.664 166.67538 
L 137.664 164.65765 
L 133.056 164.65765 
z
" clip-path="url(#p12bdc00f22)" style="fill: #800000"/>
   </g>
   <g id="patch_159">
    <path d="M 138.816 166.67538 
L 143.424 166.67538 
L 143.424 164.159769 
L 138.816 164.159769 
z
" clip-path="url(#p12bdc00f22)" style="fill: #800000"/>
   </g>
   <g id="patch_160">
    <path d="M 144.576 166.67538 
L 149.184 166.67538 
L 149.184 164.369403 
L 144.576 164.369403 
z
" clip-path="url(#p12bdc00f22)" style="fill: #800000"/>
   </g>
   <g id="patch_161">
    <path d="M 150.336 166.67538 
L 154.944 166.67538 
L 154.944 164.65765 
L 150.336 164.65765 
z
" clip-path="url(#p12bdc00f22)" style="fill: #800000"/>
   </g>
   <g id="patch_162">
    <path d="M 156.096 166.67538 
L 160.704 166.67538 
L 160.704 164.500424 
L 156.096 164.500424 
z
" clip-path="url(#p12bdc00f22)" style="fill: #800000"/>
   </g>
   <g id="patch_163">
    <path d="M 161.856 166.67538 
L 166.464 166.67538 
L 166.464 164.316994 
L 161.856 164.316994 
z
" clip-path="url(#p12bdc00f22)" style="fill: #800000"/>
   </g>
   <g id="patch_164">
    <path d="M 167.616 166.67538 
L 172.224 166.67538 
L 172.224 165.129327 
L 167.616 165.129327 
z
" clip-path="url(#p12bdc00f22)" style="fill: #800000"/>
   </g>
   <g id="patch_165">
    <path d="M 173.376 166.67538 
L 177.984 166.67538 
L 177.984 165.02451 
L 173.376 165.02451 
z
" clip-path="url(#p12bdc00f22)" style="fill: #800000"/>
   </g>
   <g id="patch_166">
    <path d="M 179.136 166.67538 
L 183.744 166.67538 
L 183.744 165.312757 
L 179.136 165.312757 
z
" clip-path="url(#p12bdc00f22)" style="fill: #800000"/>
   </g>
   <g id="patch_167">
    <path d="M 184.896 166.67538 
L 189.504 166.67538 
L 189.504 165.784435 
L 184.896 165.784435 
z
" clip-path="url(#p12bdc00f22)" style="fill: #800000"/>
   </g>
   <g id="patch_168">
    <path d="M 190.656 166.67538 
L 195.264 166.67538 
L 195.264 165.94166 
L 190.656 165.94166 
z
" clip-path="url(#p12bdc00f22)" style="fill: #800000"/>
   </g>
   <g id="patch_169">
    <path d="M 196.416 166.67538 
L 201.024 166.67538 
L 201.024 166.282316 
L 196.416 166.282316 
z
" clip-path="url(#p12bdc00f22)" style="fill: #800000"/>
   </g>
   <g id="patch_170">
    <path d="M 202.176 166.67538 
L 206.784 166.67538 
L 206.784 166.177499 
L 202.176 166.177499 
z
" clip-path="url(#p12bdc00f22)" style="fill: #800000"/>
   </g>
   <g id="patch_171">
    <path d="M 207.936 166.67538 
L 212.544 166.67538 
L 212.544 166.203703 
L 207.936 166.203703 
z
" clip-path="url(#p12bdc00f22)" style="fill: #800000"/>
   </g>
   <g id="patch_172">
    <path d="M 213.696 166.67538 
L 218.304 166.67538 
L 218.304 166.465746 
L 213.696 166.465746 
z
" clip-path="url(#p12bdc00f22)" style="fill: #800000"/>
   </g>
   <g id="patch_173">
    <path d="M 219.456 166.67538 
L 224.064 166.67538 
L 224.064 166.387133 
L 219.456 166.387133 
z
" clip-path="url(#p12bdc00f22)" style="fill: #800000"/>
   </g>
   <g id="patch_174">
    <path d="M 225.216 166.67538 
L 229.824 166.67538 
L 229.824 166.570563 
L 225.216 166.570563 
z
" clip-path="url(#p12bdc00f22)" style="fill: #800000"/>
   </g>
   <g id="patch_175">
    <path d="M 230.976 166.67538 
L 235.584 166.67538 
L 235.584 166.622972 
L 230.976 166.622972 
z
" clip-path="url(#p12bdc00f22)" style="fill: #800000"/>
   </g>
   <g id="patch_176">
    <path d="M 236.736 166.67538 
L 241.344 166.67538 
L 241.344 166.649176 
L 236.736 166.649176 
z
" clip-path="url(#p12bdc00f22)" style="fill: #800000"/>
   </g>
   <g id="patch_177">
    <path d="M 248.256 166.67538 
L 252.864 166.67538 
L 252.864 166.649176 
L 248.256 166.649176 
z
" clip-path="url(#p12bdc00f22)" style="fill: #800000"/>
   </g>
   <g id="patch_178">
    <path d="M 46.656 124.748516 
L 51.264 124.748516 
L 51.264 120.346195 
L 46.656 120.346195 
z
" clip-path="url(#p12bdc00f22)" style="fill: #800000"/>
   </g>
   <g id="patch_179">
    <path d="M 52.416 124.748516 
L 57.024 124.748516 
L 57.024 110.991263 
L 52.416 110.991263 
z
" clip-path="url(#p12bdc00f22)" style="fill: #800000"/>
   </g>
   <g id="patch_180">
    <path d="M 58.176 124.748516 
L 62.784 124.748516 
L 62.784 122.730785 
L 58.176 122.730785 
z
" clip-path="url(#p12bdc00f22)" style="fill: #800000"/>
   </g>
   <g id="patch_181">
    <path d="M 63.936 124.748516 
L 68.544 124.748516 
L 68.544 121.918452 
L 63.936 121.918452 
z
" clip-path="url(#p12bdc00f22)" style="fill: #800000"/>
   </g>
   <g id="patch_182">
    <path d="M 69.696 124.748516 
L 74.304 124.748516 
L 74.304 123.176258 
L 69.696 123.176258 
z
" clip-path="url(#p12bdc00f22)" style="fill: #800000"/>
   </g>
   <g id="patch_183">
    <path d="M 75.456 124.748516 
L 80.064 124.748516 
L 80.064 123.595527 
L 75.456 123.595527 
z
" clip-path="url(#p12bdc00f22)" style="fill: #800000"/>
   </g>
   <g id="patch_184">
    <path d="M 81.216 124.748516 
L 85.824 124.748516 
L 85.824 123.412097 
L 81.216 123.412097 
z
" clip-path="url(#p12bdc00f22)" style="fill: #800000"/>
   </g>
   <g id="patch_185">
    <path d="M 86.976 124.748516 
L 91.584 124.748516 
L 91.584 123.464506 
L 86.976 123.464506 
z
" clip-path="url(#p12bdc00f22)" style="fill: #800000"/>
   </g>
   <g id="patch_186">
    <path d="M 92.736 124.748516 
L 97.344 124.748516 
L 97.344 123.569323 
L 92.736 123.569323 
z
" clip-path="url(#p12bdc00f22)" style="fill: #800000"/>
   </g>
   <g id="patch_187">
    <path d="M 98.496 124.748516 
L 103.104 124.748516 
L 103.104 123.438301 
L 98.496 123.438301 
z
" clip-path="url(#p12bdc00f22)" style="fill: #800000"/>
   </g>
   <g id="patch_188">
    <path d="M 104.256 124.748516 
L 108.864 124.748516 
L 108.864 123.12385 
L 104.256 123.12385 
z
" clip-path="url(#p12bdc00f22)" style="fill: #800000"/>
   </g>
   <g id="patch_189">
    <path d="M 110.016 124.748516 
L 114.624 124.748516 
L 114.624 122.992828 
L 110.016 122.992828 
z
" clip-path="url(#p12bdc00f22)" style="fill: #800000"/>
   </g>
   <g id="patch_190">
    <path d="M 115.776 124.748516 
L 120.384 124.748516 
L 120.384 122.468743 
L 115.776 122.468743 
z
" clip-path="url(#p12bdc00f22)" style="fill: #800000"/>
   </g>
   <g id="patch_191">
    <path d="M 121.536 124.748516 
L 126.144 124.748516 
L 126.144 122.547355 
L 121.536 122.547355 
z
" clip-path="url(#p12bdc00f22)" style="fill: #800000"/>
   </g>
   <g id="patch_192">
    <path d="M 127.296 124.748516 
L 131.904 124.748516 
L 131.904 122.311517 
L 127.296 122.311517 
z
" clip-path="url(#p12bdc00f22)" style="fill: #800000"/>
   </g>
   <g id="patch_193">
    <path d="M 133.056 124.748516 
L 137.664 124.748516 
L 137.664 122.259108 
L 133.056 122.259108 
z
" clip-path="url(#p12bdc00f22)" style="fill: #800000"/>
   </g>
   <g id="patch_194">
    <path d="M 138.816 124.748516 
L 143.424 124.748516 
L 143.424 122.180495 
L 138.816 122.180495 
z
" clip-path="url(#p12bdc00f22)" style="fill: #800000"/>
   </g>
   <g id="patch_195">
    <path d="M 144.576 124.748516 
L 149.184 124.748516 
L 149.184 122.259108 
L 144.576 122.259108 
z
" clip-path="url(#p12bdc00f22)" style="fill: #800000"/>
   </g>
   <g id="patch_196">
    <path d="M 150.336 124.748516 
L 154.944 124.748516 
L 154.944 122.730785 
L 150.336 122.730785 
z
" clip-path="url(#p12bdc00f22)" style="fill: #800000"/>
   </g>
   <g id="patch_197">
    <path d="M 156.096 124.748516 
L 160.704 124.748516 
L 160.704 122.442538 
L 156.096 122.442538 
z
" clip-path="url(#p12bdc00f22)" style="fill: #800000"/>
   </g>
   <g id="patch_198">
    <path d="M 161.856 124.748516 
L 166.464 124.748516 
L 166.464 122.075678 
L 161.856 122.075678 
z
" clip-path="url(#p12bdc00f22)" style="fill: #800000"/>
   </g>
   <g id="patch_199">
    <path d="M 167.616 124.748516 
L 172.224 124.748516 
L 172.224 123.202463 
L 167.616 123.202463 
z
" clip-path="url(#p12bdc00f22)" style="fill: #800000"/>
   </g>
   <g id="patch_200">
    <path d="M 173.376 124.748516 
L 177.984 124.748516 
L 177.984 123.569323 
L 173.376 123.569323 
z
" clip-path="url(#p12bdc00f22)" style="fill: #800000"/>
   </g>
   <g id="patch_201">
    <path d="M 179.136 124.748516 
L 183.744 124.748516 
L 183.744 123.543118 
L 179.136 123.543118 
z
" clip-path="url(#p12bdc00f22)" style="fill: #800000"/>
   </g>
   <g id="patch_202">
    <path d="M 184.896 124.748516 
L 189.504 124.748516 
L 189.504 123.385893 
L 184.896 123.385893 
z
" clip-path="url(#p12bdc00f22)" style="fill: #800000"/>
   </g>
   <g id="patch_203">
    <path d="M 190.656 124.748516 
L 195.264 124.748516 
L 195.264 123.805161 
L 190.656 123.805161 
z
" clip-path="url(#p12bdc00f22)" style="fill: #800000"/>
   </g>
   <g id="patch_204">
    <path d="M 196.416 124.748516 
L 201.024 124.748516 
L 201.024 124.093409 
L 196.416 124.093409 
z
" clip-path="url(#p12bdc00f22)" style="fill: #800000"/>
   </g>
   <g id="patch_205">
    <path d="M 202.176 124.748516 
L 206.784 124.748516 
L 206.784 124.22443 
L 202.176 124.22443 
z
" clip-path="url(#p12bdc00f22)" style="fill: #800000"/>
   </g>
   <g id="patch_206">
    <path d="M 207.936 124.748516 
L 212.544 124.748516 
L 212.544 124.381656 
L 207.936 124.381656 
z
" clip-path="url(#p12bdc00f22)" style="fill: #800000"/>
   </g>
   <g id="patch_207">
    <path d="M 213.696 124.748516 
L 218.304 124.748516 
L 218.304 124.486473 
L 213.696 124.486473 
z
" clip-path="url(#p12bdc00f22)" style="fill: #800000"/>
   </g>
   <g id="patch_208">
    <path d="M 219.456 124.748516 
L 224.064 124.748516 
L 224.064 124.460269 
L 219.456 124.460269 
z
" clip-path="url(#p12bdc00f22)" style="fill: #800000"/>
   </g>
   <g id="patch_209">
    <path d="M 225.216 124.748516 
L 229.824 124.748516 
L 229.824 124.669903 
L 225.216 124.669903 
z
" clip-path="url(#p12bdc00f22)" style="fill: #800000"/>
   </g>
   <g id="patch_210">
    <path d="M 230.976 124.748516 
L 235.584 124.748516 
L 235.584 124.669903 
L 230.976 124.669903 
z
" clip-path="url(#p12bdc00f22)" style="fill: #800000"/>
   </g>
   <g id="patch_211">
    <path d="M 236.736 124.748516 
L 241.344 124.748516 
L 241.344 124.722312 
L 236.736 124.722312 
z
" clip-path="url(#p12bdc00f22)" style="fill: #800000"/>
   </g>
   <g id="patch_212">
    <path d="M 46.656 82.821651 
L 51.264 82.821651 
L 51.264 77.030503 
L 46.656 77.030503 
z
" clip-path="url(#p12bdc00f22)" style="fill: #800000"/>
   </g>
   <g id="patch_213">
    <path d="M 52.416 82.821651 
L 57.024 82.821651 
L 57.024 68.540313 
L 52.416 68.540313 
z
" clip-path="url(#p12bdc00f22)" style="fill: #800000"/>
   </g>
   <g id="patch_214">
    <path d="M 58.176 82.821651 
L 62.784 82.821651 
L 62.784 80.489469 
L 58.176 80.489469 
z
" clip-path="url(#p12bdc00f22)" style="fill: #800000"/>
   </g>
   <g id="patch_215">
    <path d="M 63.936 82.821651 
L 68.544 82.821651 
L 68.544 79.153051 
L 63.936 79.153051 
z
" clip-path="url(#p12bdc00f22)" style="fill: #800000"/>
   </g>
   <g id="patch_216">
    <path d="M 69.696 82.821651 
L 74.304 82.821651 
L 74.304 81.03976 
L 69.696 81.03976 
z
" clip-path="url(#p12bdc00f22)" style="fill: #800000"/>
   </g>
   <g id="patch_217">
    <path d="M 75.456 82.821651 
L 80.064 82.821651 
L 80.064 81.065964 
L 75.456 81.065964 
z
" clip-path="url(#p12bdc00f22)" style="fill: #800000"/>
   </g>
   <g id="patch_218">
    <path d="M 81.216 82.821651 
L 85.824 82.821651 
L 85.824 81.432824 
L 81.216 81.432824 
z
" clip-path="url(#p12bdc00f22)" style="fill: #800000"/>
   </g>
   <g id="patch_219">
    <path d="M 86.976 82.821651 
L 91.584 82.821651 
L 91.584 81.354211 
L 86.976 81.354211 
z
" clip-path="url(#p12bdc00f22)" style="fill: #800000"/>
   </g>
   <g id="patch_220">
    <path d="M 92.736 82.821651 
L 97.344 82.821651 
L 97.344 80.777717 
L 92.736 80.777717 
z
" clip-path="url(#p12bdc00f22)" style="fill: #800000"/>
   </g>
   <g id="patch_221">
    <path d="M 98.496 82.821651 
L 103.104 82.821651 
L 103.104 81.144577 
L 98.496 81.144577 
z
" clip-path="url(#p12bdc00f22)" style="fill: #800000"/>
   </g>
   <g id="patch_222">
    <path d="M 104.256 82.821651 
L 108.864 82.821651 
L 108.864 81.170781 
L 104.256 81.170781 
z
" clip-path="url(#p12bdc00f22)" style="fill: #800000"/>
   </g>
   <g id="patch_223">
    <path d="M 110.016 82.821651 
L 114.624 82.821651 
L 114.624 80.908738 
L 110.016 80.908738 
z
" clip-path="url(#p12bdc00f22)" style="fill: #800000"/>
   </g>
   <g id="patch_224">
    <path d="M 115.776 82.821651 
L 120.384 82.821651 
L 120.384 80.672899 
L 115.776 80.672899 
z
" clip-path="url(#p12bdc00f22)" style="fill: #800000"/>
   </g>
   <g id="patch_225">
    <path d="M 121.536 82.821651 
L 126.144 82.821651 
L 126.144 80.201222 
L 121.536 80.201222 
z
" clip-path="url(#p12bdc00f22)" style="fill: #800000"/>
   </g>
   <g id="patch_226">
    <path d="M 127.296 82.821651 
L 131.904 82.821651 
L 131.904 80.017792 
L 127.296 80.017792 
z
" clip-path="url(#p12bdc00f22)" style="fill: #800000"/>
   </g>
   <g id="patch_227">
    <path d="M 133.056 82.821651 
L 137.664 82.821651 
L 137.664 80.201222 
L 133.056 80.201222 
z
" clip-path="url(#p12bdc00f22)" style="fill: #800000"/>
   </g>
   <g id="patch_228">
    <path d="M 138.816 82.821651 
L 143.424 82.821651 
L 143.424 80.122609 
L 138.816 80.122609 
z
" clip-path="url(#p12bdc00f22)" style="fill: #800000"/>
   </g>
   <g id="patch_229">
    <path d="M 144.576 82.821651 
L 149.184 82.821651 
L 149.184 80.515674 
L 144.576 80.515674 
z
" clip-path="url(#p12bdc00f22)" style="fill: #800000"/>
   </g>
   <g id="patch_230">
    <path d="M 150.336 82.821651 
L 154.944 82.821651 
L 154.944 80.410857 
L 150.336 80.410857 
z
" clip-path="url(#p12bdc00f22)" style="fill: #800000"/>
   </g>
   <g id="patch_231">
    <path d="M 156.096 82.821651 
L 160.704 82.821651 
L 160.704 80.646695 
L 156.096 80.646695 
z
" clip-path="url(#p12bdc00f22)" style="fill: #800000"/>
   </g>
   <g id="patch_232">
    <path d="M 161.856 82.821651 
L 166.464 82.821651 
L 166.464 80.594287 
L 161.856 80.594287 
z
" clip-path="url(#p12bdc00f22)" style="fill: #800000"/>
   </g>
   <g id="patch_233">
    <path d="M 167.616 82.821651 
L 172.224 82.821651 
L 172.224 81.092168 
L 167.616 81.092168 
z
" clip-path="url(#p12bdc00f22)" style="fill: #800000"/>
   </g>
   <g id="patch_234">
    <path d="M 173.376 82.821651 
L 177.984 82.821651 
L 177.984 81.196985 
L 173.376 81.196985 
z
" clip-path="url(#p12bdc00f22)" style="fill: #800000"/>
   </g>
   <g id="patch_235">
    <path d="M 179.136 82.821651 
L 183.744 82.821651 
L 183.744 81.616254 
L 179.136 81.616254 
z
" clip-path="url(#p12bdc00f22)" style="fill: #800000"/>
   </g>
   <g id="patch_236">
    <path d="M 184.896 82.821651 
L 189.504 82.821651 
L 189.504 81.616254 
L 184.896 81.616254 
z
" clip-path="url(#p12bdc00f22)" style="fill: #800000"/>
   </g>
   <g id="patch_237">
    <path d="M 190.656 82.821651 
L 195.264 82.821651 
L 195.264 82.218953 
L 190.656 82.218953 
z
" clip-path="url(#p12bdc00f22)" style="fill: #800000"/>
   </g>
   <g id="patch_238">
    <path d="M 196.416 82.821651 
L 201.024 82.821651 
L 201.024 82.218953 
L 196.416 82.218953 
z
" clip-path="url(#p12bdc00f22)" style="fill: #800000"/>
   </g>
   <g id="patch_239">
    <path d="M 202.176 82.821651 
L 206.784 82.821651 
L 206.784 82.402383 
L 202.176 82.402383 
z
" clip-path="url(#p12bdc00f22)" style="fill: #800000"/>
   </g>
   <g id="patch_240">
    <path d="M 207.936 82.821651 
L 212.544 82.821651 
L 212.544 82.559608 
L 207.936 82.559608 
z
" clip-path="url(#p12bdc00f22)" style="fill: #800000"/>
   </g>
   <g id="patch_241">
    <path d="M 213.696 82.821651 
L 218.304 82.821651 
L 218.304 82.664426 
L 213.696 82.664426 
z
" clip-path="url(#p12bdc00f22)" style="fill: #800000"/>
   </g>
   <g id="patch_242">
    <path d="M 219.456 82.821651 
L 224.064 82.821651 
L 224.064 82.533404 
L 219.456 82.533404 
z
" clip-path="url(#p12bdc00f22)" style="fill: #800000"/>
   </g>
   <g id="patch_243">
    <path d="M 225.216 82.821651 
L 229.824 82.821651 
L 229.824 82.664426 
L 225.216 82.664426 
z
" clip-path="url(#p12bdc00f22)" style="fill: #800000"/>
   </g>
   <g id="patch_244">
    <path d="M 230.976 82.821651 
L 235.584 82.821651 
L 235.584 82.716834 
L 230.976 82.716834 
z
" clip-path="url(#p12bdc00f22)" style="fill: #800000"/>
   </g>
   <g id="patch_245">
    <path d="M 236.736 82.821651 
L 241.344 82.821651 
L 241.344 82.769243 
L 236.736 82.769243 
z
" clip-path="url(#p12bdc00f22)" style="fill: #800000"/>
   </g>
   <g id="patch_246">
    <path d="M 242.496 82.821651 
L 247.104 82.821651 
L 247.104 82.769243 
L 242.496 82.769243 
z
" clip-path="url(#p12bdc00f22)" style="fill: #800000"/>
   </g>
   <g id="patch_247">
    <path d="M 248.256 82.821651 
L 252.864 82.821651 
L 252.864 82.795447 
L 248.256 82.795447 
z
" clip-path="url(#p12bdc00f22)" style="fill: #800000"/>
   </g>
   <g id="patch_248">
    <path d="M 46.656 40.894787 
L 51.264 40.894787 
L 51.264 35.470499 
L 46.656 35.470499 
z
" clip-path="url(#p12bdc00f22)" style="fill: #800000"/>
   </g>
   <g id="patch_249">
    <path d="M 52.416 40.894787 
L 57.024 40.894787 
L 57.024 25.774911 
L 52.416 25.774911 
z
" clip-path="url(#p12bdc00f22)" style="fill: #800000"/>
   </g>
   <g id="patch_250">
    <path d="M 58.176 40.894787 
L 62.784 40.894787 
L 62.784 37.907498 
L 58.176 37.907498 
z
" clip-path="url(#p12bdc00f22)" style="fill: #800000"/>
   </g>
   <g id="patch_251">
    <path d="M 63.936 40.894787 
L 68.544 40.894787 
L 68.544 36.597283 
L 63.936 36.597283 
z
" clip-path="url(#p12bdc00f22)" style="fill: #800000"/>
   </g>
   <g id="patch_252">
    <path d="M 69.696 40.894787 
L 74.304 40.894787 
L 74.304 38.981874 
L 69.696 38.981874 
z
" clip-path="url(#p12bdc00f22)" style="fill: #800000"/>
   </g>
   <g id="patch_253">
    <path d="M 75.456 40.894787 
L 80.064 40.894787 
L 80.064 38.667422 
L 75.456 38.667422 
z
" clip-path="url(#p12bdc00f22)" style="fill: #800000"/>
   </g>
   <g id="patch_254">
    <path d="M 81.216 40.894787 
L 85.824 40.894787 
L 85.824 38.955669 
L 81.216 38.955669 
z
" clip-path="url(#p12bdc00f22)" style="fill: #800000"/>
   </g>
   <g id="patch_255">
    <path d="M 86.976 40.894787 
L 91.584 40.894787 
L 91.584 38.929465 
L 86.976 38.929465 
z
" clip-path="url(#p12bdc00f22)" style="fill: #800000"/>
   </g>
   <g id="patch_256">
    <path d="M 92.736 40.894787 
L 97.344 40.894787 
L 97.344 39.453551 
L 92.736 39.453551 
z
" clip-path="url(#p12bdc00f22)" style="fill: #800000"/>
   </g>
   <g id="patch_257">
    <path d="M 98.496 40.894787 
L 103.104 40.894787 
L 103.104 38.117132 
L 98.496 38.117132 
z
" clip-path="url(#p12bdc00f22)" style="fill: #800000"/>
   </g>
   <g id="patch_258">
    <path d="M 104.256 40.894787 
L 108.864 40.894787 
L 108.864 38.379175 
L 104.256 38.379175 
z
" clip-path="url(#p12bdc00f22)" style="fill: #800000"/>
   </g>
   <g id="patch_259">
    <path d="M 110.016 40.894787 
L 114.624 40.894787 
L 114.624 38.431583 
L 110.016 38.431583 
z
" clip-path="url(#p12bdc00f22)" style="fill: #800000"/>
   </g>
   <g id="patch_260">
    <path d="M 115.776 40.894787 
L 120.384 40.894787 
L 120.384 38.143336 
L 115.776 38.143336 
z
" clip-path="url(#p12bdc00f22)" style="fill: #800000"/>
   </g>
   <g id="patch_261">
    <path d="M 121.536 40.894787 
L 126.144 40.894787 
L 126.144 37.828885 
L 121.536 37.828885 
z
" clip-path="url(#p12bdc00f22)" style="fill: #800000"/>
   </g>
   <g id="patch_262">
    <path d="M 127.296 40.894787 
L 131.904 40.894787 
L 131.904 37.645455 
L 127.296 37.645455 
z
" clip-path="url(#p12bdc00f22)" style="fill: #800000"/>
   </g>
   <g id="patch_263">
    <path d="M 133.056 40.894787 
L 137.664 40.894787 
L 137.664 37.593046 
L 133.056 37.593046 
z
" clip-path="url(#p12bdc00f22)" style="fill: #800000"/>
   </g>
   <g id="patch_264">
    <path d="M 138.816 40.894787 
L 143.424 40.894787 
L 143.424 38.195745 
L 138.816 38.195745 
z
" clip-path="url(#p12bdc00f22)" style="fill: #800000"/>
   </g>
   <g id="patch_265">
    <path d="M 144.576 40.894787 
L 149.184 40.894787 
L 149.184 37.488229 
L 144.576 37.488229 
z
" clip-path="url(#p12bdc00f22)" style="fill: #800000"/>
   </g>
   <g id="patch_266">
    <path d="M 150.336 40.894787 
L 154.944 40.894787 
L 154.944 38.746035 
L 150.336 38.746035 
z
" clip-path="url(#p12bdc00f22)" style="fill: #800000"/>
   </g>
   <g id="patch_267">
    <path d="M 156.096 40.894787 
L 160.704 40.894787 
L 160.704 38.693626 
L 156.096 38.693626 
z
" clip-path="url(#p12bdc00f22)" style="fill: #800000"/>
   </g>
   <g id="patch_268">
    <path d="M 161.856 40.894787 
L 166.464 40.894787 
L 166.464 38.798444 
L 161.856 38.798444 
z
" clip-path="url(#p12bdc00f22)" style="fill: #800000"/>
   </g>
   <g id="patch_269">
    <path d="M 167.616 40.894787 
L 172.224 40.894787 
L 172.224 39.243916 
L 167.616 39.243916 
z
" clip-path="url(#p12bdc00f22)" style="fill: #800000"/>
   </g>
   <g id="patch_270">
    <path d="M 173.376 40.894787 
L 177.984 40.894787 
L 177.984 39.401142 
L 173.376 39.401142 
z
" clip-path="url(#p12bdc00f22)" style="fill: #800000"/>
   </g>
   <g id="patch_271">
    <path d="M 179.136 40.894787 
L 183.744 40.894787 
L 183.744 39.689389 
L 179.136 39.689389 
z
" clip-path="url(#p12bdc00f22)" style="fill: #800000"/>
   </g>
   <g id="patch_272">
    <path d="M 184.896 40.894787 
L 189.504 40.894787 
L 189.504 39.715594 
L 184.896 39.715594 
z
" clip-path="url(#p12bdc00f22)" style="fill: #800000"/>
   </g>
   <g id="patch_273">
    <path d="M 190.656 40.894787 
L 195.264 40.894787 
L 195.264 40.265884 
L 190.656 40.265884 
z
" clip-path="url(#p12bdc00f22)" style="fill: #800000"/>
   </g>
   <g id="patch_274">
    <path d="M 196.416 40.894787 
L 201.024 40.894787 
L 201.024 40.187271 
L 196.416 40.187271 
z
" clip-path="url(#p12bdc00f22)" style="fill: #800000"/>
   </g>
   <g id="patch_275">
    <path d="M 202.176 40.894787 
L 206.784 40.894787 
L 206.784 40.554131 
L 202.176 40.554131 
z
" clip-path="url(#p12bdc00f22)" style="fill: #800000"/>
   </g>
   <g id="patch_276">
    <path d="M 207.936 40.894787 
L 212.544 40.894787 
L 212.544 40.60654 
L 207.936 40.60654 
z
" clip-path="url(#p12bdc00f22)" style="fill: #800000"/>
   </g>
   <g id="patch_277">
    <path d="M 213.696 40.894787 
L 218.304 40.894787 
L 218.304 40.632744 
L 213.696 40.632744 
z
" clip-path="url(#p12bdc00f22)" style="fill: #800000"/>
   </g>
   <g id="patch_278">
    <path d="M 219.456 40.894787 
L 224.064 40.894787 
L 224.064 40.763765 
L 219.456 40.763765 
z
" clip-path="url(#p12bdc00f22)" style="fill: #800000"/>
   </g>
   <g id="patch_279">
    <path d="M 225.216 40.894787 
L 229.824 40.894787 
L 229.824 40.842378 
L 225.216 40.842378 
z
" clip-path="url(#p12bdc00f22)" style="fill: #800000"/>
   </g>
   <g id="patch_280">
    <path d="M 230.976 40.894787 
L 235.584 40.894787 
L 235.584 40.868582 
L 230.976 40.868582 
z
" clip-path="url(#p12bdc00f22)" style="fill: #800000"/>
   </g>
   <g id="patch_281">
    <path d="M 236.736 40.894787 
L 241.344 40.894787 
L 241.344 40.842378 
L 236.736 40.842378 
z
" clip-path="url(#p12bdc00f22)" style="fill: #800000"/>
   </g>
   <g id="patch_282">
    <path d="M 248.256 40.894787 
L 252.864 40.894787 
L 252.864 40.868582 
L 248.256 40.868582 
z
" clip-path="url(#p12bdc00f22)" style="fill: #800000"/>
   </g>
   <g id="matplotlib.axis_1">
    <g id="xtick_1">
     <g id="line2d_1">
      <defs>
       <path id="mf045caeba5" d="M 0 0 
L 0 3.5 
" style="stroke: #000000; stroke-width: 0.8"/>
      </defs>
      <g>
       <use xlink:href="#mf045caeba5" x="43.2" y="439.2" style="stroke: #000000; stroke-width: 0.8"/>
      </g>
     </g>
     <g id="text_1">
      <!-- 0 -->
      <g transform="translate(40.01875 453.798437) scale(0.1 -0.1)">
       <defs>
        <path id="DejaVuSans-30" d="M 2034 4250 
Q 1547 4250 1301 3770 
Q 1056 3291 1056 2328 
Q 1056 1369 1301 889 
Q 1547 409 2034 409 
Q 2525 409 2770 889 
Q 3016 1369 3016 2328 
Q 3016 3291 2770 3770 
Q 2525 4250 2034 4250 
z
M 2034 4750 
Q 2819 4750 3233 4129 
Q 3647 3509 3647 2328 
Q 3647 1150 3233 529 
Q 2819 -91 2034 -91 
Q 1250 -91 836 529 
Q 422 1150 422 2328 
Q 422 3509 836 4129 
Q 1250 4750 2034 4750 
z
" transform="scale(0.015625)"/>
       </defs>
       <use xlink:href="#DejaVuSans-30"/>
      </g>
     </g>
    </g>
    <g id="xtick_2">
     <g id="line2d_2">
      <g>
       <use xlink:href="#mf045caeba5" x="100.8" y="439.2" style="stroke: #000000; stroke-width: 0.8"/>
      </g>
     </g>
     <g id="text_2">
      <!-- 10 -->
      <g transform="translate(94.4375 453.798437) scale(0.1 -0.1)">
       <defs>
        <path id="DejaVuSans-31" d="M 794 531 
L 1825 531 
L 1825 4091 
L 703 3866 
L 703 4441 
L 1819 4666 
L 2450 4666 
L 2450 531 
L 3481 531 
L 3481 0 
L 794 0 
L 794 531 
z
" transform="scale(0.015625)"/>
       </defs>
       <use xlink:href="#DejaVuSans-31"/>
       <use xlink:href="#DejaVuSans-30" x="63.623047"/>
      </g>
     </g>
    </g>
    <g id="xtick_3">
     <g id="line2d_3">
      <g>
       <use xlink:href="#mf045caeba5" x="158.4" y="439.2" style="stroke: #000000; stroke-width: 0.8"/>
      </g>
     </g>
     <g id="text_3">
      <!-- 20 -->
      <g transform="translate(152.0375 453.798437) scale(0.1 -0.1)">
       <defs>
        <path id="DejaVuSans-32" d="M 1228 531 
L 3431 531 
L 3431 0 
L 469 0 
L 469 531 
Q 828 903 1448 1529 
Q 2069 2156 2228 2338 
Q 2531 2678 2651 2914 
Q 2772 3150 2772 3378 
Q 2772 3750 2511 3984 
Q 2250 4219 1831 4219 
Q 1534 4219 1204 4116 
Q 875 4013 500 3803 
L 500 4441 
Q 881 4594 1212 4672 
Q 1544 4750 1819 4750 
Q 2544 4750 2975 4387 
Q 3406 4025 3406 3419 
Q 3406 3131 3298 2873 
Q 3191 2616 2906 2266 
Q 2828 2175 2409 1742 
Q 1991 1309 1228 531 
z
" transform="scale(0.015625)"/>
       </defs>
       <use xlink:href="#DejaVuSans-32"/>
       <use xlink:href="#DejaVuSans-30" x="63.623047"/>
      </g>
     </g>
    </g>
    <g id="text_4">
     <!-- total spawned fronts -->
     <g transform="translate(63.741406 467.476562) scale(0.1 -0.1)">
      <defs>
       <path id="DejaVuSans-74" d="M 1172 4494 
L 1172 3500 
L 2356 3500 
L 2356 3053 
L 1172 3053 
L 1172 1153 
Q 1172 725 1289 603 
Q 1406 481 1766 481 
L 2356 481 
L 2356 0 
L 1766 0 
Q 1100 0 847 248 
Q 594 497 594 1153 
L 594 3053 
L 172 3053 
L 172 3500 
L 594 3500 
L 594 4494 
L 1172 4494 
z
" transform="scale(0.015625)"/>
       <path id="DejaVuSans-6f" d="M 1959 3097 
Q 1497 3097 1228 2736 
Q 959 2375 959 1747 
Q 959 1119 1226 758 
Q 1494 397 1959 397 
Q 2419 397 2687 759 
Q 2956 1122 2956 1747 
Q 2956 2369 2687 2733 
Q 2419 3097 1959 3097 
z
M 1959 3584 
Q 2709 3584 3137 3096 
Q 3566 2609 3566 1747 
Q 3566 888 3137 398 
Q 2709 -91 1959 -91 
Q 1206 -91 779 398 
Q 353 888 353 1747 
Q 353 2609 779 3096 
Q 1206 3584 1959 3584 
z
" transform="scale(0.015625)"/>
       <path id="DejaVuSans-61" d="M 2194 1759 
Q 1497 1759 1228 1600 
Q 959 1441 959 1056 
Q 959 750 1161 570 
Q 1363 391 1709 391 
Q 2188 391 2477 730 
Q 2766 1069 2766 1631 
L 2766 1759 
L 2194 1759 
z
M 3341 1997 
L 3341 0 
L 2766 0 
L 2766 531 
Q 2569 213 2275 61 
Q 1981 -91 1556 -91 
Q 1019 -91 701 211 
Q 384 513 384 1019 
Q 384 1609 779 1909 
Q 1175 2209 1959 2209 
L 2766 2209 
L 2766 2266 
Q 2766 2663 2505 2880 
Q 2244 3097 1772 3097 
Q 1472 3097 1187 3025 
Q 903 2953 641 2809 
L 641 3341 
Q 956 3463 1253 3523 
Q 1550 3584 1831 3584 
Q 2591 3584 2966 3190 
Q 3341 2797 3341 1997 
z
" transform="scale(0.015625)"/>
       <path id="DejaVuSans-6c" d="M 603 4863 
L 1178 4863 
L 1178 0 
L 603 0 
L 603 4863 
z
" transform="scale(0.015625)"/>
       <path id="DejaVuSans-20" transform="scale(0.015625)"/>
       <path id="DejaVuSans-73" d="M 2834 3397 
L 2834 2853 
Q 2591 2978 2328 3040 
Q 2066 3103 1784 3103 
Q 1356 3103 1142 2972 
Q 928 2841 928 2578 
Q 928 2378 1081 2264 
Q 1234 2150 1697 2047 
L 1894 2003 
Q 2506 1872 2764 1633 
Q 3022 1394 3022 966 
Q 3022 478 2636 193 
Q 2250 -91 1575 -91 
Q 1294 -91 989 -36 
Q 684 19 347 128 
L 347 722 
Q 666 556 975 473 
Q 1284 391 1588 391 
Q 1994 391 2212 530 
Q 2431 669 2431 922 
Q 2431 1156 2273 1281 
Q 2116 1406 1581 1522 
L 1381 1569 
Q 847 1681 609 1914 
Q 372 2147 372 2553 
Q 372 3047 722 3315 
Q 1072 3584 1716 3584 
Q 2034 3584 2315 3537 
Q 2597 3491 2834 3397 
z
" transform="scale(0.015625)"/>
       <path id="DejaVuSans-70" d="M 1159 525 
L 1159 -1331 
L 581 -1331 
L 581 3500 
L 1159 3500 
L 1159 2969 
Q 1341 3281 1617 3432 
Q 1894 3584 2278 3584 
Q 2916 3584 3314 3078 
Q 3713 2572 3713 1747 
Q 3713 922 3314 415 
Q 2916 -91 2278 -91 
Q 1894 -91 1617 61 
Q 1341 213 1159 525 
z
M 3116 1747 
Q 3116 2381 2855 2742 
Q 2594 3103 2138 3103 
Q 1681 3103 1420 2742 
Q 1159 2381 1159 1747 
Q 1159 1113 1420 752 
Q 1681 391 2138 391 
Q 2594 391 2855 752 
Q 3116 1113 3116 1747 
z
" transform="scale(0.015625)"/>
       <path id="DejaVuSans-77" d="M 269 3500 
L 844 3500 
L 1563 769 
L 2278 3500 
L 2956 3500 
L 3675 769 
L 4391 3500 
L 4966 3500 
L 4050 0 
L 3372 0 
L 2619 2869 
L 1863 0 
L 1184 0 
L 269 3500 
z
" transform="scale(0.015625)"/>
       <path id="DejaVuSans-6e" d="M 3513 2113 
L 3513 0 
L 2938 0 
L 2938 2094 
Q 2938 2591 2744 2837 
Q 2550 3084 2163 3084 
Q 1697 3084 1428 2787 
Q 1159 2491 1159 1978 
L 1159 0 
L 581 0 
L 581 3500 
L 1159 3500 
L 1159 2956 
Q 1366 3272 1645 3428 
Q 1925 3584 2291 3584 
Q 2894 3584 3203 3211 
Q 3513 2838 3513 2113 
z
" transform="scale(0.015625)"/>
       <path id="DejaVuSans-65" d="M 3597 1894 
L 3597 1613 
L 953 1613 
Q 991 1019 1311 708 
Q 1631 397 2203 397 
Q 2534 397 2845 478 
Q 3156 559 3463 722 
L 3463 178 
Q 3153 47 2828 -22 
Q 2503 -91 2169 -91 
Q 1331 -91 842 396 
Q 353 884 353 1716 
Q 353 2575 817 3079 
Q 1281 3584 2069 3584 
Q 2775 3584 3186 3129 
Q 3597 2675 3597 1894 
z
M 3022 2063 
Q 3016 2534 2758 2815 
Q 2500 3097 2075 3097 
Q 1594 3097 1305 2825 
Q 1016 2553 972 2059 
L 3022 2063 
z
" transform="scale(0.015625)"/>
       <path id="DejaVuSans-64" d="M 2906 2969 
L 2906 4863 
L 3481 4863 
L 3481 0 
L 2906 0 
L 2906 525 
Q 2725 213 2448 61 
Q 2172 -91 1784 -91 
Q 1150 -91 751 415 
Q 353 922 353 1747 
Q 353 2572 751 3078 
Q 1150 3584 1784 3584 
Q 2172 3584 2448 3432 
Q 2725 3281 2906 2969 
z
M 947 1747 
Q 947 1113 1208 752 
Q 1469 391 1925 391 
Q 2381 391 2643 752 
Q 2906 1113 2906 1747 
Q 2906 2381 2643 2742 
Q 2381 3103 1925 3103 
Q 1469 3103 1208 2742 
Q 947 2381 947 1747 
z
" transform="scale(0.015625)"/>
       <path id="DejaVuSans-66" d="M 2375 4863 
L 2375 4384 
L 1825 4384 
Q 1516 4384 1395 4259 
Q 1275 4134 1275 3809 
L 1275 3500 
L 2222 3500 
L 2222 3053 
L 1275 3053 
L 1275 0 
L 697 0 
L 697 3053 
L 147 3053 
L 147 3500 
L 697 3500 
L 697 3744 
Q 697 4328 969 4595 
Q 1241 4863 1831 4863 
L 2375 4863 
z
" transform="scale(0.015625)"/>
       <path id="DejaVuSans-72" d="M 2631 2963 
Q 2534 3019 2420 3045 
Q 2306 3072 2169 3072 
Q 1681 3072 1420 2755 
Q 1159 2438 1159 1844 
L 1159 0 
L 581 0 
L 581 3500 
L 1159 3500 
L 1159 2956 
Q 1341 3275 1631 3429 
Q 1922 3584 2338 3584 
Q 2397 3584 2469 3576 
Q 2541 3569 2628 3553 
L 2631 2963 
z
" transform="scale(0.015625)"/>
      </defs>
      <use xlink:href="#DejaVuSans-74"/>
      <use xlink:href="#DejaVuSans-6f" x="39.208984"/>
      <use xlink:href="#DejaVuSans-74" x="100.390625"/>
      <use xlink:href="#DejaVuSans-61" x="139.599609"/>
      <use xlink:href="#DejaVuSans-6c" x="200.878906"/>
      <use xlink:href="#DejaVuSans-20" x="228.662109"/>
      <use xlink:href="#DejaVuSans-73" x="260.449219"/>
      <use xlink:href="#DejaVuSans-70" x="312.548828"/>
      <use xlink:href="#DejaVuSans-61" x="376.025391"/>
      <use xlink:href="#DejaVuSans-77" x="437.304688"/>
      <use xlink:href="#DejaVuSans-6e" x="519.091797"/>
      <use xlink:href="#DejaVuSans-65" x="582.470703"/>
      <use xlink:href="#DejaVuSans-64" x="643.994141"/>
      <use xlink:href="#DejaVuSans-20" x="707.470703"/>
      <use xlink:href="#DejaVuSans-66" x="739.257812"/>
      <use xlink:href="#DejaVuSans-72" x="774.462891"/>
      <use xlink:href="#DejaVuSans-6f" x="813.326172"/>
      <use xlink:href="#DejaVuSans-6e" x="874.507812"/>
      <use xlink:href="#DejaVuSans-74" x="937.886719"/>
      <use xlink:href="#DejaVuSans-73" x="977.095703"/>
     </g>
    </g>
   </g>
   <g id="matplotlib.axis_2">
    <g id="ytick_1">
     <g id="line2d_4">
      <defs>
       <path id="m283c77cc79" d="M 0 0 
L -3.5 0 
" style="stroke: #000000; stroke-width: 0.8"/>
      </defs>
      <g>
       <use xlink:href="#m283c77cc79" x="43.2" y="439.2" style="stroke: #000000; stroke-width: 0.8"/>
      </g>
     </g>
     <g id="text_5">
      <!-- 1 -->
      <g transform="translate(29.8375 442.999219) scale(0.1 -0.1)">
       <use xlink:href="#DejaVuSans-31"/>
      </g>
     </g>
    </g>
    <g id="ytick_2">
     <g id="line2d_5">
      <g>
       <use xlink:href="#m283c77cc79" x="43.2" y="418.236568" style="stroke: #000000; stroke-width: 0.8"/>
      </g>
     </g>
     <g id="text_6">
      <!-- 2 -->
      <g transform="translate(29.8375 422.035786) scale(0.1 -0.1)">
       <use xlink:href="#DejaVuSans-32"/>
      </g>
     </g>
    </g>
    <g id="ytick_3">
     <g id="line2d_6">
      <g>
       <use xlink:href="#m283c77cc79" x="43.2" y="397.273135" style="stroke: #000000; stroke-width: 0.8"/>
      </g>
     </g>
     <g id="text_7">
      <!-- 3 -->
      <g transform="translate(29.8375 401.072354) scale(0.1 -0.1)">
       <defs>
        <path id="DejaVuSans-33" d="M 2597 2516 
Q 3050 2419 3304 2112 
Q 3559 1806 3559 1356 
Q 3559 666 3084 287 
Q 2609 -91 1734 -91 
Q 1441 -91 1130 -33 
Q 819 25 488 141 
L 488 750 
Q 750 597 1062 519 
Q 1375 441 1716 441 
Q 2309 441 2620 675 
Q 2931 909 2931 1356 
Q 2931 1769 2642 2001 
Q 2353 2234 1838 2234 
L 1294 2234 
L 1294 2753 
L 1863 2753 
Q 2328 2753 2575 2939 
Q 2822 3125 2822 3475 
Q 2822 3834 2567 4026 
Q 2313 4219 1838 4219 
Q 1578 4219 1281 4162 
Q 984 4106 628 3988 
L 628 4550 
Q 988 4650 1302 4700 
Q 1616 4750 1894 4750 
Q 2613 4750 3031 4423 
Q 3450 4097 3450 3541 
Q 3450 3153 3228 2886 
Q 3006 2619 2597 2516 
z
" transform="scale(0.015625)"/>
       </defs>
       <use xlink:href="#DejaVuSans-33"/>
      </g>
     </g>
    </g>
    <g id="ytick_4">
     <g id="line2d_7">
      <g>
       <use xlink:href="#m283c77cc79" x="43.2" y="376.309703" style="stroke: #000000; stroke-width: 0.8"/>
      </g>
     </g>
     <g id="text_8">
      <!-- 4 -->
      <g transform="translate(29.8375 380.108922) scale(0.1 -0.1)">
       <defs>
        <path id="DejaVuSans-34" d="M 2419 4116 
L 825 1625 
L 2419 1625 
L 2419 4116 
z
M 2253 4666 
L 3047 4666 
L 3047 1625 
L 3713 1625 
L 3713 1100 
L 3047 1100 
L 3047 0 
L 2419 0 
L 2419 1100 
L 313 1100 
L 313 1709 
L 2253 4666 
z
" transform="scale(0.015625)"/>
       </defs>
       <use xlink:href="#DejaVuSans-34"/>
      </g>
     </g>
    </g>
    <g id="ytick_5">
     <g id="line2d_8">
      <g>
       <use xlink:href="#m283c77cc79" x="43.2" y="355.346271" style="stroke: #000000; stroke-width: 0.8"/>
      </g>
     </g>
     <g id="text_9">
      <!-- 5 -->
      <g transform="translate(29.8375 359.14549) scale(0.1 -0.1)">
       <defs>
        <path id="DejaVuSans-35" d="M 691 4666 
L 3169 4666 
L 3169 4134 
L 1269 4134 
L 1269 2991 
Q 1406 3038 1543 3061 
Q 1681 3084 1819 3084 
Q 2600 3084 3056 2656 
Q 3513 2228 3513 1497 
Q 3513 744 3044 326 
Q 2575 -91 1722 -91 
Q 1428 -91 1123 -41 
Q 819 9 494 109 
L 494 744 
Q 775 591 1075 516 
Q 1375 441 1709 441 
Q 2250 441 2565 725 
Q 2881 1009 2881 1497 
Q 2881 1984 2565 2268 
Q 2250 2553 1709 2553 
Q 1456 2553 1204 2497 
Q 953 2441 691 2322 
L 691 4666 
z
" transform="scale(0.015625)"/>
       </defs>
       <use xlink:href="#DejaVuSans-35"/>
      </g>
     </g>
    </g>
    <g id="ytick_6">
     <g id="line2d_9">
      <g>
       <use xlink:href="#m283c77cc79" x="43.2" y="334.382839" style="stroke: #000000; stroke-width: 0.8"/>
      </g>
     </g>
     <g id="text_10">
      <!-- 6 -->
      <g transform="translate(29.8375 338.182057) scale(0.1 -0.1)">
       <defs>
        <path id="DejaVuSans-36" d="M 2113 2584 
Q 1688 2584 1439 2293 
Q 1191 2003 1191 1497 
Q 1191 994 1439 701 
Q 1688 409 2113 409 
Q 2538 409 2786 701 
Q 3034 994 3034 1497 
Q 3034 2003 2786 2293 
Q 2538 2584 2113 2584 
z
M 3366 4563 
L 3366 3988 
Q 3128 4100 2886 4159 
Q 2644 4219 2406 4219 
Q 1781 4219 1451 3797 
Q 1122 3375 1075 2522 
Q 1259 2794 1537 2939 
Q 1816 3084 2150 3084 
Q 2853 3084 3261 2657 
Q 3669 2231 3669 1497 
Q 3669 778 3244 343 
Q 2819 -91 2113 -91 
Q 1303 -91 875 529 
Q 447 1150 447 2328 
Q 447 3434 972 4092 
Q 1497 4750 2381 4750 
Q 2619 4750 2861 4703 
Q 3103 4656 3366 4563 
z
" transform="scale(0.015625)"/>
       </defs>
       <use xlink:href="#DejaVuSans-36"/>
      </g>
     </g>
    </g>
    <g id="ytick_7">
     <g id="line2d_10">
      <g>
       <use xlink:href="#m283c77cc79" x="43.2" y="313.419406" style="stroke: #000000; stroke-width: 0.8"/>
      </g>
     </g>
     <g id="text_11">
      <!-- 7 -->
      <g transform="translate(29.8375 317.218625) scale(0.1 -0.1)">
       <defs>
        <path id="DejaVuSans-37" d="M 525 4666 
L 3525 4666 
L 3525 4397 
L 1831 0 
L 1172 0 
L 2766 4134 
L 525 4134 
L 525 4666 
z
" transform="scale(0.015625)"/>
       </defs>
       <use xlink:href="#DejaVuSans-37"/>
      </g>
     </g>
    </g>
    <g id="ytick_8">
     <g id="line2d_11">
      <g>
       <use xlink:href="#m283c77cc79" x="43.2" y="292.455974" style="stroke: #000000; stroke-width: 0.8"/>
      </g>
     </g>
     <g id="text_12">
      <!-- 8 -->
      <g transform="translate(29.8375 296.255193) scale(0.1 -0.1)">
       <defs>
        <path id="DejaVuSans-38" d="M 2034 2216 
Q 1584 2216 1326 1975 
Q 1069 1734 1069 1313 
Q 1069 891 1326 650 
Q 1584 409 2034 409 
Q 2484 409 2743 651 
Q 3003 894 3003 1313 
Q 3003 1734 2745 1975 
Q 2488 2216 2034 2216 
z
M 1403 2484 
Q 997 2584 770 2862 
Q 544 3141 544 3541 
Q 544 4100 942 4425 
Q 1341 4750 2034 4750 
Q 2731 4750 3128 4425 
Q 3525 4100 3525 3541 
Q 3525 3141 3298 2862 
Q 3072 2584 2669 2484 
Q 3125 2378 3379 2068 
Q 3634 1759 3634 1313 
Q 3634 634 3220 271 
Q 2806 -91 2034 -91 
Q 1263 -91 848 271 
Q 434 634 434 1313 
Q 434 1759 690 2068 
Q 947 2378 1403 2484 
z
M 1172 3481 
Q 1172 3119 1398 2916 
Q 1625 2713 2034 2713 
Q 2441 2713 2670 2916 
Q 2900 3119 2900 3481 
Q 2900 3844 2670 4047 
Q 2441 4250 2034 4250 
Q 1625 4250 1398 4047 
Q 1172 3844 1172 3481 
z
" transform="scale(0.015625)"/>
       </defs>
       <use xlink:href="#DejaVuSans-38"/>
      </g>
     </g>
    </g>
    <g id="ytick_9">
     <g id="line2d_12">
      <g>
       <use xlink:href="#m283c77cc79" x="43.2" y="271.492542" style="stroke: #000000; stroke-width: 0.8"/>
      </g>
     </g>
     <g id="text_13">
      <!-- 9 -->
      <g transform="translate(29.8375 275.291761) scale(0.1 -0.1)">
       <defs>
        <path id="DejaVuSans-39" d="M 703 97 
L 703 672 
Q 941 559 1184 500 
Q 1428 441 1663 441 
Q 2288 441 2617 861 
Q 2947 1281 2994 2138 
Q 2813 1869 2534 1725 
Q 2256 1581 1919 1581 
Q 1219 1581 811 2004 
Q 403 2428 403 3163 
Q 403 3881 828 4315 
Q 1253 4750 1959 4750 
Q 2769 4750 3195 4129 
Q 3622 3509 3622 2328 
Q 3622 1225 3098 567 
Q 2575 -91 1691 -91 
Q 1453 -91 1209 -44 
Q 966 3 703 97 
z
M 1959 2075 
Q 2384 2075 2632 2365 
Q 2881 2656 2881 3163 
Q 2881 3666 2632 3958 
Q 2384 4250 1959 4250 
Q 1534 4250 1286 3958 
Q 1038 3666 1038 3163 
Q 1038 2656 1286 2365 
Q 1534 2075 1959 2075 
z
" transform="scale(0.015625)"/>
       </defs>
       <use xlink:href="#DejaVuSans-39"/>
      </g>
     </g>
    </g>
    <g id="ytick_10">
     <g id="line2d_13">
      <g>
       <use xlink:href="#m283c77cc79" x="43.2" y="250.52911" style="stroke: #000000; stroke-width: 0.8"/>
      </g>
     </g>
     <g id="text_14">
      <!-- 10 -->
      <g transform="translate(23.475 254.328328) scale(0.1 -0.1)">
       <use xlink:href="#DejaVuSans-31"/>
       <use xlink:href="#DejaVuSans-30" x="63.623047"/>
      </g>
     </g>
    </g>
    <g id="ytick_11">
     <g id="line2d_14">
      <g>
       <use xlink:href="#m283c77cc79" x="43.2" y="208.602245" style="stroke: #000000; stroke-width: 0.8"/>
      </g>
     </g>
     <g id="text_15">
      <!-- 12 -->
      <g transform="translate(23.475 212.401464) scale(0.1 -0.1)">
       <use xlink:href="#DejaVuSans-31"/>
       <use xlink:href="#DejaVuSans-32" x="63.623047"/>
      </g>
     </g>
    </g>
    <g id="ytick_12">
     <g id="line2d_15">
      <g>
       <use xlink:href="#m283c77cc79" x="43.2" y="166.67538" style="stroke: #000000; stroke-width: 0.8"/>
      </g>
     </g>
     <g id="text_16">
      <!-- 14 -->
      <g transform="translate(23.475 170.474599) scale(0.1 -0.1)">
       <use xlink:href="#DejaVuSans-31"/>
       <use xlink:href="#DejaVuSans-34" x="63.623047"/>
      </g>
     </g>
    </g>
    <g id="ytick_13">
     <g id="line2d_16">
      <g>
       <use xlink:href="#m283c77cc79" x="43.2" y="124.748516" style="stroke: #000000; stroke-width: 0.8"/>
      </g>
     </g>
     <g id="text_17">
      <!-- 16 -->
      <g transform="translate(23.475 128.547735) scale(0.1 -0.1)">
       <use xlink:href="#DejaVuSans-31"/>
       <use xlink:href="#DejaVuSans-36" x="63.623047"/>
      </g>
     </g>
    </g>
    <g id="ytick_14">
     <g id="line2d_17">
      <g>
       <use xlink:href="#m283c77cc79" x="43.2" y="82.821651" style="stroke: #000000; stroke-width: 0.8"/>
      </g>
     </g>
     <g id="text_18">
      <!-- 18 -->
      <g transform="translate(23.475 86.62087) scale(0.1 -0.1)">
       <use xlink:href="#DejaVuSans-31"/>
       <use xlink:href="#DejaVuSans-38" x="63.623047"/>
      </g>
     </g>
    </g>
    <g id="ytick_15">
     <g id="line2d_18">
      <g>
       <use xlink:href="#m283c77cc79" x="43.2" y="40.894787" style="stroke: #000000; stroke-width: 0.8"/>
      </g>
     </g>
     <g id="text_19">
      <!-- 20 -->
      <g transform="translate(23.475 44.694005) scale(0.1 -0.1)">
       <use xlink:href="#DejaVuSans-32"/>
       <use xlink:href="#DejaVuSans-30" x="63.623047"/>
      </g>
     </g>
    </g>
    <g id="text_20">
     <!-- channel width -->
     <g transform="translate(17.395312 258.355469) rotate(-90) scale(0.1 -0.1)">
      <defs>
       <path id="DejaVuSans-63" d="M 3122 3366 
L 3122 2828 
Q 2878 2963 2633 3030 
Q 2388 3097 2138 3097 
Q 1578 3097 1268 2742 
Q 959 2388 959 1747 
Q 959 1106 1268 751 
Q 1578 397 2138 397 
Q 2388 397 2633 464 
Q 2878 531 3122 666 
L 3122 134 
Q 2881 22 2623 -34 
Q 2366 -91 2075 -91 
Q 1284 -91 818 406 
Q 353 903 353 1747 
Q 353 2603 823 3093 
Q 1294 3584 2113 3584 
Q 2378 3584 2631 3529 
Q 2884 3475 3122 3366 
z
" transform="scale(0.015625)"/>
       <path id="DejaVuSans-68" d="M 3513 2113 
L 3513 0 
L 2938 0 
L 2938 2094 
Q 2938 2591 2744 2837 
Q 2550 3084 2163 3084 
Q 1697 3084 1428 2787 
Q 1159 2491 1159 1978 
L 1159 0 
L 581 0 
L 581 4863 
L 1159 4863 
L 1159 2956 
Q 1366 3272 1645 3428 
Q 1925 3584 2291 3584 
Q 2894 3584 3203 3211 
Q 3513 2838 3513 2113 
z
" transform="scale(0.015625)"/>
       <path id="DejaVuSans-69" d="M 603 3500 
L 1178 3500 
L 1178 0 
L 603 0 
L 603 3500 
z
M 603 4863 
L 1178 4863 
L 1178 4134 
L 603 4134 
L 603 4863 
z
" transform="scale(0.015625)"/>
      </defs>
      <use xlink:href="#DejaVuSans-63"/>
      <use xlink:href="#DejaVuSans-68" x="54.980469"/>
      <use xlink:href="#DejaVuSans-61" x="118.359375"/>
      <use xlink:href="#DejaVuSans-6e" x="179.638672"/>
      <use xlink:href="#DejaVuSans-6e" x="243.017578"/>
      <use xlink:href="#DejaVuSans-65" x="306.396484"/>
      <use xlink:href="#DejaVuSans-6c" x="367.919922"/>
      <use xlink:href="#DejaVuSans-20" x="395.703125"/>
      <use xlink:href="#DejaVuSans-77" x="427.490234"/>
      <use xlink:href="#DejaVuSans-69" x="509.277344"/>
      <use xlink:href="#DejaVuSans-64" x="537.060547"/>
      <use xlink:href="#DejaVuSans-74" x="600.537109"/>
      <use xlink:href="#DejaVuSans-68" x="639.746094"/>
     </g>
    </g>
   </g>
   <g id="patch_283">
    <path d="M 43.2 439.2 
L 43.2 7.2 
" style="fill: none; stroke: #000000; stroke-width: 0.8; stroke-linejoin: miter; stroke-linecap: square"/>
   </g>
   <g id="patch_284">
    <path d="M 187.2 439.2 
L 187.2 7.2 
" style="fill: none; stroke: #000000; stroke-width: 0.8; stroke-linejoin: miter; stroke-linecap: square"/>
   </g>
   <g id="patch_285">
    <path d="M 43.2 439.2 
L 187.2 439.2 
" style="fill: none; stroke: #000000; stroke-width: 0.8; stroke-linejoin: miter; stroke-linecap: square"/>
   </g>
   <g id="patch_286">
    <path d="M 43.2 7.2 
L 187.2 7.2 
" style="fill: none; stroke: #000000; stroke-width: 0.8; stroke-linejoin: miter; stroke-linecap: square"/>
   </g>
  </g>
 </g>
 <defs>
  <clipPath id="p12bdc00f22">
   <rect x="43.2" y="7.2" width="144" height="432"/>
  </clipPath>
 </defs>
</svg>
