<?xml version="1.0" encoding="utf-8" standalone="no"?>
<!DOCTYPE svg PUBLIC "-//W3C//DTD SVG 1.1//EN"
  "http://www.w3.org/Graphics/SVG/1.1/DTD/svg11.dtd">
<svg xmlns:xlink="http://www.w3.org/1999/xlink" width="201.6pt" height="475.2pt" viewBox="0 0 201.6 475.2" xmlns="http://www.w3.org/2000/svg" version="1.1">
 <metadata>
  <rdf:RDF xmlns:dc="http://purl.org/dc/elements/1.1/" xmlns:cc="http://creativecommons.org/ns#" xmlns:rdf="http://www.w3.org/1999/02/22-rdf-syntax-ns#">
   <cc:Work>
    <dc:type rdf:resource="http://purl.org/dc/dcmitype/StillImage"/>
    <dc:date>2024-04-02T18:09:25.605402</dc:date>
    <dc:format>image/svg+xml</dc:format>
    <dc:creator>
     <cc:Agent>
      <dc:title>Matplotlib v3.7.1, https://matplotlib.org/</dc:title>
     </cc:Agent>
    </dc:creator>
   </cc:Work>
  </rdf:RDF>
 </metadata>
 <defs>
  <style type="text/css">*{stroke-linejoin: round; stroke-linecap: butt}</style>
 </defs>
 <g id="figure_1">
  <g id="patch_1">
   <path d="M 0 475.2 
L 201.6 475.2 
L 201.6 0 
L 0 0 
z
" style="fill: #ffffff"/>
  </g>
  <g id="axes_1">
   <g id="patch_2">
    <path d="M 43.2 439.2 
L 187.2 439.2 
L 187.2 7.2 
L 43.2 7.2 
z
" style="fill: #ffffff"/>
   </g>
   <g id="patch_3">
    <path d="M 46.656 418.845984 
L 51.264 418.845984 
L 51.264 418.693329 
L 46.656 418.693329 
z
" clip-path="url(#pa2904f4eae)" style="fill: #800000"/>
   </g>
   <g id="patch_4">
    <path d="M 40.896 398.491968 
L 45.504 398.491968 
L 45.504 398.466525 
L 40.896 398.466525 
z
" clip-path="url(#pa2904f4eae)" style="fill: #800000"/>
   </g>
   <g id="patch_5">
    <path d="M 46.656 398.491968 
L 51.264 398.491968 
L 51.264 395.057227 
L 46.656 395.057227 
z
" clip-path="url(#pa2904f4eae)" style="fill: #800000"/>
   </g>
   <g id="patch_6">
    <path d="M 52.416 398.491968 
L 57.024 398.491968 
L 57.024 398.466525 
L 52.416 398.466525 
z
" clip-path="url(#pa2904f4eae)" style="fill: #800000"/>
   </g>
   <g id="patch_7">
    <path d="M 40.896 378.137951 
L 45.504 378.137951 
L 45.504 378.112509 
L 40.896 378.112509 
z
" clip-path="url(#pa2904f4eae)" style="fill: #800000"/>
   </g>
   <g id="patch_8">
    <path d="M 46.656 378.137951 
L 51.264 378.137951 
L 51.264 369.131299 
L 46.656 369.131299 
z
" clip-path="url(#pa2904f4eae)" style="fill: #800000"/>
   </g>
   <g id="patch_9">
    <path d="M 52.416 378.137951 
L 57.024 378.137951 
L 57.024 376.81494 
L 52.416 376.81494 
z
" clip-path="url(#pa2904f4eae)" style="fill: #800000"/>
   </g>
   <g id="patch_10">
    <path d="M 58.176 378.137951 
L 62.784 378.137951 
L 62.784 377.985296 
L 58.176 377.985296 
z
" clip-path="url(#pa2904f4eae)" style="fill: #800000"/>
   </g>
   <g id="patch_11">
    <path d="M 40.896 357.783935 
L 45.504 357.783935 
L 45.504 357.682165 
L 40.896 357.682165 
z
" clip-path="url(#pa2904f4eae)" style="fill: #800000"/>
   </g>
   <g id="patch_12">
    <path d="M 46.656 357.783935 
L 51.264 357.783935 
L 51.264 345.342543 
L 46.656 345.342543 
z
" clip-path="url(#pa2904f4eae)" style="fill: #800000"/>
   </g>
   <g id="patch_13">
    <path d="M 52.416 357.783935 
L 57.024 357.783935 
L 57.024 353.78946 
L 52.416 353.78946 
z
" clip-path="url(#pa2904f4eae)" style="fill: #800000"/>
   </g>
   <g id="patch_14">
    <path d="M 58.176 357.783935 
L 62.784 357.783935 
L 62.784 357.249642 
L 58.176 357.249642 
z
" clip-path="url(#pa2904f4eae)" style="fill: #800000"/>
   </g>
   <g id="patch_15">
    <path d="M 63.936 357.783935 
L 68.544 357.783935 
L 68.544 357.707608 
L 63.936 357.707608 
z
" clip-path="url(#pa2904f4eae)" style="fill: #800000"/>
   </g>
   <g id="patch_16">
    <path d="M 69.696 357.783935 
L 74.304 357.783935 
L 74.304 357.758493 
L 69.696 357.758493 
z
" clip-path="url(#pa2904f4eae)" style="fill: #800000"/>
   </g>
   <g id="patch_17">
    <path d="M 40.896 337.429919 
L 45.504 337.429919 
L 45.504 337.404477 
L 40.896 337.404477 
z
" clip-path="url(#pa2904f4eae)" style="fill: #800000"/>
   </g>
   <g id="patch_18">
    <path d="M 46.656 337.429919 
L 51.264 337.429919 
L 51.264 324.963084 
L 46.656 324.963084 
z
" clip-path="url(#pa2904f4eae)" style="fill: #800000"/>
   </g>
   <g id="patch_19">
    <path d="M 52.416 337.429919 
L 57.024 337.429919 
L 57.024 330.534996 
L 52.416 330.534996 
z
" clip-path="url(#pa2904f4eae)" style="fill: #800000"/>
   </g>
   <g id="patch_20">
    <path d="M 58.176 337.429919 
L 62.784 337.429919 
L 62.784 335.801598 
L 58.176 335.801598 
z
" clip-path="url(#pa2904f4eae)" style="fill: #800000"/>
   </g>
   <g id="patch_21">
    <path d="M 63.936 337.429919 
L 68.544 337.429919 
L 68.544 336.742971 
L 63.936 336.742971 
z
" clip-path="url(#pa2904f4eae)" style="fill: #800000"/>
   </g>
   <g id="patch_22">
    <path d="M 69.696 337.429919 
L 74.304 337.429919 
L 74.304 337.277264 
L 69.696 337.277264 
z
" clip-path="url(#pa2904f4eae)" style="fill: #800000"/>
   </g>
   <g id="patch_23">
    <path d="M 75.456 337.429919 
L 80.064 337.429919 
L 80.064 337.353592 
L 75.456 337.353592 
z
" clip-path="url(#pa2904f4eae)" style="fill: #800000"/>
   </g>
   <g id="patch_24">
    <path d="M 81.216 337.429919 
L 85.824 337.429919 
L 85.824 337.379034 
L 81.216 337.379034 
z
" clip-path="url(#pa2904f4eae)" style="fill: #800000"/>
   </g>
   <g id="patch_25">
    <path d="M 40.896 317.075903 
L 45.504 317.075903 
L 45.504 317.05046 
L 40.896 317.05046 
z
" clip-path="url(#pa2904f4eae)" style="fill: #800000"/>
   </g>
   <g id="patch_26">
    <path d="M 46.656 317.075903 
L 51.264 317.075903 
L 51.264 307.076992 
L 46.656 307.076992 
z
" clip-path="url(#pa2904f4eae)" style="fill: #800000"/>
   </g>
   <g id="patch_27">
    <path d="M 52.416 317.075903 
L 57.024 317.075903 
L 57.024 306.033849 
L 52.416 306.033849 
z
" clip-path="url(#pa2904f4eae)" style="fill: #800000"/>
   </g>
   <g id="patch_28">
    <path d="M 58.176 317.075903 
L 62.784 317.075903 
L 62.784 314.099128 
L 58.176 314.099128 
z
" clip-path="url(#pa2904f4eae)" style="fill: #800000"/>
   </g>
   <g id="patch_29">
    <path d="M 63.936 317.075903 
L 68.544 317.075903 
L 68.544 315.651122 
L 63.936 315.651122 
z
" clip-path="url(#pa2904f4eae)" style="fill: #800000"/>
   </g>
   <g id="patch_30">
    <path d="M 69.696 317.075903 
L 74.304 317.075903 
L 74.304 316.567053 
L 69.696 316.567053 
z
" clip-path="url(#pa2904f4eae)" style="fill: #800000"/>
   </g>
   <g id="patch_31">
    <path d="M 75.456 317.075903 
L 80.064 317.075903 
L 80.064 316.592495 
L 75.456 316.592495 
z
" clip-path="url(#pa2904f4eae)" style="fill: #800000"/>
   </g>
   <g id="patch_32">
    <path d="M 81.216 317.075903 
L 85.824 317.075903 
L 85.824 316.94869 
L 81.216 316.94869 
z
" clip-path="url(#pa2904f4eae)" style="fill: #800000"/>
   </g>
   <g id="patch_33">
    <path d="M 86.976 317.075903 
L 91.584 317.075903 
L 91.584 317.05046 
L 86.976 317.05046 
z
" clip-path="url(#pa2904f4eae)" style="fill: #800000"/>
   </g>
   <g id="patch_34">
    <path d="M 92.736 317.075903 
L 97.344 317.075903 
L 97.344 317.05046 
L 92.736 317.05046 
z
" clip-path="url(#pa2904f4eae)" style="fill: #800000"/>
   </g>
   <g id="patch_35">
    <path d="M 40.896 296.721887 
L 45.504 296.721887 
L 45.504 296.696444 
L 40.896 296.696444 
z
" clip-path="url(#pa2904f4eae)" style="fill: #800000"/>
   </g>
   <g id="patch_36">
    <path d="M 46.656 296.721887 
L 51.264 296.721887 
L 51.264 288.68205 
L 46.656 288.68205 
z
" clip-path="url(#pa2904f4eae)" style="fill: #800000"/>
   </g>
   <g id="patch_37">
    <path d="M 52.416 296.721887 
L 57.024 296.721887 
L 57.024 283.491776 
L 52.416 283.491776 
z
" clip-path="url(#pa2904f4eae)" style="fill: #800000"/>
   </g>
   <g id="patch_38">
    <path d="M 58.176 296.721887 
L 62.784 296.721887 
L 62.784 292.371216 
L 58.176 292.371216 
z
" clip-path="url(#pa2904f4eae)" style="fill: #800000"/>
   </g>
   <g id="patch_39">
    <path d="M 63.936 296.721887 
L 68.544 296.721887 
L 68.544 294.177635 
L 63.936 294.177635 
z
" clip-path="url(#pa2904f4eae)" style="fill: #800000"/>
   </g>
   <g id="patch_40">
    <path d="M 69.696 296.721887 
L 74.304 296.721887 
L 74.304 295.526088 
L 69.696 295.526088 
z
" clip-path="url(#pa2904f4eae)" style="fill: #800000"/>
   </g>
   <g id="patch_41">
    <path d="M 75.456 296.721887 
L 80.064 296.721887 
L 80.064 295.831399 
L 75.456 295.831399 
z
" clip-path="url(#pa2904f4eae)" style="fill: #800000"/>
   </g>
   <g id="patch_42">
    <path d="M 81.216 296.721887 
L 85.824 296.721887 
L 85.824 296.009496 
L 81.216 296.009496 
z
" clip-path="url(#pa2904f4eae)" style="fill: #800000"/>
   </g>
   <g id="patch_43">
    <path d="M 86.976 296.721887 
L 91.584 296.721887 
L 91.584 296.518347 
L 86.976 296.518347 
z
" clip-path="url(#pa2904f4eae)" style="fill: #800000"/>
   </g>
   <g id="patch_44">
    <path d="M 92.736 296.721887 
L 97.344 296.721887 
L 97.344 296.391134 
L 92.736 296.391134 
z
" clip-path="url(#pa2904f4eae)" style="fill: #800000"/>
   </g>
   <g id="patch_45">
    <path d="M 98.496 296.721887 
L 103.104 296.721887 
L 103.104 296.620117 
L 98.496 296.620117 
z
" clip-path="url(#pa2904f4eae)" style="fill: #800000"/>
   </g>
   <g id="patch_46">
    <path d="M 104.256 296.721887 
L 108.864 296.721887 
L 108.864 296.620117 
L 104.256 296.620117 
z
" clip-path="url(#pa2904f4eae)" style="fill: #800000"/>
   </g>
   <g id="patch_47">
    <path d="M 110.016 296.721887 
L 114.624 296.721887 
L 114.624 296.696444 
L 110.016 296.696444 
z
" clip-path="url(#pa2904f4eae)" style="fill: #800000"/>
   </g>
   <g id="patch_48">
    <path d="M 115.776 296.721887 
L 120.384 296.721887 
L 120.384 296.671002 
L 115.776 296.671002 
z
" clip-path="url(#pa2904f4eae)" style="fill: #800000"/>
   </g>
   <g id="patch_49">
    <path d="M 40.896 276.367871 
L 45.504 276.367871 
L 45.504 276.316986 
L 40.896 276.316986 
z
" clip-path="url(#pa2904f4eae)" style="fill: #800000"/>
   </g>
   <g id="patch_50">
    <path d="M 46.656 276.367871 
L 51.264 276.367871 
L 51.264 269.574718 
L 46.656 269.574718 
z
" clip-path="url(#pa2904f4eae)" style="fill: #800000"/>
   </g>
   <g id="patch_51">
    <path d="M 52.416 276.367871 
L 57.024 276.367871 
L 57.024 261.433111 
L 52.416 261.433111 
z
" clip-path="url(#pa2904f4eae)" style="fill: #800000"/>
   </g>
   <g id="patch_52">
    <path d="M 58.176 276.367871 
L 62.784 276.367871 
L 62.784 272.882245 
L 58.176 272.882245 
z
" clip-path="url(#pa2904f4eae)" style="fill: #800000"/>
   </g>
   <g id="patch_53">
    <path d="M 63.936 276.367871 
L 68.544 276.367871 
L 68.544 273.162113 
L 63.936 273.162113 
z
" clip-path="url(#pa2904f4eae)" style="fill: #800000"/>
   </g>
   <g id="patch_54">
    <path d="M 69.696 276.367871 
L 74.304 276.367871 
L 74.304 274.739549 
L 69.696 274.739549 
z
" clip-path="url(#pa2904f4eae)" style="fill: #800000"/>
   </g>
   <g id="patch_55">
    <path d="M 75.456 276.367871 
L 80.064 276.367871 
L 80.064 275.070302 
L 75.456 275.070302 
z
" clip-path="url(#pa2904f4eae)" style="fill: #800000"/>
   </g>
   <g id="patch_56">
    <path d="M 81.216 276.367871 
L 85.824 276.367871 
L 85.824 275.502825 
L 81.216 275.502825 
z
" clip-path="url(#pa2904f4eae)" style="fill: #800000"/>
   </g>
   <g id="patch_57">
    <path d="M 86.976 276.367871 
L 91.584 276.367871 
L 91.584 275.909905 
L 86.976 275.909905 
z
" clip-path="url(#pa2904f4eae)" style="fill: #800000"/>
   </g>
   <g id="patch_58">
    <path d="M 92.736 276.367871 
L 97.344 276.367871 
L 97.344 276.06256 
L 92.736 276.06256 
z
" clip-path="url(#pa2904f4eae)" style="fill: #800000"/>
   </g>
   <g id="patch_59">
    <path d="M 98.496 276.367871 
L 103.104 276.367871 
L 103.104 276.16433 
L 98.496 276.16433 
z
" clip-path="url(#pa2904f4eae)" style="fill: #800000"/>
   </g>
   <g id="patch_60">
    <path d="M 104.256 276.367871 
L 108.864 276.367871 
L 108.864 276.291543 
L 104.256 276.291543 
z
" clip-path="url(#pa2904f4eae)" style="fill: #800000"/>
   </g>
   <g id="patch_61">
    <path d="M 110.016 276.367871 
L 114.624 276.367871 
L 114.624 276.138888 
L 110.016 276.138888 
z
" clip-path="url(#pa2904f4eae)" style="fill: #800000"/>
   </g>
   <g id="patch_62">
    <path d="M 115.776 276.367871 
L 120.384 276.367871 
L 120.384 276.342428 
L 115.776 276.342428 
z
" clip-path="url(#pa2904f4eae)" style="fill: #800000"/>
   </g>
   <g id="patch_63">
    <path d="M 121.536 276.367871 
L 126.144 276.367871 
L 126.144 276.342428 
L 121.536 276.342428 
z
" clip-path="url(#pa2904f4eae)" style="fill: #800000"/>
   </g>
   <g id="patch_64">
    <path d="M 127.296 276.367871 
L 131.904 276.367871 
L 131.904 276.291543 
L 127.296 276.291543 
z
" clip-path="url(#pa2904f4eae)" style="fill: #800000"/>
   </g>
   <g id="patch_65">
    <path d="M 40.896 256.013854 
L 45.504 256.013854 
L 45.504 255.962969 
L 40.896 255.962969 
z
" clip-path="url(#pa2904f4eae)" style="fill: #800000"/>
   </g>
   <g id="patch_66">
    <path d="M 46.656 256.013854 
L 51.264 256.013854 
L 51.264 250.82358 
L 46.656 250.82358 
z
" clip-path="url(#pa2904f4eae)" style="fill: #800000"/>
   </g>
   <g id="patch_67">
    <path d="M 52.416 256.013854 
L 57.024 256.013854 
L 57.024 239.221791 
L 52.416 239.221791 
z
" clip-path="url(#pa2904f4eae)" style="fill: #800000"/>
   </g>
   <g id="patch_68">
    <path d="M 58.176 256.013854 
L 62.784 256.013854 
L 62.784 251.739511 
L 58.176 251.739511 
z
" clip-path="url(#pa2904f4eae)" style="fill: #800000"/>
   </g>
   <g id="patch_69">
    <path d="M 63.936 256.013854 
L 68.544 256.013854 
L 68.544 251.841281 
L 63.936 251.841281 
z
" clip-path="url(#pa2904f4eae)" style="fill: #800000"/>
   </g>
   <g id="patch_70">
    <path d="M 69.696 256.013854 
L 74.304 256.013854 
L 74.304 253.469602 
L 69.696 253.469602 
z
" clip-path="url(#pa2904f4eae)" style="fill: #800000"/>
   </g>
   <g id="patch_71">
    <path d="M 75.456 256.013854 
L 80.064 256.013854 
L 80.064 254.105665 
L 75.456 254.105665 
z
" clip-path="url(#pa2904f4eae)" style="fill: #800000"/>
   </g>
   <g id="patch_72">
    <path d="M 81.216 256.013854 
L 85.824 256.013854 
L 85.824 254.487303 
L 81.216 254.487303 
z
" clip-path="url(#pa2904f4eae)" style="fill: #800000"/>
   </g>
   <g id="patch_73">
    <path d="M 86.976 256.013854 
L 91.584 256.013854 
L 91.584 254.868941 
L 86.976 254.868941 
z
" clip-path="url(#pa2904f4eae)" style="fill: #800000"/>
   </g>
   <g id="patch_74">
    <path d="M 92.736 256.013854 
L 97.344 256.013854 
L 97.344 255.352349 
L 92.736 255.352349 
z
" clip-path="url(#pa2904f4eae)" style="fill: #800000"/>
   </g>
   <g id="patch_75">
    <path d="M 98.496 256.013854 
L 103.104 256.013854 
L 103.104 255.479561 
L 98.496 255.479561 
z
" clip-path="url(#pa2904f4eae)" style="fill: #800000"/>
   </g>
   <g id="patch_76">
    <path d="M 104.256 256.013854 
L 108.864 256.013854 
L 108.864 255.606774 
L 104.256 255.606774 
z
" clip-path="url(#pa2904f4eae)" style="fill: #800000"/>
   </g>
   <g id="patch_77">
    <path d="M 110.016 256.013854 
L 114.624 256.013854 
L 114.624 255.683102 
L 110.016 255.683102 
z
" clip-path="url(#pa2904f4eae)" style="fill: #800000"/>
   </g>
   <g id="patch_78">
    <path d="M 115.776 256.013854 
L 120.384 256.013854 
L 120.384 255.835757 
L 115.776 255.835757 
z
" clip-path="url(#pa2904f4eae)" style="fill: #800000"/>
   </g>
   <g id="patch_79">
    <path d="M 121.536 256.013854 
L 126.144 256.013854 
L 126.144 255.912084 
L 121.536 255.912084 
z
" clip-path="url(#pa2904f4eae)" style="fill: #800000"/>
   </g>
   <g id="patch_80">
    <path d="M 127.296 256.013854 
L 131.904 256.013854 
L 131.904 255.886642 
L 127.296 255.886642 
z
" clip-path="url(#pa2904f4eae)" style="fill: #800000"/>
   </g>
   <g id="patch_81">
    <path d="M 133.056 256.013854 
L 137.664 256.013854 
L 137.664 255.962969 
L 133.056 255.962969 
z
" clip-path="url(#pa2904f4eae)" style="fill: #800000"/>
   </g>
   <g id="patch_82">
    <path d="M 138.816 256.013854 
L 143.424 256.013854 
L 143.424 255.988412 
L 138.816 255.988412 
z
" clip-path="url(#pa2904f4eae)" style="fill: #800000"/>
   </g>
   <g id="patch_83">
    <path d="M 144.576 256.013854 
L 149.184 256.013854 
L 149.184 255.988412 
L 144.576 255.988412 
z
" clip-path="url(#pa2904f4eae)" style="fill: #800000"/>
   </g>
   <g id="patch_84">
    <path d="M 150.336 256.013854 
L 154.944 256.013854 
L 154.944 255.988412 
L 150.336 255.988412 
z
" clip-path="url(#pa2904f4eae)" style="fill: #800000"/>
   </g>
   <g id="patch_85">
    <path d="M 161.856 256.013854 
L 166.464 256.013854 
L 166.464 255.988412 
L 161.856 255.988412 
z
" clip-path="url(#pa2904f4eae)" style="fill: #800000"/>
   </g>
   <g id="patch_86">
    <path d="M 173.376 256.013854 
L 177.984 256.013854 
L 177.984 255.988412 
L 173.376 255.988412 
z
" clip-path="url(#pa2904f4eae)" style="fill: #800000"/>
   </g>
   <g id="patch_87">
    <path d="M 40.896 215.305822 
L 45.504 215.305822 
L 45.504 215.178609 
L 40.896 215.178609 
z
" clip-path="url(#pa2904f4eae)" style="fill: #800000"/>
   </g>
   <g id="patch_88">
    <path d="M 46.656 215.305822 
L 51.264 215.305822 
L 51.264 210.700726 
L 46.656 210.700726 
z
" clip-path="url(#pa2904f4eae)" style="fill: #800000"/>
   </g>
   <g id="patch_89">
    <path d="M 52.416 215.305822 
L 57.024 215.305822 
L 57.024 197.01265 
L 52.416 197.01265 
z
" clip-path="url(#pa2904f4eae)" style="fill: #800000"/>
   </g>
   <g id="patch_90">
    <path d="M 58.176 215.305822 
L 62.784 215.305822 
L 62.784 210.802496 
L 58.176 210.802496 
z
" clip-path="url(#pa2904f4eae)" style="fill: #800000"/>
   </g>
   <g id="patch_91">
    <path d="M 63.936 215.305822 
L 68.544 215.305822 
L 68.544 211.056921 
L 63.936 211.056921 
z
" clip-path="url(#pa2904f4eae)" style="fill: #800000"/>
   </g>
   <g id="patch_92">
    <path d="M 69.696 215.305822 
L 74.304 215.305822 
L 74.304 212.329047 
L 69.696 212.329047 
z
" clip-path="url(#pa2904f4eae)" style="fill: #800000"/>
   </g>
   <g id="patch_93">
    <path d="M 75.456 215.305822 
L 80.064 215.305822 
L 80.064 212.507145 
L 75.456 212.507145 
z
" clip-path="url(#pa2904f4eae)" style="fill: #800000"/>
   </g>
   <g id="patch_94">
    <path d="M 81.216 215.305822 
L 85.824 215.305822 
L 85.824 213.397633 
L 81.216 213.397633 
z
" clip-path="url(#pa2904f4eae)" style="fill: #800000"/>
   </g>
   <g id="patch_95">
    <path d="M 86.976 215.305822 
L 91.584 215.305822 
L 91.584 213.524846 
L 86.976 213.524846 
z
" clip-path="url(#pa2904f4eae)" style="fill: #800000"/>
   </g>
   <g id="patch_96">
    <path d="M 92.736 215.305822 
L 97.344 215.305822 
L 97.344 214.084581 
L 92.736 214.084581 
z
" clip-path="url(#pa2904f4eae)" style="fill: #800000"/>
   </g>
   <g id="patch_97">
    <path d="M 98.496 215.305822 
L 103.104 215.305822 
L 103.104 214.008254 
L 98.496 214.008254 
z
" clip-path="url(#pa2904f4eae)" style="fill: #800000"/>
   </g>
   <g id="patch_98">
    <path d="M 104.256 215.305822 
L 108.864 215.305822 
L 108.864 215.000512 
L 104.256 215.000512 
z
" clip-path="url(#pa2904f4eae)" style="fill: #800000"/>
   </g>
   <g id="patch_99">
    <path d="M 110.016 215.305822 
L 114.624 215.305822 
L 114.624 214.720644 
L 110.016 214.720644 
z
" clip-path="url(#pa2904f4eae)" style="fill: #800000"/>
   </g>
   <g id="patch_100">
    <path d="M 115.776 215.305822 
L 120.384 215.305822 
L 120.384 214.822414 
L 115.776 214.822414 
z
" clip-path="url(#pa2904f4eae)" style="fill: #800000"/>
   </g>
   <g id="patch_101">
    <path d="M 121.536 215.305822 
L 126.144 215.305822 
L 126.144 214.924184 
L 121.536 214.924184 
z
" clip-path="url(#pa2904f4eae)" style="fill: #800000"/>
   </g>
   <g id="patch_102">
    <path d="M 127.296 215.305822 
L 131.904 215.305822 
L 131.904 215.076839 
L 127.296 215.076839 
z
" clip-path="url(#pa2904f4eae)" style="fill: #800000"/>
   </g>
   <g id="patch_103">
    <path d="M 133.056 215.305822 
L 137.664 215.305822 
L 137.664 215.153167 
L 133.056 215.153167 
z
" clip-path="url(#pa2904f4eae)" style="fill: #800000"/>
   </g>
   <g id="patch_104">
    <path d="M 138.816 215.305822 
L 143.424 215.305822 
L 143.424 215.025954 
L 138.816 215.025954 
z
" clip-path="url(#pa2904f4eae)" style="fill: #800000"/>
   </g>
   <g id="patch_105">
    <path d="M 150.336 215.305822 
L 154.944 215.305822 
L 154.944 215.229494 
L 150.336 215.229494 
z
" clip-path="url(#pa2904f4eae)" style="fill: #800000"/>
   </g>
   <g id="patch_106">
    <path d="M 161.856 215.305822 
L 166.464 215.305822 
L 166.464 215.229494 
L 161.856 215.229494 
z
" clip-path="url(#pa2904f4eae)" style="fill: #800000"/>
   </g>
   <g id="patch_107">
    <path d="M 167.616 215.305822 
L 172.224 215.305822 
L 172.224 215.254937 
L 167.616 215.254937 
z
" clip-path="url(#pa2904f4eae)" style="fill: #800000"/>
   </g>
   <g id="patch_108">
    <path d="M 179.136 215.305822 
L 183.744 215.305822 
L 183.744 215.28038 
L 179.136 215.28038 
z
" clip-path="url(#pa2904f4eae)" style="fill: #800000"/>
   </g>
   <g id="patch_109">
    <path d="M 202.176 215.305822 
L 206.784 215.305822 
L 206.784 215.28038 
L 202.176 215.28038 
z
" clip-path="url(#pa2904f4eae)" style="fill: #800000"/>
   </g>
   <g id="patch_110">
    <path d="M 40.896 174.59779 
L 45.504 174.59779 
L 45.504 174.521462 
L 40.896 174.521462 
z
" clip-path="url(#pa2904f4eae)" style="fill: #800000"/>
   </g>
   <g id="patch_111">
    <path d="M 46.656 174.59779 
L 51.264 174.59779 
L 51.264 168.974993 
L 46.656 168.974993 
z
" clip-path="url(#pa2904f4eae)" style="fill: #800000"/>
   </g>
   <g id="patch_112">
    <path d="M 52.416 174.59779 
L 57.024 174.59779 
L 57.024 154.981607 
L 52.416 154.981607 
z
" clip-path="url(#pa2904f4eae)" style="fill: #800000"/>
   </g>
   <g id="patch_113">
    <path d="M 58.176 174.59779 
L 62.784 174.59779 
L 62.784 170.730527 
L 58.176 170.730527 
z
" clip-path="url(#pa2904f4eae)" style="fill: #800000"/>
   </g>
   <g id="patch_114">
    <path d="M 63.936 174.59779 
L 68.544 174.59779 
L 68.544 168.974993 
L 63.936 168.974993 
z
" clip-path="url(#pa2904f4eae)" style="fill: #800000"/>
   </g>
   <g id="patch_115">
    <path d="M 69.696 174.59779 
L 74.304 174.59779 
L 74.304 171.188492 
L 69.696 171.188492 
z
" clip-path="url(#pa2904f4eae)" style="fill: #800000"/>
   </g>
   <g id="patch_116">
    <path d="M 75.456 174.59779 
L 80.064 174.59779 
L 80.064 171.519245 
L 75.456 171.519245 
z
" clip-path="url(#pa2904f4eae)" style="fill: #800000"/>
   </g>
   <g id="patch_117">
    <path d="M 81.216 174.59779 
L 85.824 174.59779 
L 85.824 172.257078 
L 81.216 172.257078 
z
" clip-path="url(#pa2904f4eae)" style="fill: #800000"/>
   </g>
   <g id="patch_118">
    <path d="M 86.976 174.59779 
L 91.584 174.59779 
L 91.584 172.409733 
L 86.976 172.409733 
z
" clip-path="url(#pa2904f4eae)" style="fill: #800000"/>
   </g>
   <g id="patch_119">
    <path d="M 92.736 174.59779 
L 97.344 174.59779 
L 97.344 172.435175 
L 92.736 172.435175 
z
" clip-path="url(#pa2904f4eae)" style="fill: #800000"/>
   </g>
   <g id="patch_120">
    <path d="M 98.496 174.59779 
L 103.104 174.59779 
L 103.104 173.325664 
L 98.496 173.325664 
z
" clip-path="url(#pa2904f4eae)" style="fill: #800000"/>
   </g>
   <g id="patch_121">
    <path d="M 104.256 174.59779 
L 108.864 174.59779 
L 108.864 173.300221 
L 104.256 173.300221 
z
" clip-path="url(#pa2904f4eae)" style="fill: #800000"/>
   </g>
   <g id="patch_122">
    <path d="M 110.016 174.59779 
L 114.624 174.59779 
L 114.624 173.630974 
L 110.016 173.630974 
z
" clip-path="url(#pa2904f4eae)" style="fill: #800000"/>
   </g>
   <g id="patch_123">
    <path d="M 115.776 174.59779 
L 120.384 174.59779 
L 120.384 174.088939 
L 115.776 174.088939 
z
" clip-path="url(#pa2904f4eae)" style="fill: #800000"/>
   </g>
   <g id="patch_124">
    <path d="M 121.536 174.59779 
L 126.144 174.59779 
L 126.144 174.012612 
L 121.536 174.012612 
z
" clip-path="url(#pa2904f4eae)" style="fill: #800000"/>
   </g>
   <g id="patch_125">
    <path d="M 127.296 174.59779 
L 131.904 174.59779 
L 131.904 174.139824 
L 127.296 174.139824 
z
" clip-path="url(#pa2904f4eae)" style="fill: #800000"/>
   </g>
   <g id="patch_126">
    <path d="M 133.056 174.59779 
L 137.664 174.59779 
L 137.664 174.190709 
L 133.056 174.190709 
z
" clip-path="url(#pa2904f4eae)" style="fill: #800000"/>
   </g>
   <g id="patch_127">
    <path d="M 138.816 174.59779 
L 143.424 174.59779 
L 143.424 174.190709 
L 138.816 174.190709 
z
" clip-path="url(#pa2904f4eae)" style="fill: #800000"/>
   </g>
   <g id="patch_128">
    <path d="M 144.576 174.59779 
L 149.184 174.59779 
L 149.184 174.368807 
L 144.576 174.368807 
z
" clip-path="url(#pa2904f4eae)" style="fill: #800000"/>
   </g>
   <g id="patch_129">
    <path d="M 150.336 174.59779 
L 154.944 174.59779 
L 154.944 174.521462 
L 150.336 174.521462 
z
" clip-path="url(#pa2904f4eae)" style="fill: #800000"/>
   </g>
   <g id="patch_130">
    <path d="M 156.096 174.59779 
L 160.704 174.59779 
L 160.704 174.521462 
L 156.096 174.521462 
z
" clip-path="url(#pa2904f4eae)" style="fill: #800000"/>
   </g>
   <g id="patch_131">
    <path d="M 161.856 174.59779 
L 166.464 174.59779 
L 166.464 174.49602 
L 161.856 174.49602 
z
" clip-path="url(#pa2904f4eae)" style="fill: #800000"/>
   </g>
   <g id="patch_132">
    <path d="M 167.616 174.59779 
L 172.224 174.59779 
L 172.224 174.419692 
L 167.616 174.419692 
z
" clip-path="url(#pa2904f4eae)" style="fill: #800000"/>
   </g>
   <g id="patch_133">
    <path d="M 173.376 174.59779 
L 177.984 174.59779 
L 177.984 174.521462 
L 173.376 174.521462 
z
" clip-path="url(#pa2904f4eae)" style="fill: #800000"/>
   </g>
   <g id="patch_134">
    <path d="M 179.136 174.59779 
L 183.744 174.59779 
L 183.744 174.572347 
L 179.136 174.572347 
z
" clip-path="url(#pa2904f4eae)" style="fill: #800000"/>
   </g>
   <g id="patch_135">
    <path d="M 184.896 174.59779 
L 189.504 174.59779 
L 189.504 174.49602 
L 184.896 174.49602 
z
" clip-path="url(#pa2904f4eae)" style="fill: #800000"/>
   </g>
   <g id="patch_136">
    <path d="M 190.656 174.59779 
L 195.264 174.59779 
L 195.264 174.546905 
L 190.656 174.546905 
z
" clip-path="url(#pa2904f4eae)" style="fill: #800000"/>
   </g>
   <g id="patch_137">
    <path d="M 196.416 174.59779 
L 201.024 174.59779 
L 201.024 174.546905 
L 196.416 174.546905 
z
" clip-path="url(#pa2904f4eae)" style="fill: #800000"/>
   </g>
   <g id="patch_138">
    <path d="M 40.896 133.889757 
L 45.504 133.889757 
L 45.504 133.81343 
L 40.896 133.81343 
z
" clip-path="url(#pa2904f4eae)" style="fill: #800000"/>
   </g>
   <g id="patch_139">
    <path d="M 46.656 133.889757 
L 51.264 133.889757 
L 51.264 127.376472 
L 46.656 127.376472 
z
" clip-path="url(#pa2904f4eae)" style="fill: #800000"/>
   </g>
   <g id="patch_140">
    <path d="M 52.416 133.889757 
L 57.024 133.889757 
L 57.024 111.296799 
L 52.416 111.296799 
z
" clip-path="url(#pa2904f4eae)" style="fill: #800000"/>
   </g>
   <g id="patch_141">
    <path d="M 58.176 133.889757 
L 62.784 133.889757 
L 62.784 130.047937 
L 58.176 130.047937 
z
" clip-path="url(#pa2904f4eae)" style="fill: #800000"/>
   </g>
   <g id="patch_142">
    <path d="M 63.936 133.889757 
L 68.544 133.889757 
L 68.544 128.928466 
L 63.936 128.928466 
z
" clip-path="url(#pa2904f4eae)" style="fill: #800000"/>
   </g>
   <g id="patch_143">
    <path d="M 69.696 133.889757 
L 74.304 133.889757 
L 74.304 130.684 
L 69.696 130.684 
z
" clip-path="url(#pa2904f4eae)" style="fill: #800000"/>
   </g>
   <g id="patch_144">
    <path d="M 75.456 133.889757 
L 80.064 133.889757 
L 80.064 130.353247 
L 75.456 130.353247 
z
" clip-path="url(#pa2904f4eae)" style="fill: #800000"/>
   </g>
   <g id="patch_145">
    <path d="M 81.216 133.889757 
L 85.824 133.889757 
L 85.824 130.98931 
L 81.216 130.98931 
z
" clip-path="url(#pa2904f4eae)" style="fill: #800000"/>
   </g>
   <g id="patch_146">
    <path d="M 86.976 133.889757 
L 91.584 133.889757 
L 91.584 131.141965 
L 86.976 131.141965 
z
" clip-path="url(#pa2904f4eae)" style="fill: #800000"/>
   </g>
   <g id="patch_147">
    <path d="M 92.736 133.889757 
L 97.344 133.889757 
L 97.344 131.29462 
L 92.736 131.29462 
z
" clip-path="url(#pa2904f4eae)" style="fill: #800000"/>
   </g>
   <g id="patch_148">
    <path d="M 98.496 133.889757 
L 103.104 133.889757 
L 103.104 132.007011 
L 98.496 132.007011 
z
" clip-path="url(#pa2904f4eae)" style="fill: #800000"/>
   </g>
   <g id="patch_149">
    <path d="M 104.256 133.889757 
L 108.864 133.889757 
L 108.864 132.643074 
L 104.256 132.643074 
z
" clip-path="url(#pa2904f4eae)" style="fill: #800000"/>
   </g>
   <g id="patch_150">
    <path d="M 110.016 133.889757 
L 114.624 133.889757 
L 114.624 132.719401 
L 110.016 132.719401 
z
" clip-path="url(#pa2904f4eae)" style="fill: #800000"/>
   </g>
   <g id="patch_151">
    <path d="M 115.776 133.889757 
L 120.384 133.889757 
L 120.384 132.872057 
L 115.776 132.872057 
z
" clip-path="url(#pa2904f4eae)" style="fill: #800000"/>
   </g>
   <g id="patch_152">
    <path d="M 121.536 133.889757 
L 126.144 133.889757 
L 126.144 132.795729 
L 121.536 132.795729 
z
" clip-path="url(#pa2904f4eae)" style="fill: #800000"/>
   </g>
   <g id="patch_153">
    <path d="M 127.296 133.889757 
L 131.904 133.889757 
L 131.904 133.126482 
L 127.296 133.126482 
z
" clip-path="url(#pa2904f4eae)" style="fill: #800000"/>
   </g>
   <g id="patch_154">
    <path d="M 133.056 133.889757 
L 137.664 133.889757 
L 137.664 133.60989 
L 133.056 133.60989 
z
" clip-path="url(#pa2904f4eae)" style="fill: #800000"/>
   </g>
   <g id="patch_155">
    <path d="M 138.816 133.889757 
L 143.424 133.889757 
L 143.424 133.50812 
L 138.816 133.50812 
z
" clip-path="url(#pa2904f4eae)" style="fill: #800000"/>
   </g>
   <g id="patch_156">
    <path d="M 144.576 133.889757 
L 149.184 133.889757 
L 149.184 133.431792 
L 144.576 133.431792 
z
" clip-path="url(#pa2904f4eae)" style="fill: #800000"/>
   </g>
   <g id="patch_157">
    <path d="M 150.336 133.889757 
L 154.944 133.889757 
L 154.944 133.584447 
L 150.336 133.584447 
z
" clip-path="url(#pa2904f4eae)" style="fill: #800000"/>
   </g>
   <g id="patch_158">
    <path d="M 156.096 133.889757 
L 160.704 133.889757 
L 160.704 133.559005 
L 156.096 133.559005 
z
" clip-path="url(#pa2904f4eae)" style="fill: #800000"/>
   </g>
   <g id="patch_159">
    <path d="M 161.856 133.889757 
L 166.464 133.889757 
L 166.464 133.71166 
L 161.856 133.71166 
z
" clip-path="url(#pa2904f4eae)" style="fill: #800000"/>
   </g>
   <g id="patch_160">
    <path d="M 167.616 133.889757 
L 172.224 133.889757 
L 172.224 133.838872 
L 167.616 133.838872 
z
" clip-path="url(#pa2904f4eae)" style="fill: #800000"/>
   </g>
   <g id="patch_161">
    <path d="M 173.376 133.889757 
L 177.984 133.889757 
L 177.984 133.762545 
L 173.376 133.762545 
z
" clip-path="url(#pa2904f4eae)" style="fill: #800000"/>
   </g>
   <g id="patch_162">
    <path d="M 179.136 133.889757 
L 183.744 133.889757 
L 183.744 133.864315 
L 179.136 133.864315 
z
" clip-path="url(#pa2904f4eae)" style="fill: #800000"/>
   </g>
   <g id="patch_163">
    <path d="M 184.896 133.889757 
L 189.504 133.889757 
L 189.504 133.762545 
L 184.896 133.762545 
z
" clip-path="url(#pa2904f4eae)" style="fill: #800000"/>
   </g>
   <g id="patch_164">
    <path d="M 190.656 133.889757 
L 195.264 133.889757 
L 195.264 133.81343 
L 190.656 133.81343 
z
" clip-path="url(#pa2904f4eae)" style="fill: #800000"/>
   </g>
   <g id="patch_165">
    <path d="M 202.176 133.889757 
L 206.784 133.889757 
L 206.784 133.864315 
L 202.176 133.864315 
z
" clip-path="url(#pa2904f4eae)" style="fill: #800000"/>
   </g>
   <g id="patch_166">
    <path d="M 207.936 133.889757 
L 212.544 133.889757 
L 212.544 133.864315 
L 207.936 133.864315 
z
" clip-path="url(#pa2904f4eae)" style="fill: #800000"/>
   </g>
   <g id="patch_167">
    <path d="M 219.456 133.889757 
L 224.064 133.889757 
L 224.064 133.864315 
L 219.456 133.864315 
z
" clip-path="url(#pa2904f4eae)" style="fill: #800000"/>
   </g>
   <g id="patch_168">
    <path d="M 40.896 93.181725 
L 45.504 93.181725 
L 45.504 93.156282 
L 40.896 93.156282 
z
" clip-path="url(#pa2904f4eae)" style="fill: #800000"/>
   </g>
   <g id="patch_169">
    <path d="M 46.656 93.181725 
L 51.264 93.181725 
L 51.264 85.014676 
L 46.656 85.014676 
z
" clip-path="url(#pa2904f4eae)" style="fill: #800000"/>
   </g>
   <g id="patch_170">
    <path d="M 52.416 93.181725 
L 57.024 93.181725 
L 57.024 68.884118 
L 52.416 68.884118 
z
" clip-path="url(#pa2904f4eae)" style="fill: #800000"/>
   </g>
   <g id="patch_171">
    <path d="M 58.176 93.181725 
L 62.784 93.181725 
L 62.784 88.398531 
L 58.176 88.398531 
z
" clip-path="url(#pa2904f4eae)" style="fill: #800000"/>
   </g>
   <g id="patch_172">
    <path d="M 63.936 93.181725 
L 68.544 93.181725 
L 68.544 87.660698 
L 63.936 87.660698 
z
" clip-path="url(#pa2904f4eae)" style="fill: #800000"/>
   </g>
   <g id="patch_173">
    <path d="M 69.696 93.181725 
L 74.304 93.181725 
L 74.304 89.721542 
L 69.696 89.721542 
z
" clip-path="url(#pa2904f4eae)" style="fill: #800000"/>
   </g>
   <g id="patch_174">
    <path d="M 75.456 93.181725 
L 80.064 93.181725 
L 80.064 88.932824 
L 75.456 88.932824 
z
" clip-path="url(#pa2904f4eae)" style="fill: #800000"/>
   </g>
   <g id="patch_175">
    <path d="M 81.216 93.181725 
L 85.824 93.181725 
L 85.824 90.357605 
L 81.216 90.357605 
z
" clip-path="url(#pa2904f4eae)" style="fill: #800000"/>
   </g>
   <g id="patch_176">
    <path d="M 86.976 93.181725 
L 91.584 93.181725 
L 91.584 90.713801 
L 86.976 90.713801 
z
" clip-path="url(#pa2904f4eae)" style="fill: #800000"/>
   </g>
   <g id="patch_177">
    <path d="M 92.736 93.181725 
L 97.344 93.181725 
L 97.344 90.688358 
L 92.736 90.688358 
z
" clip-path="url(#pa2904f4eae)" style="fill: #800000"/>
   </g>
   <g id="patch_178">
    <path d="M 98.496 93.181725 
L 103.104 93.181725 
L 103.104 91.069996 
L 98.496 91.069996 
z
" clip-path="url(#pa2904f4eae)" style="fill: #800000"/>
   </g>
   <g id="patch_179">
    <path d="M 104.256 93.181725 
L 108.864 93.181725 
L 108.864 91.375306 
L 104.256 91.375306 
z
" clip-path="url(#pa2904f4eae)" style="fill: #800000"/>
   </g>
   <g id="patch_180">
    <path d="M 110.016 93.181725 
L 114.624 93.181725 
L 114.624 91.756944 
L 110.016 91.756944 
z
" clip-path="url(#pa2904f4eae)" style="fill: #800000"/>
   </g>
   <g id="patch_181">
    <path d="M 115.776 93.181725 
L 120.384 93.181725 
L 120.384 92.011369 
L 115.776 92.011369 
z
" clip-path="url(#pa2904f4eae)" style="fill: #800000"/>
   </g>
   <g id="patch_182">
    <path d="M 121.536 93.181725 
L 126.144 93.181725 
L 126.144 91.858714 
L 121.536 91.858714 
z
" clip-path="url(#pa2904f4eae)" style="fill: #800000"/>
   </g>
   <g id="patch_183">
    <path d="M 127.296 93.181725 
L 131.904 93.181725 
L 131.904 92.418449 
L 127.296 92.418449 
z
" clip-path="url(#pa2904f4eae)" style="fill: #800000"/>
   </g>
   <g id="patch_184">
    <path d="M 133.056 93.181725 
L 137.664 93.181725 
L 137.664 92.367564 
L 133.056 92.367564 
z
" clip-path="url(#pa2904f4eae)" style="fill: #800000"/>
   </g>
   <g id="patch_185">
    <path d="M 138.816 93.181725 
L 143.424 93.181725 
L 143.424 92.774645 
L 138.816 92.774645 
z
" clip-path="url(#pa2904f4eae)" style="fill: #800000"/>
   </g>
   <g id="patch_186">
    <path d="M 144.576 93.181725 
L 149.184 93.181725 
L 149.184 92.952742 
L 144.576 92.952742 
z
" clip-path="url(#pa2904f4eae)" style="fill: #800000"/>
   </g>
   <g id="patch_187">
    <path d="M 150.336 93.181725 
L 154.944 93.181725 
L 154.944 92.952742 
L 150.336 92.952742 
z
" clip-path="url(#pa2904f4eae)" style="fill: #800000"/>
   </g>
   <g id="patch_188">
    <path d="M 156.096 93.181725 
L 160.704 93.181725 
L 160.704 93.054512 
L 156.096 93.054512 
z
" clip-path="url(#pa2904f4eae)" style="fill: #800000"/>
   </g>
   <g id="patch_189">
    <path d="M 161.856 93.181725 
L 166.464 93.181725 
L 166.464 93.105397 
L 161.856 93.105397 
z
" clip-path="url(#pa2904f4eae)" style="fill: #800000"/>
   </g>
   <g id="patch_190">
    <path d="M 167.616 93.181725 
L 172.224 93.181725 
L 172.224 93.054512 
L 167.616 93.054512 
z
" clip-path="url(#pa2904f4eae)" style="fill: #800000"/>
   </g>
   <g id="patch_191">
    <path d="M 173.376 93.181725 
L 177.984 93.181725 
L 177.984 93.079955 
L 173.376 93.079955 
z
" clip-path="url(#pa2904f4eae)" style="fill: #800000"/>
   </g>
   <g id="patch_192">
    <path d="M 179.136 93.181725 
L 183.744 93.181725 
L 183.744 93.054512 
L 179.136 93.054512 
z
" clip-path="url(#pa2904f4eae)" style="fill: #800000"/>
   </g>
   <g id="patch_193">
    <path d="M 190.656 93.181725 
L 195.264 93.181725 
L 195.264 93.156282 
L 190.656 93.156282 
z
" clip-path="url(#pa2904f4eae)" style="fill: #800000"/>
   </g>
   <g id="patch_194">
    <path d="M 196.416 93.181725 
L 201.024 93.181725 
L 201.024 93.156282 
L 196.416 93.156282 
z
" clip-path="url(#pa2904f4eae)" style="fill: #800000"/>
   </g>
   <g id="patch_195">
    <path d="M 202.176 93.181725 
L 206.784 93.181725 
L 206.784 93.13084 
L 202.176 93.13084 
z
" clip-path="url(#pa2904f4eae)" style="fill: #800000"/>
   </g>
   <g id="patch_196">
    <path d="M 213.696 93.181725 
L 218.304 93.181725 
L 218.304 93.13084 
L 213.696 93.13084 
z
" clip-path="url(#pa2904f4eae)" style="fill: #800000"/>
   </g>
   <g id="patch_197">
    <path d="M 40.896 52.473693 
L 45.504 52.473693 
L 45.504 52.397365 
L 40.896 52.397365 
z
" clip-path="url(#pa2904f4eae)" style="fill: #800000"/>
   </g>
   <g id="patch_198">
    <path d="M 46.656 52.473693 
L 51.264 52.473693 
L 51.264 42.55111 
L 46.656 42.55111 
z
" clip-path="url(#pa2904f4eae)" style="fill: #800000"/>
   </g>
   <g id="patch_199">
    <path d="M 52.416 52.473693 
L 57.024 52.473693 
L 57.024 26.80219 
L 52.416 26.80219 
z
" clip-path="url(#pa2904f4eae)" style="fill: #800000"/>
   </g>
   <g id="patch_200">
    <path d="M 58.176 52.473693 
L 62.784 52.473693 
L 62.784 48.173907 
L 58.176 48.173907 
z
" clip-path="url(#pa2904f4eae)" style="fill: #800000"/>
   </g>
   <g id="patch_201">
    <path d="M 63.936 52.473693 
L 68.544 52.473693 
L 68.544 46.011292 
L 63.936 46.011292 
z
" clip-path="url(#pa2904f4eae)" style="fill: #800000"/>
   </g>
   <g id="patch_202">
    <path d="M 69.696 52.473693 
L 74.304 52.473693 
L 74.304 48.784527 
L 69.696 48.784527 
z
" clip-path="url(#pa2904f4eae)" style="fill: #800000"/>
   </g>
   <g id="patch_203">
    <path d="M 75.456 52.473693 
L 80.064 52.473693 
L 80.064 48.199349 
L 75.456 48.199349 
z
" clip-path="url(#pa2904f4eae)" style="fill: #800000"/>
   </g>
   <g id="patch_204">
    <path d="M 81.216 52.473693 
L 85.824 52.473693 
L 85.824 48.91174 
L 81.216 48.91174 
z
" clip-path="url(#pa2904f4eae)" style="fill: #800000"/>
   </g>
   <g id="patch_205">
    <path d="M 86.976 52.473693 
L 91.584 52.473693 
L 91.584 49.344263 
L 86.976 49.344263 
z
" clip-path="url(#pa2904f4eae)" style="fill: #800000"/>
   </g>
   <g id="patch_206">
    <path d="M 92.736 52.473693 
L 97.344 52.473693 
L 97.344 49.293378 
L 92.736 49.293378 
z
" clip-path="url(#pa2904f4eae)" style="fill: #800000"/>
   </g>
   <g id="patch_207">
    <path d="M 98.496 52.473693 
L 103.104 52.473693 
L 103.104 49.929441 
L 98.496 49.929441 
z
" clip-path="url(#pa2904f4eae)" style="fill: #800000"/>
   </g>
   <g id="patch_208">
    <path d="M 104.256 52.473693 
L 108.864 52.473693 
L 108.864 50.438291 
L 104.256 50.438291 
z
" clip-path="url(#pa2904f4eae)" style="fill: #800000"/>
   </g>
   <g id="patch_209">
    <path d="M 110.016 52.473693 
L 114.624 52.473693 
L 114.624 50.794486 
L 110.016 50.794486 
z
" clip-path="url(#pa2904f4eae)" style="fill: #800000"/>
   </g>
   <g id="patch_210">
    <path d="M 115.776 52.473693 
L 120.384 52.473693 
L 120.384 50.972584 
L 115.776 50.972584 
z
" clip-path="url(#pa2904f4eae)" style="fill: #800000"/>
   </g>
   <g id="patch_211">
    <path d="M 121.536 52.473693 
L 126.144 52.473693 
L 126.144 50.998026 
L 121.536 50.998026 
z
" clip-path="url(#pa2904f4eae)" style="fill: #800000"/>
   </g>
   <g id="patch_212">
    <path d="M 127.296 52.473693 
L 131.904 52.473693 
L 131.904 51.608647 
L 127.296 51.608647 
z
" clip-path="url(#pa2904f4eae)" style="fill: #800000"/>
   </g>
   <g id="patch_213">
    <path d="M 133.056 52.473693 
L 137.664 52.473693 
L 137.664 51.73586 
L 133.056 51.73586 
z
" clip-path="url(#pa2904f4eae)" style="fill: #800000"/>
   </g>
   <g id="patch_214">
    <path d="M 138.816 52.473693 
L 143.424 52.473693 
L 143.424 52.092055 
L 138.816 52.092055 
z
" clip-path="url(#pa2904f4eae)" style="fill: #800000"/>
   </g>
   <g id="patch_215">
    <path d="M 144.576 52.473693 
L 149.184 52.473693 
L 149.184 52.14294 
L 144.576 52.14294 
z
" clip-path="url(#pa2904f4eae)" style="fill: #800000"/>
   </g>
   <g id="patch_216">
    <path d="M 150.336 52.473693 
L 154.944 52.473693 
L 154.944 52.14294 
L 150.336 52.14294 
z
" clip-path="url(#pa2904f4eae)" style="fill: #800000"/>
   </g>
   <g id="patch_217">
    <path d="M 156.096 52.473693 
L 160.704 52.473693 
L 160.704 52.371923 
L 156.096 52.371923 
z
" clip-path="url(#pa2904f4eae)" style="fill: #800000"/>
   </g>
   <g id="patch_218">
    <path d="M 161.856 52.473693 
L 166.464 52.473693 
L 166.464 52.321037 
L 161.856 52.321037 
z
" clip-path="url(#pa2904f4eae)" style="fill: #800000"/>
   </g>
   <g id="patch_219">
    <path d="M 167.616 52.473693 
L 172.224 52.473693 
L 172.224 52.321037 
L 167.616 52.321037 
z
" clip-path="url(#pa2904f4eae)" style="fill: #800000"/>
   </g>
   <g id="patch_220">
    <path d="M 173.376 52.473693 
L 177.984 52.473693 
L 177.984 52.397365 
L 173.376 52.397365 
z
" clip-path="url(#pa2904f4eae)" style="fill: #800000"/>
   </g>
   <g id="patch_221">
    <path d="M 179.136 52.473693 
L 183.744 52.473693 
L 183.744 52.44825 
L 179.136 52.44825 
z
" clip-path="url(#pa2904f4eae)" style="fill: #800000"/>
   </g>
   <g id="patch_222">
    <path d="M 184.896 52.473693 
L 189.504 52.473693 
L 189.504 52.371923 
L 184.896 52.371923 
z
" clip-path="url(#pa2904f4eae)" style="fill: #800000"/>
   </g>
   <g id="patch_223">
    <path d="M 190.656 52.473693 
L 195.264 52.473693 
L 195.264 52.44825 
L 190.656 52.44825 
z
" clip-path="url(#pa2904f4eae)" style="fill: #800000"/>
   </g>
   <g id="patch_224">
    <path d="M 196.416 52.473693 
L 201.024 52.473693 
L 201.024 52.44825 
L 196.416 52.44825 
z
" clip-path="url(#pa2904f4eae)" style="fill: #800000"/>
   </g>
   <g id="patch_225">
    <path d="M 213.696 52.473693 
L 218.304 52.473693 
L 218.304 52.44825 
L 213.696 52.44825 
z
" clip-path="url(#pa2904f4eae)" style="fill: #800000"/>
   </g>
   <g id="patch_226">
    <path d="M 236.736 52.473693 
L 241.344 52.473693 
L 241.344 52.44825 
L 236.736 52.44825 
z
" clip-path="url(#pa2904f4eae)" style="fill: #800000"/>
   </g>
   <g id="patch_227">
    <path d="M 242.496 52.473693 
L 247.104 52.473693 
L 247.104 52.44825 
L 242.496 52.44825 
z
" clip-path="url(#pa2904f4eae)" style="fill: #800000"/>
   </g>
   <g id="matplotlib.axis_1">
    <g id="xtick_1">
     <g id="line2d_1">
      <defs>
       <path id="mf260d8ff28" d="M 0 0 
L 0 3.5 
" style="stroke: #000000; stroke-width: 0.8"/>
      </defs>
      <g>
       <use xlink:href="#mf260d8ff28" x="43.2" y="439.2" style="stroke: #000000; stroke-width: 0.8"/>
      </g>
     </g>
     <g id="text_1">
      <text style="font: 8px 'Carlito', sans-serif; text-anchor: middle" x="43.2" y="451.755" transform="rotate(-0 43.2 451.755)">0</text>
     </g>
    </g>
    <g id="xtick_2">
     <g id="line2d_2">
      <g>
       <use xlink:href="#mf260d8ff28" x="100.8" y="439.2" style="stroke: #000000; stroke-width: 0.8"/>
      </g>
     </g>
     <g id="text_2">
      <text style="font: 8px 'Carlito', sans-serif; text-anchor: middle" x="100.8" y="451.755" transform="rotate(-0 100.8 451.755)">10</text>
     </g>
    </g>
    <g id="xtick_3">
     <g id="line2d_3">
      <g>
       <use xlink:href="#mf260d8ff28" x="158.4" y="439.2" style="stroke: #000000; stroke-width: 0.8"/>
      </g>
     </g>
     <g id="text_3">
      <text style="font: 8px 'Carlito', sans-serif; text-anchor: middle" x="158.4" y="451.755" transform="rotate(-0 158.4 451.755)">20</text>
     </g>
    </g>
    <g id="text_4">
     <text style="font: 8px 'Carlito', sans-serif; text-anchor: middle" x="115.2" y="462.59875" transform="rotate(-0 115.2 462.59875)">total spawned fronts</text>
    </g>
   </g>
   <g id="matplotlib.axis_2">
    <g id="ytick_1">
     <g id="line2d_4">
      <defs>
       <path id="m1caf565ddf" d="M 0 0 
L -3.5 0 
" style="stroke: #000000; stroke-width: 0.8"/>
      </defs>
      <g>
       <use xlink:href="#m1caf565ddf" x="43.2" y="439.2" style="stroke: #000000; stroke-width: 0.8"/>
      </g>
     </g>
     <g id="text_5">
      <text style="font: 8px 'Carlito', sans-serif; text-anchor: end" x="36.2" y="441.9775" transform="rotate(-0 36.2 441.9775)">1</text>
     </g>
    </g>
    <g id="ytick_2">
     <g id="line2d_5">
      <g>
       <use xlink:href="#m1caf565ddf" x="43.2" y="418.845984" style="stroke: #000000; stroke-width: 0.8"/>
      </g>
     </g>
     <g id="text_6">
      <text style="font: 8px 'Carlito', sans-serif; text-anchor: end" x="36.2" y="421.623484" transform="rotate(-0 36.2 421.623484)">2</text>
     </g>
    </g>
    <g id="ytick_3">
     <g id="line2d_6">
      <g>
       <use xlink:href="#m1caf565ddf" x="43.2" y="398.491968" style="stroke: #000000; stroke-width: 0.8"/>
      </g>
     </g>
     <g id="text_7">
      <text style="font: 8px 'Carlito', sans-serif; text-anchor: end" x="36.2" y="401.269468" transform="rotate(-0 36.2 401.269468)">3</text>
     </g>
    </g>
    <g id="ytick_4">
     <g id="line2d_7">
      <g>
       <use xlink:href="#m1caf565ddf" x="43.2" y="378.137951" style="stroke: #000000; stroke-width: 0.8"/>
      </g>
     </g>
     <g id="text_8">
      <text style="font: 8px 'Carlito', sans-serif; text-anchor: end" x="36.2" y="380.915451" transform="rotate(-0 36.2 380.915451)">4</text>
     </g>
    </g>
    <g id="ytick_5">
     <g id="line2d_8">
      <g>
       <use xlink:href="#m1caf565ddf" x="43.2" y="357.783935" style="stroke: #000000; stroke-width: 0.8"/>
      </g>
     </g>
     <g id="text_9">
      <text style="font: 8px 'Carlito', sans-serif; text-anchor: end" x="36.2" y="360.561435" transform="rotate(-0 36.2 360.561435)">5</text>
     </g>
    </g>
    <g id="ytick_6">
     <g id="line2d_9">
      <g>
       <use xlink:href="#m1caf565ddf" x="43.2" y="337.429919" style="stroke: #000000; stroke-width: 0.8"/>
      </g>
     </g>
     <g id="text_10">
      <text style="font: 8px 'Carlito', sans-serif; text-anchor: end" x="36.2" y="340.207419" transform="rotate(-0 36.2 340.207419)">6</text>
     </g>
    </g>
    <g id="ytick_7">
     <g id="line2d_10">
      <g>
       <use xlink:href="#m1caf565ddf" x="43.2" y="317.075903" style="stroke: #000000; stroke-width: 0.8"/>
      </g>
     </g>
     <g id="text_11">
      <text style="font: 8px 'Carlito', sans-serif; text-anchor: end" x="36.2" y="319.853403" transform="rotate(-0 36.2 319.853403)">7</text>
     </g>
    </g>
    <g id="ytick_8">
     <g id="line2d_11">
      <g>
       <use xlink:href="#m1caf565ddf" x="43.2" y="296.721887" style="stroke: #000000; stroke-width: 0.8"/>
      </g>
     </g>
     <g id="text_12">
      <text style="font: 8px 'Carlito', sans-serif; text-anchor: end" x="36.2" y="299.499387" transform="rotate(-0 36.2 299.499387)">8</text>
     </g>
    </g>
    <g id="ytick_9">
     <g id="line2d_12">
      <g>
       <use xlink:href="#m1caf565ddf" x="43.2" y="276.367871" style="stroke: #000000; stroke-width: 0.8"/>
      </g>
     </g>
     <g id="text_13">
      <text style="font: 8px 'Carlito', sans-serif; text-anchor: end" x="36.2" y="279.145371" transform="rotate(-0 36.2 279.145371)">9</text>
     </g>
    </g>
    <g id="ytick_10">
     <g id="line2d_13">
      <g>
       <use xlink:href="#m1caf565ddf" x="43.2" y="256.013854" style="stroke: #000000; stroke-width: 0.8"/>
      </g>
     </g>
     <g id="text_14">
      <text style="font: 8px 'Carlito', sans-serif; text-anchor: end" x="36.2" y="258.791354" transform="rotate(-0 36.2 258.791354)">10</text>
     </g>
    </g>
    <g id="ytick_11">
     <g id="line2d_14">
      <g>
       <use xlink:href="#m1caf565ddf" x="43.2" y="215.305822" style="stroke: #000000; stroke-width: 0.8"/>
      </g>
     </g>
     <g id="text_15">
      <text style="font: 8px 'Carlito', sans-serif; text-anchor: end" x="36.2" y="218.083322" transform="rotate(-0 36.2 218.083322)">12</text>
     </g>
    </g>
    <g id="ytick_12">
     <g id="line2d_15">
      <g>
       <use xlink:href="#m1caf565ddf" x="43.2" y="174.59779" style="stroke: #000000; stroke-width: 0.8"/>
      </g>
     </g>
     <g id="text_16">
      <text style="font: 8px 'Carlito', sans-serif; text-anchor: end" x="36.2" y="177.37529" transform="rotate(-0 36.2 177.37529)">14</text>
     </g>
    </g>
    <g id="ytick_13">
     <g id="line2d_16">
      <g>
       <use xlink:href="#m1caf565ddf" x="43.2" y="133.889757" style="stroke: #000000; stroke-width: 0.8"/>
      </g>
     </g>
     <g id="text_17">
      <text style="font: 8px 'Carlito', sans-serif; text-anchor: end" x="36.2" y="136.667257" transform="rotate(-0 36.2 136.667257)">16</text>
     </g>
    </g>
    <g id="ytick_14">
     <g id="line2d_17">
      <g>
       <use xlink:href="#m1caf565ddf" x="43.2" y="93.181725" style="stroke: #000000; stroke-width: 0.8"/>
      </g>
     </g>
     <g id="text_18">
      <text style="font: 8px 'Carlito', sans-serif; text-anchor: end" x="36.2" y="95.959225" transform="rotate(-0 36.2 95.959225)">18</text>
     </g>
    </g>
    <g id="ytick_15">
     <g id="line2d_18">
      <g>
       <use xlink:href="#m1caf565ddf" x="43.2" y="52.473693" style="stroke: #000000; stroke-width: 0.8"/>
      </g>
     </g>
     <g id="text_19">
      <text style="font: 8px 'Carlito', sans-serif; text-anchor: end" x="36.2" y="55.251193" transform="rotate(-0 36.2 55.251193)">20</text>
     </g>
    </g>
    <g id="text_20">
     <!-- channel width $W$ -->
     <g transform="translate(22.80125 250.72) rotate(-90)">
      <text>
       <tspan style="font: 8px 'Carlito'" x="0 3.382812 7.585938 11.417969 15.621094 19.824219 23.804688 25.640625 27.449219 33.167969 35.003906 39.207031 41.886719 46.089844" y="-0.4375">channelwidth</tspan>
       <tspan style="font: italic 8px 'Carlito'" x="47.898438" y="-0.4375">W</tspan>
      </text>
     </g>
    </g>
   </g>
   <g id="patch_228">
    <path d="M 43.2 439.2 
L 43.2 7.2 
" style="fill: none; stroke: #000000; stroke-width: 0.8; stroke-linejoin: miter; stroke-linecap: square"/>
   </g>
   <g id="patch_229">
    <path d="M 187.2 439.2 
L 187.2 7.2 
" style="fill: none; stroke: #000000; stroke-width: 0.8; stroke-linejoin: miter; stroke-linecap: square"/>
   </g>
   <g id="patch_230">
    <path d="M 43.2 439.2 
L 187.2 439.2 
" style="fill: none; stroke: #000000; stroke-width: 0.8; stroke-linejoin: miter; stroke-linecap: square"/>
   </g>
   <g id="patch_231">
    <path d="M 43.2 7.2 
L 187.2 7.2 
" style="fill: none; stroke: #000000; stroke-width: 0.8; stroke-linejoin: miter; stroke-linecap: square"/>
   </g>
  </g>
 </g>
 <defs>
  <clipPath id="pa2904f4eae">
   <rect x="43.2" y="7.2" width="144" height="432"/>
  </clipPath>
 </defs>
</svg>
