<?xml version="1.0" encoding="utf-8" standalone="no"?>
<!DOCTYPE svg PUBLIC "-//W3C//DTD SVG 1.1//EN"
  "http://www.w3.org/Graphics/SVG/1.1/DTD/svg11.dtd">
<svg xmlns:xlink="http://www.w3.org/1999/xlink" width="442.59748pt" height="160.920118pt" viewBox="0 0 442.59748 160.920118" xmlns="http://www.w3.org/2000/svg" version="1.1">
 <metadata>
  <rdf:RDF xmlns:dc="http://purl.org/dc/elements/1.1/" xmlns:cc="http://creativecommons.org/ns#" xmlns:rdf="http://www.w3.org/1999/02/22-rdf-syntax-ns#">
   <cc:Work>
    <dc:type rdf:resource="http://purl.org/dc/dcmitype/StillImage"/>
    <dc:date>2024-10-23T11:13:11.187324</dc:date>
    <dc:format>image/svg+xml</dc:format>
    <dc:creator>
     <cc:Agent>
      <dc:title>Matplotlib v3.7.1, https://matplotlib.org/</dc:title>
     </cc:Agent>
    </dc:creator>
   </cc:Work>
  </rdf:RDF>
 </metadata>
 <defs>
  <style type="text/css">*{stroke-linejoin: round; stroke-linecap: butt}</style>
 </defs>
 <g id="figure_1">
  <g id="patch_1">
   <path d="M 0 160.920118 
L 442.59748 160.920118 
L 442.59748 0 
L 0 0 
z
" style="fill: #ffffff"/>
  </g>
  <g id="axes_1">
   <g id="patch_2">
    <path d="M 52.04 129.032618 
L 222.11874 129.032618 
L 222.11874 9.9775 
L 52.04 9.9775 
z
" style="fill: #ffffff"/>
   </g>
   <g id="matplotlib.axis_1">
    <g id="xtick_1">
     <g id="line2d_1">
      <defs>
       <path id="mc1ffbf9e2e" d="M 0 0 
L 0 3.5 
" style="stroke: #000000; stroke-width: 0.8"/>
      </defs>
      <g>
       <use xlink:href="#mc1ffbf9e2e" x="52.04" y="129.032618" style="stroke: #000000; stroke-width: 0.8"/>
      </g>
     </g>
     <g id="text_1">
      <text style="font: 8px 'Carlito', sans-serif; text-anchor: middle" x="52.04" y="141.587618" transform="rotate(-0 52.04 141.587618)">0</text>
     </g>
    </g>
    <g id="xtick_2">
     <g id="line2d_2">
      <g>
       <use xlink:href="#mc1ffbf9e2e" x="92.534938" y="129.032618" style="stroke: #000000; stroke-width: 0.8"/>
      </g>
     </g>
     <g id="text_2">
      <text style="font: 8px 'Carlito', sans-serif; text-anchor: middle" x="92.534938" y="141.587618" transform="rotate(-0 92.534938 141.587618)">5</text>
     </g>
    </g>
    <g id="xtick_3">
     <g id="line2d_3">
      <g>
       <use xlink:href="#mc1ffbf9e2e" x="133.029876" y="129.032618" style="stroke: #000000; stroke-width: 0.8"/>
      </g>
     </g>
     <g id="text_3">
      <text style="font: 8px 'Carlito', sans-serif; text-anchor: middle" x="133.029876" y="141.587618" transform="rotate(-0 133.029876 141.587618)">10</text>
     </g>
    </g>
    <g id="xtick_4">
     <g id="line2d_4">
      <g>
       <use xlink:href="#mc1ffbf9e2e" x="173.524814" y="129.032618" style="stroke: #000000; stroke-width: 0.8"/>
      </g>
     </g>
     <g id="text_4">
      <text style="font: 8px 'Carlito', sans-serif; text-anchor: middle" x="173.524814" y="141.587618" transform="rotate(-0 173.524814 141.587618)">15</text>
     </g>
    </g>
    <g id="xtick_5">
     <g id="line2d_5">
      <g>
       <use xlink:href="#mc1ffbf9e2e" x="214.019753" y="129.032618" style="stroke: #000000; stroke-width: 0.8"/>
      </g>
     </g>
     <g id="text_5">
      <text style="font: 8px 'Carlito', sans-serif; text-anchor: middle" x="214.019753" y="141.587618" transform="rotate(-0 214.019753 141.587618)">20</text>
     </g>
    </g>
    <g id="text_6">
     <!-- channel width $W$ -->
     <g transform="translate(109.55937 152.431368)">
      <text>
       <tspan style="font: 8px 'Carlito'" x="0 3.382812 7.585938 11.417969 15.621094 19.824219 23.804688 25.640625 27.449219 33.167969 35.003906 39.207031 41.886719 46.089844" y="-0.4375">channel width </tspan>
       <tspan style="font: italic 8px 'Carlito'" x="47.898438" y="-0.4375">W</tspan>
      </text>
     </g>
    </g>
   </g>
   <g id="matplotlib.axis_2">
    <g id="ytick_1">
     <g id="line2d_6">
      <defs>
       <path id="m2b56ef4a02" d="M 0 0 
L -3.5 0 
" style="stroke: #000000; stroke-width: 0.8"/>
      </defs>
      <g>
       <use xlink:href="#m2b56ef4a02" x="52.04" y="129.032618" style="stroke: #000000; stroke-width: 0.8"/>
      </g>
     </g>
     <g id="text_7">
      <!-- 0×10$^{-4}$ -->
      <g transform="translate(22.96 131.810118)">
       <text>
        <tspan style="font: 8px 'Carlito'" x="0 4.054688 8.039062 12.09375" y="-0.7218750000000007">0×10</tspan>
        <tspan style="font: 5.6px 'Carlito'" x="16.21543 19.004492" y="-3.4015625000000007">−4</tspan>
       </text>
      </g>
     </g>
    </g>
    <g id="ytick_2">
     <g id="line2d_7">
      <g>
       <use xlink:href="#m2b56ef4a02" x="52.04" y="109.190098" style="stroke: #000000; stroke-width: 0.8"/>
      </g>
     </g>
     <g id="text_8">
      <!-- 2×10$^{-4}$ -->
      <g transform="translate(22.96 111.967598)">
       <text>
        <tspan style="font: 8px 'Carlito'" x="0 4.054688 8.039062 12.09375" y="-0.7218750000000007">2×10</tspan>
        <tspan style="font: 5.6px 'Carlito'" x="16.21543 19.004492" y="-3.4015625000000007">−4</tspan>
       </text>
      </g>
     </g>
    </g>
    <g id="ytick_3">
     <g id="line2d_8">
      <g>
       <use xlink:href="#m2b56ef4a02" x="52.04" y="89.347579" style="stroke: #000000; stroke-width: 0.8"/>
      </g>
     </g>
     <g id="text_9">
      <!-- 4×10$^{-4}$ -->
      <g transform="translate(22.96 92.125079)">
       <text>
        <tspan style="font: 8px 'Carlito'" x="0 4.054688 8.039062 12.09375" y="-0.7218750000000007">4×10</tspan>
        <tspan style="font: 5.6px 'Carlito'" x="16.21543 19.004492" y="-3.4015625000000007">−4</tspan>
       </text>
      </g>
     </g>
    </g>
    <g id="ytick_4">
     <g id="line2d_9">
      <g>
       <use xlink:href="#m2b56ef4a02" x="52.04" y="69.505059" style="stroke: #000000; stroke-width: 0.8"/>
      </g>
     </g>
     <g id="text_10">
      <!-- 6×10$^{-4}$ -->
      <g transform="translate(22.96 72.282559)">
       <text>
        <tspan style="font: 8px 'Carlito'" x="0 4.054688 8.039062 12.09375" y="-0.7218750000000007">6×10</tspan>
        <tspan style="font: 5.6px 'Carlito'" x="16.21543 19.004492" y="-3.4015625000000007">−4</tspan>
       </text>
      </g>
     </g>
    </g>
    <g id="ytick_5">
     <g id="line2d_10">
      <g>
       <use xlink:href="#m2b56ef4a02" x="52.04" y="49.662539" style="stroke: #000000; stroke-width: 0.8"/>
      </g>
     </g>
     <g id="text_11">
      <!-- 8×10$^{-4}$ -->
      <g transform="translate(22.96 52.440039)">
       <text>
        <tspan style="font: 8px 'Carlito'" x="0 4.054688 8.039062 12.09375" y="-0.7218750000000007">8×10</tspan>
        <tspan style="font: 5.6px 'Carlito'" x="16.21543 19.004492" y="-3.4015625000000007">−4</tspan>
       </text>
      </g>
     </g>
    </g>
    <g id="ytick_6">
     <g id="line2d_11">
      <g>
       <use xlink:href="#m2b56ef4a02" x="52.04" y="29.82002" style="stroke: #000000; stroke-width: 0.8"/>
      </g>
     </g>
     <g id="text_12">
      <!-- 10×10$^{-4}$ -->
      <g transform="translate(18.88 32.59752)">
       <text>
        <tspan style="font: 8px 'Carlito'" x="0 4.054688 8.109375 12.09375 16.148438" y="-0.7218750000000007">10×10</tspan>
        <tspan style="font: 5.6px 'Carlito'" x="20.270117 23.05918" y="-3.4015625000000007">−4</tspan>
       </text>
      </g>
     </g>
    </g>
    <g id="ytick_7">
     <g id="line2d_12">
      <g>
       <use xlink:href="#m2b56ef4a02" x="52.04" y="9.9775" style="stroke: #000000; stroke-width: 0.8"/>
      </g>
     </g>
     <g id="text_13">
      <!-- 12×10$^{-4}$ -->
      <g transform="translate(18.88 12.755)">
       <text>
        <tspan style="font: 8px 'Carlito'" x="0 4.054688 8.109375 12.09375 16.148438" y="-0.7218750000000007">12×10</tspan>
        <tspan style="font: 5.6px 'Carlito'" x="20.270117 23.05918" y="-3.4015625000000007">−4</tspan>
       </text>
      </g>
     </g>
    </g>
    <g id="text_14">
     <!-- propensity [cell layer$^{-1}$] -->
     <g transform="translate(13.52 107.705059) rotate(-90)">
      <text>
       <tspan style="font: 8px 'Carlito'" x="0 4.203125 6.992188 11.210938 15.414062 19.394531 23.597656 26.726562 28.5625 31.242188 34.863281 36.671875 39.125 42.507812 46.488281 48.324219 50.160156 51.96875 53.804688 57.636719 61.257812 65.238281 73.913086" y="-0.7109375">propensity [cell layer]</tspan>
       <tspan style="font: 5.6px 'Carlito'" x="68.094336 70.883398" y="-3.390625">−1</tspan>
      </text>
     </g>
    </g>
   </g>
   <g id="line2d_13">
    <defs>
     <path id="ma8cf5c4154" d="M -3 3 
L 3 3 
L 3 -3 
L -3 -3 
z
" style="stroke: #808000; stroke-linejoin: miter"/>
    </defs>
    <g>
     <use xlink:href="#ma8cf5c4154" x="92.534938" y="88.753132" style="fill: #808000; stroke: #808000; stroke-linejoin: miter"/>
     <use xlink:href="#ma8cf5c4154" x="100.633926" y="120.080165" style="fill: #808000; stroke: #808000; stroke-linejoin: miter"/>
     <use xlink:href="#ma8cf5c4154" x="108.732913" y="126.43707" style="fill: #808000; stroke: #808000; stroke-linejoin: miter"/>
    </g>
   </g>
   <g id="line2d_14">
    <defs>
     <path id="m20f4da1a9e" d="M 0 -3 
L -3 3 
L 3 3 
z
" style="stroke: #800000; stroke-linejoin: miter"/>
    </defs>
    <g>
     <use xlink:href="#m20f4da1a9e" x="60.138988" y="129.032618" style="fill: #800000; stroke: #800000; stroke-linejoin: miter"/>
     <use xlink:href="#m20f4da1a9e" x="68.237975" y="128.287614" style="fill: #800000; stroke: #800000; stroke-linejoin: miter"/>
     <use xlink:href="#m20f4da1a9e" x="76.336963" y="118.9077" style="fill: #800000; stroke: #800000; stroke-linejoin: miter"/>
     <use xlink:href="#m20f4da1a9e" x="84.435951" y="101.260321" style="fill: #800000; stroke: #800000; stroke-linejoin: miter"/>
     <use xlink:href="#m20f4da1a9e" x="92.534938" y="88.454119" style="fill: #800000; stroke: #800000; stroke-linejoin: miter"/>
     <use xlink:href="#m20f4da1a9e" x="100.633926" y="82.434259" style="fill: #800000; stroke: #800000; stroke-linejoin: miter"/>
     <use xlink:href="#m20f4da1a9e" x="108.732913" y="80.919724" style="fill: #800000; stroke: #800000; stroke-linejoin: miter"/>
     <use xlink:href="#m20f4da1a9e" x="116.831901" y="79.276049" style="fill: #800000; stroke: #800000; stroke-linejoin: miter"/>
     <use xlink:href="#m20f4da1a9e" x="124.930889" y="78.568809" style="fill: #800000; stroke: #800000; stroke-linejoin: miter"/>
     <use xlink:href="#m20f4da1a9e" x="133.029876" y="76.56281" style="fill: #800000; stroke: #800000; stroke-linejoin: miter"/>
     <use xlink:href="#m20f4da1a9e" x="149.227852" y="72.946032" style="fill: #800000; stroke: #800000; stroke-linejoin: miter"/>
     <use xlink:href="#m20f4da1a9e" x="165.425827" y="73.359159" style="fill: #800000; stroke: #800000; stroke-linejoin: miter"/>
     <use xlink:href="#m20f4da1a9e" x="181.623802" y="67.764774" style="fill: #800000; stroke: #800000; stroke-linejoin: miter"/>
     <use xlink:href="#m20f4da1a9e" x="197.821777" y="64.078625" style="fill: #800000; stroke: #800000; stroke-linejoin: miter"/>
     <use xlink:href="#m20f4da1a9e" x="214.019753" y="60.247783" style="fill: #800000; stroke: #800000; stroke-linejoin: miter"/>
    </g>
   </g>
   <g id="line2d_15">
    <path d="M 86.135201 -1 
L 87.675546 35.231746 
L 89.295343 62.326755 
L 90.915141 81.59519 
L 92.534938 95.297808 
L 94.154736 105.042334 
L 95.774533 111.972088 
L 97.394331 116.900136 
L 99.014128 120.404685 
L 100.633926 122.896921 
L 102.253723 124.669258 
L 103.873521 125.929644 
L 105.493318 126.825959 
L 107.113116 127.463367 
L 108.732913 127.916656 
L 110.352711 128.239009 
L 111.972508 128.468248 
L 113.592306 128.63127 
L 115.212103 128.747202 
L 116.831901 128.829647 
L 118.451699 128.888276 
L 120.071496 128.92997 
L 121.691294 128.959621 
L 123.311091 128.980707 
L 124.930889 128.995702 
L 126.550686 129.006365 
L 128.170484 129.013949 
L 129.790281 129.019341 
L 131.410079 129.023176 
L 133.029876 129.025904 
L 134.649674 129.027843 
L 136.269471 129.029222 
L 137.889269 129.030203 
L 139.509066 129.030901 
L 141.128864 129.031397 
L 142.748661 129.03175 
L 144.368459 129.032001 
L 145.988256 129.032179 
L 147.608054 129.032306 
L 149.227852 129.032396 
L 150.847649 129.03246 
L 152.467447 129.032506 
L 154.087244 129.032538 
L 155.707042 129.032561 
L 157.326839 129.032578 
L 158.946637 129.032589 
L 160.566434 129.032598 
L 162.186232 129.032604 
L 163.806029 129.032608 
L 165.425827 129.032611 
L 167.045624 129.032613 
L 168.665422 129.032614 
L 170.285219 129.032615 
L 171.905017 129.032616 
L 173.524814 129.032617 
L 175.144612 129.032617 
L 176.764409 129.032617 
L 178.384207 129.032618 
L 180.004004 129.032618 
L 181.623802 129.032618 
L 183.2436 129.032618 
L 184.863397 129.032618 
L 186.483195 129.032618 
L 188.102992 129.032618 
L 189.72279 129.032618 
L 191.342587 129.032618 
L 192.962385 129.032618 
L 194.582182 129.032618 
L 196.20198 129.032618 
L 197.821777 129.032618 
L 199.441575 129.032618 
L 201.061372 129.032618 
L 202.68117 129.032618 
L 204.300967 129.032618 
L 205.920765 129.032618 
L 207.540562 129.032618 
L 209.16036 129.032618 
L 210.780157 129.032618 
L 212.399955 129.032618 
L 214.019753 129.032618 
" clip-path="url(#p50e4f84707)" style="fill: none; stroke: #808000; stroke-opacity: 0.3; stroke-width: 1.5; stroke-linecap: square"/>
   </g>
   <g id="line2d_16">
    <path d="M 52.04 93.506465 
L 53.659798 93.180131 
L 55.279595 92.853797 
L 56.899393 92.527462 
L 58.51919 92.201128 
L 60.138988 91.874794 
L 61.758785 91.548459 
L 63.378583 91.222125 
L 64.99838 90.895791 
L 66.618178 90.569456 
L 68.237975 90.243122 
L 69.857773 89.916787 
L 71.47757 89.590453 
L 73.097368 89.264119 
L 74.717165 88.937784 
L 76.336963 88.61145 
L 77.95676 88.285116 
L 79.576558 87.958781 
L 81.196355 87.632447 
L 82.816153 87.306113 
L 84.435951 86.979778 
L 86.055748 86.653444 
L 87.675546 86.327109 
L 89.295343 86.000775 
L 90.915141 85.674441 
L 92.534938 85.348106 
L 94.154736 85.021772 
L 95.774533 84.695438 
L 97.394331 84.369103 
L 99.014128 84.042769 
L 100.633926 83.716435 
L 102.253723 83.3901 
L 103.873521 83.063766 
L 105.493318 82.737431 
L 107.113116 82.411097 
L 108.732913 82.084763 
L 110.352711 81.758428 
L 111.972508 81.432094 
L 113.592306 81.10576 
L 115.212103 80.779425 
L 116.831901 80.453091 
L 118.451699 80.126757 
L 120.071496 79.800422 
L 121.691294 79.474088 
L 123.311091 79.147753 
L 124.930889 78.821419 
L 126.550686 78.495085 
L 128.170484 78.16875 
L 129.790281 77.842416 
L 131.410079 77.516082 
L 133.029876 77.189747 
L 134.649674 76.863413 
L 136.269471 76.537079 
L 137.889269 76.210744 
L 139.509066 75.88441 
L 141.128864 75.558076 
L 142.748661 75.231741 
L 144.368459 74.905407 
L 145.988256 74.579072 
L 147.608054 74.252738 
L 149.227852 73.926404 
L 150.847649 73.600069 
L 152.467447 73.273735 
L 154.087244 72.947401 
L 155.707042 72.621066 
L 157.326839 72.294732 
L 158.946637 71.968398 
L 160.566434 71.642063 
L 162.186232 71.315729 
L 163.806029 70.989394 
L 165.425827 70.66306 
L 167.045624 70.336726 
L 168.665422 70.010391 
L 170.285219 69.684057 
L 171.905017 69.357723 
L 173.524814 69.031388 
L 175.144612 68.705054 
L 176.764409 68.37872 
L 178.384207 68.052385 
L 180.004004 67.726051 
L 181.623802 67.399716 
L 183.2436 67.073382 
L 184.863397 66.747048 
L 186.483195 66.420713 
L 188.102992 66.094379 
L 189.72279 65.768045 
L 191.342587 65.44171 
L 192.962385 65.115376 
L 194.582182 64.789042 
L 196.20198 64.462707 
L 197.821777 64.136373 
L 199.441575 63.810038 
L 201.061372 63.483704 
L 202.68117 63.15737 
L 204.300967 62.831035 
L 205.920765 62.504701 
L 207.540562 62.178367 
L 209.16036 61.852032 
L 210.780157 61.525698 
L 212.399955 61.199364 
L 214.019753 60.873029 
" clip-path="url(#p50e4f84707)" style="fill: none; stroke: #800000; stroke-opacity: 0.4; stroke-width: 1.5; stroke-linecap: square"/>
   </g>
   <g id="line2d_17">
    <path d="M 88.067279 -1 
L 89.295343 19.294912 
L 90.915141 38.237013 
L 92.534938 51.613297 
L 94.154736 61.031488 
L 95.774533 67.634907 
L 97.394331 72.236621 
L 99.014128 75.414836 
L 100.633926 77.580737 
L 102.253723 79.02674 
L 103.873521 79.960792 
L 105.493318 80.530772 
L 107.113116 80.841846 
L 108.732913 80.9688 
L 110.352711 80.964819 
L 111.972508 80.867724 
L 113.592306 80.704412 
L 115.212103 80.494009 
L 116.831901 80.250119 
L 118.451699 79.982415 
L 120.071496 79.697774 
L 121.691294 79.401091 
L 123.311091 79.095842 
L 124.930889 78.784503 
L 126.550686 78.468832 
L 128.170484 78.150081 
L 129.790281 77.829139 
L 131.410079 77.50664 
L 133.029876 77.183033 
L 134.649674 76.858638 
L 136.269471 76.533683 
L 137.889269 76.208329 
L 139.509066 75.882693 
L 141.128864 75.556854 
L 142.748661 75.230873 
L 144.368459 74.904789 
L 145.988256 74.578633 
L 147.608054 74.252426 
L 149.227852 73.926182 
L 150.847649 73.599911 
L 152.467447 73.273623 
L 154.087244 72.947321 
L 155.707042 72.621009 
L 157.326839 72.294691 
L 158.946637 71.968369 
L 160.566434 71.642043 
L 162.186232 71.315714 
L 163.806029 70.989384 
L 165.425827 70.663053 
L 167.045624 70.33672 
L 168.665422 70.010388 
L 170.285219 69.684054 
L 171.905017 69.357721 
L 173.524814 69.031387 
L 175.144612 68.705053 
L 176.764409 68.378719 
L 178.384207 68.052385 
L 180.004004 67.72605 
L 181.623802 67.399716 
L 183.2436 67.073382 
L 184.863397 66.747048 
L 186.483195 66.420713 
L 188.102992 66.094379 
L 189.72279 65.768045 
L 191.342587 65.44171 
L 192.962385 65.115376 
L 194.582182 64.789042 
L 196.20198 64.462707 
L 197.821777 64.136373 
L 199.441575 63.810038 
L 201.061372 63.483704 
L 202.68117 63.15737 
L 204.300967 62.831035 
L 205.920765 62.504701 
L 207.540562 62.178367 
L 209.16036 61.852032 
L 210.780157 61.525698 
L 212.399955 61.199364 
L 214.019753 60.873029 
" clip-path="url(#p50e4f84707)" style="fill: none; stroke: #000080; stroke-opacity: 0.4; stroke-width: 1.5; stroke-linecap: square"/>
   </g>
   <g id="patch_3">
    <path d="M 52.04 129.032618 
L 52.04 9.9775 
" style="fill: none; stroke: #000000; stroke-width: 0.8; stroke-linejoin: miter; stroke-linecap: square"/>
   </g>
   <g id="patch_4">
    <path d="M 222.11874 129.032618 
L 222.11874 9.9775 
" style="fill: none; stroke: #000000; stroke-width: 0.8; stroke-linejoin: miter; stroke-linecap: square"/>
   </g>
   <g id="patch_5">
    <path d="M 52.04 129.032618 
L 222.11874 129.032618 
" style="fill: none; stroke: #000000; stroke-width: 0.8; stroke-linejoin: miter; stroke-linecap: square"/>
   </g>
   <g id="patch_6">
    <path d="M 52.04 9.9775 
L 222.11874 9.9775 
" style="fill: none; stroke: #000000; stroke-width: 0.8; stroke-linejoin: miter; stroke-linecap: square"/>
   </g>
  </g>
  <g id="axes_2">
   <g id="patch_7">
    <path d="M 265.31874 129.032618 
L 435.39748 129.032618 
L 435.39748 9.9775 
L 265.31874 9.9775 
z
" style="fill: #ffffff"/>
   </g>
   <g id="matplotlib.axis_3">
    <g id="xtick_6">
     <g id="line2d_18">
      <g>
       <use xlink:href="#mc1ffbf9e2e" x="265.31874" y="129.032618" style="stroke: #000000; stroke-width: 0.8"/>
      </g>
     </g>
     <g id="text_15">
      <text style="font: 8px 'Carlito', sans-serif; text-anchor: middle" x="265.31874" y="141.587618" transform="rotate(-0 265.31874 141.587618)">0</text>
     </g>
    </g>
    <g id="xtick_7">
     <g id="line2d_19">
      <g>
       <use xlink:href="#mc1ffbf9e2e" x="305.813678" y="129.032618" style="stroke: #000000; stroke-width: 0.8"/>
      </g>
     </g>
     <g id="text_16">
      <text style="font: 8px 'Carlito', sans-serif; text-anchor: middle" x="305.813678" y="141.587618" transform="rotate(-0 305.813678 141.587618)">5</text>
     </g>
    </g>
    <g id="xtick_8">
     <g id="line2d_20">
      <g>
       <use xlink:href="#mc1ffbf9e2e" x="346.308616" y="129.032618" style="stroke: #000000; stroke-width: 0.8"/>
      </g>
     </g>
     <g id="text_17">
      <text style="font: 8px 'Carlito', sans-serif; text-anchor: middle" x="346.308616" y="141.587618" transform="rotate(-0 346.308616 141.587618)">10</text>
     </g>
    </g>
    <g id="xtick_9">
     <g id="line2d_21">
      <g>
       <use xlink:href="#mc1ffbf9e2e" x="386.803555" y="129.032618" style="stroke: #000000; stroke-width: 0.8"/>
      </g>
     </g>
     <g id="text_18">
      <text style="font: 8px 'Carlito', sans-serif; text-anchor: middle" x="386.803555" y="141.587618" transform="rotate(-0 386.803555 141.587618)">15</text>
     </g>
    </g>
    <g id="xtick_10">
     <g id="line2d_22">
      <g>
       <use xlink:href="#mc1ffbf9e2e" x="427.298493" y="129.032618" style="stroke: #000000; stroke-width: 0.8"/>
      </g>
     </g>
     <g id="text_19">
      <text style="font: 8px 'Carlito', sans-serif; text-anchor: middle" x="427.298493" y="141.587618" transform="rotate(-0 427.298493 141.587618)">20</text>
     </g>
    </g>
    <g id="text_20">
     <!-- channel width $W$ -->
     <g transform="translate(322.83811 152.431368)">
      <text>
       <tspan style="font: 8px 'Carlito'" x="0 3.382812 7.585938 11.417969 15.621094 19.824219 23.804688 25.640625 27.449219 33.167969 35.003906 39.207031 41.886719 46.089844" y="-0.4375">channel width </tspan>
       <tspan style="font: italic 8px 'Carlito'" x="47.898438" y="-0.4375">W</tspan>
      </text>
     </g>
    </g>
   </g>
   <g id="matplotlib.axis_4">
    <g id="ytick_8">
     <g id="line2d_23">
      <g>
       <use xlink:href="#m2b56ef4a02" x="265.31874" y="108.698371" style="stroke: #000000; stroke-width: 0.8"/>
      </g>
     </g>
     <g id="text_21">
      <!-- $\mathdefault{10^{-4}}$ -->
      <g transform="translate(244.31874 111.475871)">
       <text>
        <tspan style="font: 8px 'Carlito'" x="0 4.054688" y="-0.7218750000000007">10</tspan>
        <tspan style="font: 5.6px 'Carlito'" x="8.176367 10.96543" y="-3.4015625000000007">−4</tspan>
       </text>
      </g>
     </g>
    </g>
    <g id="ytick_9">
     <g id="line2d_24">
      <g>
       <use xlink:href="#m2b56ef4a02" x="265.31874" y="84.018153" style="stroke: #000000; stroke-width: 0.8"/>
      </g>
     </g>
     <g id="text_22">
      <!-- $\mathdefault{10^{-3}}$ -->
      <g transform="translate(244.31874 86.795653)">
       <text>
        <tspan style="font: 8px 'Carlito'" x="0 4.054688" y="-0.6890625000000004">10</tspan>
        <tspan style="font: 5.6px 'Carlito'" x="8.176367 10.96543" y="-3.3687500000000004">−3</tspan>
       </text>
      </g>
     </g>
    </g>
    <g id="ytick_10">
     <g id="line2d_25">
      <g>
       <use xlink:href="#m2b56ef4a02" x="265.31874" y="59.337935" style="stroke: #000000; stroke-width: 0.8"/>
      </g>
     </g>
     <g id="text_23">
      <!-- $\mathdefault{10^{-2}}$ -->
      <g transform="translate(244.31874 62.115435)">
       <text>
        <tspan style="font: 8px 'Carlito'" x="0 4.054688" y="-0.6890625000000004">10</tspan>
        <tspan style="font: 5.6px 'Carlito'" x="8.176367 10.96543" y="-3.3687500000000004">−2</tspan>
       </text>
      </g>
     </g>
    </g>
    <g id="ytick_11">
     <g id="line2d_26">
      <g>
       <use xlink:href="#m2b56ef4a02" x="265.31874" y="34.657718" style="stroke: #000000; stroke-width: 0.8"/>
      </g>
     </g>
     <g id="text_24">
      <!-- $\mathdefault{10^{-1}}$ -->
      <g transform="translate(244.31874 37.435218)">
       <text>
        <tspan style="font: 8px 'Carlito'" x="0 4.054688" y="-0.7109375">10</tspan>
        <tspan style="font: 5.6px 'Carlito'" x="8.176367 10.96543" y="-3.390625">−1</tspan>
       </text>
      </g>
     </g>
    </g>
    <g id="ytick_12">
     <g id="line2d_27">
      <g>
       <use xlink:href="#m2b56ef4a02" x="265.31874" y="9.9775" style="stroke: #000000; stroke-width: 0.8"/>
      </g>
     </g>
     <g id="text_25">
      <!-- $\mathdefault{10^{0}}$ -->
      <g transform="translate(247.03874 12.755)">
       <text>
        <tspan style="font: 8px 'Carlito'" x="0 4.054688" y="-0.6890625000000004">10</tspan>
        <tspan style="font: 5.6px 'Carlito'" x="8.176367" y="-3.3687500000000004">0</tspan>
       </text>
      </g>
     </g>
    </g>
    <g id="ytick_13">
     <g id="line2d_28">
      <defs>
       <path id="m56e947c5a8" d="M 0 0 
L -2 0 
" style="stroke: #000000; stroke-width: 0.6"/>
      </defs>
      <g>
       <use xlink:href="#m56e947c5a8" x="265.31874" y="125.949103" style="stroke: #000000; stroke-width: 0.6"/>
      </g>
     </g>
    </g>
    <g id="ytick_14">
     <g id="line2d_29">
      <g>
       <use xlink:href="#m56e947c5a8" x="265.31874" y="121.603132" style="stroke: #000000; stroke-width: 0.6"/>
      </g>
     </g>
    </g>
    <g id="ytick_15">
     <g id="line2d_30">
      <g>
       <use xlink:href="#m56e947c5a8" x="265.31874" y="118.519617" style="stroke: #000000; stroke-width: 0.6"/>
      </g>
     </g>
    </g>
    <g id="ytick_16">
     <g id="line2d_31">
      <g>
       <use xlink:href="#m56e947c5a8" x="265.31874" y="116.127857" style="stroke: #000000; stroke-width: 0.6"/>
      </g>
     </g>
    </g>
    <g id="ytick_17">
     <g id="line2d_32">
      <g>
       <use xlink:href="#m56e947c5a8" x="265.31874" y="114.173646" style="stroke: #000000; stroke-width: 0.6"/>
      </g>
     </g>
    </g>
    <g id="ytick_18">
     <g id="line2d_33">
      <g>
       <use xlink:href="#m56e947c5a8" x="265.31874" y="112.521385" style="stroke: #000000; stroke-width: 0.6"/>
      </g>
     </g>
    </g>
    <g id="ytick_19">
     <g id="line2d_34">
      <g>
       <use xlink:href="#m56e947c5a8" x="265.31874" y="111.090131" style="stroke: #000000; stroke-width: 0.6"/>
      </g>
     </g>
    </g>
    <g id="ytick_20">
     <g id="line2d_35">
      <g>
       <use xlink:href="#m56e947c5a8" x="265.31874" y="109.827676" style="stroke: #000000; stroke-width: 0.6"/>
      </g>
     </g>
    </g>
    <g id="ytick_21">
     <g id="line2d_36">
      <g>
       <use xlink:href="#m56e947c5a8" x="265.31874" y="101.268885" style="stroke: #000000; stroke-width: 0.6"/>
      </g>
     </g>
    </g>
    <g id="ytick_22">
     <g id="line2d_37">
      <g>
       <use xlink:href="#m56e947c5a8" x="265.31874" y="96.922915" style="stroke: #000000; stroke-width: 0.6"/>
      </g>
     </g>
    </g>
    <g id="ytick_23">
     <g id="line2d_38">
      <g>
       <use xlink:href="#m56e947c5a8" x="265.31874" y="93.839399" style="stroke: #000000; stroke-width: 0.6"/>
      </g>
     </g>
    </g>
    <g id="ytick_24">
     <g id="line2d_39">
      <g>
       <use xlink:href="#m56e947c5a8" x="265.31874" y="91.447639" style="stroke: #000000; stroke-width: 0.6"/>
      </g>
     </g>
    </g>
    <g id="ytick_25">
     <g id="line2d_40">
      <g>
       <use xlink:href="#m56e947c5a8" x="265.31874" y="89.493429" style="stroke: #000000; stroke-width: 0.6"/>
      </g>
     </g>
    </g>
    <g id="ytick_26">
     <g id="line2d_41">
      <g>
       <use xlink:href="#m56e947c5a8" x="265.31874" y="87.841167" style="stroke: #000000; stroke-width: 0.6"/>
      </g>
     </g>
    </g>
    <g id="ytick_27">
     <g id="line2d_42">
      <g>
       <use xlink:href="#m56e947c5a8" x="265.31874" y="86.409913" style="stroke: #000000; stroke-width: 0.6"/>
      </g>
     </g>
    </g>
    <g id="ytick_28">
     <g id="line2d_43">
      <g>
       <use xlink:href="#m56e947c5a8" x="265.31874" y="85.147458" style="stroke: #000000; stroke-width: 0.6"/>
      </g>
     </g>
    </g>
    <g id="ytick_29">
     <g id="line2d_44">
      <g>
       <use xlink:href="#m56e947c5a8" x="265.31874" y="76.588667" style="stroke: #000000; stroke-width: 0.6"/>
      </g>
     </g>
    </g>
    <g id="ytick_30">
     <g id="line2d_45">
      <g>
       <use xlink:href="#m56e947c5a8" x="265.31874" y="72.242697" style="stroke: #000000; stroke-width: 0.6"/>
      </g>
     </g>
    </g>
    <g id="ytick_31">
     <g id="line2d_46">
      <g>
       <use xlink:href="#m56e947c5a8" x="265.31874" y="69.159182" style="stroke: #000000; stroke-width: 0.6"/>
      </g>
     </g>
    </g>
    <g id="ytick_32">
     <g id="line2d_47">
      <g>
       <use xlink:href="#m56e947c5a8" x="265.31874" y="66.767421" style="stroke: #000000; stroke-width: 0.6"/>
      </g>
     </g>
    </g>
    <g id="ytick_33">
     <g id="line2d_48">
      <g>
       <use xlink:href="#m56e947c5a8" x="265.31874" y="64.813211" style="stroke: #000000; stroke-width: 0.6"/>
      </g>
     </g>
    </g>
    <g id="ytick_34">
     <g id="line2d_49">
      <g>
       <use xlink:href="#m56e947c5a8" x="265.31874" y="63.16095" style="stroke: #000000; stroke-width: 0.6"/>
      </g>
     </g>
    </g>
    <g id="ytick_35">
     <g id="line2d_50">
      <g>
       <use xlink:href="#m56e947c5a8" x="265.31874" y="61.729696" style="stroke: #000000; stroke-width: 0.6"/>
      </g>
     </g>
    </g>
    <g id="ytick_36">
     <g id="line2d_51">
      <g>
       <use xlink:href="#m56e947c5a8" x="265.31874" y="60.46724" style="stroke: #000000; stroke-width: 0.6"/>
      </g>
     </g>
    </g>
    <g id="ytick_37">
     <g id="line2d_52">
      <g>
       <use xlink:href="#m56e947c5a8" x="265.31874" y="51.90845" style="stroke: #000000; stroke-width: 0.6"/>
      </g>
     </g>
    </g>
    <g id="ytick_38">
     <g id="line2d_53">
      <g>
       <use xlink:href="#m56e947c5a8" x="265.31874" y="47.562479" style="stroke: #000000; stroke-width: 0.6"/>
      </g>
     </g>
    </g>
    <g id="ytick_39">
     <g id="line2d_54">
      <g>
       <use xlink:href="#m56e947c5a8" x="265.31874" y="44.478964" style="stroke: #000000; stroke-width: 0.6"/>
      </g>
     </g>
    </g>
    <g id="ytick_40">
     <g id="line2d_55">
      <g>
       <use xlink:href="#m56e947c5a8" x="265.31874" y="42.087204" style="stroke: #000000; stroke-width: 0.6"/>
      </g>
     </g>
    </g>
    <g id="ytick_41">
     <g id="line2d_56">
      <g>
       <use xlink:href="#m56e947c5a8" x="265.31874" y="40.132993" style="stroke: #000000; stroke-width: 0.6"/>
      </g>
     </g>
    </g>
    <g id="ytick_42">
     <g id="line2d_57">
      <g>
       <use xlink:href="#m56e947c5a8" x="265.31874" y="38.480732" style="stroke: #000000; stroke-width: 0.6"/>
      </g>
     </g>
    </g>
    <g id="ytick_43">
     <g id="line2d_58">
      <g>
       <use xlink:href="#m56e947c5a8" x="265.31874" y="37.049478" style="stroke: #000000; stroke-width: 0.6"/>
      </g>
     </g>
    </g>
    <g id="ytick_44">
     <g id="line2d_59">
      <g>
       <use xlink:href="#m56e947c5a8" x="265.31874" y="35.787023" style="stroke: #000000; stroke-width: 0.6"/>
      </g>
     </g>
    </g>
    <g id="ytick_45">
     <g id="line2d_60">
      <g>
       <use xlink:href="#m56e947c5a8" x="265.31874" y="27.228232" style="stroke: #000000; stroke-width: 0.6"/>
      </g>
     </g>
    </g>
    <g id="ytick_46">
     <g id="line2d_61">
      <g>
       <use xlink:href="#m56e947c5a8" x="265.31874" y="22.882261" style="stroke: #000000; stroke-width: 0.6"/>
      </g>
     </g>
    </g>
    <g id="ytick_47">
     <g id="line2d_62">
      <g>
       <use xlink:href="#m56e947c5a8" x="265.31874" y="19.798746" style="stroke: #000000; stroke-width: 0.6"/>
      </g>
     </g>
    </g>
    <g id="ytick_48">
     <g id="line2d_63">
      <g>
       <use xlink:href="#m56e947c5a8" x="265.31874" y="17.406986" style="stroke: #000000; stroke-width: 0.6"/>
      </g>
     </g>
    </g>
    <g id="ytick_49">
     <g id="line2d_64">
      <g>
       <use xlink:href="#m56e947c5a8" x="265.31874" y="15.452775" style="stroke: #000000; stroke-width: 0.6"/>
      </g>
     </g>
    </g>
    <g id="ytick_50">
     <g id="line2d_65">
      <g>
       <use xlink:href="#m56e947c5a8" x="265.31874" y="13.800514" style="stroke: #000000; stroke-width: 0.6"/>
      </g>
     </g>
    </g>
    <g id="ytick_51">
     <g id="line2d_66">
      <g>
       <use xlink:href="#m56e947c5a8" x="265.31874" y="12.36926" style="stroke: #000000; stroke-width: 0.6"/>
      </g>
     </g>
    </g>
    <g id="ytick_52">
     <g id="line2d_67">
      <g>
       <use xlink:href="#m56e947c5a8" x="265.31874" y="11.106805" style="stroke: #000000; stroke-width: 0.6"/>
      </g>
     </g>
    </g>
    <g id="text_26">
     <!-- propensity [cell layer$^{-1}$] -->
     <g transform="translate(238.95874 107.705059) rotate(-90)">
      <text>
       <tspan style="font: 8px 'Carlito'" x="0 4.203125 6.992188 11.210938 15.414062 19.394531 23.597656 26.726562 28.5625 31.242188 34.863281 36.671875 39.125 42.507812 46.488281 48.324219 50.160156 51.96875 53.804688 57.636719 61.257812 65.238281 73.913086" y="-0.7109375">propensity [cell layer]</tspan>
       <tspan style="font: 5.6px 'Carlito'" x="68.094336 70.883398" y="-3.390625">−1</tspan>
      </text>
     </g>
    </g>
   </g>
   <g id="line2d_68">
    <g>
     <use xlink:href="#ma8cf5c4154" x="273.417728" y="19.624266" style="fill: #808000; stroke: #808000; stroke-linejoin: miter"/>
     <use xlink:href="#ma8cf5c4154" x="281.516715" y="43.20592" style="fill: #808000; stroke: #808000; stroke-linejoin: miter"/>
     <use xlink:href="#ma8cf5c4154" x="289.615703" y="60.925136" style="fill: #808000; stroke: #808000; stroke-linejoin: miter"/>
     <use xlink:href="#ma8cf5c4154" x="297.714691" y="77.780892" style="fill: #808000; stroke: #808000; stroke-linejoin: miter"/>
     <use xlink:href="#ma8cf5c4154" x="305.813678" y="93.680036" style="fill: #808000; stroke: #808000; stroke-linejoin: miter"/>
     <use xlink:href="#ma8cf5c4154" x="313.912666" y="109.79972" style="fill: #808000; stroke: #808000; stroke-linejoin: miter"/>
     <use xlink:href="#ma8cf5c4154" x="322.011654" y="123.070592" style="fill: #808000; stroke: #808000; stroke-linejoin: miter"/>
    </g>
   </g>
   <g id="line2d_69">
    <g>
     <use xlink:href="#m20f4da1a9e" x="289.615703" y="108.480576" style="fill: #800000; stroke: #800000; stroke-linejoin: miter"/>
     <use xlink:href="#m20f4da1a9e" x="297.714691" y="97.665203" style="fill: #800000; stroke: #800000; stroke-linejoin: miter"/>
     <use xlink:href="#m20f4da1a9e" x="305.813678" y="93.600762" style="fill: #800000; stroke: #800000; stroke-linejoin: miter"/>
     <use xlink:href="#m20f4da1a9e" x="313.912666" y="92.118107" style="fill: #800000; stroke: #800000; stroke-linejoin: miter"/>
     <use xlink:href="#m20f4da1a9e" x="322.011654" y="91.775277" style="fill: #800000; stroke: #800000; stroke-linejoin: miter"/>
     <use xlink:href="#m20f4da1a9e" x="330.110641" y="91.415219" style="fill: #800000; stroke: #800000; stroke-linejoin: miter"/>
     <use xlink:href="#m20f4da1a9e" x="338.209629" y="91.263939" style="fill: #800000; stroke: #800000; stroke-linejoin: miter"/>
     <use xlink:href="#m20f4da1a9e" x="346.308616" y="90.846117" style="fill: #800000; stroke: #800000; stroke-linejoin: miter"/>
     <use xlink:href="#m20f4da1a9e" x="362.506592" y="90.131636" style="fill: #800000; stroke: #800000; stroke-linejoin: miter"/>
     <use xlink:href="#m20f4da1a9e" x="378.704567" y="90.210879" style="fill: #800000; stroke: #800000; stroke-linejoin: miter"/>
     <use xlink:href="#m20f4da1a9e" x="394.902542" y="89.184568" style="fill: #800000; stroke: #800000; stroke-linejoin: miter"/>
     <use xlink:href="#m20f4da1a9e" x="411.100517" y="88.55835" style="fill: #800000; stroke: #800000; stroke-linejoin: miter"/>
     <use xlink:href="#m20f4da1a9e" x="427.298493" y="87.944137" style="fill: #800000; stroke: #800000; stroke-linejoin: miter"/>
    </g>
   </g>
   <g id="line2d_70">
    <path d="M 265.31874 4.237296 
L 266.938538 7.891026 
L 268.558335 11.544757 
L 270.178133 15.198487 
L 271.79793 18.852217 
L 273.417728 22.505947 
L 275.037525 26.159678 
L 276.657323 29.813408 
L 278.27712 33.467138 
L 279.896918 37.120868 
L 281.516715 40.774599 
L 283.136513 44.428329 
L 284.75631 48.082059 
L 286.376108 51.73579 
L 287.995906 55.38952 
L 289.615703 59.04325 
L 291.235501 62.69698 
L 292.855298 66.350711 
L 294.475096 70.004441 
L 296.094893 73.658171 
L 297.714691 77.311901 
L 299.334488 80.965632 
L 300.954286 84.619362 
L 302.574083 88.273092 
L 304.193881 91.926823 
L 305.813678 95.580553 
L 307.433476 99.234283 
L 309.053273 102.888013 
L 310.673071 106.541744 
L 312.292868 110.195474 
L 313.912666 113.849204 
L 315.532463 117.502935 
L 317.152261 121.156665 
L 318.772058 124.810395 
L 320.391856 128.464125 
L 322.011654 132.117856 
L 323.631451 135.771586 
L 325.251249 139.425316 
L 326.871046 143.079046 
L 328.490844 146.732777 
L 330.110641 150.386507 
L 331.730439 154.040237 
L 333.350236 157.693968 
L 334.970034 161.347698 
L 335.223803 161.920118 
" clip-path="url(#pea48de099a)" style="fill: none; stroke: #808000; stroke-opacity: 0.3; stroke-width: 1.5; stroke-linecap: square"/>
   </g>
   <g id="line2d_71">
    <path d="M 265.31874 95.025991 
L 266.938538 94.927983 
L 268.558335 94.830863 
L 270.178133 94.734615 
L 271.79793 94.639224 
L 273.417728 94.544674 
L 275.037525 94.450952 
L 276.657323 94.358041 
L 278.27712 94.265929 
L 279.896918 94.174602 
L 281.516715 94.084046 
L 283.136513 93.994249 
L 284.75631 93.905198 
L 286.376108 93.816881 
L 287.995906 93.729286 
L 289.615703 93.642401 
L 291.235501 93.556214 
L 292.855298 93.470715 
L 294.475096 93.385892 
L 296.094893 93.301736 
L 297.714691 93.218235 
L 299.334488 93.135379 
L 300.954286 93.05316 
L 302.574083 92.971566 
L 304.193881 92.890588 
L 305.813678 92.810218 
L 307.433476 92.730445 
L 309.053273 92.651263 
L 310.673071 92.57266 
L 312.292868 92.49463 
L 313.912666 92.417164 
L 315.532463 92.340254 
L 317.152261 92.263892 
L 318.772058 92.18807 
L 320.391856 92.112781 
L 322.011654 92.038016 
L 323.631451 91.96377 
L 325.251249 91.890034 
L 326.871046 91.816802 
L 328.490844 91.744068 
L 330.110641 91.671823 
L 331.730439 91.600062 
L 333.350236 91.528778 
L 334.970034 91.457966 
L 336.589831 91.387618 
L 338.209629 91.317728 
L 339.829426 91.248292 
L 341.449224 91.179302 
L 343.069021 91.110754 
L 344.688819 91.042641 
L 346.308616 90.974958 
L 347.928414 90.9077 
L 349.548211 90.840862 
L 351.168009 90.774437 
L 352.787807 90.708422 
L 354.407604 90.642811 
L 356.027402 90.577599 
L 357.647199 90.512781 
L 359.266997 90.448353 
L 360.886794 90.38431 
L 362.506592 90.320648 
L 364.126389 90.257361 
L 365.746187 90.194446 
L 367.365984 90.131898 
L 368.985782 90.069712 
L 370.605579 90.007886 
L 372.225377 89.946414 
L 373.845174 89.885293 
L 375.464972 89.824518 
L 377.084769 89.764086 
L 378.704567 89.703992 
L 380.324364 89.644234 
L 381.944162 89.584807 
L 383.56396 89.525707 
L 385.183757 89.466932 
L 386.803555 89.408477 
L 388.423352 89.35034 
L 390.04315 89.292516 
L 391.662947 89.235002 
L 393.282745 89.177795 
L 394.902542 89.120892 
L 396.52234 89.06429 
L 398.142137 89.007984 
L 399.761935 88.951973 
L 401.381732 88.896253 
L 403.00153 88.840822 
L 404.621327 88.785675 
L 406.241125 88.730811 
L 407.860922 88.676226 
L 409.48072 88.621918 
L 411.100517 88.567884 
L 412.720315 88.51412 
L 414.340112 88.460625 
L 415.95991 88.407396 
L 417.579708 88.354429 
L 419.199505 88.301723 
L 420.819303 88.249275 
L 422.4391 88.197083 
L 424.058898 88.145143 
L 425.678695 88.093454 
L 427.298493 88.042013 
" clip-path="url(#pea48de099a)" style="fill: none; stroke: #800000; stroke-opacity: 0.4; stroke-width: 1.5; stroke-linecap: square"/>
   </g>
   <g id="line2d_72">
    <path d="M 265.31874 4.23505 
L 266.938538 7.887839 
L 268.558335 11.540233 
L 270.178133 15.19207 
L 271.79793 18.843114 
L 273.417728 22.493036 
L 275.037525 26.141366 
L 276.657323 29.787444 
L 278.27712 33.430332 
L 279.896918 37.068706 
L 281.516715 40.700702 
L 283.136513 44.323692 
L 284.75631 47.933993 
L 286.376108 51.526459 
L 287.995906 55.093943 
L 289.615703 58.626604 
L 291.235501 62.11105 
L 292.855298 65.529355 
L 294.475096 68.858069 
L 296.094893 72.067482 
L 297.714691 75.121586 
L 299.334488 77.979338 
L 300.954286 80.597817 
L 302.574083 82.93743 
L 304.193881 84.968391 
L 305.813678 86.676644 
L 307.433476 88.06696 
L 309.053273 89.161872 
L 310.673071 89.996914 
L 312.292868 90.614138 
L 313.912666 91.056102 
L 315.532463 91.361648 
L 317.152261 91.56375 
L 318.772058 91.688976 
L 320.391856 91.757942 
L 322.011654 91.786216 
L 323.631451 91.785328 
L 325.251249 91.763699 
L 326.871046 91.727418 
L 328.490844 91.680855 
L 330.110641 91.627133 
L 331.730439 91.568474 
L 333.350236 91.506454 
L 334.970034 91.442189 
L 336.589831 91.376469 
L 338.209629 91.309851 
L 339.829426 91.242725 
L 341.449224 91.175369 
L 343.069021 91.107974 
L 344.688819 91.040677 
L 346.308616 90.97357 
L 347.928414 90.906719 
L 349.548211 90.840168 
L 351.168009 90.773947 
L 352.787807 90.708076 
L 354.407604 90.642566 
L 356.027402 90.577426 
L 357.647199 90.512659 
L 359.266997 90.448267 
L 360.886794 90.384249 
L 362.506592 90.320605 
L 364.126389 90.257331 
L 365.746187 90.194424 
L 367.365984 90.131882 
L 368.985782 90.069702 
L 370.605579 90.007878 
L 372.225377 89.946409 
L 373.845174 89.885289 
L 375.464972 89.824515 
L 377.084769 89.764084 
L 378.704567 89.703991 
L 380.324364 89.644233 
L 381.944162 89.584806 
L 383.56396 89.525707 
L 385.183757 89.466932 
L 386.803555 89.408477 
L 388.423352 89.35034 
L 390.04315 89.292516 
L 391.662947 89.235002 
L 393.282745 89.177795 
L 394.902542 89.120892 
L 396.52234 89.06429 
L 398.142137 89.007984 
L 399.761935 88.951973 
L 401.381732 88.896253 
L 403.00153 88.840822 
L 404.621327 88.785675 
L 406.241125 88.730811 
L 407.860922 88.676226 
L 409.48072 88.621918 
L 411.100517 88.567884 
L 412.720315 88.51412 
L 414.340112 88.460625 
L 415.95991 88.407396 
L 417.579708 88.354429 
L 419.199505 88.301723 
L 420.819303 88.249275 
L 422.4391 88.197083 
L 424.058898 88.145143 
L 425.678695 88.093454 
L 427.298493 88.042013 
" clip-path="url(#pea48de099a)" style="fill: none; stroke: #000080; stroke-opacity: 0.4; stroke-width: 1.5; stroke-linecap: square"/>
   </g>
   <g id="patch_8">
    <path d="M 265.31874 129.032618 
L 265.31874 9.9775 
" style="fill: none; stroke: #000000; stroke-width: 0.8; stroke-linejoin: miter; stroke-linecap: square"/>
   </g>
   <g id="patch_9">
    <path d="M 435.39748 129.032618 
L 435.39748 9.9775 
" style="fill: none; stroke: #000000; stroke-width: 0.8; stroke-linejoin: miter; stroke-linecap: square"/>
   </g>
   <g id="patch_10">
    <path d="M 265.31874 129.032618 
L 435.39748 129.032618 
" style="fill: none; stroke: #000000; stroke-width: 0.8; stroke-linejoin: miter; stroke-linecap: square"/>
   </g>
   <g id="patch_11">
    <path d="M 265.31874 9.9775 
L 435.39748 9.9775 
" style="fill: none; stroke: #000000; stroke-width: 0.8; stroke-linejoin: miter; stroke-linecap: square"/>
   </g>
   <g id="legend_1">
    <g id="patch_12">
     <path d="M 311.15748 76.1675 
L 429.79748 76.1675 
Q 431.39748 76.1675 431.39748 74.5675 
L 431.39748 15.5775 
Q 431.39748 13.9775 429.79748 13.9775 
L 311.15748 13.9775 
Q 309.55748 13.9775 309.55748 15.5775 
L 309.55748 74.5675 
Q 309.55748 76.1675 311.15748 76.1675 
z
" style="fill: #ffffff; opacity: 0.8; stroke: #cccccc; stroke-linejoin: miter"/>
    </g>
    <g id="line2d_73">
     <g>
      <use xlink:href="#ma8cf5c4154" x="320.75748" y="19.9775" style="fill: #808000; stroke: #808000; stroke-linejoin: miter"/>
     </g>
    </g>
    <g id="text_27">
     <text style="font: 8px 'Carlito', sans-serif; text-anchor: start" x="335.15748" y="22.7775" transform="rotate(-0 335.15748 22.7775)">propagation failure</text>
    </g>
    <g id="line2d_74">
     <g>
      <use xlink:href="#m20f4da1a9e" x="320.75748" y="30.9525" style="fill: #800000; stroke: #800000; stroke-linejoin: miter"/>
     </g>
    </g>
    <g id="text_28">
     <text style="font: 8px 'Carlito', sans-serif; text-anchor: start" x="335.15748" y="33.7525" transform="rotate(-0 335.15748 33.7525)">front spawning</text>
    </g>
    <g id="line2d_75">
     <path d="M 312.75748 43.1275 
L 320.75748 43.1275 
L 328.75748 43.1275 
" style="fill: none; stroke: #808000; stroke-opacity: 0.3; stroke-width: 1.5; stroke-linecap: square"/>
    </g>
    <g id="text_29">
     <!-- $\lambda_{\mathrm{fail}}=\exp(a_{\mathrm{fail}}^'~×~(W - W_{\mathrm{fail}}^'))$ -->
     <g transform="translate(335.15748 45.9275)">
      <text>
       <tspan style="font: italic 8px 'Carlito'" x="0 31.446094 53.341364 66.978083" y="-0.23593750000000036">λaWW</tspan>
       <tspan style="font: 5.6px 'Carlito'" x="3.703125 5.412109 8.094531 9.379687 35.559375 35.878568 37.268359 39.950781 41.235938 74.099177 74.595557 75.808161 78.490583 79.775739" y="0.9124999999999996 0.9124999999999996 0.9124999999999996 0.9124999999999996 1.6781249999999996 -3.215625 1.6781249999999996 1.6781249999999996 1.6781249999999996 1.6781249999999996 -3.215625 1.6781249999999996 1.6781249999999996 1.6781249999999996">failf'ailf'ail</tspan>
       <tspan style="font: 8px 'Carlito'" x="12.121875 17.371875 21.352344 24.817187 29.020312 44.821854 50.915583 61.728083 81.252302 83.678083" y="-0.23593750000000036">=exp(×(−))</tspan>
      </text>
     </g>
    </g>
    <g id="line2d_76">
     <path d="M 312.75748 55.6075 
L 320.75748 55.6075 
L 328.75748 55.6075 
" style="fill: none; stroke: #800000; stroke-opacity: 0.4; stroke-width: 1.5; stroke-linecap: square"/>
    </g>
    <g id="text_30">
     <!-- $\lambda_{\mathrm{spawn}}=a_{\mathrm{spawn}}^'~×~(W - W_{\mathrm{spawn}}^')$ -->
     <g transform="translate(335.15748 58.4075)">
      <text>
       <tspan style="font: italic 8px 'Carlito'" x="0 25.170313 54.86402 68.500739" y="-0.5359375000000011">λaWW</tspan>
       <tspan style="font: 5.6px 'Carlito'" x="3.703125 5.893359 8.835547 11.517969 15.521094 29.283594 29.602786 31.473828 34.416016 37.098438 41.101562 75.621833 76.118213 77.812067 80.754255 83.436677 87.439802" y="0.6124999999999989 0.6124999999999989 0.6124999999999989 0.6124999999999989 0.6124999999999989 1.3781250000000007 -3.215625 1.3781250000000007 1.3781250000000007 1.3781250000000007 1.3781250000000007 1.3781250000000007 -3.215625 1.3781250000000007 1.3781250000000007 1.3781250000000007 1.3781250000000007">spawns'pawns'pawn</tspan>
       <tspan style="font: 8px 'Carlito'" x="19.920313 46.34451 52.438239 63.250739 90.573395" y="-0.5359375000000011">=×(−)</tspan>
      </text>
     </g>
    </g>
    <g id="line2d_77">
     <path d="M 312.75748 68.0875 
L 320.75748 68.0875 
L 328.75748 68.0875 
" style="fill: none; stroke: #000080; stroke-opacity: 0.4; stroke-width: 1.5; stroke-linecap: square"/>
    </g>
    <g id="text_31">
     <!-- $\lambda_{\mathrm{tot}} = \lambda_{\mathrm{fail}} + \lambda_{\mathrm{spawn}}$ -->
     <g transform="translate(335.15748 70.8875)">
      <text>
       <tspan style="font: italic 8px 'Carlito'" x="0 17.114844 34.486719" y="-0.546875">λλλ</tspan>
       <tspan style="font: 5.6px 'Carlito'" x="3.703125 5.578906 8.532031 20.817969 22.526953 25.209375 26.494531 38.189844 40.380078 43.322266 46.004688 50.007812" y="0.6015625">totfailspawn</tspan>
       <tspan style="font: 8px 'Carlito'" x="11.864844 29.236719" y="-0.546875">=+</tspan>
      </text>
     </g>
    </g>
   </g>
  </g>
 </g>
 <defs>
  <clipPath id="p50e4f84707">
   <rect x="52.04" y="9.9775" width="170.07874" height="119.055118"/>
  </clipPath>
  <clipPath id="pea48de099a">
   <rect x="265.31874" y="9.9775" width="170.07874" height="119.055118"/>
  </clipPath>
 </defs>
</svg>
